<svg xmlns="http://www.w3.org/2000/svg" width="3898" height="2225" fill="none" viewBox="0 0 3898 2225">
  <g clip-path="url(#clip0)">
    <path fill="#fff" d="M0 0h3898v2225H0z"/>
    <path fill="#C4C4C4" d="M992 549h1892v368H992z"/>
    <path fill="#000" d="M1323.91 726.516c-1.27 10.828-5.28 19.195-12.03 25.101-6.7 5.86-15.63 8.789-26.79 8.789-12.09 0-21.79-4.336-29.11-13.008-7.26-8.671-10.89-20.273-10.89-34.804v-9.844c0-9.516 1.68-17.883 5.06-25.102 3.42-7.218 8.25-12.75 14.48-16.593 6.24-3.891 13.46-5.836 21.66-5.836 10.87 0 19.59 3.047 26.16 9.14 6.56 6.047 10.38 14.438 11.46 25.172h-13.57c-1.18-8.156-3.73-14.062-7.67-17.719-3.89-3.656-9.35-5.484-16.38-5.484-8.63 0-15.4 3.188-20.32 9.563-4.88 6.375-7.31 15.445-7.31 27.211v9.914c0 11.109 2.32 19.945 6.96 26.507 4.64 6.563 11.13 9.844 19.47 9.844 7.5 0 13.25-1.687 17.23-5.062 4.03-3.422 6.7-9.352 8.02-17.789h13.57zm13-6.258c0-7.453 1.46-14.156 4.36-20.11 2.96-5.953 7.03-10.546 12.24-13.781 5.25-3.234 11.22-4.851 17.93-4.851 10.36 0 18.72 3.586 25.1 10.757 6.42 7.172 9.63 16.711 9.63 28.618v.914c0 7.406-1.43 14.062-4.29 19.968-2.81 5.86-6.86 10.43-12.16 13.711-5.25 3.282-11.3 4.922-18.14 4.922-10.31 0-18.68-3.586-25.1-10.758-6.38-7.171-9.57-16.664-9.57-28.476v-.914zm13.08 1.547c0 8.437 1.95 15.211 5.84 20.32 3.94 5.109 9.19 7.664 15.75 7.664 6.61 0 11.86-2.578 15.75-7.734 3.89-5.203 5.83-12.469 5.83-21.797 0-8.344-1.99-15.094-5.97-20.25-3.94-5.203-9.19-7.805-15.75-7.805-6.42 0-11.6 2.555-15.54 7.664-3.94 5.11-5.91 12.422-5.91 21.938zm84.8-38.883l.42 9.562c5.81-7.312 13.41-10.968 22.78-10.968 16.08 0 24.19 9.07 24.33 27.211V759h-13.01v-50.344c-.04-5.484-1.31-9.539-3.79-12.164-2.44-2.625-6.26-3.937-11.47-3.937-4.21 0-7.92 1.125-11.1 3.375-3.19 2.25-5.68 5.203-7.46 8.859V759h-13.01v-76.078h12.31zM1506.3 759v-66.023h-12.03v-10.055h12.03v-6.469c0-8.484 2.41-15.094 7.24-19.828 4.87-4.734 11.74-7.102 20.6-7.102 5.25 0 11.88 1.43 19.9 4.289l-2.18 10.969c-5.86-2.343-11.44-3.515-16.74-3.515-5.57 0-9.6 1.265-12.09 3.796-2.44 2.485-3.65 6.235-3.65 11.25v6.61h15.53v10.055h-15.53V759h-13.08zm54.21 0h-13.08v-76.078h13.08V759zm18.07-38.672c0-11.859 2.74-21.281 8.22-28.266 5.49-7.031 12.75-10.546 21.8-10.546 9.28 0 16.52 3.281 21.73 9.843l.63-8.437h11.88v74.25c0 9.844-2.93 17.601-8.79 23.273-5.81 5.672-13.64 8.508-23.48 8.508-5.48 0-10.85-1.172-16.1-3.515-5.25-2.344-9.26-5.555-12.02-9.633l6.75-7.805c5.57 6.891 12.39 10.336 20.46 10.336 6.32 0 11.25-1.781 14.76-5.344 3.56-3.562 5.35-8.578 5.35-15.047v-6.539c-5.21 6-12.31 9-21.31 9-8.91 0-16.12-3.586-21.66-10.758-5.48-7.171-8.22-16.945-8.22-29.32zm13.08 1.477c0 8.578 1.75 15.328 5.27 20.25 3.52 4.875 8.44 7.312 14.77 7.312 8.2 0 14.22-3.726 18.07-11.179v-34.735c-3.99-7.265-9.97-10.898-17.93-10.898-6.33 0-11.28 2.461-14.84 7.383-3.56 4.921-5.34 12.21-5.34 21.867zm117.84 29.672c-5.06 5.953-12.49 8.929-22.29 8.929-8.11 0-14.3-2.344-18.56-7.031-4.22-4.734-6.35-11.719-6.4-20.953v-49.5h13.01v49.148c0 11.532 4.69 17.297 14.06 17.297 9.94 0 16.55-3.703 19.83-11.109v-55.336h13.01V759h-12.38l-.28-7.523zm69.26-56.883c-1.97-.328-4.1-.492-6.4-.492-8.53 0-14.32 3.632-17.37 10.898v54h-13.01v-76.078h12.66l.21 8.789c4.27-6.797 10.31-10.195 18.14-10.195 2.53 0 4.46.328 5.77.984v12.094zM1834.94 759c-.75-1.5-1.36-4.172-1.83-8.016-6.05 6.282-13.27 9.422-21.66 9.422-7.5 0-13.66-2.109-18.49-6.328-4.78-4.266-7.17-9.656-7.17-16.172 0-7.922 3-14.062 9-18.422 6.05-4.406 14.53-6.609 25.45-6.609h12.66v-5.977c0-4.546-1.36-8.156-4.08-10.828-2.72-2.718-6.73-4.078-12.02-4.078-4.64 0-8.53 1.172-11.68 3.516-3.14 2.344-4.71 5.18-4.71 8.508h-13.07c0-3.797 1.33-7.454 4-10.969 2.72-3.563 6.38-6.375 10.97-8.438 4.64-2.062 9.73-3.093 15.26-3.093 8.77 0 15.63 2.203 20.6 6.609 4.97 4.359 7.55 10.383 7.74 18.07v35.016c0 6.984.89 12.539 2.67 16.664V759h-13.64zm-21.59-9.914c4.08 0 7.95-1.055 11.6-3.164 3.66-2.11 6.31-4.852 7.95-8.227v-15.609h-10.2c-15.93 0-23.9 4.664-23.9 13.992 0 4.078 1.36 7.266 4.08 9.563 2.71 2.297 6.21 3.445 10.47 3.445zm83.46.703c4.64 0 8.7-1.406 12.17-4.219 3.47-2.812 5.39-6.328 5.76-10.547h12.31c-.24 4.36-1.74 8.508-4.5 12.446-2.77 3.937-6.47 7.078-11.11 9.422-4.6 2.343-9.47 3.515-14.63 3.515-10.36 0-18.61-3.445-24.75-10.336-6.09-6.937-9.14-16.406-9.14-28.406v-2.18c0-7.406 1.36-13.992 4.08-19.757 2.72-5.766 6.61-10.243 11.67-13.43 5.11-3.188 11.13-4.781 18.07-4.781 8.53 0 15.61 2.554 21.24 7.664 5.67 5.109 8.69 11.742 9.07 19.898h-12.31c-.37-4.922-2.25-8.953-5.62-12.094-3.33-3.187-7.46-4.781-12.38-4.781-6.61 0-11.74 2.391-15.4 7.172-3.61 4.734-5.41 11.602-5.41 20.602v2.461c0 8.765 1.8 15.515 5.41 20.25 3.61 4.734 8.77 7.101 15.47 7.101zM1955.8 759h-13v-76.078h13V759zm-14.06-96.258c0-2.109.64-3.89 1.9-5.344 1.31-1.453 3.24-2.179 5.77-2.179 2.53 0 4.45.726 5.76 2.179 1.31 1.454 1.97 3.235 1.97 5.344 0 2.11-.66 3.867-1.97 5.274-1.31 1.406-3.23 2.109-5.76 2.109s-4.46-.703-5.77-2.109c-1.26-1.407-1.9-3.164-1.9-5.274zm31.5 57.516c0-7.453 1.46-14.156 4.36-20.11 2.95-5.953 7.03-10.546 12.24-13.781 5.25-3.234 11.22-4.851 17.93-4.851 10.35 0 18.72 3.586 25.1 10.757 6.42 7.172 9.63 16.711 9.63 28.618v.914c0 7.406-1.43 14.062-4.29 19.968-2.81 5.86-6.87 10.43-12.16 13.711-5.25 3.282-11.3 4.922-18.14 4.922-10.32 0-18.68-3.586-25.11-10.758-6.37-7.171-9.56-16.664-9.56-28.476v-.914zm13.08 1.547c0 8.437 1.95 15.211 5.84 20.32 3.93 5.109 9.18 7.664 15.75 7.664 6.61 0 11.86-2.578 15.75-7.734 3.89-5.203 5.83-12.469 5.83-21.797 0-8.344-1.99-15.094-5.97-20.25-3.94-5.203-9.19-7.805-15.75-7.805-6.43 0-11.61 2.555-15.54 7.664-3.94 5.11-5.91 12.422-5.91 21.938zM2013.67 651h15.75l-18.84 20.672h-10.48L2013.67 651zm57.45 31.922l.42 9.562c5.81-7.312 13.41-10.968 22.78-10.968 16.08 0 24.19 9.07 24.33 27.211V759h-13.01v-50.344c-.05-5.484-1.31-9.539-3.8-12.164-2.43-2.625-6.25-3.937-11.46-3.937-4.22 0-7.92 1.125-11.11 3.375-3.18 2.25-5.67 5.203-7.45 8.859V759h-13.01v-76.078h12.31zm99.7 37.406c0-11.672 2.77-21.047 8.3-28.125 5.53-7.125 12.77-10.687 21.72-10.687 8.91 0 15.96 3.046 21.17 9.14V651h13.01v108h-11.96l-.63-8.156c-5.2 6.375-12.45 9.562-21.73 9.562-8.81 0-16-3.609-21.58-10.828-5.53-7.219-8.3-16.64-8.3-28.266v-.984zm13.01 1.477c0 8.625 1.78 15.375 5.34 20.25 3.56 4.875 8.49 7.312 14.77 7.312 8.25 0 14.27-3.703 18.07-11.109v-34.946c-3.89-7.171-9.87-10.757-17.93-10.757-6.38 0-11.35 2.461-14.91 7.383-3.56 4.921-5.34 12.21-5.34 21.867zm103.01 38.601c-10.32 0-18.71-3.375-25.18-10.125-6.46-6.797-9.7-15.867-9.7-27.211v-2.39c0-7.547 1.43-14.274 4.29-20.18 2.91-5.953 6.94-10.594 12.09-13.922 5.21-3.375 10.83-5.062 16.88-5.062 9.89 0 17.58 3.257 23.06 9.773 5.49 6.516 8.23 15.844 8.23 27.984v5.415h-51.54c.19 7.5 2.37 13.57 6.54 18.21 4.22 4.594 9.56 6.891 16.03 6.891 4.59 0 8.48-.937 11.67-2.812 3.19-1.875 5.98-4.36 8.37-7.454l7.94 6.188c-6.37 9.797-15.93 14.695-28.68 14.695zm-1.62-68.203c-5.25 0-9.66 1.922-13.22 5.766-3.56 3.797-5.77 9.14-6.61 16.031h38.11v-.984c-.38-6.61-2.16-11.719-5.34-15.328-3.19-3.657-7.5-5.485-12.94-5.485zM2345.76 759h-13.01V651h13.01v108zm88.8-45.633c-11.58-3.328-20.01-7.406-25.31-12.234-5.25-4.875-7.87-10.875-7.87-18 0-8.063 3.21-14.719 9.63-19.969 6.47-5.297 14.86-7.945 25.17-7.945 7.03 0 13.29 1.359 18.77 4.078 5.53 2.719 9.8 6.469 12.8 11.25 3.05 4.781 4.57 10.008 4.57 15.68h-13.57c0-6.188-1.97-11.039-5.91-14.555-3.93-3.563-9.49-5.344-16.66-5.344-6.66 0-11.86 1.477-15.61 4.43-3.7 2.906-5.55 6.961-5.55 12.164 0 4.172 1.75 7.711 5.27 10.617 3.56 2.859 9.59 5.484 18.07 7.875 8.53 2.391 15.19 5.039 19.97 7.945 4.83 2.86 8.39 6.211 10.69 10.055 2.34 3.844 3.51 8.367 3.51 13.57 0 8.297-3.23 14.954-9.7 19.969-6.47 4.969-15.12 7.453-25.95 7.453-7.03 0-13.59-1.336-19.68-4.008-6.1-2.718-10.81-6.421-14.14-11.109-3.28-4.687-4.92-10.008-4.92-15.961h13.57c0 6.188 2.27 11.086 6.82 14.695 4.59 3.563 10.71 5.344 18.35 5.344 7.13 0 12.59-1.453 16.39-4.359 3.79-2.906 5.69-6.867 5.69-11.883 0-5.016-1.76-8.883-5.27-11.602-3.52-2.765-9.89-5.484-19.13-8.156zM2501.99 759h-13.01v-76.078h13.01V759zm-14.06-96.258c0-2.109.63-3.89 1.9-5.344 1.31-1.453 3.23-2.179 5.76-2.179s4.46.726 5.77 2.179c1.31 1.454 1.97 3.235 1.97 5.344 0 2.11-.66 3.867-1.97 5.274-1.31 1.406-3.24 2.109-5.77 2.109-2.53 0-4.45-.703-5.76-2.109-1.27-1.407-1.9-3.164-1.9-5.274zm52.59 1.758v18.422h14.21v10.055h-14.21v47.179c0 3.047.64 5.344 1.9 6.891 1.27 1.5 3.42 2.25 6.47 2.25 1.5 0 3.56-.281 6.19-.844V759c-3.42.938-6.75 1.406-9.99 1.406-5.81 0-10.19-1.758-13.14-5.273-2.96-3.516-4.43-8.508-4.43-14.977v-47.179h-13.86v-10.055h13.86V664.5h13zm43.6 94.5h-13.01v-76.078h13.01V759zm-14.07-96.258c0-2.109.64-3.89 1.9-5.344 1.32-1.453 3.24-2.179 5.77-2.179 2.53 0 4.45.726 5.76 2.179 1.32 1.454 1.97 3.235 1.97 5.344 0 2.11-.65 3.867-1.97 5.274-1.31 1.406-3.23 2.109-5.76 2.109s-4.45-.703-5.77-2.109c-1.26-1.407-1.9-3.164-1.9-5.274zm31.5 57.516c0-7.453 1.46-14.156 4.36-20.11 2.96-5.953 7.04-10.546 12.24-13.781 5.25-3.234 11.23-4.851 17.93-4.851 10.36 0 18.72 3.586 25.1 10.757 6.42 7.172 9.63 16.711 9.63 28.618v.914c0 7.406-1.43 14.062-4.29 19.968-2.81 5.86-6.86 10.43-12.16 13.711-5.25 3.282-11.3 4.922-18.14 4.922-10.31 0-18.68-3.586-25.1-10.758-6.38-7.171-9.57-16.664-9.57-28.476v-.914zm13.08 1.547c0 8.437 1.95 15.211 5.84 20.32 3.94 5.109 9.19 7.664 15.75 7.664 6.61 0 11.86-2.578 15.75-7.734 3.89-5.203 5.83-12.469 5.83-21.797 0-8.344-1.99-15.094-5.97-20.25-3.94-5.203-9.19-7.805-15.75-7.805-6.42 0-11.6 2.555-15.54 7.664-3.94 5.11-5.91 12.422-5.91 21.938z"/>
    <path fill="#C4C4C4" d="M992 1112h1892v368H992z"/>
    <path fill="#000" d="M1267.16 1289.52c-1.26 10.82-5.27 19.19-12.02 25.1-6.7 5.86-15.63 8.79-26.79 8.79-12.09 0-21.8-4.34-29.11-13.01-7.26-8.67-10.9-20.28-10.9-34.81v-9.84c0-9.52 1.69-17.88 5.07-25.1 3.42-7.22 8.25-12.75 14.48-16.6 6.23-3.89 13.45-5.83 21.66-5.83 10.87 0 19.59 3.05 26.15 9.14 6.57 6.05 10.39 14.44 11.46 25.17h-13.57c-1.17-8.15-3.72-14.06-7.66-17.72-3.89-3.65-9.35-5.48-16.38-5.48-8.63 0-15.4 3.19-20.32 9.56-4.88 6.38-7.32 15.45-7.32 27.21v9.92c0 11.1 2.32 19.94 6.97 26.5 4.64 6.57 11.13 9.85 19.47 9.85 7.5 0 13.24-1.69 17.23-5.07 4.03-3.42 6.7-9.35 8.01-17.78h13.57zm13.01-6.26c0-7.46 1.45-14.16 4.36-20.11 2.95-5.95 7.03-10.55 12.24-13.78 5.25-3.24 11.22-4.85 17.93-4.85 10.35 0 18.72 3.58 25.1 10.75 6.42 7.18 9.63 16.71 9.63 28.62v.91c0 7.41-1.43 14.07-4.29 19.97-2.81 5.86-6.87 10.43-12.16 13.71-5.25 3.29-11.3 4.93-18.14 4.93-10.32 0-18.68-3.59-25.11-10.76-6.37-7.17-9.56-16.67-9.56-28.48v-.91zm13.08 1.54c0 8.44 1.95 15.22 5.84 20.32 3.93 5.11 9.18 7.67 15.75 7.67 6.61 0 11.86-2.58 15.75-7.74 3.89-5.2 5.83-12.46 5.83-21.79 0-8.35-1.99-15.1-5.97-20.25-3.94-5.21-9.19-7.81-15.75-7.81-6.43 0-11.61 2.56-15.54 7.67-3.94 5.11-5.91 12.42-5.91 21.93zm84.8-38.88l.42 9.56c5.81-7.31 13.41-10.96 22.78-10.96 16.08 0 24.19 9.07 24.33 27.21V1322h-13.01v-50.34c-.05-5.49-1.31-9.54-3.8-12.17-2.43-2.62-6.25-3.94-11.46-3.94-4.22 0-7.92 1.13-11.11 3.38-3.18 2.25-5.67 5.2-7.45 8.86V1322h-13.01v-76.08h12.31zm71.5 76.08v-66.02h-12.02v-10.06h12.02v-6.47c0-8.48 2.42-15.09 7.25-19.83 4.87-4.73 11.74-7.1 20.6-7.1 5.25 0 11.88 1.43 19.9 4.29l-2.18 10.97c-5.86-2.34-11.44-3.51-16.74-3.51-5.58 0-9.61 1.26-12.09 3.79-2.44 2.49-3.66 6.24-3.66 11.25v6.61h15.54v10.06h-15.54V1322h-13.08zm54.22 0h-13.08v-76.08h13.08V1322zm18.07-38.67c0-11.86 2.74-21.28 8.22-28.27 5.49-7.03 12.75-10.54 21.8-10.54 9.28 0 16.52 3.28 21.73 9.84l.63-8.44h11.88v74.25c0 9.85-2.93 17.6-8.79 23.28-5.81 5.67-13.64 8.5-23.48 8.5-5.49 0-10.85-1.17-16.1-3.51-5.25-2.35-9.26-5.56-12.03-9.64l6.75-7.8c5.58 6.89 12.4 10.34 20.46 10.34 6.33 0 11.25-1.79 14.77-5.35 3.56-3.56 5.34-8.58 5.34-15.04v-6.54c-5.2 6-12.3 9-21.3 9-8.91 0-16.13-3.59-21.66-10.76-5.48-7.17-8.22-16.95-8.22-29.32zm13.07 1.47c0 8.58 1.76 15.33 5.28 20.25 3.51 4.88 8.43 7.32 14.76 7.32 8.21 0 14.23-3.73 18.07-11.18v-34.74c-3.98-7.26-9.96-10.9-17.93-10.9-6.32 0-11.27 2.47-14.83 7.39-3.56 4.92-5.35 12.21-5.35 21.86zm117.85 29.68c-5.06 5.95-12.49 8.93-22.29 8.93-8.11 0-14.3-2.35-18.56-7.03-4.22-4.74-6.36-11.72-6.4-20.96v-49.5h13.01v49.15c0 11.53 4.68 17.3 14.06 17.3 9.94 0 16.54-3.71 19.83-11.11v-55.34h13V1322h-12.37l-.28-7.52zm69.26-56.89c-1.97-.32-4.11-.49-6.4-.49-8.53 0-14.32 3.63-17.37 10.9v54h-13.01v-76.08h12.66l.21 8.79c4.27-6.8 10.31-10.19 18.14-10.19 2.53 0 4.45.32 5.77.98v12.09zm56.18 64.41c-.75-1.5-1.36-4.17-1.83-8.02-6.05 6.29-13.27 9.43-21.66 9.43-7.5 0-13.66-2.11-18.49-6.33-4.78-4.27-7.17-9.66-7.17-16.17 0-7.93 3-14.07 9-18.43 6.04-4.4 14.53-6.6 25.45-6.6h12.66v-5.98c0-4.55-1.36-8.16-4.08-10.83-2.72-2.72-6.73-4.08-12.03-4.08-4.64 0-8.53 1.17-11.67 3.52-3.14 2.34-4.71 5.18-4.71 8.51h-13.08c0-3.8 1.34-7.46 4.01-10.97 2.72-3.57 6.38-6.38 10.97-8.44 4.64-2.06 9.73-3.09 15.26-3.09 8.76 0 15.63 2.2 20.6 6.6 4.97 4.36 7.55 10.39 7.73 18.08v35.01c0 6.99.89 12.54 2.68 16.67v1.12h-13.64zm-21.59-9.91c4.08 0 7.94-1.06 11.6-3.17 3.66-2.11 6.31-4.85 7.95-8.22v-15.61h-10.2c-15.94 0-23.91 4.66-23.91 13.99 0 4.08 1.36 7.26 4.08 9.56 2.72 2.3 6.21 3.45 10.48 3.45zm83.46.7c4.64 0 8.7-1.41 12.16-4.22 3.47-2.81 5.39-6.33 5.77-10.55h12.3c-.23 4.36-1.73 8.51-4.5 12.45-2.76 3.94-6.46 7.08-11.1 9.42-4.6 2.34-9.47 3.52-14.63 3.52-10.36 0-18.61-3.45-24.75-10.34-6.09-6.94-9.14-16.41-9.14-28.41v-2.18c0-7.4 1.36-13.99 4.08-19.75 2.72-5.77 6.61-10.25 11.67-13.43 5.11-3.19 11.13-4.78 18.07-4.78 8.53 0 15.61 2.55 21.23 7.66 5.68 5.11 8.7 11.74 9.07 19.9H1858c-.38-4.92-2.25-8.96-5.62-12.1-3.33-3.18-7.46-4.78-12.38-4.78-6.61 0-11.74 2.39-15.4 7.18-3.61 4.73-5.41 11.6-5.41 20.6v2.46c0 8.76 1.8 15.51 5.41 20.25 3.61 4.73 8.77 7.1 15.47 7.1zm58.99 9.21h-13.01v-76.08h13.01V1322zm-14.06-96.26c0-2.11.63-3.89 1.9-5.34 1.31-1.45 3.23-2.18 5.76-2.18 2.54 0 4.46.73 5.77 2.18 1.31 1.45 1.97 3.23 1.97 5.34s-.66 3.87-1.97 5.28c-1.31 1.4-3.23 2.1-5.77 2.1-2.53 0-4.45-.7-5.76-2.1-1.27-1.41-1.9-3.17-1.9-5.28zm31.5 57.52c0-7.46 1.45-14.16 4.36-20.11 2.95-5.95 7.03-10.55 12.23-13.78 5.25-3.24 11.23-4.85 17.93-4.85 10.36 0 18.73 3.58 25.1 10.75 6.43 7.18 9.64 16.71 9.64 28.62v.91c0 7.41-1.43 14.07-4.29 19.97-2.81 5.86-6.87 10.43-12.17 13.71-5.25 3.29-11.29 4.93-18.14 4.93-10.31 0-18.68-3.59-25.1-10.76-6.37-7.17-9.56-16.67-9.56-28.48v-.91zm13.08 1.54c0 8.44 1.94 15.22 5.83 20.32 3.94 5.11 9.19 7.67 15.75 7.67 6.61 0 11.86-2.58 15.75-7.74 3.89-5.2 5.84-12.46 5.84-21.79 0-8.35-1.99-15.1-5.98-20.25-3.93-5.21-9.18-7.81-15.75-7.81-6.42 0-11.6 2.56-15.54 7.67-3.93 5.11-5.9 12.42-5.9 21.93zm27.35-70.8h15.75l-18.84 20.67h-10.48l13.57-20.67zm57.45 31.92l.42 9.56c5.81-7.31 13.4-10.96 22.78-10.96 16.08 0 24.19 9.07 24.33 27.21V1322h-13.01v-50.34c-.05-5.49-1.31-9.54-3.8-12.17-2.44-2.62-6.26-3.94-11.46-3.94-4.22 0-7.92 1.13-11.11 3.38-3.19 2.25-5.67 5.2-7.45 8.86V1322h-13.01v-76.08h12.31zm99.7 37.41c0-11.67 2.76-21.05 8.3-28.13 5.53-7.12 12.77-10.68 21.72-10.68 8.91 0 15.96 3.04 21.17 9.14V1214h13v108h-11.95l-.63-8.16c-5.21 6.38-12.45 9.57-21.73 9.57-8.81 0-16.01-3.61-21.58-10.83-5.54-7.22-8.3-16.64-8.3-28.27v-.98zm13.01 1.47c0 8.63 1.78 15.38 5.34 20.25 3.56 4.88 8.48 7.32 14.77 7.32 8.25 0 14.27-3.71 18.07-11.11v-34.95c-3.89-7.17-9.87-10.76-17.93-10.76-6.38 0-11.35 2.47-14.91 7.39-3.56 4.92-5.34 12.21-5.34 21.86zm103 38.61c-10.31 0-18.7-3.38-25.17-10.13-6.47-6.8-9.7-15.87-9.7-27.21v-2.39c0-7.55 1.43-14.27 4.29-20.18 2.9-5.95 6.94-10.59 12.09-13.92 5.2-3.38 10.83-5.06 16.88-5.06 9.89 0 17.57 3.25 23.06 9.77 5.48 6.51 8.23 15.84 8.23 27.98v5.42h-51.54c.18 7.5 2.36 13.57 6.54 18.21 4.21 4.59 9.56 6.89 16.03 6.89 4.59 0 8.48-.94 11.67-2.81 3.19-1.88 5.98-4.36 8.37-7.46l7.94 6.19c-6.37 9.8-15.94 14.7-28.69 14.7zm-1.61-68.21c-5.25 0-9.66 1.92-13.22 5.77-3.56 3.8-5.77 9.14-6.61 16.03h38.11v-.98c-.38-6.61-2.16-11.72-5.35-15.33-3.18-3.66-7.5-5.49-12.93-5.49zm60.54 66.8h-13.01v-108h13.01v108zm101.53-102.38h13.57v72.5c0 9.79-2.96 17.46-8.86 22.99-5.86 5.53-13.69 8.3-23.49 8.3-10.17 0-18.09-2.61-23.76-7.81-5.67-5.2-8.51-12.49-8.51-21.87h13.5c0 5.86 1.59 10.43 4.78 13.72 3.24 3.28 7.9 4.92 13.99 4.92 5.58 0 10.08-1.76 13.5-5.28 3.47-3.51 5.23-8.43 5.28-14.76v-72.71zm81.49 94.86c-5.06 5.95-12.49 8.93-22.29 8.93-8.11 0-14.3-2.35-18.56-7.03-4.22-4.74-6.35-11.72-6.4-20.96v-49.5h13.01v49.15c0 11.53 4.68 17.3 14.06 17.3 9.94 0 16.55-3.71 19.83-11.11v-55.34h13.01V1322h-12.38l-.28-7.52zm64.05 8.93c-10.31 0-18.7-3.38-25.17-10.13-6.47-6.8-9.7-15.87-9.7-27.21v-2.39c0-7.55 1.43-14.27 4.29-20.18 2.9-5.95 6.94-10.59 12.09-13.92 5.2-3.38 10.83-5.06 16.88-5.06 9.89 0 17.57 3.25 23.06 9.77 5.48 6.51 8.23 15.84 8.23 27.98v5.42h-51.54c.18 7.5 2.36 13.57 6.54 18.21 4.21 4.59 9.56 6.89 16.03 6.89 4.59 0 8.48-.94 11.67-2.81 3.19-1.88 5.98-4.36 8.37-7.46l7.94 6.19c-6.37 9.8-15.94 14.7-28.69 14.7zm-1.61-68.21c-5.25 0-9.66 1.92-13.22 5.77-3.56 3.8-5.77 9.14-6.61 16.03h38.11v-.98c-.38-6.61-2.16-11.72-5.35-15.33-3.18-3.66-7.5-5.49-12.93-5.49zm43.31 28.13c0-11.86 2.74-21.28 8.23-28.27 5.48-7.03 12.75-10.54 21.79-10.54 9.28 0 16.53 3.28 21.73 9.84l.63-8.44h11.88v74.25c0 9.85-2.93 17.6-8.78 23.28-5.82 5.67-13.65 8.5-23.49 8.5-5.48 0-10.85-1.17-16.1-3.51-5.25-2.35-9.26-5.56-12.02-9.64l6.75-7.8c5.57 6.89 12.39 10.34 20.46 10.34 6.33 0 11.25-1.79 14.76-5.35 3.57-3.56 5.35-8.58 5.35-15.04v-6.54c-5.21 6-12.31 9-21.31 9-8.9 0-16.12-3.59-21.65-10.76-5.49-7.17-8.23-16.95-8.23-29.32zm13.08 1.47c0 8.58 1.75 15.33 5.27 20.25 3.52 4.88 8.44 7.32 14.77 7.32 8.2 0 14.22-3.73 18.07-11.18v-34.74c-3.99-7.26-9.96-10.9-17.93-10.9-6.33 0-11.28 2.47-14.84 7.39-3.56 4.92-5.34 12.21-5.34 21.86zm67.43-1.54c0-7.46 1.45-14.16 4.36-20.11 2.95-5.95 7.03-10.55 12.23-13.78 5.25-3.24 11.23-4.85 17.93-4.85 10.36 0 18.73 3.58 25.1 10.75 6.42 7.18 9.63 16.71 9.63 28.62v.91c0 7.41-1.43 14.07-4.28 19.97-2.82 5.86-6.87 10.43-12.17 13.71-5.25 3.29-11.3 4.93-18.14 4.93-10.31 0-18.68-3.59-25.1-10.76-6.38-7.17-9.56-16.67-9.56-28.48v-.91zm13.08 1.54c0 8.44 1.94 15.22 5.83 20.32 3.94 5.11 9.19 7.67 15.75 7.67 6.61 0 11.86-2.58 15.75-7.74 3.89-5.2 5.84-12.46 5.84-21.79 0-8.35-2-15.1-5.98-20.25-3.94-5.21-9.19-7.81-15.75-7.81-6.42 0-11.6 2.56-15.54 7.67-3.94 5.11-5.9 12.42-5.9 21.93zM1369.53 179.516c-1.26 10.828-5.27 19.195-12.02 25.101-6.71 5.86-15.63 8.789-26.79 8.789-12.1 0-21.8-4.336-29.11-13.008-7.27-8.671-10.9-20.273-10.9-34.804v-9.844c0-9.516 1.69-17.883 5.06-25.102 3.43-7.218 8.25-12.75 14.49-16.593 6.23-3.891 13.45-5.836 21.65-5.836 10.88 0 19.6 3.047 26.16 9.14 6.56 6.047 10.38 14.438 11.46 25.172h-13.57c-1.17-8.156-3.73-14.062-7.66-17.719-3.89-3.656-9.35-5.484-16.39-5.484-8.62 0-15.39 3.188-20.32 9.563-4.87 6.375-7.31 15.445-7.31 27.211v9.914c0 11.109 2.32 19.945 6.96 26.507 4.64 6.563 11.14 9.844 19.48 9.844 7.5 0 13.24-1.687 17.23-5.062 4.03-3.422 6.7-9.352 8.01-17.789h13.57zm13.01-6.258c0-7.453 1.45-14.156 4.36-20.11 2.95-5.953 7.03-10.546 12.23-13.781 5.25-3.234 11.23-4.851 17.93-4.851 10.36 0 18.73 3.586 25.1 10.757 6.43 7.172 9.64 16.711 9.64 28.618v.914c0 7.406-1.43 14.062-4.29 19.968-2.81 5.86-6.87 10.43-12.17 13.711-5.25 3.282-11.29 4.922-18.14 4.922-10.31 0-18.68-3.586-25.1-10.758-6.37-7.171-9.56-16.664-9.56-28.476v-.914zm13.08 1.547c0 8.437 1.94 15.211 5.83 20.32 3.94 5.109 9.19 7.664 15.75 7.664 6.61 0 11.86-2.578 15.75-7.734 3.89-5.203 5.84-12.469 5.84-21.797 0-8.344-1.99-15.094-5.98-20.25-3.93-5.203-9.19-7.805-15.75-7.805-6.42 0-11.6 2.555-15.54 7.664-3.93 5.11-5.9 12.422-5.9 21.938zm84.79-38.883l.43 9.562c5.81-7.312 13.4-10.968 22.78-10.968 16.08 0 24.18 9.07 24.33 27.211V212h-13.01v-50.344c-.05-5.484-1.32-9.539-3.8-12.164-2.44-2.625-6.26-3.937-11.46-3.937-4.22 0-7.92 1.125-11.11 3.375-3.19 2.25-5.67 5.203-7.45 8.859V212h-13.01v-76.078h12.3zM1551.92 212v-66.023h-12.02v-10.055h12.02v-6.469c0-8.484 2.42-15.094 7.24-19.828 4.88-4.734 11.75-7.102 20.61-7.102 5.25 0 11.88 1.43 19.89 4.289l-2.18 10.969c-5.86-2.343-11.43-3.515-16.73-3.515-5.58 0-9.61 1.265-12.09 3.796-2.44 2.485-3.66 6.235-3.66 11.25v6.61h15.54v10.055H1565V212h-13.08zm54.21 0h-13.08v-76.078h13.08V212zm18.07-38.672c0-11.859 2.75-21.281 8.23-28.266 5.48-7.031 12.75-10.546 21.8-10.546 9.28 0 16.52 3.281 21.72 9.843l.64-8.437h11.88v74.25c0 9.844-2.93 17.601-8.79 23.273-5.81 5.672-13.64 8.508-23.48 8.508-5.49 0-10.86-1.172-16.11-3.515-5.25-2.344-9.25-5.555-12.02-9.633l6.75-7.805c5.58 6.891 12.4 10.336 20.46 10.336 6.33 0 11.25-1.781 14.77-5.344 3.56-3.562 5.34-8.578 5.34-15.047v-6.539c-5.2 6-12.3 9-21.3 9-8.91 0-16.13-3.586-21.66-10.758-5.48-7.171-8.23-16.945-8.23-29.32zm13.08 1.477c0 8.578 1.76 15.328 5.27 20.25 3.52 4.875 8.44 7.312 14.77 7.312 8.2 0 14.23-3.726 18.07-11.179v-34.735c-3.98-7.265-9.96-10.898-17.93-10.898-6.33 0-11.27 2.461-14.84 7.383-3.56 4.921-5.34 12.21-5.34 21.867zm117.84 29.672c-5.06 5.953-12.49 8.929-22.28 8.929-8.11 0-14.3-2.344-18.57-7.031-4.22-4.734-6.35-11.719-6.39-20.953v-49.5h13v49.148c0 11.532 4.69 17.297 14.07 17.297 9.93 0 16.54-3.703 19.82-11.109v-55.336h13.01V212h-12.37l-.29-7.523zm69.26-56.883c-1.97-.328-4.1-.492-6.4-.492-8.53 0-14.32 3.632-17.36 10.898v54h-13.01v-76.078h12.66l.21 8.789c4.26-6.797 10.31-10.195 18.14-10.195 2.53 0 4.45.328 5.76.984v12.094zM1880.56 212c-.75-1.5-1.36-4.172-1.83-8.016-6.04 6.282-13.26 9.422-21.65 9.422-7.5 0-13.67-2.109-18.49-6.328-4.79-4.266-7.18-9.656-7.18-16.172 0-7.922 3-14.062 9-18.422 6.05-4.406 14.54-6.609 25.46-6.609h12.65v-5.977c0-4.546-1.36-8.156-4.07-10.828-2.72-2.718-6.73-4.078-12.03-4.078-4.64 0-8.53 1.172-11.67 3.516-3.14 2.344-4.71 5.18-4.71 8.508h-13.08c0-3.797 1.34-7.454 4.01-10.969 2.72-3.563 6.37-6.375 10.97-8.438 4.64-2.062 9.72-3.093 15.26-3.093 8.76 0 15.63 2.203 20.6 6.609 4.97 4.359 7.54 10.383 7.73 18.07v35.016c0 6.984.89 12.539 2.67 16.664V212h-13.64zm-21.58-9.914c4.07 0 7.94-1.055 11.6-3.164 3.65-2.11 6.3-4.852 7.94-8.227v-15.609h-10.19c-15.94 0-23.91 4.664-23.91 13.992 0 4.078 1.36 7.266 4.08 9.563 2.72 2.297 6.21 3.445 10.48 3.445zm83.46.703c4.64 0 8.69-1.406 12.16-4.219 3.47-2.812 5.39-6.328 5.77-10.547h12.3c-.23 4.36-1.73 8.508-4.5 12.446-2.76 3.937-6.47 7.078-11.11 9.422a31.737 31.737 0 01-14.62 3.515c-10.36 0-18.61-3.445-24.75-10.336-6.1-6.937-9.14-16.406-9.14-28.406v-2.18c0-7.406 1.36-13.992 4.07-19.757 2.72-5.766 6.61-10.243 11.68-13.43 5.11-3.188 11.13-4.781 18.07-4.781 8.53 0 15.61 2.554 21.23 7.664 5.67 5.109 8.7 11.742 9.07 19.898h-12.3c-.38-4.922-2.25-8.953-5.63-12.094-3.33-3.187-7.45-4.781-12.37-4.781-6.61 0-11.75 2.391-15.4 7.172-3.61 4.734-5.42 11.602-5.42 20.602v2.461c0 8.765 1.81 15.515 5.42 20.25 3.61 4.734 8.76 7.101 15.47 7.101zm58.99 9.211h-13.01v-76.078h13.01V212zm-14.06-96.258c0-2.109.63-3.89 1.9-5.344 1.31-1.453 3.23-2.179 5.76-2.179s4.45.726 5.77 2.179c1.31 1.454 1.97 3.235 1.97 5.344 0 2.11-.66 3.867-1.97 5.274-1.32 1.406-3.24 2.109-5.77 2.109-2.53 0-4.45-.703-5.76-2.109-1.27-1.407-1.9-3.164-1.9-5.274zm31.5 57.516c0-7.453 1.45-14.156 4.36-20.11 2.95-5.953 7.03-10.546 12.23-13.781 5.25-3.234 11.23-4.851 17.93-4.851 10.36 0 18.73 3.586 25.1 10.757 6.42 7.172 9.63 16.711 9.63 28.618v.914c0 7.406-1.42 14.062-4.28 19.968-2.82 5.86-6.87 10.43-12.17 13.711-5.25 3.282-11.29 4.922-18.14 4.922-10.31 0-18.68-3.586-25.1-10.758-6.38-7.171-9.56-16.664-9.56-28.476v-.914zm13.08 1.547c0 8.437 1.94 15.211 5.83 20.32 3.94 5.109 9.19 7.664 15.75 7.664 6.61 0 11.86-2.578 15.75-7.734 3.89-5.203 5.84-12.469 5.84-21.797 0-8.344-2-15.094-5.98-20.25-3.94-5.203-9.19-7.805-15.75-7.805-6.42 0-11.6 2.555-15.54 7.664-3.94 5.11-5.9 12.422-5.9 21.938zm84.79-38.883l.42 9.562c5.82-7.312 13.41-10.968 22.79-10.968 16.07 0 24.18 9.07 24.32 27.211V212h-13v-50.344c-.05-5.484-1.32-9.539-3.8-12.164-2.44-2.625-6.26-3.937-11.46-3.937-4.22 0-7.92 1.125-11.11 3.375-3.19 2.25-5.67 5.203-7.45 8.859V212h-13.01v-76.078h12.3zm98.72 77.484c-10.31 0-18.7-3.375-25.17-10.125-6.47-6.797-9.7-15.867-9.7-27.211v-2.39c0-7.547 1.43-14.274 4.29-20.18 2.9-5.953 6.93-10.594 12.09-13.922 5.2-3.375 10.83-5.062 16.87-5.062 9.89 0 17.58 3.257 23.07 9.773 5.48 6.516 8.22 15.844 8.22 27.984v5.415h-51.54c.19 7.5 2.37 13.57 6.54 18.21 4.22 4.594 9.57 6.891 16.03 6.891 4.6 0 8.49-.937 11.68-2.812 3.18-1.875 5.97-4.36 8.36-7.454l7.95 6.188c-6.38 9.797-15.94 14.695-28.69 14.695zm-1.62-68.203c-5.25 0-9.65 1.922-13.22 5.766-3.56 3.797-5.76 9.14-6.6 16.031h38.1v-.984c-.37-6.61-2.15-11.719-5.34-15.328-3.19-3.657-7.5-5.485-12.94-5.485zm90.71 46.617c0-3.515-1.34-6.234-4.01-8.156-2.63-1.969-7.24-3.656-13.85-5.062-6.57-1.407-11.79-3.094-15.68-5.063-3.85-1.969-6.71-4.312-8.58-7.031-1.83-2.719-2.74-5.953-2.74-9.703 0-6.235 2.62-11.508 7.87-15.821 5.3-4.312 12.05-6.468 20.25-6.468 8.63 0 15.61 2.226 20.96 6.679 5.39 4.453 8.08 10.149 8.08 17.086h-13.08c0-3.562-1.52-6.633-4.57-9.211-3-2.578-6.79-3.867-11.39-3.867-4.73 0-8.43 1.031-11.11 3.094-2.67 2.062-4 4.758-4 8.086 0 3.14 1.24 5.508 3.72 7.101 2.49 1.594 6.96 3.118 13.43 4.571 6.52 1.453 11.79 3.187 15.82 5.203 4.03 2.015 7.01 4.453 8.93 7.312 1.97 2.813 2.95 6.258 2.95 10.336 0 6.797-2.71 12.258-8.15 16.383-5.44 4.078-12.49 6.117-21.17 6.117-6.09 0-11.48-1.078-16.17-3.234-4.68-2.156-8.36-5.156-11.04-9-2.62-3.891-3.93-8.086-3.93-12.586h13c.24 4.359 1.97 7.828 5.21 10.406 3.28 2.531 7.59 3.797 12.93 3.797 4.93 0 8.86-.984 11.82-2.953 3-2.016 4.5-4.688 4.5-8.016zM301.633 86.117c0 10.031-1.688 18.797-5.063 26.297-3.375 7.453-8.156 13.148-14.343 17.086-6.188 3.938-13.407 5.906-21.657 5.906-8.062 0-15.211-1.968-21.445-5.906-6.234-3.984-11.086-9.633-14.555-16.945-3.422-7.36-5.179-15.868-5.273-25.524v-7.383c0-9.843 1.711-18.539 5.133-26.085 3.422-7.547 8.25-13.313 14.484-17.297 6.281-4.032 13.453-6.047 21.516-6.047 8.203 0 15.422 1.992 21.656 5.976 6.281 3.938 11.109 9.68 14.484 17.227 3.375 7.5 5.063 16.242 5.063 26.226v6.47zm-13.43-6.61c0-12.14-2.437-21.445-7.312-27.913-4.875-6.516-11.696-9.774-20.461-9.774-8.532 0-15.258 3.258-20.18 9.774-4.875 6.468-7.383 15.468-7.523 27v7.523c0 11.766 2.461 21.024 7.382 27.774 4.969 6.703 11.789 10.054 20.461 10.054 8.719 0 15.469-3.164 20.25-9.492 4.782-6.375 7.242-15.492 7.383-27.351v-7.594zm99 36.563l14.625-58.148h13.008L392.688 134h-10.547l-18.493-57.656-18 57.656h-10.546l-22.079-76.078h12.938l14.977 56.953 17.718-56.953h10.477l18.07 58.148zM442.258 134H429.25V26h13.008v108zm137.32 0h-13.57V86.68h-51.61V134h-13.5V31.625h13.5v44.016h51.61V31.625h13.57V134zm18.492-38.742c0-7.453 1.453-14.156 4.36-20.11 2.953-5.953 7.031-10.546 12.234-13.78 5.25-3.235 11.227-4.852 17.93-4.852 10.359 0 18.726 3.586 25.101 10.757 6.422 7.172 9.633 16.711 9.633 28.618v.914c0 7.406-1.43 14.062-4.289 19.968-2.812 5.86-6.867 10.43-12.164 13.711-5.25 3.282-11.297 4.922-18.141 4.922-10.312 0-18.679-3.586-25.101-10.758-6.375-7.171-9.563-16.664-9.563-28.476v-.914zm13.078 1.547c0 8.437 1.946 15.211 5.836 20.32 3.938 5.109 9.188 7.664 15.75 7.664 6.61 0 11.86-2.578 15.75-7.734 3.891-5.203 5.836-12.469 5.836-21.797 0-8.344-1.992-15.094-5.976-20.25-3.938-5.203-9.188-7.805-15.75-7.805-6.422 0-11.602 2.555-15.539 7.664-3.938 5.11-5.907 12.422-5.907 21.938zm69.047-1.547c0-7.453 1.453-14.156 4.36-20.11 2.953-5.953 7.031-10.546 12.234-13.78 5.25-3.235 11.227-4.852 17.93-4.852 10.359 0 18.726 3.586 25.101 10.757 6.422 7.172 9.633 16.711 9.633 28.618v.914c0 7.406-1.43 14.062-4.289 19.968-2.812 5.86-6.867 10.43-12.164 13.711-5.25 3.282-11.297 4.922-18.141 4.922-10.312 0-18.679-3.586-25.101-10.758-6.375-7.171-9.563-16.664-9.563-28.476v-.914zm13.078 1.547c0 8.437 1.946 15.211 5.836 20.32 3.938 5.109 9.188 7.664 15.75 7.664 6.61 0 11.86-2.578 15.75-7.734 3.891-5.203 5.836-12.469 5.836-21.797 0-8.344-1.992-15.094-5.976-20.25-3.938-5.203-9.188-7.805-15.75-7.805-6.422 0-11.602 2.555-15.539 7.664-3.938 5.11-5.907 12.422-5.907 21.938zM783.414 39.5v18.422h14.203v10.055h-14.203v47.179c0 3.047.633 5.344 1.898 6.891 1.266 1.5 3.422 2.25 6.469 2.25 1.5 0 3.563-.281 6.188-.844V134c-3.422.938-6.75 1.406-9.985 1.406-5.812 0-10.195-1.758-13.148-5.273-2.953-3.516-4.43-8.508-4.43-14.977v-47.18h-13.851V57.923h13.851V39.5h13.008z"/>
    <path fill="#C4C4C4" d="M-6 0h157v157H-6z"/>
    <path stroke="#000" d="M-5.651 3.978l157 152.663M-6.354 156.646l157-157"/>
    <g>
      <path stroke="#000" d="M-11 2088.5h3898"/>
      <path fill="#000" d="M2848.5 2150.3c0-7.07.94-13.85 2.81-20.35 1.91-6.5 4.74-12.4 8.49-17.72 3.75-5.31 7.64-9.06 11.67-11.25l1.78 5.72c-4.56 3.5-8.31 8.85-11.25 16.03-2.91 7.19-4.5 15.24-4.78 24.15l-.05 3.98c0 12.06 2.21 22.53 6.61 31.41 2.66 5.31 5.81 9.46 9.47 12.46l-1.78 5.3c-4.16-2.31-8.13-6.19-11.91-11.62-7.37-10.63-11.06-23.33-11.06-38.11zm53.48 21.56c3.1 0 5.8-.94 8.11-2.81 2.32-1.88 3.6-4.22 3.85-7.03h8.2c-.16 2.9-1.16 5.67-3 8.29-1.84 2.63-4.31 4.72-7.41 6.28a21.06 21.06 0 01-9.75 2.35c-6.9 0-12.4-2.3-16.5-6.89-4.06-4.63-6.09-10.94-6.09-18.94v-1.45c0-4.94.91-9.33 2.72-13.18 1.81-3.84 4.41-6.82 7.78-8.95 3.41-2.12 7.42-3.19 12.05-3.19 5.68 0 10.4 1.71 14.15 5.11 3.79 3.41 5.8 7.83 6.05 13.27h-8.2c-.25-3.28-1.5-5.97-3.75-8.06-2.22-2.13-4.97-3.19-8.25-3.19-4.41 0-7.83 1.59-10.27 4.78-2.4 3.16-3.61 7.73-3.61 13.73v1.64c0 5.85 1.21 10.35 3.61 13.5 2.41 3.16 5.85 4.74 10.31 4.74zm49.93-21.09c0 6.96-.93 13.65-2.77 20.06a58.613 58.613 0 01-8.39 17.67c-3.75 5.41-7.69 9.25-11.81 11.53l-1.83-5.3c4.81-3.68 8.67-9.4 11.58-17.15 2.93-7.78 4.43-16.41 4.5-25.88v-1.5c0-6.56-.69-12.65-2.07-18.28-1.37-5.65-3.29-10.72-5.76-15.19-2.44-4.46-5.19-7.95-8.25-10.45l1.83-5.3c4.12 2.29 8.04 6.1 11.76 11.44 3.75 5.35 6.55 11.24 8.39 17.67 1.88 6.44 2.82 13.33 2.82 20.68zm90.98 27.23h-9.05v-31.55h-34.4V2178h-9v-68.25h9v29.34h34.4v-29.34h9.05V2178zm35.67.94c-6.87 0-12.47-2.25-16.78-6.75-4.31-4.53-6.47-10.58-6.47-18.14v-1.6c0-5.03.96-9.51 2.86-13.45 1.94-3.97 4.63-7.06 8.06-9.28 3.47-2.25 7.22-3.38 11.25-3.38 6.6 0 11.72 2.18 15.38 6.52s5.48 10.56 5.48 18.66v3.6h-34.36c.13 5 1.58 9.05 4.36 12.15 2.82 3.06 6.38 4.59 10.69 4.59 3.06 0 5.66-.63 7.78-1.88 2.13-1.25 3.99-2.9 5.58-4.96l5.3 4.12c-4.25 6.53-10.63 9.8-19.13 9.8zm-1.08-45.47c-3.5 0-6.43 1.28-8.81 3.84-2.37 2.53-3.84 6.1-4.4 10.69h25.4v-.66c-.25-4.4-1.44-7.81-3.56-10.22-2.13-2.43-5-3.65-8.63-3.65zm51.29 38.39c3.09 0 5.79-.94 8.11-2.81 2.31-1.88 3.59-4.22 3.84-7.03h8.2c-.15 2.9-1.15 5.67-3 8.29-1.84 2.63-4.31 4.72-7.4 6.28a21.119 21.119 0 01-9.75 2.35c-6.91 0-12.41-2.3-16.5-6.89-4.07-4.63-6.1-10.94-6.1-18.94v-1.45c0-4.94.91-9.33 2.72-13.18 1.81-3.84 4.41-6.82 7.78-8.95 3.41-2.12 7.42-3.19 12.05-3.19 5.69 0 10.4 1.71 14.16 5.11 3.78 3.41 5.79 7.83 6.04 13.27h-8.2c-.25-3.28-1.5-5.97-3.75-8.06-2.22-2.13-4.97-3.19-8.25-3.19-4.41 0-7.83 1.59-10.27 4.78-2.4 3.16-3.61 7.73-3.61 13.73v1.64c0 5.85 1.21 10.35 3.61 13.5 2.41 3.16 5.85 4.74 10.32 4.74zm38.57-38.44c3.85-4.72 8.85-7.08 15-7.08 10.72 0 16.13 6.05 16.22 18.14V2178h-8.67v-33.56c-.03-3.66-.87-6.36-2.53-8.11-1.63-1.75-4.17-2.63-7.64-2.63-2.81 0-5.28.75-7.41 2.25-2.12 1.5-3.78 3.47-4.97 5.91V2178h-8.67v-72h8.67v27.42zm41.91 18.75c0-4.97.97-9.44 2.91-13.4 1.96-3.97 4.68-7.04 8.15-9.19 3.5-2.16 7.49-3.24 11.96-3.24 6.9 0 12.48 2.39 16.73 7.18 4.28 4.78 6.42 11.14 6.42 19.07v.61c0 4.94-.95 9.38-2.86 13.32-1.87 3.9-4.58 6.95-8.11 9.14-3.5 2.18-7.53 3.28-12.09 3.28-6.88 0-12.45-2.39-16.74-7.17-4.24-4.79-6.37-11.11-6.37-18.99v-.61zm8.72 1.03c0 5.63 1.3 10.14 3.89 13.55 2.62 3.41 6.12 5.11 10.5 5.11 4.41 0 7.91-1.72 10.5-5.16 2.59-3.47 3.89-8.31 3.89-14.53 0-5.56-1.33-10.06-3.98-13.5-2.63-3.47-6.13-5.2-10.5-5.2-4.29 0-7.74 1.7-10.36 5.11-2.63 3.4-3.94 8.28-3.94 14.62zm114.98 0c0 7.72-1.76 13.94-5.29 18.66-3.54 4.72-8.32 7.08-14.35 7.08-6.15 0-11-1.96-14.53-5.86v24.42h-8.67v-70.22h7.92l.42 5.63c3.53-4.38 8.44-6.57 14.72-6.57 6.1 0 10.91 2.3 14.44 6.89 3.56 4.6 5.34 10.99 5.34 19.18v.79zm-8.67-.98c0-5.72-1.22-10.24-3.66-13.55-2.43-3.31-5.78-4.97-10.03-4.97-5.25 0-9.18 2.33-11.81 6.99v24.23c2.6 4.63 6.56 6.94 11.91 6.94 4.15 0 7.45-1.64 9.89-4.92 2.47-3.32 3.7-8.22 3.7-14.72zm17.44-.05c0-4.97.97-9.44 2.9-13.4 1.97-3.97 4.69-7.04 8.16-9.19 3.5-2.16 7.49-3.24 11.95-3.24 6.91 0 12.49 2.39 16.74 7.18 4.28 4.78 6.42 11.14 6.42 19.07v.61c0 4.94-.95 9.38-2.86 13.32-1.87 3.9-4.58 6.95-8.11 9.14-3.5 2.18-7.53 3.28-12.09 3.28-6.88 0-12.45-2.39-16.74-7.17-4.25-4.79-6.37-11.11-6.37-18.99v-.61zm8.72 1.03c0 5.63 1.29 10.14 3.89 13.55 2.62 3.41 6.12 5.11 10.5 5.11 4.4 0 7.9-1.72 10.5-5.16 2.59-3.47 3.89-8.31 3.89-14.53 0-5.56-1.33-10.06-3.99-13.5-2.62-3.47-6.12-5.2-10.5-5.2-4.28 0-7.73 1.7-10.35 5.11-2.63 3.4-3.94 8.28-3.94 14.62zm72.84-18.14c-1.31-.22-2.73-.33-4.26-.33-5.69 0-9.55 2.43-11.58 7.27v36h-8.67v-50.72h8.43l.14 5.86c2.85-4.53 6.88-6.8 12.1-6.8 1.68 0 2.97.22 3.84.66v8.06zm7.74 38.39c0-1.5.43-2.75 1.31-3.75.9-1 2.25-1.5 4.03-1.5 1.78 0 3.12.5 4.03 1.5.94 1 1.41 2.25 1.41 3.75 0 1.44-.47 2.64-1.41 3.61-.91.97-2.25 1.46-4.03 1.46-1.78 0-3.13-.49-4.03-1.46-.88-.97-1.31-2.17-1.31-3.61zm.04-41.39c0-1.5.44-2.75 1.32-3.75.9-1 2.24-1.5 4.03-1.5 1.78 0 3.12.5 4.03 1.5.94 1 1.4 2.25 1.4 3.75 0 1.44-.46 2.64-1.4 3.61-.91.97-2.25 1.45-4.03 1.45-1.79 0-3.13-.48-4.03-1.45-.88-.97-1.32-2.17-1.32-3.61zm47.49 41.39c0-1.5.43-2.75 1.31-3.75.91-1 2.25-1.5 4.03-1.5 1.78 0 3.13.5 4.03 1.5.94 1 1.41 2.25 1.41 3.75 0 1.44-.47 2.64-1.41 3.61-.9.97-2.25 1.46-4.03 1.46-1.78 0-3.12-.49-4.03-1.46-.88-.97-1.31-2.17-1.31-3.61zm25.31 0c0-1.5.44-2.75 1.31-3.75.91-1 2.25-1.5 4.03-1.5 1.78 0 3.13.5 4.03 1.5.94 1 1.41 2.25 1.41 3.75 0 1.44-.47 2.64-1.41 3.61-.9.97-2.25 1.46-4.03 1.46-1.78 0-3.12-.49-4.03-1.46-.87-.97-1.31-2.17-1.31-3.61zm25.31 0c0-1.5.44-2.75 1.31-3.75.91-1 2.25-1.5 4.04-1.5 1.78 0 3.12.5 4.03 1.5.93 1 1.4 2.25 1.4 3.75 0 1.44-.47 2.64-1.4 3.61-.91.97-2.25 1.46-4.03 1.46-1.79 0-3.13-.49-4.04-1.46-.87-.97-1.31-2.17-1.31-3.61z"/>
    </g>
  </g>
  <defs>
    <clipPath id="clip0">
      <path fill="#fff" d="M0 0h3898v2225H0z"/>
    </clipPath>
  </defs>
</svg>
