<svg xmlns="http://www.w3.org/2000/svg" width="3898" height="2225" fill="none" viewBox="0 0 3898 2225">
  <g clip-path="url(#clip0)">
    <path fill="#fff" d="M0 0h3898v2225H0z"/>
    <path fill="#000" d="M413.367 668.516c-1.265 10.828-5.273 19.195-12.023 25.101-6.703 5.86-15.633 8.789-26.789 8.789-12.094 0-21.797-4.336-29.11-13.008-7.265-8.671-10.898-20.273-10.898-34.804v-9.844c0-9.516 1.687-17.883 5.062-25.102 3.422-7.218 8.25-12.75 14.485-16.593 6.234-3.891 13.453-5.836 21.656-5.836 10.875 0 19.594 3.047 26.156 9.14 6.563 6.047 10.383 14.438 11.461 25.172h-13.57c-1.172-8.156-3.727-14.062-7.664-17.719-3.891-3.656-9.352-5.484-16.383-5.484-8.625 0-15.398 3.188-20.32 9.563-4.875 6.375-7.313 15.445-7.313 27.211v9.914c0 11.109 2.321 19.945 6.961 26.507 4.641 6.563 11.133 9.844 19.477 9.844 7.5 0 13.242-1.687 17.226-5.062 4.031-3.422 6.703-9.352 8.016-17.789h13.57zm13.008-6.258c0-7.453 1.453-14.156 4.359-20.11 2.954-5.953 7.032-10.546 12.235-13.781 5.25-3.234 11.226-4.851 17.929-4.851 10.36 0 18.727 3.586 25.102 10.757 6.422 7.172 9.633 16.711 9.633 28.618v.914c0 7.406-1.43 14.062-4.289 19.968-2.813 5.86-6.867 10.43-12.164 13.711-5.25 3.282-11.297 4.922-18.141 4.922-10.312 0-18.68-3.586-25.101-10.758-6.376-7.171-9.563-16.664-9.563-28.476v-.914zm13.078 1.547c0 8.437 1.945 15.211 5.836 20.32 3.938 5.109 9.188 7.664 15.75 7.664 6.609 0 11.859-2.578 15.75-7.734 3.891-5.203 5.836-12.469 5.836-21.797 0-8.344-1.992-15.094-5.977-20.25-3.937-5.203-9.187-7.805-15.75-7.805-6.421 0-11.601 2.555-15.539 7.664-3.937 5.11-5.906 12.422-5.906 21.938zM526.078 701H513.07V593h13.008v108zm17.438-38.742c0-7.453 1.453-14.156 4.359-20.11 2.953-5.953 7.031-10.546 12.234-13.781 5.25-3.234 11.227-4.851 17.93-4.851 10.359 0 18.727 3.586 25.102 10.757 6.421 7.172 9.632 16.711 9.632 28.618v.914c0 7.406-1.429 14.062-4.289 19.968-2.812 5.86-6.867 10.43-12.164 13.711-5.25 3.282-11.297 4.922-18.14 4.922-10.313 0-18.68-3.586-25.102-10.758-6.375-7.171-9.562-16.664-9.562-28.476v-.914zm13.078 1.547c0 8.437 1.945 15.211 5.836 20.32 3.937 5.109 9.187 7.664 15.75 7.664 6.609 0 11.859-2.578 15.75-7.734 3.89-5.203 5.836-12.469 5.836-21.797 0-8.344-1.993-15.094-5.977-20.25-3.937-5.203-9.187-7.805-15.75-7.805-6.422 0-11.601 2.555-15.539 7.664-3.938 5.11-5.906 12.422-5.906 21.938zm109.265-27.211c-1.968-.328-4.101-.492-6.398-.492-8.531 0-14.32 3.632-17.367 10.898v54h-13.008v-76.078h12.656l.211 8.789c4.266-6.797 10.313-10.195 18.141-10.195 2.531 0 4.453.328 5.765.984v12.094zm44.579 25.734c0-11.672 2.765-21.047 8.296-28.125 5.532-7.125 12.774-10.687 21.727-10.687 8.906 0 15.961 3.046 21.164 9.14V593h13.008v108H762.68l-.633-8.156c-5.203 6.375-12.445 9.562-21.727 9.562-8.812 0-16.008-3.609-21.586-10.828-5.531-7.219-8.296-16.64-8.296-28.266v-.984zm13.007 1.477c0 8.625 1.782 15.375 5.344 20.25 3.563 4.875 8.484 7.312 14.766 7.312 8.25 0 14.273-3.703 18.07-11.109v-34.946c-3.891-7.171-9.867-10.757-17.93-10.757-6.375 0-11.343 2.461-14.906 7.383-3.562 4.921-5.344 12.21-5.344 21.867zm103.008 38.601c-10.312 0-18.703-3.375-25.172-10.125-6.469-6.797-9.703-15.867-9.703-27.211v-2.39c0-7.547 1.43-14.274 4.289-20.18 2.906-5.953 6.938-10.594 12.094-13.922 5.203-3.375 10.828-5.062 16.875-5.062 9.891 0 17.578 3.257 23.062 9.773 5.485 6.516 8.227 15.844 8.227 27.984v5.415h-51.539c.187 7.5 2.367 13.57 6.539 18.21 4.219 4.594 9.563 6.891 16.031 6.891 4.594 0 8.485-.937 11.672-2.812 3.188-1.875 5.977-4.36 8.367-7.454l7.946 6.188c-6.375 9.797-15.938 14.695-28.688 14.695zm-1.617-68.203c-5.25 0-9.656 1.922-13.219 5.766-3.562 3.797-5.765 9.14-6.609 16.031h38.109v-.984c-.375-6.61-2.156-11.719-5.344-15.328-3.187-3.657-7.5-5.485-12.937-5.485zm152.086-24.469h-32.906V701h-13.43v-91.266H897.75v-11.109h79.172v11.109zm37.688 92.672c-10.31 0-18.704-3.375-25.172-10.125-6.469-6.797-9.704-15.867-9.704-27.211v-2.39c0-7.547 1.43-14.274 4.289-20.18 2.907-5.953 6.938-10.594 12.094-13.922 5.203-3.375 10.833-5.062 16.873-5.062 9.89 0 17.58 3.257 23.06 9.773 5.49 6.516 8.23 15.844 8.23 27.984v5.415h-51.538c.188 7.5 2.367 13.57 6.539 18.21 4.219 4.594 9.559 6.891 16.029 6.891 4.6 0 8.49-.937 11.67-2.812 3.19-1.875 5.98-4.36 8.37-7.454l7.95 6.188c-6.38 9.797-15.94 14.695-28.69 14.695zm-1.62-68.203c-5.25 0-9.65 1.922-13.217 5.766-3.562 3.797-5.765 9.14-6.609 16.031h38.106v-.984c-.37-6.61-2.15-11.719-5.34-15.328-3.19-3.657-7.5-5.485-12.94-5.485zm71.93 18.492l16.88-27.773h15.18l-24.89 37.617L1117.76 701h-15.05l-17.58-28.477L1067.55 701h-15.11l25.66-38.461-24.89-37.617h15.05l16.66 27.773zm63.56-46.195v18.422h14.21v10.055h-14.21v47.179c0 3.047.64 5.344 1.9 6.891 1.27 1.5 3.42 2.25 6.47 2.25 1.5 0 3.56-.281 6.19-.844V701c-3.42.938-6.75 1.406-9.99 1.406-5.81 0-10.19-1.758-13.14-5.273-2.96-3.516-4.43-8.508-4.43-14.977v-47.179h-13.86v-10.055h13.86V606.5h13zm24.61 55.758c0-7.453 1.46-14.156 4.36-20.11 2.96-5.953 7.03-10.546 12.24-13.781 5.25-3.234 11.22-4.851 17.93-4.851 10.36 0 18.72 3.586 25.1 10.757 6.42 7.172 9.63 16.711 9.63 28.618v.914c0 7.406-1.43 14.062-4.29 19.968-2.81 5.86-6.86 10.43-12.16 13.711-5.25 3.282-11.3 4.922-18.14 4.922-10.31 0-18.68-3.586-25.1-10.758-6.38-7.171-9.57-16.664-9.57-28.476v-.914zm13.08 1.547c0 8.437 1.95 15.211 5.84 20.32 3.94 5.109 9.19 7.664 15.75 7.664 6.61 0 11.86-2.578 15.75-7.734 3.89-5.203 5.83-12.469 5.83-21.797 0-8.344-1.99-15.094-5.97-20.25-3.94-5.203-9.19-7.805-15.75-7.805-6.42 0-11.6 2.555-15.54 7.664-3.94 5.11-5.91 12.422-5.91 21.938zM409.016 936.734h-32.907V1028H362.68v-91.266h-32.836v-11.109h79.172v11.109zM461.117 1028c-.75-1.5-1.359-4.17-1.828-8.02-6.047 6.29-13.266 9.43-21.656 9.43-7.5 0-13.664-2.11-18.492-6.33-4.782-4.27-7.172-9.66-7.172-16.17 0-7.926 3-14.066 9-18.426 6.047-4.406 14.531-6.609 25.453-6.609h12.656v-5.977c0-4.546-1.359-8.156-4.078-10.828-2.719-2.718-6.727-4.078-12.023-4.078-4.641 0-8.532 1.172-11.672 3.516-3.141 2.344-4.711 5.18-4.711 8.508h-13.078c0-3.797 1.336-7.454 4.007-10.969 2.719-3.563 6.375-6.375 10.969-8.438 4.641-2.062 9.727-3.093 15.258-3.093 8.766 0 15.633 2.203 20.602 6.609 4.968 4.359 7.546 10.383 7.734 18.07v35.015c0 6.99.891 12.54 2.672 16.67v1.12h-13.641zm-21.586-9.91c4.078 0 7.946-1.06 11.602-3.17 3.656-2.11 6.305-4.85 7.945-8.22v-15.614h-10.195c-15.938 0-23.906 4.664-23.906 13.994 0 4.08 1.359 7.26 4.078 9.56 2.718 2.3 6.211 3.45 10.476 3.45zm65.18-66.168l.351 8.437c5.579-6.562 13.102-9.843 22.571-9.843 10.64 0 17.883 4.078 21.726 12.234 2.532-3.656 5.813-6.609 9.844-8.859 4.078-2.25 8.883-3.375 14.414-3.375 16.688 0 25.172 8.836 25.453 26.507V1028h-13.008v-50.203c0-5.438-1.242-9.492-3.726-12.164-2.484-2.719-6.656-4.078-12.516-4.078-4.828 0-8.836 1.453-12.023 4.359-3.188 2.859-5.039 6.727-5.555 11.602V1028h-13.078v-49.852c0-11.062-5.414-16.593-16.242-16.593-8.531 0-14.367 3.633-17.508 10.898V1028h-13.008v-76.078h12.305zM665.727 1028c-.75-1.5-1.36-4.17-1.829-8.02-6.046 6.29-13.265 9.43-21.656 9.43-7.5 0-13.664-2.11-18.492-6.33-4.781-4.27-7.172-9.66-7.172-16.17 0-7.926 3-14.066 9-18.426 6.047-4.406 14.531-6.609 25.453-6.609h12.657v-5.977c0-4.546-1.36-8.156-4.079-10.828-2.718-2.718-6.726-4.078-12.023-4.078-4.641 0-8.531 1.172-11.672 3.516-3.141 2.344-4.711 5.18-4.711 8.508h-13.078c0-3.797 1.336-7.454 4.008-10.969 2.719-3.563 6.375-6.375 10.969-8.438 4.64-2.062 9.726-3.093 15.257-3.093 8.766 0 15.633 2.203 20.602 6.609 4.969 4.359 7.547 10.383 7.734 18.07v35.015c0 6.99.891 12.54 2.672 16.67v1.12h-13.64zm-21.586-9.91c4.078 0 7.945-1.06 11.601-3.17 3.656-2.11 6.305-4.85 7.946-8.22v-15.614h-10.196c-15.937 0-23.906 4.664-23.906 13.994 0 4.08 1.359 7.26 4.078 9.56 2.719 2.3 6.211 3.45 10.477 3.45zm65.25-66.168l.421 9.562c5.813-7.312 13.407-10.968 22.782-10.968 16.078 0 24.187 9.07 24.328 27.211V1028h-13.008v-50.344c-.047-5.484-1.312-9.539-3.797-12.164-2.437-2.625-6.258-3.937-11.461-3.937-4.218 0-7.922 1.125-11.109 3.375-3.188 2.25-5.672 5.203-7.453 8.859V1028h-13.008v-76.078h12.305zm43.031-29.672c0 5.062-1.453 9.164-4.36 12.305-2.859 3.14-6.445 4.711-10.757 4.711-1.922 0-3.586-.235-4.993-.704-1.406-.468-3.257-1.429-5.554-2.882-2.25-1.453-3.891-2.321-4.922-2.602-.984-.328-2.133-.492-3.445-.492-1.922 0-3.563.75-4.922 2.25-1.36 1.453-2.039 3.328-2.039 5.625l-8.719-.492c0-5.016 1.406-9.164 4.219-12.446 2.859-3.281 6.468-4.921 10.828-4.921 1.64 0 3.117.234 4.43.703 1.312.468 3.093 1.383 5.343 2.742s3.961 2.25 5.133 2.672c1.219.422 2.555.633 4.008.633 2.016 0 3.68-.797 4.992-2.391 1.359-1.594 2.039-3.445 2.039-5.555l8.719.844zm20.672 67.008c0-7.453 1.453-14.156 4.359-20.11 2.953-5.953 7.031-10.546 12.235-13.781 5.25-3.234 11.226-4.851 17.929-4.851 10.36 0 18.727 3.586 25.102 10.757 6.422 7.172 9.633 16.711 9.633 28.618v.914c0 7.406-1.43 14.065-4.29 19.965-2.812 5.86-6.867 10.43-12.164 13.71-5.25 3.29-11.296 4.93-18.14 4.93-10.313 0-18.68-3.59-25.102-10.76-6.375-7.17-9.562-16.67-9.562-28.478v-.914zm13.078 1.547c0 8.437 1.945 15.215 5.836 20.315 3.937 5.11 9.187 7.67 15.75 7.67 6.609 0 11.859-2.58 15.75-7.74 3.89-5.2 5.836-12.464 5.836-21.792 0-8.344-1.992-15.094-5.977-20.25-3.937-5.203-9.187-7.805-15.75-7.805-6.422 0-11.601 2.555-15.539 7.664-3.937 5.11-5.906 12.422-5.906 21.938zm105.047-1.477c0-11.672 2.765-21.047 8.297-28.125 5.531-7.125 12.773-10.687 21.726-10.687 8.906 0 15.961 3.046 21.164 9.14V920h13.008v108h-11.953l-.633-8.16c-5.203 6.38-12.445 9.57-21.726 9.57-8.813 0-16.008-3.61-21.586-10.83-5.532-7.22-8.297-16.64-8.297-28.268v-.984zm13.008 1.477c0 8.625 1.781 15.375 5.343 20.245 3.563 4.88 8.485 7.32 14.766 7.32 8.25 0 14.273-3.71 18.07-11.11v-34.948c-3.89-7.171-9.867-10.757-17.929-10.757-6.375 0-11.344 2.461-14.907 7.383-3.562 4.921-5.343 12.21-5.343 21.867zm103.003 38.605c-10.308 0-18.699-3.38-25.168-10.13-6.468-6.8-9.703-15.87-9.703-27.21v-2.39c0-7.547 1.43-14.274 4.289-20.18 2.907-5.953 6.938-10.594 12.094-13.922 5.203-3.375 10.828-5.062 16.878-5.062 9.89 0 17.58 3.257 23.06 9.773s8.23 15.844 8.23 27.984v5.415h-51.543c.188 7.502 2.367 13.572 6.539 18.212 4.219 4.59 9.564 6.89 16.034 6.89 4.59 0 8.48-.94 11.67-2.81 3.19-1.88 5.98-4.36 8.37-7.46l7.94 6.19c-6.37 9.8-15.94 14.7-28.69 14.7zm-1.61-68.207c-5.25 0-9.659 1.922-13.222 5.766-3.562 3.797-5.765 9.14-6.609 16.031h38.111v-.984c-.38-6.61-2.16-11.719-5.35-15.328-3.18-3.657-7.5-5.485-12.93-5.485zm152.08-24.469h-32.9V1028h-13.43v-91.266h-32.84v-11.109h79.17v11.109zm37.69 92.676c-10.31 0-18.7-3.38-25.17-10.13-6.47-6.8-9.7-15.87-9.7-27.21v-2.39c0-7.547 1.43-14.274 4.28-20.18 2.91-5.953 6.94-10.594 12.1-13.922 5.2-3.375 10.83-5.062 16.87-5.062 9.89 0 17.58 3.257 23.07 9.773 5.48 6.516 8.22 15.844 8.22 27.984v5.415h-51.54c.19 7.502 2.37 13.572 6.54 18.212 4.22 4.59 9.56 6.89 16.03 6.89 4.6 0 8.49-.94 11.68-2.81 3.18-1.88 5.97-4.36 8.36-7.46l7.95 6.19c-6.38 9.8-15.94 14.7-28.69 14.7zm-1.62-68.207c-5.25 0-9.65 1.922-13.22 5.766-3.56 3.797-5.76 9.14-6.6 16.031h38.1v-.984c-.37-6.61-2.15-11.719-5.34-15.328-3.19-3.657-7.5-5.485-12.94-5.485zm71.93 18.492l16.88-27.773h15.19l-24.89 37.617 25.66 38.461h-15.05l-17.58-28.477-17.57 28.477h-15.12l25.66-38.461-24.89-37.617h15.05l16.66 27.773zm63.57-46.195v18.422h14.2v10.055h-14.2v47.183c0 3.04.63 5.34 1.89 6.89 1.27 1.5 3.43 2.25 6.47 2.25 1.5 0 3.57-.28 6.19-.85V1028c-3.42.94-6.75 1.41-9.98 1.41-5.82 0-10.2-1.76-13.15-5.28-2.96-3.51-4.43-8.51-4.43-14.97v-47.183h-13.85v-10.055h13.85V933.5h13.01zm24.61 55.758c0-7.453 1.45-14.156 4.35-20.11 2.96-5.953 7.04-10.546 12.24-13.781 5.25-3.234 11.23-4.851 17.93-4.851 10.36 0 18.72 3.586 25.1 10.757 6.42 7.172 9.63 16.711 9.63 28.618v.914c0 7.406-1.43 14.065-4.29 19.965-2.81 5.86-6.86 10.43-12.16 13.71-5.25 3.29-11.3 4.93-18.14 4.93-10.31 0-18.68-3.59-25.1-10.76-6.38-7.17-9.56-16.67-9.56-28.478v-.914zm13.07 1.547c0 8.437 1.95 15.215 5.84 20.315 3.94 5.11 9.19 7.67 15.75 7.67 6.61 0 11.86-2.58 15.75-7.74 3.89-5.2 5.83-12.464 5.83-21.792 0-8.344-1.99-15.094-5.97-20.25-3.94-5.203-9.19-7.805-15.75-7.805-6.42 0-11.6 2.555-15.54 7.664-3.94 5.11-5.91 12.422-5.91 21.938zM413.266 1322.52c-1.266 10.82-5.274 19.19-12.024 25.1-6.703 5.86-15.633 8.79-26.789 8.79-12.094 0-21.797-4.34-29.109-13.01-7.266-8.67-10.899-20.28-10.899-34.81v-9.84c0-9.52 1.688-17.88 5.063-25.1 3.422-7.22 8.25-12.75 14.484-16.6 6.235-3.89 13.453-5.83 21.656-5.83 10.875 0 19.594 3.05 26.157 9.14 6.562 6.05 10.383 14.44 11.461 25.17h-13.571c-1.172-8.15-3.726-14.06-7.664-17.72-3.89-3.65-9.351-5.48-16.383-5.48-8.625 0-15.398 3.19-20.32 9.56-4.875 6.38-7.312 15.45-7.312 27.21v9.92c0 11.1 2.32 19.94 6.961 26.5 4.64 6.57 11.132 9.85 19.476 9.85 7.5 0 13.242-1.69 17.227-5.07 4.031-3.42 6.703-9.35 8.015-17.78h13.571zm13.007-6.26c0-7.46 1.454-14.16 4.36-20.11 2.953-5.95 7.031-10.55 12.234-13.78 5.25-3.24 11.227-4.85 17.93-4.85 10.359 0 18.726 3.58 25.101 10.75 6.422 7.18 9.633 16.71 9.633 28.62v.91c0 7.41-1.429 14.07-4.289 19.97-2.812 5.86-6.867 10.43-12.164 13.71-5.25 3.29-11.297 4.93-18.14 4.93-10.313 0-18.68-3.59-25.102-10.76-6.375-7.17-9.563-16.67-9.563-28.48v-.91zm13.079 1.54c0 8.44 1.945 15.22 5.836 20.32 3.937 5.11 9.187 7.67 15.75 7.67 6.609 0 11.859-2.58 15.75-7.74 3.89-5.2 5.835-12.46 5.835-21.79 0-8.35-1.992-15.1-5.976-20.25-3.938-5.21-9.188-7.81-15.75-7.81-6.422 0-11.602 2.56-15.539 7.67-3.938 5.11-5.906 12.42-5.906 21.93zm86.625 37.2h-13.008v-108h13.008v108zm17.437-38.74c0-7.46 1.453-14.16 4.359-20.11 2.954-5.95 7.032-10.55 12.235-13.78 5.25-3.24 11.226-4.85 17.93-4.85 10.359 0 18.726 3.58 25.101 10.75 6.422 7.18 9.633 16.71 9.633 28.62v.91c0 7.41-1.43 14.07-4.289 19.97-2.813 5.86-6.867 10.43-12.164 13.71-5.25 3.29-11.297 4.93-18.141 4.93-10.312 0-18.68-3.59-25.101-10.76-6.375-7.17-9.563-16.67-9.563-28.48v-.91zm13.078 1.54c0 8.44 1.946 15.22 5.836 20.32 3.938 5.11 9.188 7.67 15.75 7.67 6.61 0 11.86-2.58 15.75-7.74 3.891-5.2 5.836-12.46 5.836-21.79 0-8.35-1.992-15.1-5.976-20.25-3.938-5.21-9.188-7.81-15.75-7.81-6.422 0-11.602 2.56-15.54 7.67-3.937 5.11-5.906 12.42-5.906 21.93zm109.266-27.21c-1.969-.32-4.102-.49-6.399-.49-8.531 0-14.32 3.63-17.367 10.9v54h-13.008v-76.08h12.657l.211 8.79c4.265-6.8 10.312-10.19 18.14-10.19 2.531 0 4.453.32 5.766.98v12.09zm44.578 25.74c0-11.67 2.766-21.05 8.297-28.13 5.531-7.12 12.773-10.68 21.726-10.68 8.907 0 15.961 3.04 21.164 9.14V1247h13.008v108h-11.953l-.633-8.16c-5.203 6.38-12.445 9.57-21.726 9.57-8.813 0-16.008-3.61-21.586-10.83-5.531-7.22-8.297-16.64-8.297-28.27v-.98zm13.008 1.47c0 8.63 1.781 15.38 5.344 20.25 3.562 4.88 8.484 7.32 14.765 7.32 8.25 0 14.274-3.71 18.07-11.11v-34.95c-3.89-7.17-9.867-10.76-17.929-10.76-6.375 0-11.344 2.47-14.906 7.39-3.563 4.92-5.344 12.21-5.344 21.86zm103.008 38.61c-10.313 0-18.704-3.38-25.172-10.13-6.469-6.8-9.703-15.87-9.703-27.21v-2.39c0-7.55 1.429-14.27 4.289-20.18 2.906-5.95 6.937-10.59 12.093-13.92 5.203-3.38 10.829-5.06 16.875-5.06 9.891 0 17.578 3.25 23.063 9.77 5.484 6.51 8.226 15.84 8.226 27.98v5.42h-51.539c.188 7.5 2.368 13.57 6.539 18.21 4.219 4.59 9.563 6.89 16.032 6.89 4.593 0 8.484-.94 11.672-2.81 3.187-1.88 5.976-4.36 8.367-7.46l7.945 6.19c-6.375 9.8-15.937 14.7-28.687 14.7zm-1.618-68.21c-5.25 0-9.656 1.92-13.218 5.77-3.563 3.8-5.766 9.14-6.61 16.03h38.11v-.98c-.375-6.61-2.157-11.72-5.344-15.33-3.188-3.66-7.5-5.49-12.938-5.49zm113.696 68.21c-10.313 0-18.703-3.38-25.172-10.13-6.469-6.8-9.703-15.87-9.703-27.21v-2.39c0-7.55 1.429-14.27 4.289-20.18 2.906-5.95 6.937-10.59 12.094-13.92 5.203-3.38 10.828-5.06 16.874-5.06 9.891 0 17.579 3.25 23.063 9.77 5.484 6.51 8.227 15.84 8.227 27.98v5.42h-51.54c.188 7.5 2.368 13.57 6.54 18.21 4.218 4.59 9.562 6.89 16.031 6.89 4.594 0 8.484-.94 11.672-2.81 3.187-1.88 5.976-4.36 8.367-7.46l7.945 6.19c-6.375 9.8-15.937 14.7-28.687 14.7zm-1.618-68.21c-5.25 0-9.656 1.92-13.218 5.77-3.563 3.8-5.766 9.14-6.61 16.03h38.11v-.98c-.375-6.61-2.156-11.72-5.344-15.33-3.188-3.66-7.5-5.49-12.938-5.49zm60.54 66.8h-13.008v-108h13.008v108zm52.448 1.41c-10.31 0-18.7-3.38-25.17-10.13-6.47-6.8-9.7-15.87-9.7-27.21v-2.39c0-7.55 1.43-14.27 4.29-20.18 2.9-5.95 6.94-10.59 12.09-13.92 5.21-3.38 10.83-5.06 16.88-5.06 9.89 0 17.58 3.25 23.06 9.77 5.48 6.51 8.23 15.84 8.23 27.98v5.42h-51.54c.18 7.5 2.36 13.57 6.54 18.21 4.22 4.59 9.56 6.89 16.03 6.89 4.59 0 8.48-.94 11.67-2.81 3.19-1.88 5.98-4.36 8.37-7.46l7.94 6.19c-6.37 9.8-15.94 14.7-28.69 14.7zm-1.61-68.21c-5.25 0-9.66 1.92-13.22 5.77-3.56 3.8-5.77 9.14-6.61 16.03h38.11v-.98c-.38-6.61-2.16-11.72-5.35-15.33-3.18-3.66-7.5-5.49-12.93-5.49zm58.64-9.28l.35 8.44c5.58-6.56 13.1-9.84 22.57-9.84 10.64 0 17.88 4.07 21.73 12.23 2.53-3.66 5.81-6.61 9.84-8.86 4.08-2.25 8.88-3.37 14.41-3.37 16.69 0 25.18 8.83 25.46 26.5V1355h-13.01v-50.2c0-5.44-1.24-9.5-3.73-12.17-2.48-2.72-6.65-4.08-12.51-4.08-4.83 0-8.84 1.46-12.03 4.36-3.18 2.86-5.03 6.73-5.55 11.61V1355h-13.08v-49.85c0-11.06-5.41-16.6-16.24-16.6-8.53 0-14.37 3.64-17.51 10.9V1355h-13.01v-76.08h12.31zm145.62 77.49c-10.32 0-18.71-3.38-25.18-10.13-6.47-6.8-9.7-15.87-9.7-27.21v-2.39c0-7.55 1.43-14.27 4.29-20.18 2.91-5.95 6.94-10.59 12.09-13.92 5.21-3.38 10.83-5.06 16.88-5.06 9.89 0 17.58 3.25 23.06 9.77 5.49 6.51 8.23 15.84 8.23 27.98v5.42h-51.54c.19 7.5 2.37 13.57 6.54 18.21 4.22 4.59 9.56 6.89 16.03 6.89 4.59 0 8.48-.94 11.67-2.81 3.19-1.88 5.98-4.36 8.37-7.46l7.94 6.19c-6.37 9.8-15.93 14.7-28.68 14.7zm-1.62-68.21c-5.25 0-9.66 1.92-13.22 5.77-3.56 3.8-5.77 9.14-6.61 16.03h38.11v-.98c-.38-6.61-2.16-11.72-5.34-15.33-3.19-3.66-7.5-5.49-12.94-5.49zm58.71-9.28l.42 9.56c5.81-7.31 13.41-10.96 22.78-10.96 16.08 0 24.19 9.07 24.33 27.21V1355h-13.01v-50.34c-.04-5.49-1.31-9.54-3.79-12.17-2.44-2.62-6.26-3.94-11.47-3.94-4.21 0-7.92 1.13-11.1 3.38-3.19 2.25-5.68 5.2-7.46 8.86V1355h-13.01v-76.08h12.31zm84.8-18.42v18.42h14.2v10.06h-14.2v47.18c0 3.04.63 5.34 1.89 6.89 1.27 1.5 3.43 2.25 6.47 2.25 1.5 0 3.57-.28 6.19-.85V1355c-3.42.94-6.75 1.41-9.98 1.41-5.82 0-10.2-1.76-13.15-5.28-2.96-3.51-4.43-8.51-4.43-14.97v-47.18h-13.85v-10.06h13.85v-18.42h13.01zm24.61 55.76c0-7.46 1.45-14.16 4.35-20.11 2.96-5.95 7.04-10.55 12.24-13.78 5.25-3.24 11.23-4.85 17.93-4.85 10.36 0 18.73 3.58 25.1 10.75 6.42 7.18 9.63 16.71 9.63 28.62v.91c0 7.41-1.43 14.07-4.29 19.97-2.81 5.86-6.86 10.43-12.16 13.71-5.25 3.29-11.3 4.93-18.14 4.93-10.31 0-18.68-3.59-25.1-10.76-6.38-7.17-9.56-16.67-9.56-28.48v-.91zm13.07 1.54c0 8.44 1.95 15.22 5.84 20.32 3.94 5.11 9.19 7.67 15.75 7.67 6.61 0 11.86-2.58 15.75-7.74 3.89-5.2 5.84-12.46 5.84-21.79 0-8.35-2-15.1-5.98-20.25-3.94-5.21-9.19-7.81-15.75-7.81-6.42 0-11.6 2.56-15.54 7.67-3.94 5.11-5.91 12.42-5.91 21.93zm116.79 17.02c0-3.52-1.33-6.23-4.01-8.16-2.62-1.96-7.24-3.65-13.85-5.06-6.56-1.4-11.79-3.09-15.68-5.06-3.84-1.97-6.7-4.31-8.57-7.03-1.83-2.72-2.75-5.96-2.75-9.71 0-6.23 2.63-11.5 7.88-15.82 5.29-4.31 12.05-6.46 20.25-6.46 8.62 0 15.61 2.22 20.95 6.68 5.39 4.45 8.09 10.14 8.09 17.08h-13.08c0-3.56-1.52-6.63-4.57-9.21-3-2.58-6.8-3.87-11.39-3.87-4.74 0-8.44 1.03-11.11 3.1-2.67 2.06-4.01 4.75-4.01 8.08 0 3.14 1.24 5.51 3.73 7.1 2.48 1.6 6.96 3.12 13.43 4.57 6.51 1.46 11.79 3.19 15.82 5.21 4.03 2.01 7.01 4.45 8.93 7.31 1.97 2.81 2.95 6.26 2.95 10.34 0 6.79-2.72 12.25-8.16 16.38-5.43 4.08-12.49 6.12-21.16 6.12-6.09 0-11.48-1.08-16.17-3.24-4.69-2.15-8.37-5.15-11.04-9-2.63-3.89-3.94-8.08-3.94-12.58h13.01c.23 4.36 1.97 7.82 5.2 10.4 3.28 2.53 7.6 3.8 12.94 3.8 4.92 0 8.86-.99 11.81-2.95 3-2.02 4.5-4.69 4.5-8.02z"/>
    <path fill="#C4C4C4" d="M3108 555h189v166h-189zM3121 1186h189v166h-189z"/>
    <path fill="#fff" stroke="#000" stroke-width="3" d="M2911.5 867.5h192v172h-192z"/>
    <path fill="#000" d="M2971.4 1003h-13.08v-86.695l-26.23 9.633v-11.813l37.27-13.992h2.04V1003zm105.19 0h-67.08v-9.352l35.44-39.375c5.25-5.953 8.85-10.781 10.82-14.484 2.02-3.75 3.03-7.617 3.03-11.601 0-5.344-1.62-9.727-4.85-13.149-3.24-3.422-7.55-5.133-12.94-5.133-6.47 0-11.51 1.852-15.12 5.555-3.56 3.656-5.34 8.766-5.34 15.328h-13.01c0-9.422 3.02-17.039 9.07-22.851 6.09-5.813 14.23-8.719 24.4-8.719 9.51 0 17.04 2.508 22.57 7.523 5.53 4.969 8.3 11.602 8.3 19.899 0 10.078-6.43 22.078-19.27 36l-27.42 29.742h51.4V1003z"/>
    <path fill="#C4C4C4" d="M2374 1931h595v198h-595z"/>
    <path fill="#000" d="M2496.03 2062.28h-42.89l-9.63 26.72h-13.92l39.09-102.38h11.81l39.17 102.38h-13.86l-9.77-26.72zm-38.81-11.11h34.8l-17.43-47.88-17.37 47.88zm104.69 28.62c4.64 0 8.7-1.41 12.17-4.22 3.47-2.81 5.39-6.33 5.76-10.55h12.31c-.24 4.36-1.74 8.51-4.5 12.45-2.77 3.94-6.47 7.08-11.11 9.42-4.59 2.34-9.47 3.52-14.63 3.52-10.36 0-18.61-3.45-24.75-10.34-6.09-6.94-9.14-16.41-9.14-28.41v-2.18c0-7.4 1.36-13.99 4.08-19.75 2.72-5.77 6.61-10.25 11.67-13.43 5.11-3.19 11.14-4.78 18.07-4.78 8.54 0 15.61 2.55 21.24 7.66 5.67 5.11 8.69 11.74 9.07 19.9h-12.31c-.37-4.92-2.25-8.96-5.62-12.1-3.33-3.18-7.45-4.78-12.38-4.78-6.61 0-11.74 2.39-15.39 7.18-3.61 4.73-5.42 11.6-5.42 20.6v2.46c0 8.76 1.81 15.51 5.42 20.25 3.6 4.73 8.76 7.1 15.46 7.1zm76.43 10.62c-10.31 0-18.7-3.38-25.17-10.13-6.47-6.8-9.7-15.87-9.7-27.21v-2.39c0-7.55 1.43-14.27 4.29-20.18 2.9-5.95 6.94-10.59 12.09-13.92 5.2-3.38 10.83-5.06 16.88-5.06 9.89 0 17.57 3.25 23.06 9.77 5.48 6.51 8.23 15.84 8.23 27.98v5.42h-51.54c.18 7.5 2.36 13.57 6.54 18.21 4.21 4.59 9.56 6.89 16.03 6.89 4.59 0 8.48-.94 11.67-2.81 3.19-1.88 5.98-4.36 8.37-7.46l7.94 6.19c-6.37 9.8-15.94 14.7-28.69 14.7zm-1.61-68.21c-5.25 0-9.66 1.92-13.22 5.77-3.56 3.8-5.77 9.14-6.61 16.03h38.11v-.98c-.38-6.61-2.16-11.72-5.35-15.33-3.18-3.66-7.5-5.49-12.93-5.49zm110.67 29.6c0 11.58-2.65 20.91-7.95 27.99-5.29 7.08-12.47 10.62-21.51 10.62-9.24 0-16.5-2.93-21.8-8.79v36.63h-13.01v-105.33h11.89l.63 8.44c5.3-6.56 12.65-9.84 22.08-9.84 9.14 0 16.36 3.44 21.65 10.33 5.35 6.89 8.02 16.48 8.02 28.76v1.19zm-13.01-1.47c0-8.58-1.83-15.35-5.48-20.32-3.66-4.97-8.68-7.46-15.05-7.46-7.88 0-13.78 3.5-17.72 10.48v36.35c3.89 6.94 9.84 10.41 17.86 10.41 6.23 0 11.18-2.46 14.84-7.38 3.7-4.97 5.55-12.33 5.55-22.08zm47.25-55.83v18.42h14.2v10.06h-14.2v47.18c0 3.04.63 5.34 1.9 6.89 1.26 1.5 3.42 2.25 6.47 2.25 1.5 0 3.56-.28 6.19-.85V2089c-3.43.94-6.75 1.41-9.99 1.41-5.81 0-10.19-1.76-13.15-5.28-2.95-3.51-4.43-8.51-4.43-14.97v-47.18h-13.85v-10.06h13.85v-18.42h13.01zm76.43 94.5c-.75-1.5-1.36-4.17-1.83-8.02-6.04 6.29-13.26 9.43-21.65 9.43-7.5 0-13.67-2.11-18.5-6.33-4.78-4.27-7.17-9.66-7.17-16.17 0-7.93 3-14.07 9-18.43 6.05-4.4 14.53-6.6 25.46-6.6h12.65v-5.98c0-4.55-1.36-8.16-4.08-10.83-2.72-2.72-6.72-4.08-12.02-4.08-4.64 0-8.53 1.17-11.67 3.52-3.14 2.34-4.71 5.18-4.71 8.51h-13.08c0-3.8 1.33-7.46 4.01-10.97 2.72-3.57 6.37-6.38 10.97-8.44 4.64-2.06 9.72-3.09 15.25-3.09 8.77 0 15.64 2.2 20.6 6.6 4.97 4.36 7.55 10.39 7.74 18.08v35.01c0 6.99.89 12.54 2.67 16.67v1.12h-13.64zm-21.59-9.91c4.08 0 7.95-1.06 11.61-3.17 3.65-2.11 6.3-4.85 7.94-8.22v-15.61h-10.19c-15.94 0-23.91 4.66-23.91 13.99 0 4.08 1.36 7.26 4.08 9.56 2.72 2.3 6.21 3.45 10.47 3.45zm89.72-54.5c-1.97-.32-4.1-.49-6.4-.49-8.53 0-14.32 3.63-17.36 10.9v54h-13.01v-76.08h12.66l.21 8.79c4.26-6.8 10.31-10.19 18.14-10.19 2.53 0 4.45.32 5.76.98v12.09z"/>
    <path fill="#C4C4C4" d="M3146 1931h595v198h-595z"/>
    <path fill="#000" d="M3254.46 2056.52c-1.26 10.82-5.27 19.19-12.02 25.1-6.71 5.86-15.64 8.79-26.79 8.79-12.1 0-21.8-4.34-29.11-13.01-7.27-8.67-10.9-20.28-10.9-34.81v-9.84c0-9.52 1.69-17.88 5.06-25.1 3.42-7.22 8.25-12.75 14.49-16.6 6.23-3.89 13.45-5.83 21.65-5.83 10.88 0 19.6 3.05 26.16 9.14 6.56 6.05 10.38 14.44 11.46 25.17h-13.57c-1.17-8.15-3.73-14.06-7.66-17.72-3.89-3.65-9.35-5.48-16.39-5.48-8.62 0-15.39 3.19-20.32 9.56-4.87 6.38-7.31 15.45-7.31 27.21v9.92c0 11.1 2.32 19.94 6.96 26.5 4.64 6.57 11.13 9.85 19.48 9.85 7.5 0 13.24-1.69 17.23-5.07 4.03-3.42 6.7-9.35 8.01-17.78h13.57zm63.42 32.48c-.75-1.5-1.36-4.17-1.83-8.02-6.04 6.29-13.26 9.43-21.65 9.43-7.5 0-13.67-2.11-18.49-6.33-4.79-4.27-7.18-9.66-7.18-16.17 0-7.93 3-14.07 9-18.43 6.05-4.4 14.54-6.6 25.46-6.6h12.65v-5.98c0-4.55-1.36-8.16-4.07-10.83-2.72-2.72-6.73-4.08-12.03-4.08-4.64 0-8.53 1.17-11.67 3.52-3.14 2.34-4.71 5.18-4.71 8.51h-13.08c0-3.8 1.34-7.46 4.01-10.97 2.72-3.57 6.37-6.38 10.97-8.44 4.64-2.06 9.72-3.09 15.26-3.09 8.76 0 15.63 2.2 20.6 6.6 4.97 4.36 7.54 10.39 7.73 18.08v35.01c0 6.99.89 12.54 2.67 16.67v1.12h-13.64zm-21.58-9.91c4.08 0 7.94-1.06 11.6-3.17 3.65-2.11 6.3-4.85 7.94-8.22v-15.61h-10.19c-15.94 0-23.91 4.66-23.91 13.99 0 4.08 1.36 7.26 4.08 9.56 2.72 2.3 6.21 3.45 10.48 3.45zm65.25-66.17l.42 9.56c5.81-7.31 13.41-10.96 22.78-10.96 16.08 0 24.19 9.07 24.33 27.21V2089h-13.01v-50.34c-.05-5.49-1.31-9.54-3.8-12.17-2.43-2.62-6.25-3.94-11.46-3.94-4.22 0-7.92 1.13-11.11 3.38-3.18 2.25-5.67 5.2-7.45 8.86V2089h-13.01v-76.08h12.31zm97.66 66.87c4.64 0 8.7-1.41 12.17-4.22 3.46-2.81 5.39-6.33 5.76-10.55h12.31c-.24 4.36-1.74 8.51-4.5 12.45-2.77 3.94-6.47 7.08-11.11 9.42-4.6 2.34-9.47 3.52-14.63 3.52-10.36 0-18.61-3.45-24.75-10.34-6.09-6.94-9.14-16.41-9.14-28.41v-2.18c0-7.4 1.36-13.99 4.08-19.75 2.72-5.77 6.61-10.25 11.67-13.43 5.11-3.19 11.13-4.78 18.07-4.78 8.53 0 15.61 2.55 21.24 7.66 5.67 5.11 8.69 11.74 9.07 19.9h-12.31c-.37-4.92-2.25-8.96-5.62-12.1-3.33-3.18-7.46-4.78-12.38-4.78-6.61 0-11.74 2.39-15.4 7.18-3.61 4.73-5.41 11.6-5.41 20.6v2.46c0 8.76 1.8 15.51 5.41 20.25 3.61 4.73 8.77 7.1 15.47 7.1zm76.43 10.62c-10.31 0-18.7-3.38-25.17-10.13-6.47-6.8-9.7-15.87-9.7-27.21v-2.39c0-7.55 1.43-14.27 4.28-20.18 2.91-5.95 6.94-10.59 12.1-13.92 5.2-3.38 10.83-5.06 16.87-5.06 9.89 0 17.58 3.25 23.07 9.77 5.48 6.51 8.22 15.84 8.22 27.98v5.42h-51.54c.19 7.5 2.37 13.57 6.54 18.21 4.22 4.59 9.57 6.89 16.03 6.89 4.6 0 8.49-.94 11.68-2.81 3.18-1.88 5.97-4.36 8.36-7.46l7.95 6.19c-6.38 9.8-15.94 14.7-28.69 14.7zm-1.62-68.21c-5.25 0-9.65 1.92-13.22 5.77-3.56 3.8-5.76 9.14-6.6 16.03h38.1v-.98c-.37-6.61-2.15-11.72-5.34-15.33-3.19-3.66-7.5-5.49-12.94-5.49zm60.54 66.8h-13.01v-108h13.01v108zm67.85 0c-.75-1.5-1.36-4.17-1.82-8.02-6.05 6.29-13.27 9.43-21.66 9.43-7.5 0-13.66-2.11-18.49-6.33-4.78-4.27-7.17-9.66-7.17-16.17 0-7.93 3-14.07 9-18.43 6.04-4.4 14.53-6.6 25.45-6.6h12.66v-5.98c0-4.55-1.36-8.16-4.08-10.83-2.72-2.72-6.73-4.08-12.03-4.08-4.64 0-8.53 1.17-11.67 3.52-3.14 2.34-4.71 5.18-4.71 8.51h-13.08c0-3.8 1.34-7.46 4.01-10.97 2.72-3.57 6.38-6.38 10.97-8.44 4.64-2.06 9.73-3.09 15.26-3.09 8.76 0 15.63 2.2 20.6 6.6 4.97 4.36 7.55 10.39 7.73 18.08v35.01c0 6.99.89 12.54 2.67 16.67v1.12h-13.64zm-21.58-9.91c4.08 0 7.94-1.06 11.6-3.17 3.66-2.11 6.3-4.85 7.95-8.22v-15.61h-10.2c-15.94 0-23.91 4.66-23.91 13.99 0 4.08 1.36 7.26 4.08 9.56 2.72 2.3 6.21 3.45 10.48 3.45zm89.72-54.5c-1.97-.32-4.1-.49-6.4-.49-8.53 0-14.32 3.63-17.37 10.9v54h-13.01v-76.08h12.66l.21 8.79c4.27-6.8 10.31-10.19 18.14-10.19 2.53 0 4.45.32 5.77.98v12.09z"/>
    <path fill="#C4C4C4" d="M2192 1186h880v169h-880z"/>
    <path fill="#fff" stroke="#000" stroke-width="10" d="M2926.48 1191h140.518v159H2926.48z"/>
    <g filter="url(#filter0_d)">
      <path fill="#000" d="M2996.58 1326.53l-48-105.4h96.01l-48.01 105.4z"/>
      <path stroke="#000" d="M3043.81 1221.63l-47.23 103.69-47.22-103.69h94.45z"/>
    </g>
    <path fill="#C4C4C4" d="M3123 1186h159v169h-159z"/>
    <path fill="#fff" stroke="#000" stroke-width="10" d="M3113 874h198v159h-198z"/>
    <g filter="url(#filter1_d)">
      <path fill="#C4C4C4" d="M3211.78 1009.53l-66.33-105.399h132.67l-66.34 105.399z"/>
      <path stroke="#000" stroke-width="2" d="M3276.31 905.131l-64.53 102.519-64.52-102.519h129.05z"/>
    </g>
    <path fill="#000" d="M1193.03 182.516c-1.26 10.828-5.27 19.195-12.02 25.101-6.71 5.86-15.63 8.789-26.79 8.789-12.1 0-21.8-4.336-29.11-13.008-7.27-8.671-10.9-20.273-10.9-34.804v-9.844c0-9.516 1.69-17.883 5.06-25.102 3.43-7.218 8.25-12.75 14.49-16.593 6.23-3.891 13.45-5.836 21.65-5.836 10.88 0 19.6 3.047 26.16 9.14 6.56 6.047 10.38 14.438 11.46 25.172h-13.57c-1.17-8.156-3.73-14.062-7.66-17.719-3.89-3.656-9.35-5.484-16.39-5.484-8.62 0-15.39 3.188-20.32 9.563-4.87 6.375-7.31 15.445-7.31 27.211v9.914c0 11.109 2.32 19.945 6.96 26.507 4.64 6.563 11.14 9.844 19.48 9.844 7.5 0 13.24-1.687 17.23-5.062 4.03-3.422 6.7-9.352 8.01-17.789h13.57zm13.01-6.258c0-7.453 1.45-14.156 4.36-20.11 2.95-5.953 7.03-10.546 12.23-13.781 5.25-3.234 11.23-4.851 17.93-4.851 10.36 0 18.73 3.586 25.1 10.757 6.43 7.172 9.64 16.711 9.64 28.618v.914c0 7.406-1.43 14.062-4.29 19.968-2.81 5.86-6.87 10.43-12.17 13.711-5.25 3.282-11.29 4.922-18.14 4.922-10.31 0-18.68-3.586-25.1-10.758-6.37-7.171-9.56-16.664-9.56-28.476v-.914zm13.08 1.547c0 8.437 1.94 15.211 5.83 20.32 3.94 5.109 9.19 7.664 15.75 7.664 6.61 0 11.86-2.578 15.75-7.734 3.89-5.203 5.84-12.469 5.84-21.797 0-8.344-1.99-15.094-5.98-20.25-3.93-5.203-9.19-7.805-15.75-7.805-6.42 0-11.6 2.555-15.54 7.664-3.93 5.11-5.9 12.422-5.9 21.938zm84.79-38.883l.43 9.562c5.81-7.312 13.4-10.968 22.78-10.968 16.08 0 24.18 9.07 24.33 27.211V215h-13.01v-50.344c-.05-5.484-1.32-9.539-3.8-12.164-2.44-2.625-6.26-3.937-11.46-3.937-4.22 0-7.92 1.125-11.11 3.375-3.19 2.25-5.67 5.203-7.45 8.859V215h-13.01v-76.078h12.3zM1375.42 215v-66.023h-12.02v-10.055h12.02v-6.469c0-8.484 2.42-15.094 7.24-19.828 4.88-4.734 11.75-7.102 20.61-7.102 5.25 0 11.88 1.43 19.89 4.289l-2.18 10.969c-5.86-2.343-11.43-3.515-16.73-3.515-5.58 0-9.61 1.265-12.09 3.796-2.44 2.485-3.66 6.235-3.66 11.25v6.61h15.54v10.055h-15.54V215h-13.08zm54.21 0h-13.08v-76.078h13.08V215zm18.07-38.672c0-11.859 2.75-21.281 8.23-28.266 5.48-7.031 12.75-10.546 21.8-10.546 9.28 0 16.52 3.281 21.72 9.843l.64-8.437h11.88v74.25c0 9.844-2.93 17.601-8.79 23.273-5.81 5.672-13.64 8.508-23.48 8.508-5.49 0-10.86-1.172-16.11-3.515-5.25-2.344-9.25-5.555-12.02-9.633l6.75-7.805c5.58 6.891 12.4 10.336 20.46 10.336 6.33 0 11.25-1.781 14.77-5.344 3.56-3.562 5.34-8.578 5.34-15.047v-6.539c-5.2 6-12.3 9-21.3 9-8.91 0-16.13-3.586-21.66-10.758-5.48-7.171-8.23-16.945-8.23-29.32zm13.08 1.477c0 8.578 1.76 15.328 5.27 20.25 3.52 4.875 8.44 7.312 14.77 7.312 8.2 0 14.23-3.726 18.07-11.179v-34.735c-3.98-7.265-9.96-10.898-17.93-10.898-6.33 0-11.27 2.461-14.84 7.383-3.56 4.921-5.34 12.21-5.34 21.867zm117.84 29.672c-5.06 5.953-12.49 8.929-22.28 8.929-8.11 0-14.3-2.344-18.57-7.031-4.22-4.734-6.35-11.719-6.39-20.953v-49.5h13v49.148c0 11.532 4.69 17.297 14.07 17.297 9.93 0 16.54-3.703 19.82-11.109v-55.336h13.01V215h-12.37l-.29-7.523zm69.26-56.883c-1.97-.328-4.1-.492-6.4-.492-8.53 0-14.32 3.632-17.36 10.898v54h-13.01v-76.078h12.66l.21 8.789c4.26-6.797 10.31-10.195 18.14-10.195 2.53 0 4.45.328 5.76.984v12.094zM1704.06 215c-.75-1.5-1.36-4.172-1.83-8.016-6.04 6.282-13.26 9.422-21.65 9.422-7.5 0-13.67-2.109-18.49-6.328-4.79-4.266-7.18-9.656-7.18-16.172 0-7.922 3-14.062 9-18.422 6.05-4.406 14.54-6.609 25.46-6.609h12.65v-5.977c0-4.546-1.36-8.156-4.07-10.828-2.72-2.718-6.73-4.078-12.03-4.078-4.64 0-8.53 1.172-11.67 3.516-3.14 2.344-4.71 5.18-4.71 8.508h-13.08c0-3.797 1.34-7.454 4.01-10.969 2.72-3.563 6.37-6.375 10.97-8.438 4.64-2.062 9.72-3.093 15.26-3.093 8.76 0 15.63 2.203 20.6 6.609 4.97 4.359 7.54 10.383 7.73 18.07v35.016c0 6.984.89 12.539 2.67 16.664V215h-13.64zm-21.58-9.914c4.07 0 7.94-1.055 11.6-3.164 3.65-2.11 6.3-4.852 7.94-8.227v-15.609h-10.19c-15.94 0-23.91 4.664-23.91 13.992 0 4.078 1.36 7.266 4.08 9.563 2.72 2.297 6.21 3.445 10.48 3.445zm83.46.703c4.64 0 8.69-1.406 12.16-4.219 3.47-2.812 5.39-6.328 5.77-10.547h12.3c-.23 4.36-1.73 8.508-4.5 12.446-2.76 3.937-6.47 7.078-11.11 9.422a31.737 31.737 0 01-14.62 3.515c-10.36 0-18.61-3.445-24.75-10.336-6.1-6.937-9.14-16.406-9.14-28.406v-2.18c0-7.406 1.36-13.992 4.07-19.757 2.72-5.766 6.61-10.243 11.68-13.43 5.11-3.188 11.13-4.781 18.07-4.781 8.53 0 15.61 2.554 21.23 7.664 5.67 5.109 8.7 11.742 9.07 19.898h-12.3c-.38-4.922-2.25-8.953-5.63-12.094-3.33-3.187-7.45-4.781-12.37-4.781-6.61 0-11.75 2.391-15.4 7.172-3.61 4.734-5.42 11.602-5.42 20.602v2.461c0 8.765 1.81 15.515 5.42 20.25 3.61 4.734 8.76 7.101 15.47 7.101zm58.99 9.211h-13.01v-76.078h13.01V215zm-14.06-96.258c0-2.109.63-3.89 1.9-5.344 1.31-1.453 3.23-2.179 5.76-2.179s4.45.726 5.77 2.179c1.31 1.454 1.97 3.235 1.97 5.344 0 2.11-.66 3.867-1.97 5.274-1.32 1.406-3.24 2.109-5.77 2.109-2.53 0-4.45-.703-5.76-2.109-1.27-1.407-1.9-3.164-1.9-5.274zm31.5 57.516c0-7.453 1.45-14.156 4.36-20.11 2.95-5.953 7.03-10.546 12.23-13.781 5.25-3.234 11.23-4.851 17.93-4.851 10.36 0 18.73 3.586 25.1 10.757 6.42 7.172 9.63 16.711 9.63 28.618v.914c0 7.406-1.42 14.062-4.28 19.968-2.82 5.86-6.87 10.43-12.17 13.711-5.25 3.282-11.29 4.922-18.14 4.922-10.31 0-18.68-3.586-25.1-10.758-6.38-7.171-9.56-16.664-9.56-28.476v-.914zm13.08 1.547c0 8.437 1.94 15.211 5.83 20.32 3.94 5.109 9.19 7.664 15.75 7.664 6.61 0 11.86-2.578 15.75-7.734 3.89-5.203 5.84-12.469 5.84-21.797 0-8.344-2-15.094-5.98-20.25-3.94-5.203-9.19-7.805-15.75-7.805-6.42 0-11.6 2.555-15.54 7.664-3.94 5.11-5.9 12.422-5.9 21.938zM1882.8 107h15.75l-18.85 20.672h-10.47L1882.8 107zm57.44 31.922l.42 9.562c5.82-7.312 13.41-10.968 22.79-10.968 16.07 0 24.18 9.07 24.32 27.211V215h-13v-50.344c-.05-5.484-1.32-9.539-3.8-12.164-2.44-2.625-6.26-3.937-11.46-3.937-4.22 0-7.92 1.125-11.11 3.375-3.19 2.25-5.67 5.203-7.45 8.859V215h-13.01v-76.078h12.3zm99.71 37.406c0-11.672 2.76-21.047 8.29-28.125 5.53-7.125 12.78-10.687 21.73-10.687 8.91 0 15.96 3.046 21.16 9.14V107h13.01v108h-11.95l-.64-8.156c-5.2 6.375-12.44 9.562-21.72 9.562-8.81 0-16.01-3.609-21.59-10.828-5.53-7.219-8.29-16.64-8.29-28.266v-.984zm13 1.477c0 8.625 1.78 15.375 5.35 20.25 3.56 4.875 8.48 7.312 14.76 7.312 8.25 0 14.28-3.703 18.07-11.109v-34.946c-3.89-7.171-9.86-10.757-17.93-10.757-6.37 0-11.34 2.461-14.9 7.383-3.57 4.921-5.35 12.21-5.35 21.867zm103.01 38.601c-10.31 0-18.7-3.375-25.17-10.125-6.47-6.797-9.7-15.867-9.7-27.211v-2.39c0-7.547 1.43-14.274 4.29-20.18 2.9-5.953 6.93-10.594 12.09-13.922 5.2-3.375 10.83-5.062 16.87-5.062 9.89 0 17.58 3.257 23.07 9.773 5.48 6.516 8.22 15.844 8.22 27.984v5.415h-51.54c.19 7.5 2.37 13.57 6.54 18.21 4.22 4.594 9.57 6.891 16.03 6.891 4.6 0 8.49-.937 11.68-2.812 3.18-1.875 5.97-4.36 8.36-7.454l7.95 6.188c-6.38 9.797-15.94 14.695-28.69 14.695zm-1.62-68.203c-5.25 0-9.65 1.922-13.22 5.766-3.56 3.797-5.76 9.14-6.6 16.031h38.1v-.984c-.37-6.61-2.15-11.719-5.34-15.328-3.19-3.657-7.5-5.485-12.94-5.485zM2214.88 215h-13V107h13v108zm100.9-20.18c0-3.515-1.33-6.234-4.01-8.156-2.62-1.969-7.24-3.656-13.85-5.062-6.56-1.407-11.79-3.094-15.68-5.063-3.84-1.969-6.7-4.312-8.58-7.031-1.82-2.719-2.74-5.953-2.74-9.703 0-6.235 2.63-11.508 7.88-15.821 5.29-4.312 12.04-6.468 20.25-6.468 8.62 0 15.61 2.226 20.95 6.679 5.39 4.453 8.09 10.149 8.09 17.086h-13.08c0-3.562-1.53-6.633-4.57-9.211-3-2.578-6.8-3.867-11.39-3.867-4.74 0-8.44 1.031-11.11 3.094-2.67 2.062-4.01 4.758-4.01 8.086 0 3.14 1.24 5.508 3.73 7.101 2.48 1.594 6.96 3.118 13.43 4.571 6.51 1.453 11.79 3.187 15.82 5.203 4.03 2.015 7 4.453 8.93 7.312 1.96 2.813 2.95 6.258 2.95 10.336 0 6.797-2.72 12.258-8.16 16.383-5.43 4.078-12.49 6.117-21.16 6.117-6.09 0-11.49-1.078-16.17-3.234-4.69-2.156-8.37-5.156-11.04-9-2.63-3.891-3.94-8.086-3.94-12.586h13.01c.23 4.359 1.97 7.828 5.2 10.406 3.28 2.531 7.59 3.797 12.94 3.797 4.92 0 8.86-.984 11.81-2.953 3-2.016 4.5-4.688 4.5-8.016zm44.09 20.18h-13.01v-76.078h13.01V215zm-14.07-96.258c0-2.109.64-3.89 1.9-5.344 1.32-1.453 3.24-2.179 5.77-2.179 2.53 0 4.45.726 5.76 2.179 1.32 1.454 1.97 3.235 1.97 5.344 0 2.11-.65 3.867-1.97 5.274-1.31 1.406-3.23 2.109-5.76 2.109s-4.45-.703-5.77-2.109c-1.26-1.407-1.9-3.164-1.9-5.274zm52.6 1.758v18.422h14.2v10.055h-14.2v47.179c0 3.047.63 5.344 1.9 6.891 1.26 1.5 3.42 2.25 6.47 2.25 1.5 0 3.56-.281 6.18-.844V215c-3.42.938-6.75 1.406-9.98 1.406-5.81 0-10.2-1.758-13.15-5.273-2.95-3.516-4.43-8.508-4.43-14.977v-47.179h-13.85v-10.055h13.85V120.5h13.01zm43.59 94.5h-13.01v-76.078h13.01V215zm-14.06-96.258c0-2.109.63-3.89 1.9-5.344 1.31-1.453 3.23-2.179 5.76-2.179s4.46.726 5.77 2.179c1.31 1.454 1.97 3.235 1.97 5.344 0 2.11-.66 3.867-1.97 5.274-1.31 1.406-3.24 2.109-5.77 2.109-2.53 0-4.45-.703-5.76-2.109-1.27-1.407-1.9-3.164-1.9-5.274zm31.5 57.516c0-7.453 1.45-14.156 4.36-20.11 2.95-5.953 7.03-10.546 12.23-13.781 5.25-3.234 11.23-4.851 17.93-4.851 10.36 0 18.73 3.586 25.1 10.757 6.43 7.172 9.64 16.711 9.64 28.618v.914c0 7.406-1.43 14.062-4.29 19.968-2.81 5.86-6.87 10.43-12.17 13.711-5.25 3.282-11.29 4.922-18.14 4.922-10.31 0-18.68-3.586-25.1-10.758-6.37-7.171-9.56-16.664-9.56-28.476v-.914zm13.08 1.547c0 8.437 1.94 15.211 5.83 20.32 3.94 5.109 9.19 7.664 15.75 7.664 6.61 0 11.86-2.578 15.75-7.734 3.89-5.203 5.84-12.469 5.84-21.797 0-8.344-1.99-15.094-5.98-20.25-3.93-5.203-9.18-7.805-15.75-7.805-6.42 0-11.6 2.555-15.54 7.664-3.93 5.11-5.9 12.422-5.9 21.938zM328.633 86.117c0 10.031-1.688 18.797-5.063 26.297-3.375 7.453-8.156 13.148-14.343 17.086-6.188 3.938-13.407 5.906-21.657 5.906-8.062 0-15.211-1.968-21.445-5.906-6.234-3.984-11.086-9.633-14.555-16.945-3.422-7.36-5.179-15.868-5.273-25.524v-7.383c0-9.843 1.711-18.539 5.133-26.085 3.422-7.547 8.25-13.313 14.484-17.297 6.281-4.032 13.453-6.047 21.516-6.047 8.203 0 15.422 1.992 21.656 5.976 6.281 3.938 11.109 9.68 14.484 17.227 3.375 7.5 5.063 16.242 5.063 26.226v6.47zm-13.43-6.61c0-12.14-2.437-21.445-7.312-27.913-4.875-6.516-11.696-9.774-20.461-9.774-8.532 0-15.258 3.258-20.18 9.774-4.875 6.468-7.383 15.468-7.523 27v7.523c0 11.766 2.461 21.024 7.382 27.774 4.969 6.703 11.789 10.054 20.461 10.054 8.719 0 15.469-3.164 20.25-9.492 4.782-6.375 7.242-15.492 7.383-27.351v-7.594zm99 36.563l14.625-58.148h13.008L419.688 134h-10.547l-18.493-57.656-18 57.656h-10.546l-22.079-76.078h12.938l14.977 56.953 17.718-56.953h10.477l18.07 58.148zM469.258 134H456.25V26h13.008v108zm137.32 0h-13.57V86.68h-51.61V134h-13.5V31.625h13.5v44.016h51.61V31.625h13.57V134zm18.492-38.742c0-7.453 1.453-14.156 4.36-20.11 2.953-5.953 7.031-10.546 12.234-13.78 5.25-3.235 11.227-4.852 17.93-4.852 10.359 0 18.726 3.586 25.101 10.757 6.422 7.172 9.633 16.711 9.633 28.618v.914c0 7.406-1.43 14.062-4.289 19.968-2.812 5.86-6.867 10.43-12.164 13.711-5.25 3.282-11.297 4.922-18.141 4.922-10.312 0-18.679-3.586-25.101-10.758-6.375-7.171-9.563-16.664-9.563-28.476v-.914zm13.078 1.547c0 8.437 1.946 15.211 5.836 20.32 3.938 5.109 9.188 7.664 15.75 7.664 6.61 0 11.86-2.578 15.75-7.734 3.891-5.203 5.836-12.469 5.836-21.797 0-8.344-1.992-15.094-5.976-20.25-3.938-5.203-9.188-7.805-15.75-7.805-6.422 0-11.602 2.555-15.539 7.664-3.938 5.11-5.907 12.422-5.907 21.938zm69.047-1.547c0-7.453 1.453-14.156 4.36-20.11 2.953-5.953 7.031-10.546 12.234-13.78 5.25-3.235 11.227-4.852 17.93-4.852 10.359 0 18.726 3.586 25.101 10.757 6.422 7.172 9.633 16.711 9.633 28.618v.914c0 7.406-1.43 14.062-4.289 19.968-2.812 5.86-6.867 10.43-12.164 13.711-5.25 3.282-11.297 4.922-18.141 4.922-10.312 0-18.679-3.586-25.101-10.758-6.375-7.171-9.563-16.664-9.563-28.476v-.914zm13.078 1.547c0 8.437 1.946 15.211 5.836 20.32 3.938 5.109 9.188 7.664 15.75 7.664 6.61 0 11.86-2.578 15.75-7.734 3.891-5.203 5.836-12.469 5.836-21.797 0-8.344-1.992-15.094-5.976-20.25-3.938-5.203-9.188-7.805-15.75-7.805-6.422 0-11.602 2.555-15.539 7.664-3.938 5.11-5.907 12.422-5.907 21.938zM810.414 39.5v18.422h14.203v10.055h-14.203v47.179c0 3.047.633 5.344 1.898 6.891 1.266 1.5 3.422 2.25 6.469 2.25 1.5 0 3.563-.281 6.188-.844V134c-3.422.938-6.75 1.406-9.985 1.406-5.812 0-10.195-1.758-13.148-5.273-2.953-3.516-4.43-8.508-4.43-14.977v-47.18h-13.851V57.923h13.851V39.5h13.008z"/>
    <g>
      <path fill="#C4C4C4" d="M0 9h157v157H0z"/>
      <path stroke="#000" d="M.349 12.979l157 152.663M-.354 165.646l157-157"/>
    </g>
    <path fill="#000" d="M328.633 86.117c0 10.031-1.688 18.797-5.063 26.297-3.375 7.453-8.156 13.148-14.343 17.086-6.188 3.938-13.407 5.906-21.657 5.906-8.062 0-15.211-1.968-21.445-5.906-6.234-3.984-11.086-9.633-14.555-16.945-3.422-7.36-5.179-15.868-5.273-25.524v-7.383c0-9.843 1.711-18.539 5.133-26.085 3.422-7.547 8.25-13.313 14.484-17.297 6.281-4.032 13.453-6.047 21.516-6.047 8.203 0 15.422 1.992 21.656 5.976 6.281 3.938 11.109 9.68 14.484 17.227 3.375 7.5 5.063 16.242 5.063 26.226v6.47zm-13.43-6.61c0-12.14-2.437-21.445-7.312-27.913-4.875-6.516-11.696-9.774-20.461-9.774-8.532 0-15.258 3.258-20.18 9.774-4.875 6.468-7.383 15.468-7.523 27v7.523c0 11.766 2.461 21.024 7.382 27.774 4.969 6.703 11.789 10.054 20.461 10.054 8.719 0 15.469-3.164 20.25-9.492 4.782-6.375 7.242-15.492 7.383-27.351v-7.594zm99 36.563l14.625-58.148h13.008L419.688 134h-10.547l-18.493-57.656-18 57.656h-10.546l-22.079-76.078h12.938l14.977 56.953 17.718-56.953h10.477l18.07 58.148zM469.258 134H456.25V26h13.008v108zm137.32 0h-13.57V86.68h-51.61V134h-13.5V31.625h13.5v44.016h51.61V31.625h13.57V134zm18.492-38.742c0-7.453 1.453-14.156 4.36-20.11 2.953-5.953 7.031-10.546 12.234-13.78 5.25-3.235 11.227-4.852 17.93-4.852 10.359 0 18.726 3.586 25.101 10.757 6.422 7.172 9.633 16.711 9.633 28.618v.914c0 7.406-1.43 14.062-4.289 19.968-2.812 5.86-6.867 10.43-12.164 13.711-5.25 3.282-11.297 4.922-18.141 4.922-10.312 0-18.679-3.586-25.101-10.758-6.375-7.171-9.563-16.664-9.563-28.476v-.914zm13.078 1.547c0 8.437 1.946 15.211 5.836 20.32 3.938 5.109 9.188 7.664 15.75 7.664 6.61 0 11.86-2.578 15.75-7.734 3.891-5.203 5.836-12.469 5.836-21.797 0-8.344-1.992-15.094-5.976-20.25-3.938-5.203-9.188-7.805-15.75-7.805-6.422 0-11.602 2.555-15.539 7.664-3.938 5.11-5.907 12.422-5.907 21.938zm69.047-1.547c0-7.453 1.453-14.156 4.36-20.11 2.953-5.953 7.031-10.546 12.234-13.78 5.25-3.235 11.227-4.852 17.93-4.852 10.359 0 18.726 3.586 25.101 10.757 6.422 7.172 9.633 16.711 9.633 28.618v.914c0 7.406-1.43 14.062-4.289 19.968-2.812 5.86-6.867 10.43-12.164 13.711-5.25 3.282-11.297 4.922-18.141 4.922-10.312 0-18.679-3.586-25.101-10.758-6.375-7.171-9.563-16.664-9.563-28.476v-.914zm13.078 1.547c0 8.437 1.946 15.211 5.836 20.32 3.938 5.109 9.188 7.664 15.75 7.664 6.61 0 11.86-2.578 15.75-7.734 3.891-5.203 5.836-12.469 5.836-21.797 0-8.344-1.992-15.094-5.976-20.25-3.938-5.203-9.188-7.805-15.75-7.805-6.422 0-11.602 2.555-15.539 7.664-3.938 5.11-5.907 12.422-5.907 21.938zM810.414 39.5v18.422h14.203v10.055h-14.203v47.179c0 3.047.633 5.344 1.898 6.891 1.266 1.5 3.422 2.25 6.469 2.25 1.5 0 3.563-.281 6.188-.844V134c-3.422.938-6.75 1.406-9.985 1.406-5.812 0-10.195-1.758-13.148-5.273-2.953-3.516-4.43-8.508-4.43-14.977v-47.18h-13.851V57.923h13.851V39.5h13.008z"/>
    <g>
      <path fill="#C4C4C4" d="M0 9h157v157H0z"/>
      <path stroke="#000" d="M.349 12.979l157 152.663M-.354 165.646l157-157"/>
    </g>
  </g>
  <defs>
    <filter id="filter0_d" width="104.006" height="113.394" x="2944.58" y="1221.13" color-interpolation-filters="sRGB" filterUnits="userSpaceOnUse">
      <feFlood flood-opacity="0" result="BackgroundImageFix"/>
      <feColorMatrix in="SourceAlpha" values="0 0 0 0 0 0 0 0 0 0 0 0 0 0 0 0 0 0 127 0"/>
      <feOffset dy="4"/>
      <feGaussianBlur stdDeviation="2"/>
      <feColorMatrix values="0 0 0 0 0 0 0 0 0 0 0 0 0 0 0 0 0 0 0.25 0"/>
      <feBlend in2="BackgroundImageFix" result="effect1_dropShadow"/>
      <feBlend in="SourceGraphic" in2="effect1_dropShadow" result="shape"/>
    </filter>
    <filter id="filter1_d" width="140.671" height="113.394" x="3141.45" y="904.131" color-interpolation-filters="sRGB" filterUnits="userSpaceOnUse">
      <feFlood flood-opacity="0" result="BackgroundImageFix"/>
      <feColorMatrix in="SourceAlpha" values="0 0 0 0 0 0 0 0 0 0 0 0 0 0 0 0 0 0 127 0"/>
      <feOffset dy="4"/>
      <feGaussianBlur stdDeviation="2"/>
      <feColorMatrix values="0 0 0 0 0 0 0 0 0 0 0 0 0 0 0 0 0 0 0.25 0"/>
      <feBlend in2="BackgroundImageFix" result="effect1_dropShadow"/>
      <feBlend in="SourceGraphic" in2="effect1_dropShadow" result="shape"/>
    </filter>
    <clipPath id="clip0">
      <path fill="#fff" d="M0 0h3898v2225H0z"/>
    </clipPath>
  </defs>
</svg>
