<svg xmlns="http://www.w3.org/2000/svg" width="3898" height="2225" fill="none" viewBox="0 0 3898 2225">
  <g clip-path="url(#clip0)">
    <path fill="#fff" d="M0 0h3898v2225H0z"/>
    <path fill="#C4C4C4" d="M2374 1862h595v198h-595z"/>
    <path fill="#000" d="M2496.03 1993.28h-42.89l-9.63 26.72h-13.92l39.09-102.38h11.81l39.17 102.38h-13.86l-9.77-26.72zm-38.81-11.11h34.8l-17.43-47.88-17.37 47.88zm104.69 28.62c4.64 0 8.7-1.41 12.17-4.22 3.47-2.81 5.39-6.33 5.76-10.55h12.31c-.24 4.36-1.74 8.51-4.5 12.45-2.77 3.94-6.47 7.08-11.11 9.42-4.59 2.34-9.47 3.52-14.63 3.52-10.36 0-18.61-3.45-24.75-10.34-6.09-6.94-9.14-16.41-9.14-28.41v-2.18c0-7.4 1.36-13.99 4.08-19.75 2.72-5.77 6.61-10.25 11.67-13.43 5.11-3.19 11.14-4.78 18.07-4.78 8.54 0 15.61 2.55 21.24 7.66 5.67 5.11 8.69 11.74 9.07 19.9h-12.31c-.37-4.92-2.25-8.96-5.62-12.1-3.33-3.18-7.45-4.78-12.38-4.78-6.61 0-11.74 2.39-15.39 7.18-3.61 4.73-5.42 11.6-5.42 20.6v2.46c0 8.76 1.81 15.51 5.42 20.25 3.6 4.73 8.76 7.1 15.46 7.1zm76.43 10.62c-10.31 0-18.7-3.38-25.17-10.13-6.47-6.8-9.7-15.87-9.7-27.21v-2.39c0-7.55 1.43-14.27 4.29-20.18 2.9-5.95 6.94-10.59 12.09-13.92 5.2-3.38 10.83-5.06 16.88-5.06 9.89 0 17.57 3.25 23.06 9.77 5.48 6.51 8.23 15.84 8.23 27.98v5.42h-51.54c.18 7.5 2.36 13.57 6.54 18.21 4.21 4.59 9.56 6.89 16.03 6.89 4.59 0 8.48-.94 11.67-2.81 3.19-1.88 5.98-4.36 8.37-7.46l7.94 6.19c-6.37 9.8-15.94 14.7-28.69 14.7zm-1.61-68.21c-5.25 0-9.66 1.92-13.22 5.77-3.56 3.8-5.77 9.14-6.61 16.03h38.11v-.98c-.38-6.61-2.16-11.72-5.35-15.33-3.18-3.66-7.5-5.49-12.93-5.49zm110.67 29.6c0 11.58-2.65 20.91-7.95 27.99-5.29 7.08-12.47 10.62-21.51 10.62-9.24 0-16.5-2.93-21.8-8.79v36.63h-13.01v-105.33h11.89l.63 8.44c5.3-6.56 12.65-9.84 22.08-9.84 9.14 0 16.36 3.44 21.65 10.33 5.35 6.89 8.02 16.48 8.02 28.76v1.19zm-13.01-1.47c0-8.58-1.83-15.35-5.48-20.32-3.66-4.97-8.68-7.46-15.05-7.46-7.88 0-13.78 3.5-17.72 10.48v36.35c3.89 6.94 9.84 10.41 17.86 10.41 6.23 0 11.18-2.46 14.84-7.38 3.7-4.97 5.55-12.33 5.55-22.08zm47.25-55.83v18.42h14.2v10.06h-14.2v47.18c0 3.04.63 5.34 1.9 6.89 1.26 1.5 3.42 2.25 6.47 2.25 1.5 0 3.56-.28 6.19-.85V2020c-3.43.94-6.75 1.41-9.99 1.41-5.81 0-10.19-1.76-13.15-5.28-2.95-3.51-4.43-8.51-4.43-14.97v-47.18h-13.85v-10.06h13.85v-18.42h13.01zm76.43 94.5c-.75-1.5-1.36-4.17-1.83-8.02-6.04 6.29-13.26 9.43-21.65 9.43-7.5 0-13.67-2.11-18.5-6.33-4.78-4.27-7.17-9.66-7.17-16.17 0-7.93 3-14.07 9-18.43 6.05-4.4 14.53-6.6 25.46-6.6h12.65v-5.98c0-4.55-1.36-8.16-4.08-10.83-2.72-2.72-6.72-4.08-12.02-4.08-4.64 0-8.53 1.17-11.67 3.52-3.14 2.34-4.71 5.18-4.71 8.51h-13.08c0-3.8 1.33-7.46 4.01-10.97 2.72-3.57 6.37-6.38 10.97-8.44 4.64-2.06 9.72-3.09 15.25-3.09 8.77 0 15.64 2.2 20.6 6.6 4.97 4.36 7.55 10.39 7.74 18.08v35.01c0 6.99.89 12.54 2.67 16.67v1.12h-13.64zm-21.59-9.91c4.08 0 7.95-1.06 11.61-3.17 3.65-2.11 6.3-4.85 7.94-8.22v-15.61h-10.19c-15.94 0-23.91 4.66-23.91 13.99 0 4.08 1.36 7.26 4.08 9.56 2.72 2.3 6.21 3.45 10.47 3.45zm89.72-54.5c-1.97-.32-4.1-.49-6.4-.49-8.53 0-14.32 3.63-17.36 10.9v54h-13.01v-76.08h12.66l.21 8.79c4.26-6.8 10.31-10.19 18.14-10.19 2.53 0 4.45.32 5.76.98v12.09z"/>
    <path fill="#C4C4C4" d="M3146 1862h595v198h-595z"/>
    <path fill="#000" d="M3254.46 1987.52c-1.26 10.82-5.27 19.19-12.02 25.1-6.71 5.86-15.64 8.79-26.79 8.79-12.1 0-21.8-4.34-29.11-13.01-7.27-8.67-10.9-20.28-10.9-34.81v-9.84c0-9.52 1.69-17.88 5.06-25.1 3.42-7.22 8.25-12.75 14.49-16.6 6.23-3.89 13.45-5.83 21.65-5.83 10.88 0 19.6 3.05 26.16 9.14 6.56 6.05 10.38 14.44 11.46 25.17h-13.57c-1.17-8.15-3.73-14.06-7.66-17.72-3.89-3.65-9.35-5.48-16.39-5.48-8.62 0-15.39 3.19-20.32 9.56-4.87 6.38-7.31 15.45-7.31 27.21v9.92c0 11.1 2.32 19.94 6.96 26.5 4.64 6.57 11.13 9.85 19.48 9.85 7.5 0 13.24-1.69 17.23-5.07 4.03-3.42 6.7-9.35 8.01-17.78h13.57zm63.42 32.48c-.75-1.5-1.36-4.17-1.83-8.02-6.04 6.29-13.26 9.43-21.65 9.43-7.5 0-13.67-2.11-18.49-6.33-4.79-4.27-7.18-9.66-7.18-16.17 0-7.93 3-14.07 9-18.43 6.05-4.4 14.54-6.6 25.46-6.6h12.65v-5.98c0-4.55-1.36-8.16-4.07-10.83-2.72-2.72-6.73-4.08-12.03-4.08-4.64 0-8.53 1.17-11.67 3.52-3.14 2.34-4.71 5.18-4.71 8.51h-13.08c0-3.8 1.34-7.46 4.01-10.97 2.72-3.57 6.37-6.38 10.97-8.44 4.64-2.06 9.72-3.09 15.26-3.09 8.76 0 15.63 2.2 20.6 6.6 4.97 4.36 7.54 10.39 7.73 18.08v35.01c0 6.99.89 12.54 2.67 16.67v1.12h-13.64zm-21.58-9.91c4.08 0 7.94-1.06 11.6-3.17 3.65-2.11 6.3-4.85 7.94-8.22v-15.61h-10.19c-15.94 0-23.91 4.66-23.91 13.99 0 4.08 1.36 7.26 4.08 9.56 2.72 2.3 6.21 3.45 10.48 3.45zm65.25-66.17l.42 9.56c5.81-7.31 13.41-10.96 22.78-10.96 16.08 0 24.19 9.07 24.33 27.21V2020h-13.01v-50.34c-.05-5.49-1.31-9.54-3.8-12.17-2.43-2.62-6.25-3.94-11.46-3.94-4.22 0-7.92 1.13-11.11 3.38-3.18 2.25-5.67 5.2-7.45 8.86V2020h-13.01v-76.08h12.31zm97.66 66.87c4.64 0 8.7-1.41 12.17-4.22 3.46-2.81 5.39-6.33 5.76-10.55h12.31c-.24 4.36-1.74 8.51-4.5 12.45-2.77 3.94-6.47 7.08-11.11 9.42-4.6 2.34-9.47 3.52-14.63 3.52-10.36 0-18.61-3.45-24.75-10.34-6.09-6.94-9.14-16.41-9.14-28.41v-2.18c0-7.4 1.36-13.99 4.08-19.75 2.72-5.77 6.61-10.25 11.67-13.43 5.11-3.19 11.13-4.78 18.07-4.78 8.53 0 15.61 2.55 21.24 7.66 5.67 5.11 8.69 11.74 9.07 19.9h-12.31c-.37-4.92-2.25-8.96-5.62-12.1-3.33-3.18-7.46-4.78-12.38-4.78-6.61 0-11.74 2.39-15.4 7.18-3.61 4.73-5.41 11.6-5.41 20.6v2.46c0 8.76 1.8 15.51 5.41 20.25 3.61 4.73 8.77 7.1 15.47 7.1zm76.43 10.62c-10.31 0-18.7-3.38-25.17-10.13-6.47-6.8-9.7-15.87-9.7-27.21v-2.39c0-7.55 1.43-14.27 4.28-20.18 2.91-5.95 6.94-10.59 12.1-13.92 5.2-3.38 10.83-5.06 16.87-5.06 9.89 0 17.58 3.25 23.07 9.77 5.48 6.51 8.22 15.84 8.22 27.98v5.42h-51.54c.19 7.5 2.37 13.57 6.54 18.21 4.22 4.59 9.57 6.89 16.03 6.89 4.6 0 8.49-.94 11.68-2.81 3.18-1.88 5.97-4.36 8.36-7.46l7.95 6.19c-6.38 9.8-15.94 14.7-28.69 14.7zm-1.62-68.21c-5.25 0-9.65 1.92-13.22 5.77-3.56 3.8-5.76 9.14-6.6 16.03h38.1v-.98c-.37-6.61-2.15-11.72-5.34-15.33-3.19-3.66-7.5-5.49-12.94-5.49zm60.54 66.8h-13.01v-108h13.01v108zm67.85 0c-.75-1.5-1.36-4.17-1.82-8.02-6.05 6.29-13.27 9.43-21.66 9.43-7.5 0-13.66-2.11-18.49-6.33-4.78-4.27-7.17-9.66-7.17-16.17 0-7.93 3-14.07 9-18.43 6.04-4.4 14.53-6.6 25.45-6.6h12.66v-5.98c0-4.55-1.36-8.16-4.08-10.83-2.72-2.72-6.73-4.08-12.03-4.08-4.64 0-8.53 1.17-11.67 3.52-3.14 2.34-4.71 5.18-4.71 8.51h-13.08c0-3.8 1.34-7.46 4.01-10.97 2.72-3.57 6.38-6.38 10.97-8.44 4.64-2.06 9.73-3.09 15.26-3.09 8.76 0 15.63 2.2 20.6 6.6 4.97 4.36 7.55 10.39 7.73 18.08v35.01c0 6.99.89 12.54 2.67 16.67v1.12h-13.64zm-21.58-9.91c4.08 0 7.94-1.06 11.6-3.17 3.66-2.11 6.3-4.85 7.95-8.22v-15.61h-10.2c-15.94 0-23.91 4.66-23.91 13.99 0 4.08 1.36 7.26 4.08 9.56 2.72 2.3 6.21 3.45 10.48 3.45zm89.72-54.5c-1.97-.32-4.1-.49-6.4-.49-8.53 0-14.32 3.63-17.37 10.9v54h-13.01v-76.08h12.66l.21 8.79c4.27-6.8 10.31-10.19 18.14-10.19 2.53 0 4.45.32 5.77.98v12.09zM457.438 708.367c-11.579-3.328-20.016-7.406-25.313-12.234-5.25-4.875-7.875-10.875-7.875-18 0-8.063 3.211-14.719 9.633-19.969 6.469-5.297 14.859-7.945 25.172-7.945 7.031 0 13.289 1.359 18.773 4.078 5.531 2.719 9.797 6.469 12.797 11.25 3.047 4.781 4.57 10.008 4.57 15.68h-13.57c0-6.188-1.969-11.039-5.906-14.555-3.938-3.563-9.492-5.344-16.664-5.344-6.657 0-11.86 1.477-15.61 4.43-3.703 2.906-5.554 6.961-5.554 12.164 0 4.172 1.757 7.711 5.273 10.617 3.563 2.859 9.586 5.484 18.07 7.875 8.532 2.391 15.188 5.039 19.969 7.945 4.828 2.86 8.391 6.211 10.688 10.055 2.343 3.844 3.515 8.367 3.515 13.57 0 8.297-3.234 14.954-9.703 19.969-6.469 4.969-15.117 7.453-25.945 7.453-7.031 0-13.594-1.336-19.688-4.008-6.093-2.718-10.804-6.421-14.132-11.109-3.282-4.687-4.922-10.008-4.922-15.961h13.57c0 6.188 2.273 11.086 6.82 14.695 4.594 3.563 10.711 5.344 18.352 5.344 7.125 0 12.586-1.453 16.383-4.359 3.797-2.906 5.695-6.867 5.695-11.883 0-5.016-1.758-8.883-5.274-11.602-3.515-2.765-9.89-5.484-19.124-8.156zm100.265 38.11c-5.062 5.953-12.492 8.929-22.289 8.929-8.109 0-14.297-2.344-18.562-7.031-4.219-4.734-6.352-11.719-6.399-20.953v-49.5h13.008v49.148c0 11.532 4.687 17.297 14.062 17.297 9.938 0 16.547-3.703 19.829-11.109v-55.336h13.007V754h-12.375l-.281-7.523zm44.789-68.555l.422 9.562c5.813-7.312 13.406-10.968 22.781-10.968 16.078 0 24.188 9.07 24.328 27.211V754h-13.007v-50.344c-.047-5.484-1.313-9.539-3.797-12.164-2.438-2.625-6.258-3.937-11.461-3.937-4.219 0-7.922 1.125-11.11 3.375-3.187 2.25-5.671 5.203-7.453 8.859V754h-13.007v-76.078h12.304zm180.211 43.594c-1.265 10.828-5.273 19.195-12.023 25.101-6.703 5.86-15.633 8.789-26.789 8.789-12.094 0-21.797-4.336-29.11-13.008-7.265-8.671-10.898-20.273-10.898-34.804v-9.844c0-9.516 1.687-17.883 5.062-25.102 3.422-7.218 8.25-12.75 14.485-16.593 6.234-3.891 13.453-5.836 21.656-5.836 10.875 0 19.594 3.047 26.156 9.14 6.563 6.047 10.383 14.438 11.461 25.172h-13.57c-1.172-8.156-3.727-14.062-7.664-17.719-3.891-3.656-9.352-5.484-16.383-5.484-8.625 0-15.398 3.188-20.32 9.563-4.875 6.375-7.313 15.445-7.313 27.211v9.914c0 11.109 2.32 19.945 6.961 26.507 4.641 6.563 11.133 9.844 19.477 9.844 7.5 0 13.242-1.687 17.226-5.062 4.031-3.422 6.703-9.352 8.016-17.789h13.57zm13.008-6.258c0-7.453 1.453-14.156 4.359-20.11 2.953-5.953 7.032-10.546 12.235-13.781 5.25-3.234 11.226-4.851 17.929-4.851 10.36 0 18.727 3.586 25.102 10.757 6.422 7.172 9.633 16.711 9.633 28.618v.914c0 7.406-1.43 14.062-4.289 19.968-2.813 5.86-6.868 10.43-12.164 13.711-5.25 3.282-11.297 4.922-18.141 4.922-10.313 0-18.68-3.586-25.102-10.758-6.375-7.171-9.562-16.664-9.562-28.476v-.914zm13.078 1.547c0 8.437 1.945 15.211 5.836 20.32 3.937 5.109 9.187 7.664 15.75 7.664 6.609 0 11.859-2.578 15.75-7.734 3.891-5.203 5.836-12.469 5.836-21.797 0-8.344-1.992-15.094-5.977-20.25-3.937-5.203-9.187-7.805-15.75-7.805-6.422 0-11.601 2.555-15.539 7.664-3.937 5.11-5.906 12.422-5.906 21.938zm119.461 29.672c-5.062 5.953-12.492 8.929-22.289 8.929-8.109 0-14.297-2.344-18.563-7.031-4.218-4.734-6.351-11.719-6.398-20.953v-49.5h13.008v49.148c0 11.532 4.687 17.297 14.062 17.297 9.938 0 16.547-3.703 19.828-11.109v-55.336h13.008V754h-12.375l-.281-7.523zm44.789-68.555l.422 9.562c5.812-7.312 13.406-10.968 22.781-10.968 16.078 0 24.188 9.07 24.328 27.211V754h-13.01v-50.344c-.04-5.484-1.31-9.539-3.79-12.164-2.44-2.625-6.262-3.937-11.465-3.937-4.219 0-7.922 1.125-11.11 3.375-3.187 2.25-5.672 5.203-7.453 8.859V754h-13.008v-76.078h12.305zm84.801-18.422v18.422h14.2v10.055h-14.2v47.179c0 3.047.63 5.344 1.89 6.891 1.27 1.5 3.43 2.25 6.47 2.25 1.5 0 3.57-.281 6.19-.844V754c-3.42.938-6.75 1.406-9.98 1.406-5.82 0-10.2-1.758-13.15-5.273-2.96-3.516-4.43-8.508-4.43-14.977v-47.179h-13.85v-10.055h13.85V659.5h13.01zm61.03 95.906c-10.32 0-18.71-3.375-25.17-10.125-6.47-6.797-9.71-15.867-9.71-27.211v-2.39c0-7.547 1.43-14.274 4.29-20.18 2.91-5.953 6.94-10.594 12.1-13.922 5.2-3.375 10.82-5.062 16.87-5.062 9.89 0 17.58 3.257 23.06 9.773 5.49 6.516 8.23 15.844 8.23 27.984v5.415H1097c.19 7.5 2.37 13.57 6.54 18.21 4.22 4.594 9.56 6.891 16.03 6.891 4.59 0 8.48-.937 11.67-2.812 3.19-1.875 5.98-4.36 8.37-7.454l7.94 6.188c-6.37 9.797-15.93 14.695-28.68 14.695zm-1.62-68.203c-5.25 0-9.66 1.922-13.22 5.766-3.56 3.797-5.76 9.14-6.61 16.031h38.11v-.984c-.37-6.61-2.15-11.719-5.34-15.328-3.19-3.657-7.5-5.485-12.94-5.485zm83.18 2.391c-1.97-.328-4.1-.492-6.4-.492-8.53 0-14.32 3.632-17.37 10.898v54h-13v-76.078h12.65l.21 8.789c4.27-6.797 10.32-10.195 18.14-10.195 2.54 0 4.46.328 5.77.984v12.094zM499.352 1081.73h-32.907V1173h-13.429v-91.27H420.18v-11.11h79.172v11.11zm27.281 91.27h-13.008v-76.08h13.008V1173zm-14.063-96.26c0-2.11.633-3.89 1.899-5.34 1.312-1.45 3.234-2.18 5.765-2.18 2.532 0 4.454.73 5.766 2.18 1.312 1.45 1.969 3.23 1.969 5.34s-.657 3.87-1.969 5.28c-1.312 1.4-3.234 2.1-5.766 2.1-2.531 0-4.453-.7-5.765-2.1-1.266-1.41-1.899-3.17-1.899-5.28zm66.516 97.67c-10.313 0-18.703-3.38-25.172-10.13-6.469-6.8-9.703-15.87-9.703-27.21v-2.39c0-7.55 1.43-14.27 4.289-20.18 2.906-5.95 6.938-10.59 12.094-13.92 5.203-3.38 10.828-5.06 16.875-5.06 9.89 0 17.578 3.25 23.062 9.77 5.485 6.51 8.227 15.84 8.227 27.98v5.42h-51.539c.187 7.5 2.367 13.57 6.539 18.21 4.219 4.59 9.562 6.89 16.031 6.89 4.594 0 8.484-.94 11.672-2.81 3.187-1.88 5.977-4.36 8.367-7.46l7.945 6.19c-6.375 9.8-15.937 14.7-28.687 14.7zm-1.617-68.21c-5.25 0-9.657 1.92-13.219 5.77-3.562 3.8-5.766 9.14-6.609 16.03h38.109v-.98c-.375-6.61-2.156-11.72-5.344-15.33-3.187-3.66-7.5-5.49-12.937-5.49zm58.64-9.28l.352 8.44c5.578-6.56 13.101-9.84 22.57-9.84 10.641 0 17.883 4.07 21.727 12.23 2.531-3.66 5.812-6.61 9.844-8.86 4.078-2.25 8.882-3.37 14.414-3.37 16.687 0 25.172 8.83 25.453 26.5V1173h-13.008v-50.2c0-5.44-1.242-9.5-3.727-12.17-2.484-2.72-6.656-4.08-12.515-4.08-4.828 0-8.836 1.46-12.024 4.36-3.187 2.86-5.039 6.73-5.554 11.61V1173h-13.079v-49.85c0-11.06-5.414-16.6-16.242-16.6-8.531 0-14.367 3.64-17.508 10.9V1173h-13.007v-76.08h12.304zm178.313 38.88c0 11.58-2.649 20.91-7.945 27.99-5.297 7.08-12.469 10.62-21.516 10.62-9.234 0-16.5-2.93-21.797-8.79v36.63h-13.008v-105.33h11.883l.633 8.44c5.297-6.56 12.656-9.84 22.078-9.84 9.141 0 16.359 3.44 21.656 10.33 5.344 6.89 8.016 16.48 8.016 28.76v1.19zm-13.008-1.47c0-8.58-1.828-15.35-5.484-20.32-3.657-4.97-8.672-7.46-15.047-7.46-7.875 0-13.781 3.5-17.719 10.48v36.35c3.891 6.94 9.844 10.41 17.859 10.41 6.235 0 11.18-2.46 14.836-7.38 3.703-4.97 5.555-12.33 5.555-22.08zm26.156-.07c0-7.46 1.453-14.16 4.36-20.11 2.953-5.95 7.031-10.55 12.234-13.78 5.25-3.24 11.227-4.85 17.93-4.85 10.359 0 18.726 3.58 25.101 10.75 6.422 7.18 9.633 16.71 9.633 28.62v.91c0 7.41-1.43 14.07-4.289 19.97-2.812 5.86-6.867 10.43-12.164 13.71-5.25 3.29-11.297 4.93-18.141 4.93-10.312 0-18.679-3.59-25.101-10.76-6.375-7.17-9.563-16.67-9.563-28.48v-.91zm13.078 1.54c0 8.44 1.946 15.22 5.836 20.32 3.938 5.11 9.188 7.67 15.75 7.67 6.61 0 11.86-2.58 15.75-7.74 3.891-5.2 5.836-12.46 5.836-21.79 0-8.35-1.992-15.1-5.976-20.25-3.938-5.21-9.188-7.81-15.75-7.81-6.422 0-11.602 2.56-15.539 7.67-3.938 5.11-5.907 12.42-5.907 21.93zm105.047-1.47c0-11.67 2.766-21.05 8.297-28.13 5.531-7.12 12.774-10.68 21.727-10.68 8.906 0 15.961 3.04 21.164 9.14V1065h13.007v108h-11.952l-.633-8.16c-5.203 6.38-12.446 9.57-21.727 9.57-8.812 0-16.008-3.61-21.586-10.83-5.531-7.22-8.297-16.64-8.297-28.27v-.98zm13.008 1.47c0 8.63 1.781 15.38 5.344 20.25 3.562 4.88 8.484 7.32 14.765 7.32 8.25 0 14.274-3.71 18.071-11.11v-34.95c-3.891-7.17-9.867-10.76-17.93-10.76-6.375 0-11.344 2.47-14.906 7.39-3.563 4.92-5.344 12.21-5.344 21.86zm103.007 38.61c-10.31 0-18.7-3.38-25.17-10.13-6.47-6.8-9.7-15.87-9.7-27.21v-2.39c0-7.55 1.43-14.27 4.28-20.18 2.91-5.95 6.94-10.59 12.1-13.92 5.2-3.38 10.83-5.06 16.87-5.06 9.89 0 17.58 3.25 23.07 9.77 5.48 6.51 8.22 15.84 8.22 27.98v5.42h-51.54c.19 7.5 2.37 13.57 6.54 18.21 4.22 4.59 9.57 6.89 16.03 6.89 4.6 0 8.49-.94 11.68-2.81 3.18-1.88 5.97-4.36 8.36-7.46l7.95 6.19c-6.38 9.8-15.94 14.7-28.69 14.7zm-1.62-68.21c-5.25 0-9.65 1.92-13.21 5.77-3.57 3.8-5.77 9.14-6.61 16.03h38.11v-.98c-.38-6.61-2.16-11.72-5.35-15.33-3.19-3.66-7.5-5.49-12.94-5.49zm79.03 28.13c0-11.86 2.75-21.28 8.23-28.27 5.49-7.03 12.75-10.54 21.8-10.54 9.28 0 16.52 3.28 21.73 9.84l.63-8.44h11.88v74.25c0 9.85-2.93 17.6-8.79 23.28-5.81 5.67-13.64 8.5-23.48 8.5-5.49 0-10.85-1.17-16.1-3.51-5.25-2.35-9.26-5.56-12.03-9.64l6.75-7.8c5.58 6.89 12.4 10.34 20.46 10.34 6.33 0 11.25-1.79 14.77-5.35 3.56-3.56 5.34-8.58 5.34-15.04v-6.54c-5.2 6-12.3 9-21.3 9-8.91 0-16.13-3.59-21.66-10.76-5.48-7.17-8.23-16.95-8.23-29.32zm13.08 1.47c0 8.58 1.76 15.33 5.28 20.25 3.51 4.88 8.43 7.32 14.76 7.32 8.21 0 14.23-3.73 18.07-11.18v-34.74c-3.98-7.26-9.96-10.9-17.93-10.9-6.33 0-11.27 2.47-14.83 7.39-3.57 4.92-5.35 12.21-5.35 21.86zm107.65-27.21c-1.97-.32-4.1-.49-6.4-.49-8.53 0-14.32 3.63-17.36 10.9v54h-13.01v-76.08h12.65l.22 8.79c4.26-6.8 10.31-10.19 18.14-10.19 2.53 0 4.45.32 5.76.98v12.09zm56.18 64.41c-.75-1.5-1.36-4.17-1.83-8.02-6.04 6.29-13.26 9.43-21.65 9.43-7.5 0-13.67-2.11-18.5-6.33-4.78-4.27-7.17-9.66-7.17-16.17 0-7.93 3-14.07 9-18.43 6.05-4.4 14.53-6.6 25.46-6.6h12.65v-5.98c0-4.55-1.36-8.16-4.08-10.83-2.71-2.72-6.72-4.08-12.02-4.08-4.64 0-8.53 1.17-11.67 3.52-3.14 2.34-4.71 5.18-4.71 8.51h-13.08c0-3.8 1.34-7.46 4.01-10.97 2.72-3.57 6.37-6.38 10.97-8.44 4.64-2.06 9.72-3.09 15.25-3.09 8.77 0 15.64 2.2 20.61 6.6 4.96 4.36 7.54 10.39 7.73 18.08v35.01c0 6.99.89 12.54 2.67 16.67v1.12h-13.64zm-21.58-9.91c4.07 0 7.94-1.06 11.6-3.17 3.65-2.11 6.3-4.85 7.94-8.22v-15.61h-10.19c-15.94 0-23.91 4.66-23.91 13.99 0 4.08 1.36 7.26 4.08 9.56 2.72 2.3 6.21 3.45 10.48 3.45zm83.46.7c4.64 0 8.69-1.41 12.16-4.22 3.47-2.81 5.39-6.33 5.77-10.55h12.3c-.23 4.36-1.73 8.51-4.5 12.45-2.76 3.94-6.47 7.08-11.11 9.42-4.59 2.34-9.47 3.52-14.62 3.52-10.36 0-18.61-3.45-24.75-10.34-6.1-6.94-9.14-16.41-9.14-28.41v-2.18c0-7.4 1.36-13.99 4.07-19.75 2.72-5.77 6.61-10.25 11.68-13.43 5.11-3.19 11.13-4.78 18.07-4.78 8.53 0 15.61 2.55 21.23 7.66 5.67 5.11 8.7 11.74 9.07 19.9h-12.3c-.38-4.92-2.25-8.96-5.63-12.1-3.33-3.18-7.45-4.78-12.37-4.78-6.61 0-11.75 2.39-15.4 7.18-3.61 4.73-5.42 11.6-5.42 20.6v2.46c0 8.76 1.81 15.51 5.42 20.25 3.61 4.73 8.76 7.1 15.47 7.1zm58.99 9.21h-13.01v-76.08h13.01V1173zm-14.06-96.26c0-2.11.63-3.89 1.89-5.34 1.32-1.45 3.24-2.18 5.77-2.18 2.53 0 4.45.73 5.77 2.18 1.31 1.45 1.96 3.23 1.96 5.34s-.65 3.87-1.96 5.28c-1.32 1.4-3.24 2.1-5.77 2.1-2.53 0-4.45-.7-5.77-2.1-1.26-1.41-1.89-3.17-1.89-5.28zm81.91 96.26c-.75-1.5-1.36-4.17-1.83-8.02-6.04 6.29-13.26 9.43-21.65 9.43-7.5 0-13.67-2.11-18.5-6.33-4.78-4.27-7.17-9.66-7.17-16.17 0-7.93 3-14.07 9-18.43 6.05-4.4 14.53-6.6 25.45-6.6h12.66v-5.98c0-4.55-1.36-8.16-4.08-10.83-2.72-2.72-6.72-4.08-12.02-4.08-4.64 0-8.53 1.17-11.67 3.52-3.14 2.34-4.71 5.18-4.71 8.51h-13.08c0-3.8 1.33-7.46 4.01-10.97 2.72-3.57 6.37-6.38 10.96-8.44 4.65-2.06 9.73-3.09 15.26-3.09 8.77 0 15.64 2.2 20.6 6.6 4.97 4.36 7.55 10.39 7.74 18.08v35.01c0 6.99.89 12.54 2.67 16.67v1.12h-13.64zm-21.59-9.91c4.08 0 7.95-1.06 11.61-3.17 3.65-2.11 6.3-4.85 7.94-8.22v-15.61h-10.19c-15.94 0-23.91 4.66-23.91 13.99 0 4.08 1.36 7.26 4.08 9.56 2.72 2.3 6.21 3.45 10.47 3.45zM492.391 1304.8c0 11.58-2.649 20.91-7.946 27.99-5.297 7.08-12.468 10.62-21.515 10.62-9.235 0-16.5-2.93-21.797-8.79v36.63h-13.008v-105.33h11.883l.633 8.44c5.297-6.56 12.656-9.84 22.078-9.84 9.14 0 16.359 3.44 21.656 10.33 5.344 6.89 8.016 16.48 8.016 28.76v1.19zm-13.008-1.47c0-8.58-1.828-15.35-5.485-20.32-3.656-4.97-8.671-7.46-15.046-7.46-7.875 0-13.782 3.5-17.719 10.48v36.35c3.89 6.94 9.844 10.41 17.859 10.41 6.235 0 11.18-2.46 14.836-7.38 3.703-4.97 5.555-12.33 5.555-22.08zm76.57 38.67c-.75-1.5-1.359-4.17-1.828-8.02-6.047 6.29-13.266 9.43-21.656 9.43-7.5 0-13.664-2.11-18.492-6.33-4.782-4.27-7.172-9.66-7.172-16.17 0-7.93 3-14.07 9-18.43 6.047-4.4 14.531-6.6 25.453-6.6h12.656v-5.98c0-4.55-1.359-8.16-4.078-10.83-2.719-2.72-6.727-4.08-12.024-4.08-4.64 0-8.531 1.17-11.671 3.52-3.141 2.34-4.711 5.18-4.711 8.51h-13.078c0-3.8 1.336-7.46 4.007-10.97 2.719-3.57 6.375-6.38 10.969-8.44 4.641-2.06 9.727-3.09 15.258-3.09 8.766 0 15.633 2.2 20.602 6.6 4.968 4.36 7.546 10.39 7.734 18.08v35.01c0 6.99.89 12.54 2.672 16.67v1.12h-13.641zm-21.586-9.91c4.078 0 7.945-1.06 11.602-3.17 3.656-2.11 6.304-4.85 7.945-8.22v-15.61h-10.195c-15.938 0-23.907 4.66-23.907 13.99 0 4.08 1.36 7.26 4.079 9.56 2.718 2.3 6.211 3.45 10.476 3.45zm89.719-54.5c-1.969-.32-4.102-.49-6.398-.49-8.532 0-14.321 3.63-17.368 10.9v54h-13.008v-76.08h12.657l.211 8.79c4.265-6.8 10.312-10.19 18.14-10.19 2.532 0 4.453.32 5.766.98v12.09zm56.18 64.41c-.75-1.5-1.36-4.17-1.828-8.02-6.047 6.29-13.266 9.43-21.657 9.43-7.5 0-13.664-2.11-18.492-6.33-4.781-4.27-7.172-9.66-7.172-16.17 0-7.93 3-14.07 9-18.43 6.047-4.4 14.531-6.6 25.453-6.6h12.657v-5.98c0-4.55-1.36-8.16-4.079-10.83-2.718-2.72-6.726-4.08-12.023-4.08-4.641 0-8.531 1.17-11.672 3.52-3.141 2.34-4.711 5.18-4.711 8.51h-13.078c0-3.8 1.336-7.46 4.008-10.97 2.719-3.57 6.375-6.38 10.969-8.44 4.64-2.06 9.726-3.09 15.257-3.09 8.766 0 15.633 2.2 20.602 6.6 4.969 4.36 7.547 10.39 7.734 18.08v35.01c0 6.99.891 12.54 2.672 16.67v1.12h-13.64zm-21.586-9.91c4.078 0 7.945-1.06 11.601-3.17 3.657-2.11 6.305-4.85 7.946-8.22v-15.61h-10.196c-15.937 0-23.906 4.66-23.906 13.99 0 4.08 1.359 7.26 4.078 9.56 2.719 2.3 6.211 3.45 10.477 3.45zm120.867-35.72c-11.578-3.33-20.016-7.41-25.313-12.24-5.25-4.87-7.875-10.87-7.875-18 0-8.06 3.211-14.72 9.633-19.97 6.469-5.29 14.86-7.94 25.172-7.94 7.031 0 13.289 1.36 18.774 4.08 5.531 2.72 9.796 6.47 12.796 11.25 3.047 4.78 4.571 10 4.571 15.68h-13.571c0-6.19-1.968-11.04-5.906-14.56-3.937-3.56-9.492-5.34-16.664-5.34-6.656 0-11.859 1.47-15.609 4.43-3.703 2.9-5.555 6.96-5.555 12.16 0 4.17 1.758 7.71 5.273 10.62 3.563 2.86 9.586 5.48 18.071 7.87 8.531 2.39 15.187 5.04 19.968 7.95 4.829 2.86 8.391 6.21 10.688 10.05 2.344 3.85 3.516 8.37 3.516 13.57 0 8.3-3.235 14.96-9.704 19.97-6.468 4.97-15.117 7.46-25.945 7.46-7.031 0-13.594-1.34-19.687-4.01-6.094-2.72-10.805-6.42-14.133-11.11-3.281-4.69-4.922-10.01-4.922-15.96h13.57c0 6.19 2.274 11.08 6.821 14.69 4.593 3.57 10.711 5.35 18.351 5.35 7.125 0 12.586-1.46 16.383-4.36 3.797-2.91 5.695-6.87 5.695-11.89 0-5.01-1.757-8.88-5.273-11.6-3.516-2.76-9.891-5.48-19.125-8.15zm100.265 38.11c-5.062 5.95-12.492 8.93-22.289 8.93-8.109 0-14.296-2.35-18.562-7.03-4.219-4.74-6.352-11.72-6.399-20.96v-49.5h13.008v49.15c0 11.53 4.688 17.3 14.063 17.3 9.937 0 16.547-3.71 19.828-11.11v-55.34h13.008V1342h-12.375l-.282-7.52zm44.79-68.56l.421 9.56c5.813-7.31 13.407-10.96 22.782-10.96 16.078 0 24.187 9.07 24.328 27.21V1342h-13.008v-50.34c-.047-5.49-1.313-9.54-3.797-12.17-2.437-2.62-6.258-3.94-11.461-3.94-4.219 0-7.922 1.13-11.109 3.38-3.188 2.25-5.672 5.2-7.453 8.86V1342h-13.008v-76.08h12.305zm180.208 43.6c-1.26 10.82-5.27 19.19-12.02 25.1-6.7 5.86-15.63 8.79-26.79 8.79-12.09 0-21.8-4.34-29.11-13.01-7.27-8.67-10.9-20.28-10.9-34.81v-9.84c0-9.52 1.69-17.88 5.06-25.1 3.43-7.22 8.25-12.75 14.49-16.6 6.23-3.89 13.45-5.83 21.66-5.83 10.87 0 19.59 3.05 26.15 9.14 6.56 6.05 10.38 14.44 11.46 25.17h-13.57c-1.17-8.15-3.72-14.06-7.66-17.72-3.89-3.65-9.35-5.48-16.38-5.48-8.63 0-15.4 3.19-20.32 9.56-4.88 6.38-7.32 15.45-7.32 27.21v9.92c0 11.1 2.32 19.94 6.96 26.5 4.64 6.57 11.14 9.85 19.48 9.85 7.5 0 13.24-1.69 17.23-5.07 4.03-3.42 6.7-9.35 8.01-17.78h13.57zm13.01-6.26c0-7.46 1.45-14.16 4.36-20.11 2.95-5.95 7.03-10.55 12.23-13.78 5.25-3.24 11.23-4.85 17.93-4.85 10.36 0 18.73 3.58 25.11 10.75 6.42 7.18 9.63 16.71 9.63 28.62v.91c0 7.41-1.43 14.07-4.29 19.97-2.81 5.86-6.87 10.43-12.17 13.71-5.24 3.29-11.29 4.93-18.14 4.93-10.31 0-18.68-3.59-25.1-10.76-6.37-7.17-9.56-16.67-9.56-28.48v-.91zm13.08 1.54c0 8.44 1.94 15.22 5.83 20.32 3.94 5.11 9.19 7.67 15.75 7.67 6.61 0 11.86-2.58 15.75-7.74 3.89-5.2 5.84-12.46 5.84-21.79 0-8.35-1.99-15.1-5.98-20.25-3.93-5.21-9.18-7.81-15.75-7.81-6.42 0-11.6 2.56-15.54 7.67-3.93 5.11-5.9 12.42-5.9 21.93zm119.46 29.68c-5.06 5.95-12.49 8.93-22.29 8.93-8.11 0-14.3-2.35-18.56-7.03-4.22-4.74-6.35-11.72-6.4-20.96v-49.5h13.01v49.15c0 11.53 4.68 17.3 14.06 17.3 9.94 0 16.55-3.71 19.83-11.11v-55.34h13.01V1342h-12.38l-.28-7.52zm44.79-68.56l.42 9.56c5.81-7.31 13.41-10.96 22.78-10.96 16.08 0 24.19 9.07 24.33 27.21V1342h-13.01v-50.34c-.05-5.49-1.31-9.54-3.79-12.17-2.44-2.62-6.26-3.94-11.47-3.94-4.21 0-7.92 1.13-11.11 3.38-3.18 2.25-5.67 5.2-7.45 8.86V1342h-13.01v-76.08h12.31zm84.8-18.42v18.42h14.2v10.06h-14.2v47.18c0 3.04.63 5.34 1.89 6.89 1.27 1.5 3.43 2.25 6.47 2.25 1.5 0 3.57-.28 6.19-.85V1342c-3.42.94-6.75 1.41-9.98 1.41-5.82 0-10.2-1.76-13.15-5.28-2.96-3.51-4.43-8.51-4.43-14.97v-47.18h-13.85v-10.06h13.85v-18.42h13.01zm61.03 95.91c-10.32 0-18.71-3.38-25.18-10.13-6.46-6.8-9.7-15.87-9.7-27.21v-2.39c0-7.55 1.43-14.27 4.29-20.18 2.91-5.95 6.94-10.59 12.09-13.92 5.21-3.38 10.83-5.06 16.88-5.06 9.89 0 17.58 3.25 23.06 9.77 5.49 6.51 8.23 15.84 8.23 27.98v5.42h-51.54c.19 7.5 2.37 13.57 6.54 18.21 4.22 4.59 9.56 6.89 16.03 6.89 4.59 0 8.48-.94 11.67-2.81 3.19-1.88 5.98-4.36 8.37-7.46l7.94 6.19c-6.37 9.8-15.93 14.7-28.68 14.7zm-1.62-68.21c-5.25 0-9.66 1.92-13.22 5.77-3.56 3.8-5.76 9.14-6.61 16.03h38.11v-.98c-.37-6.61-2.16-11.72-5.34-15.33-3.19-3.66-7.5-5.49-12.94-5.49zm83.18 2.39c-1.97-.32-4.1-.49-6.4-.49-8.53 0-14.32 3.63-17.37 10.9v54h-13v-76.08h12.65l.21 8.79c4.27-6.8 10.32-10.19 18.14-10.19 2.53 0 4.46.32 5.77.98v12.09zM470.352 1467.73h-32.907V1559h-13.429v-91.27H391.18v-11.11h79.172v11.11zm27.281 91.27h-13.008v-76.08h13.008V1559zm-14.063-96.26c0-2.11.633-3.89 1.899-5.34 1.312-1.45 3.234-2.18 5.765-2.18 2.532 0 4.454.73 5.766 2.18 1.312 1.45 1.969 3.23 1.969 5.34s-.657 3.87-1.969 5.28c-1.312 1.4-3.234 2.1-5.766 2.1-2.531 0-4.453-.7-5.765-2.1-1.266-1.41-1.899-3.17-1.899-5.28zm66.516 97.67c-10.313 0-18.703-3.38-25.172-10.13-6.469-6.8-9.703-15.87-9.703-27.21v-2.39c0-7.55 1.43-14.27 4.289-20.18 2.906-5.95 6.938-10.59 12.094-13.92 5.203-3.38 10.828-5.06 16.875-5.06 9.89 0 17.578 3.25 23.062 9.77 5.485 6.51 8.227 15.84 8.227 27.98v5.42h-51.539c.187 7.5 2.367 13.57 6.539 18.21 4.219 4.59 9.562 6.89 16.031 6.89 4.594 0 8.484-.94 11.672-2.81 3.187-1.88 5.977-4.36 8.367-7.46l7.945 6.19c-6.375 9.8-15.937 14.7-28.687 14.7zm-1.617-68.21c-5.25 0-9.657 1.92-13.219 5.77-3.562 3.8-5.766 9.14-6.609 16.03h38.109v-.98c-.375-6.61-2.156-11.72-5.344-15.33-3.187-3.66-7.5-5.49-12.937-5.49zm58.64-9.28l.352 8.44c5.578-6.56 13.101-9.84 22.57-9.84 10.641 0 17.883 4.07 21.727 12.23 2.531-3.66 5.812-6.61 9.844-8.86 4.078-2.25 8.882-3.37 14.414-3.37 16.687 0 25.172 8.83 25.453 26.5V1559h-13.008v-50.2c0-5.44-1.242-9.5-3.727-12.17-2.484-2.72-6.656-4.08-12.515-4.08-4.828 0-8.836 1.46-12.024 4.36-3.187 2.86-5.039 6.73-5.554 11.61V1559h-13.079v-49.85c0-11.06-5.414-16.6-16.242-16.6-8.531 0-14.367 3.64-17.508 10.9V1559h-13.007v-76.08h12.304zm178.313 38.88c0 11.58-2.649 20.91-7.945 27.99-5.297 7.08-12.469 10.62-21.516 10.62-9.234 0-16.5-2.93-21.797-8.79v36.63h-13.008v-105.33h11.883l.633 8.44c5.297-6.56 12.656-9.84 22.078-9.84 9.141 0 16.359 3.44 21.656 10.33 5.344 6.89 8.016 16.48 8.016 28.76v1.19zm-13.008-1.47c0-8.58-1.828-15.35-5.484-20.32-3.657-4.97-8.672-7.46-15.047-7.46-7.875 0-13.781 3.5-17.719 10.48v36.35c3.891 6.94 9.844 10.41 17.859 10.41 6.235 0 11.18-2.46 14.836-7.38 3.703-4.97 5.555-12.33 5.555-22.08zm26.156-.07c0-7.46 1.453-14.16 4.36-20.11 2.953-5.95 7.031-10.55 12.234-13.78 5.25-3.24 11.227-4.85 17.93-4.85 10.359 0 18.726 3.58 25.101 10.75 6.422 7.18 9.633 16.71 9.633 28.62v.91c0 7.41-1.43 14.07-4.289 19.97-2.812 5.86-6.867 10.43-12.164 13.71-5.25 3.29-11.297 4.93-18.141 4.93-10.312 0-18.679-3.59-25.101-10.76-6.375-7.17-9.563-16.67-9.563-28.48v-.91zm13.078 1.54c0 8.44 1.946 15.22 5.836 20.32 3.938 5.11 9.188 7.67 15.75 7.67 6.61 0 11.86-2.58 15.75-7.74 3.891-5.2 5.836-12.46 5.836-21.79 0-8.35-1.992-15.1-5.976-20.25-3.938-5.21-9.188-7.81-15.75-7.81-6.422 0-11.602 2.56-15.539 7.67-3.938 5.11-5.907 12.42-5.907 21.93zm105.047-1.47c0-11.67 2.766-21.05 8.297-28.13 5.531-7.12 12.774-10.68 21.727-10.68 8.906 0 15.961 3.04 21.164 9.14V1451h13.008v108h-11.953l-.633-8.16c-5.203 6.38-12.446 9.57-21.727 9.57-8.812 0-16.008-3.61-21.586-10.83-5.531-7.22-8.297-16.64-8.297-28.27v-.98zm13.008 1.47c0 8.63 1.781 15.38 5.344 20.25 3.562 4.88 8.484 7.32 14.765 7.32 8.25 0 14.274-3.71 18.071-11.11v-34.95c-3.891-7.17-9.867-10.76-17.93-10.76-6.375 0-11.344 2.47-14.906 7.39-3.563 4.92-5.344 12.21-5.344 21.86zm103.007 38.61c-10.31 0-18.7-3.38-25.17-10.13-6.47-6.8-9.704-15.87-9.704-27.21v-2.39c0-7.55 1.43-14.27 4.284-20.18 2.91-5.95 6.94-10.59 12.1-13.92 5.2-3.38 10.83-5.06 16.87-5.06 9.89 0 17.58 3.25 23.07 9.77 5.48 6.51 8.22 15.84 8.22 27.98v5.42h-51.54c.19 7.5 2.37 13.57 6.54 18.21 4.22 4.59 9.57 6.89 16.03 6.89 4.6 0 8.49-.94 11.68-2.81 3.18-1.88 5.97-4.36 8.36-7.46l7.95 6.19c-6.38 9.8-15.94 14.7-28.69 14.7zm-1.62-68.21c-5.25 0-9.65 1.92-13.21 5.77-3.57 3.8-5.77 9.14-6.61 16.03h38.11v-.98c-.38-6.61-2.16-11.72-5.35-15.33-3.19-3.66-7.5-5.49-12.94-5.49zm79.03 28.13c0-11.86 2.75-21.28 8.23-28.27 5.49-7.03 12.75-10.54 21.8-10.54 9.28 0 16.52 3.28 21.73 9.84l.63-8.44h11.88v74.25c0 9.85-2.93 17.6-8.79 23.28-5.81 5.67-13.64 8.5-23.48 8.5-5.49 0-10.85-1.17-16.1-3.51-5.25-2.35-9.26-5.56-12.03-9.64l6.75-7.8c5.58 6.89 12.4 10.34 20.46 10.34 6.33 0 11.25-1.79 14.77-5.35 3.56-3.56 5.34-8.58 5.34-15.04v-6.54c-5.2 6-12.3 9-21.3 9-8.91 0-16.13-3.59-21.66-10.76-5.48-7.17-8.23-16.95-8.23-29.32zm13.08 1.47c0 8.58 1.76 15.33 5.28 20.25 3.51 4.88 8.43 7.32 14.76 7.32 8.21 0 14.23-3.73 18.07-11.18v-34.74c-3.98-7.26-9.96-10.9-17.93-10.9-6.33 0-11.27 2.47-14.83 7.39-3.57 4.92-5.35 12.21-5.35 21.86zm107.65-27.21c-1.97-.32-4.1-.49-6.4-.49-8.53 0-14.32 3.63-17.36 10.9v54h-13.01v-76.08h12.65l.22 8.79c4.26-6.8 10.31-10.19 18.14-10.19 2.53 0 4.45.32 5.76.98v12.09zm56.18 64.41c-.75-1.5-1.36-4.17-1.83-8.02-6.04 6.29-13.26 9.43-21.65 9.43-7.5 0-13.67-2.11-18.5-6.33-4.78-4.27-7.17-9.66-7.17-16.17 0-7.93 3-14.07 9-18.43 6.05-4.4 14.53-6.6 25.46-6.6h12.65v-5.98c0-4.55-1.36-8.16-4.08-10.83-2.71-2.72-6.72-4.08-12.02-4.08-4.64 0-8.53 1.17-11.67 3.52-3.14 2.34-4.71 5.18-4.71 8.51h-13.08c0-3.8 1.34-7.46 4.01-10.97 2.72-3.57 6.37-6.38 10.97-8.44 4.64-2.06 9.72-3.09 15.25-3.09 8.77 0 15.64 2.2 20.61 6.6 4.96 4.36 7.54 10.39 7.73 18.08v35.01c0 6.99.89 12.54 2.67 16.67v1.12h-13.64zm-21.58-9.91c4.07 0 7.94-1.06 11.6-3.17 3.65-2.11 6.3-4.85 7.94-8.22v-15.61h-10.19c-15.94 0-23.91 4.66-23.91 13.99 0 4.08 1.36 7.26 4.08 9.56 2.72 2.3 6.21 3.45 10.48 3.45zm83.46.7c4.64 0 8.69-1.41 12.16-4.22 3.47-2.81 5.39-6.33 5.77-10.55h12.3c-.23 4.36-1.73 8.51-4.5 12.45-2.76 3.94-6.47 7.08-11.11 9.42-4.59 2.34-9.47 3.52-14.62 3.52-10.36 0-18.61-3.45-24.75-10.34-6.1-6.94-9.14-16.41-9.14-28.41v-2.18c0-7.4 1.36-13.99 4.07-19.75 2.72-5.77 6.61-10.25 11.68-13.43 5.11-3.19 11.13-4.78 18.07-4.78 8.53 0 15.61 2.55 21.23 7.66 5.67 5.11 8.7 11.74 9.07 19.9h-12.3c-.38-4.92-2.25-8.96-5.63-12.1-3.33-3.18-7.45-4.78-12.37-4.78-6.61 0-11.75 2.39-15.4 7.18-3.61 4.73-5.42 11.6-5.42 20.6v2.46c0 8.76 1.81 15.51 5.42 20.25 3.61 4.73 8.76 7.1 15.47 7.1zm58.99 9.21h-13.01v-76.08h13.01V1559zm-14.06-96.26c0-2.11.63-3.89 1.89-5.34 1.32-1.45 3.24-2.18 5.77-2.18 2.53 0 4.45.73 5.77 2.18 1.31 1.45 1.96 3.23 1.96 5.34s-.65 3.87-1.96 5.28c-1.32 1.4-3.24 2.1-5.77 2.1-2.53 0-4.45-.7-5.77-2.1-1.26-1.41-1.89-3.17-1.89-5.28zm81.91 96.26c-.75-1.5-1.36-4.17-1.83-8.02-6.04 6.29-13.26 9.43-21.65 9.43-7.5 0-13.67-2.11-18.5-6.33-4.78-4.27-7.17-9.66-7.17-16.17 0-7.93 3-14.07 9-18.43 6.05-4.4 14.53-6.6 25.45-6.6h12.66v-5.98c0-4.55-1.36-8.16-4.08-10.83-2.72-2.72-6.72-4.08-12.02-4.08-4.64 0-8.53 1.17-11.67 3.52-3.14 2.34-4.71 5.18-4.71 8.51h-13.08c0-3.8 1.33-7.46 4.01-10.97 2.72-3.57 6.37-6.38 10.96-8.44 4.65-2.06 9.73-3.09 15.26-3.09 8.77 0 15.64 2.2 20.6 6.6 4.97 4.36 7.55 10.39 7.74 18.08v35.01c0 6.99.89 12.54 2.67 16.67v1.12h-13.64zm-21.59-9.91c4.08 0 7.95-1.06 11.61-3.17 3.65-2.11 6.3-4.85 7.94-8.22v-15.61h-10.19c-15.94 0-23.91 4.66-23.91 13.99 0 4.08 1.36 7.26 4.08 9.56 2.72 2.3 6.21 3.45 10.47 3.45zM494.328 1690.8c0 11.58-2.648 20.91-7.945 27.99-5.297 7.08-12.469 10.62-21.516 10.62-9.234 0-16.5-2.93-21.797-8.79v36.63h-13.008v-105.33h11.883l.633 8.44c5.297-6.56 12.656-9.84 22.078-9.84 9.141 0 16.36 3.44 21.656 10.33 5.344 6.89 8.016 16.48 8.016 28.76v1.19zm-13.008-1.47c0-8.58-1.828-15.35-5.484-20.32-3.656-4.97-8.672-7.46-15.047-7.46-7.875 0-13.781 3.5-17.719 10.48v36.35c3.891 6.94 9.844 10.41 17.86 10.41 6.234 0 11.179-2.46 14.836-7.38 3.703-4.97 5.554-12.33 5.554-22.08zm76.571 38.67c-.75-1.5-1.36-4.17-1.829-8.02-6.046 6.29-13.265 9.43-21.656 9.43-7.5 0-13.664-2.11-18.492-6.33-4.781-4.27-7.172-9.66-7.172-16.17 0-7.93 3-14.07 9-18.43 6.047-4.4 14.531-6.6 25.453-6.6h12.657v-5.98c0-4.55-1.36-8.16-4.079-10.83-2.718-2.72-6.726-4.08-12.023-4.08-4.641 0-8.531 1.17-11.672 3.52-3.14 2.34-4.711 5.18-4.711 8.51h-13.078c0-3.8 1.336-7.46 4.008-10.97 2.719-3.57 6.375-6.38 10.969-8.44 4.64-2.06 9.726-3.09 15.257-3.09 8.766 0 15.633 2.2 20.602 6.6 4.969 4.36 7.547 10.39 7.734 18.08v35.01c0 6.99.891 12.54 2.672 16.67v1.12h-13.64zm-21.586-9.91c4.078 0 7.945-1.06 11.601-3.17 3.656-2.11 6.305-4.85 7.946-8.22v-15.61h-10.196c-15.937 0-23.906 4.66-23.906 13.99 0 4.08 1.359 7.26 4.078 9.56 2.719 2.3 6.211 3.45 10.477 3.45zm89.718-54.5c-1.968-.32-4.101-.49-6.398-.49-8.531 0-14.32 3.63-17.367 10.9v54H589.25v-76.08h12.656l.211 8.79c4.266-6.8 10.313-10.19 18.141-10.19 2.531 0 4.453.32 5.765.98v12.09zm56.18 64.41c-.75-1.5-1.359-4.17-1.828-8.02-6.047 6.29-13.266 9.43-21.656 9.43-7.5 0-13.664-2.11-18.492-6.33-4.782-4.27-7.172-9.66-7.172-16.17 0-7.93 3-14.07 9-18.43 6.047-4.4 14.531-6.6 25.453-6.6h12.656v-5.98c0-4.55-1.359-8.16-4.078-10.83-2.719-2.72-6.727-4.08-12.024-4.08-4.64 0-8.531 1.17-11.671 3.52-3.141 2.34-4.711 5.18-4.711 8.51h-13.078c0-3.8 1.336-7.46 4.007-10.97 2.719-3.57 6.375-6.38 10.969-8.44 4.641-2.06 9.727-3.09 15.258-3.09 8.766 0 15.633 2.2 20.602 6.6 4.968 4.36 7.546 10.39 7.734 18.08v35.01c0 6.99.89 12.54 2.672 16.67v1.12h-13.641zm-21.586-9.91c4.078 0 7.945-1.06 11.602-3.17 3.656-2.11 6.304-4.85 7.945-8.22v-15.61h-10.195c-15.938 0-23.907 4.66-23.907 13.99 0 4.08 1.36 7.26 4.079 9.56 2.718 2.3 6.211 3.45 10.476 3.45zm120.867-35.72c-11.578-3.33-20.015-7.41-25.312-12.24-5.25-4.87-7.875-10.87-7.875-18 0-8.06 3.211-14.72 9.633-19.97 6.468-5.29 14.859-7.94 25.172-7.94 7.031 0 13.289 1.36 18.773 4.08 5.531 2.72 9.797 6.47 12.797 11.25 3.047 4.78 4.57 10 4.57 15.68h-13.57c0-6.19-1.969-11.04-5.906-14.56-3.938-3.56-9.493-5.34-16.664-5.34-6.657 0-11.86 1.47-15.61 4.43-3.703 2.9-5.554 6.96-5.554 12.16 0 4.17 1.757 7.71 5.273 10.62 3.562 2.86 9.586 5.48 18.07 7.87 8.531 2.39 15.188 5.04 19.969 7.95 4.828 2.86 8.391 6.21 10.688 10.05 2.343 3.85 3.515 8.37 3.515 13.57 0 8.3-3.234 14.96-9.703 19.97-6.469 4.97-15.117 7.46-25.945 7.46-7.032 0-13.594-1.34-19.688-4.01-6.094-2.72-10.805-6.42-14.133-11.11-3.281-4.69-4.922-10.01-4.922-15.96h13.571c0 6.19 2.273 11.08 6.82 14.69 4.594 3.57 10.711 5.35 18.352 5.35 7.125 0 12.586-1.46 16.383-4.36 3.796-2.91 5.695-6.87 5.695-11.89 0-5.01-1.758-8.88-5.274-11.6-3.515-2.76-9.89-5.48-19.125-8.15zm67.43 45.63h-13.008v-76.08h13.008V1728zm-14.062-96.26c0-2.11.632-3.89 1.898-5.34 1.312-1.45 3.234-2.18 5.766-2.18 2.531 0 4.453.73 5.765 2.18 1.313 1.45 1.969 3.23 1.969 5.34s-.656 3.87-1.969 5.28c-1.312 1.4-3.234 2.1-5.765 2.1-2.532 0-4.454-.7-5.766-2.1-1.266-1.41-1.898-3.17-1.898-5.28zm47.179 20.18l.352 8.44c5.578-6.56 13.101-9.84 22.57-9.84 10.641 0 17.883 4.07 21.727 12.23 2.531-3.66 5.812-6.61 9.843-8.86 4.079-2.25 8.883-3.37 14.415-3.37 16.687 0 25.171 8.83 25.453 26.5V1728h-13.008v-50.2c0-5.44-1.242-9.5-3.727-12.17-2.484-2.72-6.656-4.08-12.515-4.08-4.829 0-8.836 1.46-12.024 4.36-3.187 2.86-5.039 6.73-5.555 11.61V1728h-13.078v-49.85c0-11.06-5.414-16.6-16.242-16.6-8.531 0-14.367 3.64-17.508 10.9V1728h-13.007v-76.08h12.304zm110.602 37.34c0-7.46 1.453-14.16 4.359-20.11 2.953-5.95 7.028-10.55 12.238-13.78 5.25-3.24 11.22-4.85 17.93-4.85 10.36 0 18.72 3.58 25.1 10.75 6.42 7.18 9.63 16.71 9.63 28.62v.91c0 7.41-1.43 14.07-4.29 19.97-2.81 5.86-6.87 10.43-12.16 13.71-5.25 3.29-11.3 4.93-18.14 4.93-10.32 0-18.68-3.59-25.1-10.76-6.38-7.17-9.567-16.67-9.567-28.48v-.91zm13.077 1.54c0 8.44 1.95 15.22 5.84 20.32 3.93 5.11 9.18 7.67 15.75 7.67 6.61 0 11.86-2.58 15.75-7.74 3.89-5.2 5.83-12.46 5.83-21.79 0-8.35-1.99-15.1-5.97-20.25-3.94-5.21-9.19-7.81-15.75-7.81-6.43 0-11.61 2.56-15.54 7.67-3.94 5.11-5.91 12.42-5.91 21.93zm27.35-70.8h15.75l-18.84 20.67h-10.48l13.57-20.67zm57.45 31.92l.42 9.56c5.81-7.31 13.41-10.96 22.78-10.96 16.08 0 24.19 9.07 24.33 27.21V1728h-13.01v-50.34c-.05-5.49-1.31-9.54-3.8-12.17-2.43-2.62-6.25-3.94-11.46-3.94-4.22 0-7.92 1.13-11.11 3.38-3.18 2.25-5.67 5.2-7.45 8.86V1728h-13.01v-76.08h12.31zm104.9 76.08v-102.38h28.9c8.91 0 16.78 1.97 23.63 5.91 6.84 3.94 12.11 9.54 15.82 16.81 3.75 7.26 5.65 15.61 5.69 25.03v6.54c0 9.65-1.87 18.11-5.62 25.38-3.71 7.26-9.03 12.84-15.96 16.73-6.89 3.89-14.93 5.89-24.12 5.98h-28.34zm13.5-91.27v80.23h14.21c10.4 0 18.49-3.23 24.26-9.7 5.81-6.47 8.71-15.68 8.71-27.64v-5.97c0-11.63-2.74-20.65-8.22-27.07-5.44-6.47-13.17-9.75-23.21-9.85h-15.75zm93.1 91.27H1289v-76.08h13.01V1728zm-14.06-96.26c0-2.11.63-3.89 1.89-5.34 1.32-1.45 3.24-2.18 5.77-2.18 2.53 0 4.45.73 5.77 2.18 1.31 1.45 1.96 3.23 1.96 5.34s-.65 3.87-1.96 5.28c-1.32 1.4-3.24 2.1-5.77 2.1-2.53 0-4.45-.7-5.77-2.1-1.26-1.41-1.89-3.17-1.89-5.28zm65.46 87.05c4.64 0 8.69-1.41 12.16-4.22 3.47-2.81 5.39-6.33 5.77-10.55h12.3c-.23 4.36-1.73 8.51-4.5 12.45-2.76 3.94-6.47 7.08-11.11 9.42-4.59 2.34-9.47 3.52-14.62 3.52-10.36 0-18.61-3.45-24.75-10.34-6.1-6.94-9.14-16.41-9.14-28.41v-2.18c0-7.4 1.36-13.99 4.07-19.75 2.72-5.77 6.61-10.25 11.68-13.43 5.11-3.19 11.13-4.78 18.07-4.78 8.53 0 15.61 2.55 21.23 7.66 5.67 5.11 8.7 11.74 9.07 19.9h-12.3c-.38-4.92-2.25-8.96-5.63-12.1-3.33-3.18-7.45-4.78-12.37-4.78-6.61 0-11.75 2.39-15.4 7.18-3.61 4.73-5.42 11.6-5.42 20.6v2.46c0 8.76 1.81 15.51 5.42 20.25 3.61 4.73 8.76 7.1 15.47 7.1zm76.43 10.62c-10.32 0-18.71-3.38-25.18-10.13-6.46-6.8-9.7-15.87-9.7-27.21v-2.39c0-7.55 1.43-14.27 4.29-20.18 2.91-5.95 6.94-10.59 12.09-13.92 5.21-3.38 10.83-5.06 16.88-5.06 9.89 0 17.58 3.25 23.06 9.77 5.49 6.51 8.23 15.84 8.23 27.98v5.42h-51.54c.19 7.5 2.37 13.57 6.54 18.21 4.22 4.59 9.56 6.89 16.03 6.89 4.59 0 8.48-.94 11.67-2.81 3.19-1.88 5.98-4.36 8.37-7.46l7.94 6.19c-6.37 9.8-15.93 14.7-28.68 14.7zm-1.62-68.21c-5.25 0-9.66 1.92-13.22 5.77-3.56 3.8-5.77 9.14-6.61 16.03h38.11v-.98c-.38-6.61-2.16-11.72-5.34-15.33-3.19-3.66-7.5-5.49-12.94-5.49zM457.375 943.367c-11.578-3.328-20.016-7.406-25.313-12.234-5.25-4.875-7.874-10.875-7.874-18 0-8.063 3.21-14.719 9.632-19.969 6.469-5.297 14.86-7.945 25.172-7.945 7.031 0 13.289 1.359 18.774 4.078 5.531 2.719 9.796 6.469 12.796 11.25 3.047 4.781 4.571 10.008 4.571 15.68h-13.571c0-6.188-1.968-11.039-5.906-14.555-3.937-3.563-9.492-5.344-16.664-5.344-6.656 0-11.859 1.477-15.609 4.43-3.703 2.906-5.555 6.961-5.555 12.164 0 4.172 1.758 7.711 5.274 10.617 3.562 2.859 9.586 5.484 18.07 7.875 8.531 2.391 15.187 5.039 19.969 7.945 4.828 2.86 8.39 6.211 10.687 10.055 2.344 3.844 3.516 8.367 3.516 13.57 0 8.297-3.235 14.954-9.703 19.969-6.469 4.969-15.118 7.453-25.946 7.453-7.031 0-13.593-1.336-19.687-4.008-6.094-2.718-10.805-6.421-14.133-11.109-3.281-4.687-4.922-10.008-4.922-15.961h13.57c0 6.188 2.274 11.086 6.821 14.695 4.594 3.563 10.711 5.344 18.351 5.344 7.125 0 12.586-1.453 16.383-4.359 3.797-2.906 5.695-6.867 5.695-11.883 0-5.016-1.757-8.883-5.273-11.602-3.516-2.765-9.891-5.484-19.125-8.156zM524.805 989h-13.008v-76.078h13.008V989zm-14.063-96.258c0-2.109.633-3.89 1.899-5.344 1.312-1.453 3.234-2.179 5.765-2.179 2.532 0 4.453.726 5.766 2.179 1.312 1.454 1.969 3.235 1.969 5.344 0 2.11-.657 3.867-1.969 5.274-1.313 1.406-3.234 2.109-5.766 2.109-2.531 0-4.453-.703-5.765-2.109-1.266-1.407-1.899-3.164-1.899-5.274zm47.18 20.18l.351 8.437c5.579-6.562 13.102-9.843 22.571-9.843 10.64 0 17.883 4.078 21.726 12.234 2.532-3.656 5.813-6.609 9.844-8.859 4.078-2.25 8.883-3.375 14.414-3.375 16.688 0 25.172 8.836 25.453 26.507V989h-13.008v-50.203c0-5.438-1.242-9.492-3.726-12.164-2.485-2.719-6.656-4.078-12.516-4.078-4.828 0-8.836 1.453-12.023 4.359-3.188 2.859-5.039 6.727-5.555 11.602V989h-13.078v-49.852c0-11.062-5.414-16.593-16.242-16.593-8.531 0-14.367 3.633-17.508 10.898V989h-13.008v-76.078h12.305zm110.601 37.336c0-7.453 1.454-14.156 4.36-20.11 2.953-5.953 7.031-10.546 12.234-13.781 5.25-3.234 11.227-4.851 17.93-4.851 10.359 0 18.726 3.586 25.101 10.757 6.422 7.172 9.633 16.711 9.633 28.618v.914c0 7.406-1.429 14.062-4.289 19.968-2.812 5.86-6.867 10.43-12.164 13.711-5.25 3.282-11.297 4.922-18.14 4.922-10.313 0-18.68-3.586-25.102-10.758-6.375-7.171-9.563-16.664-9.563-28.476v-.914zm13.079 1.547c0 8.437 1.945 15.211 5.836 20.32 3.937 5.109 9.187 7.664 15.75 7.664 6.609 0 11.859-2.578 15.75-7.734 3.89-5.203 5.835-12.469 5.835-21.797 0-8.344-1.992-15.094-5.976-20.25-3.938-5.203-9.188-7.805-15.75-7.805-6.422 0-11.602 2.555-15.539 7.664-3.938 5.11-5.906 12.422-5.906 21.938zM708.953 881h15.75l-18.844 20.672h-10.476L708.953 881zm57.445 31.922l.422 9.562c5.813-7.312 13.407-10.968 22.782-10.968 16.078 0 24.187 9.07 24.328 27.211V989h-13.008v-50.344c-.047-5.484-1.313-9.539-3.797-12.164-2.437-2.625-6.258-3.937-11.461-3.937-4.219 0-7.922 1.125-11.109 3.375-3.188 2.25-5.672 5.203-7.453 8.859V989h-13.008v-76.078h12.304zM871.305 989V886.625h28.898c8.906 0 16.781 1.969 23.625 5.906 6.844 3.938 12.117 9.539 15.82 16.805 3.75 7.266 5.649 15.609 5.696 25.031v6.539c0 9.656-1.875 18.117-5.625 25.383-3.703 7.266-9.024 12.844-15.961 16.734-6.891 3.891-14.93 5.883-24.117 5.977h-28.336zm13.5-91.266v80.227h14.203c10.406 0 18.492-3.234 24.258-9.703 5.812-6.469 8.718-15.68 8.718-27.633v-5.977c0-11.625-2.742-20.648-8.226-27.07-5.438-6.469-13.172-9.75-23.203-9.844h-15.75zM977.898 989h-13.007v-76.078h13.007V989zm-14.062-96.258c0-2.109.633-3.89 1.898-5.344 1.313-1.453 3.235-2.179 5.766-2.179s4.453.726 5.766 2.179c1.312 1.454 1.968 3.235 1.968 5.344 0 2.11-.656 3.867-1.968 5.274-1.313 1.406-3.235 2.109-5.766 2.109s-4.453-.703-5.766-2.109c-1.265-1.407-1.898-3.164-1.898-5.274zm65.464 87.047c4.64 0 8.69-1.406 12.16-4.219 3.47-2.812 5.39-6.328 5.77-10.547h12.3c-.23 4.36-1.73 8.508-4.5 12.446-2.76 3.937-6.47 7.078-11.11 9.422a31.737 31.737 0 01-14.62 3.515c-10.36 0-18.61-3.445-24.75-10.336-6.097-6.937-9.144-16.406-9.144-28.406v-2.18c0-7.406 1.36-13.992 4.078-19.757 2.716-5.766 6.606-10.243 11.676-13.43 5.11-3.188 11.13-4.781 18.07-4.781 8.53 0 15.61 2.554 21.23 7.664 5.67 5.109 8.7 11.742 9.07 19.898h-12.3c-.38-4.922-2.25-8.953-5.63-12.094-3.33-3.187-7.45-4.781-12.37-4.781-6.61 0-11.75 2.391-15.4 7.172-3.61 4.734-5.42 11.602-5.42 20.602v2.461c0 8.765 1.81 15.515 5.42 20.25 3.61 4.734 8.76 7.101 15.47 7.101zm76.43 10.617c-10.32 0-18.71-3.375-25.18-10.125-6.46-6.797-9.7-15.867-9.7-27.211v-2.39c0-7.547 1.43-14.274 4.29-20.18 2.91-5.953 6.94-10.594 12.09-13.922 5.21-3.375 10.83-5.062 16.88-5.062 9.89 0 17.58 3.257 23.06 9.773 5.49 6.516 8.23 15.844 8.23 27.984v5.415h-51.54c.19 7.5 2.37 13.57 6.54 18.21 4.22 4.594 9.56 6.891 16.03 6.891 4.59 0 8.48-.937 11.67-2.812 3.19-1.875 5.98-4.36 8.37-7.454l7.94 6.188c-6.37 9.797-15.93 14.695-28.68 14.695zm-1.62-68.203c-5.25 0-9.66 1.922-13.22 5.766-3.56 3.797-5.77 9.14-6.61 16.031h38.11v-.984c-.37-6.61-2.16-11.719-5.34-15.328-3.19-3.657-7.5-5.485-12.94-5.485zM2963.4 737h-13.08v-86.695l-26.23 9.633v-11.813l37.27-13.992h2.04V737zm105.19 0h-67.08v-9.352l35.44-39.375c5.25-5.953 8.85-10.781 10.82-14.484 2.02-3.75 3.03-7.617 3.03-11.601 0-5.344-1.62-9.727-4.85-13.149-3.24-3.422-7.55-5.133-12.94-5.133-6.47 0-11.51 1.852-15.12 5.555-3.56 3.656-5.34 8.766-5.34 15.328h-13.01c0-9.422 3.02-17.039 9.07-22.851 6.09-5.813 14.23-8.719 24.4-8.719 9.51 0 17.04 2.508 22.57 7.523 5.53 4.969 8.3 11.602 8.3 19.899 0 10.078-6.43 22.078-19.27 36l-27.42 29.742h51.4V737z"/>
    <path fill="#fff" stroke="#000" stroke-width="3" d="M2182.5 618.5h935v172h-935z"/>
    <path fill="#000" d="M2463.02 727.281h-42.9L2410.49 754h-13.92l39.09-102.375h11.82L2486.64 754h-13.85l-9.77-26.719zm-38.82-11.109h34.81l-17.44-47.883-17.37 47.883zm104.7 28.617c4.64 0 8.69-1.406 12.16-4.219 3.47-2.812 5.39-6.328 5.77-10.547h12.3c-.23 4.36-1.73 8.508-4.5 12.446-2.76 3.937-6.47 7.078-11.11 9.422a31.737 31.737 0 01-14.62 3.515c-10.36 0-18.61-3.445-24.75-10.336-6.1-6.937-9.14-16.406-9.14-28.406v-2.18c0-7.406 1.36-13.992 4.08-19.757 2.71-5.766 6.61-10.243 11.67-13.43 5.11-3.188 11.13-4.781 18.07-4.781 8.53 0 15.61 2.554 21.23 7.664 5.67 5.109 8.7 11.742 9.07 19.898h-12.3c-.38-4.922-2.25-8.953-5.63-12.094-3.32-3.187-7.45-4.781-12.37-4.781-6.61 0-11.74 2.391-15.4 7.172-3.61 4.734-5.41 11.602-5.41 20.602v2.461c0 8.765 1.8 15.515 5.41 20.25 3.61 4.734 8.77 7.101 15.47 7.101zm62.51-85.289v18.422h14.2v10.055h-14.2v47.179c0 3.047.63 5.344 1.89 6.891 1.27 1.5 3.43 2.25 6.47 2.25 1.5 0 3.57-.281 6.19-.844V754c-3.42.938-6.75 1.406-9.98 1.406-5.82 0-10.2-1.758-13.15-5.273-2.95-3.516-4.43-8.508-4.43-14.977v-47.179h-13.85v-10.055h13.85V659.5h13.01zM2635 754h-13.01v-76.078H2635V754zm-14.06-96.258c0-2.109.63-3.89 1.9-5.344 1.31-1.453 3.23-2.179 5.76-2.179s4.45.726 5.77 2.179c1.31 1.454 1.97 3.235 1.97 5.344 0 2.11-.66 3.867-1.97 5.274-1.32 1.406-3.24 2.109-5.77 2.109-2.53 0-4.45-.703-5.76-2.109-1.27-1.407-1.9-3.164-1.9-5.274zm60.04 78.61l18.85-58.43h13.29L2685.84 754h-9.92l-27.56-76.078h13.29l19.33 58.43zm90.5 17.648c-.75-1.5-1.36-4.172-1.83-8.016-6.05 6.282-13.27 9.422-21.66 9.422-7.5 0-13.66-2.109-18.49-6.328-4.78-4.266-7.17-9.656-7.17-16.172 0-7.922 3-14.062 9-18.422 6.05-4.406 14.53-6.609 25.45-6.609h12.66v-5.977c0-4.546-1.36-8.156-4.08-10.828-2.72-2.718-6.73-4.078-12.02-4.078-4.64 0-8.54 1.172-11.68 3.516-3.14 2.344-4.71 5.18-4.71 8.508h-13.07c0-3.797 1.33-7.454 4-10.969 2.72-3.563 6.38-6.375 10.97-8.438 4.64-2.062 9.73-3.093 15.26-3.093 8.77 0 15.63 2.203 20.6 6.609 4.97 4.359 7.55 10.383 7.74 18.07v35.016c0 6.984.89 12.539 2.67 16.664V754h-13.64zm-21.59-9.914c4.08 0 7.95-1.055 11.6-3.164 3.66-2.11 6.31-4.852 7.95-8.227v-15.609h-10.2c-15.94 0-23.9 4.664-23.9 13.992 0 4.078 1.36 7.266 4.07 9.563 2.72 2.297 6.21 3.445 10.48 3.445zm49.78-28.758c0-11.672 2.77-21.047 8.3-28.125 5.53-7.125 12.77-10.687 21.73-10.687 8.9 0 15.96 3.046 21.16 9.14V646h13.01v108h-11.96l-.63-8.156c-5.2 6.375-12.44 9.562-21.73 9.562-8.81 0-16-3.609-21.58-10.828-5.53-7.219-8.3-16.64-8.3-28.266v-.984zm13.01 1.477c0 8.625 1.78 15.375 5.34 20.25 3.57 4.875 8.49 7.312 14.77 7.312 8.25 0 14.27-3.703 18.07-11.109v-34.946c-3.89-7.171-9.87-10.757-17.93-10.757-6.38 0-11.34 2.461-14.91 7.383-3.56 4.921-5.34 12.21-5.34 21.867zm67.99-1.547c0-7.453 1.45-14.156 4.36-20.11 2.95-5.953 7.03-10.546 12.24-13.781 5.25-3.234 11.22-4.851 17.93-4.851 10.35 0 18.72 3.586 25.1 10.757 6.42 7.172 9.63 16.711 9.63 28.618v.914c0 7.406-1.43 14.062-4.29 19.968-2.81 5.86-6.87 10.43-12.16 13.711-5.25 3.282-11.3 4.922-18.14 4.922-10.32 0-18.68-3.586-25.11-10.758-6.37-7.171-9.56-16.664-9.56-28.476v-.914zm13.08 1.547c0 8.437 1.95 15.211 5.84 20.32 3.93 5.109 9.18 7.664 15.75 7.664 6.61 0 11.86-2.578 15.75-7.734 3.89-5.203 5.83-12.469 5.83-21.797 0-8.344-1.99-15.094-5.97-20.25-3.94-5.203-9.19-7.805-15.75-7.805-6.43 0-11.61 2.555-15.54 7.664-3.94 5.11-5.91 12.422-5.91 21.938z"/>
    <path fill="#fff" stroke="#000" stroke-width="10" d="M3121 625h184v159h-184z"/>
    <g filter="url(#filter0_d)">
      <path fill="#C4C4C4" d="M3212.8 760.525l-61.87-105.393h123.74l-61.87 105.393z"/>
      <path stroke="#000" stroke-width="2" d="M3272.92 656.132L3212.8 758.55l-60.13-102.418h120.25z"/>
    </g>
    <path fill="#000" d="M2963.4 987h-13.08v-86.695l-26.23 9.633v-11.813l37.27-13.992h2.04V987zm105.19 0h-67.08v-9.352l35.44-39.375c5.25-5.953 8.85-10.781 10.82-14.484 2.02-3.75 3.03-7.617 3.03-11.601 0-5.344-1.62-9.727-4.85-13.149-3.24-3.422-7.55-5.133-12.94-5.133-6.47 0-11.51 1.852-15.12 5.555-3.56 3.656-5.34 8.766-5.34 15.328h-13.01c0-9.422 3.02-17.039 9.07-22.851 6.09-5.813 14.23-8.719 24.4-8.719 9.51 0 17.04 2.508 22.57 7.523 5.53 4.969 8.3 11.602 8.3 19.899 0 10.078-6.43 22.078-19.27 36l-27.42 29.742h51.4V987z"/>
    <path fill="#fff" stroke="#000" stroke-width="3" d="M2182.5 868.5h935v172h-935z"/>
    <path fill="#000" d="M2266.23 989V886.625h28.9c8.91 0 16.78 1.969 23.63 5.906 6.84 3.938 12.12 9.539 15.82 16.805 3.75 7.266 5.65 15.609 5.69 25.031v6.539c0 9.656-1.87 18.117-5.62 25.383-3.7 7.266-9.03 12.844-15.96 16.734-6.89 3.891-14.93 5.883-24.12 5.977h-28.34zm13.5-91.266v80.227h14.21c10.4 0 18.49-3.234 24.26-9.703 5.81-6.469 8.71-15.68 8.71-27.633v-5.977c0-11.625-2.74-20.648-8.22-27.07-5.44-6.469-13.17-9.75-23.21-9.844h-15.75zm110.54 92.672c-10.32 0-18.71-3.375-25.18-10.125-6.47-6.797-9.7-15.867-9.7-27.211v-2.39c0-7.547 1.43-14.274 4.29-20.18 2.91-5.953 6.94-10.594 12.09-13.922 5.21-3.375 10.83-5.062 16.88-5.062 9.89 0 17.58 3.257 23.06 9.773 5.49 6.516 8.23 15.844 8.23 27.984v5.415h-51.54c.19 7.5 2.37 13.57 6.54 18.21 4.22 4.594 9.56 6.891 16.03 6.891 4.59 0 8.48-.937 11.67-2.812 3.19-1.875 5.98-4.36 8.37-7.454l7.94 6.188c-6.37 9.797-15.93 14.695-28.68 14.695zm-1.62-68.203c-5.25 0-9.66 1.922-13.22 5.766-3.56 3.797-5.77 9.14-6.61 16.031h38.11v-.984c-.38-6.61-2.16-11.719-5.34-15.328-3.19-3.657-7.5-5.485-12.94-5.485zm90.7 46.617c0-3.515-1.33-6.234-4.01-8.156-2.62-1.969-7.24-3.656-13.85-5.062-6.56-1.407-11.79-3.094-15.68-5.063-3.84-1.969-6.7-4.312-8.58-7.031-1.82-2.719-2.74-5.953-2.74-9.703 0-6.235 2.63-11.508 7.88-15.821 5.29-4.312 12.04-6.468 20.25-6.468 8.62 0 15.61 2.226 20.95 6.679 5.39 4.453 8.09 10.149 8.09 17.086h-13.08c0-3.562-1.53-6.633-4.57-9.211-3-2.578-6.8-3.867-11.39-3.867-4.74 0-8.44 1.031-11.11 3.094-2.67 2.062-4.01 4.758-4.01 8.086 0 3.14 1.24 5.508 3.73 7.101 2.48 1.594 6.96 3.118 13.43 4.571 6.51 1.453 11.79 3.187 15.82 5.203 4.03 2.015 7 4.453 8.93 7.312 1.97 2.813 2.95 6.258 2.95 10.336 0 6.797-2.72 12.258-8.16 16.383-5.43 4.078-12.49 6.117-21.16 6.117-6.09 0-11.49-1.078-16.17-3.234-4.69-2.156-8.37-5.156-11.04-9-2.63-3.891-3.94-8.086-3.94-12.586h13.01c.23 4.359 1.97 7.828 5.2 10.406 3.28 2.531 7.6 3.797 12.94 3.797 4.92 0 8.86-.984 11.81-2.953 3-2.016 4.5-4.688 4.5-8.016zm76.92 20.18c-.75-1.5-1.36-4.172-1.82-8.016-6.05 6.282-13.27 9.422-21.66 9.422-7.5 0-13.67-2.109-18.49-6.328-4.78-4.266-7.18-9.656-7.18-16.172 0-7.922 3-14.062 9-18.422 6.05-4.406 14.54-6.609 25.46-6.609h12.65v-5.977c0-4.546-1.35-8.156-4.07-10.828-2.72-2.718-6.73-4.078-12.03-4.078-4.64 0-8.53 1.172-11.67 3.516-3.14 2.344-4.71 5.18-4.71 8.508h-13.08c0-3.797 1.34-7.454 4.01-10.969 2.72-3.563 6.37-6.375 10.97-8.438 4.64-2.062 9.73-3.093 15.26-3.093 8.76 0 15.63 2.203 20.6 6.609 4.97 4.359 7.54 10.383 7.73 18.07v35.016c0 6.984.89 12.539 2.67 16.664V989h-13.64zm-21.58-9.914c4.08 0 7.94-1.055 11.6-3.164 3.66-2.11 6.3-4.852 7.94-8.227v-15.609h-10.19c-15.94 0-23.91 4.664-23.91 13.992 0 4.078 1.36 7.266 4.08 9.563 2.72 2.297 6.21 3.445 10.48 3.445zm83.46.703c4.64 0 8.69-1.406 12.16-4.219 3.47-2.812 5.39-6.328 5.77-10.547h12.3c-.23 4.36-1.73 8.508-4.5 12.446-2.76 3.937-6.47 7.078-11.11 9.422a31.737 31.737 0 01-14.62 3.515c-10.36 0-18.61-3.445-24.75-10.336-6.1-6.937-9.14-16.406-9.14-28.406v-2.18c0-7.406 1.36-13.992 4.08-19.757 2.71-5.766 6.61-10.243 11.67-13.43 5.11-3.188 11.13-4.781 18.07-4.781 8.53 0 15.61 2.554 21.23 7.664 5.67 5.109 8.7 11.742 9.07 19.898h-12.3c-.38-4.922-2.25-8.953-5.63-12.094-3.33-3.187-7.45-4.781-12.37-4.781-6.61 0-11.74 2.391-15.4 7.172-3.61 4.734-5.41 11.602-5.41 20.602v2.461c0 8.765 1.8 15.515 5.41 20.25 3.61 4.734 8.77 7.101 15.47 7.101zm62.51-85.289v18.422h14.2v10.055h-14.2v47.179c0 3.047.63 5.344 1.89 6.891 1.27 1.5 3.43 2.25 6.47 2.25 1.5 0 3.57-.281 6.19-.844V989c-3.42.938-6.75 1.406-9.98 1.406-5.82 0-10.2-1.758-13.15-5.273-2.96-3.516-4.43-8.508-4.43-14.977v-47.179h-13.85v-10.055h13.85V894.5h13.01zm43.59 94.5h-13.01v-76.078h13.01V989zm-14.06-96.258c0-2.109.63-3.89 1.9-5.344 1.31-1.453 3.23-2.179 5.76-2.179s4.45.726 5.77 2.179c1.31 1.454 1.97 3.235 1.97 5.344 0 2.11-.66 3.867-1.97 5.274-1.32 1.406-3.24 2.109-5.77 2.109-2.53 0-4.45-.703-5.76-2.109-1.27-1.407-1.9-3.164-1.9-5.274zm60.04 78.61l18.85-58.43h13.29L2775.09 989h-9.92l-27.56-76.078h13.29l19.33 58.43zm90.5 17.648c-.75-1.5-1.36-4.172-1.83-8.016-6.05 6.282-13.27 9.422-21.66 9.422-7.5 0-13.66-2.109-18.49-6.328-4.78-4.266-7.17-9.656-7.17-16.172 0-7.922 3-14.062 9-18.422 6.04-4.406 14.53-6.609 25.45-6.609h12.66v-5.977c0-4.546-1.36-8.156-4.08-10.828-2.72-2.718-6.73-4.078-12.02-4.078-4.64 0-8.54 1.172-11.68 3.516-3.14 2.344-4.71 5.18-4.71 8.508h-13.08c0-3.797 1.34-7.454 4.01-10.969 2.72-3.563 6.38-6.375 10.97-8.438 4.64-2.062 9.73-3.093 15.26-3.093 8.76 0 15.63 2.203 20.6 6.609 4.97 4.359 7.55 10.383 7.74 18.07v35.016c0 6.984.89 12.539 2.67 16.664V989h-13.64zm-21.59-9.914c4.08 0 7.95-1.055 11.6-3.164 3.66-2.11 6.31-4.852 7.95-8.227v-15.609h-10.2c-15.94 0-23.9 4.664-23.9 13.992 0 4.078 1.36 7.266 4.07 9.563 2.72 2.297 6.22 3.445 10.48 3.445zm49.78-28.758c0-11.672 2.77-21.047 8.3-28.125 5.53-7.125 12.77-10.687 21.73-10.687 8.9 0 15.96 3.046 21.16 9.14V881h13.01v108h-11.96l-.63-8.156c-5.2 6.375-12.44 9.562-21.73 9.562-8.81 0-16-3.609-21.58-10.828-5.53-7.219-8.3-16.64-8.3-28.266v-.984zm13.01 1.477c0 8.625 1.78 15.375 5.34 20.25 3.57 4.875 8.49 7.312 14.77 7.312 8.25 0 14.27-3.703 18.07-11.109v-34.946c-3.89-7.171-9.87-10.757-17.93-10.757-6.38 0-11.34 2.461-14.91 7.383-3.56 4.921-5.34 12.21-5.34 21.867zm67.99-1.547c0-7.453 1.46-14.156 4.36-20.11 2.95-5.953 7.03-10.546 12.24-13.781 5.25-3.234 11.22-4.851 17.93-4.851 10.35 0 18.72 3.586 25.1 10.757 6.42 7.172 9.63 16.711 9.63 28.618v.914c0 7.406-1.43 14.062-4.29 19.968-2.81 5.86-6.87 10.43-12.16 13.711-5.25 3.282-11.3 4.922-18.14 4.922-10.32 0-18.68-3.586-25.11-10.758-6.37-7.171-9.56-16.664-9.56-28.476v-.914zm13.08 1.547c0 8.437 1.95 15.211 5.84 20.32 3.93 5.109 9.18 7.664 15.75 7.664 6.61 0 11.86-2.578 15.75-7.734 3.89-5.203 5.83-12.469 5.83-21.797 0-8.344-1.99-15.094-5.97-20.25-3.94-5.203-9.19-7.805-15.75-7.805-6.43 0-11.61 2.555-15.54 7.664-3.94 5.11-5.91 12.422-5.91 21.938z"/>
    <path fill="#fff" stroke="#000" stroke-width="10" d="M3121 875h184v159h-184z"/>
    <g filter="url(#filter1_d)">
      <path fill="#C4C4C4" d="M3212.8 1010.53l-61.87-105.398h123.74l-61.87 105.398z"/>
      <path stroke="#000" stroke-width="2" d="M3272.92 906.132l-60.12 102.418-60.13-102.418h120.25z"/>
    </g>
    <path fill="#fff" stroke="#000" stroke-width="3" d="M2185.5 1141.5h920v172h-920z"/>
    <path fill="#000" d="M2313.02 1262h-13.07v-86.7l-26.23 9.64v-11.82l37.26-13.99h2.04V1262zm105.19 0h-67.08v-9.35l35.44-39.38c5.25-5.95 8.86-10.78 10.83-14.48 2.01-3.75 3.02-7.62 3.02-11.6 0-5.35-1.62-9.73-4.85-13.15-3.23-3.42-7.55-5.13-12.94-5.13-6.47 0-11.51 1.85-15.11 5.55-3.57 3.66-5.35 8.77-5.35 15.33h-13.01c0-9.42 3.03-17.04 9.07-22.85 6.1-5.82 14.23-8.72 24.4-8.72 9.52 0 17.04 2.51 22.57 7.52 5.53 4.97 8.3 11.6 8.3 19.9 0 10.08-6.42 22.08-19.27 36l-27.42 29.74h51.4V1262zm95.13-20.18c0-3.52-1.33-6.23-4-8.16-2.63-1.96-7.25-3.65-13.86-5.06-6.56-1.4-11.78-3.09-15.68-5.06-3.84-1.97-6.7-4.31-8.57-7.03-1.83-2.72-2.75-5.96-2.75-9.71 0-6.23 2.63-11.5 7.88-15.82 5.3-4.31 12.05-6.46 20.25-6.46 8.62 0 15.61 2.22 20.95 6.68 5.39 4.45 8.09 10.14 8.09 17.08h-13.08c0-3.56-1.52-6.63-4.57-9.21-3-2.58-6.8-3.87-11.39-3.87-4.73 0-8.44 1.03-11.11 3.1-2.67 2.06-4.01 4.75-4.01 8.08 0 3.14 1.24 5.51 3.73 7.1 2.48 1.6 6.96 3.12 13.43 4.57 6.51 1.46 11.79 3.19 15.82 5.21 4.03 2.01 7.01 4.45 8.93 7.31 1.97 2.81 2.95 6.26 2.95 10.34 0 6.79-2.72 12.25-8.15 16.38-5.44 4.08-12.5 6.12-21.17 6.12-6.09 0-11.48-1.08-16.17-3.24-4.69-2.15-8.37-5.15-11.04-9-2.62-3.89-3.94-8.08-3.94-12.58h13.01c.23 4.36 1.97 7.82 5.2 10.4 3.29 2.53 7.6 3.8 12.94 3.8 4.92 0 8.86-.99 11.81-2.95 3-2.02 4.5-4.69 4.5-8.02zm61.53 21.59c-10.32 0-18.71-3.38-25.17-10.13-6.47-6.8-9.71-15.87-9.71-27.21v-2.39c0-7.55 1.43-14.27 4.29-20.18 2.91-5.95 6.94-10.59 12.1-13.92 5.2-3.38 10.82-5.06 16.87-5.06 9.89 0 17.58 3.25 23.06 9.77 5.49 6.51 8.23 15.84 8.23 27.98v5.42H2553c.19 7.5 2.37 13.57 6.54 18.21 4.22 4.59 9.56 6.89 16.03 6.89 4.59 0 8.48-.94 11.67-2.81 3.19-1.88 5.98-4.36 8.37-7.46l7.94 6.19c-6.37 9.8-15.93 14.7-28.68 14.7zm-1.62-68.21c-5.25 0-9.66 1.92-13.22 5.77-3.56 3.8-5.76 9.14-6.61 16.03h38.11v-.98c-.37-6.61-2.15-11.72-5.34-15.33-3.19-3.66-7.5-5.49-12.94-5.49zm43.31 28.13c0-11.86 2.74-21.28 8.23-28.27 5.48-7.03 12.75-10.54 21.8-10.54 9.28 0 16.52 3.28 21.72 9.84l.64-8.44h11.88v74.25c0 9.85-2.93 17.6-8.79 23.28-5.81 5.67-13.64 8.5-23.49 8.5-5.48 0-10.85-1.17-16.1-3.51-5.25-2.35-9.25-5.56-12.02-9.64l6.75-7.8c5.58 6.89 12.4 10.34 20.46 10.34 6.33 0 11.25-1.79 14.77-5.35 3.56-3.56 5.34-8.58 5.34-15.04v-6.54c-5.2 6-12.3 9-21.3 9-8.91 0-16.13-3.59-21.66-10.76-5.49-7.17-8.23-16.95-8.23-29.32zm13.08 1.47c0 8.58 1.76 15.33 5.27 20.25 3.52 4.88 8.44 7.32 14.77 7.32 8.2 0 14.23-3.73 18.07-11.18v-34.74c-3.98-7.26-9.96-10.9-17.93-10.9-6.33 0-11.27 2.47-14.84 7.39-3.56 4.92-5.34 12.21-5.34 21.86zm117.84 29.68c-5.06 5.95-12.49 8.93-22.28 8.93-8.11 0-14.3-2.35-18.57-7.03-4.22-4.74-6.35-11.72-6.4-20.96v-49.5h13.01v49.15c0 11.53 4.69 17.3 14.06 17.3 9.94 0 16.55-3.71 19.83-11.11v-55.34h13.01V1262h-12.37l-.29-7.52zm44.79-68.56l.43 9.56c5.81-7.31 13.4-10.96 22.78-10.96 16.07 0 24.18 9.07 24.32 27.21V1262h-13v-50.34c-.05-5.49-1.32-9.54-3.8-12.17-2.44-2.62-6.26-3.94-11.46-3.94-4.22 0-7.92 1.13-11.11 3.38-3.19 2.25-5.67 5.2-7.45 8.86V1262h-13.01v-76.08h12.3zm63.99 37.41c0-11.67 2.76-21.05 8.29-28.13 5.54-7.12 12.78-10.68 21.73-10.68 8.91 0 15.96 3.04 21.17 9.14V1154h13v108h-11.95l-.63-8.16c-5.21 6.38-12.45 9.57-21.73 9.57-8.81 0-16.01-3.61-21.59-10.83-5.53-7.22-8.29-16.64-8.29-28.27v-.98zm13.01 1.47c0 8.63 1.78 15.38 5.34 20.25 3.56 4.88 8.48 7.32 14.77 7.32 8.24 0 14.27-3.71 18.07-11.11v-34.95c-3.9-7.17-9.87-10.76-17.93-10.76-6.38 0-11.35 2.47-14.91 7.39-3.56 4.92-5.34 12.21-5.34 21.86zm67.99-1.54c0-7.46 1.45-14.16 4.36-20.11 2.95-5.95 7.03-10.55 12.23-13.78 5.25-3.24 11.23-4.85 17.93-4.85 10.36 0 18.73 3.58 25.1 10.75 6.42 7.18 9.64 16.71 9.64 28.62v.91c0 7.41-1.43 14.07-4.29 19.97-2.82 5.86-6.87 10.43-12.17 13.71-5.25 3.29-11.29 4.93-18.14 4.93-10.31 0-18.68-3.59-25.1-10.76-6.37-7.17-9.56-16.67-9.56-28.48v-.91zm13.08 1.54c0 8.44 1.94 15.22 5.83 20.32 3.94 5.11 9.19 7.67 15.75 7.67 6.61 0 11.86-2.58 15.75-7.74 3.89-5.2 5.84-12.46 5.84-21.79 0-8.35-1.99-15.1-5.98-20.25-3.94-5.21-9.19-7.81-15.75-7.81-6.42 0-11.6 2.56-15.54 7.67-3.94 5.11-5.9 12.42-5.9 21.93zm116.78 17.02c0-3.52-1.33-6.23-4-8.16-2.63-1.96-7.24-3.65-13.85-5.06-6.57-1.4-11.79-3.09-15.68-5.06-3.85-1.97-6.71-4.31-8.58-7.03-1.83-2.72-2.74-5.96-2.74-9.71 0-6.23 2.62-11.5 7.87-15.82 5.3-4.31 12.05-6.46 20.25-6.46 8.63 0 15.61 2.22 20.95 6.68 5.39 4.45 8.09 10.14 8.09 17.08h-13.08c0-3.56-1.52-6.63-4.57-9.21-3-2.58-6.8-3.87-11.39-3.87-4.73 0-8.44 1.03-11.11 3.1-2.67 2.06-4.01 4.75-4.01 8.08 0 3.14 1.25 5.51 3.73 7.1 2.48 1.6 6.96 3.12 13.43 4.57 6.52 1.46 11.79 3.19 15.82 5.21 4.03 2.01 7.01 4.45 8.93 7.31 1.97 2.81 2.95 6.26 2.95 10.34 0 6.79-2.72 12.25-8.15 16.38-5.44 4.08-12.5 6.12-21.17 6.12-6.09 0-11.48-1.08-16.17-3.24-4.69-2.15-8.37-5.15-11.04-9-2.62-3.89-3.94-8.08-3.94-12.58h13.01c.24 4.36 1.97 7.82 5.21 10.4 3.28 2.53 7.59 3.8 12.93 3.8 4.92 0 8.86-.99 11.81-2.95 3-2.02 4.5-4.69 4.5-8.02z"/>
    <path fill="#fff" stroke="#000" stroke-width="10" d="M3124 1148h184v159h-184z"/>
    <g filter="url(#filter2_d)">
      <path fill="#C4C4C4" d="M3215.8 1283.53l-61.87-105.4h123.74l-61.87 105.4z"/>
      <path stroke="#000" stroke-width="2" d="M3275.92 1179.13l-60.12 102.42-60.13-102.42h120.25z"/>
    </g>
    <path fill="#fff" stroke="#000" stroke-width="3" d="M2185.5 1447.5h920v172h-920z"/>
    <path fill="#000" d="M2270.2 1510.48h9.78c6.14-.09 10.97-1.71 14.48-4.85 3.52-3.14 5.27-7.38 5.27-12.72 0-12-5.97-18-17.93-18-5.62 0-10.12 1.61-13.5 4.85-3.32 3.19-4.99 7.43-4.99 12.72h-13.01c0-8.1 2.96-14.83 8.86-20.18 5.96-5.39 13.5-8.08 22.64-8.08 9.66 0 17.23 2.55 22.72 7.66 5.48 5.11 8.22 12.21 8.22 21.31 0 4.45-1.45 8.76-4.36 12.93-2.86 4.18-6.77 7.29-11.74 9.36 5.63 1.78 9.96 4.73 13.01 8.86 3.09 4.12 4.64 9.16 4.64 15.11 0 9.19-3 16.48-9 21.87-6 5.39-13.81 8.09-23.41 8.09-9.61 0-17.44-2.61-23.49-7.81-6-5.2-9-12.07-9-20.6h13.08c0 5.39 1.76 9.7 5.27 12.94 3.52 3.23 8.23 4.85 14.14 4.85 6.28 0 11.08-1.64 14.41-4.92 3.33-3.28 4.99-7.99 4.99-14.14 0-5.95-1.83-10.52-5.48-13.71-3.66-3.18-8.93-4.82-15.82-4.92h-9.78v-10.62zm63.57 50.7c0-2.25.65-4.13 1.96-5.63 1.36-1.5 3.38-2.25 6.05-2.25s4.69.75 6.05 2.25c1.4 1.5 2.11 3.38 2.11 5.63 0 2.16-.71 3.96-2.11 5.41-1.36 1.46-3.38 2.18-6.05 2.18s-4.69-.72-6.05-2.18c-1.31-1.45-1.96-3.25-1.96-5.41zm100.54-36.84c0 15.23-2.6 26.55-7.8 33.96-5.21 7.4-13.34 11.11-24.4 11.11-10.92 0-19.01-3.61-24.26-10.83-5.25-7.27-7.97-18.1-8.15-32.49v-17.36c0-15.05 2.6-26.23 7.8-33.54 5.2-7.31 13.36-10.97 24.47-10.97 11.01 0 19.12 3.54 24.33 10.62 5.2 7.03 7.87 17.9 8.01 32.62v16.88zm-13.01-17.79c0-11.02-1.54-19.03-4.64-24.05-3.09-5.06-7.99-7.59-14.69-7.59-6.66 0-11.51 2.5-14.56 7.52-3.04 5.02-4.61 12.73-4.71 23.13v20.82c0 11.06 1.6 19.24 4.78 24.53 3.24 5.25 8.11 7.88 14.63 7.88 6.42 0 11.18-2.49 14.27-7.45 3.14-4.97 4.78-12.8 4.92-23.49v-21.3zm111.03 41.27c0-3.52-1.34-6.23-4.01-8.16-2.62-1.96-7.24-3.65-13.85-5.06-6.56-1.4-11.79-3.09-15.68-5.06-3.84-1.97-6.7-4.31-8.58-7.03-1.83-2.72-2.74-5.96-2.74-9.71 0-6.23 2.62-11.5 7.87-15.82 5.3-4.31 12.05-6.46 20.25-6.46 8.63 0 15.61 2.22 20.96 6.68 5.39 4.45 8.08 10.14 8.08 17.08h-13.08c0-3.56-1.52-6.63-4.57-9.21-3-2.58-6.79-3.87-11.39-3.87-4.73 0-8.43 1.03-11.11 3.1-2.67 2.06-4 4.75-4 8.08 0 3.14 1.24 5.51 3.72 7.1 2.49 1.6 6.96 3.12 13.43 4.57 6.52 1.46 11.79 3.19 15.82 5.21 4.03 2.01 7.01 4.45 8.93 7.31 1.97 2.81 2.96 6.26 2.96 10.34 0 6.79-2.72 12.25-8.16 16.38-5.44 4.08-12.49 6.12-21.16 6.12-6.1 0-11.49-1.08-16.18-3.24-4.68-2.15-8.36-5.15-11.04-9-2.62-3.89-3.93-8.08-3.93-12.58h13.01c.23 4.36 1.96 7.82 5.2 10.4 3.28 2.53 7.59 3.8 12.94 3.8 4.92 0 8.86-.99 11.81-2.95 3-2.02 4.5-4.69 4.5-8.02zm61.52 21.59c-10.31 0-18.7-3.38-25.17-10.13-6.47-6.8-9.7-15.87-9.7-27.21v-2.39c0-7.55 1.43-14.27 4.29-20.18 2.9-5.95 6.93-10.59 12.09-13.92 5.2-3.38 10.83-5.06 16.87-5.06 9.89 0 17.58 3.25 23.07 9.77 5.48 6.51 8.22 15.84 8.22 27.98v5.42h-51.54c.19 7.5 2.37 13.57 6.54 18.21 4.22 4.59 9.57 6.89 16.03 6.89 4.6 0 8.49-.94 11.68-2.81 3.18-1.88 5.97-4.36 8.36-7.46l7.95 6.19c-6.38 9.8-15.94 14.7-28.69 14.7zm-1.62-68.21c-5.25 0-9.65 1.92-13.21 5.77-3.57 3.8-5.77 9.14-6.61 16.03h38.11v-.98c-.38-6.61-2.16-11.72-5.35-15.33-3.19-3.66-7.5-5.49-12.94-5.49zm43.32 28.13c0-11.86 2.74-21.28 8.22-28.27 5.49-7.03 12.75-10.54 21.8-10.54 9.28 0 16.52 3.28 21.73 9.84l.63-8.44h11.88v74.25c0 9.85-2.93 17.6-8.79 23.28-5.81 5.67-13.64 8.5-23.48 8.5-5.49 0-10.85-1.17-16.1-3.51-5.25-2.35-9.26-5.56-12.03-9.64l6.75-7.8c5.58 6.89 12.4 10.34 20.46 10.34 6.33 0 11.26-1.79 14.77-5.35 3.56-3.56 5.34-8.58 5.34-15.04v-6.54c-5.2 6-12.3 9-21.3 9-8.91 0-16.13-3.59-21.66-10.76-5.48-7.17-8.22-16.95-8.22-29.32zm13.07 1.47c0 8.58 1.76 15.33 5.28 20.25 3.51 4.88 8.44 7.32 14.76 7.32 8.21 0 14.23-3.73 18.07-11.18v-34.74c-3.98-7.26-9.96-10.9-17.93-10.9-6.32 0-11.27 2.47-14.83 7.39-3.56 4.92-5.35 12.21-5.35 21.86zm117.85 29.68c-5.06 5.95-12.49 8.93-22.29 8.93-8.11 0-14.3-2.35-18.56-7.03-4.22-4.74-6.35-11.72-6.4-20.96v-49.5h13.01v49.15c0 11.53 4.68 17.3 14.06 17.3 9.94 0 16.55-3.71 19.83-11.11v-55.34h13V1568h-12.37l-.28-7.52zm44.79-68.56l.42 9.56c5.81-7.31 13.41-10.96 22.78-10.96 16.08 0 24.19 9.07 24.33 27.21V1568h-13.01v-50.34c-.05-5.49-1.31-9.54-3.8-12.17-2.43-2.62-6.25-3.94-11.46-3.94-4.22 0-7.92 1.13-11.11 3.38-3.18 2.25-5.67 5.2-7.45 8.86V1568h-13.01v-76.08h12.31zm63.98 37.41c0-11.67 2.77-21.05 8.3-28.13 5.53-7.12 12.77-10.68 21.73-10.68 8.9 0 15.96 3.04 21.16 9.14V1460h13.01v108h-11.96l-.63-8.16c-5.2 6.38-12.44 9.57-21.73 9.57-8.81 0-16-3.61-21.58-10.83-5.53-7.22-8.3-16.64-8.3-28.27v-.98zm13.01 1.47c0 8.63 1.78 15.38 5.34 20.25 3.57 4.88 8.49 7.32 14.77 7.32 8.25 0 14.27-3.71 18.07-11.11v-34.95c-3.89-7.17-9.87-10.76-17.93-10.76-6.38 0-11.34 2.47-14.91 7.39-3.56 4.92-5.34 12.21-5.34 21.86zm67.99-1.54c0-7.46 1.46-14.16 4.36-20.11 2.95-5.95 7.03-10.55 12.24-13.78 5.25-3.24 11.22-4.85 17.93-4.85 10.35 0 18.72 3.58 25.1 10.75 6.42 7.18 9.63 16.71 9.63 28.62v.91c0 7.41-1.43 14.07-4.29 19.97-2.81 5.86-6.87 10.43-12.16 13.71-5.25 3.29-11.3 4.93-18.14 4.93-10.32 0-18.68-3.59-25.11-10.76-6.37-7.17-9.56-16.67-9.56-28.48v-.91zm13.08 1.54c0 8.44 1.95 15.22 5.84 20.32 3.93 5.11 9.18 7.67 15.75 7.67 6.61 0 11.86-2.58 15.75-7.74 3.89-5.2 5.83-12.46 5.83-21.79 0-8.35-1.99-15.1-5.97-20.25-3.94-5.21-9.19-7.81-15.75-7.81-6.43 0-11.61 2.56-15.54 7.67-3.94 5.11-5.91 12.42-5.91 21.93zm116.79 17.02c0-3.52-1.34-6.23-4.01-8.16-2.62-1.96-7.24-3.65-13.85-5.06-6.56-1.4-11.79-3.09-15.68-5.06-3.84-1.97-6.7-4.31-8.58-7.03-1.83-2.72-2.74-5.96-2.74-9.71 0-6.23 2.63-11.5 7.87-15.82 5.3-4.31 12.05-6.46 20.26-6.46 8.62 0 15.6 2.22 20.95 6.68 5.39 4.45 8.08 10.14 8.08 17.08h-13.07c0-3.56-1.53-6.63-4.57-9.21-3-2.58-6.8-3.87-11.39-3.87-4.74 0-8.44 1.03-11.11 3.1-2.68 2.06-4.01 4.75-4.01 8.08 0 3.14 1.24 5.51 3.72 7.1 2.49 1.6 6.97 3.12 13.43 4.57 6.52 1.46 11.79 3.19 15.82 5.21 4.04 2.01 7.01 4.45 8.93 7.31 1.97 2.81 2.96 6.26 2.96 10.34 0 6.79-2.72 12.25-8.16 16.38-5.44 4.08-12.49 6.12-21.16 6.12-6.1 0-11.49-1.08-16.18-3.24-4.68-2.15-8.36-5.15-11.03-9-2.63-3.89-3.94-8.08-3.94-12.58h13.01c.23 4.36 1.96 7.82 5.2 10.4 3.28 2.53 7.59 3.8 12.94 3.8 4.92 0 8.86-.99 11.81-2.95 3-2.02 4.5-4.69 4.5-8.02z"/>
    <path fill="#fff" stroke="#000" stroke-width="10" d="M3124 1454h184v159h-184z"/>
    <g filter="url(#filter3_d)">
      <path fill="#C4C4C4" d="M3215.8 1589.53l-61.87-105.4h123.74l-61.87 105.4z"/>
      <path stroke="#000" stroke-width="2" d="M3275.92 1485.13l-60.12 102.42-60.13-102.42h120.25z"/>
    </g>
    <path fill="#000" d="M483.422 389.516c-1.266 10.828-5.274 19.195-12.024 25.101-6.703 5.86-15.632 8.789-26.789 8.789-12.093 0-21.797-4.336-29.109-13.008-7.266-8.671-10.898-20.273-10.898-34.804v-9.844c0-9.516 1.687-17.883 5.062-25.102 3.422-7.218 8.25-12.75 14.484-16.593 6.235-3.891 13.454-5.836 21.657-5.836 10.875 0 19.593 3.047 26.156 9.14 6.562 6.047 10.383 14.438 11.461 25.172h-13.57c-1.172-8.156-3.727-14.062-7.664-17.719-3.891-3.656-9.352-5.484-16.383-5.484-8.625 0-15.399 3.188-20.321 9.563-4.875 6.375-7.312 15.445-7.312 27.211v9.914c0 11.109 2.32 19.945 6.961 26.507 4.64 6.563 11.133 9.844 19.476 9.844 7.5 0 13.243-1.687 17.227-5.062 4.031-3.422 6.703-9.352 8.016-17.789h13.57zM546.844 422c-.75-1.5-1.36-4.172-1.828-8.016-6.047 6.282-13.266 9.422-21.657 9.422-7.5 0-13.664-2.109-18.492-6.328-4.781-4.266-7.172-9.656-7.172-16.172 0-7.922 3-14.062 9-18.422 6.047-4.406 14.532-6.609 25.453-6.609h12.657v-5.977c0-4.546-1.36-8.156-4.078-10.828-2.719-2.718-6.727-4.078-12.024-4.078-4.641 0-8.531 1.172-11.672 3.516-3.14 2.344-4.711 5.18-4.711 8.508h-13.078c0-3.797 1.336-7.454 4.008-10.969 2.719-3.563 6.375-6.375 10.969-8.438 4.64-2.062 9.726-3.093 15.258-3.093 8.765 0 15.632 2.203 20.601 6.609 4.969 4.359 7.547 10.383 7.734 18.07v35.016c0 6.984.891 12.539 2.672 16.664V422h-13.64zm-21.586-9.914c4.078 0 7.945-1.055 11.601-3.164 3.657-2.11 6.305-4.852 7.946-8.227v-15.609h-10.196c-15.937 0-23.906 4.664-23.906 13.992 0 4.078 1.359 7.266 4.078 9.563 2.719 2.297 6.211 3.445 10.477 3.445zm65.25-66.164l.422 9.562c5.812-7.312 13.406-10.968 22.781-10.968 16.078 0 24.187 9.07 24.328 27.211V422h-13.008v-50.344c-.047-5.484-1.312-9.539-3.797-12.164-2.437-2.625-6.257-3.937-11.461-3.937-4.218 0-7.921 1.125-11.109 3.375-3.187 2.25-5.672 5.203-7.453 8.859V422h-13.008v-76.078h12.305zm84.797-18.422v18.422h14.203v10.055h-14.203v47.179c0 3.047.633 5.344 1.898 6.891 1.266 1.5 3.422 2.25 6.469 2.25 1.5 0 3.562-.281 6.187-.844V422c-3.421.938-6.75 1.406-9.984 1.406-5.813 0-10.195-1.758-13.148-5.273-2.954-3.516-4.43-8.508-4.43-14.977v-47.179h-13.852v-10.055h13.852V327.5h13.008zm43.593 94.5h-13.007v-76.078h13.007V422zm-14.062-96.258c0-2.109.633-3.89 1.898-5.344 1.313-1.453 3.235-2.179 5.766-2.179s4.453.726 5.766 2.179c1.312 1.454 1.968 3.235 1.968 5.344 0 2.11-.656 3.867-1.968 5.274-1.313 1.406-3.235 2.109-5.766 2.109s-4.453-.703-5.766-2.109c-1.265-1.407-1.898-3.164-1.898-5.274zm31.781 57.586c0-11.672 2.766-21.047 8.297-28.125 5.531-7.125 12.774-10.687 21.727-10.687 8.906 0 15.961 3.046 21.164 9.14V314h13.007v108h-11.953l-.632-8.156c-5.204 6.375-12.446 9.562-21.727 9.562-8.812 0-16.008-3.609-21.586-10.828-5.531-7.219-8.297-16.64-8.297-28.266v-.984zm13.008 1.477c0 8.625 1.781 15.375 5.344 20.25 3.562 4.875 8.484 7.312 14.765 7.312 8.25 0 14.274-3.703 18.071-11.109v-34.946c-3.891-7.171-9.867-10.757-17.93-10.757-6.375 0-11.344 2.461-14.906 7.383-3.563 4.921-5.344 12.21-5.344 21.867zM868.031 422c-.75-1.5-1.359-4.172-1.828-8.016-6.047 6.282-13.265 9.422-21.656 9.422-7.5 0-13.664-2.109-18.492-6.328-4.782-4.266-7.172-9.656-7.172-16.172 0-7.922 3-14.062 9-18.422 6.047-4.406 14.531-6.609 25.453-6.609h12.656v-5.977c0-4.546-1.359-8.156-4.078-10.828-2.719-2.718-6.726-4.078-12.023-4.078-4.641 0-8.532 1.172-11.672 3.516-3.141 2.344-4.711 5.18-4.711 8.508H820.43c0-3.797 1.336-7.454 4.008-10.969 2.718-3.563 6.374-6.375 10.968-8.438 4.641-2.062 9.727-3.093 15.258-3.093 8.766 0 15.633 2.203 20.602 6.609 4.968 4.359 7.546 10.383 7.734 18.07v35.016c0 6.984.891 12.539 2.672 16.664V422h-13.641zm-21.586-9.914c4.078 0 7.946-1.055 11.602-3.164 3.656-2.11 6.305-4.852 7.945-8.227v-15.609h-10.195c-15.938 0-23.906 4.664-23.906 13.992 0 4.078 1.359 7.266 4.078 9.563 2.719 2.297 6.211 3.445 10.476 3.445zm49.782-28.758c0-11.672 2.765-21.047 8.296-28.125 5.532-7.125 12.774-10.687 21.727-10.687 8.906 0 15.961 3.046 21.164 9.14V314h13.008v108h-11.953l-.633-8.156c-5.203 6.375-12.445 9.562-21.727 9.562-8.812 0-16.007-3.609-21.586-10.828-5.531-7.219-8.296-16.64-8.296-28.266v-.984zm13.007 1.477c0 8.625 1.782 15.375 5.344 20.25 3.563 4.875 8.484 7.312 14.766 7.312 8.25 0 14.273-3.703 18.07-11.109v-34.946c-3.891-7.171-9.867-10.757-17.93-10.757-6.375 0-11.343 2.461-14.906 7.383-3.562 4.921-5.344 12.21-5.344 21.867zm103.996-1.477c0-11.672 2.76-21.047 8.29-28.125 5.53-7.125 12.78-10.687 21.73-10.687 8.91 0 15.96 3.046 21.16 9.14V314h13.01v108h-11.95l-.63-8.156c-5.21 6.375-12.45 9.562-21.73 9.562-8.81 0-16.01-3.609-21.59-10.828-5.53-7.219-8.29-16.64-8.29-28.266v-.984zm13 1.477c0 8.625 1.79 15.375 5.35 20.25 3.56 4.875 8.48 7.312 14.76 7.312 8.25 0 14.28-3.703 18.07-11.109v-34.946c-3.89-7.171-9.86-10.757-17.93-10.757-6.37 0-11.34 2.461-14.9 7.383-3.56 4.921-5.35 12.21-5.35 21.867zm103.01 38.601c-10.31 0-18.7-3.375-25.17-10.125-6.47-6.797-9.7-15.867-9.7-27.211v-2.39c0-7.547 1.43-14.274 4.29-20.18 2.9-5.953 6.93-10.594 12.09-13.922 5.2-3.375 10.83-5.062 16.87-5.062 9.9 0 17.58 3.257 23.07 9.773 5.48 6.516 8.22 15.844 8.22 27.984v5.415h-51.53c.18 7.5 2.36 13.57 6.53 18.21 4.22 4.594 9.57 6.891 16.04 6.891 4.59 0 8.48-.937 11.67-2.812 3.18-1.875 5.97-4.36 8.36-7.454l7.95 6.188c-6.38 9.797-15.94 14.695-28.69 14.695zm-1.62-68.203c-5.24 0-9.65 1.922-13.21 5.766-3.57 3.797-5.77 9.14-6.61 16.031h38.11v-.984c-.38-6.61-2.16-11.719-5.35-15.328-3.18-3.657-7.5-5.485-12.94-5.485zM1211.79 422V319.625h33.47c11.11 0 19.45 2.297 25.03 6.891 5.62 4.593 8.44 11.39 8.44 20.39 0 4.782-1.36 9.024-4.08 12.727-2.72 3.656-6.42 6.492-11.11 8.508 5.53 1.547 9.89 4.5 13.08 8.859 3.23 4.312 4.85 9.469 4.85 15.469 0 9.187-2.98 16.406-8.93 21.656-5.95 5.25-14.37 7.875-25.24 7.875h-35.51zm13.5-47.883v36.844h22.29c6.28 0 11.22-1.617 14.83-4.852 3.66-3.281 5.49-7.781 5.49-13.5 0-12.328-6.7-18.492-20.11-18.492h-22.5zm0-10.828h20.39c5.91 0 10.62-1.477 14.13-4.43 3.57-2.953 5.35-6.961 5.35-12.023 0-5.625-1.64-9.703-4.93-12.234-3.28-2.579-8.27-3.868-14.97-3.868h-19.97v32.555zm121.15 51.188c-5.06 5.953-12.49 8.929-22.29 8.929-8.11 0-14.3-2.344-18.56-7.031-4.22-4.734-6.36-11.719-6.4-20.953v-49.5h13.01v49.148c0 11.532 4.68 17.297 14.06 17.297 9.94 0 16.54-3.703 19.83-11.109v-55.336h13V422h-12.37l-.28-7.523zM1335.89 314h15.75l-18.84 20.672h-10.48L1335.89 314zm56.04 41.133c5.77-7.078 13.27-10.617 22.5-10.617 16.08 0 24.19 9.07 24.33 27.211V422h-13.01v-50.344c-.05-5.484-1.31-9.539-3.8-12.164-2.43-2.625-6.25-3.937-11.46-3.937-4.22 0-7.92 1.125-11.11 3.375-3.18 2.25-5.67 5.203-7.45 8.859V422h-13.01V314h13.01v41.133zm62.86 28.125c0-7.453 1.45-14.156 4.36-20.11 2.95-5.953 7.03-10.546 12.23-13.781 5.25-3.234 11.23-4.851 17.93-4.851 10.36 0 18.73 3.586 25.1 10.757 6.43 7.172 9.64 16.711 9.64 28.618v.914c0 7.406-1.43 14.062-4.29 19.968-2.81 5.86-6.87 10.43-12.17 13.711-5.25 3.282-11.29 4.922-18.14 4.922-10.31 0-18.68-3.586-25.1-10.758-6.37-7.171-9.56-16.664-9.56-28.476v-.914zm13.08 1.547c0 8.437 1.94 15.211 5.83 20.32 3.94 5.109 9.19 7.664 15.75 7.664 6.61 0 11.86-2.578 15.75-7.734 3.89-5.203 5.84-12.469 5.84-21.797 0-8.344-1.99-15.094-5.98-20.25-3.94-5.203-9.18-7.805-15.75-7.805-6.42 0-11.6 2.555-15.54 7.664-3.93 5.11-5.9 12.422-5.9 21.938zm116.79 17.015c0-3.515-1.34-6.234-4.01-8.156-2.63-1.969-7.24-3.656-13.85-5.062-6.57-1.407-11.79-3.094-15.68-5.063-3.85-1.969-6.71-4.312-8.58-7.031-1.83-2.719-2.74-5.953-2.74-9.703 0-6.235 2.62-11.508 7.87-15.821 5.3-4.312 12.05-6.468 20.25-6.468 8.63 0 15.61 2.226 20.96 6.679 5.39 4.453 8.08 10.149 8.08 17.086h-13.08c0-3.562-1.52-6.633-4.57-9.211-3-2.578-6.79-3.867-11.39-3.867-4.73 0-8.44 1.031-11.11 3.094-2.67 2.062-4.01 4.758-4.01 8.086 0 3.14 1.25 5.508 3.73 7.101 2.49 1.594 6.96 3.118 13.43 4.571 6.52 1.453 11.79 3.187 15.82 5.203 4.03 2.015 7.01 4.453 8.93 7.312 1.97 2.813 2.95 6.258 2.95 10.336 0 6.797-2.71 12.258-8.15 16.383-5.44 4.078-12.49 6.117-21.17 6.117-6.09 0-11.48-1.078-16.17-3.234-4.69-2.156-8.37-5.156-11.04-9-2.62-3.891-3.93-8.086-3.93-12.586h13c.24 4.359 1.97 7.828 5.21 10.406 3.28 2.531 7.59 3.797 12.93 3.797 4.93 0 8.86-.984 11.82-2.953 3-2.016 4.5-4.688 4.5-8.016zM1281.16 148.516c-1.26 10.828-5.27 19.195-12.02 25.101-6.7 5.86-15.63 8.789-26.79 8.789-12.09 0-21.8-4.336-29.11-13.008-7.26-8.671-10.9-20.273-10.9-34.804v-9.844c0-9.516 1.69-17.883 5.07-25.102 3.42-7.218 8.25-12.75 14.48-16.593 6.23-3.89 13.45-5.836 21.66-5.836 10.87 0 19.59 3.047 26.15 9.14 6.57 6.047 10.39 14.438 11.46 25.172h-13.57c-1.17-8.156-3.72-14.062-7.66-17.719-3.89-3.656-9.35-5.484-16.38-5.484-8.63 0-15.4 3.188-20.32 9.563-4.88 6.375-7.32 15.445-7.32 27.211v9.914c0 11.109 2.32 19.945 6.97 26.507 4.64 6.563 11.13 9.844 19.47 9.844 7.5 0 13.24-1.687 17.23-5.062 4.03-3.422 6.7-9.352 8.01-17.789h13.57zm13.01-6.258c0-7.453 1.45-14.156 4.36-20.11 2.95-5.953 7.03-10.546 12.24-13.781 5.25-3.234 11.22-4.851 17.93-4.851 10.35 0 18.72 3.586 25.1 10.757 6.42 7.172 9.63 16.711 9.63 28.618v.914c0 7.406-1.43 14.062-4.29 19.968-2.81 5.86-6.87 10.43-12.16 13.711-5.25 3.282-11.3 4.922-18.14 4.922-10.32 0-18.68-3.586-25.11-10.758-6.37-7.171-9.56-16.664-9.56-28.476v-.914zm13.08 1.547c0 8.437 1.95 15.211 5.84 20.32 3.93 5.109 9.18 7.664 15.75 7.664 6.61 0 11.86-2.578 15.75-7.734 3.89-5.203 5.83-12.469 5.83-21.797 0-8.344-1.99-15.094-5.97-20.25-3.94-5.203-9.19-7.805-15.75-7.805-6.43 0-11.61 2.555-15.54 7.664-3.94 5.11-5.91 12.422-5.91 21.938zm84.8-38.883l.42 9.562c5.81-7.312 13.41-10.968 22.78-10.968 16.08 0 24.19 9.07 24.33 27.211V181h-13.01v-50.344c-.05-5.484-1.31-9.539-3.8-12.164-2.43-2.625-6.25-3.937-11.46-3.937-4.22 0-7.92 1.125-11.11 3.375-3.18 2.25-5.67 5.203-7.45 8.859V181h-13.01v-76.078h12.31zm71.5 76.078v-66.023h-12.02v-10.055h12.02v-6.469c0-8.484 2.42-15.094 7.25-19.828 4.87-4.734 11.74-7.102 20.6-7.102 5.25 0 11.88 1.43 19.9 4.29l-2.18 10.968c-5.86-2.344-11.44-3.515-16.74-3.515-5.58 0-9.61 1.265-12.09 3.796-2.44 2.485-3.66 6.235-3.66 11.25v6.61h15.54v10.055h-15.54V181h-13.08zm54.22 0h-13.08v-76.078h13.08V181zm18.07-38.672c0-11.859 2.74-21.281 8.22-28.266 5.49-7.031 12.75-10.546 21.8-10.546 9.28 0 16.52 3.281 21.73 9.843l.63-8.437h11.88v74.25c0 9.844-2.93 17.601-8.79 23.273-5.81 5.672-13.64 8.508-23.48 8.508-5.49 0-10.85-1.172-16.1-3.515-5.25-2.344-9.26-5.555-12.03-9.633l6.75-7.805c5.58 6.891 12.4 10.336 20.46 10.336 6.33 0 11.25-1.781 14.77-5.344 3.56-3.562 5.34-8.578 5.34-15.047v-6.539c-5.2 6-12.3 9-21.3 9-8.91 0-16.13-3.586-21.66-10.758-5.48-7.171-8.22-16.945-8.22-29.32zm13.07 1.477c0 8.578 1.76 15.328 5.28 20.25 3.51 4.875 8.43 7.312 14.76 7.312 8.21 0 14.23-3.726 18.07-11.179v-34.735c-3.98-7.265-9.96-10.898-17.93-10.898-6.32 0-11.27 2.461-14.83 7.383-3.56 4.921-5.35 12.21-5.35 21.867zm117.85 29.672c-5.06 5.953-12.49 8.929-22.29 8.929-8.11 0-14.3-2.344-18.56-7.031-4.22-4.734-6.36-11.719-6.4-20.953v-49.5h13.01v49.148c0 11.532 4.68 17.297 14.06 17.297 9.94 0 16.54-3.703 19.83-11.109v-55.336h13V181h-12.37l-.28-7.523zm69.26-56.883c-1.97-.328-4.11-.492-6.4-.492-8.53 0-14.32 3.632-17.37 10.898v54h-13.01v-76.078h12.66l.21 8.789c4.27-6.797 10.31-10.195 18.14-10.195 2.53 0 4.45.328 5.77.984v12.094zM1792.2 181c-.75-1.5-1.36-4.172-1.83-8.016-6.05 6.282-13.27 9.422-21.66 9.422-7.5 0-13.66-2.109-18.49-6.328-4.78-4.266-7.17-9.656-7.17-16.172 0-7.922 3-14.062 9-18.422 6.04-4.406 14.53-6.609 25.45-6.609h12.66v-5.977c0-4.546-1.36-8.156-4.08-10.828-2.72-2.718-6.73-4.078-12.03-4.078-4.64 0-8.53 1.172-11.67 3.516-3.14 2.344-4.71 5.18-4.71 8.508h-13.08c0-3.797 1.34-7.454 4.01-10.969 2.72-3.563 6.38-6.375 10.97-8.438 4.64-2.062 9.73-3.093 15.26-3.093 8.76 0 15.63 2.203 20.6 6.609 4.97 4.359 7.55 10.383 7.73 18.07v35.016c0 6.984.89 12.539 2.68 16.664V181h-13.64zm-21.59-9.914c4.08 0 7.94-1.055 11.6-3.164 3.66-2.11 6.31-4.852 7.95-8.227v-15.609h-10.2c-15.94 0-23.91 4.664-23.91 13.992 0 4.078 1.36 7.266 4.08 9.563 2.72 2.297 6.21 3.445 10.48 3.445zm83.46.703c4.64 0 8.7-1.406 12.16-4.219 3.47-2.812 5.39-6.328 5.77-10.547h12.3c-.23 4.36-1.73 8.508-4.5 12.446-2.76 3.937-6.46 7.078-11.1 9.422-4.6 2.343-9.47 3.515-14.63 3.515-10.36 0-18.61-3.445-24.75-10.336-6.09-6.937-9.14-16.406-9.14-28.406v-2.18c0-7.406 1.36-13.992 4.08-19.757 2.72-5.766 6.61-10.243 11.67-13.43 5.11-3.188 11.13-4.781 18.07-4.781 8.53 0 15.61 2.554 21.23 7.664 5.68 5.109 8.7 11.742 9.07 19.898H1872c-.38-4.922-2.25-8.953-5.62-12.094-3.33-3.187-7.46-4.781-12.38-4.781-6.61 0-11.74 2.391-15.4 7.172-3.61 4.734-5.41 11.602-5.41 20.602v2.461c0 8.765 1.8 15.515 5.41 20.25 3.61 4.734 8.77 7.101 15.47 7.101zm58.99 9.211h-13.01v-76.078h13.01V181zM1899 84.742c0-2.11.63-3.89 1.9-5.344 1.31-1.453 3.23-2.18 5.76-2.18 2.54 0 4.46.727 5.77 2.18 1.31 1.454 1.97 3.235 1.97 5.344 0 2.11-.66 3.867-1.97 5.274-1.31 1.406-3.23 2.109-5.77 2.109-2.53 0-4.45-.703-5.76-2.11-1.27-1.406-1.9-3.163-1.9-5.273zm31.5 57.516c0-7.453 1.45-14.156 4.36-20.11 2.95-5.953 7.03-10.546 12.23-13.781 5.25-3.234 11.23-4.851 17.93-4.851 10.36 0 18.73 3.586 25.1 10.757 6.43 7.172 9.64 16.711 9.64 28.618v.914c0 7.406-1.43 14.062-4.29 19.968-2.81 5.86-6.87 10.43-12.17 13.711-5.25 3.282-11.29 4.922-18.14 4.922-10.31 0-18.68-3.586-25.1-10.758-6.37-7.171-9.56-16.664-9.56-28.476v-.914zm13.08 1.547c0 8.437 1.94 15.211 5.83 20.32 3.94 5.109 9.19 7.664 15.75 7.664 6.61 0 11.86-2.578 15.75-7.734 3.89-5.203 5.84-12.469 5.84-21.797 0-8.344-1.99-15.094-5.98-20.25-3.93-5.203-9.18-7.805-15.75-7.805-6.42 0-11.6 2.555-15.54 7.664-3.93 5.11-5.9 12.422-5.9 21.938zM1970.93 73h15.75l-18.84 20.672h-10.48L1970.93 73zm57.45 31.922l.42 9.562c5.81-7.312 13.4-10.968 22.78-10.968 16.08 0 24.19 9.07 24.33 27.211V181h-13.01v-50.344c-.05-5.484-1.31-9.539-3.8-12.164-2.44-2.625-6.26-3.937-11.46-3.937-4.22 0-7.92 1.125-11.11 3.375-3.19 2.25-5.67 5.203-7.45 8.859V181h-13.01v-76.078h12.31zm99.7 37.406c0-11.672 2.76-21.047 8.3-28.125 5.53-7.125 12.77-10.687 21.72-10.687 8.91 0 15.96 3.046 21.17 9.14V73h13v108h-11.95l-.63-8.156c-5.21 6.375-12.45 9.562-21.73 9.562-8.81 0-16.01-3.609-21.58-10.828-5.54-7.219-8.3-16.64-8.3-28.266v-.984zm13.01 1.477c0 8.625 1.78 15.375 5.34 20.25 3.56 4.875 8.48 7.312 14.77 7.312 8.25 0 14.27-3.703 18.07-11.109v-34.946c-3.89-7.171-9.87-10.757-17.93-10.757-6.38 0-11.35 2.461-14.91 7.383-3.56 4.921-5.34 12.21-5.34 21.867zm103 38.601c-10.31 0-18.7-3.375-25.17-10.125-6.47-6.797-9.7-15.867-9.7-27.211v-2.39c0-7.547 1.43-14.274 4.29-20.18 2.9-5.953 6.94-10.594 12.09-13.922 5.2-3.375 10.83-5.062 16.88-5.062 9.89 0 17.57 3.257 23.06 9.773 5.48 6.516 8.23 15.844 8.23 27.984v5.415h-51.54c.18 7.5 2.36 13.57 6.54 18.21 4.21 4.594 9.56 6.891 16.03 6.891 4.59 0 8.48-.937 11.67-2.812 3.19-1.875 5.98-4.36 8.37-7.454l7.94 6.188c-6.37 9.797-15.94 14.695-28.69 14.695zm-1.61-68.203c-5.25 0-9.66 1.922-13.22 5.766-3.56 3.797-5.77 9.14-6.61 16.031h38.11v-.984c-.38-6.61-2.16-11.719-5.35-15.328-3.18-3.657-7.5-5.485-12.93-5.485zM2303.02 181h-13.01V73h13.01v108zm70.03-76.078v84.867c0 14.625-6.64 21.938-19.9 21.938-2.86 0-5.51-.422-7.95-1.266v-10.406c1.5.375 3.47.562 5.91.562 2.91 0 5.11-.797 6.61-2.39 1.55-1.547 2.32-4.266 2.32-8.157v-85.148h13.01zm-14.35-20.18c0-2.062.64-3.82 1.9-5.273 1.31-1.5 3.21-2.25 5.7-2.25 2.53 0 4.45.726 5.76 2.18 1.32 1.453 1.97 3.234 1.97 5.343 0 2.11-.65 3.867-1.97 5.274-1.31 1.406-3.23 2.109-5.76 2.109s-4.43-.703-5.7-2.11c-1.26-1.406-1.9-3.163-1.9-5.273zm82.34 88.735c-5.06 5.953-12.49 8.929-22.29 8.929-8.11 0-14.3-2.344-18.56-7.031-4.22-4.734-6.35-11.719-6.4-20.953v-49.5h13.01v49.148c0 11.532 4.68 17.297 14.06 17.297 9.94 0 16.55-3.703 19.83-11.109v-55.336h13.01V181h-12.38l-.28-7.523zm64.05 8.929c-10.31 0-18.7-3.375-25.17-10.125-6.47-6.797-9.7-15.867-9.7-27.211v-2.39c0-7.547 1.43-14.274 4.29-20.18 2.9-5.953 6.94-10.594 12.09-13.922 5.2-3.375 10.83-5.062 16.88-5.062 9.89 0 17.57 3.257 23.06 9.773 5.48 6.516 8.23 15.844 8.23 27.984v5.415h-51.54c.18 7.5 2.36 13.57 6.54 18.21 4.21 4.594 9.56 6.891 16.03 6.891 4.59 0 8.48-.937 11.67-2.812 3.19-1.875 5.98-4.36 8.37-7.454l7.94 6.188c-6.37 9.797-15.94 14.695-28.69 14.695zm-1.61-68.203c-5.25 0-9.66 1.922-13.22 5.766-3.56 3.797-5.77 9.14-6.61 16.031h38.11v-.984c-.38-6.61-2.16-11.719-5.35-15.328-3.18-3.657-7.5-5.485-12.93-5.485zm43.31 28.125c0-11.859 2.74-21.281 8.23-28.266 5.48-7.031 12.75-10.546 21.79-10.546 9.28 0 16.53 3.281 21.73 9.843l.63-8.437h11.88v74.25c0 9.844-2.93 17.601-8.78 23.273-5.82 5.672-13.65 8.508-23.49 8.508-5.48 0-10.85-1.172-16.1-3.515-5.25-2.344-9.26-5.555-12.02-9.633l6.75-7.805c5.57 6.891 12.39 10.336 20.46 10.336 6.33 0 11.25-1.781 14.76-5.344 3.57-3.562 5.35-8.578 5.35-15.047v-6.539c-5.21 6-12.31 9-21.31 9-8.9 0-16.12-3.586-21.65-10.758-5.49-7.171-8.23-16.945-8.23-29.32zm13.08 1.477c0 8.578 1.75 15.328 5.27 20.25 3.52 4.875 8.44 7.312 14.77 7.312 8.2 0 14.22-3.726 18.07-11.179v-34.735c-3.99-7.265-9.96-10.898-17.93-10.898-6.33 0-11.28 2.461-14.84 7.383-3.56 4.921-5.34 12.21-5.34 21.867zm67.43-1.547c0-7.453 1.45-14.156 4.36-20.11 2.95-5.953 7.03-10.546 12.23-13.781 5.25-3.234 11.23-4.851 17.93-4.851 10.36 0 18.73 3.586 25.1 10.757 6.42 7.172 9.63 16.711 9.63 28.618v.914c0 7.406-1.43 14.062-4.28 19.968-2.82 5.86-6.87 10.43-12.17 13.711-5.25 3.282-11.3 4.922-18.14 4.922-10.31 0-18.68-3.586-25.1-10.758-6.38-7.171-9.56-16.664-9.56-28.476v-.914zm13.08 1.547c0 8.437 1.94 15.211 5.83 20.32 3.94 5.109 9.19 7.664 15.75 7.664 6.61 0 11.86-2.578 15.75-7.734 3.89-5.203 5.84-12.469 5.84-21.797 0-8.344-2-15.094-5.98-20.25-3.94-5.203-9.19-7.805-15.75-7.805-6.42 0-11.6 2.555-15.54 7.664-3.94 5.11-5.9 12.422-5.9 21.938z"/>
    <path fill="#fff" stroke="#000" stroke-width="3" d="M2905.5 294.5h212v172h-212z"/>
    <path fill="#000" d="M3041.49 380.617h14.21v10.617h-14.21V415h-13.08v-23.766h-46.61v-7.664l45.84-70.945h13.85v67.992zm-44.93 0h31.85v-50.203l-1.54 2.813-30.31 47.39z"/>
    <g>
      <path fill="#fff" stroke="#000" stroke-width="10" d="M3121 301h184v159h-184z"/>
      <g filter="url(#filter4_d)">
        <path fill="#C4C4C4" d="M3212.8 436.525l-61.87-105.394h123.74l-61.87 105.394z"/>
        <path stroke="#000" stroke-width="2" d="M3272.92 332.131L3212.8 434.55l-60.13-102.419h120.25z"/>
      </g>
    </g>
    <path fill="#000" d="M307.633 84.117c0 10.031-1.688 18.797-5.063 26.297-3.375 7.453-8.156 13.148-14.343 17.086-6.188 3.938-13.407 5.906-21.657 5.906-8.062 0-15.211-1.968-21.445-5.906-6.234-3.984-11.086-9.633-14.555-16.945-3.422-7.36-5.179-15.868-5.273-25.524v-7.383c0-9.843 1.711-18.539 5.133-26.085 3.422-7.547 8.25-13.313 14.484-17.297 6.281-4.032 13.453-6.047 21.516-6.047 8.203 0 15.422 1.992 21.656 5.976 6.281 3.938 11.109 9.68 14.484 17.227 3.375 7.5 5.063 16.242 5.063 26.226v6.47zm-13.43-6.61c0-12.14-2.437-21.445-7.312-27.913-4.875-6.516-11.696-9.774-20.461-9.774-8.532 0-15.258 3.258-20.18 9.774-4.875 6.468-7.383 15.468-7.523 27v7.523c0 11.766 2.461 21.024 7.382 27.774 4.969 6.703 11.789 10.054 20.461 10.054 8.719 0 15.469-3.164 20.25-9.492 4.782-6.375 7.242-15.492 7.383-27.351v-7.594zm99 36.563l14.625-58.148h13.008L398.688 132h-10.547l-18.493-57.656-18 57.656h-10.546l-22.079-76.078h12.938l14.977 56.953 17.718-56.953h10.477l18.07 58.148zM448.258 132H435.25V24h13.008v108zm137.32 0h-13.57V84.68h-51.61V132h-13.5V29.625h13.5v44.016h51.61V29.625h13.57V132zm18.492-38.742c0-7.453 1.453-14.156 4.36-20.11 2.953-5.953 7.031-10.546 12.234-13.78 5.25-3.235 11.227-4.852 17.93-4.852 10.359 0 18.726 3.586 25.101 10.757 6.422 7.172 9.633 16.711 9.633 28.618v.914c0 7.406-1.43 14.062-4.289 19.968-2.812 5.86-6.867 10.43-12.164 13.711-5.25 3.282-11.297 4.922-18.141 4.922-10.312 0-18.679-3.586-25.101-10.758-6.375-7.171-9.563-16.664-9.563-28.476v-.914zm13.078 1.547c0 8.437 1.946 15.211 5.836 20.32 3.938 5.109 9.188 7.664 15.75 7.664 6.61 0 11.86-2.578 15.75-7.734 3.891-5.203 5.836-12.469 5.836-21.797 0-8.344-1.992-15.094-5.976-20.25-3.938-5.203-9.188-7.805-15.75-7.805-6.422 0-11.602 2.555-15.539 7.664-3.938 5.11-5.907 12.422-5.907 21.938zm69.047-1.547c0-7.453 1.453-14.156 4.36-20.11 2.953-5.953 7.031-10.546 12.234-13.78 5.25-3.235 11.227-4.852 17.93-4.852 10.359 0 18.726 3.586 25.101 10.757 6.422 7.172 9.633 16.711 9.633 28.618v.914c0 7.406-1.43 14.062-4.289 19.968-2.812 5.86-6.867 10.43-12.164 13.711-5.25 3.282-11.297 4.922-18.141 4.922-10.312 0-18.679-3.586-25.101-10.758-6.375-7.171-9.563-16.664-9.563-28.476v-.914zm13.078 1.547c0 8.437 1.946 15.211 5.836 20.32 3.938 5.109 9.188 7.664 15.75 7.664 6.61 0 11.86-2.578 15.75-7.734 3.891-5.203 5.836-12.469 5.836-21.797 0-8.344-1.992-15.094-5.976-20.25-3.938-5.203-9.188-7.805-15.75-7.805-6.422 0-11.602 2.555-15.539 7.664-3.938 5.11-5.907 12.422-5.907 21.938zM789.414 37.5v18.422h14.203v10.055h-14.203v47.179c0 3.047.633 5.344 1.898 6.891 1.266 1.5 3.422 2.25 6.469 2.25 1.5 0 3.563-.281 6.188-.844V132c-3.422.938-6.75 1.406-9.985 1.406-5.812 0-10.195-1.758-13.148-5.273-2.953-3.516-4.43-8.508-4.43-14.977v-47.18h-13.851V55.923h13.851V37.5h13.008z"/>
    <g>
      <path fill="#C4C4C4" d="M0 0h157v157H0z"/>
      <path stroke="#000" d="M.349 3.978l157 152.663M-.354 156.646l157-157"/>
    </g>
  </g>
  <defs>
    <filter id="filter0_d" width="131.741" height="113.394" x="3146.93" y="655.131" color-interpolation-filters="sRGB" filterUnits="userSpaceOnUse">
      <feFlood flood-opacity="0" result="BackgroundImageFix"/>
      <feColorMatrix in="SourceAlpha" values="0 0 0 0 0 0 0 0 0 0 0 0 0 0 0 0 0 0 127 0"/>
      <feOffset dy="4"/>
      <feGaussianBlur stdDeviation="2"/>
      <feColorMatrix values="0 0 0 0 0 0 0 0 0 0 0 0 0 0 0 0 0 0 0.25 0"/>
      <feBlend in2="BackgroundImageFix" result="effect1_dropShadow"/>
      <feBlend in="SourceGraphic" in2="effect1_dropShadow" result="shape"/>
    </filter>
    <filter id="filter1_d" width="131.741" height="113.394" x="3146.93" y="905.131" color-interpolation-filters="sRGB" filterUnits="userSpaceOnUse">
      <feFlood flood-opacity="0" result="BackgroundImageFix"/>
      <feColorMatrix in="SourceAlpha" values="0 0 0 0 0 0 0 0 0 0 0 0 0 0 0 0 0 0 127 0"/>
      <feOffset dy="4"/>
      <feGaussianBlur stdDeviation="2"/>
      <feColorMatrix values="0 0 0 0 0 0 0 0 0 0 0 0 0 0 0 0 0 0 0.25 0"/>
      <feBlend in2="BackgroundImageFix" result="effect1_dropShadow"/>
      <feBlend in="SourceGraphic" in2="effect1_dropShadow" result="shape"/>
    </filter>
    <filter id="filter2_d" width="131.741" height="113.394" x="3149.93" y="1178.13" color-interpolation-filters="sRGB" filterUnits="userSpaceOnUse">
      <feFlood flood-opacity="0" result="BackgroundImageFix"/>
      <feColorMatrix in="SourceAlpha" values="0 0 0 0 0 0 0 0 0 0 0 0 0 0 0 0 0 0 127 0"/>
      <feOffset dy="4"/>
      <feGaussianBlur stdDeviation="2"/>
      <feColorMatrix values="0 0 0 0 0 0 0 0 0 0 0 0 0 0 0 0 0 0 0.25 0"/>
      <feBlend in2="BackgroundImageFix" result="effect1_dropShadow"/>
      <feBlend in="SourceGraphic" in2="effect1_dropShadow" result="shape"/>
    </filter>
    <filter id="filter3_d" width="131.741" height="113.394" x="3149.93" y="1484.13" color-interpolation-filters="sRGB" filterUnits="userSpaceOnUse">
      <feFlood flood-opacity="0" result="BackgroundImageFix"/>
      <feColorMatrix in="SourceAlpha" values="0 0 0 0 0 0 0 0 0 0 0 0 0 0 0 0 0 0 127 0"/>
      <feOffset dy="4"/>
      <feGaussianBlur stdDeviation="2"/>
      <feColorMatrix values="0 0 0 0 0 0 0 0 0 0 0 0 0 0 0 0 0 0 0.25 0"/>
      <feBlend in2="BackgroundImageFix" result="effect1_dropShadow"/>
      <feBlend in="SourceGraphic" in2="effect1_dropShadow" result="shape"/>
    </filter>
    <filter id="filter4_d" width="131.741" height="113.394" x="3146.93" y="331.131" color-interpolation-filters="sRGB" filterUnits="userSpaceOnUse">
      <feFlood flood-opacity="0" result="BackgroundImageFix"/>
      <feColorMatrix in="SourceAlpha" values="0 0 0 0 0 0 0 0 0 0 0 0 0 0 0 0 0 0 127 0"/>
      <feOffset dy="4"/>
      <feGaussianBlur stdDeviation="2"/>
      <feColorMatrix values="0 0 0 0 0 0 0 0 0 0 0 0 0 0 0 0 0 0 0.25 0"/>
      <feBlend in2="BackgroundImageFix" result="effect1_dropShadow"/>
      <feBlend in="SourceGraphic" in2="effect1_dropShadow" result="shape"/>
    </filter>
    <clipPath id="clip0">
      <path fill="#fff" d="M0 0h3898v2225H0z"/>
    </clipPath>
  </defs>
</svg>
