<svg xmlns="http://www.w3.org/2000/svg" width="3898" height="2225" fill="none" viewBox="0 0 3898 2225">
  <path fill="#fff" d="M0 0h3898v2225H0z"/>
  <path stroke="#000" d="M0 175.5h3898M0 274.5h3898"/>
  <path fill="#C4C4C4" d="M10 9h157v157H10z"/>
  <path stroke="#000" d="M10.349 12.978l157 152.663M9.646 165.646l157-157"/>
  <path fill="#000" d="M571.719 194.438h-14.625V235h-5.969v-40.562h-14.594V189.5h35.188v4.938zm16.75 41.187c-4.584 0-8.313-1.5-11.188-4.5-2.875-3.021-4.312-7.052-4.312-12.094v-1.062c0-3.354.635-6.344 1.906-8.969 1.292-2.646 3.083-4.708 5.375-6.188 2.312-1.5 4.812-2.25 7.5-2.25 4.396 0 7.812 1.448 10.25 4.344 2.438 2.896 3.656 7.042 3.656 12.438v2.406H578.75c.083 3.333 1.052 6.031 2.906 8.094 1.875 2.041 4.25 3.062 7.125 3.062 2.042 0 3.771-.416 5.188-1.25 1.416-.833 2.656-1.937 3.719-3.312l3.531 2.75c-2.834 4.354-7.084 6.531-12.75 6.531zm-.719-30.313c-2.333 0-4.292.855-5.875 2.563-1.583 1.687-2.563 4.063-2.937 7.125h16.937v-.438c-.167-2.937-.958-5.208-2.375-6.812-1.417-1.625-3.333-2.438-5.75-2.438zm31.969 8.219l7.5-12.343h6.75l-11.063 16.718L634.312 235h-6.687l-7.813-12.656L612 235h-6.719l11.407-17.094-11.063-16.718h6.687l7.407 12.343zM647.969 193v8.188h6.312v4.468h-6.312v20.969c0 1.354.281 2.375.843 3.063.563.666 1.521 1 2.876 1 .666 0 1.583-.126 2.75-.376V235c-1.521.417-3 .625-4.438.625-2.583 0-4.531-.781-5.844-2.344-1.312-1.562-1.968-3.781-1.968-6.656v-20.969h-6.157v-4.468h6.157V193h5.781zm10.937 24.781c0-3.312.646-6.291 1.938-8.937 1.312-2.646 3.125-4.688 5.437-6.125 2.334-1.438 4.99-2.157 7.969-2.157 4.604 0 8.323 1.594 11.156 4.782 2.854 3.187 4.282 7.427 4.282 12.718v.407c0 3.291-.636 6.25-1.907 8.875-1.25 2.604-3.052 4.635-5.406 6.094-2.333 1.458-5.021 2.187-8.063 2.187-4.583 0-8.302-1.594-11.156-4.781-2.833-3.188-4.25-7.406-4.25-12.656v-.407zm5.813.688c0 3.75.864 6.76 2.593 9.031 1.75 2.271 4.084 3.406 7 3.406 2.938 0 5.271-1.146 7-3.437 1.73-2.313 2.594-5.542 2.594-9.688 0-3.708-.885-6.708-2.656-9-1.75-2.312-4.083-3.469-7-3.469-2.854 0-5.156 1.136-6.906 3.407s-2.625 5.521-2.625 9.75zm55.906-9.031h4.344c2.729-.042 4.875-.761 6.437-2.157 1.563-1.396 2.344-3.281 2.344-5.656 0-5.333-2.656-8-7.969-8-2.5 0-4.5.719-6 2.156-1.479 1.417-2.219 3.302-2.219 5.657h-5.781c0-3.605 1.313-6.594 3.938-8.969 2.646-2.396 6-3.594 10.062-3.594 4.292 0 7.657 1.135 10.094 3.406 2.437 2.271 3.656 5.427 3.656 9.469 0 1.979-.646 3.896-1.937 5.75-1.271 1.854-3.011 3.24-5.219 4.156 2.5.792 4.427 2.104 5.781 3.938 1.375 1.833 2.063 4.073 2.063 6.718 0 4.084-1.334 7.323-4 9.719-2.667 2.396-6.136 3.594-10.407 3.594-4.27 0-7.75-1.156-10.437-3.469-2.667-2.312-4-5.364-4-9.156h5.813c0 2.396.781 4.312 2.343 5.75 1.563 1.438 3.657 2.156 6.281 2.156 2.792 0 4.928-.729 6.407-2.187 1.479-1.459 2.219-3.552 2.219-6.281 0-2.646-.813-4.678-2.438-6.094-1.625-1.417-3.969-2.146-7.031-2.188h-4.344v-4.718zM36.719 194.438H22.094V235h-5.969v-40.562H1.531V189.5H36.72v4.938zm16.75 41.187c-4.584 0-8.313-1.5-11.188-4.5-2.875-3.021-4.312-7.052-4.312-12.094v-1.062c0-3.354.635-6.344 1.906-8.969 1.292-2.646 3.083-4.708 5.375-6.188 2.313-1.5 4.813-2.25 7.5-2.25 4.396 0 7.813 1.448 10.25 4.344 2.438 2.896 3.656 7.042 3.656 12.438v2.406H43.75c.083 3.333 1.052 6.031 2.906 8.094 1.875 2.041 4.25 3.062 7.125 3.062 2.042 0 3.771-.416 5.188-1.25 1.416-.833 2.656-1.937 3.718-3.312l3.532 2.75c-2.834 4.354-7.084 6.531-12.75 6.531zm-.719-30.313c-2.333 0-4.292.855-5.875 2.563-1.583 1.687-2.563 4.063-2.938 7.125h16.938v-.438c-.167-2.937-.958-5.208-2.375-6.812-1.417-1.625-3.333-2.438-5.75-2.438zm31.969 8.219l7.5-12.343h6.75l-11.063 16.718L99.312 235h-6.687l-7.813-12.656L77 235h-6.719l11.406-17.094-11.062-16.718h6.688l7.406 12.343zM112.969 193v8.188h6.312v4.468h-6.312v20.969c0 1.354.281 2.375.843 3.063.563.666 1.521 1 2.876 1 .666 0 1.583-.126 2.75-.376V235c-1.521.417-3 .625-4.438.625-2.583 0-4.531-.781-5.844-2.344-1.312-1.562-1.968-3.781-1.968-6.656v-20.969h-6.157v-4.468h6.157V193h5.781zm10.937 24.781c0-3.312.646-6.291 1.938-8.937 1.312-2.646 3.125-4.688 5.437-6.125 2.334-1.438 4.99-2.157 7.969-2.157 4.604 0 8.323 1.594 11.156 4.782 2.854 3.187 4.282 7.427 4.282 12.718v.407c0 3.291-.636 6.25-1.907 8.875-1.25 2.604-3.052 4.635-5.406 6.094-2.333 1.458-5.021 2.187-8.063 2.187-4.583 0-8.302-1.594-11.156-4.781-2.833-3.188-4.25-7.406-4.25-12.656v-.407zm5.813.688c0 3.75.864 6.76 2.593 9.031 1.75 2.271 4.084 3.406 7 3.406 2.938 0 5.271-1.146 7-3.437 1.73-2.313 2.594-5.542 2.594-9.688 0-3.708-.885-6.708-2.656-9-1.75-2.312-4.083-3.469-7-3.469-2.854 0-5.156 1.136-6.906 3.407s-2.625 5.521-2.625 9.75zm66.5 16.531h-5.813v-38.531l-11.656 4.281v-5.25l16.562-6.219h.907V235zM298.719 194.438h-14.625V235h-5.969v-40.562h-14.594V189.5h35.188v4.938zm16.75 41.187c-4.584 0-8.313-1.5-11.188-4.5-2.875-3.021-4.312-7.052-4.312-12.094v-1.062c0-3.354.635-6.344 1.906-8.969 1.292-2.646 3.083-4.708 5.375-6.188 2.312-1.5 4.812-2.25 7.5-2.25 4.396 0 7.812 1.448 10.25 4.344 2.438 2.896 3.656 7.042 3.656 12.438v2.406H305.75c.083 3.333 1.052 6.031 2.906 8.094 1.875 2.041 4.25 3.062 7.125 3.062 2.042 0 3.771-.416 5.188-1.25 1.416-.833 2.656-1.937 3.719-3.312l3.531 2.75c-2.834 4.354-7.084 6.531-12.75 6.531zm-.719-30.313c-2.333 0-4.292.855-5.875 2.563-1.583 1.687-2.563 4.063-2.937 7.125h16.937v-.438c-.167-2.937-.958-5.208-2.375-6.812-1.417-1.625-3.333-2.438-5.75-2.438zm31.969 8.219l7.5-12.343h6.75l-11.063 16.718L361.312 235h-6.687l-7.813-12.656L339 235h-6.719l11.407-17.094-11.063-16.718h6.687l7.407 12.343zM374.969 193v8.188h6.312v4.468h-6.312v20.969c0 1.354.281 2.375.843 3.063.563.666 1.521 1 2.876 1 .666 0 1.583-.126 2.75-.376V235c-1.521.417-3 .625-4.438.625-2.583 0-4.531-.781-5.844-2.344-1.312-1.562-1.968-3.781-1.968-6.656v-20.969h-6.157v-4.468h6.157V193h5.781zm10.937 24.781c0-3.312.646-6.291 1.938-8.937 1.312-2.646 3.125-4.688 5.437-6.125 2.334-1.438 4.99-2.157 7.969-2.157 4.604 0 8.323 1.594 11.156 4.782 2.854 3.187 4.282 7.427 4.282 12.718v.407c0 3.291-.636 6.25-1.907 8.875-1.25 2.604-3.052 4.635-5.406 6.094-2.333 1.458-5.021 2.187-8.063 2.187-4.583 0-8.302-1.594-11.156-4.781-2.833-3.188-4.25-7.406-4.25-12.656v-.407zm5.813.688c0 3.75.864 6.76 2.593 9.031 1.75 2.271 4.084 3.406 7 3.406 2.938 0 5.271-1.146 7-3.437 1.73-2.313 2.594-5.542 2.594-9.688 0-3.708-.885-6.708-2.656-9-1.75-2.312-4.083-3.469-7-3.469-2.854 0-5.156 1.136-6.906 3.407s-2.625 5.521-2.625 9.75zM469.031 235h-29.812v-4.156l15.75-17.5c2.333-2.646 3.937-4.792 4.812-6.438.896-1.666 1.344-3.385 1.344-5.156 0-2.375-.719-4.323-2.156-5.844-1.438-1.521-3.354-2.281-5.75-2.281-2.875 0-5.115.823-6.719 2.469-1.583 1.625-2.375 3.896-2.375 6.812h-5.781c0-4.187 1.344-7.573 4.031-10.156 2.708-2.583 6.323-3.875 10.844-3.875 4.229 0 7.573 1.115 10.031 3.344 2.458 2.208 3.688 5.156 3.688 8.843 0 4.48-2.855 9.813-8.563 16l-12.187 13.219h22.843V235zM833.719 194.438h-14.625V235h-5.969v-40.562h-14.594V189.5h35.188v4.938zm16.75 41.187c-4.584 0-8.313-1.5-11.188-4.5-2.875-3.021-4.312-7.052-4.312-12.094v-1.062c0-3.354.635-6.344 1.906-8.969 1.292-2.646 3.083-4.708 5.375-6.188 2.312-1.5 4.812-2.25 7.5-2.25 4.396 0 7.812 1.448 10.25 4.344 2.438 2.896 3.656 7.042 3.656 12.438v2.406H840.75c.083 3.333 1.052 6.031 2.906 8.094 1.875 2.041 4.25 3.062 7.125 3.062 2.042 0 3.771-.416 5.188-1.25 1.416-.833 2.656-1.937 3.719-3.312l3.531 2.75c-2.834 4.354-7.084 6.531-12.75 6.531zm-.719-30.313c-2.333 0-4.292.855-5.875 2.563-1.583 1.687-2.563 4.063-2.937 7.125h16.937v-.438c-.167-2.937-.958-5.208-2.375-6.812-1.417-1.625-3.333-2.438-5.75-2.438zm31.969 8.219l7.5-12.343h6.75l-11.063 16.718L896.312 235h-6.687l-7.813-12.656L874 235h-6.719l11.407-17.094-11.063-16.718h6.687l7.407 12.343zM909.969 193v8.188h6.312v4.468h-6.312v20.969c0 1.354.281 2.375.843 3.063.563.666 1.521 1 2.876 1 .666 0 1.583-.126 2.75-.376V235c-1.521.417-3 .625-4.438.625-2.583 0-4.531-.781-5.844-2.344-1.312-1.562-1.968-3.781-1.968-6.656v-20.969h-6.157v-4.468h6.157V193h5.781zm10.937 24.781c0-3.312.646-6.291 1.938-8.937 1.312-2.646 3.125-4.688 5.437-6.125 2.334-1.438 4.99-2.157 7.969-2.157 4.604 0 8.323 1.594 11.156 4.782 2.854 3.187 4.282 7.427 4.282 12.718v.407c0 3.291-.636 6.25-1.907 8.875-1.25 2.604-3.052 4.635-5.406 6.094-2.333 1.458-5.021 2.187-8.063 2.187-4.583 0-8.302-1.594-11.156-4.781-2.833-3.188-4.25-7.406-4.25-12.656v-.407zm5.813.688c0 3.75.864 6.76 2.593 9.031 1.75 2.271 4.084 3.406 7 3.406 2.938 0 5.271-1.146 7-3.437 1.73-2.313 2.594-5.542 2.594-9.688 0-3.708-.885-6.708-2.656-9-1.75-2.312-4.083-3.469-7-3.469-2.854 0-5.156 1.136-6.906 3.407s-2.625 5.521-2.625 9.75zm55.906-9.031h4.344c2.729-.042 4.875-.761 6.437-2.157 1.563-1.396 2.344-3.281 2.344-5.656 0-5.333-2.656-8-7.969-8-2.5 0-4.5.719-6 2.156-1.479 1.417-2.219 3.302-2.219 5.657h-5.781c0-3.605 1.313-6.594 3.938-8.969 2.646-2.396 6-3.594 10.062-3.594 4.292 0 7.657 1.135 10.094 3.406 2.435 2.271 3.655 5.427 3.655 9.469 0 1.979-.64 3.896-1.936 5.75-1.271 1.854-3.011 3.24-5.219 4.156 2.5.792 4.427 2.104 5.785 3.938 1.37 1.833 2.06 4.073 2.06 6.718 0 4.084-1.33 7.323-4.001 9.719-2.667 2.396-6.136 3.594-10.407 3.594-4.27 0-7.75-1.156-10.437-3.469-2.667-2.312-4-5.364-4-9.156h5.813c0 2.396.781 4.312 2.343 5.75 1.563 1.438 3.657 2.156 6.281 2.156 2.792 0 4.928-.729 6.407-2.187 1.479-1.459 2.219-3.552 2.219-6.281 0-2.646-.813-4.678-2.438-6.094-1.625-1.417-3.969-2.146-7.031-2.188h-4.344v-4.718zm28.255 22.531c0-1 .29-1.834.87-2.5.6-.667 1.5-1 2.69-1 1.18 0 2.08.333 2.68 1 .63.666.94 1.5.94 2.5 0 .958-.31 1.76-.94 2.406-.6.646-1.5.969-2.68.969-1.19 0-2.09-.323-2.69-.969-.58-.646-.87-1.448-.87-2.406zm16.87 0c0-1 .29-1.834.87-2.5.61-.667 1.5-1 2.69-1s2.09.333 2.69 1c.62.666.94 1.5.94 2.5 0 .958-.32 1.76-.94 2.406-.6.646-1.5.969-2.69.969s-2.08-.323-2.69-.969c-.58-.646-.87-1.448-.87-2.406zm16.87 0c0-1 .3-1.834.88-2.5.6-.667 1.5-1 2.69-1s2.08.333 2.69 1c.62.666.93 1.5.93 2.5 0 .958-.31 1.76-.93 2.406-.61.646-1.5.969-2.69.969s-2.09-.323-2.69-.969c-.58-.646-.88-1.448-.88-2.406zM280.633 86.117c0 10.031-1.688 18.797-5.063 26.297-3.375 7.453-8.156 13.148-14.343 17.086-6.188 3.938-13.407 5.906-21.657 5.906-8.062 0-15.211-1.968-21.445-5.906-6.234-3.984-11.086-9.633-14.555-16.945-3.422-7.36-5.179-15.868-5.273-25.524v-7.383c0-9.843 1.711-18.539 5.133-26.085 3.422-7.547 8.25-13.313 14.484-17.297 6.281-4.032 13.453-6.047 21.516-6.047 8.203 0 15.422 1.992 21.656 5.976 6.281 3.938 11.109 9.68 14.484 17.227 3.375 7.5 5.063 16.242 5.063 26.226v6.47zm-13.43-6.61c0-12.14-2.437-21.445-7.312-27.913-4.875-6.516-11.696-9.774-20.461-9.774-8.532 0-15.258 3.258-20.18 9.774-4.875 6.468-7.383 15.468-7.523 27v7.523c0 11.766 2.461 21.024 7.382 27.774 4.969 6.703 11.789 10.054 20.461 10.054 8.719 0 15.469-3.164 20.25-9.492 4.782-6.375 7.242-15.492 7.383-27.351v-7.594zm99 36.563l14.625-58.148h13.008L371.688 134h-10.547l-18.493-57.656-18 57.656h-10.546l-22.079-76.078h12.938l14.977 56.953 17.718-56.953h10.477l18.07 58.148zM421.258 134H408.25V26h13.008v108zm137.32 0h-13.57V86.68h-51.61V134h-13.5V31.625h13.5v44.016h51.61V31.625h13.57V134zm18.492-38.742c0-7.453 1.453-14.156 4.36-20.11 2.953-5.953 7.031-10.546 12.234-13.78 5.25-3.235 11.227-4.852 17.93-4.852 10.359 0 18.726 3.586 25.101 10.757 6.422 7.172 9.633 16.711 9.633 28.618v.914c0 7.406-1.43 14.062-4.289 19.968-2.812 5.86-6.867 10.43-12.164 13.711-5.25 3.282-11.297 4.922-18.141 4.922-10.312 0-18.679-3.586-25.101-10.758-6.375-7.171-9.563-16.664-9.563-28.476v-.914zm13.078 1.547c0 8.437 1.946 15.211 5.836 20.32 3.938 5.109 9.188 7.664 15.75 7.664 6.61 0 11.86-2.578 15.75-7.734 3.891-5.203 5.836-12.469 5.836-21.797 0-8.344-1.992-15.094-5.976-20.25-3.938-5.203-9.188-7.805-15.75-7.805-6.422 0-11.602 2.555-15.539 7.664-3.938 5.11-5.907 12.422-5.907 21.938zm69.047-1.547c0-7.453 1.453-14.156 4.36-20.11 2.953-5.953 7.031-10.546 12.234-13.78 5.25-3.235 11.227-4.852 17.93-4.852 10.359 0 18.726 3.586 25.101 10.757 6.422 7.172 9.633 16.711 9.633 28.618v.914c0 7.406-1.43 14.062-4.289 19.968-2.812 5.86-6.867 10.43-12.164 13.711-5.25 3.282-11.297 4.922-18.141 4.922-10.312 0-18.679-3.586-25.101-10.758-6.375-7.171-9.563-16.664-9.563-28.476v-.914zm13.078 1.547c0 8.437 1.946 15.211 5.836 20.32 3.938 5.109 9.188 7.664 15.75 7.664 6.61 0 11.86-2.578 15.75-7.734 3.891-5.203 5.836-12.469 5.836-21.797 0-8.344-1.992-15.094-5.976-20.25-3.938-5.203-9.188-7.805-15.75-7.805-6.422 0-11.602 2.555-15.539 7.664-3.938 5.11-5.907 12.422-5.907 21.938zM762.414 39.5v18.422h14.203v10.055h-14.203v47.179c0 3.047.633 5.344 1.898 6.891 1.266 1.5 3.422 2.25 6.469 2.25 1.5 0 3.563-.281 6.188-.844V134c-3.422.938-6.75 1.406-9.985 1.406-5.812 0-10.195-1.758-13.148-5.273-2.953-3.516-4.43-8.508-4.43-14.977v-47.18h-13.851V57.923h13.851V39.5h13.008z"/>
  <path fill="#C4C4C4" d="M1339 1297h1217v213H1339zM1339 1542h1217v213H1339zM1339 1787h1217v213H1339z"/>
  <path fill="#000" d="M1636.77 1403.52c-1.27 10.82-5.28 19.19-12.03 25.1-6.7 5.86-15.63 8.79-26.79 8.79-12.09 0-21.79-4.34-29.11-13.01-7.26-8.67-10.89-20.28-10.89-34.81v-9.84c0-9.52 1.68-17.88 5.06-25.1 3.42-7.22 8.25-12.75 14.48-16.6 6.24-3.89 13.46-5.83 21.66-5.83 10.87 0 19.59 3.05 26.15 9.14 6.57 6.05 10.39 14.44 11.47 25.17h-13.57c-1.18-8.15-3.73-14.06-7.67-17.72-3.89-3.65-9.35-5.48-16.38-5.48-8.63 0-15.4 3.19-20.32 9.56-4.88 6.38-7.31 15.45-7.31 27.21v9.92c0 11.1 2.32 19.94 6.96 26.5 4.64 6.57 11.13 9.85 19.47 9.85 7.5 0 13.25-1.69 17.23-5.07 4.03-3.42 6.7-9.35 8.02-17.78h13.57zm53.22-31.93c-1.97-.32-4.1-.49-6.4-.49-8.53 0-14.32 3.63-17.36 10.9v54h-13.01v-76.08h12.66l.21 8.79c4.26-6.8 10.31-10.19 18.14-10.19 2.53 0 4.45.32 5.76.98v12.09zm42.19 65.82c-10.31 0-18.7-3.38-25.17-10.13-6.47-6.8-9.71-15.87-9.71-27.21v-2.39c0-7.55 1.43-14.27 4.29-20.18 2.91-5.95 6.94-10.59 12.1-13.92 5.2-3.38 10.83-5.06 16.87-5.06 9.89 0 17.58 3.25 23.06 9.77 5.49 6.51 8.23 15.84 8.23 27.98v5.42h-51.54c.19 7.5 2.37 13.57 6.54 18.21 4.22 4.59 9.56 6.89 16.03 6.89 4.6 0 8.49-.94 11.67-2.81 3.19-1.88 5.98-4.36 8.37-7.46l7.95 6.19c-6.38 9.8-15.94 14.7-28.69 14.7zm-1.62-68.21c-5.25 0-9.65 1.92-13.22 5.77-3.56 3.8-5.76 9.14-6.61 16.03h38.11v-.98c-.37-6.61-2.15-11.72-5.34-15.33-3.19-3.66-7.5-5.49-12.94-5.49zm93.38 66.8c-.75-1.5-1.36-4.17-1.83-8.02-6.05 6.29-13.27 9.43-21.66 9.43-7.5 0-13.66-2.11-18.49-6.33-4.78-4.27-7.17-9.66-7.17-16.17 0-7.93 3-14.07 9-18.43 6.05-4.4 14.53-6.6 25.45-6.6h12.66v-5.98c0-4.55-1.36-8.16-4.08-10.83-2.72-2.72-6.73-4.08-12.02-4.08-4.64 0-8.53 1.17-11.68 3.52-3.14 2.34-4.71 5.18-4.71 8.51h-13.07c0-3.8 1.33-7.46 4-10.97 2.72-3.57 6.38-6.38 10.97-8.44 4.64-2.06 9.73-3.09 15.26-3.09 8.77 0 15.63 2.2 20.6 6.6 4.97 4.36 7.55 10.39 7.74 18.08v35.01c0 6.99.89 12.54 2.67 16.67v1.12h-13.64zm-21.59-9.91c4.08 0 7.95-1.06 11.6-3.17 3.66-2.11 6.31-4.85 7.95-8.22v-15.61h-10.2c-15.93 0-23.9 4.66-23.9 13.99 0 4.08 1.36 7.26 4.08 9.56 2.71 2.3 6.21 3.45 10.47 3.45zm89.72-54.5c-1.97-.32-4.1-.49-6.4-.49-8.53 0-14.32 3.63-17.37 10.9v54h-13v-76.08h12.65l.21 8.79c4.27-6.8 10.32-10.19 18.14-10.19 2.54 0 4.46.32 5.77.98v12.09zm92.04 44.23c0-3.52-1.34-6.23-4.01-8.16-2.62-1.96-7.24-3.65-13.85-5.06-6.56-1.4-11.79-3.09-15.68-5.06-3.84-1.97-6.7-4.31-8.58-7.03-1.83-2.72-2.74-5.96-2.74-9.71 0-6.23 2.63-11.5 7.87-15.82 5.3-4.31 12.05-6.46 20.26-6.46 8.62 0 15.6 2.22 20.95 6.68 5.39 4.45 8.08 10.14 8.08 17.08h-13.07c0-3.56-1.53-6.63-4.57-9.21-3-2.58-6.8-3.87-11.39-3.87-4.74 0-8.44 1.03-11.11 3.1-2.68 2.06-4.01 4.75-4.01 8.08 0 3.14 1.24 5.51 3.72 7.1 2.49 1.6 6.97 3.12 13.43 4.57 6.52 1.46 11.79 3.19 15.82 5.21 4.04 2.01 7.01 4.45 8.93 7.31 1.97 2.81 2.96 6.26 2.96 10.34 0 6.79-2.72 12.25-8.16 16.38-5.44 4.08-12.49 6.12-21.16 6.12-6.1 0-11.49-1.08-16.18-3.24-4.68-2.15-8.36-5.15-11.03-9-2.63-3.89-3.94-8.08-3.94-12.58h13.01c.23 4.36 1.96 7.82 5.2 10.4 3.28 2.53 7.59 3.8 12.94 3.8 4.92 0 8.86-.99 11.81-2.95 3-2.02 4.5-4.69 4.5-8.02zm61.52 21.59c-10.31 0-18.7-3.38-25.17-10.13-6.47-6.8-9.7-15.87-9.7-27.21v-2.39c0-7.55 1.43-14.27 4.29-20.18 2.9-5.95 6.93-10.59 12.09-13.92 5.2-3.38 10.83-5.06 16.88-5.06 9.89 0 17.57 3.25 23.06 9.77 5.48 6.51 8.22 15.84 8.22 27.98v5.42h-51.53c.18 7.5 2.36 13.57 6.53 18.21 4.22 4.59 9.57 6.89 16.04 6.89 4.59 0 8.48-.94 11.67-2.81 3.19-1.88 5.97-4.36 8.37-7.46l7.94 6.19c-6.37 9.8-15.94 14.7-28.69 14.7zm-1.61-68.21c-5.25 0-9.66 1.92-13.22 5.77-3.57 3.8-5.77 9.14-6.61 16.03h38.11v-.98c-.38-6.61-2.16-11.72-5.35-15.33-3.18-3.66-7.5-5.49-12.93-5.49zm90.7 46.62c0-3.52-1.34-6.23-4.01-8.16-2.62-1.96-7.24-3.65-13.85-5.06-6.56-1.4-11.79-3.09-15.68-5.06-3.84-1.97-6.7-4.31-8.58-7.03-1.83-2.72-2.74-5.96-2.74-9.71 0-6.23 2.62-11.5 7.87-15.82 5.3-4.31 12.05-6.46 20.25-6.46 8.63 0 15.61 2.22 20.96 6.68 5.39 4.45 8.08 10.14 8.08 17.08h-13.07c0-3.56-1.53-6.63-4.57-9.21-3-2.58-6.8-3.87-11.4-3.87-4.73 0-8.43 1.03-11.1 3.1-2.68 2.06-4.01 4.75-4.01 8.08 0 3.14 1.24 5.51 3.72 7.1 2.49 1.6 6.96 3.12 13.43 4.57 6.52 1.46 11.79 3.19 15.82 5.21 4.04 2.01 7.01 4.45 8.93 7.31 1.97 2.81 2.96 6.26 2.96 10.34 0 6.79-2.72 12.25-8.16 16.38-5.44 4.08-12.49 6.12-21.16 6.12-6.1 0-11.49-1.08-16.18-3.24-4.68-2.15-8.36-5.15-11.03-9-2.63-3.89-3.94-8.08-3.94-12.58h13.01c.23 4.36 1.96 7.82 5.2 10.4 3.28 2.53 7.59 3.8 12.94 3.8 4.92 0 8.86-.99 11.81-2.95 3-2.02 4.5-4.69 4.5-8.02zm44.08 20.18h-13v-76.08h13V1436zm-14.06-96.26c0-2.11.64-3.89 1.9-5.34 1.31-1.45 3.24-2.18 5.77-2.18 2.53 0 4.45.73 5.76 2.18 1.31 1.45 1.97 3.23 1.97 5.34s-.66 3.87-1.97 5.28c-1.31 1.4-3.23 2.1-5.76 2.1s-4.46-.7-5.77-2.1c-1.26-1.41-1.9-3.17-1.9-5.28zm31.5 57.52c0-7.46 1.46-14.16 4.36-20.11 2.95-5.95 7.03-10.55 12.24-13.78 5.25-3.24 11.22-4.85 17.93-4.85 10.35 0 18.72 3.58 25.1 10.75 6.42 7.18 9.63 16.71 9.63 28.62v.91c0 7.41-1.43 14.07-4.29 19.97-2.81 5.86-6.87 10.43-12.16 13.71-5.25 3.29-11.3 4.93-18.14 4.93-10.32 0-18.68-3.59-25.11-10.76-6.37-7.17-9.56-16.67-9.56-28.48v-.91zm13.08 1.54c0 8.44 1.95 15.22 5.84 20.32 3.93 5.11 9.18 7.67 15.75 7.67 6.61 0 11.86-2.58 15.75-7.74 3.89-5.2 5.83-12.46 5.83-21.79 0-8.35-1.99-15.1-5.97-20.25-3.94-5.21-9.19-7.81-15.75-7.81-6.43 0-11.61 2.56-15.54 7.67-3.94 5.11-5.91 12.42-5.91 21.93zm27.35-70.8h15.75l-18.84 20.67h-10.48l13.57-20.67zm57.45 31.92l.42 9.56c5.81-7.31 13.41-10.96 22.78-10.96 16.08 0 24.19 9.07 24.33 27.21V1436h-13.01v-50.34c-.05-5.49-1.31-9.54-3.8-12.17-2.43-2.62-6.25-3.94-11.46-3.94-4.22 0-7.92 1.13-11.11 3.38-3.18 2.25-5.67 5.2-7.45 8.86V1436h-13.01v-76.08h12.31zM1596.24 1578.62v69.61c-.04 9.66-3.09 17.56-9.14 23.7-6 6.14-14.15 9.59-24.47 10.34l-3.58.14c-11.21 0-20.14-3.03-26.79-9.07-6.66-6.05-10.03-14.37-10.13-24.96v-69.76h13.36v69.33c0 7.41 2.04 13.17 6.12 17.3 4.08 4.08 9.89 6.12 17.44 6.12 7.64 0 13.47-2.04 17.5-6.12 4.08-4.08 6.12-9.82 6.12-17.23v-69.4h13.57zm31.57 26.3l.42 9.56c5.82-7.31 13.41-10.96 22.79-10.96 16.07 0 24.18 9.07 24.32 27.21V1681h-13v-50.34c-.05-5.49-1.32-9.54-3.8-12.17-2.44-2.62-6.26-3.94-11.46-3.94-4.22 0-7.92 1.13-11.11 3.38-3.19 2.25-5.67 5.2-7.45 8.86V1681h-13.01v-76.08h12.3zm81.28 76.08h-13v-76.08h13V1681zm-14.06-96.26c0-2.11.63-3.89 1.9-5.34 1.31-1.45 3.23-2.18 5.77-2.18 2.53 0 4.45.73 5.76 2.18 1.31 1.45 1.97 3.23 1.97 5.34s-.66 3.87-1.97 5.28c-1.31 1.4-3.23 2.1-5.76 2.1-2.54 0-4.46-.7-5.77-2.1-1.27-1.41-1.9-3.17-1.9-5.28zm71.72 31.85c-1.97-.32-4.1-.49-6.4-.49-8.53 0-14.32 3.63-17.37 10.9v54h-13v-76.08h12.65l.21 8.79c4.27-6.8 10.32-10.19 18.14-10.19 2.54 0 4.46.32 5.77.98v12.09zm56.32 44.23c0-3.52-1.34-6.23-4.01-8.16-2.62-1.96-7.24-3.65-13.85-5.06-6.56-1.4-11.79-3.09-15.68-5.06-3.84-1.97-6.7-4.31-8.58-7.03-1.83-2.72-2.74-5.96-2.74-9.71 0-6.23 2.63-11.5 7.88-15.82 5.29-4.31 12.04-6.46 20.25-6.46 8.62 0 15.61 2.22 20.95 6.68 5.39 4.45 8.09 10.14 8.09 17.08h-13.08c0-3.56-1.53-6.63-4.57-9.21-3-2.58-6.8-3.87-11.39-3.87-4.74 0-8.44 1.03-11.11 3.1-2.68 2.06-4.01 4.75-4.01 8.08 0 3.14 1.24 5.51 3.73 7.1 2.48 1.6 6.96 3.12 13.43 4.57 6.51 1.46 11.78 3.19 15.82 5.21 4.03 2.01 7 4.45 8.92 7.31 1.97 2.81 2.96 6.26 2.96 10.34 0 6.79-2.72 12.25-8.16 16.38-5.44 4.08-12.49 6.12-21.16 6.12-6.1 0-11.49-1.08-16.17-3.24-4.69-2.15-8.37-5.15-11.04-9-2.63-3.89-3.94-8.08-3.94-12.58h13.01c.23 4.36 1.97 7.82 5.2 10.4 3.28 2.53 7.59 3.8 12.94 3.8 4.92 0 8.86-.99 11.81-2.95 3-2.02 4.5-4.69 4.5-8.02zm61.52 21.59c-10.31 0-18.7-3.38-25.17-10.13-6.47-6.8-9.7-15.87-9.7-27.21v-2.39c0-7.55 1.43-14.27 4.29-20.18 2.9-5.95 6.94-10.59 12.09-13.92 5.2-3.38 10.83-5.06 16.88-5.06 9.89 0 17.57 3.25 23.06 9.77 5.48 6.51 8.23 15.84 8.23 27.98v5.42h-51.54c.18 7.5 2.36 13.57 6.54 18.21 4.21 4.59 9.56 6.89 16.03 6.89 4.59 0 8.48-.94 11.67-2.81 3.19-1.88 5.98-4.36 8.37-7.46l7.94 6.19c-6.37 9.8-15.94 14.7-28.69 14.7zm-1.61-68.21c-5.25 0-9.66 1.92-13.22 5.77-3.56 3.8-5.77 9.14-6.61 16.03h38.11v-.98c-.38-6.61-2.16-11.72-5.35-15.33-3.18-3.66-7.5-5.49-12.93-5.49zm126.42 46.62c0-3.52-1.34-6.23-4.01-8.16-2.62-1.96-7.24-3.65-13.85-5.06-6.56-1.4-11.79-3.09-15.68-5.06-3.84-1.97-6.7-4.31-8.58-7.03-1.83-2.72-2.74-5.96-2.74-9.71 0-6.23 2.62-11.5 7.87-15.82 5.3-4.31 12.05-6.46 20.25-6.46 8.63 0 15.61 2.22 20.96 6.68 5.39 4.45 8.08 10.14 8.08 17.08h-13.08c0-3.56-1.52-6.63-4.57-9.21-3-2.58-6.79-3.87-11.39-3.87-4.73 0-8.43 1.03-11.11 3.1-2.67 2.06-4 4.75-4 8.08 0 3.14 1.24 5.51 3.72 7.1 2.49 1.6 6.96 3.12 13.43 4.57 6.52 1.46 11.79 3.19 15.82 5.21 4.03 2.01 7.01 4.45 8.93 7.31 1.97 2.81 2.96 6.26 2.96 10.34 0 6.79-2.72 12.25-8.16 16.38-5.44 4.08-12.49 6.12-21.16 6.12-6.1 0-11.49-1.08-16.18-3.24-4.68-2.15-8.36-5.15-11.03-9-2.63-3.89-3.94-8.08-3.94-12.58h13.01c.23 4.36 1.96 7.82 5.2 10.4 3.28 2.53 7.59 3.8 12.94 3.8 4.92 0 8.86-.99 11.81-2.95 3-2.02 4.5-4.69 4.5-8.02zm61.52 21.59c-10.31 0-18.7-3.38-25.17-10.13-6.47-6.8-9.7-15.87-9.7-27.21v-2.39c0-7.55 1.43-14.27 4.29-20.18 2.9-5.95 6.93-10.59 12.09-13.92 5.2-3.38 10.83-5.06 16.87-5.06 9.9 0 17.58 3.25 23.07 9.77 5.48 6.51 8.22 15.84 8.22 27.98v5.42h-51.54c.19 7.5 2.37 13.57 6.54 18.21 4.22 4.59 9.57 6.89 16.03 6.89 4.6 0 8.49-.94 11.68-2.81 3.18-1.88 5.97-4.36 8.36-7.46l7.95 6.19c-6.38 9.8-15.94 14.7-28.69 14.7zm-1.62-68.21c-5.25 0-9.65 1.92-13.21 5.77-3.57 3.8-5.77 9.14-6.61 16.03h38.11v-.98c-.38-6.61-2.16-11.72-5.35-15.33-3.19-3.66-7.5-5.49-12.94-5.49zm90.71 46.62c0-3.52-1.34-6.23-4.01-8.16-2.62-1.96-7.24-3.65-13.85-5.06-6.56-1.4-11.79-3.09-15.68-5.06-3.85-1.97-6.7-4.31-8.58-7.03-1.83-2.72-2.74-5.96-2.74-9.71 0-6.23 2.62-11.5 7.87-15.82 5.3-4.31 12.05-6.46 20.25-6.46 8.63 0 15.61 2.22 20.96 6.68 5.39 4.45 8.08 10.14 8.08 17.08h-13.08c0-3.56-1.52-6.63-4.57-9.21-3-2.58-6.79-3.87-11.39-3.87-4.73 0-8.43 1.03-11.11 3.1-2.67 2.06-4 4.75-4 8.08 0 3.14 1.24 5.51 3.72 7.1 2.49 1.6 6.96 3.12 13.43 4.57 6.52 1.46 11.79 3.19 15.82 5.21 4.03 2.01 7.01 4.45 8.93 7.31 1.97 2.81 2.96 6.26 2.96 10.34 0 6.79-2.72 12.25-8.16 16.38-5.44 4.08-12.49 6.12-21.16 6.12-6.1 0-11.49-1.08-16.18-3.24-4.68-2.15-8.36-5.15-11.04-9-2.62-3.89-3.93-8.08-3.93-12.58h13c.24 4.36 1.97 7.82 5.21 10.4 3.28 2.53 7.59 3.8 12.94 3.8 4.92 0 8.85-.99 11.81-2.95 3-2.02 4.5-4.69 4.5-8.02zm44.08 20.18h-13v-76.08h13V1681zm-14.06-96.26c0-2.11.63-3.89 1.9-5.34 1.31-1.45 3.23-2.18 5.77-2.18 2.53 0 4.45.73 5.76 2.18 1.31 1.45 1.97 3.23 1.97 5.34s-.66 3.87-1.97 5.28c-1.31 1.4-3.23 2.1-5.76 2.1-2.54 0-4.46-.7-5.77-2.1-1.27-1.41-1.9-3.17-1.9-5.28zm31.5 57.52c0-7.46 1.45-14.16 4.36-20.11 2.95-5.95 7.03-10.55 12.23-13.78 5.26-3.24 11.23-4.85 17.93-4.85 10.36 0 18.73 3.58 25.11 10.75 6.42 7.18 9.63 16.71 9.63 28.62v.91c0 7.41-1.43 14.07-4.29 19.97-2.81 5.86-6.87 10.43-12.16 13.71-5.25 3.29-11.3 4.93-18.14 4.93-10.32 0-18.68-3.59-25.11-10.76-6.37-7.17-9.56-16.67-9.56-28.48v-.91zm13.08 1.54c0 8.44 1.94 15.22 5.84 20.32 3.93 5.11 9.18 7.67 15.75 7.67 6.6 0 11.85-2.58 15.75-7.74 3.89-5.2 5.83-12.46 5.83-21.79 0-8.35-1.99-15.1-5.98-20.25-3.93-5.21-9.18-7.81-15.75-7.81-6.42 0-11.6 2.56-15.53 7.67-3.94 5.11-5.91 12.42-5.91 21.93zm27.35-70.8h15.75l-18.84 20.67h-10.48l13.57-20.67zm57.45 31.92l.42 9.56c5.81-7.31 13.4-10.96 22.78-10.96 16.08 0 24.19 9.07 24.33 27.21V1681h-13.01v-50.34c-.05-5.49-1.31-9.54-3.8-12.17-2.43-2.62-6.25-3.94-11.46-3.94-4.22 0-7.92 1.13-11.11 3.38-3.18 2.25-5.67 5.2-7.45 8.86V1681h-13.01v-76.08h12.31zM1845.22 1880.37c-11.58-3.33-20.02-7.41-25.31-12.24-5.25-4.87-7.88-10.87-7.88-18 0-8.06 3.21-14.72 9.63-19.97 6.47-5.29 14.86-7.94 25.18-7.94 7.03 0 13.28 1.36 18.77 4.08 5.53 2.72 9.8 6.47 12.8 11.25 3.04 4.78 4.57 10 4.57 15.68h-13.57c0-6.19-1.97-11.04-5.91-14.56-3.94-3.56-9.49-5.34-16.66-5.34-6.66 0-11.86 1.47-15.61 4.43-3.71 2.9-5.56 6.96-5.56 12.16 0 4.17 1.76 7.71 5.28 10.62 3.56 2.86 9.58 5.48 18.07 7.87 8.53 2.39 15.18 5.04 19.96 7.95 4.83 2.86 8.4 6.21 10.69 10.05 2.35 3.85 3.52 8.37 3.52 13.57 0 8.3-3.24 14.96-9.71 19.97-6.46 4.97-15.11 7.46-25.94 7.46-7.03 0-13.59-1.34-19.69-4.01-6.09-2.72-10.8-6.42-14.13-11.11-3.28-4.69-4.92-10.01-4.92-15.96h13.57c0 6.19 2.27 11.08 6.82 14.69 4.59 3.57 10.71 5.35 18.35 5.35 7.12 0 12.58-1.46 16.38-4.36 3.8-2.91 5.7-6.87 5.7-11.89 0-5.01-1.76-8.88-5.28-11.6-3.51-2.76-9.89-5.48-19.12-8.15zm100.26 45.63c-.75-1.5-1.36-4.17-1.82-8.02-6.05 6.29-13.27 9.43-21.66 9.43-7.5 0-13.66-2.11-18.49-6.33-4.78-4.27-7.17-9.66-7.17-16.17 0-7.93 3-14.07 9-18.43 6.04-4.4 14.53-6.6 25.45-6.6h12.66v-5.98c0-4.55-1.36-8.16-4.08-10.83-2.72-2.72-6.73-4.08-12.03-4.08-4.64 0-8.53 1.17-11.67 3.52-3.14 2.34-4.71 5.18-4.71 8.51h-13.08c0-3.8 1.34-7.46 4.01-10.97 2.72-3.57 6.38-6.38 10.97-8.44 4.64-2.06 9.73-3.09 15.26-3.09 8.76 0 15.63 2.2 20.6 6.6 4.97 4.36 7.55 10.39 7.73 18.08v35.01c0 6.99.89 12.54 2.67 16.67v1.12h-13.64zm-21.58-9.91c4.08 0 7.94-1.06 11.6-3.17 3.66-2.11 6.3-4.85 7.95-8.22v-15.61h-10.2c-15.94 0-23.91 4.66-23.91 13.99 0 4.08 1.36 7.26 4.08 9.56 2.72 2.3 6.21 3.45 10.48 3.45zm67.08 9.91h-13.01v-108h13.01v108zm35.01 0h-13.01v-76.08h13.01V1926zm-14.06-96.26c0-2.11.63-3.89 1.9-5.34 1.31-1.45 3.23-2.18 5.76-2.18s4.46.73 5.77 2.18c1.31 1.45 1.97 3.23 1.97 5.34s-.66 3.87-1.97 5.28c-1.31 1.4-3.24 2.1-5.77 2.1-2.53 0-4.45-.7-5.76-2.1-1.27-1.41-1.9-3.17-1.9-5.28zm71.72 31.85c-1.97-.32-4.1-.49-6.4-.49-8.53 0-14.32 3.63-17.37 10.9v54h-13v-76.08h12.65l.21 8.79c4.27-6.8 10.31-10.19 18.14-10.19 2.53 0 4.46.32 5.77.98v12.09z"/>
  <path stroke="#000" d="M0 2088.5h3898"/>
  <path fill="#000" d="M2859.5 2150.3c0-7.07.94-13.85 2.81-20.35 1.91-6.5 4.74-12.4 8.49-17.72 3.75-5.31 7.64-9.06 11.67-11.25l1.78 5.72c-4.56 3.5-8.31 8.85-11.25 16.03-2.91 7.19-4.5 15.24-4.78 24.15l-.05 3.98c0 12.06 2.21 22.53 6.61 31.41 2.66 5.31 5.81 9.46 9.47 12.46l-1.78 5.3c-4.16-2.31-8.13-6.19-11.91-11.62-7.37-10.63-11.06-23.33-11.06-38.11zm53.48 21.56c3.1 0 5.8-.94 8.11-2.81 2.32-1.88 3.6-4.22 3.85-7.03h8.2c-.16 2.9-1.16 5.67-3 8.29-1.84 2.63-4.31 4.72-7.41 6.28a21.06 21.06 0 01-9.75 2.35c-6.9 0-12.4-2.3-16.5-6.89-4.06-4.63-6.09-10.94-6.09-18.94v-1.45c0-4.94.91-9.33 2.72-13.18 1.81-3.84 4.41-6.82 7.78-8.95 3.41-2.12 7.42-3.19 12.05-3.19 5.68 0 10.4 1.71 14.15 5.11 3.79 3.41 5.8 7.83 6.05 13.27h-8.2c-.25-3.28-1.5-5.97-3.75-8.06-2.22-2.13-4.97-3.19-8.25-3.19-4.41 0-7.83 1.59-10.27 4.78-2.4 3.16-3.61 7.73-3.61 13.73v1.64c0 5.85 1.21 10.35 3.61 13.5 2.41 3.16 5.85 4.74 10.31 4.74zm49.93-21.09c0 6.96-.93 13.65-2.77 20.06a58.613 58.613 0 01-8.39 17.67c-3.75 5.41-7.69 9.25-11.81 11.53l-1.83-5.3c4.81-3.68 8.67-9.4 11.58-17.15 2.93-7.78 4.43-16.41 4.5-25.88v-1.5c0-6.56-.69-12.65-2.07-18.28-1.37-5.65-3.29-10.72-5.76-15.19-2.44-4.46-5.19-7.95-8.25-10.45l1.83-5.3c4.12 2.29 8.04 6.1 11.76 11.44 3.75 5.35 6.55 11.24 8.39 17.67 1.88 6.44 2.82 13.33 2.82 20.68zm90.98 27.23h-9.05v-31.55h-34.4V2178h-9v-68.25h9v29.34h34.4v-29.34h9.05V2178zm35.67.94c-6.87 0-12.47-2.25-16.78-6.75-4.31-4.53-6.47-10.58-6.47-18.14v-1.6c0-5.03.96-9.51 2.86-13.45 1.94-3.97 4.63-7.06 8.06-9.28 3.47-2.25 7.22-3.38 11.25-3.38 6.6 0 11.72 2.18 15.38 6.52s5.48 10.56 5.48 18.66v3.6h-34.36c.13 5 1.58 9.05 4.36 12.15 2.82 3.06 6.38 4.59 10.69 4.59 3.06 0 5.66-.63 7.78-1.88 2.13-1.25 3.99-2.9 5.58-4.96l5.3 4.12c-4.25 6.53-10.63 9.8-19.13 9.8zm-1.08-45.47c-3.5 0-6.43 1.28-8.81 3.84-2.37 2.53-3.84 6.1-4.4 10.69h25.4v-.66c-.25-4.4-1.44-7.81-3.56-10.22-2.13-2.43-5-3.65-8.63-3.65zm51.29 38.39c3.09 0 5.79-.94 8.11-2.81 2.31-1.88 3.59-4.22 3.84-7.03h8.2c-.15 2.9-1.15 5.67-3 8.29-1.84 2.63-4.31 4.72-7.4 6.28a21.119 21.119 0 01-9.75 2.35c-6.91 0-12.41-2.3-16.5-6.89-4.07-4.63-6.1-10.94-6.1-18.94v-1.45c0-4.94.91-9.33 2.72-13.18 1.81-3.84 4.41-6.82 7.78-8.95 3.41-2.12 7.42-3.19 12.05-3.19 5.69 0 10.4 1.71 14.16 5.11 3.78 3.41 5.79 7.83 6.04 13.27h-8.2c-.25-3.28-1.5-5.97-3.75-8.06-2.22-2.13-4.97-3.19-8.25-3.19-4.41 0-7.83 1.59-10.27 4.78-2.4 3.16-3.61 7.73-3.61 13.73v1.64c0 5.85 1.21 10.35 3.61 13.5 2.41 3.16 5.85 4.74 10.32 4.74zm38.57-38.44c3.85-4.72 8.85-7.08 15-7.08 10.72 0 16.13 6.05 16.22 18.14V2178h-8.67v-33.56c-.03-3.66-.87-6.36-2.53-8.11-1.63-1.75-4.17-2.63-7.64-2.63-2.81 0-5.28.75-7.41 2.25-2.12 1.5-3.78 3.47-4.97 5.91V2178h-8.67v-72h8.67v27.42zm41.91 18.75c0-4.97.97-9.44 2.91-13.4 1.96-3.97 4.68-7.04 8.15-9.19 3.5-2.16 7.49-3.24 11.96-3.24 6.9 0 12.48 2.39 16.73 7.18 4.28 4.78 6.42 11.14 6.42 19.07v.61c0 4.94-.95 9.38-2.86 13.32-1.87 3.9-4.58 6.95-8.11 9.14-3.5 2.18-7.53 3.28-12.09 3.28-6.88 0-12.45-2.39-16.74-7.17-4.24-4.79-6.37-11.11-6.37-18.99v-.61zm8.72 1.03c0 5.63 1.3 10.14 3.89 13.55 2.62 3.41 6.12 5.11 10.5 5.11 4.41 0 7.91-1.72 10.5-5.16 2.59-3.47 3.89-8.31 3.89-14.53 0-5.56-1.33-10.06-3.98-13.5-2.63-3.47-6.13-5.2-10.5-5.2-4.29 0-7.74 1.7-10.36 5.11-2.63 3.4-3.94 8.28-3.94 14.62zm114.98 0c0 7.72-1.76 13.94-5.29 18.66-3.54 4.72-8.32 7.08-14.35 7.08-6.15 0-11-1.96-14.53-5.86v24.42h-8.67v-70.22h7.92l.42 5.63c3.53-4.38 8.44-6.57 14.72-6.57 6.1 0 10.91 2.3 14.44 6.89 3.56 4.6 5.34 10.99 5.34 19.18v.79zm-8.67-.98c0-5.72-1.22-10.24-3.66-13.55-2.43-3.31-5.78-4.97-10.03-4.97-5.25 0-9.18 2.33-11.81 6.99v24.23c2.6 4.63 6.56 6.94 11.91 6.94 4.15 0 7.45-1.64 9.89-4.92 2.47-3.32 3.7-8.22 3.7-14.72zm17.44-.05c0-4.97.97-9.44 2.9-13.4 1.97-3.97 4.69-7.04 8.16-9.19 3.5-2.16 7.49-3.24 11.95-3.24 6.91 0 12.49 2.39 16.74 7.18 4.28 4.78 6.42 11.14 6.42 19.07v.61c0 4.94-.95 9.38-2.86 13.32-1.87 3.9-4.58 6.95-8.11 9.14-3.5 2.18-7.53 3.28-12.09 3.28-6.88 0-12.45-2.39-16.74-7.17-4.25-4.79-6.37-11.11-6.37-18.99v-.61zm8.72 1.03c0 5.63 1.29 10.14 3.89 13.55 2.62 3.41 6.12 5.11 10.5 5.11 4.4 0 7.9-1.72 10.5-5.16 2.59-3.47 3.89-8.31 3.89-14.53 0-5.56-1.33-10.06-3.99-13.5-2.62-3.47-6.12-5.2-10.5-5.2-4.28 0-7.73 1.7-10.35 5.11-2.63 3.4-3.94 8.28-3.94 14.62zm72.84-18.14c-1.31-.22-2.73-.33-4.26-.33-5.69 0-9.55 2.43-11.58 7.27v36h-8.67v-50.72h8.43l.14 5.86c2.85-4.53 6.88-6.8 12.1-6.8 1.68 0 2.97.22 3.84.66v8.06zm7.74 38.39c0-1.5.43-2.75 1.31-3.75.9-1 2.25-1.5 4.03-1.5 1.78 0 3.12.5 4.03 1.5.94 1 1.41 2.25 1.41 3.75 0 1.44-.47 2.64-1.41 3.61-.91.97-2.25 1.46-4.03 1.46-1.78 0-3.13-.49-4.03-1.46-.88-.97-1.31-2.17-1.31-3.61zm.04-41.39c0-1.5.44-2.75 1.32-3.75.9-1 2.24-1.5 4.03-1.5 1.78 0 3.12.5 4.03 1.5.94 1 1.4 2.25 1.4 3.75 0 1.44-.46 2.64-1.4 3.61-.91.97-2.25 1.45-4.03 1.45-1.79 0-3.13-.48-4.03-1.45-.88-.97-1.32-2.17-1.32-3.61zm47.49 41.39c0-1.5.43-2.75 1.31-3.75.91-1 2.25-1.5 4.03-1.5 1.78 0 3.13.5 4.03 1.5.94 1 1.41 2.25 1.41 3.75 0 1.44-.47 2.64-1.41 3.61-.9.97-2.25 1.46-4.03 1.46-1.78 0-3.12-.49-4.03-1.46-.88-.97-1.31-2.17-1.31-3.61zm25.31 0c0-1.5.44-2.75 1.31-3.75.91-1 2.25-1.5 4.03-1.5 1.78 0 3.13.5 4.03 1.5.94 1 1.41 2.25 1.41 3.75 0 1.44-.47 2.64-1.41 3.61-.9.97-2.25 1.46-4.03 1.46-1.78 0-3.12-.49-4.03-1.46-.87-.97-1.31-2.17-1.31-3.61zm25.31 0c0-1.5.44-2.75 1.31-3.75.91-1 2.25-1.5 4.04-1.5 1.78 0 3.12.5 4.03 1.5.93 1 1.4 2.25 1.4 3.75 0 1.44-.47 2.64-1.4 3.61-.91.97-2.25 1.46-4.03 1.46-1.79 0-3.13-.49-4.04-1.46-.87-.97-1.31-2.17-1.31-3.61z"/>
  <g>
    <path fill="#C4C4C4" d="M1562 398h777v777h-777z"/>
    <path stroke="#000" d="M1562.35 419.106l777 755.534M1561.65 1174.65l777-777.003"/>
  </g>
</svg>
