<svg width="3924" height="2251" viewBox="0 0 3924 2251" fill="none" xmlns="http://www.w3.org/2000/svg">
<g clip-path="url(#clip0)">
<path d="M13 13H3911V2238H13V13Z" fill="white"/>
<rect x="1352" y="1436" width="1217" height="213" fill="#33D325"/>
<rect x="1352" y="1733" width="1217" height="213" fill="#33D325"/>
<path d="M1649.77 1542.52C1648.5 1553.34 1644.49 1561.71 1637.74 1567.62C1631.04 1573.48 1622.11 1576.41 1610.95 1576.41C1598.86 1576.41 1589.16 1572.07 1581.84 1563.4C1574.58 1554.73 1570.95 1543.12 1570.95 1528.59V1518.75C1570.95 1509.23 1572.63 1500.87 1576.01 1493.65C1579.43 1486.43 1584.26 1480.9 1590.49 1477.05C1596.73 1473.16 1603.95 1471.22 1612.15 1471.22C1623.02 1471.22 1631.74 1474.27 1638.3 1480.36C1644.87 1486.41 1648.69 1494.8 1649.77 1505.53H1636.2C1635.02 1497.38 1632.47 1491.47 1628.53 1487.81C1624.64 1484.16 1619.18 1482.33 1612.15 1482.33C1603.52 1482.33 1596.75 1485.52 1591.83 1491.89C1586.95 1498.27 1584.52 1507.34 1584.52 1519.1V1529.02C1584.52 1540.12 1586.84 1548.96 1591.48 1555.52C1596.12 1562.09 1602.61 1565.37 1610.95 1565.37C1618.45 1565.37 1624.2 1563.68 1628.18 1560.3C1632.21 1556.88 1634.88 1550.95 1636.2 1542.52H1649.77ZM1702.99 1510.59C1701.02 1510.27 1698.89 1510.1 1696.59 1510.1C1688.06 1510.1 1682.27 1513.73 1679.23 1521V1575H1666.22V1498.92H1678.88L1679.09 1507.71C1683.35 1500.91 1689.4 1497.52 1697.23 1497.52C1699.76 1497.52 1701.68 1497.84 1702.99 1498.5V1510.59ZM1745.18 1576.41C1734.87 1576.41 1726.48 1573.03 1720.01 1566.28C1713.54 1559.48 1710.3 1550.41 1710.3 1539.07V1536.68C1710.3 1529.13 1711.73 1522.41 1714.59 1516.5C1717.5 1510.55 1721.53 1505.91 1726.69 1502.58C1731.89 1499.2 1737.52 1497.52 1743.56 1497.52C1753.45 1497.52 1761.14 1500.77 1766.62 1507.29C1772.11 1513.8 1774.85 1523.13 1774.85 1535.27V1540.69H1723.31C1723.5 1548.19 1725.68 1554.26 1729.85 1558.9C1734.07 1563.49 1739.41 1565.79 1745.88 1565.79C1750.48 1565.79 1754.37 1564.85 1757.55 1562.98C1760.74 1561.1 1763.53 1558.62 1765.92 1555.52L1773.87 1561.71C1767.49 1571.51 1757.93 1576.41 1745.18 1576.41ZM1743.56 1508.2C1738.31 1508.2 1733.91 1510.12 1730.34 1513.97C1726.78 1517.77 1724.58 1523.11 1723.73 1530H1761.84V1529.02C1761.47 1522.41 1759.69 1517.3 1756.5 1513.69C1753.31 1510.03 1749 1508.2 1743.56 1508.2ZM1836.94 1575C1836.19 1573.5 1835.58 1570.83 1835.11 1566.98C1829.06 1573.27 1821.84 1576.41 1813.45 1576.41C1805.95 1576.41 1799.79 1574.3 1794.96 1570.08C1790.18 1565.81 1787.79 1560.42 1787.79 1553.91C1787.79 1545.98 1790.79 1539.84 1796.79 1535.48C1802.84 1531.08 1811.32 1528.88 1822.24 1528.88H1834.9V1522.9C1834.9 1518.35 1833.54 1514.74 1830.82 1512.07C1828.1 1509.35 1824.09 1507.99 1818.8 1507.99C1814.16 1507.99 1810.27 1509.16 1807.12 1511.51C1803.98 1513.85 1802.41 1516.69 1802.41 1520.02H1789.34C1789.34 1516.22 1790.67 1512.56 1793.34 1509.05C1796.06 1505.48 1799.72 1502.67 1804.31 1500.61C1808.95 1498.55 1814.04 1497.52 1819.57 1497.52C1828.34 1497.52 1835.2 1499.72 1840.17 1504.12C1845.14 1508.48 1847.72 1514.51 1847.91 1522.2V1557.21C1847.91 1564.2 1848.8 1569.75 1850.58 1573.88V1575H1836.94ZM1815.35 1565.09C1819.43 1565.09 1823.3 1564.03 1826.95 1561.92C1830.61 1559.81 1833.26 1557.07 1834.9 1553.7V1538.09H1824.7C1808.77 1538.09 1800.8 1542.75 1800.8 1552.08C1800.8 1556.16 1802.16 1559.34 1804.88 1561.64C1807.59 1563.94 1811.09 1565.09 1815.35 1565.09ZM1905.07 1510.59C1903.1 1510.27 1900.97 1510.1 1898.67 1510.1C1890.14 1510.1 1884.35 1513.73 1881.3 1521V1575H1868.3V1498.92H1880.95L1881.16 1507.71C1885.43 1500.91 1891.48 1497.52 1899.3 1497.52C1901.84 1497.52 1903.76 1497.84 1905.07 1498.5V1510.59ZM1997.11 1554.82C1997.11 1551.3 1995.77 1548.59 1993.1 1546.66C1990.48 1544.7 1985.86 1543.01 1979.25 1541.6C1972.69 1540.2 1967.46 1538.51 1963.57 1536.54C1959.73 1534.57 1956.87 1532.23 1954.99 1529.51C1953.16 1526.79 1952.25 1523.55 1952.25 1519.8C1952.25 1513.57 1954.88 1508.3 1960.12 1503.98C1965.42 1499.67 1972.17 1497.52 1980.38 1497.52C1989 1497.52 1995.98 1499.74 2001.33 1504.2C2006.72 1508.65 2009.41 1514.34 2009.41 1521.28H1996.34C1996.34 1517.72 1994.81 1514.65 1991.77 1512.07C1988.77 1509.49 1984.97 1508.2 1980.38 1508.2C1975.64 1508.2 1971.94 1509.23 1969.27 1511.3C1966.59 1513.36 1965.26 1516.05 1965.26 1519.38C1965.26 1522.52 1966.5 1524.89 1968.98 1526.48C1971.47 1528.08 1975.95 1529.6 1982.41 1531.05C1988.93 1532.51 1994.2 1534.24 1998.23 1536.26C2002.27 1538.27 2005.24 1540.71 2007.16 1543.57C2009.13 1546.38 2010.12 1549.83 2010.12 1553.91C2010.12 1560.7 2007.4 1566.16 2001.96 1570.29C1996.52 1574.37 1989.47 1576.41 1980.8 1576.41C1974.7 1576.41 1969.31 1575.33 1964.62 1573.17C1959.94 1571.02 1956.26 1568.02 1953.59 1564.17C1950.96 1560.28 1949.65 1556.09 1949.65 1551.59H1962.66C1962.89 1555.95 1964.62 1559.41 1967.86 1561.99C1971.14 1564.52 1975.45 1565.79 1980.8 1565.79C1985.72 1565.79 1989.66 1564.8 1992.61 1562.84C1995.61 1560.82 1997.11 1558.15 1997.11 1554.82ZM2058.63 1576.41C2048.32 1576.41 2039.93 1573.03 2033.46 1566.28C2026.99 1559.48 2023.76 1550.41 2023.76 1539.07V1536.68C2023.76 1529.13 2025.19 1522.41 2028.05 1516.5C2030.95 1510.55 2034.98 1505.91 2040.14 1502.58C2045.34 1499.2 2050.97 1497.52 2057.02 1497.52C2066.91 1497.52 2074.59 1500.77 2080.08 1507.29C2085.56 1513.8 2088.3 1523.13 2088.3 1535.27V1540.69H2036.77C2036.95 1548.19 2039.13 1554.26 2043.3 1558.9C2047.52 1563.49 2052.87 1565.79 2059.34 1565.79C2063.93 1565.79 2067.82 1564.85 2071.01 1562.98C2074.2 1561.1 2076.98 1558.62 2079.38 1555.52L2087.32 1561.71C2080.95 1571.51 2071.38 1576.41 2058.63 1576.41ZM2057.02 1508.2C2051.77 1508.2 2047.36 1510.12 2043.8 1513.97C2040.23 1517.77 2038.03 1523.11 2037.19 1530H2075.3V1529.02C2074.92 1522.41 2073.14 1517.3 2069.95 1513.69C2066.77 1510.03 2062.45 1508.2 2057.02 1508.2ZM2147.72 1554.82C2147.72 1551.3 2146.38 1548.59 2143.71 1546.66C2141.09 1544.7 2136.47 1543.01 2129.86 1541.6C2123.3 1540.2 2118.07 1538.51 2114.18 1536.54C2110.34 1534.57 2107.48 1532.23 2105.6 1529.51C2103.77 1526.79 2102.86 1523.55 2102.86 1519.8C2102.86 1513.57 2105.48 1508.3 2110.73 1503.98C2116.03 1499.67 2122.78 1497.52 2130.98 1497.52C2139.61 1497.52 2146.59 1499.74 2151.94 1504.2C2157.33 1508.65 2160.02 1514.34 2160.02 1521.28H2146.95C2146.95 1517.72 2145.42 1514.65 2142.38 1512.07C2139.38 1509.49 2135.58 1508.2 2130.98 1508.2C2126.25 1508.2 2122.55 1509.23 2119.88 1511.3C2117.2 1513.36 2115.87 1516.05 2115.87 1519.38C2115.87 1522.52 2117.11 1524.89 2119.59 1526.48C2122.08 1528.08 2126.55 1529.6 2133.02 1531.05C2139.54 1532.51 2144.81 1534.24 2148.84 1536.26C2152.88 1538.27 2155.85 1540.71 2157.77 1543.57C2159.74 1546.38 2160.73 1549.83 2160.73 1553.91C2160.73 1560.7 2158.01 1566.16 2152.57 1570.29C2147.13 1574.37 2140.08 1576.41 2131.41 1576.41C2125.31 1576.41 2119.92 1575.33 2115.23 1573.17C2110.55 1571.02 2106.87 1568.02 2104.2 1564.17C2101.57 1560.28 2100.26 1556.09 2100.26 1551.59H2113.27C2113.5 1555.95 2115.23 1559.41 2118.47 1561.99C2121.75 1564.52 2126.06 1565.79 2131.41 1565.79C2136.33 1565.79 2140.27 1564.8 2143.22 1562.84C2146.22 1560.82 2147.72 1558.15 2147.72 1554.82ZM2191.8 1575H2178.8V1498.92H2191.8V1575ZM2177.74 1478.74C2177.74 1476.63 2178.38 1474.85 2179.64 1473.4C2180.95 1471.95 2182.88 1471.22 2185.41 1471.22C2187.94 1471.22 2189.86 1471.95 2191.17 1473.4C2192.48 1474.85 2193.14 1476.63 2193.14 1478.74C2193.14 1480.85 2192.48 1482.61 2191.17 1484.02C2189.86 1485.42 2187.94 1486.12 2185.41 1486.12C2182.88 1486.12 2180.95 1485.42 2179.64 1484.02C2178.38 1482.61 2177.74 1480.85 2177.74 1478.74ZM2209.24 1536.26C2209.24 1528.8 2210.7 1522.1 2213.6 1516.15C2216.55 1510.2 2220.63 1505.6 2225.84 1502.37C2231.09 1499.13 2237.06 1497.52 2243.77 1497.52C2254.12 1497.52 2262.49 1501.1 2268.87 1508.27C2275.29 1515.45 2278.5 1524.98 2278.5 1536.89V1537.8C2278.5 1545.21 2277.07 1551.87 2274.21 1557.77C2271.4 1563.63 2267.34 1568.2 2262.05 1571.48C2256.8 1574.77 2250.75 1576.41 2243.91 1576.41C2233.59 1576.41 2225.23 1572.82 2218.8 1565.65C2212.43 1558.48 2209.24 1548.98 2209.24 1537.17V1536.26ZM2222.32 1537.8C2222.32 1546.24 2224.27 1553.02 2228.16 1558.12C2232.09 1563.23 2237.34 1565.79 2243.91 1565.79C2250.52 1565.79 2255.77 1563.21 2259.66 1558.05C2263.55 1552.85 2265.49 1545.59 2265.49 1536.26C2265.49 1527.91 2263.5 1521.16 2259.52 1516.01C2255.58 1510.8 2250.33 1508.2 2243.77 1508.2C2237.34 1508.2 2232.16 1510.76 2228.23 1515.87C2224.29 1520.98 2222.32 1528.29 2222.32 1537.8ZM2249.67 1467H2265.42L2246.58 1487.67H2236.1L2249.67 1467ZM2307.12 1498.92L2307.54 1508.48C2313.35 1501.17 2320.95 1497.52 2330.32 1497.52C2346.4 1497.52 2354.51 1506.59 2354.65 1524.73V1575H2341.64V1524.66C2341.59 1519.17 2340.33 1515.12 2337.84 1512.49C2335.41 1509.87 2331.59 1508.55 2326.38 1508.55C2322.16 1508.55 2318.46 1509.68 2315.27 1511.93C2312.09 1514.18 2309.6 1517.13 2307.82 1520.79V1575H2294.81V1498.92H2307.12Z" fill="black"/>
<path d="M1609.24 1769.62V1839.23C1609.2 1848.89 1606.15 1856.79 1600.1 1862.93C1594.1 1869.07 1585.95 1872.52 1575.63 1873.27L1572.05 1873.41C1560.84 1873.41 1551.91 1870.38 1545.26 1864.34C1538.6 1858.29 1535.23 1849.97 1535.13 1839.38V1769.62H1548.49V1838.95C1548.49 1846.36 1550.53 1852.12 1554.61 1856.25C1558.69 1860.33 1564.5 1862.37 1572.05 1862.37C1579.69 1862.37 1585.52 1860.33 1589.55 1856.25C1593.63 1852.17 1595.67 1846.43 1595.67 1839.02V1769.62H1609.24ZM1640.81 1795.92L1641.23 1805.48C1647.05 1798.17 1654.64 1794.52 1664.02 1794.52C1680.09 1794.52 1688.2 1803.59 1688.34 1821.73V1872H1675.34V1821.66C1675.29 1816.17 1674.02 1812.12 1671.54 1809.49C1669.1 1806.87 1665.28 1805.55 1660.08 1805.55C1655.86 1805.55 1652.16 1806.68 1648.97 1808.93C1645.78 1811.18 1643.3 1814.13 1641.52 1817.79V1872H1628.51V1795.92H1640.81ZM1722.09 1872H1709.09V1795.92H1722.09V1872ZM1708.03 1775.74C1708.03 1773.63 1708.66 1771.85 1709.93 1770.4C1711.24 1768.95 1713.16 1768.22 1715.7 1768.22C1718.23 1768.22 1720.15 1768.95 1721.46 1770.4C1722.77 1771.85 1723.43 1773.63 1723.43 1775.74C1723.43 1777.85 1722.77 1779.61 1721.46 1781.02C1720.15 1782.42 1718.23 1783.12 1715.7 1783.12C1713.16 1783.12 1711.24 1782.42 1709.93 1781.02C1708.66 1779.61 1708.03 1777.85 1708.03 1775.74ZM1779.75 1807.59C1777.78 1807.27 1775.65 1807.1 1773.35 1807.1C1764.82 1807.1 1759.03 1810.73 1755.98 1818V1872H1742.98V1795.92H1755.63L1755.84 1804.71C1760.11 1797.91 1766.16 1794.52 1773.98 1794.52C1776.52 1794.52 1778.44 1794.84 1779.75 1795.5V1807.59ZM1836.07 1851.82C1836.07 1848.3 1834.73 1845.59 1832.06 1843.66C1829.44 1841.7 1824.82 1840.01 1818.21 1838.6C1811.65 1837.2 1806.42 1835.51 1802.53 1833.54C1798.69 1831.57 1795.83 1829.23 1793.95 1826.51C1792.12 1823.79 1791.21 1820.55 1791.21 1816.8C1791.21 1810.57 1793.84 1805.3 1799.09 1800.98C1804.38 1796.67 1811.13 1794.52 1819.34 1794.52C1827.96 1794.52 1834.95 1796.74 1840.29 1801.2C1845.68 1805.65 1848.38 1811.34 1848.38 1818.28H1835.3C1835.3 1814.72 1833.77 1811.65 1830.73 1809.07C1827.73 1806.49 1823.93 1805.2 1819.34 1805.2C1814.6 1805.2 1810.9 1806.23 1808.23 1808.3C1805.55 1810.36 1804.22 1813.05 1804.22 1816.38C1804.22 1819.52 1805.46 1821.89 1807.95 1823.48C1810.43 1825.08 1814.91 1826.6 1821.38 1828.05C1827.89 1829.51 1833.16 1831.24 1837.2 1833.26C1841.23 1835.27 1844.2 1837.71 1846.12 1840.57C1848.09 1843.38 1849.08 1846.83 1849.08 1850.91C1849.08 1857.7 1846.36 1863.16 1840.92 1867.29C1835.48 1871.37 1828.43 1873.41 1819.76 1873.41C1813.66 1873.41 1808.27 1872.33 1803.59 1870.17C1798.9 1868.02 1795.22 1865.02 1792.55 1861.17C1789.92 1857.28 1788.61 1853.09 1788.61 1848.59H1801.62C1801.85 1852.95 1803.59 1856.41 1806.82 1858.99C1810.1 1861.52 1814.41 1862.79 1819.76 1862.79C1824.68 1862.79 1828.62 1861.8 1831.57 1859.84C1834.57 1857.82 1836.07 1855.15 1836.07 1851.82ZM1897.59 1873.41C1887.28 1873.41 1878.89 1870.03 1872.42 1863.28C1865.95 1856.48 1862.72 1847.41 1862.72 1836.07V1833.68C1862.72 1826.13 1864.15 1819.41 1867.01 1813.5C1869.91 1807.55 1873.95 1802.91 1879.1 1799.58C1884.3 1796.2 1889.93 1794.52 1895.98 1794.52C1905.87 1794.52 1913.55 1797.77 1919.04 1804.29C1924.52 1810.8 1927.27 1820.13 1927.27 1832.27V1837.69H1875.73C1875.91 1845.19 1878.09 1851.26 1882.27 1855.9C1886.48 1860.49 1891.83 1862.79 1898.3 1862.79C1902.89 1862.79 1906.78 1861.85 1909.97 1859.98C1913.16 1858.1 1915.95 1855.62 1918.34 1852.52L1926.28 1858.71C1919.91 1868.51 1910.34 1873.41 1897.59 1873.41ZM1895.98 1805.2C1890.73 1805.2 1886.32 1807.12 1882.76 1810.97C1879.2 1814.77 1876.99 1820.11 1876.15 1827H1914.26V1826.02C1913.88 1819.41 1912.1 1814.3 1908.91 1810.69C1905.73 1807.03 1901.41 1805.2 1895.98 1805.2ZM2022.4 1851.82C2022.4 1848.3 2021.06 1845.59 2018.39 1843.66C2015.77 1841.7 2011.15 1840.01 2004.54 1838.6C1997.98 1837.2 1992.75 1835.51 1988.86 1833.54C1985.02 1831.57 1982.16 1829.23 1980.28 1826.51C1978.45 1823.79 1977.54 1820.55 1977.54 1816.8C1977.54 1810.57 1980.16 1805.3 1985.41 1800.98C1990.71 1796.67 1997.46 1794.52 2005.66 1794.52C2014.29 1794.52 2021.27 1796.74 2026.62 1801.2C2032.01 1805.65 2034.7 1811.34 2034.7 1818.28H2021.62C2021.62 1814.72 2020.1 1811.65 2017.05 1809.07C2014.05 1806.49 2010.26 1805.2 2005.66 1805.2C2000.93 1805.2 1997.23 1806.23 1994.55 1808.3C1991.88 1810.36 1990.55 1813.05 1990.55 1816.38C1990.55 1819.52 1991.79 1821.89 1994.27 1823.48C1996.76 1825.08 2001.23 1826.6 2007.7 1828.05C2014.22 1829.51 2019.49 1831.24 2023.52 1833.26C2027.55 1835.27 2030.53 1837.71 2032.45 1840.57C2034.42 1843.38 2035.41 1846.83 2035.41 1850.91C2035.41 1857.7 2032.69 1863.16 2027.25 1867.29C2021.81 1871.37 2014.76 1873.41 2006.09 1873.41C1999.99 1873.41 1994.6 1872.33 1989.91 1870.17C1985.23 1868.02 1981.55 1865.02 1978.88 1861.17C1976.25 1857.28 1974.94 1853.09 1974.94 1848.59H1987.95C1988.18 1852.95 1989.91 1856.41 1993.15 1858.99C1996.43 1861.52 2000.74 1862.79 2006.09 1862.79C2011.01 1862.79 2014.95 1861.8 2017.9 1859.84C2020.9 1857.82 2022.4 1855.15 2022.4 1851.82ZM2083.92 1873.41C2073.61 1873.41 2065.22 1870.03 2058.75 1863.28C2052.28 1856.48 2049.05 1847.41 2049.05 1836.07V1833.68C2049.05 1826.13 2050.48 1819.41 2053.34 1813.5C2056.24 1807.55 2060.27 1802.91 2065.43 1799.58C2070.63 1796.2 2076.26 1794.52 2082.3 1794.52C2092.2 1794.52 2099.88 1797.77 2105.37 1804.29C2110.85 1810.8 2113.59 1820.13 2113.59 1832.27V1837.69H2062.05C2062.24 1845.19 2064.42 1851.26 2068.59 1855.9C2072.81 1860.49 2078.16 1862.79 2084.62 1862.79C2089.22 1862.79 2093.11 1861.85 2096.3 1859.98C2099.48 1858.1 2102.27 1855.62 2104.66 1852.52L2112.61 1858.71C2106.23 1868.51 2096.67 1873.41 2083.92 1873.41ZM2082.3 1805.2C2077.05 1805.2 2072.65 1807.12 2069.09 1810.97C2065.52 1814.77 2063.32 1820.11 2062.48 1827H2100.59V1826.02C2100.21 1819.41 2098.43 1814.3 2095.24 1810.69C2092.05 1807.03 2087.74 1805.2 2082.3 1805.2ZM2173.01 1851.82C2173.01 1848.3 2171.67 1845.59 2169 1843.66C2166.38 1841.7 2161.76 1840.01 2155.15 1838.6C2148.59 1837.2 2143.36 1835.51 2139.47 1833.54C2135.62 1831.57 2132.77 1829.23 2130.89 1826.51C2129.06 1823.79 2128.15 1820.55 2128.15 1816.8C2128.15 1810.57 2130.77 1805.3 2136.02 1800.98C2141.32 1796.67 2148.07 1794.52 2156.27 1794.52C2164.9 1794.52 2171.88 1796.74 2177.23 1801.2C2182.62 1805.65 2185.31 1811.34 2185.31 1818.28H2172.23C2172.23 1814.72 2170.71 1811.65 2167.66 1809.07C2164.66 1806.49 2160.87 1805.2 2156.27 1805.2C2151.54 1805.2 2147.84 1806.23 2145.16 1808.3C2142.49 1810.36 2141.16 1813.05 2141.16 1816.38C2141.16 1819.52 2142.4 1821.89 2144.88 1823.48C2147.37 1825.08 2151.84 1826.6 2158.31 1828.05C2164.83 1829.51 2170.1 1831.24 2174.13 1833.26C2178.16 1835.27 2181.14 1837.71 2183.06 1840.57C2185.03 1843.38 2186.02 1846.83 2186.02 1850.91C2186.02 1857.7 2183.3 1863.16 2177.86 1867.29C2172.42 1871.37 2165.37 1873.41 2156.7 1873.41C2150.6 1873.41 2145.21 1872.33 2140.52 1870.17C2135.84 1868.02 2132.16 1865.02 2129.48 1861.17C2126.86 1857.28 2125.55 1853.09 2125.55 1848.59H2138.55C2138.79 1852.95 2140.52 1856.41 2143.76 1858.99C2147.04 1861.52 2151.35 1862.79 2156.7 1862.79C2161.62 1862.79 2165.55 1861.8 2168.51 1859.84C2171.51 1857.82 2173.01 1855.15 2173.01 1851.82ZM2217.09 1872H2204.09V1795.92H2217.09V1872ZM2203.03 1775.74C2203.03 1773.63 2203.66 1771.85 2204.93 1770.4C2206.24 1768.95 2208.16 1768.22 2210.7 1768.22C2213.23 1768.22 2215.15 1768.95 2216.46 1770.4C2217.77 1771.85 2218.43 1773.63 2218.43 1775.74C2218.43 1777.85 2217.77 1779.61 2216.46 1781.02C2215.15 1782.42 2213.23 1783.12 2210.7 1783.12C2208.16 1783.12 2206.24 1782.42 2204.93 1781.02C2203.66 1779.61 2203.03 1777.85 2203.03 1775.74ZM2234.53 1833.26C2234.53 1825.8 2235.98 1819.1 2238.89 1813.15C2241.84 1807.2 2245.92 1802.6 2251.12 1799.37C2256.38 1796.13 2262.35 1794.52 2269.05 1794.52C2279.41 1794.52 2287.78 1798.1 2294.16 1805.27C2300.58 1812.45 2303.79 1821.98 2303.79 1833.89V1834.8C2303.79 1842.21 2302.36 1848.87 2299.5 1854.77C2296.69 1860.63 2292.63 1865.2 2287.34 1868.48C2282.09 1871.77 2276.04 1873.41 2269.2 1873.41C2258.88 1873.41 2250.52 1869.82 2244.09 1862.65C2237.72 1855.48 2234.53 1845.98 2234.53 1834.17V1833.26ZM2247.61 1834.8C2247.61 1843.24 2249.55 1850.02 2253.45 1855.12C2257.38 1860.23 2262.63 1862.79 2269.2 1862.79C2275.8 1862.79 2281.05 1860.21 2284.95 1855.05C2288.84 1849.85 2290.78 1842.59 2290.78 1833.26C2290.78 1824.91 2288.79 1818.16 2284.8 1813.01C2280.87 1807.8 2275.62 1805.2 2269.05 1805.2C2262.63 1805.2 2257.45 1807.76 2253.52 1812.87C2249.58 1817.98 2247.61 1825.29 2247.61 1834.8ZM2274.96 1764H2290.71L2271.87 1784.67H2261.39L2274.96 1764ZM2332.41 1795.92L2332.83 1805.48C2338.64 1798.17 2346.23 1794.52 2355.61 1794.52C2371.69 1794.52 2379.8 1803.59 2379.94 1821.73V1872H2366.93V1821.66C2366.88 1816.17 2365.62 1812.12 2363.13 1809.49C2360.7 1806.87 2356.88 1805.55 2351.67 1805.55C2347.45 1805.55 2343.75 1806.68 2340.56 1808.93C2337.38 1811.18 2334.89 1814.13 2333.11 1817.79V1872H2320.1V1795.92H2332.41Z" fill="black"/>
<line x1="13" y1="2101.5" x2="3911" y2="2101.5" stroke="black"/>
<rect x="1398" y="264" width="1062" height="1062" fill="#C4C4C4"/>
<line x1="1398.35" y1="292.978" x2="2460.35" y2="1325.64" stroke="black"/>
<line x1="1397.65" y1="1325.65" x2="2459.65" y2="263.647" stroke="black"/>
<line x1="13" y1="188.5" x2="3911" y2="188.5" stroke="black"/>
<rect x="23" y="22" width="157" height="157" fill="#C4C4C4"/>
<line x1="23.3486" y1="25.9784" x2="180.349" y2="178.641" stroke="black"/>
<line x1="22.6464" y1="178.646" x2="179.646" y2="21.6465" stroke="black"/>
<path d="M294.633 99.1172C294.633 109.148 292.945 117.914 289.57 125.414C286.195 132.867 281.414 138.562 275.227 142.5C269.039 146.438 261.82 148.406 253.57 148.406C245.508 148.406 238.359 146.438 232.125 142.5C225.891 138.516 221.039 132.867 217.57 125.555C214.148 118.195 212.391 109.688 212.297 100.031V92.6484C212.297 82.8047 214.008 74.1094 217.43 66.5625C220.852 59.0156 225.68 53.25 231.914 49.2656C238.195 45.2344 245.367 43.2188 253.43 43.2188C261.633 43.2188 268.852 45.2109 275.086 49.1953C281.367 53.1328 286.195 58.875 289.57 66.4219C292.945 73.9219 294.633 82.6641 294.633 92.6484V99.1172ZM281.203 92.5078C281.203 80.3672 278.766 71.0625 273.891 64.5938C269.016 58.0781 262.195 54.8203 253.43 54.8203C244.898 54.8203 238.172 58.0781 233.25 64.5938C228.375 71.0625 225.867 80.0625 225.727 91.5938V99.1172C225.727 110.883 228.188 120.141 233.109 126.891C238.078 133.594 244.898 136.945 253.57 136.945C262.289 136.945 269.039 133.781 273.82 127.453C278.602 121.078 281.062 111.961 281.203 100.102V92.5078ZM380.203 129.07L394.828 70.9219H407.836L385.688 147H375.141L356.648 89.3438L338.648 147H328.102L306.023 70.9219H318.961L333.938 127.875L351.656 70.9219H362.133L380.203 129.07ZM435.258 147H422.25V39H435.258V147ZM531.445 105.586H507.398V147H493.828V44.625H527.719C539.25 44.625 548.109 47.25 554.297 52.5C560.531 57.75 563.648 65.3906 563.648 75.4219C563.648 81.7969 561.914 87.3516 558.445 92.0859C555.023 96.8203 550.242 100.359 544.102 102.703L568.148 146.156V147H553.664L531.445 105.586ZM507.398 94.5469H528.141C534.844 94.5469 540.164 92.8125 544.102 89.3438C548.086 85.875 550.078 81.2344 550.078 75.4219C550.078 69.0938 548.18 64.2422 544.383 60.8672C540.633 57.4922 535.195 55.7813 528.07 55.7344H507.398V94.5469ZM627.562 139.477C622.5 145.43 615.07 148.406 605.273 148.406C597.164 148.406 590.977 146.062 586.711 141.375C582.492 136.641 580.359 129.656 580.312 120.422V70.9219H593.32V120.07C593.32 131.602 598.008 137.367 607.383 137.367C617.32 137.367 623.93 133.664 627.211 126.258V70.9219H640.219V147H627.844L627.562 139.477ZM704.344 126.82C704.344 123.305 703.008 120.586 700.336 118.664C697.711 116.695 693.094 115.008 686.484 113.602C679.922 112.195 674.695 110.508 670.805 108.539C666.961 106.57 664.102 104.227 662.227 101.508C660.398 98.7891 659.484 95.5547 659.484 91.8047C659.484 85.5703 662.109 80.2969 667.359 75.9844C672.656 71.6719 679.406 69.5156 687.609 69.5156C696.234 69.5156 703.219 71.7422 708.562 76.1953C713.953 80.6484 716.648 86.3438 716.648 93.2812H703.57C703.57 89.7188 702.047 86.6484 699 84.0703C696 81.4922 692.203 80.2031 687.609 80.2031C682.875 80.2031 679.172 81.2344 676.5 83.2969C673.828 85.3594 672.492 88.0547 672.492 91.3828C672.492 94.5234 673.734 96.8906 676.219 98.4844C678.703 100.078 683.18 101.602 689.648 103.055C696.164 104.508 701.438 106.242 705.469 108.258C709.5 110.273 712.477 112.711 714.398 115.57C716.367 118.383 717.352 121.828 717.352 125.906C717.352 132.703 714.633 138.164 709.195 142.289C703.758 146.367 696.703 148.406 688.031 148.406C681.938 148.406 676.547 147.328 671.859 145.172C667.172 143.016 663.492 140.016 660.82 136.172C658.195 132.281 656.883 128.086 656.883 123.586H669.891C670.125 127.945 671.859 131.414 675.094 133.992C678.375 136.523 682.688 137.789 688.031 137.789C692.953 137.789 696.891 136.805 699.844 134.836C702.844 132.82 704.344 130.148 704.344 126.82ZM747.305 80.1328C753.07 73.0547 760.57 69.5156 769.805 69.5156C785.883 69.5156 793.992 78.5859 794.133 96.7266V147H781.125V96.6562C781.078 91.1719 779.812 87.1172 777.328 84.4922C774.891 81.8672 771.07 80.5547 765.867 80.5547C761.648 80.5547 757.945 81.6797 754.758 83.9297C751.57 86.1797 749.086 89.1328 747.305 92.7891V147H734.297V39H747.305V80.1328ZM828.164 118.102H816.422L815.508 44.625H829.148L828.164 118.102ZM815.016 140.461C815.016 138.352 815.648 136.594 816.914 135.188C818.227 133.734 820.148 133.008 822.68 133.008C825.211 133.008 827.133 133.734 828.445 135.188C829.758 136.594 830.414 138.352 830.414 140.461C830.414 142.57 829.758 144.328 828.445 145.734C827.133 147.094 825.211 147.773 822.68 147.773C820.148 147.773 818.227 147.094 816.914 145.734C815.648 144.328 815.016 142.57 815.016 140.461Z" fill="black"/>
<rect x="3012" y="19" width="778" height="141" fill="#CBBB29"/>
<path d="M3159.48 118H3151.04V54.0156H3159.48V118ZM3181.36 70.4512L3181.63 76.4277C3185.26 71.8574 3190.01 69.5723 3195.87 69.5723C3205.92 69.5723 3210.98 75.2412 3211.07 86.5791V118H3202.94V86.5352C3202.91 83.1074 3202.12 80.5732 3200.57 78.9326C3199.04 77.292 3196.66 76.4717 3193.41 76.4717C3190.77 76.4717 3188.45 77.1748 3186.46 78.5811C3184.47 79.9873 3182.92 81.833 3181.8 84.1182V118H3173.67V70.4512H3181.36ZM3251.02 105.388C3251.02 103.19 3250.18 101.491 3248.51 100.29C3246.87 99.0596 3243.99 98.0049 3239.86 97.126C3235.75 96.2471 3232.49 95.1924 3230.06 93.9619C3227.65 92.7314 3225.87 91.2666 3224.69 89.5674C3223.55 87.8682 3222.98 85.8467 3222.98 83.5029C3222.98 79.6064 3224.62 76.3105 3227.9 73.6152C3231.21 70.9199 3235.43 69.5723 3240.56 69.5723C3245.95 69.5723 3250.31 70.9639 3253.65 73.7471C3257.02 76.5303 3258.71 80.0898 3258.71 84.4258H3250.53C3250.53 82.1992 3249.58 80.2803 3247.68 78.6689C3245.8 77.0576 3243.43 76.252 3240.56 76.252C3237.6 76.252 3235.29 76.8965 3233.62 78.1855C3231.95 79.4746 3231.11 81.1592 3231.11 83.2393C3231.11 85.2021 3231.89 86.6816 3233.44 87.6777C3234.99 88.6738 3237.79 89.626 3241.83 90.5342C3245.91 91.4424 3249.2 92.5264 3251.72 93.7861C3254.24 95.0459 3256.1 96.5693 3257.3 98.3564C3258.53 100.114 3259.15 102.268 3259.15 104.816C3259.15 109.064 3257.45 112.478 3254.05 115.056C3250.65 117.604 3246.24 118.879 3240.82 118.879C3237.01 118.879 3233.64 118.205 3230.71 116.857C3227.79 115.51 3225.49 113.635 3223.82 111.232C3222.17 108.801 3221.35 106.179 3221.35 103.366H3229.48C3229.63 106.091 3230.71 108.259 3232.74 109.87C3234.79 111.452 3237.48 112.243 3240.82 112.243C3243.9 112.243 3246.36 111.628 3248.21 110.397C3250.08 109.138 3251.02 107.468 3251.02 105.388ZM3280.77 58.9375V70.4512H3289.65V76.7354H3280.77V106.223C3280.77 108.127 3281.16 109.562 3281.96 110.529C3282.75 111.467 3284.09 111.936 3286 111.936C3286.94 111.936 3288.22 111.76 3289.87 111.408V118C3287.73 118.586 3285.65 118.879 3283.62 118.879C3279.99 118.879 3277.25 117.78 3275.41 115.583C3273.56 113.386 3272.64 110.266 3272.64 106.223V76.7354H3263.98V70.4512H3272.64V58.9375H3280.77ZM3322.17 77.7461C3320.93 77.541 3319.6 77.4385 3318.17 77.4385C3312.83 77.4385 3309.22 79.709 3307.31 84.25V118H3299.18V70.4512H3307.09L3307.22 75.9443C3309.89 71.6963 3313.67 69.5723 3318.56 69.5723C3320.14 69.5723 3321.34 69.7773 3322.17 70.1875V77.7461ZM3359.04 113.298C3355.87 117.019 3351.23 118.879 3345.1 118.879C3340.04 118.879 3336.17 117.414 3333.5 114.484C3330.87 111.525 3329.53 107.16 3329.5 101.389V70.4512H3337.63V101.169C3337.63 108.376 3340.56 111.979 3346.42 111.979C3352.63 111.979 3356.76 109.665 3358.82 105.036V70.4512H3366.95V118H3359.21L3359.04 113.298ZM3398.41 112.243C3401.31 112.243 3403.84 111.364 3406.01 109.606C3408.18 107.849 3409.38 105.651 3409.62 103.015H3417.31C3417.16 105.739 3416.22 108.332 3414.49 110.793C3412.77 113.254 3410.45 115.217 3407.55 116.682C3404.68 118.146 3401.63 118.879 3398.41 118.879C3391.94 118.879 3386.78 116.726 3382.94 112.419C3379.13 108.083 3377.23 102.165 3377.23 94.665V93.3027C3377.23 88.6738 3378.08 84.5576 3379.78 80.9541C3381.48 77.3506 3383.91 74.5527 3387.07 72.5605C3390.27 70.5684 3394.03 69.5723 3398.37 69.5723C3403.7 69.5723 3408.12 71.1689 3411.64 74.3623C3415.18 77.5557 3417.07 81.7012 3417.31 86.7988H3409.62C3409.38 83.7227 3408.21 81.2031 3406.1 79.2402C3404.02 77.248 3401.44 76.252 3398.37 76.252C3394.24 76.252 3391.03 77.7461 3388.74 80.7344C3386.49 83.6934 3385.36 87.9854 3385.36 93.6104V95.1484C3385.36 100.627 3386.49 104.846 3388.74 107.805C3391 110.764 3394.22 112.243 3398.41 112.243ZM3445.52 112.243C3448.42 112.243 3450.95 111.364 3453.12 109.606C3455.29 107.849 3456.49 105.651 3456.73 103.015H3464.42C3464.27 105.739 3463.33 108.332 3461.6 110.793C3459.88 113.254 3457.56 115.217 3454.66 116.682C3451.79 118.146 3448.74 118.879 3445.52 118.879C3439.04 118.879 3433.89 116.726 3430.05 112.419C3426.24 108.083 3424.34 102.165 3424.34 94.665V93.3027C3424.34 88.6738 3425.19 84.5576 3426.89 80.9541C3428.59 77.3506 3431.02 74.5527 3434.18 72.5605C3437.38 70.5684 3441.14 69.5723 3445.48 69.5723C3450.81 69.5723 3455.23 71.1689 3458.75 74.3623C3462.29 77.5557 3464.18 81.7012 3464.42 86.7988H3456.73C3456.49 83.7227 3455.32 81.2031 3453.21 79.2402C3451.13 77.248 3448.55 76.252 3445.48 76.252C3441.34 76.252 3438.14 77.7461 3435.85 80.7344C3433.6 83.6934 3432.47 87.9854 3432.47 93.6104V95.1484C3432.47 100.627 3433.6 104.846 3435.85 107.805C3438.11 110.764 3441.33 112.243 3445.52 112.243ZM3482.39 118H3474.26V70.4512H3482.39V118ZM3473.6 57.8389C3473.6 56.5205 3474 55.4072 3474.79 54.499C3475.61 53.5908 3476.81 53.1367 3478.39 53.1367C3479.97 53.1367 3481.17 53.5908 3481.99 54.499C3482.81 55.4072 3483.22 56.5205 3483.22 57.8389C3483.22 59.1572 3482.81 60.2559 3481.99 61.1348C3481.17 62.0137 3479.97 62.4531 3478.39 62.4531C3476.81 62.4531 3475.61 62.0137 3474.79 61.1348C3474 60.2559 3473.6 59.1572 3473.6 57.8389ZM3493.29 93.7861C3493.29 89.1279 3494.2 84.9385 3496.01 81.2178C3497.86 77.4971 3500.41 74.626 3503.66 72.6045C3506.94 70.583 3510.68 69.5723 3514.87 69.5723C3521.34 69.5723 3526.57 71.8135 3530.55 76.2959C3534.57 80.7783 3536.57 86.7402 3536.57 94.1816V94.7529C3536.57 99.3818 3535.68 103.542 3533.89 107.233C3532.14 110.896 3529.6 113.752 3526.29 115.803C3523.01 117.854 3519.23 118.879 3514.95 118.879C3508.51 118.879 3503.28 116.638 3499.26 112.155C3495.28 107.673 3493.29 101.74 3493.29 94.3574V93.7861ZM3501.46 94.7529C3501.46 100.026 3502.68 104.26 3505.11 107.453C3507.57 110.646 3510.85 112.243 3514.95 112.243C3519.08 112.243 3522.37 110.632 3524.8 107.409C3527.23 104.157 3528.44 99.6162 3528.44 93.7861C3528.44 88.5713 3527.2 84.3525 3524.71 81.1299C3522.25 77.8779 3518.97 76.252 3514.87 76.252C3510.85 76.252 3507.61 77.8486 3505.15 81.042C3502.69 84.2354 3501.46 88.8057 3501.46 94.7529ZM3554.46 70.4512L3554.72 76.4277C3558.36 71.8574 3563.1 69.5723 3568.96 69.5723C3579.01 69.5723 3584.08 75.2412 3584.17 86.5791V118H3576.04V86.5352C3576.01 83.1074 3575.22 80.5732 3573.66 78.9326C3572.14 77.292 3569.75 76.4717 3566.5 76.4717C3563.86 76.4717 3561.55 77.1748 3559.56 78.5811C3557.57 79.9873 3556.01 81.833 3554.9 84.1182V118H3546.77V70.4512H3554.46ZM3616.16 118.879C3609.71 118.879 3604.47 116.77 3600.43 112.551C3596.38 108.303 3594.36 102.634 3594.36 95.5439V94.0498C3594.36 89.333 3595.26 85.1289 3597.04 81.4375C3598.86 77.7168 3601.38 74.8164 3604.6 72.7363C3607.85 70.627 3611.37 69.5723 3615.15 69.5723C3621.33 69.5723 3626.13 71.6084 3629.56 75.6807C3632.99 79.7529 3634.7 85.583 3634.7 93.1709V96.5547H3602.49C3602.61 101.242 3603.97 105.036 3606.58 107.937C3609.22 110.808 3612.56 112.243 3616.6 112.243C3619.47 112.243 3621.9 111.657 3623.89 110.485C3625.89 109.313 3627.63 107.761 3629.12 105.827L3634.09 109.694C3630.1 115.817 3624.13 118.879 3616.16 118.879ZM3615.15 76.252C3611.87 76.252 3609.11 77.4531 3606.89 79.8555C3604.66 82.2285 3603.28 85.5684 3602.76 89.875H3626.57V89.2598C3626.34 85.1289 3625.23 81.9355 3623.23 79.6797C3621.24 77.3945 3618.55 76.252 3615.15 76.252ZM3671.84 105.388C3671.84 103.19 3671 101.491 3669.33 100.29C3667.69 99.0596 3664.81 98.0049 3660.68 97.126C3656.57 96.2471 3653.31 95.1924 3650.88 93.9619C3648.47 92.7314 3646.69 91.2666 3645.51 89.5674C3644.37 87.8682 3643.8 85.8467 3643.8 83.5029C3643.8 79.6064 3645.44 76.3105 3648.72 73.6152C3652.03 70.9199 3656.25 69.5723 3661.38 69.5723C3666.77 69.5723 3671.13 70.9639 3674.47 73.7471C3677.84 76.5303 3679.53 80.0898 3679.53 84.4258H3671.35C3671.35 82.1992 3670.4 80.2803 3668.5 78.6689C3666.62 77.0576 3664.25 76.252 3661.38 76.252C3658.42 76.252 3656.11 76.8965 3654.44 78.1855C3652.77 79.4746 3651.93 81.1592 3651.93 83.2393C3651.93 85.2021 3652.71 86.6816 3654.26 87.6777C3655.81 88.6738 3658.61 89.626 3662.65 90.5342C3666.73 91.4424 3670.02 92.5264 3672.54 93.7861C3675.06 95.0459 3676.92 96.5693 3678.12 98.3564C3679.35 100.114 3679.97 102.268 3679.97 104.816C3679.97 109.064 3678.27 112.478 3674.87 115.056C3671.47 117.604 3667.06 118.879 3661.64 118.879C3657.83 118.879 3654.46 118.205 3651.54 116.857C3648.61 115.51 3646.31 113.635 3644.64 111.232C3643 108.801 3642.17 106.179 3642.17 103.366H3650.3C3650.45 106.091 3651.54 108.259 3653.56 109.87C3655.61 111.452 3658.3 112.243 3661.64 112.243C3664.72 112.243 3667.18 111.628 3669.03 110.397C3670.9 109.138 3671.84 107.468 3671.84 105.388Z" fill="black"/>
<rect x="3147" y="2108" width="671" height="119" fill="#CBBB29"/>
<path d="M3361.98 2175.34C3361.14 2182.56 3358.47 2188.14 3353.97 2192.08C3349.5 2195.98 3343.55 2197.94 3336.11 2197.94C3328.05 2197.94 3321.58 2195.05 3316.7 2189.27C3311.86 2183.48 3309.44 2175.75 3309.44 2166.06V2159.5C3309.44 2153.16 3310.56 2147.58 3312.81 2142.77C3315.09 2137.95 3318.31 2134.27 3322.47 2131.7C3326.62 2129.11 3331.44 2127.81 3336.91 2127.81C3344.16 2127.81 3349.97 2129.84 3354.34 2133.91C3358.72 2137.94 3361.27 2143.53 3361.98 2150.69H3352.94C3352.16 2145.25 3350.45 2141.31 3347.83 2138.88C3345.23 2136.44 3341.59 2135.22 3336.91 2135.22C3331.16 2135.22 3326.64 2137.34 3323.36 2141.59C3320.11 2145.84 3318.48 2151.89 3318.48 2159.73V2166.34C3318.48 2173.75 3320.03 2179.64 3323.12 2184.02C3326.22 2188.39 3330.55 2190.58 3336.11 2190.58C3341.11 2190.58 3344.94 2189.45 3347.59 2187.2C3350.28 2184.92 3352.06 2180.97 3352.94 2175.34H3361.98ZM3397.47 2154.06C3396.16 2153.84 3394.73 2153.73 3393.2 2153.73C3387.52 2153.73 3383.66 2156.16 3381.62 2161V2197H3372.95V2146.28H3381.39L3381.53 2152.14C3384.38 2147.61 3388.41 2145.34 3393.62 2145.34C3395.31 2145.34 3396.59 2145.56 3397.47 2146V2154.06ZM3425.59 2197.94C3418.72 2197.94 3413.12 2195.69 3408.81 2191.19C3404.5 2186.66 3402.34 2180.61 3402.34 2173.05V2171.45C3402.34 2166.42 3403.3 2161.94 3405.2 2158C3407.14 2154.03 3409.83 2150.94 3413.27 2148.72C3416.73 2146.47 3420.48 2145.34 3424.52 2145.34C3431.11 2145.34 3436.23 2147.52 3439.89 2151.86C3443.55 2156.2 3445.38 2162.42 3445.38 2170.52V2174.12H3411.02C3411.14 2179.12 3412.59 2183.17 3415.38 2186.27C3418.19 2189.33 3421.75 2190.86 3426.06 2190.86C3429.12 2190.86 3431.72 2190.23 3433.84 2188.98C3435.97 2187.73 3437.83 2186.08 3439.42 2184.02L3444.72 2188.14C3440.47 2194.67 3434.09 2197.94 3425.59 2197.94ZM3424.52 2152.47C3421.02 2152.47 3418.08 2153.75 3415.7 2156.31C3413.33 2158.84 3411.86 2162.41 3411.3 2167H3436.7V2166.34C3436.45 2161.94 3435.27 2158.53 3433.14 2156.12C3431.02 2153.69 3428.14 2152.47 3424.52 2152.47ZM3428.73 2125H3439.23L3426.67 2138.78H3419.69L3428.73 2125ZM3453.34 2171.22C3453.34 2163.44 3455.19 2157.19 3458.88 2152.47C3462.56 2147.72 3467.39 2145.34 3473.36 2145.34C3479.3 2145.34 3484 2147.38 3487.47 2151.44V2125H3496.14V2197H3488.17L3487.75 2191.56C3484.28 2195.81 3479.45 2197.94 3473.27 2197.94C3467.39 2197.94 3462.59 2195.53 3458.88 2190.72C3455.19 2185.91 3453.34 2179.62 3453.34 2171.88V2171.22ZM3462.02 2172.2C3462.02 2177.95 3463.2 2182.45 3465.58 2185.7C3467.95 2188.95 3471.23 2190.58 3475.42 2190.58C3480.92 2190.58 3484.94 2188.11 3487.47 2183.17V2159.88C3484.88 2155.09 3480.89 2152.7 3475.52 2152.7C3471.27 2152.7 3467.95 2154.34 3465.58 2157.62C3463.2 2160.91 3462.02 2165.77 3462.02 2172.2ZM3519.06 2197H3510.39V2146.28H3519.06V2197ZM3509.69 2132.83C3509.69 2131.42 3510.11 2130.23 3510.95 2129.27C3511.83 2128.3 3513.11 2127.81 3514.8 2127.81C3516.48 2127.81 3517.77 2128.3 3518.64 2129.27C3519.52 2130.23 3519.95 2131.42 3519.95 2132.83C3519.95 2134.23 3519.52 2135.41 3518.64 2136.34C3517.77 2137.28 3516.48 2137.75 3514.8 2137.75C3513.11 2137.75 3511.83 2137.28 3510.95 2136.34C3510.11 2135.41 3509.69 2134.23 3509.69 2132.83ZM3544.75 2134V2146.28H3554.22V2152.98H3544.75V2184.44C3544.75 2186.47 3545.17 2188 3546.02 2189.03C3546.86 2190.03 3548.3 2190.53 3550.33 2190.53C3551.33 2190.53 3552.7 2190.34 3554.45 2189.97V2197C3552.17 2197.62 3549.95 2197.94 3547.8 2197.94C3543.92 2197.94 3541 2196.77 3539.03 2194.42C3537.06 2192.08 3536.08 2188.75 3536.08 2184.44V2152.98H3526.84V2146.28H3536.08V2134H3544.75ZM3561.16 2171.17C3561.16 2166.2 3562.12 2161.73 3564.06 2157.77C3566.03 2153.8 3568.75 2150.73 3572.22 2148.58C3575.72 2146.42 3579.7 2145.34 3584.17 2145.34C3591.08 2145.34 3596.66 2147.73 3600.91 2152.52C3605.19 2157.3 3607.33 2163.66 3607.33 2171.59V2172.2C3607.33 2177.14 3606.38 2181.58 3604.47 2185.52C3602.59 2189.42 3599.89 2192.47 3596.36 2194.66C3592.86 2196.84 3588.83 2197.94 3584.27 2197.94C3577.39 2197.94 3571.81 2195.55 3567.53 2190.77C3563.28 2185.98 3561.16 2179.66 3561.16 2171.78V2171.17ZM3569.88 2172.2C3569.88 2177.83 3571.17 2182.34 3573.77 2185.75C3576.39 2189.16 3579.89 2190.86 3584.27 2190.86C3588.67 2190.86 3592.17 2189.14 3594.77 2185.7C3597.36 2182.23 3598.66 2177.39 3598.66 2171.17C3598.66 2165.61 3597.33 2161.11 3594.67 2157.67C3592.05 2154.2 3588.55 2152.47 3584.17 2152.47C3579.89 2152.47 3576.44 2154.17 3573.81 2157.58C3571.19 2160.98 3569.88 2165.86 3569.88 2172.2ZM3647.73 2183.55C3647.73 2181.2 3646.84 2179.39 3645.06 2178.11C3643.31 2176.8 3640.23 2175.67 3635.83 2174.73C3631.45 2173.8 3627.97 2172.67 3625.38 2171.36C3622.81 2170.05 3620.91 2168.48 3619.66 2166.67C3618.44 2164.86 3617.83 2162.7 3617.83 2160.2C3617.83 2156.05 3619.58 2152.53 3623.08 2149.66C3626.61 2146.78 3631.11 2145.34 3636.58 2145.34C3642.33 2145.34 3646.98 2146.83 3650.55 2149.8C3654.14 2152.77 3655.94 2156.56 3655.94 2161.19H3647.22C3647.22 2158.81 3646.2 2156.77 3644.17 2155.05C3642.17 2153.33 3639.64 2152.47 3636.58 2152.47C3633.42 2152.47 3630.95 2153.16 3629.17 2154.53C3627.39 2155.91 3626.5 2157.7 3626.5 2159.92C3626.5 2162.02 3627.33 2163.59 3628.98 2164.66C3630.64 2165.72 3633.62 2166.73 3637.94 2167.7C3642.28 2168.67 3645.8 2169.83 3648.48 2171.17C3651.17 2172.52 3653.16 2174.14 3654.44 2176.05C3655.75 2177.92 3656.41 2180.22 3656.41 2182.94C3656.41 2187.47 3654.59 2191.11 3650.97 2193.86C3647.34 2196.58 3642.64 2197.94 3636.86 2197.94C3632.8 2197.94 3629.2 2197.22 3626.08 2195.78C3622.95 2194.34 3620.5 2192.34 3618.72 2189.78C3616.97 2187.19 3616.09 2184.39 3616.09 2181.39H3624.77C3624.92 2184.3 3626.08 2186.61 3628.23 2188.33C3630.42 2190.02 3633.3 2190.86 3636.86 2190.86C3640.14 2190.86 3642.77 2190.2 3644.73 2188.89C3646.73 2187.55 3647.73 2185.77 3647.73 2183.55Z" fill="black"/>
</g>
<path d="M13 13V0H0V13H13ZM3911 13H3924V0H3911V13ZM3911 2238V2251H3924V2238H3911ZM13 2238H0V2251H13V2238ZM13 26H3911V0H13V26ZM3898 13V2238H3924V13H3898ZM3911 2225H13V2251H3911V2225ZM26 2238V13H0V2238H26Z" fill="black"/>
<defs>
<clipPath id="clip0">
<path d="M13 13H3911V2238H13V13Z" fill="white"/>
</clipPath>
</defs>
</svg>
