<svg xmlns="http://www.w3.org/2000/svg" xmlns:xlink="http://www.w3.org/1999/xlink" xmlns:lucid="lucid" width="2383.56" height="725.66"><g transform="translate(-120 -298.3575617644207)" lucid:page-tab-id="E3-M9pGAiJEs"><path d="M0 0h3677.73v1322.83H0z" fill="#fff"/><path d="M877.5 662.22c-8.84 0-16 7.17-16 16v48c0 8.84 7.16 16 16 16h128c8.84 0 16-7.16 16-16v-48c0-8.83-7.16-16-16-16z" stroke="#5e5e5e" stroke-width="3" fill="#fff"/><use xlink:href="#a" transform="matrix(1,0,0,1,869.5009355617341,670.2248338987729) translate(6.104938271604922 36.44444444444444)"/><path d="M180 702.22c0 11.05-8.95 20-20 20s-20-8.95-20-20c0-11.04 8.95-20 20-20s20 8.96 20 20z" stroke="#5e5e5e" stroke-width="3"/><path d="M1351.9 662.22c-8.83 0-16 7.17-16 16v48c0 8.84 7.17 16 16 16h128c8.84 0 16-7.16 16-16v-48c0-8.83-7.16-16-16-16z" stroke="#5e5e5e" stroke-width="3" fill="#fff"/><use xlink:href="#b" transform="matrix(1,0,0,1,1343.9021513217322,670.2248338987729) translate(18.419753086419746 36.44444444444444)"/><path d="M1051.56 703.22H1024v-2h27.56zm264.34 0h-111.46v-2h111.46z" fill="#5e5e5e"/><path d="M1024.03 703.22H1023v-2h1.03zM1331.17 702.22l-14.27 4.64v-9.27z" fill="#5e5e5e"/><path d="M1334.4 702.22l-18.5 6.02V696.2zm-16.5 3.26l10.03-3.26-10.03-3.25z" fill="#5e5e5e"/><use xlink:href="#c" transform="matrix(1,0,0,1,1051.555555555558,691.5581672321063) translate(0.0049999999999954525 14.222222222222223)"/><path d="M1814.15 662.22c-8.83 0-16 7.17-16 16v48c0 8.84 7.17 16 16 16h128c8.84 0 16-7.16 16-16v-48c0-8.83-7.16-16-16-16z" stroke="#5e5e5e" stroke-width="3" fill="#fff"/><use xlink:href="#d" transform="matrix(1,0,0,1,1806.153554664334,670.2248338987729) translate(6.660493827160494 36.44444444444444)"/><path d="M1436.47 795.03l-1.54 2.84-1.42 2.17-1.3 1.7-1.2 1.33-1.16 1.08-1.08.87-1.05.7-1 .58-1 .46-.98.37-1 .28-.98.2-1 .13-1.06.04-.87-.02-1.1-.12-1.14-.2-1.2-.34-1.28-.46-1.36-.6-1.47-.82-1.6-1.04-1.75-1.36-1.93-1.76-2.14-2.28-2.34-2.95-2.3-3.37h2.43l1.47 2.2 2.25 2.8 2.02 2.17 1.82 1.66 1.6 1.25 1.48.96 1.33.74 1.23.54 1.12.4 1.05.3 1 .17.94.1.74.02.9-.03.84-.1.84-.17.83-.24.83-.3.85-.4.88-.5.9-.63.97-.77 1.03-.96 1.1-1.22 1.22-1.57 1.33-2.04 1.48-2.7.75-1.68h2.2zm-47.1-43.8l.93 7.77 1.56 7.77 1.24 4.36h-2.08l-1.1-3.9-1.6-7.9-.94-7.95-.27-6.6 2-.1zm55 11.06l-.7 6.83-.36 2h-2.02l.4-2.28.7-6.76z" fill="#5e5e5e"/><path d="M1389.1 744.7l-2 .1-.03-1.08h2zM1448.06 761.46l-9.25-.5 5.42-14z" fill="#5e5e5e"/><path d="M1449.38 762.53l-12-.66 7.02-18.15zm-9.14-2.5l6.5.35-2.7-10.2z" fill="#5e5e5e"/><use xlink:href="#e" transform="matrix(1,0,0,1,1320.3917068185779,771.1256725985943) translate(0.0049999999999954525 14.222222222222223)"/><path d="M1386.07 611.75l1.96.25 1.95.4 1.95.58 1.94.73 1.94.93 1.95 1.1 1.92 1.3 1.9 1.53 1.9 1.76 1.85 2.03 1.82 2.33 1.76 2.66 1.68 3.04 1.6 3.48 1.44 3.97 1.28 4.56 1.03 5.24.7 6.06.23 6-2 .06-.22-5.9-.7-5.9-1-5.1-1.22-4.4-1.4-3.84-1.52-3.34-1.6-2.9-1.7-2.53-1.7-2.2-1.76-1.92-1.77-1.66-1.8-1.43-1.78-1.2-1.8-1.04-1.8-.84-1.8-.7-1.8-.5-1.8-.4-1.8-.22-1.8-.1-1.8.06-1.8.2-1.8.33-1.8.5-1.8.62-1.8.8-1.8.98-1.8 1.16-1.77 1.36-1.78 1.6-1.76 1.83-1.74 2.1-1.7 2.45-1.62 2.8-1.55 3.2-1.44 3.7-1.3 4.24-.2 1-1.96-.43.24-1.1 1.32-4.38 1.5-3.84 1.6-3.35 1.72-2.92 1.78-2.57 1.83-2.23 1.86-1.96 1.9-1.68 1.9-1.47 1.93-1.24 1.92-1.04 1.95-.87 1.94-.7 1.96-.52 1.95-.36 1.97-.2 1.95-.07z" fill="#5e5e5e"/><path d="M1416.9 660.72h-2l-.04-.98 2-.08zM1358.37 643.85l-6.2 13.66-3-14.7z" fill="#5e5e5e"/><path d="M1359.85 643l-8.05 17.72-3.9-19.05zm-7.32 11.3l4.36-9.6-6.48-.74z" fill="#5e5e5e"/><use xlink:href="#f" transform="matrix(1,0,0,1,1148.5543602247913,607.7115033627811) translate(0.0049999999999954525 14.222222222222223)"/><path d="M1860.66 749l.65 6 1.2 6.63 1.84 7.2 2.47 7.42 3 7.22 3.25 6.55 3.26 5.53 1.2 1.73h-2.42l-.46-.65-3.33-5.66-3.33-6.67-3.04-7.36-2.5-7.56-1.88-7.32-1.22-6.8-.66-6.1-.16-4.4 2-.07zm67.6 13.32l-1.37 7.4-2.3 8.9-2.68 7.93-2.74 6.57-2.1 4.16h-2.24l2.52-5 2.7-6.44 2.6-7.8 2.28-8.75 1.35-7.34z" fill="#5e5e5e"/><path d="M1860.5 744.7l-2 .1-.03-1.08h2zM1931.98 761.56l-9.24-.8 5.85-13.8z" fill="#5e5e5e"/><path d="M1933.26 762.68l-11.97-1.04 7.57-17.92zm-9.06-2.8l6.5.57-2.38-10.28z" fill="#5e5e5e"/><use xlink:href="#e" transform="matrix(1,0,0,1,1809.7242153859315,797.2823567213875) translate(0.0049999999999954525 14.222222222222223)"/><path d="M1925.3 653.86l.3 5.8-2 .12-.3-5.7-.72-4.48h2.03zm-22.7-28.97l2 .23 1.97.45 1.97.7 1.97.92 1.74 1.06h-4.16l-.3-.14-1.77-.6-1.76-.42-1.76-.2-1.77-.03-1.76.17-1.77.36-1.77.57-.65.3h-4.2l.2-.15 1.97-1.14 1.97-.88 1.96-.63 1.98-.4 1.98-.2z" fill="#5e5e5e"/><path d="M1925.65 660.72h-2l-.05-.97 2-.1zM1878.68 657.53l-1.2-7.93h5.3z" fill="#5e5e5e"/><path d="M1878.15 660.72l-1.7-11.12h2.03l.73 4.74 2.46-4.74h2.25z" fill="#5e5e5e"/><use xlink:href="#g" transform="matrix(1,0,0,1,1837.8338157427895,628.2616843214583) translate(0.005000000000002558 14.222222222222223)"/><path d="M1008.97 762.84l.82 2.96.94 2.93 1.08 2.9 1.2 2.86 1.35 2.84 1.48 2.84 1.64 2.84 1.8 2.85 1.98 2.85 2.18 2.87 2.4 2.88 2.62 2.92 2.88 2.94 3.17 2.98 3.48 3 3.86 3.05 4.23 3.07 4.67 3.1 5.16 3.14 5.72 3.14 6.32 3.13 7 3.1 7.72 3.07 8.5 2.96 9.35 2.82 2.2.57h-7.26l-4.9-1.48-8.6-3-7.8-3.1-7.08-3.14-6.4-3.17-5.8-3.2-5.23-3.16-4.75-3.16-4.3-3.12-3.9-3.1-3.56-3.06-3.24-3.03-2.94-3-2.68-2.98-2.45-2.96-2.23-2.94-2.04-2.92-1.85-2.92-1.68-2.9-1.53-2.93-1.37-2.93-1.24-2.95-1.1-2.97-.98-3-.85-3.04-.25-1.06 1.95-.45zm328.6 30l-2.46 2.96-2.67 2.97-2.94 3-3.24 3.04-3.55 3.07-3.9 3.1-4.3 3.12-4.75 3.14-5.24 3.18-5.78 3.18-6.4 3.17-7.07 3.15-7.8 3.08-8.6 3-4.88 1.47h-7.25l2.16-.56 9.35-2.8 8.52-2.97 7.73-3.06 7-3.1 6.32-3.15 5.7-3.14 5.18-3.13 4.68-3.1 4.23-3.08 3.84-3.04 3.48-3 3.17-2.98 2.88-2.95 2.62-2.9 1.68-2.04h2.57zm17.27-48.1l-.05 2.48-.22 3.38-.35 3.3-.48 3.2-.6 3.16-.72 3.1-.85 3.03-.98 3-.64 1.73h-2.14l.9-2.4.94-2.92.83-2.95.7-3 .58-3.08.46-3.13.34-3.2.2-3.3.06-2.43z" fill="#5e5e5e"/><path d="M1354.84 744.78l-2-.05.02-1h2zM1012.25 760.57l-9.2 1.08 2.93-14.7z" fill="#5e5e5e"/><path d="M1013.73 761.4l-11.94 1.4 3.8-19.08zm-9.44-.9l6.46-.77-4.4-9.58z" fill="#5e5e5e"/><use xlink:href="#h" transform="matrix(1,0,0,1,1066.8387599599946,837.465207309406) translate(0.0049999999999954525 14.222222222222223)"/><path d="M476 662.22c-8.84 0-16 7.17-16 16v48c0 8.84 7.16 16 16 16h128c8.84 0 16-7.16 16-16v-48c0-8.83-7.16-16-16-16z" stroke="#5e5e5e" stroke-width="3" fill="#fff"/><use xlink:href="#i" transform="matrix(1,0,0,1,468,670.2248338987729) translate(10.950617283950606 36.44444444444444)"/><path d="M1560.66 703.22h-62.25v-2h62.26zm217.5 0h-44.76v-2h44.75z" fill="#5e5e5e"/><path d="M1498.43 703.22h-1.03v-2h1.03zM1793.42 702.22l-14.27 4.64v-9.27z" fill="#5e5e5e"/><path d="M1796.65 702.22l-18.5 6.02V696.2zm-16.5 3.26l10.03-3.26-10.03-3.25z" fill="#5e5e5e"/><use xlink:href="#j" transform="matrix(1,0,0,1,1560.6597269857443,691.5581672321063) translate(0.0049999999999954525 14.222222222222223)"/><path d="M627.46 700.18h-5.66v-2h5.66zm213.24 0h-49.5v-2h49.5z" fill="#5e5e5e"/><path d="M621.82 700.18h-1.02v-2h1.02zM855.96 699.18l-14.26 4.63v-9.26z" fill="#5e5e5e"/><path d="M859.2 699.18l-18.5 6v-12zm-16.5 3.26l10.03-3.26-10.03-3.26z" fill="#5e5e5e"/><use xlink:href="#k" transform="matrix(1,0,0,1,627.4567901234582,688.5129503542379) translate(0.0049999999999954525 14.222222222222223)"/><path d="M265.97 703.22H182.5v-2h83.47zm174.03 0h-22.18v-2H440z" fill="#5e5e5e"/><path d="M182.53 703.22h-1.14l.1-.93-.03-1.08h1.06zM455.26 702.22L441 706.86v-9.27z" fill="#5e5e5e"/><path d="M458.5 702.22l-18.5 6.02V696.2zm-16.5 3.26l10.03-3.26-10.03-3.25z" fill="#5e5e5e"/><use xlink:href="#l" transform="matrix(1,0,0,1,265.9700549486716,691.5581672321063) translate(0.0049999999999954525 14.222222222222223)"/><path d="M491.57 617.45l-1.7 2.45-1.65 2.74-1.6 3.06-1.5 3.43-1.4 3.84-1.27 4.3-1.1 4.86-.88 5.45-.58 6.16-.2 6-2-.05.2-6.1.6-6.27.88-5.58 1.13-4.97 1.32-4.43 1.44-3.96 1.56-3.56 1.65-3.18 1.72-2.85 1.17-1.7h2.47zm55.53.76l1.73 2.8 1.66 3.1 1.57 3.45 1.48 3.87 1.34 4.32 1.16 4.84.28 1.57-1.97.35-.27-1.5-1.14-4.73-1.3-4.2-1.43-3.74-1.53-3.35-1.6-3-1.67-2.66-1.58-2.2h2.46z" fill="#5e5e5e"/><path d="M479.7 659.73l-.03 1h-2l.03-1.06zM556.72 657.5l-5.9-13.8 9.23-.82z" fill="#5e5e5e"/><path d="M557 660.72l-7.64-17.88 11.98-1.08zm-4.72-16.14l4.15 9.7 2.34-10.28z" fill="#5e5e5e"/><use xlink:href="#e" transform="matrix(1,0,0,1,426.65140293107254,595.7724202091482) translate(0.0049999999999954525 14.222222222222223)"/><path d="M942.48 744.75l-.06 2.83-.23 3.74-.4 3.64-.52 3.55-.66 3.5-.8 3.4-.94 3.36-1.08 3.32-1.22 3.28-1.37 3.25-1.5 3.25-1.7 3.22-1.86 3.22-2.04 3.2-2.25 3.24-2.46 3.25-2.7 3.25-2.98 3.3-3.25 3.3-3.57 3.36-3.92 3.4-4.32 3.4-4.75 3.47-5.24 3.48-5.8 3.5-6.4 3.52-7.07 3.5-7.82 3.5-8.63 3.4-9.5 3.3-10.43 3.15-11.37 2.92-12.32 2.6-13.22 2.24-4.16.53v-2l3.88-.5 13.13-2.2 12.24-2.6 11.28-2.9 10.35-3.13 9.42-3.28 8.55-3.4 7.74-3.43 7-3.47 6.33-3.48 5.72-3.46 5.17-3.44 4.68-3.4 4.26-3.37 3.87-3.33 3.5-3.3 3.2-3.25 2.9-3.23 2.65-3.2 2.4-3.18 2.2-3.16 2-3.15 1.83-3.14 1.65-3.14 1.48-3.16 1.34-3.18 1.2-3.2 1.04-3.24.92-3.28.78-3.33.65-3.4.52-3.46.37-3.55.22-3.65.06-2.8zM559.94 764.9l.92 3.27 1.05 3.24 1.2 3.2 1.33 3.2 1.5 3.15 1.64 3.15 1.8 3.15 2 3.15 2.2 3.16 2.42 3.17 2.64 3.2 2.9 3.23 3.2 3.26 3.5 3.3 3.86 3.32 4.25 3.37 4.7 3.4 5.17 3.45 5.72 3.46 6.32 3.5 7 3.46 7.74 3.44 8.55 3.4 9.42 3.26 10.34 3.12 1.1.28h-7.1l-4.95-1.5-9.5-3.3-8.63-3.4-7.8-3.5-7.08-3.5-6.4-3.5-5.8-3.52-5.24-3.48-4.76-3.46-4.3-3.42-3.93-3.38-3.56-3.35-3.25-3.32-2.97-3.3-2.7-3.25-2.47-3.25-2.24-3.23-2.05-3.22-1.86-3.22-1.67-3.22-1.52-3.24-1.36-3.25-1.22-3.28-1.08-3.32-.94-3.36-.72-3.08 1.95-.46z" fill="#5e5e5e"/><path d="M942.48 744.78l-2-.05.02-1h2zM562.76 760.64l-9.22.98 3.12-14.68z" fill="#5e5e5e"/><path d="M564.24 761.5l-11.96 1.26 4.04-19.04zm-9.43-1.02l6.5-.7-4.3-9.62z" fill="#5e5e5e"/><use xlink:href="#m" transform="matrix(1,0,0,1,639.1045941270128,847.1647970653925) translate(0.0049999999999954525 14.222222222222223)"/><path d="M540.97 744.75l-.02.88-.14 1.94-.24 2-.36 2.03-.47 2.1-.6 2.16-.76 2.25-.9 2.34-1.1 2.42-1.28 2.53-1.53 2.64-1.77 2.76-2.06 2.9-2.38 3-2.73 3.12-3.12 3.23-3.52 3.3-3.93 3.34-4.33 3.3-4.67 3.24-4.95 3.06-5.1 2.83-2.15 1.05v-2.23l1.22-.6 5.02-2.77 4.85-3.02 4.6-3.17 4.24-3.27 3.85-3.27 3.45-3.24 3.05-3.15 2.67-3.06 2.32-2.92 2-2.8 1.72-2.68 1.47-2.56 1.24-2.44 1.05-2.34.87-2.23.7-2.15.6-2.07.44-2 .34-1.94.24-1.88.13-1.85.03-.83zm-99.56-12.73l-.8.5-1.63 1.14-1.6 1.27-1.6 1.42-1.54 1.57-1.53 1.75-1.5 1.93-1.46 2.14-1.4 2.35-1.33 2.56-1.23 2.8-1.12 3-1 3.2-.8 3.38-.62 3.5-.4 3.54-.2 3.55.02 3.48.22 3.36.4 3.2.56 2.98.7 2.77.8 2.56.9 2.34.98 2.13 1.04 1.93 1.08 1.76.18.26h-2.36l-.63-1.02-1.08-2.05-1.02-2.23-.95-2.45-.84-2.66-.72-2.9-.6-3.1-.4-3.3-.23-3.48-.02-3.6.2-3.67.42-3.66.64-3.6.83-3.5 1.02-3.32 1.16-3.12 1.3-2.9 1.4-2.7 1.45-2.44 1.53-2.23 1.57-2.03 1.6-1.84 1.65-1.66 1.68-1.5 1.7-1.35 1.72-1.2.87-.53z" fill="#5e5e5e"/><path d="M540.97 744.78l-2-.05.03-1h2zM455.38 727.18l-12.52 8.26-2.46-8.94z" fill="#5e5e5e"/><path d="M458.5 726.32l-16.24 10.7-3.2-11.58zm-15.04 7.53l8.8-5.8-10.53-.5z" fill="#5e5e5e"/><use xlink:href="#n" transform="matrix(1,0,0,1,385.2980738309232,798.3847415314341) translate(0.005000000000002558 14.222222222222223)"/><path d="M842.9 630.27l-2.4 3.06-2.1 3.18-1.77 3.23-1.42 3.16-1.07 3.05-.77 2.9-.48 2.7-.24 2.5-.03 2.3.15 2.1.28 1.93.42 1.78.52 1.63.63 1.5.72 1.4.82 1.33.9 1.23 1.02 1.16 1.13 1.1 1.25 1.04 1.4 1 1.6.92 1.8.86 2.1.8 2.4.7 2.82.58 3.36.4 3.1.13-.07 2-3.2-.13-3.5-.43-3-.62-2.56-.75-2.23-.85-1.95-.93-1.74-1-1.54-1.1-1.4-1.14-1.23-1.2-1.1-1.28-1.02-1.37-.9-1.45-.8-1.56-.7-1.66-.56-1.8-.45-1.92-.3-2.1-.17-2.27.04-2.47.26-2.66.5-2.86.82-3.04 1.13-3.2 1.48-3.33 1.85-3.35 2.18-3.3 2.5-3.2.78-.85h2.72zm86.87-1.02l1.95 2.12 1.75 2.17 1.58 2.2 1.4 2.24 1.26 2.28.98 2.05-1.8.87-.95-2-1.2-2.18-1.35-2.14-1.5-2.1-1.68-2.08-1.86-2.04-2.07-2-.6-.5h2.95z" fill="#5e5e5e"/><path d="M860.02 678l-.02.13V680l-1.06-.06.07-2zM940.84 657.56l-7.43-13.03 9.1-1.88z" fill="#5e5e5e"/><path d="M941.5 660.72l-9.64-16.9 11.77-2.43zm-6.54-15.5l5.23 9.17 1.15-10.5z" fill="#5e5e5e"/><use xlink:href="#e" transform="matrix(1,0,0,1,782.318815655933,606.7993793602391) translate(0.0049999999999954525 14.222222222222223)"/><path d="M1298.14 322.05l58.93 4.93 52.68 6.63 46.65 7.88 41.1 8.72 36.18 9.27 31.85 9.6 28.1 9.78 24.88 9.83 22.1 9.83 19.67 9.77 17.6 9.67 15.8 9.56 14.25 9.46 12.87 9.34 11.66 9.25 10.6 9.15 9.68 9.08 8.83 9 8.08 8.98 7.4 8.95 6.8 8.95 6.22 8.96 5.7 9 5.23 9.05 4.78 9.13 4.35 9.25 3.94 9.38 3.55 9.55 3.17 9.75 2.77 9.97 2.4 10.24 2 10.56 1.62 10.9 1.18 11.3.74 11.77.23 11.27-2 .04-.23-11.23-.73-11.67-1.2-11.22-1.6-10.8-1.98-10.48-2.4-10.15-2.75-9.9-3.14-9.66-3.52-9.45-3.9-9.3-4.3-9.18-4.75-9.06-5.2-8.97-5.65-8.92-6.18-8.87-6.73-8.88-7.36-8.88-8.03-8.9-8.76-8.96-9.6-9-10.56-9.1-11.6-9.2-12.8-9.3-14.17-9.4-15.72-9.53-17.54-9.63-19.6-9.72-22-9.8-24.8-9.8-28.03-9.74-31.76-9.58-36.1-9.25-41.02-8.7-46.56-7.86-52.6-6.63-58.84-4.92-18.3-.76v-2zM576.78 619.5l-1.4 11.18-1 11.64-1.98-.17.98-11.68 1.42-11.26.36-2.1h2.03zm546.1-296.55l-52.4 3.28-55 5.76-48.8 7.17-43.06 8.2-37.88 8.87-33.34 9.3-29.4 9.53-26 9.66-23.05 9.68-20.52 9.66-18.35 9.58-16.45 9.5-14.8 9.4-13.38 9.28-12.1 9.2-11.02 9.1-10.04 9.02-9.17 8.97-8.38 8.93-7.68 8.9-7.04 8.88-6.47 8.9-5.93 8.94-5.44 9-5 9.05-4.55 9.16-4.14 9.3-3.74 9.46-3.36 9.65-2.98 9.88-2.6 10.13-2.22 10.44-1.13 6.72v-11l1.4-6.6 2.63-10.23 3-9.94 3.4-9.73 3.76-9.54 4.18-9.4 4.6-9.23 5-9.14 5.5-9.06 5.98-9 6.52-8.97 7.1-8.95 7.73-8.96 8.44-9 9.23-9.02 10.1-9.08 11.06-9.16 12.18-9.24 13.44-9.34 14.88-9.44 16.52-9.53 18.42-9.63 20.6-9.7 23.13-9.7 26.07-9.7 29.48-9.55 33.42-9.32 37.97-8.9 43.14-8.2 48.9-7.2 55.1-5.77 52.54-3.3z" fill="#5e5e5e"/><path d="M1831.78 660.72h-2l-.03-1 2-.05zM578 643.38l-5.08 14.1-4.2-14.4z" fill="#5e5e5e"/><path d="M579.4 642.42l-6.58 18.3-5.43-18.67zm-6.38 11.84l3.57-9.93-6.52-.2z" fill="#5e5e5e"/><use xlink:href="#m" transform="matrix(1,0,0,1,1122.8784730554516,309.3575617644207) translate(0.0049999999999954525 14.222222222222223)"/><path d="M1117.65 405.72l31.25 3.94 29.5 4.98 27.48 5.84 25.38 6.5 23.25 7.02 21.2 7.37 19.24 7.6 17.43 7.76 15.77 7.82 14.26 7.84 12.9 7.8 11.7 7.76 10.58 7.7 9.6 7.6 8.74 7.53 7.95 7.45 7.23 7.38 6.58 7.3 6 7.27 5.5 7.2 4.98 7.2 4.54 7.14 4.13 7.15 3.74 7.15 3.4 7.2 3.03 7.22 2.7 7.28 2.4 7.37 2.08 7.46 1.78 7.58 1.47 7.72 1.17 7.9.85 8.07.52 8.3.16 7.54-2 .04-.16-7.5-.52-8.22-.84-8-1.14-7.8-1.46-7.65-1.76-7.5-2.06-7.38-2.36-7.3-2.68-7.2-3-7.15-3.36-7.1-3.7-7.1-4.1-7.07-4.5-7.1-4.93-7.1-5.43-7.14-5.95-7.2-6.53-7.24-7.17-7.32-7.88-7.4-8.68-7.48-9.55-7.56-10.52-7.64-11.6-7.7-12.85-7.78-14.2-7.8-15.68-7.78-17.35-7.72-19.16-7.57-21.1-7.35-23.18-7-25.3-6.47-27.4-5.82-29.4-4.96-31.18-3.93-4.4-.36v-2zm-161.45 1.62l-4.47.38-31.16 3.93-29.4 4.97-27.4 5.82-25.3 6.5-23.17 6.98-21.1 7.34-19.17 7.58-17.34 7.72-15.7 7.8-14.2 7.78L715 481.9l-11.6 7.72-10.53 7.64-9.54 7.56-8.66 7.48-7.88 7.4-7.17 7.3-6.54 7.27-5.95 7.2-5.4 7.13-4.96 7.1-4.5 7.1-4.08 7.08-3.7 7.08-3.35 7.1-3 7.16-2.68 7.2-2.36 7.3-2.06 7.37-1.76 7.5-1.46 7.63-1.15 7.8-.66 6.32-2-.2.68-6.36 1.16-7.9 1.48-7.72 1.78-7.58 2.08-7.47 2.4-7.36 2.7-7.3 3.04-7.2 3.38-7.2 3.75-7.16 4.14-7.14 4.54-7.16 5-7.17 5.46-7.22 6-7.24 6.6-7.32 7.22-7.38 7.94-7.45 8.73-7.52 9.6-7.6 10.6-7.7 11.68-7.76 12.9-7.8 14.27-7.85 15.77-7.82 17.42-7.75 19.23-7.6 21.18-7.38 23.25-7.02 25.37-6.5 27.5-5.84 29.47-5 31.25-3.93 4.68-.4zM1466.15 660.72h-2l-.02-1 2-.05zM609.56 643.46l-5.3 14.03L600.3 643z" fill="#5e5e5e"/><path d="M610.98 642.53l-6.88 18.2-5.13-18.77zm-6.58 11.73l3.73-9.86-6.5-.3z" fill="#5e5e5e"/><use xlink:href="#m" transform="matrix(1,0,0,1,956.1982019866674,391.9198547525651) translate(0.0049999999999954525 14.222222222222223)"/><path d="M1809.72 818.62h1.06l-1.16 2.74-3.38 7.2-3.76 7.17-4.13 7.16-4.56 7.16-5 7.2-5.5 7.22-6 7.27-6.6 7.33-7.25 7.4-7.96 7.46-8.76 7.55-9.63 7.6-10.6 7.72-11.7 7.77-12.93 7.82-14.3 7.85-15.8 7.83-17.45 7.77-19.28 7.62-21.23 7.38-23.3 7.02-25.4 6.52-27.56 5.85-29.54 5-1.6.2v-2.02l1.3-.17 29.47-4.97 27.46-5.82 25.35-6.5 23.2-7 21.17-7.36 19.2-7.6 17.38-7.73 15.72-7.8 14.22-7.82 12.85-7.78 11.64-7.72 10.54-7.66 9.57-7.58 8.68-7.5 7.9-7.4 7.18-7.33 6.55-7.26 5.96-7.2 5.44-7.16 4.95-7.12 4.5-7.1 4.1-7.1 3.7-7.1 3.37-7.12 1.92-4.58zM964.7 768.46l1.15 7.82 1.46 7.65 1.78 7.52 2.06 7.4 2.37 7.3 2.7 7.2 3 7.17 3.36 7.13 3.7 7.1 4.1 7.1 4.5 7.1 4.96 7.1 5.44 7.17 5.96 7.2 6.54 7.27 7.2 7.32 7.88 7.4 8.68 7.5 9.56 7.58 10.54 7.66 11.64 7.72 12.85 7.78 14.22 7.8 15.72 7.8 17.38 7.75 19.2 7.6 21.14 7.36 23.22 7 25.34 6.5 27.45 5.83 29.46 4.97 1.38.17v2.02l-1.66-.2-29.54-5-27.54-5.85-25.42-6.5-23.3-7.04-21.22-7.4-19.27-7.6-17.46-7.78-15.8-7.83-14.3-7.85-12.9-7.83-11.72-7.77-10.6-7.7-9.63-7.63-8.75-7.55-7.95-7.47-7.25-7.4-6.6-7.32-6-7.27-5.5-7.22-5-7.2-4.55-7.16-4.13-7.17-3.75-7.16-3.4-7.2-3.03-7.24-2.72-7.3-2.4-7.38-2.08-7.48-1.78-7.6-1.48-7.73-1.16-7.9-.68-6.4 2-.2zm861.12-23.7l-.15 7.55-.53 8.33-.85 8.1-1.17 7.9-1.48 7.74-1.78 7.6-1.5 5.3h-2.06l1.63-5.8 1.76-7.52 1.45-7.65 1.16-7.82.85-8.02.52-8.23.15-7.52z" fill="#5e5e5e"/><path d="M1825.82 744.78l-2-.04.03-1.02h2zM967.62 761l-9.26.43 3.96-14.47z" fill="#5e5e5e"/><path d="M969.04 761.92l-12 .57 5.13-18.78zm-9.35-1.56l6.5-.3-3.73-9.87z" fill="#5e5e5e"/><use xlink:href="#h" transform="matrix(1,0,0,1,1280.6113388726528,991.6851270362956) translate(0.0049999999999954525 14.222222222222223)"/><path d="M1980.6 703.22h-19.94v-2h19.94zm139.4 0h-52.53v-2H2120z" fill="#5e5e5e"/><path d="M1960.68 703.22h-1.03v-2h1.03zM2135.26 702.22l-14.26 4.64v-9.27z" fill="#5e5e5e"/><path d="M2138.5 702.22l-18.5 6.02V696.2zm-16.5 3.26l10.03-3.26-10.03-3.25z" fill="#5e5e5e"/><use xlink:href="#o" transform="matrix(1,0,0,1,1980.602177086747,691.5581672321064) translate(0.005000000000002558 14.222222222222223)"/><path d="M2156 662.22c-8.84 0-16 7.17-16 16v48c0 8.84 7.16 16 16 16h128c8.84 0 16-7.16 16-16v-48c0-8.83-7.16-16-16-16z" stroke="#5e5e5e" stroke-width="3" fill="#fff"/><use xlink:href="#p" transform="matrix(1,0,0,1,2148,670.2248338987729) translate(13.419753086419746 36.44444444444444)"/><path d="M2164.02 631.44l-1.53 3.3-1.42 3.8-1.24 4.37-1 5.07-.7 5.9-.23 5.9-2-.08.24-6 .72-6.04 1.04-5.22 1.28-4.53 1.46-3.94 1.5-3.25h2.3zm51.16-.06l1.57 3.57 1.42 4.1.8 3.1-1.93.5-.8-3.03-1.36-3.94-1.5-3.42-.83-1.55h2.27z" fill="#5e5e5e"/><path d="M2157.9 659.74l-.03.98h-1.97v-1.06zM2219.75 657.5l-6.24-13.63 9.22-1.06z" fill="#5e5e5e"/><path d="M2220.12 660.72l-8.1-17.7 11.95-1.36zM2215 644.7l4.38 9.6 2.1-10.34z" fill="#5e5e5e"/><use xlink:href="#q" transform="matrix(1,0,0,1,2107.8727653641777,609.3763967670733) translate(0.005000000000002558 14.222222222222223)"/><path d="M2283.4 659.73l.02-.4.17-1.24.24-1.15.34-1.04.4-.96.5-.92.57-.88.66-.85.8-.83.9-.8 1.06-.8 1.26-.77 1.5-.74 1.84-.72 2.23-.64 2.73-.54 3.35-.35 4.03-.06 4.68.34 5.06.82 5.02 1.28 4.55 1.6 3.82 1.72 3.05 1.72 2.37 1.63 1.82 1.5 1.4 1.4 1.1 1.28.82 1.18v.02l.87 1.56.65 1.6.46 1.68.26 1.8.05 1.93-.2 2.15-.53 2.43-.96 2.78-1.56 3.17-2.33 3.6-3.28 3.93-4.24 4.02-4.98 3.7-4.67 2.66" stroke="#5e5e5e" stroke-width="2" fill="none"/><path d="M2284.4 659.74l-.04 1.02-.26-.04h-1.74l.05-1.06z" fill="#5e5e5e"/><path d="M2304.63 701.4l12.6-8.13 2.38 8.96z" stroke="#5e5e5e" stroke-width="2" fill="#5e5e5e"/><use xlink:href="#r" transform="matrix(1,0,0,1,2347.6228721517477,648.9997863765144) translate(0.0049999999999954525 14.222222222222223)"/><path d="M1482.32 764.92l.98 6.7 1.26 6.57 1.5 6.43 1.77 6.33 2.04 6.26 2.3 6.2 2.58 6.13 2.87 6.1 3.18 6.08 3.5 6.08 3.87 6.1 4.25 6.1 4.65 6.14 5.12 6.17 5.6 6.24 6.15 6.3 6.77 6.34 7.44 6.42 8.2 6.5 9.04 6.56 9.97 6.63 11.02 6.66 12.18 6.7 13.48 6.68 14.9 6.63 16.46 6.5 18.13 6.32 19.9 6 21.74 5.57 23.53 5 25.27 4.27 26.77 3.38 27.97 2.35 11.36.47v2l-11.5-.48-28.04-2.35-26.85-3.38-25.34-4.28-23.63-5.02-21.8-5.6-20-6.02-18.2-6.34-16.55-6.54-14.98-6.67-13.55-6.72-12.26-6.74-11.1-6.73-10.05-6.67-9.1-6.6-8.26-6.55-7.52-6.48-6.83-6.4-6.2-6.36-5.68-6.28-5.16-6.24-4.7-6.2-4.3-6.17-3.9-6.15-3.55-6.15-3.22-6.16-2.9-6.18-2.62-6.22-2.32-6.26-2.06-6.34-1.8-6.42-1.52-6.52-1.27-6.64-1-6.8-.3-2.87 2-.22zm738.66-20.17l-.13 6.35-.45 7.14-.73 6.95-1 6.77-1.27 6.65-1.53 6.52-1.8 6.42-2.05 6.33-2.33 6.26-2.63 6.2-2.9 6.2-3.23 6.15-3.55 6.16-3.92 6.16-4.3 6.17-4.7 6.2-5.16 6.24-5.67 6.3-6.22 6.33-6.83 6.4-7.5 6.5-8.27 6.54-9.1 6.62-10.05 6.67-11.1 6.7-12.26 6.74-13.56 6.73-14.98 6.66-16.54 6.54-18.22 6.34-20 6.04-21.76 5.58h-9.62l9.12-1.93 21.73-5.6 19.9-6 18.14-6.3L2073 924l14.9-6.64 13.5-6.7 12.18-6.7 11.02-6.66 9.98-6.62 9.04-6.57 8.2-6.48 7.44-6.42 6.77-6.36 6.16-6.28 5.6-6.23 5.1-6.18 4.67-6.13 4.25-6.1 3.86-6.1 3.5-6.07 3.2-6.1 2.87-6.1 2.58-6.13 2.3-6.2 2.03-6.24 1.77-6.34 1.5-6.44 1.26-6.56.98-6.7.72-6.87.45-7.06.13-6.3z" fill="#5e5e5e"/><path d="M2220.98 744.78l-2-.04.02-1.02h2zM1485.6 760.94l-9.26.52 3.84-14.5z" fill="#5e5e5e"/><path d="M1487.03 761.87l-12 .66 4.97-18.8zm-9.37-1.5l6.5-.35-3.8-9.83z" fill="#5e5e5e"/><use xlink:href="#s" transform="matrix(1,0,0,1,1818.1014655428726,950.3202981230926) translate(0.0049999999999954525 14.222222222222223)"/><defs><path fill="#333" d="M206 0h-36l-40-164L89 0H53L-1-190h32L70-26l43-164h34l41 164 42-164h31" id="t"/><path fill="#333" d="M141-36C126-15 110 5 73 4 37 3 15-17 15-53c-1-64 63-63 125-63 3-35-9-54-41-54-24 1-41 7-42 31l-33-3c5-37 33-52 76-52 45 0 72 20 72 64v82c-1 20 7 32 28 27v20c-31 9-61-2-59-35zM48-53c0 20 12 33 32 33 41-3 63-29 60-74-43 2-92-5-92 41" id="u"/><path fill="#333" d="M24-231v-30h32v30H24zM24 0v-190h32V0H24" id="v"/><path fill="#333" d="M59-47c-2 24 18 29 38 22v24C64 9 27 4 27-40v-127H5v-23h24l9-43h21v43h35v23H59v120" id="w"/><path fill="#333" d="M117-194c89-4 53 116 60 194h-32v-121c0-31-8-49-39-48C34-167 62-67 57 0H25l-1-190h30c1 10-1 24 2 32 11-22 29-35 61-36" id="x"/><path fill="#333" d="M177-190C167-65 218 103 67 71c-23-6-38-20-44-43l32-5c15 47 100 32 89-28v-30C133-14 115 1 83 1 29 1 15-40 15-95c0-56 16-97 71-98 29-1 48 16 59 35 1-10 0-23 2-32h30zM94-22c36 0 50-32 50-73 0-42-14-75-50-75-39 0-46 34-46 75s6 73 46 73" id="y"/><path fill="#333" d="M-5 72V49h209v23H-5" id="z"/><path fill="#333" d="M114-163C36-179 61-72 57 0H25l-1-190h30c1 12-1 29 2 39 6-27 23-49 58-41v29" id="A"/><path fill="#333" d="M100-194c62-1 85 37 85 99 1 63-27 99-86 99S16-35 15-95c0-66 28-99 85-99zM99-20c44 1 53-31 53-75 0-43-8-75-51-75s-53 32-53 75 10 74 51 75" id="B"/><path fill="#333" d="M210-169c-67 3-38 105-44 169h-31v-121c0-29-5-50-35-48C34-165 62-65 56 0H25l-1-190h30c1 10-1 24 2 32 10-44 99-50 107 0 11-21 27-35 58-36 85-2 47 119 55 194h-31v-121c0-29-5-49-35-48" id="C"/><g id="a"><use transform="matrix(0.06172839506172839,0,0,0.06172839506172839,0,0)" xlink:href="#t"/><use transform="matrix(0.06172839506172839,0,0,0.06172839506172839,15.987654320987653,0)" xlink:href="#u"/><use transform="matrix(0.06172839506172839,0,0,0.06172839506172839,28.333333333333332,0)" xlink:href="#v"/><use transform="matrix(0.06172839506172839,0,0,0.06172839506172839,33.20987654320987,0)" xlink:href="#w"/><use transform="matrix(0.06172839506172839,0,0,0.06172839506172839,39.382716049382715,0)" xlink:href="#v"/><use transform="matrix(0.06172839506172839,0,0,0.06172839506172839,44.25925925925926,0)" xlink:href="#x"/><use transform="matrix(0.06172839506172839,0,0,0.06172839506172839,56.60493827160494,0)" xlink:href="#y"/><use transform="matrix(0.06172839506172839,0,0,0.06172839506172839,68.95061728395062,0)" xlink:href="#z"/><use transform="matrix(0.06172839506172839,0,0,0.06172839506172839,81.2962962962963,0)" xlink:href="#A"/><use transform="matrix(0.06172839506172839,0,0,0.06172839506172839,88.64197530864199,0)" xlink:href="#B"/><use transform="matrix(0.06172839506172839,0,0,0.06172839506172839,100.98765432098767,0)" xlink:href="#B"/><use transform="matrix(0.06172839506172839,0,0,0.06172839506172839,113.33333333333336,0)" xlink:href="#C"/></g><path fill="#333" d="M85-194c31 0 48 13 60 33l-1-100h32l1 261h-30c-2-10 0-23-3-31C134-8 116 4 85 4 32 4 16-35 15-94c0-66 23-100 70-100zm9 24c-40 0-46 34-46 75 0 40 6 74 45 74 42 0 51-32 51-76 0-42-9-74-50-73" id="D"/><path fill="#333" d="M24 0v-261h32V0H24" id="E"/><path fill="#333" d="M100-194c63 0 86 42 84 106H49c0 40 14 67 53 68 26 1 43-12 49-29l28 8c-11 28-37 45-77 45C44 4 14-33 15-96c1-61 26-98 85-98zm52 81c6-60-76-77-97-28-3 7-6 17-6 28h103" id="F"/><path fill="#333" d="M115-194c55 1 70 41 70 98S169 2 115 4C84 4 66-9 55-30l1 105H24l-1-265h31l2 30c10-21 28-34 59-34zm-8 174c40 0 45-34 45-75s-6-73-45-74c-42 0-51 32-51 76 0 43 10 73 51 73" id="G"/><path fill="#333" d="M179-190L93 31C79 59 56 82 12 73V49c39 6 53-20 64-50L1-190h34L92-34l54-156h33" id="H"/><g id="b"><use transform="matrix(0.06172839506172839,0,0,0.06172839506172839,0,0)" xlink:href="#v"/><use transform="matrix(0.06172839506172839,0,0,0.06172839506172839,4.876543209876543,0)" xlink:href="#D"/><use transform="matrix(0.06172839506172839,0,0,0.06172839506172839,17.22222222222222,0)" xlink:href="#E"/><use transform="matrix(0.06172839506172839,0,0,0.06172839506172839,22.098765432098766,0)" xlink:href="#F"/><use transform="matrix(0.06172839506172839,0,0,0.06172839506172839,34.44444444444444,0)" xlink:href="#z"/><use transform="matrix(0.06172839506172839,0,0,0.06172839506172839,46.79012345679012,0)" xlink:href="#G"/><use transform="matrix(0.06172839506172839,0,0,0.06172839506172839,59.1358024691358,0)" xlink:href="#E"/><use transform="matrix(0.06172839506172839,0,0,0.06172839506172839,64.01234567901234,0)" xlink:href="#u"/><use transform="matrix(0.06172839506172839,0,0,0.06172839506172839,76.35802469135803,0)" xlink:href="#H"/><use transform="matrix(0.06172839506172839,0,0,0.06172839506172839,87.46913580246914,0)" xlink:href="#F"/><use transform="matrix(0.06172839506172839,0,0,0.06172839506172839,99.81481481481482,0)" xlink:href="#A"/></g><path fill="#333" d="M190-63c-7 42-38 67-86 67-59 0-84-38-90-98-12-110 154-137 174-36l-49 2c-2-19-15-32-35-32-30 0-35 28-38 64-6 74 65 87 74 30" id="I"/><path fill="#333" d="M25 0v-261h50V0H25" id="J"/><path fill="#333" d="M25-224v-37h50v37H25zM25 0v-190h50V0H25" id="K"/><path fill="#333" d="M147 0L96-86 75-71V0H25v-261h50v150l67-79h53l-66 74L201 0h-54" id="L"/><path fill="#333" d="M-4 44V30h207v14H-4" id="M"/><path fill="#333" d="M135-194c52 0 70 43 70 98 0 56-19 99-73 100-30 1-46-15-58-35L72 0H24l1-261h50v104c11-23 29-37 60-37zM114-30c31 0 40-27 40-66 0-37-7-63-39-63s-41 28-41 65c0 36 8 64 40 64" id="N"/><path fill="#333" d="M185-48c-13 30-37 53-82 52C43 2 14-33 14-96s30-98 90-98c62 0 83 45 84 108H66c0 31 8 55 39 56 18 0 30-7 34-22zm-45-69c5-46-57-63-70-21-2 6-4 13-4 21h74" id="O"/><path fill="#333" d="M195-6C206 82 75 100 31 46c-4-6-6-13-8-21l49-6c3 16 16 24 34 25 40 0 42-37 40-79-11 22-30 35-61 35-53 0-70-43-70-97 0-56 18-96 73-97 30 0 46 14 59 34l2-30h47zm-90-29c32 0 41-27 41-63 0-35-9-62-40-62-32 0-39 29-40 63 0 36 9 62 39 62" id="P"/><path fill="#333" d="M135-194c87-1 58 113 63 194h-50c-7-57 23-157-34-157-59 0-34 97-39 157H25l-1-190h47c2 12-1 28 3 38 12-26 28-41 61-42" id="Q"/><path fill="#333" d="M133-34C117-15 103 5 69 4 32 3 11-16 11-54c-1-60 55-63 116-61 1-26-3-47-28-47-18 1-26 9-28 27l-52-2c7-38 36-58 82-57s74 22 75 68l1 82c-1 14 12 18 25 15v27c-30 8-71 5-69-32zm-48 3c29 0 43-24 42-57-32 0-66-3-65 30 0 17 8 27 23 27" id="R"/><path fill="#333" d="M220-157c-53 9-28 100-34 157h-49v-107c1-27-5-49-29-50C55-147 81-57 75 0H25l-1-190h47c2 12-1 28 3 38 10-53 101-56 108 0 13-22 24-43 59-42 82 1 51 116 57 194h-49v-107c-1-25-5-48-29-50" id="S"/><g id="c"><use transform="matrix(0.04938271604938272,0,0,0.04938271604938272,0,0)" xlink:href="#I"/><use transform="matrix(0.04938271604938272,0,0,0.04938271604938272,9.876543209876544,0)" xlink:href="#J"/><use transform="matrix(0.04938271604938272,0,0,0.04938271604938272,14.814814814814817,0)" xlink:href="#K"/><use transform="matrix(0.04938271604938272,0,0,0.04938271604938272,19.75308641975309,0)" xlink:href="#I"/><use transform="matrix(0.04938271604938272,0,0,0.04938271604938272,29.629629629629633,0)" xlink:href="#L"/><use transform="matrix(0.04938271604938272,0,0,0.04938271604938272,39.50617283950618,0)" xlink:href="#M"/><use transform="matrix(0.04938271604938272,0,0,0.04938271604938272,49.38271604938272,0)" xlink:href="#N"/><use transform="matrix(0.04938271604938272,0,0,0.04938271604938272,60.19753086419754,0)" xlink:href="#O"/><use transform="matrix(0.04938271604938272,0,0,0.04938271604938272,70.07407407407408,0)" xlink:href="#P"/><use transform="matrix(0.04938271604938272,0,0,0.04938271604938272,80.88888888888889,0)" xlink:href="#K"/><use transform="matrix(0.04938271604938272,0,0,0.04938271604938272,85.82716049382717,0)" xlink:href="#Q"/><use transform="matrix(0.04938271604938272,0,0,0.04938271604938272,96.64197530864197,0)" xlink:href="#M"/><use transform="matrix(0.04938271604938272,0,0,0.04938271604938272,106.51851851851853,0)" xlink:href="#P"/><use transform="matrix(0.04938271604938272,0,0,0.04938271604938272,117.33333333333331,0)" xlink:href="#R"/><use transform="matrix(0.04938271604938272,0,0,0.04938271604938272,127.20987654320986,0)" xlink:href="#S"/><use transform="matrix(0.04938271604938272,0,0,0.04938271604938272,143.01234567901236,0)" xlink:href="#O"/></g><path fill="#333" d="M96-169c-40 0-48 33-48 73s9 75 48 75c24 0 41-14 43-38l32 2c-6 37-31 61-74 61-59 0-76-41-82-99-10-93 101-131 147-64 4 7 5 14 7 22l-32 3c-4-21-16-35-41-35" id="T"/><path fill="#333" d="M108 0H70L1-190h34L89-25l56-165h34" id="U"/><g id="d"><use transform="matrix(0.06172839506172839,0,0,0.06172839506172839,0,0)" xlink:href="#u"/><use transform="matrix(0.06172839506172839,0,0,0.06172839506172839,12.345679012345679,0)" xlink:href="#T"/><use transform="matrix(0.06172839506172839,0,0,0.06172839506172839,23.45679012345679,0)" xlink:href="#w"/><use transform="matrix(0.06172839506172839,0,0,0.06172839506172839,29.62962962962963,0)" xlink:href="#v"/><use transform="matrix(0.06172839506172839,0,0,0.06172839506172839,34.50617283950617,0)" xlink:href="#U"/><use transform="matrix(0.06172839506172839,0,0,0.06172839506172839,45.61728395061728,0)" xlink:href="#F"/><use transform="matrix(0.06172839506172839,0,0,0.06172839506172839,57.962962962962955,0)" xlink:href="#z"/><use transform="matrix(0.06172839506172839,0,0,0.06172839506172839,70.30864197530863,0)" xlink:href="#G"/><use transform="matrix(0.06172839506172839,0,0,0.06172839506172839,82.65432098765432,0)" xlink:href="#E"/><use transform="matrix(0.06172839506172839,0,0,0.06172839506172839,87.53086419753086,0)" xlink:href="#u"/><use transform="matrix(0.06172839506172839,0,0,0.06172839506172839,99.87654320987654,0)" xlink:href="#H"/><use transform="matrix(0.06172839506172839,0,0,0.06172839506172839,110.98765432098766,0)" xlink:href="#F"/><use transform="matrix(0.06172839506172839,0,0,0.06172839506172839,123.33333333333334,0)" xlink:href="#A"/></g><path fill="#333" d="M137-138c1-29-70-34-71-4 15 46 118 7 119 86 1 83-164 76-172 9l43-7c4 19 20 25 44 25 33 8 57-30 24-41C81-84 22-81 20-136c-2-80 154-74 161-7" id="V"/><path fill="#333" d="M115-3C79 11 28 4 28-45v-112H4v-33h27l15-45h31v45h36v33H77v99c-1 23 16 31 38 25v30" id="W"/><path fill="#333" d="M135-150c-39-12-60 13-60 57V0H25l-1-190h47c2 13-1 29 3 40 6-28 27-53 61-41v41" id="X"/><path fill="#333" d="M85 4C-2 5 27-109 22-190h50c7 57-23 150 33 157 60-5 35-97 40-157h50l1 190h-47c-2-12 1-28-3-38-12 25-28 42-61 42" id="Y"/><path fill="#333" d="M110-194c64 0 96 36 96 99 0 64-35 99-97 99-61 0-95-36-95-99 0-62 34-99 96-99zm-1 164c35 0 45-28 45-65 0-40-10-65-43-65-34 0-45 26-45 65 0 36 10 65 43 65" id="Z"/><g id="e"><use transform="matrix(0.04938271604938272,0,0,0.04938271604938272,0,0)" xlink:href="#I"/><use transform="matrix(0.04938271604938272,0,0,0.04938271604938272,9.876543209876544,0)" xlink:href="#J"/><use transform="matrix(0.04938271604938272,0,0,0.04938271604938272,14.814814814814817,0)" xlink:href="#K"/><use transform="matrix(0.04938271604938272,0,0,0.04938271604938272,19.75308641975309,0)" xlink:href="#I"/><use transform="matrix(0.04938271604938272,0,0,0.04938271604938272,29.629629629629633,0)" xlink:href="#L"/><use transform="matrix(0.04938271604938272,0,0,0.04938271604938272,39.50617283950618,0)" xlink:href="#M"/><use transform="matrix(0.04938271604938272,0,0,0.04938271604938272,49.38271604938272,0)" xlink:href="#K"/><use transform="matrix(0.04938271604938272,0,0,0.04938271604938272,54.320987654320994,0)" xlink:href="#Q"/><use transform="matrix(0.04938271604938272,0,0,0.04938271604938272,65.13580246913581,0)" xlink:href="#V"/><use transform="matrix(0.04938271604938272,0,0,0.04938271604938272,75.01234567901236,0)" xlink:href="#W"/><use transform="matrix(0.04938271604938272,0,0,0.04938271604938272,80.8888888888889,0)" xlink:href="#X"/><use transform="matrix(0.04938271604938272,0,0,0.04938271604938272,87.80246913580248,0)" xlink:href="#Y"/><use transform="matrix(0.04938271604938272,0,0,0.04938271604938272,98.61728395061729,0)" xlink:href="#I"/><use transform="matrix(0.04938271604938272,0,0,0.04938271604938272,108.49382716049384,0)" xlink:href="#W"/><use transform="matrix(0.04938271604938272,0,0,0.04938271604938272,114.37037037037038,0)" xlink:href="#K"/><use transform="matrix(0.04938271604938272,0,0,0.04938271604938272,119.30864197530865,0)" xlink:href="#Z"/><use transform="matrix(0.04938271604938272,0,0,0.04938271604938272,130.12345679012347,0)" xlink:href="#Q"/><use transform="matrix(0.04938271604938272,0,0,0.04938271604938272,140.93827160493828,0)" xlink:href="#V"/></g><path fill="#333" d="M128 0H69L1-190h53L99-40l48-150h52" id="aa"/><path fill="#333" d="M135-194c53 0 70 44 70 98 0 56-19 98-73 100-31 1-45-17-59-34 3 33 2 69 2 105H25l-1-265h48c2 10 0 23 3 31 11-24 29-35 60-35zM114-30c33 0 39-31 40-66 0-38-9-64-40-64-56 0-55 130 0 130" id="ab"/><path fill="#333" d="M123 10C108 53 80 86 19 72V37c35 8 53-11 59-39L3-190h52l48 148c12-52 28-100 44-148h51" id="ac"/><g id="f"><use transform="matrix(0.04938271604938272,0,0,0.04938271604938272,0,0)" xlink:href="#R"/><use transform="matrix(0.04938271604938272,0,0,0.04938271604938272,9.876543209876544,0)" xlink:href="#I"/><use transform="matrix(0.04938271604938272,0,0,0.04938271604938272,19.75308641975309,0)" xlink:href="#W"/><use transform="matrix(0.04938271604938272,0,0,0.04938271604938272,25.629629629629633,0)" xlink:href="#K"/><use transform="matrix(0.04938271604938272,0,0,0.04938271604938272,30.567901234567906,0)" xlink:href="#aa"/><use transform="matrix(0.04938271604938272,0,0,0.04938271604938272,40.44444444444445,0)" xlink:href="#O"/><use transform="matrix(0.04938271604938272,0,0,0.04938271604938272,50.320987654320994,0)" xlink:href="#M"/><use transform="matrix(0.04938271604938272,0,0,0.04938271604938272,60.19753086419754,0)" xlink:href="#ab"/><use transform="matrix(0.04938271604938272,0,0,0.04938271604938272,71.01234567901236,0)" xlink:href="#J"/><use transform="matrix(0.04938271604938272,0,0,0.04938271604938272,75.95061728395063,0)" xlink:href="#R"/><use transform="matrix(0.04938271604938272,0,0,0.04938271604938272,85.82716049382718,0)" xlink:href="#ac"/><use transform="matrix(0.04938271604938272,0,0,0.04938271604938272,95.70370370370372,0)" xlink:href="#O"/><use transform="matrix(0.04938271604938272,0,0,0.04938271604938272,105.58024691358028,0)" xlink:href="#X"/><use transform="matrix(0.04938271604938272,0,0,0.04938271604938272,112.49382716049386,0)" xlink:href="#M"/><use transform="matrix(0.04938271604938272,0,0,0.04938271604938272,122.37037037037041,0)" xlink:href="#K"/><use transform="matrix(0.04938271604938272,0,0,0.04938271604938272,127.30864197530865,0)" xlink:href="#V"/><use transform="matrix(0.04938271604938272,0,0,0.04938271604938272,137.18518518518522,0)" xlink:href="#M"/><use transform="matrix(0.04938271604938272,0,0,0.04938271604938272,147.06172839506178,0)" xlink:href="#Q"/><use transform="matrix(0.04938271604938272,0,0,0.04938271604938272,157.8765432098766,0)" xlink:href="#Z"/><use transform="matrix(0.04938271604938272,0,0,0.04938271604938272,168.6913580246914,0)" xlink:href="#W"/><use transform="matrix(0.04938271604938272,0,0,0.04938271604938272,174.56790123456793,0)" xlink:href="#M"/><use transform="matrix(0.04938271604938272,0,0,0.04938271604938272,184.44444444444446,0)" xlink:href="#S"/><use transform="matrix(0.04938271604938272,0,0,0.04938271604938272,200.24691358024694,0)" xlink:href="#O"/></g><path fill="#333" d="M88-194c31-1 46 15 58 34l-1-101h50l1 261h-48c-2-10 0-23-3-31C134-8 116 4 84 4 32 4 16-41 15-95c0-56 19-97 73-99zm17 164c33 0 40-30 41-66 1-37-9-64-41-64s-38 30-39 65c0 43 13 65 39 65" id="ad"/><g id="g"><use transform="matrix(0.04938271604938272,0,0,0.04938271604938272,0,0)" xlink:href="#I"/><use transform="matrix(0.04938271604938272,0,0,0.04938271604938272,9.876543209876544,0)" xlink:href="#J"/><use transform="matrix(0.04938271604938272,0,0,0.04938271604938272,14.814814814814817,0)" xlink:href="#K"/><use transform="matrix(0.04938271604938272,0,0,0.04938271604938272,19.75308641975309,0)" xlink:href="#I"/><use transform="matrix(0.04938271604938272,0,0,0.04938271604938272,29.629629629629633,0)" xlink:href="#L"/><use transform="matrix(0.04938271604938272,0,0,0.04938271604938272,39.50617283950618,0)" xlink:href="#M"/><use transform="matrix(0.04938271604938272,0,0,0.04938271604938272,49.38271604938272,0)" xlink:href="#ad"/><use transform="matrix(0.04938271604938272,0,0,0.04938271604938272,60.19753086419754,0)" xlink:href="#O"/><use transform="matrix(0.04938271604938272,0,0,0.04938271604938272,70.07407407407408,0)" xlink:href="#I"/><use transform="matrix(0.04938271604938272,0,0,0.04938271604938272,79.95061728395062,0)" xlink:href="#L"/></g><path fill="#333" d="M231 0h-52l-39-155L100 0H48L-1-190h46L77-45c9-52 24-97 36-145h53l37 145 32-145h46" id="ae"/><g id="h"><use transform="matrix(0.04938271604938272,0,0,0.04938271604938272,0,0)" xlink:href="#I"/><use transform="matrix(0.04938271604938272,0,0,0.04938271604938272,9.876543209876544,0)" xlink:href="#J"/><use transform="matrix(0.04938271604938272,0,0,0.04938271604938272,14.814814814814817,0)" xlink:href="#K"/><use transform="matrix(0.04938271604938272,0,0,0.04938271604938272,19.75308641975309,0)" xlink:href="#I"/><use transform="matrix(0.04938271604938272,0,0,0.04938271604938272,29.629629629629633,0)" xlink:href="#L"/><use transform="matrix(0.04938271604938272,0,0,0.04938271604938272,39.50617283950618,0)" xlink:href="#M"/><use transform="matrix(0.04938271604938272,0,0,0.04938271604938272,49.38271604938272,0)" xlink:href="#X"/><use transform="matrix(0.04938271604938272,0,0,0.04938271604938272,56.2962962962963,0)" xlink:href="#O"/><use transform="matrix(0.04938271604938272,0,0,0.04938271604938272,66.17283950617285,0)" xlink:href="#W"/><use transform="matrix(0.04938271604938272,0,0,0.04938271604938272,72.0493827160494,0)" xlink:href="#Y"/><use transform="matrix(0.04938271604938272,0,0,0.04938271604938272,82.8641975308642,0)" xlink:href="#X"/><use transform="matrix(0.04938271604938272,0,0,0.04938271604938272,89.77777777777779,0)" xlink:href="#Q"/><use transform="matrix(0.04938271604938272,0,0,0.04938271604938272,100.5925925925926,0)" xlink:href="#M"/><use transform="matrix(0.04938271604938272,0,0,0.04938271604938272,110.46913580246914,0)" xlink:href="#ae"/><use transform="matrix(0.04938271604938272,0,0,0.04938271604938272,124.2962962962963,0)" xlink:href="#R"/><use transform="matrix(0.04938271604938272,0,0,0.04938271604938272,134.17283950617286,0)" xlink:href="#K"/><use transform="matrix(0.04938271604938272,0,0,0.04938271604938272,139.11111111111114,0)" xlink:href="#W"/><use transform="matrix(0.04938271604938272,0,0,0.04938271604938272,144.98765432098767,0)" xlink:href="#K"/><use transform="matrix(0.04938271604938272,0,0,0.04938271604938272,149.92592592592595,0)" xlink:href="#Q"/><use transform="matrix(0.04938271604938272,0,0,0.04938271604938272,160.74074074074076,0)" xlink:href="#P"/><use transform="matrix(0.04938271604938272,0,0,0.04938271604938272,171.55555555555557,0)" xlink:href="#M"/><use transform="matrix(0.04938271604938272,0,0,0.04938271604938272,181.4320987654321,0)" xlink:href="#X"/><use transform="matrix(0.04938271604938272,0,0,0.04938271604938272,188.34567901234567,0)" xlink:href="#Z"/><use transform="matrix(0.04938271604938272,0,0,0.04938271604938272,199.16049382716048,0)" xlink:href="#Z"/><use transform="matrix(0.04938271604938272,0,0,0.04938271604938272,209.9753086419753,0)" xlink:href="#S"/></g><path fill="#333" d="M135-143c-3-34-86-38-87 0 15 53 115 12 119 90S17 21 10-45l28-5c4 36 97 45 98 0-10-56-113-15-118-90-4-57 82-63 122-42 12 7 21 19 24 35" id="af"/><g id="i"><use transform="matrix(0.06172839506172839,0,0,0.06172839506172839,0,0)" xlink:href="#af"/><use transform="matrix(0.06172839506172839,0,0,0.06172839506172839,11.11111111111111,0)" xlink:href="#w"/><use transform="matrix(0.06172839506172839,0,0,0.06172839506172839,17.28395061728395,0)" xlink:href="#u"/><use transform="matrix(0.06172839506172839,0,0,0.06172839506172839,29.629629629629626,0)" xlink:href="#A"/><use transform="matrix(0.06172839506172839,0,0,0.06172839506172839,36.9753086419753,0)" xlink:href="#w"/><use transform="matrix(0.06172839506172839,0,0,0.06172839506172839,43.148148148148145,0)" xlink:href="#z"/><use transform="matrix(0.06172839506172839,0,0,0.06172839506172839,55.49382716049382,0)" xlink:href="#af"/><use transform="matrix(0.06172839506172839,0,0,0.06172839506172839,66.60493827160494,0)" xlink:href="#T"/><use transform="matrix(0.06172839506172839,0,0,0.06172839506172839,77.71604938271605,0)" xlink:href="#A"/><use transform="matrix(0.06172839506172839,0,0,0.06172839506172839,85.06172839506173,0)" xlink:href="#F"/><use transform="matrix(0.06172839506172839,0,0,0.06172839506172839,97.40740740740742,0)" xlink:href="#F"/><use transform="matrix(0.06172839506172839,0,0,0.06172839506172839,109.7530864197531,0)" xlink:href="#x"/></g><g id="j"><use transform="matrix(0.04938271604938272,0,0,0.04938271604938272,0,0)" xlink:href="#R"/><use transform="matrix(0.04938271604938272,0,0,0.04938271604938272,9.876543209876544,0)" xlink:href="#I"/><use transform="matrix(0.04938271604938272,0,0,0.04938271604938272,19.75308641975309,0)" xlink:href="#W"/><use transform="matrix(0.04938271604938272,0,0,0.04938271604938272,25.629629629629633,0)" xlink:href="#K"/><use transform="matrix(0.04938271604938272,0,0,0.04938271604938272,30.567901234567906,0)" xlink:href="#aa"/><use transform="matrix(0.04938271604938272,0,0,0.04938271604938272,40.44444444444445,0)" xlink:href="#O"/><use transform="matrix(0.04938271604938272,0,0,0.04938271604938272,50.320987654320994,0)" xlink:href="#M"/><use transform="matrix(0.04938271604938272,0,0,0.04938271604938272,60.19753086419754,0)" xlink:href="#ab"/><use transform="matrix(0.04938271604938272,0,0,0.04938271604938272,71.01234567901236,0)" xlink:href="#J"/><use transform="matrix(0.04938271604938272,0,0,0.04938271604938272,75.95061728395063,0)" xlink:href="#R"/><use transform="matrix(0.04938271604938272,0,0,0.04938271604938272,85.82716049382718,0)" xlink:href="#ac"/><use transform="matrix(0.04938271604938272,0,0,0.04938271604938272,95.70370370370372,0)" xlink:href="#O"/><use transform="matrix(0.04938271604938272,0,0,0.04938271604938272,105.58024691358028,0)" xlink:href="#X"/><use transform="matrix(0.04938271604938272,0,0,0.04938271604938272,112.49382716049386,0)" xlink:href="#M"/><use transform="matrix(0.04938271604938272,0,0,0.04938271604938272,122.37037037037041,0)" xlink:href="#K"/><use transform="matrix(0.04938271604938272,0,0,0.04938271604938272,127.30864197530865,0)" xlink:href="#V"/><use transform="matrix(0.04938271604938272,0,0,0.04938271604938272,137.18518518518522,0)" xlink:href="#M"/><use transform="matrix(0.04938271604938272,0,0,0.04938271604938272,147.06172839506178,0)" xlink:href="#S"/><use transform="matrix(0.04938271604938272,0,0,0.04938271604938272,162.86419753086426,0)" xlink:href="#O"/></g><g id="k"><use transform="matrix(0.04938271604938272,0,0,0.04938271604938272,0,0)" xlink:href="#I"/><use transform="matrix(0.04938271604938272,0,0,0.04938271604938272,9.876543209876544,0)" xlink:href="#J"/><use transform="matrix(0.04938271604938272,0,0,0.04938271604938272,14.814814814814817,0)" xlink:href="#K"/><use transform="matrix(0.04938271604938272,0,0,0.04938271604938272,19.75308641975309,0)" xlink:href="#I"/><use transform="matrix(0.04938271604938272,0,0,0.04938271604938272,29.629629629629633,0)" xlink:href="#L"/><use transform="matrix(0.04938271604938272,0,0,0.04938271604938272,39.50617283950618,0)" xlink:href="#M"/><use transform="matrix(0.04938271604938272,0,0,0.04938271604938272,49.38271604938272,0)" xlink:href="#V"/><use transform="matrix(0.04938271604938272,0,0,0.04938271604938272,59.25925925925927,0)" xlink:href="#W"/><use transform="matrix(0.04938271604938272,0,0,0.04938271604938272,65.13580246913581,0)" xlink:href="#R"/><use transform="matrix(0.04938271604938272,0,0,0.04938271604938272,75.01234567901236,0)" xlink:href="#X"/><use transform="matrix(0.04938271604938272,0,0,0.04938271604938272,81.92592592592594,0)" xlink:href="#W"/><use transform="matrix(0.04938271604938272,0,0,0.04938271604938272,87.80246913580248,0)" xlink:href="#M"/><use transform="matrix(0.04938271604938272,0,0,0.04938271604938272,97.67901234567903,0)" xlink:href="#V"/><use transform="matrix(0.04938271604938272,0,0,0.04938271604938272,107.55555555555557,0)" xlink:href="#O"/><use transform="matrix(0.04938271604938272,0,0,0.04938271604938272,117.43209876543212,0)" xlink:href="#V"/><use transform="matrix(0.04938271604938272,0,0,0.04938271604938272,127.30864197530865,0)" xlink:href="#V"/><use transform="matrix(0.04938271604938272,0,0,0.04938271604938272,137.18518518518522,0)" xlink:href="#K"/><use transform="matrix(0.04938271604938272,0,0,0.04938271604938272,142.1234567901235,0)" xlink:href="#Z"/><use transform="matrix(0.04938271604938272,0,0,0.04938271604938272,152.9382716049383,0)" xlink:href="#Q"/></g><g id="l"><use transform="matrix(0.04938271604938272,0,0,0.04938271604938272,0,0)" xlink:href="#J"/><use transform="matrix(0.04938271604938272,0,0,0.04938271604938272,4.938271604938272,0)" xlink:href="#Z"/><use transform="matrix(0.04938271604938272,0,0,0.04938271604938272,15.753086419753087,0)" xlink:href="#R"/><use transform="matrix(0.04938271604938272,0,0,0.04938271604938272,25.629629629629633,0)" xlink:href="#ad"/><use transform="matrix(0.04938271604938272,0,0,0.04938271604938272,36.44444444444445,0)" xlink:href="#M"/><use transform="matrix(0.04938271604938272,0,0,0.04938271604938272,46.320987654320994,0)" xlink:href="#V"/><use transform="matrix(0.04938271604938272,0,0,0.04938271604938272,56.19753086419754,0)" xlink:href="#W"/><use transform="matrix(0.04938271604938272,0,0,0.04938271604938272,62.074074074074076,0)" xlink:href="#R"/><use transform="matrix(0.04938271604938272,0,0,0.04938271604938272,71.95061728395063,0)" xlink:href="#X"/><use transform="matrix(0.04938271604938272,0,0,0.04938271604938272,78.86419753086422,0)" xlink:href="#W"/><use transform="matrix(0.04938271604938272,0,0,0.04938271604938272,84.74074074074076,0)" xlink:href="#M"/><use transform="matrix(0.04938271604938272,0,0,0.04938271604938272,94.6172839506173,0)" xlink:href="#V"/><use transform="matrix(0.04938271604938272,0,0,0.04938271604938272,104.49382716049386,0)" xlink:href="#I"/><use transform="matrix(0.04938271604938272,0,0,0.04938271604938272,114.37037037037041,0)" xlink:href="#X"/><use transform="matrix(0.04938271604938272,0,0,0.04938271604938272,121.28395061728398,0)" xlink:href="#O"/><use transform="matrix(0.04938271604938272,0,0,0.04938271604938272,131.1604938271605,0)" xlink:href="#O"/><use transform="matrix(0.04938271604938272,0,0,0.04938271604938272,141.03703703703707,0)" xlink:href="#Q"/></g><g id="m"><use transform="matrix(0.04938271604938272,0,0,0.04938271604938272,0,0)" xlink:href="#I"/><use transform="matrix(0.04938271604938272,0,0,0.04938271604938272,9.876543209876544,0)" xlink:href="#J"/><use transform="matrix(0.04938271604938272,0,0,0.04938271604938272,14.814814814814817,0)" xlink:href="#K"/><use transform="matrix(0.04938271604938272,0,0,0.04938271604938272,19.75308641975309,0)" xlink:href="#I"/><use transform="matrix(0.04938271604938272,0,0,0.04938271604938272,29.629629629629633,0)" xlink:href="#L"/><use transform="matrix(0.04938271604938272,0,0,0.04938271604938272,39.50617283950618,0)" xlink:href="#M"/><use transform="matrix(0.04938271604938272,0,0,0.04938271604938272,49.38271604938272,0)" xlink:href="#O"/><use transform="matrix(0.04938271604938272,0,0,0.04938271604938272,59.25925925925927,0)" xlink:href="#Q"/><use transform="matrix(0.04938271604938272,0,0,0.04938271604938272,70.07407407407408,0)" xlink:href="#ad"/><use transform="matrix(0.04938271604938272,0,0,0.04938271604938272,80.88888888888889,0)" xlink:href="#M"/><use transform="matrix(0.04938271604938272,0,0,0.04938271604938272,90.76543209876543,0)" xlink:href="#V"/><use transform="matrix(0.04938271604938272,0,0,0.04938271604938272,100.64197530864197,0)" xlink:href="#O"/><use transform="matrix(0.04938271604938272,0,0,0.04938271604938272,110.51851851851853,0)" xlink:href="#V"/><use transform="matrix(0.04938271604938272,0,0,0.04938271604938272,120.39506172839508,0)" xlink:href="#V"/><use transform="matrix(0.04938271604938272,0,0,0.04938271604938272,130.2716049382716,0)" xlink:href="#K"/><use transform="matrix(0.04938271604938272,0,0,0.04938271604938272,135.20987654320987,0)" xlink:href="#Z"/><use transform="matrix(0.04938271604938272,0,0,0.04938271604938272,146.02469135802468,0)" xlink:href="#Q"/></g><g id="n"><use transform="matrix(0.04938271604938272,0,0,0.04938271604938272,0,0)" xlink:href="#I"/><use transform="matrix(0.04938271604938272,0,0,0.04938271604938272,9.876543209876544,0)" xlink:href="#J"/><use transform="matrix(0.04938271604938272,0,0,0.04938271604938272,14.814814814814817,0)" xlink:href="#K"/><use transform="matrix(0.04938271604938272,0,0,0.04938271604938272,19.75308641975309,0)" xlink:href="#I"/><use transform="matrix(0.04938271604938272,0,0,0.04938271604938272,29.629629629629633,0)" xlink:href="#L"/><use transform="matrix(0.04938271604938272,0,0,0.04938271604938272,39.50617283950618,0)" xlink:href="#M"/><use transform="matrix(0.04938271604938272,0,0,0.04938271604938272,49.38271604938272,0)" xlink:href="#I"/><use transform="matrix(0.04938271604938272,0,0,0.04938271604938272,59.25925925925927,0)" xlink:href="#X"/><use transform="matrix(0.04938271604938272,0,0,0.04938271604938272,66.17283950617285,0)" xlink:href="#O"/><use transform="matrix(0.04938271604938272,0,0,0.04938271604938272,76.0493827160494,0)" xlink:href="#ad"/><use transform="matrix(0.04938271604938272,0,0,0.04938271604938272,86.8641975308642,0)" xlink:href="#K"/><use transform="matrix(0.04938271604938272,0,0,0.04938271604938272,91.80246913580248,0)" xlink:href="#W"/><use transform="matrix(0.04938271604938272,0,0,0.04938271604938272,97.67901234567903,0)" xlink:href="#V"/></g><g id="o"><use transform="matrix(0.04938271604938272,0,0,0.04938271604938272,0,0)" xlink:href="#I"/><use transform="matrix(0.04938271604938272,0,0,0.04938271604938272,9.876543209876544,0)" xlink:href="#J"/><use transform="matrix(0.04938271604938272,0,0,0.04938271604938272,14.814814814814817,0)" xlink:href="#K"/><use transform="matrix(0.04938271604938272,0,0,0.04938271604938272,19.75308641975309,0)" xlink:href="#I"/><use transform="matrix(0.04938271604938272,0,0,0.04938271604938272,29.629629629629633,0)" xlink:href="#L"/><use transform="matrix(0.04938271604938272,0,0,0.04938271604938272,39.50617283950618,0)" xlink:href="#M"/><use transform="matrix(0.04938271604938272,0,0,0.04938271604938272,49.38271604938272,0)" xlink:href="#I"/><use transform="matrix(0.04938271604938272,0,0,0.04938271604938272,59.25925925925927,0)" xlink:href="#R"/><use transform="matrix(0.04938271604938272,0,0,0.04938271604938272,69.13580246913581,0)" xlink:href="#X"/><use transform="matrix(0.04938271604938272,0,0,0.04938271604938272,76.0493827160494,0)" xlink:href="#ad"/></g><g id="p"><use transform="matrix(0.06172839506172839,0,0,0.06172839506172839,0,0)" xlink:href="#af"/><use transform="matrix(0.06172839506172839,0,0,0.06172839506172839,11.11111111111111,0)" xlink:href="#v"/><use transform="matrix(0.06172839506172839,0,0,0.06172839506172839,15.987654320987653,0)" xlink:href="#C"/><use transform="matrix(0.06172839506172839,0,0,0.06172839506172839,34.44444444444444,0)" xlink:href="#B"/><use transform="matrix(0.06172839506172839,0,0,0.06172839506172839,46.79012345679012,0)" xlink:href="#x"/><use transform="matrix(0.06172839506172839,0,0,0.06172839506172839,59.1358024691358,0)" xlink:href="#z"/><use transform="matrix(0.06172839506172839,0,0,0.06172839506172839,71.48148148148148,0)" xlink:href="#af"/><use transform="matrix(0.06172839506172839,0,0,0.06172839506172839,82.5925925925926,0)" xlink:href="#u"/><use transform="matrix(0.06172839506172839,0,0,0.06172839506172839,94.93827160493828,0)" xlink:href="#H"/><use transform="matrix(0.06172839506172839,0,0,0.06172839506172839,106.0493827160494,0)" xlink:href="#af"/></g><path fill="#333" d="M84 4C32 4 15-41 15-95c0-55 18-99 73-99 29 0 47 12 58 34l2-30h48l-1 265h-49V-32C136-9 114 4 84 4zm21-34c32 0 41-29 41-66 0-36-9-64-40-64-33 0-39 30-40 65 0 43 13 65 39 65" id="ag"/><g id="q"><use transform="matrix(0.04938271604938272,0,0,0.04938271604938272,0,0)" xlink:href="#ab"/><use transform="matrix(0.04938271604938272,0,0,0.04938271604938272,10.814814814814815,0)" xlink:href="#J"/><use transform="matrix(0.04938271604938272,0,0,0.04938271604938272,15.753086419753087,0)" xlink:href="#R"/><use transform="matrix(0.04938271604938272,0,0,0.04938271604938272,25.629629629629633,0)" xlink:href="#ac"/><use transform="matrix(0.04938271604938272,0,0,0.04938271604938272,35.50617283950618,0)" xlink:href="#M"/><use transform="matrix(0.04938271604938272,0,0,0.04938271604938272,45.38271604938272,0)" xlink:href="#V"/><use transform="matrix(0.04938271604938272,0,0,0.04938271604938272,55.25925925925927,0)" xlink:href="#O"/><use transform="matrix(0.04938271604938272,0,0,0.04938271604938272,65.13580246913581,0)" xlink:href="#ag"/><use transform="matrix(0.04938271604938272,0,0,0.04938271604938272,75.95061728395062,0)" xlink:href="#Y"/><use transform="matrix(0.04938271604938272,0,0,0.04938271604938272,86.76543209876543,0)" xlink:href="#O"/><use transform="matrix(0.04938271604938272,0,0,0.04938271604938272,96.64197530864197,0)" xlink:href="#Q"/><use transform="matrix(0.04938271604938272,0,0,0.04938271604938272,107.45679012345677,0)" xlink:href="#I"/><use transform="matrix(0.04938271604938272,0,0,0.04938271604938272,117.33333333333331,0)" xlink:href="#O"/></g><g id="r"><use transform="matrix(0.04938271604938272,0,0,0.04938271604938272,0,0)" xlink:href="#X"/><use transform="matrix(0.04938271604938272,0,0,0.04938271604938272,6.913580246913581,0)" xlink:href="#O"/><use transform="matrix(0.04938271604938272,0,0,0.04938271604938272,16.790123456790127,0)" xlink:href="#ab"/><use transform="matrix(0.04938271604938272,0,0,0.04938271604938272,27.604938271604947,0)" xlink:href="#O"/><use transform="matrix(0.04938271604938272,0,0,0.04938271604938272,37.48148148148149,0)" xlink:href="#R"/><use transform="matrix(0.04938271604938272,0,0,0.04938271604938272,47.35802469135803,0)" xlink:href="#W"/><use transform="matrix(0.04938271604938272,0,0,0.04938271604938272,53.23456790123457,0)" xlink:href="#M"/><use transform="matrix(0.04938271604938272,0,0,0.04938271604938272,63.111111111111114,0)" xlink:href="#V"/><use transform="matrix(0.04938271604938272,0,0,0.04938271604938272,72.98765432098767,0)" xlink:href="#O"/><use transform="matrix(0.04938271604938272,0,0,0.04938271604938272,82.86419753086422,0)" xlink:href="#ag"/><use transform="matrix(0.04938271604938272,0,0,0.04938271604938272,93.67901234567903,0)" xlink:href="#Y"/><use transform="matrix(0.04938271604938272,0,0,0.04938271604938272,104.49382716049384,0)" xlink:href="#O"/><use transform="matrix(0.04938271604938272,0,0,0.04938271604938272,114.37037037037038,0)" xlink:href="#Q"/><use transform="matrix(0.04938271604938272,0,0,0.04938271604938272,125.18518518518519,0)" xlink:href="#I"/><use transform="matrix(0.04938271604938272,0,0,0.04938271604938272,135.06172839506172,0)" xlink:href="#O"/></g><path fill="#333" d="M121-226c-27-7-43 5-38 36h38v33H83V0H34v-157H6v-33h28c-9-59 32-81 87-68v32" id="ah"/><path fill="#333" d="M114-157C55-157 80-60 75 0H25v-261h50l-1 109c12-26 28-41 61-42 86-1 58 113 63 194h-50c-7-57 23-157-34-157" id="ai"/><g id="s"><use transform="matrix(0.04938271604938272,0,0,0.04938271604938272,0,0)" xlink:href="#X"/><use transform="matrix(0.04938271604938272,0,0,0.04938271604938272,6.913580246913581,0)" xlink:href="#O"/><use transform="matrix(0.04938271604938272,0,0,0.04938271604938272,16.790123456790127,0)" xlink:href="#ab"/><use transform="matrix(0.04938271604938272,0,0,0.04938271604938272,27.604938271604947,0)" xlink:href="#O"/><use transform="matrix(0.04938271604938272,0,0,0.04938271604938272,37.48148148148149,0)" xlink:href="#R"/><use transform="matrix(0.04938271604938272,0,0,0.04938271604938272,47.35802469135803,0)" xlink:href="#W"/><use transform="matrix(0.04938271604938272,0,0,0.04938271604938272,53.23456790123457,0)" xlink:href="#M"/><use transform="matrix(0.04938271604938272,0,0,0.04938271604938272,63.111111111111114,0)" xlink:href="#V"/><use transform="matrix(0.04938271604938272,0,0,0.04938271604938272,72.98765432098767,0)" xlink:href="#O"/><use transform="matrix(0.04938271604938272,0,0,0.04938271604938272,82.86419753086422,0)" xlink:href="#ag"/><use transform="matrix(0.04938271604938272,0,0,0.04938271604938272,93.67901234567903,0)" xlink:href="#Y"/><use transform="matrix(0.04938271604938272,0,0,0.04938271604938272,104.49382716049384,0)" xlink:href="#O"/><use transform="matrix(0.04938271604938272,0,0,0.04938271604938272,114.37037037037038,0)" xlink:href="#Q"/><use transform="matrix(0.04938271604938272,0,0,0.04938271604938272,125.18518518518519,0)" xlink:href="#I"/><use transform="matrix(0.04938271604938272,0,0,0.04938271604938272,135.06172839506172,0)" xlink:href="#O"/><use transform="matrix(0.04938271604938272,0,0,0.04938271604938272,144.93827160493828,0)" xlink:href="#M"/><use transform="matrix(0.04938271604938272,0,0,0.04938271604938272,154.81481481481484,0)" xlink:href="#ah"/><use transform="matrix(0.04938271604938272,0,0,0.04938271604938272,160.69135802469137,0)" xlink:href="#K"/><use transform="matrix(0.04938271604938272,0,0,0.04938271604938272,165.62962962962965,0)" xlink:href="#Q"/><use transform="matrix(0.04938271604938272,0,0,0.04938271604938272,176.44444444444446,0)" xlink:href="#K"/><use transform="matrix(0.04938271604938272,0,0,0.04938271604938272,181.38271604938274,0)" xlink:href="#V"/><use transform="matrix(0.04938271604938272,0,0,0.04938271604938272,191.2592592592593,0)" xlink:href="#ai"/><use transform="matrix(0.04938271604938272,0,0,0.04938271604938272,202.0740740740741,0)" xlink:href="#O"/><use transform="matrix(0.04938271604938272,0,0,0.04938271604938272,211.95061728395063,0)" xlink:href="#ad"/></g></defs></g></svg>