<svg xmlns="http://www.w3.org/2000/svg" xmlns:xlink="http://www.w3.org/1999/xlink" xmlns:lucid="lucid" width="1331.47" height="600"><g transform="translate(-29.633663366336577 -40)" lucid:page-tab-id="0_0"><path d="M0 0h1870.87v1322.83H0z" fill="#fff"/><path d="M460 447.23h240v60H460z" fill="none"/><use xlink:href="#a" transform="matrix(1,0,0,1,460,447.22772277227716) translate(25.82716049382718 14.222222222222221)"/><use xlink:href="#b" transform="matrix(1,0,0,1,460,447.22772277227716) translate(69.13580246913583 14.222222222222221)"/><use xlink:href="#c" transform="matrix(1,0,0,1,460,447.22772277227716) translate(158.96296296296293 14.222222222222221)"/><use xlink:href="#d" transform="matrix(1,0,0,1,460,447.22772277227716) translate(33.67901234567903 35.55555555555556)"/><use xlink:href="#e" transform="matrix(1,0,0,1,460,447.22772277227716) translate(118.5679012345679 35.55555555555556)"/><use xlink:href="#f" transform="matrix(1,0,0,1,460,447.22772277227716) translate(148.14814814814815 35.55555555555556)"/><use xlink:href="#g" transform="matrix(1,0,0,1,460,447.22772277227716) translate(158.02469135802468 35.55555555555556)"/><use xlink:href="#h" transform="matrix(1,0,0,1,460,447.22772277227716) translate(72.64197530864197 56.888888888888886)"/><use xlink:href="#i" transform="matrix(1,0,0,1,460,447.22772277227716) translate(142.71604938271605 56.888888888888886)"/><path d="M460 200h222.25v60H460z" fill="none"/><use xlink:href="#j" transform="matrix(1,0,0,1,460,200) translate(47.1388888888889 22)"/><use xlink:href="#k" transform="matrix(1,0,0,1,460,200) translate(89.30555555555557 22)"/><use xlink:href="#l" transform="matrix(1,0,0,1,460,200) translate(139.25 22)"/><use xlink:href="#m" transform="matrix(1,0,0,1,460,200) translate(170.30555555555554 22)"/><use xlink:href="#n" transform="matrix(1,0,0,1,460,200) translate(18.25 46)"/><path d="M140 180h240v60H140z" fill="none"/><use xlink:href="#o" transform="matrix(1,0,0,1,140,180) translate(0.9876543209876445 21.111111111111114)"/><use xlink:href="#p" transform="matrix(1,0,0,1,140,180) translate(81.1111111111111 21.111111111111114)"/><use xlink:href="#q" transform="matrix(1,0,0,1,140,180) translate(111.97530864197529 21.111111111111114)"/><use xlink:href="#r" transform="matrix(1,0,0,1,140,180) translate(161.23456790123456 21.111111111111114)"/><use xlink:href="#s" transform="matrix(1,0,0,1,140,180) translate(192.09876543209876 21.111111111111114)"/><use xlink:href="#t" transform="matrix(1,0,0,1,140,180) translate(23.271604938271622 47.777777777777786)"/><use xlink:href="#u" transform="matrix(1,0,0,1,140,180) translate(35.6172839506173 47.777777777777786)"/><path d="M580 560h240v60H580z" fill="none"/><use xlink:href="#v" transform="matrix(1,0,0,1,580,560) translate(43.58024691358024 34.44444444444444)"/><use xlink:href="#w" transform="matrix(1,0,0,1,580,560) translate(112.59259259259258 34.44444444444444)"/><use xlink:href="#x" transform="matrix(1,0,0,1,580,560) translate(168.08641975308643 34.44444444444444)"/><path d="M49.63 280h240v60h-240z" fill="none"/><use xlink:href="#y" transform="matrix(1,0,0,1,49.63366336633658,280) translate(52.777777777777786 34.44444444444444)"/><path d="M140 460h240v60H140z" fill="none"/><use xlink:href="#o" transform="matrix(1,0,0,1,140,460) translate(19.537037037037038 17.77777777777778)"/><use xlink:href="#z" transform="matrix(1,0,0,1,140,460) translate(99.6604938271605 17.77777777777778)"/><use xlink:href="#w" transform="matrix(1,0,0,1,140,460) translate(152.62345679012347 17.77777777777778)"/><use xlink:href="#A" transform="matrix(1,0,0,1,140,460) translate(208.1172839506173 17.77777777777778)"/><use xlink:href="#B" transform="matrix(1,0,0,1,140,460) translate(80.55555555555557 44.44444444444444)"/><use xlink:href="#C" transform="matrix(1,0,0,1,140,460) translate(153.2716049382716 44.44444444444444)"/><use xlink:href="#D" transform="matrix(1,0,0,1,140,460) translate(4.1666666666667 71.11111111111111)"/><path d="M580 60h240v60H580z" fill="none"/><use xlink:href="#E" transform="matrix(1,0,0,1,580,60) translate(30 21.111111111111114)"/><use xlink:href="#F" transform="matrix(1,0,0,1,580,60) translate(63.333333333333336 21.111111111111114)"/><use xlink:href="#G" transform="matrix(1,0,0,1,580,60) translate(116.2962962962963 21.111111111111114)"/><use xlink:href="#H" transform="matrix(1,0,0,1,580,60) translate(174.19753086419755 21.111111111111114)"/><use xlink:href="#I" transform="matrix(1,0,0,1,580,60) translate(82.99382716049382 47.777777777777786)"/><path d="M265.63 300c-8.83 0-16 7.16-16 16v48c0 8.84 7.17 16 16 16h308c8.84 0 16-7.16 16-16v-48c0-8.84-7.16-16-16-16z" stroke="#5e5e5e" stroke-width="3" fill="#fff"/><use xlink:href="#J" transform="matrix(1,0,0,1,257.6336633663366,308) translate(15.981481481481524 36.44444444444444)"/><use xlink:href="#K" transform="matrix(1,0,0,1,257.6336633663366,308) translate(226.7222222222222 36.44444444444444)"/><use xlink:href="#L" transform="matrix(1,0,0,1,257.6336633663366,308) translate(261.2283950617284 36.44444444444444)"/><path d="M129.63 340c0 11.05-8.95 20-20 20-11.04 0-20-8.95-20-20s8.96-20 20-20c11.05 0 20 8.95 20 20z" stroke="#5e5e5e" stroke-width="3"/><path d="M132.13 340h97.5" stroke="#5e5e5e" stroke-width="2" fill="none"/><path d="M132.16 341h-1.14l.12-.93-.04-1.07h1.06z" fill="#5e5e5e"/><path d="M244.9 340l-14.27 4.64v-9.28z" stroke="#5e5e5e" stroke-width="2" fill="#5e5e5e"/><path d="M876 301.8c-8.84 0-16 7.17-16 16v48c0 8.84 7.16 16 16 16h258.37c8.83 0 16-7.16 16-16v-48c0-8.83-7.17-16-16-16z" stroke="#5e5e5e" stroke-width="3" fill="#fff"/><use xlink:href="#J" transform="matrix(1,0,0,1,868,309.80693069306926) translate(5.000000000000028 36.44444444444444)"/><use xlink:href="#M" transform="matrix(1,0,0,1,868,309.80693069306926) translate(215.7407407407407 36.44444444444444)"/><path d="M419.65 297.5l.1-4.8.36-5.62.58-5.46.8-5.33.98-5.22 1.2-5.12 1.4-5.04 1.62-4.97 1.83-4.9 2.06-4.88 2.28-4.84 2.52-4.83 2.8-4.82 3.05-4.82 3.37-4.83 3.68-4.86 4.05-4.88 4.43-4.94 4.87-4.96 5.34-5.02 5.88-5.07 6.46-5.1 7.13-5.18 7.87-5.22 8.68-5.26 9.6-5.27 10.6-5.26 11.74-5.2 12.94-5.13 14.27-4.96 15.67-4.72 17.1-4.4 18.56-3.92 19.9-3.37 21.14-2.67 22.1-1.85 22.73-.95h22.98l22.8.95 22.24 1.87 21.32 2.7 20.13 3.4 18.8 3.98 17.35 4.46 15.9 4.8 14.5 5.03 13.17 5.2 11.92 5.32 10.8 5.35 9.74 5.36 8.82 5.34 8 5.3 7.22 5.25 6.56 5.2 5.96 5.14 5.4 5.08 4.94 5.03 4.5 5 4.08 4.94 3.73 4.9 3.4 4.9 3.08 4.86 2.8 4.86 2.55 4.86 2.3 4.88 2.06 4.9 1.84 4.95 1.62 5 1.4 5.06 1.22 5.14 1 5.24.55 3.78" stroke="#5e5e5e" stroke-width="2" fill="none"/><path d="M420.65 297.5l-.02 1h-2l.03-1.05z" fill="#5e5e5e"/><path d="M1005.05 297.08l-5.6-13.9 9.24-.65z" stroke="#5e5e5e" stroke-width="2" fill="#5e5e5e"/><path d="M1005.16 384.3l-.1 4.8-.35 5.62-.56 5.46-.8 5.33-1 5.23-1.2 5.1-1.4 5.05-1.6 4.97-1.83 4.9-2.04 4.88-2.28 4.84-2.52 4.83-2.8 4.8-3.05 4.83-3.35 4.84-3.68 4.85-4.05 4.9-4.43 4.9-4.87 4.97-5.35 5-5.87 5.08-6.46 5.12-7.12 5.17-7.86 5.22-8.68 5.24-9.6 5.28-10.6 5.26-11.73 5.2-12.95 5.13-14.27 4.98-15.66 4.72-17.1 4.4-18.55 3.92-19.9 3.37-21.14 2.65-22.1 1.85-22.72.95h-22.98l-22.8-.95-22.23-1.87-21.3-2.7-20.15-3.4-18.78-3.98-17.36-4.45-15.9-4.8-14.5-5.05-13.17-5.2-11.93-5.3-10.78-5.36-9.77-5.37-8.82-5.34-7.97-5.3-7.23-5.26-6.56-5.2-5.96-5.14-5.4-5.1-4.94-5.02-4.5-4.98-4.08-4.94-3.72-4.9-3.4-4.9-3.1-4.86-2.8-4.86-2.54-4.86-2.3-4.88-2.05-4.9-1.84-4.95-1.62-5-1.4-5.05-1.2-5.14-1-5.23-.57-3.8" stroke="#5e5e5e" stroke-width="2" fill="none"/><path d="M1006.16 384.36l-2-.04.02-1h2z" fill="#5e5e5e"/><path d="M419.86 384.73l5.6 13.9-9.24.65z" stroke="#5e5e5e" stroke-width="2" fill="#5e5e5e"/><path d="M358 382.5l-.1 4.23-.37 4.86-.57 4.5-.75 4.24-.9 3.96-1.06 3.73-1.2 3.5-1.3 3.32-1.44 3.13-1.54 2.97-1.64 2.8-1.75 2.68-1.84 2.53-1.94 2.4-2.05 2.27-2.13 2.15-2.22 2.02-2.3 1.9-2.4 1.8-2.5 1.65-2.56 1.52-2.63 1.4-2.7 1.27-2.77 1.12-2.8 1-2.86.83-2.88.68-2.9.54-2.88.4-2.87.23-2.83.1-2.78-.05-2.72-.18-2.64-.3-2.57-.44-2.46-.55-2.37-.65-2.28-.75-2.18-.84-2.07-.93-1.96-1-1.88-1.07-1.76-1.13-1.67-1.2-1.58-1.25-1.5-1.3-1.4-1.37-1.3-1.4-1.24-1.48-1.15-1.53-1.08-1.58-1-1.65-.93-1.7-.85-1.78-.77-1.85-.7-1.94-.6-2.03-.54-2.12-.44-2.24-.34-2.36-.23-2.5-.12-2.64.02-2.82.18-3 .35-3.24.56-3.48.06-.27" stroke="#5e5e5e" stroke-width="2" fill="none"/><path d="M359 382.55l-2-.05.03-1h2z" fill="#5e5e5e"/><path d="M257.85 383.06l.26 15-8.85-2.7z" stroke="#5e5e5e" stroke-width="2" fill="#5e5e5e"/><path d="M364.43 297.5l-.17-6.1-.54-6.34-.8-5.7-1.05-5.12-1.2-4.62-1.35-4.17-1.47-3.78-1.55-3.4-1.62-3.1-1.7-2.8-1.7-2.54-1.78-2.3-1.8-2.08-1.8-1.88-1.84-1.68-1.84-1.53-1.85-1.36-1.86-1.2-1.86-1.05-1.87-.93-1.87-.8-1.87-.67-1.88-.56-1.87-.45-1.88-.34-1.87-.2-1.88-.13h-1.87l-1.88.1-1.87.2-1.88.3-1.87.44-1.88.55-1.87.66-1.87.8-1.87.9-1.88 1.03-1.86 1.18-1.86 1.34-1.84 1.5-1.83 1.65-1.82 1.84-1.8 2.04-1.76 2.26-1.73 2.5-1.68 2.76-1.64 3.04-1.56 3.36-1.48 3.7-1.37 4.12-1.23 4.54-1.07 5.04-.24 1.58" stroke="#5e5e5e" stroke-width="2" fill="none"/><path d="M365.46 298.5h-2l-.03-1 2-.06z" fill="#5e5e5e"/><path d="M276.92 295.27l-3.5-14.58 9.26.72z" stroke="#5e5e5e" stroke-width="2" fill="#5e5e5e"/><path d="M482.55 297.5l.2-6 .66-6.1.96-5.33 1.2-4.68 1.36-4.13 1.5-3.64 1.6-3.2 1.67-2.85 1.72-2.5 1.78-2.22 1.8-1.95 1.83-1.7 1.85-1.5 1.85-1.3 1.87-1.12 1.86-.94 1.88-.8 1.87-.62 1.88-.5 1.88-.34 1.87-.2 1.88-.08 1.88.05 1.88.2 1.87.32 1.88.47 1.88.6 1.88.77 1.86.93 1.87 1.1 1.85 1.26 1.84 1.45 1.83 1.68 1.8 1.9 1.8 2.2 1.73 2.45 1.68 2.8 1.6 3.14 1.53 3.56 1.4 4.05 1.2 4.6.16.8" stroke="#5e5e5e" stroke-width="2" fill="none"/><path d="M483.55 297.5l-.03 1h-2l.03-1.06z" fill="#5e5e5e"/><path d="M552.46 295.28l-6.05-13.73 9.24-.93z" stroke="#5e5e5e" stroke-width="2" fill="#5e5e5e"/><path d="M474.1 382.5l.18 6.1.54 6.35.8 5.7 1.03 5.15 1.2 4.64 1.35 4.2 1.46 3.78 1.55 3.44 1.63 3.1 1.67 2.83 1.73 2.55 1.76 2.32 1.78 2.1 1.8 1.9 1.84 1.7 1.84 1.55 1.86 1.38 1.86 1.22 1.86 1.08 1.87.95 1.88.82 1.87.7 1.88.58 1.87.46 1.88.37 1.87.24 1.88.15 1.87.03 1.88-.07 1.87-.17 1.88-.3 1.87-.38 1.88-.5 1.87-.64 1.87-.73 1.87-.87 1.86-1 1.86-1.13 1.86-1.3 1.85-1.42 1.84-1.6 1.82-1.8 1.8-1.96 1.78-2.2 1.74-2.4 1.7-2.66 1.67-2.93 1.58-3.22 1.52-3.57 1.4-3.93 1.3-4.36 1.15-4.8.7-3.98" stroke="#5e5e5e" stroke-width="2" fill="none"/><path d="M475.1 382.5l-2 .06-.02-1.06h2z" fill="#5e5e5e"/><path d="M562.35 384.73l3.5 14.58-9.24-.72z" stroke="#5e5e5e" stroke-width="2" fill="#5e5e5e"/><path d="M1057.68 299.3l.2-6.04.6-6.2.88-5.5 1.12-4.88 1.3-4.34 1.42-3.87 1.54-3.46 1.63-3.08 1.7-2.76 1.72-2.47 1.77-2.2 1.8-1.98 1.82-1.75 1.83-1.55 1.85-1.36 1.86-1.2 1.87-1.02 1.88-.9 1.87-.73 1.87-.6 1.87-.46 1.87-.35 1.87-.23 1.88-.1 1.87.02 1.87.13 1.87.26 1.88.38 1.87.52 1.87.65 1.87.8 1.87.92 1.88 1.1 1.86 1.24 1.85 1.44 1.83 1.6 1.82 1.84 1.8 2.04 1.77 2.3 1.72 2.57 1.67 2.86 1.6 3.22 1.52 3.6 1.4 4.02 1.24 4.52.76 3.67" stroke="#5e5e5e" stroke-width="2" fill="none"/><path d="M1058.68 299.3l-.04 1h-2l.04-1.05z" fill="#5e5e5e"/><path d="M1134.8 297.17l-5.9-13.8 9.22-.83z" stroke="#5e5e5e" stroke-width="2" fill="#5e5e5e"/><path d="M1100 431.8h240v60h-240z" fill="none"/><g><use xlink:href="#o" transform="matrix(1,0,0,1,1100,431.80693069306926) translate(19.537037037037038 17.77777777777778)"/><use xlink:href="#z" transform="matrix(1,0,0,1,1100,431.80693069306926) translate(99.6604938271605 17.77777777777778)"/><use xlink:href="#w" transform="matrix(1,0,0,1,1100,431.80693069306926) translate(152.62345679012347 17.77777777777778)"/><use xlink:href="#A" transform="matrix(1,0,0,1,1100,431.80693069306926) translate(208.1172839506173 17.77777777777778)"/><use xlink:href="#B" transform="matrix(1,0,0,1,1100,431.80693069306926) translate(80.55555555555557 44.44444444444444)"/><use xlink:href="#C" transform="matrix(1,0,0,1,1100,431.80693069306926) translate(153.2716049382716 44.44444444444444)"/><use xlink:href="#D" transform="matrix(1,0,0,1,1100,431.80693069306926) translate(4.1666666666667 71.11111111111111)"/></g><path d="M1100 180h240v60h-240z" fill="none"/><g><use xlink:href="#o" transform="matrix(1,0,0,1,1100,180) translate(0.9876543209876445 21.111111111111114)"/><use xlink:href="#p" transform="matrix(1,0,0,1,1100,180) translate(81.1111111111111 21.111111111111114)"/><use xlink:href="#q" transform="matrix(1,0,0,1,1100,180) translate(111.97530864197529 21.111111111111114)"/><use xlink:href="#r" transform="matrix(1,0,0,1,1100,180) translate(161.23456790123456 21.111111111111114)"/><use xlink:href="#s" transform="matrix(1,0,0,1,1100,180) translate(192.09876543209876 21.111111111111114)"/><use xlink:href="#t" transform="matrix(1,0,0,1,1100,180) translate(23.271604938271622 47.777777777777786)"/><use xlink:href="#u" transform="matrix(1,0,0,1,1100,180) translate(35.6172839506173 47.777777777777786)"/></g><path d="M1065.95 384.3l.2 6 .67 6.06.97 5.3 1.2 4.62 1.38 4.06 1.5 3.57 1.62 3.16 1.7 2.78 1.73 2.44 1.8 2.15 1.8 1.9 1.84 1.64 1.84 1.43 1.87 1.23 1.87 1.06 1.87.87 1.88.72 1.88.56 1.87.42 1.88.28 1.88.14h1.88l1.87-.12 1.88-.28 1.88-.4 1.88-.56 1.87-.7 1.87-.88 1.87-1.04 1.86-1.22 1.85-1.42 1.83-1.64 1.83-1.86 1.78-2.13 1.76-2.43 1.7-2.74 1.6-3.12 1.53-3.54 1.38-4.03 1.22-4.6.06-.32" stroke="#5e5e5e" stroke-width="2" fill="none"/><path d="M1066.95 384.3l-2 .07-.04-1.06h2z" fill="#5e5e5e"/><path d="M1134.13 386.53l3.14 14.66-9.22-.96z" stroke="#5e5e5e" stroke-width="2" fill="#5e5e5e"/><path d="M974.94 384.3l-.18 6.1-.55 6.3-.83 5.63-1.06 5.04-1.23 4.54-1.38 4.08-1.5 3.68-1.57 3.3-1.65 3-1.7 2.7-1.75 2.42-1.77 2.2-1.8 1.97-1.83 1.77-1.84 1.58-1.86 1.42-1.86 1.25-1.86 1.1-1.87.96-1.87.82-1.88.7-1.87.57-1.88.45-1.87.34-1.88.23-1.87.1h-1.88l-1.87-.1-1.88-.23-1.87-.34-1.88-.45-1.87-.57-1.87-.7-1.86-.82-1.87-.95-1.87-1.1-1.86-1.26-1.85-1.42-1.84-1.6-1.83-1.76-1.8-1.98-1.78-2.2-1.74-2.43-1.7-2.7-1.64-2.98-1.58-3.32-1.48-3.68-1.38-4.08-1.23-4.55-1.07-5.06-.07-.5" stroke="#5e5e5e" stroke-width="2" fill="none"/><path d="M975.94 384.36l-2-.05.03-1h2z" fill="#5e5e5e"/><path d="M890.9 386.53l5.8 13.84-9.24.76z" stroke="#5e5e5e" stroke-width="2" fill="#5e5e5e"/><path d="M968.33 299.3l-.16-6.1-.52-6.4-.78-5.78-1-5.22-1.17-4.73-1.32-4.3-1.43-3.9-1.52-3.53-1.6-3.23-1.65-2.93-1.7-2.67-1.75-2.44-1.77-2.2-1.8-2.02-1.82-1.83-1.84-1.64-1.84-1.48-1.86-1.34-1.86-1.2-1.86-1.05-1.87-.95-1.86-.8-1.88-.7-1.87-.58-1.9-.47-1.86-.36-1.88-.26-1.87-.16-1.9-.05-1.86.04-1.88.16-1.87.25-1.9.37-1.86.46-1.87.57-1.88.68-1.88.8-1.87.92-1.87 1.04-1.86 1.2-1.85 1.3-1.85 1.48-1.83 1.64-1.84 1.8-1.8 2-1.77 2.2-1.76 2.4-1.7 2.66-1.67 2.92-1.6 3.2-1.53 3.5-1.44 3.87-1.33 4.27-1.18 4.68-1.03 5.18-.2 1.34" stroke="#5e5e5e" stroke-width="2" fill="none"/><path d="M969.36 300.3h-2l-.03-1 2-.05z" fill="#5e5e5e"/><path d="M876.14 297.08l-3.55-14.57 9.23.7z" stroke="#5e5e5e" stroke-width="2" fill="#5e5e5e"/><path d="M687.75 430.9h240v60h-240z" fill="none"/><g><use xlink:href="#a" transform="matrix(1,0,0,1,687.7485966573987,430.90346534653463) translate(25.82716049382718 14.222222222222221)"/><use xlink:href="#b" transform="matrix(1,0,0,1,687.7485966573987,430.90346534653463) translate(69.13580246913583 14.222222222222221)"/><use xlink:href="#c" transform="matrix(1,0,0,1,687.7485966573987,430.90346534653463) translate(158.96296296296293 14.222222222222221)"/><use xlink:href="#d" transform="matrix(1,0,0,1,687.7485966573987,430.90346534653463) translate(33.67901234567903 35.55555555555556)"/><use xlink:href="#e" transform="matrix(1,0,0,1,687.7485966573987,430.90346534653463) translate(118.5679012345679 35.55555555555556)"/><use xlink:href="#f" transform="matrix(1,0,0,1,687.7485966573987,430.90346534653463) translate(148.14814814814815 35.55555555555556)"/><use xlink:href="#g" transform="matrix(1,0,0,1,687.7485966573987,430.90346534653463) translate(158.02469135802468 35.55555555555556)"/><use xlink:href="#h" transform="matrix(1,0,0,1,687.7485966573987,430.90346534653463) translate(72.64197530864197 56.888888888888886)"/><use xlink:href="#i" transform="matrix(1,0,0,1,687.7485966573987,430.90346534653463) translate(142.71604938271605 56.888888888888886)"/></g><path d="M687.75 191.8H910v60H687.75z" fill="none"/><g><use xlink:href="#j" transform="matrix(1,0,0,1,687.7485966573987,191.8069306930693) translate(47.1388888888889 22)"/><use xlink:href="#k" transform="matrix(1,0,0,1,687.7485966573987,191.8069306930693) translate(89.30555555555557 22)"/><use xlink:href="#l" transform="matrix(1,0,0,1,687.7485966573987,191.8069306930693) translate(139.25 22)"/><use xlink:href="#m" transform="matrix(1,0,0,1,687.7485966573987,191.8069306930693) translate(170.30555555555554 22)"/><use xlink:href="#n" transform="matrix(1,0,0,1,687.7485966573987,191.8069306930693) translate(18.25 46)"/></g><defs><path fill="#333" d="M63-220v92h138v28H63V0H30v-248h175v28H63" id="N"/><path fill="#333" d="M141-36C126-15 110 5 73 4 37 3 15-17 15-53c-1-64 63-63 125-63 3-35-9-54-41-54-24 1-41 7-42 31l-33-3c5-37 33-52 76-52 45 0 72 20 72 64v82c-1 20 7 32 28 27v20c-31 9-61-2-59-35zM48-53c0 20 12 33 32 33 41-3 63-29 60-74-43 2-92-5-92 41" id="O"/><path fill="#333" d="M24 0v-261h32V0H24" id="P"/><g id="a"><use transform="matrix(0.049382716049382706,0,0,0.049382716049382706,0,0)" xlink:href="#N"/><use transform="matrix(0.049382716049382706,0,0,0.049382716049382706,10.814814814814813,0)" xlink:href="#O"/><use transform="matrix(0.049382716049382706,0,0,0.049382716049382706,20.691358024691354,0)" xlink:href="#P"/><use transform="matrix(0.049382716049382706,0,0,0.049382716049382706,24.592592592592588,0)" xlink:href="#P"/><use transform="matrix(0.049382716049382706,0,0,0.049382716049382706,28.493827160493822,0)" xlink:href="#O"/></g><path fill="#333" d="M135-143c-3-34-86-38-87 0 15 53 115 12 119 90S17 21 10-45l28-5c4 36 97 45 98 0-10-56-113-15-118-90-4-57 82-63 122-42 12 7 21 19 24 35" id="Q"/><path fill="#333" d="M100-194c63 0 86 42 84 106H49c0 40 14 67 53 68 26 1 43-12 49-29l28 8c-11 28-37 45-77 45C44 4 14-33 15-96c1-61 26-98 85-98zm52 81c6-60-76-77-97-28-3 7-6 17-6 28h103" id="R"/><path fill="#333" d="M96-169c-40 0-48 33-48 73s9 75 48 75c24 0 41-14 43-38l32 2c-6 37-31 61-74 61-59 0-76-41-82-99-10-93 101-131 147-64 4 7 5 14 7 22l-32 3c-4-21-16-35-41-35" id="S"/><path fill="#333" d="M84 4C-5 8 30-112 23-190h32v120c0 31 7 50 39 49 72-2 45-101 50-169h31l1 190h-30c-1-10 1-25-2-33-11 22-28 36-60 37" id="T"/><path fill="#333" d="M117-194c89-4 53 116 60 194h-32v-121c0-31-8-49-39-48C34-167 62-67 57 0H25l-1-190h30c1 10-1 24 2 32 11-22 29-35 61-36" id="U"/><path fill="#333" d="M24-231v-30h32v30H24zM24 0v-190h32V0H24" id="V"/><path fill="#333" d="M68-38c1 34 0 65-14 84H32c9-13 17-26 17-46H33v-38h35" id="W"/><g id="b"><use transform="matrix(0.049382716049382706,0,0,0.049382716049382706,0,0)" xlink:href="#Q"/><use transform="matrix(0.049382716049382706,0,0,0.049382716049382706,8.888888888888888,0)" xlink:href="#R"/><use transform="matrix(0.049382716049382706,0,0,0.049382716049382706,18.76543209876543,0)" xlink:href="#S"/><use transform="matrix(0.049382716049382706,0,0,0.049382716049382706,27.654320987654316,0)" xlink:href="#T"/><use transform="matrix(0.049382716049382706,0,0,0.049382716049382706,37.53086419753086,0)" xlink:href="#R"/><use transform="matrix(0.049382716049382706,0,0,0.049382716049382706,47.407407407407405,0)" xlink:href="#U"/><use transform="matrix(0.049382716049382706,0,0,0.049382716049382706,57.28395061728395,0)" xlink:href="#S"/><use transform="matrix(0.049382716049382706,0,0,0.049382716049382706,66.17283950617283,0)" xlink:href="#V"/><use transform="matrix(0.049382716049382706,0,0,0.049382716049382706,70.07407407407406,0)" xlink:href="#O"/><use transform="matrix(0.049382716049382706,0,0,0.049382716049382706,79.9506172839506,0)" xlink:href="#W"/></g><path fill="#333" d="M205 0l-28-72H64L36 0H1l101-248h38L239 0h-34zm-38-99l-47-123c-12 45-31 82-46 123h93" id="X"/><path fill="#333" d="M114-163C36-179 61-72 57 0H25l-1-190h30c1 12-1 29 2 39 6-27 23-49 58-41v29" id="Y"/><path fill="#333" d="M59-47c-2 24 18 29 38 22v24C64 9 27 4 27-40v-127H5v-23h24l9-43h21v43h35v23H59v120" id="Z"/><g id="c"><use transform="matrix(0.049382716049382706,0,0,0.049382716049382706,0,0)" xlink:href="#X"/><use transform="matrix(0.049382716049382706,0,0,0.049382716049382706,11.85185185185185,0)" xlink:href="#S"/><use transform="matrix(0.049382716049382706,0,0,0.049382716049382706,20.740740740740737,0)" xlink:href="#V"/><use transform="matrix(0.049382716049382706,0,0,0.049382716049382706,24.64197530864197,0)" xlink:href="#R"/><use transform="matrix(0.049382716049382706,0,0,0.049382716049382706,34.51851851851851,0)" xlink:href="#Y"/><use transform="matrix(0.049382716049382706,0,0,0.049382716049382706,40.395061728395056,0)" xlink:href="#Z"/><use transform="matrix(0.049382716049382706,0,0,0.049382716049382706,45.33333333333333,0)" xlink:href="#O"/></g><g id="d"><use transform="matrix(0.049382716049382706,0,0,0.049382716049382706,0,0)" xlink:href="#Q"/><use transform="matrix(0.049382716049382706,0,0,0.049382716049382706,8.888888888888888,0)" xlink:href="#R"/><use transform="matrix(0.049382716049382706,0,0,0.049382716049382706,18.76543209876543,0)" xlink:href="#S"/><use transform="matrix(0.049382716049382706,0,0,0.049382716049382706,27.654320987654316,0)" xlink:href="#T"/><use transform="matrix(0.049382716049382706,0,0,0.049382716049382706,37.53086419753086,0)" xlink:href="#R"/><use transform="matrix(0.049382716049382706,0,0,0.049382716049382706,47.407407407407405,0)" xlink:href="#U"/><use transform="matrix(0.049382716049382706,0,0,0.049382716049382706,57.28395061728395,0)" xlink:href="#S"/><use transform="matrix(0.049382716049382706,0,0,0.049382716049382706,66.17283950617283,0)" xlink:href="#V"/><use transform="matrix(0.049382716049382706,0,0,0.049382716049382706,70.07407407407406,0)" xlink:href="#O"/></g><path fill="#333" d="M185-189c-5-48-123-54-124 2 14 75 158 14 163 119 3 78-121 87-175 55-17-10-28-26-33-46l33-7c5 56 141 63 141-1 0-78-155-14-162-118-5-82 145-84 179-34 5 7 8 16 11 25" id="aa"/><path fill="#333" d="M30-248c118-7 216 8 213 122C240-48 200 0 122 0H30v-248zM63-27c89 8 146-16 146-99s-60-101-146-95v194" id="ab"/><g id="e"><use transform="matrix(0.049382716049382706,0,0,0.049382716049382706,0,0)" xlink:href="#aa"/><use transform="matrix(0.049382716049382706,0,0,0.049382716049382706,11.85185185185185,0)" xlink:href="#ab"/></g><use transform="matrix(0.049382716049382706,0,0,0.049382716049382706,0,0)" xlink:href="#W" id="f"/><path fill="#333" d="M115-194c55 1 70 41 70 98S169 2 115 4C84 4 66-9 55-30l1 105H24l-1-265h31l2 30c10-21 28-34 59-34zm-8 174c40 0 45-34 45-75s-6-73-45-74c-42 0-51 32-51 76 0 43 10 73 51 73" id="ac"/><g id="g"><use transform="matrix(0.049382716049382706,0,0,0.049382716049382706,0,0)" xlink:href="#X"/><use transform="matrix(0.049382716049382706,0,0,0.049382716049382706,11.85185185185185,0)" xlink:href="#ac"/><use transform="matrix(0.049382716049382706,0,0,0.049382716049382706,21.728395061728392,0)" xlink:href="#P"/><use transform="matrix(0.049382716049382706,0,0,0.049382716049382706,25.629629629629626,0)" xlink:href="#V"/><use transform="matrix(0.049382716049382706,0,0,0.049382716049382706,29.530864197530857,0)" xlink:href="#S"/><use transform="matrix(0.049382716049382706,0,0,0.049382716049382706,38.419753086419746,0)" xlink:href="#O"/></g><path fill="#333" d="M177-190C167-65 218 103 67 71c-23-6-38-20-44-43l32-5c15 47 100 32 89-28v-30C133-14 115 1 83 1 29 1 15-40 15-95c0-56 16-97 71-98 29-1 48 16 59 35 1-10 0-23 2-32h30zM94-22c36 0 50-32 50-73 0-42-14-75-50-75-39 0-46 34-46 75s6 73 46 73" id="ad"/><path fill="#333" d="M100-194c62-1 85 37 85 99 1 63-27 99-86 99S16-35 15-95c0-66 28-99 85-99zM99-20c44 1 53-31 53-75 0-43-8-75-51-75s-53 32-53 75 10 74 51 75" id="ae"/><g id="h"><use transform="matrix(0.049382716049382706,0,0,0.049382716049382706,0,0)" xlink:href="#S"/><use transform="matrix(0.049382716049382706,0,0,0.049382716049382706,8.888888888888888,0)" xlink:href="#O"/><use transform="matrix(0.049382716049382706,0,0,0.049382716049382706,18.76543209876543,0)" xlink:href="#Q"/><use transform="matrix(0.049382716049382706,0,0,0.049382716049382706,27.654320987654316,0)" xlink:href="#Z"/><use transform="matrix(0.049382716049382706,0,0,0.049382716049382706,32.59259259259259,0)" xlink:href="#V"/><use transform="matrix(0.049382716049382706,0,0,0.049382716049382706,36.49382716049382,0)" xlink:href="#ad"/><use transform="matrix(0.049382716049382706,0,0,0.049382716049382706,46.37037037037037,0)" xlink:href="#ae"/><use transform="matrix(0.049382716049382706,0,0,0.049382716049382706,56.24691358024691,0)" xlink:href="#Q"/></g><g id="i"><use transform="matrix(0.049382716049382706,0,0,0.049382716049382706,0,0)" xlink:href="#aa"/><use transform="matrix(0.049382716049382706,0,0,0.049382716049382706,11.85185185185185,0)" xlink:href="#ab"/></g><g id="j"><use transform="matrix(0.055555555555555546,0,0,0.055555555555555546,0,0)" xlink:href="#Q"/><use transform="matrix(0.055555555555555546,0,0,0.055555555555555546,9.999999999999998,0)" xlink:href="#O"/><use transform="matrix(0.055555555555555546,0,0,0.055555555555555546,21.111111111111107,0)" xlink:href="#P"/><use transform="matrix(0.055555555555555546,0,0,0.055555555555555546,25.499999999999996,0)" xlink:href="#R"/></g><g id="k"><use transform="matrix(0.055555555555555546,0,0,0.055555555555555546,0,0)" xlink:href="#S"/><use transform="matrix(0.055555555555555546,0,0,0.055555555555555546,9.999999999999998,0)" xlink:href="#O"/><use transform="matrix(0.055555555555555546,0,0,0.055555555555555546,21.111111111111107,0)" xlink:href="#Y"/><use transform="matrix(0.055555555555555546,0,0,0.055555555555555546,27.722222222222218,0)" xlink:href="#Z"/><use transform="matrix(0.055555555555555546,0,0,0.055555555555555546,33.27777777777777,0)" xlink:href="#O"/></g><g id="l"><use transform="matrix(0.055555555555555546,0,0,0.055555555555555546,0,0)" xlink:href="#Q"/><use transform="matrix(0.055555555555555546,0,0,0.055555555555555546,9.999999999999998,0)" xlink:href="#ae"/><use transform="matrix(0.055555555555555546,0,0,0.055555555555555546,21.111111111111107,0)" xlink:href="#P"/></g><path fill="#333" d="M0 4l72-265h28L28 4H0" id="af"/><use transform="matrix(0.055555555555555546,0,0,0.055555555555555546,0,0)" xlink:href="#af" id="m"/><path fill="#333" d="M106-169C34-169 62-67 57 0H25v-261h32l-1 103c12-21 28-36 61-36 89 0 53 116 60 194h-32v-121c2-32-8-49-39-48" id="ag"/><path fill="#333" d="M143 0L79-87 56-68V0H24v-261h32v163l83-92h37l-77 82L181 0h-38" id="ah"/><path fill="#333" d="M-5 72V49h209v23H-5" id="ai"/><path fill="#333" d="M87 75C49 33 22-17 22-94c0-76 28-126 65-167h31c-38 41-64 92-64 168S80 34 118 75H87" id="aj"/><path fill="#333" d="M33-261c38 41 65 92 65 168S71 34 33 75H2C39 34 66-17 66-93S39-220 2-261h31" id="ak"/><g id="n"><use transform="matrix(0.055555555555555546,0,0,0.055555555555555546,0,0)" xlink:href="#S"/><use transform="matrix(0.055555555555555546,0,0,0.055555555555555546,9.999999999999998,0)" xlink:href="#ag"/><use transform="matrix(0.055555555555555546,0,0,0.055555555555555546,21.111111111111107,0)" xlink:href="#R"/><use transform="matrix(0.055555555555555546,0,0,0.055555555555555546,32.222222222222214,0)" xlink:href="#S"/><use transform="matrix(0.055555555555555546,0,0,0.055555555555555546,42.222222222222214,0)" xlink:href="#ah"/><use transform="matrix(0.055555555555555546,0,0,0.055555555555555546,52.222222222222214,0)" xlink:href="#ai"/><use transform="matrix(0.055555555555555546,0,0,0.055555555555555546,63.33333333333332,0)" xlink:href="#Q"/><use transform="matrix(0.055555555555555546,0,0,0.055555555555555546,73.33333333333331,0)" xlink:href="#T"/><use transform="matrix(0.055555555555555546,0,0,0.055555555555555546,84.44444444444443,0)" xlink:href="#U"/><use transform="matrix(0.055555555555555546,0,0,0.055555555555555546,95.55555555555554,0)" xlink:href="#ai"/><use transform="matrix(0.055555555555555546,0,0,0.055555555555555546,106.66666666666666,0)" xlink:href="#S"/><use transform="matrix(0.055555555555555546,0,0,0.055555555555555546,116.66666666666664,0)" xlink:href="#ae"/><use transform="matrix(0.055555555555555546,0,0,0.055555555555555546,127.77777777777779,0)" xlink:href="#T"/><use transform="matrix(0.055555555555555546,0,0,0.055555555555555546,138.88888888888889,0)" xlink:href="#U"/><use transform="matrix(0.055555555555555546,0,0,0.055555555555555546,150,0)" xlink:href="#Z"/><use transform="matrix(0.055555555555555546,0,0,0.055555555555555546,155.55555555555554,0)" xlink:href="#R"/><use transform="matrix(0.055555555555555546,0,0,0.055555555555555546,166.66666666666666,0)" xlink:href="#Y"/><use transform="matrix(0.055555555555555546,0,0,0.055555555555555546,173.27777777777777,0)" xlink:href="#aj"/><use transform="matrix(0.055555555555555546,0,0,0.055555555555555546,179.88888888888889,0)" xlink:href="#ak"/></g><path fill="#333" d="M24-231v-30h32v30H24zM-9 49c24 4 33-6 33-30v-209h32V24c2 40-23 58-65 49V49" id="al"/><path fill="#333" d="M85-194c31 0 48 13 60 33l-1-100h32l1 261h-30c-2-10 0-23-3-31C134-8 116 4 85 4 32 4 16-35 15-94c0-66 23-100 70-100zm9 24c-40 0-46 34-46 75 0 40 6 74 45 74 42 0 51-32 51-76 0-42-9-74-50-73" id="am"/><g id="o"><use transform="matrix(0.06172839506172839,0,0,0.06172839506172839,0,0)" xlink:href="#al"/><use transform="matrix(0.06172839506172839,0,0,0.06172839506172839,4.876543209876543,0)" xlink:href="#T"/><use transform="matrix(0.06172839506172839,0,0,0.06172839506172839,17.22222222222222,0)" xlink:href="#ad"/><use transform="matrix(0.06172839506172839,0,0,0.06172839506172839,29.5679012345679,0)" xlink:href="#O"/><use transform="matrix(0.06172839506172839,0,0,0.06172839506172839,41.913580246913575,0)" xlink:href="#am"/><use transform="matrix(0.06172839506172839,0,0,0.06172839506172839,54.25925925925925,0)" xlink:href="#ae"/><use transform="matrix(0.06172839506172839,0,0,0.06172839506172839,66.60493827160494,0)" xlink:href="#Y"/></g><g id="p"><use transform="matrix(0.06172839506172839,0,0,0.06172839506172839,0,0)" xlink:href="#am"/><use transform="matrix(0.06172839506172839,0,0,0.06172839506172839,12.345679012345679,0)" xlink:href="#O"/></g><g id="q"><use transform="matrix(0.06172839506172839,0,0,0.06172839506172839,0,0)" xlink:href="#S"/><use transform="matrix(0.06172839506172839,0,0,0.06172839506172839,11.11111111111111,0)" xlink:href="#P"/><use transform="matrix(0.06172839506172839,0,0,0.06172839506172839,15.987654320987653,0)" xlink:href="#V"/><use transform="matrix(0.06172839506172839,0,0,0.06172839506172839,20.864197530864196,0)" xlink:href="#S"/><use transform="matrix(0.06172839506172839,0,0,0.06172839506172839,31.975308641975307,0)" xlink:href="#ah"/></g><g id="r"><use transform="matrix(0.06172839506172839,0,0,0.06172839506172839,0,0)" xlink:href="#R"/><use transform="matrix(0.06172839506172839,0,0,0.06172839506172839,12.345679012345679,0)" xlink:href="#U"/></g><g id="s"><use transform="matrix(0.06172839506172839,0,0,0.06172839506172839,0,0)" xlink:href="#am"/><use transform="matrix(0.06172839506172839,0,0,0.06172839506172839,12.345679012345679,0)" xlink:href="#R"/><use transform="matrix(0.06172839506172839,0,0,0.06172839506172839,24.691358024691358,0)" xlink:href="#S"/><use transform="matrix(0.06172839506172839,0,0,0.06172839506172839,35.80246913580247,0)" xlink:href="#ah"/></g><use transform="matrix(0.06172839506172839,0,0,0.06172839506172839,0,0)" xlink:href="#af" id="t"/><path fill="#333" d="M179-190L93 31C79 59 56 82 12 73V49c39 6 53-20 64-50L1-190h34L92-34l54-156h33" id="an"/><g id="u"><use transform="matrix(0.06172839506172839,0,0,0.06172839506172839,0,0)" xlink:href="#Q"/><use transform="matrix(0.06172839506172839,0,0,0.06172839506172839,11.11111111111111,0)" xlink:href="#Z"/><use transform="matrix(0.06172839506172839,0,0,0.06172839506172839,17.28395061728395,0)" xlink:href="#O"/><use transform="matrix(0.06172839506172839,0,0,0.06172839506172839,29.629629629629626,0)" xlink:href="#Y"/><use transform="matrix(0.06172839506172839,0,0,0.06172839506172839,36.9753086419753,0)" xlink:href="#Z"/><use transform="matrix(0.06172839506172839,0,0,0.06172839506172839,43.148148148148145,0)" xlink:href="#ai"/><use transform="matrix(0.06172839506172839,0,0,0.06172839506172839,55.49382716049382,0)" xlink:href="#ac"/><use transform="matrix(0.06172839506172839,0,0,0.06172839506172839,67.8395061728395,0)" xlink:href="#P"/><use transform="matrix(0.06172839506172839,0,0,0.06172839506172839,72.71604938271605,0)" xlink:href="#O"/><use transform="matrix(0.06172839506172839,0,0,0.06172839506172839,85.06172839506173,0)" xlink:href="#an"/><use transform="matrix(0.06172839506172839,0,0,0.06172839506172839,96.17283950617285,0)" xlink:href="#R"/><use transform="matrix(0.06172839506172839,0,0,0.06172839506172839,108.51851851851853,0)" xlink:href="#Y"/><use transform="matrix(0.06172839506172839,0,0,0.06172839506172839,115.86419753086422,0)" xlink:href="#ai"/><use transform="matrix(0.06172839506172839,0,0,0.06172839506172839,128.2098765432099,0)" xlink:href="#Z"/><use transform="matrix(0.06172839506172839,0,0,0.06172839506172839,134.38271604938274,0)" xlink:href="#T"/><use transform="matrix(0.06172839506172839,0,0,0.06172839506172839,146.7283950617284,0)" xlink:href="#Y"/><use transform="matrix(0.06172839506172839,0,0,0.06172839506172839,154.07407407407408,0)" xlink:href="#U"/><use transform="matrix(0.06172839506172839,0,0,0.06172839506172839,166.41975308641975,0)" xlink:href="#aj"/><use transform="matrix(0.06172839506172839,0,0,0.06172839506172839,173.76543209876542,0)" xlink:href="#ak"/></g><path fill="#333" d="M160-131c35 5 61 23 61 61C221 17 115-2 30 0v-248c76 3 177-17 177 60 0 33-19 50-47 57zm-97-11c50-1 110 9 110-42 0-47-63-36-110-37v79zm0 115c55-2 124 14 124-45 0-56-70-42-124-44v89" id="ao"/><g id="v"><use transform="matrix(0.06172839506172839,0,0,0.06172839506172839,0,0)" xlink:href="#ao"/><use transform="matrix(0.06172839506172839,0,0,0.06172839506172839,14.814814814814813,0)" xlink:href="#Y"/><use transform="matrix(0.06172839506172839,0,0,0.06172839506172839,22.160493827160494,0)" xlink:href="#V"/><use transform="matrix(0.06172839506172839,0,0,0.06172839506172839,27.037037037037038,0)" xlink:href="#U"/><use transform="matrix(0.06172839506172839,0,0,0.06172839506172839,39.382716049382715,0)" xlink:href="#S"/><use transform="matrix(0.06172839506172839,0,0,0.06172839506172839,50.49382716049382,0)" xlink:href="#O"/></g><g id="w"><use transform="matrix(0.06172839506172839,0,0,0.06172839506172839,0,0)" xlink:href="#S"/><use transform="matrix(0.06172839506172839,0,0,0.06172839506172839,11.11111111111111,0)" xlink:href="#O"/><use transform="matrix(0.06172839506172839,0,0,0.06172839506172839,23.45679012345679,0)" xlink:href="#Y"/><use transform="matrix(0.06172839506172839,0,0,0.06172839506172839,30.80246913580247,0)" xlink:href="#Z"/><use transform="matrix(0.06172839506172839,0,0,0.06172839506172839,36.97530864197531,0)" xlink:href="#O"/></g><g id="x"><use transform="matrix(0.06172839506172839,0,0,0.06172839506172839,0,0)" xlink:href="#Q"/><use transform="matrix(0.06172839506172839,0,0,0.06172839506172839,11.11111111111111,0)" xlink:href="#ae"/><use transform="matrix(0.06172839506172839,0,0,0.06172839506172839,23.45679012345679,0)" xlink:href="#P"/></g><path fill="#333" d="M210-169c-67 3-38 105-44 169h-31v-121c0-29-5-50-35-48C34-165 62-65 56 0H25l-1-190h30c1 10-1 24 2 32 10-44 99-50 107 0 11-21 27-35 58-36 85-2 47 119 55 194h-31v-121c0-29-5-49-35-48" id="ap"/><g id="y"><use transform="matrix(0.06172839506172839,0,0,0.06172839506172839,0,0)" xlink:href="#S"/><use transform="matrix(0.06172839506172839,0,0,0.06172839506172839,11.11111111111111,0)" xlink:href="#Y"/><use transform="matrix(0.06172839506172839,0,0,0.06172839506172839,18.45679012345679,0)" xlink:href="#R"/><use transform="matrix(0.06172839506172839,0,0,0.06172839506172839,30.80246913580247,0)" xlink:href="#O"/><use transform="matrix(0.06172839506172839,0,0,0.06172839506172839,43.148148148148145,0)" xlink:href="#Z"/><use transform="matrix(0.06172839506172839,0,0,0.06172839506172839,49.32098765432099,0)" xlink:href="#R"/><use transform="matrix(0.06172839506172839,0,0,0.06172839506172839,61.666666666666664,0)" xlink:href="#ai"/><use transform="matrix(0.06172839506172839,0,0,0.06172839506172839,74.01234567901234,0)" xlink:href="#ap"/><use transform="matrix(0.06172839506172839,0,0,0.06172839506172839,92.46913580246913,0)" xlink:href="#O"/><use transform="matrix(0.06172839506172839,0,0,0.06172839506172839,104.81481481481481,0)" xlink:href="#Z"/><use transform="matrix(0.06172839506172839,0,0,0.06172839506172839,110.98765432098764,0)" xlink:href="#S"/><use transform="matrix(0.06172839506172839,0,0,0.06172839506172839,122.09876543209876,0)" xlink:href="#ag"/></g><g id="z"><use transform="matrix(0.06172839506172839,0,0,0.06172839506172839,0,0)" xlink:href="#R"/><use transform="matrix(0.06172839506172839,0,0,0.06172839506172839,12.345679012345679,0)" xlink:href="#P"/><use transform="matrix(0.06172839506172839,0,0,0.06172839506172839,17.22222222222222,0)" xlink:href="#V"/><use transform="matrix(0.06172839506172839,0,0,0.06172839506172839,22.098765432098766,0)" xlink:href="#ad"/><use transform="matrix(0.06172839506172839,0,0,0.06172839506172839,34.44444444444444,0)" xlink:href="#R"/></g><use transform="matrix(0.06172839506172839,0,0,0.06172839506172839,0,0)" xlink:href="#O" id="A"/><g id="B"><use transform="matrix(0.06172839506172839,0,0,0.06172839506172839,0,0)" xlink:href="#Z"/><use transform="matrix(0.06172839506172839,0,0,0.06172839506172839,6.172839506172839,0)" xlink:href="#V"/><use transform="matrix(0.06172839506172839,0,0,0.06172839506172839,11.049382716049383,0)" xlink:href="#R"/><use transform="matrix(0.06172839506172839,0,0,0.06172839506172839,23.395061728395063,0)" xlink:href="#ap"/><use transform="matrix(0.06172839506172839,0,0,0.06172839506172839,41.85185185185185,0)" xlink:href="#ac"/><use transform="matrix(0.06172839506172839,0,0,0.06172839506172839,54.197530864197525,0)" xlink:href="#ae"/></g><use transform="matrix(0.06172839506172839,0,0,0.06172839506172839,0,0)" xlink:href="#af" id="C"/><g id="D"><use transform="matrix(0.06172839506172839,0,0,0.06172839506172839,0,0)" xlink:href="#ac"/><use transform="matrix(0.06172839506172839,0,0,0.06172839506172839,12.345679012345679,0)" xlink:href="#Y"/><use transform="matrix(0.06172839506172839,0,0,0.06172839506172839,19.691358024691358,0)" xlink:href="#ae"/><use transform="matrix(0.06172839506172839,0,0,0.06172839506172839,32.03703703703704,0)" xlink:href="#S"/><use transform="matrix(0.06172839506172839,0,0,0.06172839506172839,43.14814814814815,0)" xlink:href="#R"/><use transform="matrix(0.06172839506172839,0,0,0.06172839506172839,55.49382716049383,0)" xlink:href="#Q"/><use transform="matrix(0.06172839506172839,0,0,0.06172839506172839,66.60493827160494,0)" xlink:href="#Q"/><use transform="matrix(0.06172839506172839,0,0,0.06172839506172839,77.71604938271605,0)" xlink:href="#ai"/><use transform="matrix(0.06172839506172839,0,0,0.06172839506172839,90.06172839506173,0)" xlink:href="#ac"/><use transform="matrix(0.06172839506172839,0,0,0.06172839506172839,102.40740740740742,0)" xlink:href="#P"/><use transform="matrix(0.06172839506172839,0,0,0.06172839506172839,107.28395061728396,0)" xlink:href="#O"/><use transform="matrix(0.06172839506172839,0,0,0.06172839506172839,119.62962962962965,0)" xlink:href="#an"/><use transform="matrix(0.06172839506172839,0,0,0.06172839506172839,130.74074074074076,0)" xlink:href="#R"/><use transform="matrix(0.06172839506172839,0,0,0.06172839506172839,143.08641975308643,0)" xlink:href="#Y"/><use transform="matrix(0.06172839506172839,0,0,0.06172839506172839,150.4320987654321,0)" xlink:href="#ai"/><use transform="matrix(0.06172839506172839,0,0,0.06172839506172839,162.77777777777777,0)" xlink:href="#Y"/><use transform="matrix(0.06172839506172839,0,0,0.06172839506172839,170.12345679012344,0)" xlink:href="#R"/><use transform="matrix(0.06172839506172839,0,0,0.06172839506172839,182.4691358024691,0)" xlink:href="#Q"/><use transform="matrix(0.06172839506172839,0,0,0.06172839506172839,193.58024691358023,0)" xlink:href="#T"/><use transform="matrix(0.06172839506172839,0,0,0.06172839506172839,205.9259259259259,0)" xlink:href="#P"/><use transform="matrix(0.06172839506172839,0,0,0.06172839506172839,210.80246913580243,0)" xlink:href="#Z"/><use transform="matrix(0.06172839506172839,0,0,0.06172839506172839,216.97530864197526,0)" xlink:href="#aj"/><use transform="matrix(0.06172839506172839,0,0,0.06172839506172839,224.32098765432093,0)" xlink:href="#ak"/></g><g id="E"><use transform="matrix(0.06172839506172839,0,0,0.06172839506172839,0,0)" xlink:href="#aa"/><use transform="matrix(0.06172839506172839,0,0,0.06172839506172839,14.814814814814813,0)" xlink:href="#R"/></g><g id="F"><use transform="matrix(0.06172839506172839,0,0,0.06172839506172839,0,0)" xlink:href="#P"/><use transform="matrix(0.06172839506172839,0,0,0.06172839506172839,4.876543209876543,0)" xlink:href="#P"/><use transform="matrix(0.06172839506172839,0,0,0.06172839506172839,9.753086419753085,0)" xlink:href="#R"/><use transform="matrix(0.06172839506172839,0,0,0.06172839506172839,22.098765432098766,0)" xlink:href="#U"/><use transform="matrix(0.06172839506172839,0,0,0.06172839506172839,34.44444444444444,0)" xlink:href="#O"/></g><path fill="#333" d="M115-194c53 0 69 39 70 98 0 66-23 100-70 100C84 3 66-7 56-30L54 0H23l1-261h32v101c10-23 28-34 59-34zm-8 174c40 0 45-34 45-75 0-40-5-75-45-74-42 0-51 32-51 76 0 43 10 73 51 73" id="aq"/><g id="G"><use transform="matrix(0.06172839506172839,0,0,0.06172839506172839,0,0)" xlink:href="#aq"/><use transform="matrix(0.06172839506172839,0,0,0.06172839506172839,12.345679012345679,0)" xlink:href="#O"/><use transform="matrix(0.06172839506172839,0,0,0.06172839506172839,24.691358024691358,0)" xlink:href="#Y"/><use transform="matrix(0.06172839506172839,0,0,0.06172839506172839,32.03703703703704,0)" xlink:href="#Y"/><use transform="matrix(0.06172839506172839,0,0,0.06172839506172839,39.382716049382715,0)" xlink:href="#O"/></g><g id="H"><use transform="matrix(0.06172839506172839,0,0,0.06172839506172839,0,0)" xlink:href="#Q"/><use transform="matrix(0.06172839506172839,0,0,0.06172839506172839,11.11111111111111,0)" xlink:href="#T"/><use transform="matrix(0.06172839506172839,0,0,0.06172839506172839,23.45679012345679,0)" xlink:href="#U"/></g><g id="I"><use transform="matrix(0.06172839506172839,0,0,0.06172839506172839,0,0)" xlink:href="#S"/><use transform="matrix(0.06172839506172839,0,0,0.06172839506172839,11.11111111111111,0)" xlink:href="#ae"/><use transform="matrix(0.06172839506172839,0,0,0.06172839506172839,23.45679012345679,0)" xlink:href="#T"/><use transform="matrix(0.06172839506172839,0,0,0.06172839506172839,35.80246913580247,0)" xlink:href="#U"/><use transform="matrix(0.06172839506172839,0,0,0.06172839506172839,48.148148148148145,0)" xlink:href="#Z"/><use transform="matrix(0.06172839506172839,0,0,0.06172839506172839,54.32098765432099,0)" xlink:href="#R"/><use transform="matrix(0.06172839506172839,0,0,0.06172839506172839,66.66666666666667,0)" xlink:href="#Y"/></g><path fill="#333" d="M127-220V0H93v-220H8v-28h204v28h-85" id="ar"/><path fill="#333" d="M33-154v-36h34v36H33zM33 0v-36h34V0H33" id="as"/><path fill="#333" d="M16-82v-28h88v28H16" id="at"/><path fill="#333" d="M212-179c-10-28-35-45-73-45-59 0-87 40-87 99 0 60 29 101 89 101 43 0 62-24 78-52l27 14C228-24 195 4 139 4 59 4 22-46 18-125c-6-104 99-153 187-111 19 9 31 26 39 46" id="au"/><g id="J"><use transform="matrix(0.06172839506172839,0,0,0.06172839506172839,0,0)" xlink:href="#ar"/><use transform="matrix(0.06172839506172839,0,0,0.06172839506172839,11.049382716049381,0)" xlink:href="#O"/><use transform="matrix(0.06172839506172839,0,0,0.06172839506172839,23.39506172839506,0)" xlink:href="#aq"/><use transform="matrix(0.06172839506172839,0,0,0.06172839506172839,35.74074074074074,0)" xlink:href="#P"/><use transform="matrix(0.06172839506172839,0,0,0.06172839506172839,40.617283950617285,0)" xlink:href="#R"/><use transform="matrix(0.06172839506172839,0,0,0.06172839506172839,52.96296296296296,0)" xlink:href="#Y"/><use transform="matrix(0.06172839506172839,0,0,0.06172839506172839,60.30864197530864,0)" xlink:href="#ae"/><use transform="matrix(0.06172839506172839,0,0,0.06172839506172839,72.65432098765432,0)" xlink:href="#as"/><use transform="matrix(0.06172839506172839,0,0,0.06172839506172839,78.82716049382715,0)" xlink:href="#aa"/><use transform="matrix(0.06172839506172839,0,0,0.06172839506172839,93.64197530864196,0)" xlink:href="#T"/><use transform="matrix(0.06172839506172839,0,0,0.06172839506172839,105.98765432098764,0)" xlink:href="#U"/><use transform="matrix(0.06172839506172839,0,0,0.06172839506172839,118.33333333333333,0)" xlink:href="#at"/><use transform="matrix(0.06172839506172839,0,0,0.06172839506172839,125.67901234567901,0)" xlink:href="#au"/><use transform="matrix(0.06172839506172839,0,0,0.06172839506172839,141.66666666666666,0)" xlink:href="#ae"/><use transform="matrix(0.06172839506172839,0,0,0.06172839506172839,154.01234567901233,0)" xlink:href="#T"/><use transform="matrix(0.06172839506172839,0,0,0.06172839506172839,166.358024691358,0)" xlink:href="#U"/><use transform="matrix(0.06172839506172839,0,0,0.06172839506172839,178.70370370370367,0)" xlink:href="#Z"/><use transform="matrix(0.06172839506172839,0,0,0.06172839506172839,184.8765432098765,0)" xlink:href="#R"/><use transform="matrix(0.06172839506172839,0,0,0.06172839506172839,197.22222222222217,0)" xlink:href="#Y"/></g><path fill="#333" d="M190 0L58-211 59 0H30v-248h39L202-35l-2-213h31V0h-41" id="av"/><g id="K"><use transform="matrix(0.06172839506172839,0,0,0.06172839506172839,0,0)" xlink:href="#av"/><use transform="matrix(0.06172839506172839,0,0,0.06172839506172839,15.987654320987653,0)" xlink:href="#ae"/></g><g id="L"><use transform="matrix(0.06172839506172839,0,0,0.06172839506172839,0,0)" xlink:href="#P"/><use transform="matrix(0.06172839506172839,0,0,0.06172839506172839,4.876543209876543,0)" xlink:href="#P"/><use transform="matrix(0.06172839506172839,0,0,0.06172839506172839,9.753086419753085,0)" xlink:href="#R"/><use transform="matrix(0.06172839506172839,0,0,0.06172839506172839,22.098765432098766,0)" xlink:href="#U"/><use transform="matrix(0.06172839506172839,0,0,0.06172839506172839,34.44444444444444,0)" xlink:href="#ae"/></g><path fill="#333" d="M30 0v-248h33v221h125V0H30" id="aw"/><g id="M"><use transform="matrix(0.06172839506172839,0,0,0.06172839506172839,0,0)" xlink:href="#aw"/><use transform="matrix(0.06172839506172839,0,0,0.06172839506172839,12.345679012345679,0)" xlink:href="#P"/><use transform="matrix(0.06172839506172839,0,0,0.06172839506172839,17.22222222222222,0)" xlink:href="#R"/><use transform="matrix(0.06172839506172839,0,0,0.06172839506172839,29.5679012345679,0)" xlink:href="#U"/><use transform="matrix(0.06172839506172839,0,0,0.06172839506172839,41.913580246913575,0)" xlink:href="#ae"/></g></defs></g></svg>