<svg xmlns="http://www.w3.org/2000/svg" width="3898" height="2225" fill="none" viewBox="0 0 3898 2225">
  <path fill="#fff" d="M0 0h3898v2225H0z"/>
  <path fill="#fff" d="M444 197h3079v1802H444z"/>
  <path fill="#C4C4C4" d="M485 277h157v157H485z"/>
  <path stroke="#000" d="M485.349 280.978l157 152.663M484.646 433.646l157-157"/>
  <path fill="#000" d="M824.633 355.117c0 10.031-1.688 18.797-5.063 26.297-3.375 7.453-8.156 13.148-14.343 17.086-6.188 3.938-13.407 5.906-21.657 5.906-8.062 0-15.211-1.968-21.445-5.906-6.234-3.984-11.086-9.633-14.555-16.945-3.422-7.36-5.179-15.867-5.273-25.524v-7.383c0-9.843 1.711-18.539 5.133-26.086 3.422-7.546 8.25-13.312 14.484-17.296 6.281-4.032 13.453-6.047 21.516-6.047 8.203 0 15.422 1.992 21.656 5.976 6.281 3.938 11.109 9.68 14.484 17.227 3.375 7.5 5.063 16.242 5.063 26.226v6.469zm-13.43-6.609c0-12.141-2.437-21.446-7.312-27.914-4.875-6.516-11.696-9.774-20.461-9.774-8.532 0-15.258 3.258-20.18 9.774-4.875 6.468-7.383 15.468-7.523 27v7.523c0 11.766 2.461 21.024 7.382 27.774 4.969 6.703 11.789 10.054 20.461 10.054 8.719 0 15.469-3.164 20.25-9.492 4.782-6.375 7.242-15.492 7.383-27.351v-7.594zm99 36.562l14.625-58.148h13.008L915.688 403h-10.547l-18.493-57.656-18 57.656h-10.546l-22.079-76.078h12.938l14.977 56.953 17.718-56.953h10.477l18.07 58.148zM965.258 403H952.25V295h13.008v108zm137.322 0h-13.57v-47.32h-51.61V403h-13.5V300.625h13.5v44.016h51.61v-44.016h13.57V403zm18.49-38.742c0-7.453 1.45-14.156 4.36-20.11 2.95-5.953 7.03-10.546 12.23-13.781 5.25-3.234 11.23-4.851 17.93-4.851 10.36 0 18.73 3.586 25.11 10.757 6.42 7.172 9.63 16.711 9.63 28.618v.914c0 7.406-1.43 14.062-4.29 19.968-2.81 5.86-6.87 10.43-12.16 13.711-5.26 3.282-11.3 4.922-18.15 4.922-10.31 0-18.68-3.586-25.1-10.758-6.37-7.171-9.56-16.664-9.56-28.476v-.914zm13.08 1.547c0 8.437 1.94 15.211 5.83 20.32 3.94 5.109 9.19 7.664 15.75 7.664 6.61 0 11.86-2.578 15.75-7.734 3.9-5.203 5.84-12.469 5.84-21.797 0-8.344-1.99-15.094-5.98-20.25-3.93-5.203-9.18-7.805-15.75-7.805-6.42 0-11.6 2.555-15.54 7.664-3.93 5.11-5.9 12.422-5.9 21.938zm69.05-1.547c0-7.453 1.45-14.156 4.35-20.11 2.96-5.953 7.04-10.546 12.24-13.781 5.25-3.234 11.23-4.851 17.93-4.851 10.36 0 18.73 3.586 25.1 10.757 6.42 7.172 9.63 16.711 9.63 28.618v.914c0 7.406-1.43 14.062-4.29 19.968-2.81 5.86-6.86 10.43-12.16 13.711-5.25 3.282-11.3 4.922-18.14 4.922-10.31 0-18.68-3.586-25.1-10.758-6.38-7.171-9.56-16.664-9.56-28.476v-.914zm13.07 1.547c0 8.437 1.95 15.211 5.84 20.32 3.94 5.109 9.19 7.664 15.75 7.664 6.61 0 11.86-2.578 15.75-7.734 3.89-5.203 5.84-12.469 5.84-21.797 0-8.344-2-15.094-5.98-20.25-3.94-5.203-9.19-7.805-15.75-7.805-6.42 0-11.6 2.555-15.54 7.664-3.94 5.11-5.91 12.422-5.91 21.938zm90.14-57.305v18.422h14.21v10.055h-14.21v47.179c0 3.047.64 5.344 1.9 6.891 1.27 1.5 3.42 2.25 6.47 2.25 1.5 0 3.56-.281 6.19-.844V403c-3.42.938-6.75 1.406-9.99 1.406-5.81 0-10.19-1.758-13.14-5.273-2.96-3.516-4.43-8.508-4.43-14.977v-47.179h-13.86v-10.055h13.86V308.5h13z"/>
  <path fill="#C4C4C4" d="M2717 230h752v204h-752z"/>
  <path fill="#000" d="M3006.82 314.388c-10.05-2.889-17.38-6.429-21.97-10.62-4.56-4.232-6.84-9.44-6.84-15.625 0-6.999 2.79-12.777 8.36-17.334 5.62-4.598 12.9-6.897 21.85-6.897 6.11 0 11.54 1.18 16.3 3.54 4.8 2.36 8.5 5.615 11.11 9.766 2.64 4.15 3.96 8.687 3.96 13.611h-11.78c0-5.371-1.7-9.583-5.12-12.635-3.42-3.092-8.24-4.638-14.47-4.638-5.78 0-10.29 1.281-13.55 3.845-3.21 2.523-4.82 6.042-4.82 10.559 0 3.621 1.53 6.693 4.58 9.216 3.09 2.482 8.32 4.761 15.68 6.836 7.41 2.075 13.19 4.374 17.34 6.897 4.19 2.482 7.28 5.392 9.28 8.728 2.03 3.337 3.05 7.263 3.05 11.78 0 7.202-2.81 12.98-8.43 17.334-5.61 4.313-13.12 6.47-22.52 6.47-6.1 0-11.8-1.16-17.09-3.479-5.29-2.36-9.38-5.575-12.27-9.644-2.84-4.069-4.27-8.687-4.27-13.855h11.78c0 5.371 1.98 9.623 5.92 12.757 3.99 3.092 9.3 4.638 15.93 4.638 6.19 0 10.93-1.261 14.22-3.784 3.3-2.523 4.95-5.961 4.95-10.315 0-4.354-1.53-7.711-4.58-10.071-3.05-2.4-8.59-4.76-16.6-7.08zM3093.85 354c-.65-1.302-1.18-3.621-1.58-6.958-5.25 5.452-11.52 8.179-18.8 8.179-6.51 0-11.86-1.831-16.05-5.493-4.15-3.703-6.23-8.383-6.23-14.039 0-6.876 2.61-12.207 7.81-15.991 5.25-3.825 12.62-5.737 22.1-5.737h10.98v-5.188c0-3.947-1.18-7.08-3.54-9.399-2.36-2.36-5.83-3.541-10.43-3.541-4.03 0-7.41 1.018-10.13 3.052-2.73 2.035-4.09 4.497-4.09 7.386h-11.36c0-3.296 1.16-6.47 3.48-9.522 2.36-3.092 5.54-5.534 9.52-7.324 4.03-1.791 8.45-2.686 13.25-2.686 7.61 0 13.57 1.913 17.88 5.738 4.32 3.784 6.55 9.012 6.72 15.686v30.395c0 6.063.77 10.885 2.32 14.465V354h-11.85zm-18.73-8.606c3.54 0 6.89-.915 10.07-2.747 3.17-1.831 5.47-4.211 6.89-7.141v-13.549h-8.85c-13.83 0-20.75 4.048-20.75 12.146 0 3.54 1.18 6.307 3.54 8.3 2.36 1.994 5.39 2.991 9.1 2.991zm58.22 8.606h-11.29v-93.75h11.29V354zm30.4 0h-11.29v-66.04h11.29V354zm-12.21-83.557c0-1.831.55-3.377 1.65-4.639 1.14-1.261 2.81-1.892 5.01-1.892 2.19 0 3.86.631 5 1.892 1.14 1.262 1.71 2.808 1.71 4.639 0 1.831-.57 3.357-1.71 4.578-1.14 1.22-2.81 1.831-5 1.831-2.2 0-3.87-.611-5.01-1.831-1.1-1.221-1.65-2.747-1.65-4.578zm62.26 27.649c-1.71-.285-3.56-.427-5.56-.427-7.4 0-12.43 3.153-15.07 9.46V354h-11.29v-66.04h10.98l.19 7.629c3.7-5.9 8.95-8.85 15.74-8.85 2.2 0 3.87.285 5.01.855v10.498zM1666.48 351.586h-24.05V393h-13.57V290.625h33.89c11.53 0 20.39 2.625 26.58 7.875 6.23 5.25 9.35 12.891 9.35 22.922 0 6.375-1.73 11.93-5.2 16.664-3.43 4.734-8.21 8.273-14.35 10.617l24.05 43.453V393h-14.48l-22.22-41.414zm-24.05-11.039h20.74c6.71 0 12.03-1.735 15.96-5.203 3.99-3.469 5.98-8.11 5.98-13.922 0-6.328-1.9-11.18-5.7-14.555-3.75-3.375-9.18-5.086-16.31-5.133h-20.67v38.813zm104.77 53.859c-10.32 0-18.71-3.375-25.18-10.125-6.47-6.797-9.7-15.867-9.7-27.211v-2.39c0-7.547 1.43-14.274 4.29-20.18 2.91-5.953 6.94-10.594 12.09-13.922 5.21-3.375 10.83-5.062 16.88-5.062 9.89 0 17.58 3.257 23.06 9.773s8.23 15.844 8.23 27.984v5.415h-51.54c.19 7.5 2.37 13.57 6.54 18.21 4.22 4.594 9.56 6.891 16.03 6.891 4.59 0 8.48-.937 11.67-2.812 3.19-1.875 5.98-4.36 8.37-7.454l7.94 6.188c-6.37 9.797-15.93 14.695-28.68 14.695zm-1.62-68.203c-5.25 0-9.66 1.922-13.22 5.766-3.56 3.797-5.77 9.14-6.61 16.031h38.11v-.984c-.38-6.61-2.16-11.719-5.34-15.328-3.19-3.657-7.5-5.485-12.94-5.485zm90.7 46.617c0-3.515-1.33-6.234-4.01-8.156-2.62-1.969-7.24-3.656-13.85-5.062-6.56-1.407-11.79-3.094-15.68-5.063-3.84-1.969-6.7-4.312-8.58-7.031-1.82-2.719-2.74-5.953-2.74-9.703 0-6.235 2.63-11.508 7.88-15.821 5.29-4.312 12.04-6.468 20.25-6.468 8.62 0 15.61 2.226 20.95 6.679 5.39 4.453 8.09 10.149 8.09 17.086h-13.08c0-3.562-1.53-6.633-4.57-9.211-3-2.578-6.8-3.867-11.39-3.867-4.74 0-8.44 1.031-11.11 3.094-2.67 2.062-4.01 4.758-4.01 8.086 0 3.14 1.24 5.508 3.73 7.101 2.48 1.594 6.96 3.118 13.43 4.571 6.51 1.453 11.79 3.187 15.82 5.203 4.03 2.015 7 4.453 8.93 7.312 1.96 2.813 2.95 6.258 2.95 10.336 0 6.797-2.72 12.258-8.16 16.383-5.43 4.078-12.49 6.117-21.16 6.117-6.09 0-11.49-1.078-16.17-3.234-4.69-2.156-8.37-5.156-11.04-9-2.63-3.891-3.94-8.086-3.94-12.586h13.01c.23 4.359 1.97 7.828 5.2 10.406 3.28 2.531 7.59 3.797 12.94 3.797 4.92 0 8.86-.984 11.81-2.953 3-2.016 4.5-4.688 4.5-8.016zm76.92 12.657c-5.06 5.953-12.49 8.929-22.29 8.929-8.11 0-14.29-2.344-18.56-7.031-4.22-4.734-6.35-11.719-6.4-20.953v-49.5h13.01v49.148c0 11.532 4.69 17.297 14.06 17.297 9.94 0 16.55-3.703 19.83-11.109v-55.336h13.01V393h-12.38l-.28-7.523zm46.62 7.523h-13.01V285h13.01v108zm38.53-94.5v18.422h14.2v10.055h-14.2v47.179c0 3.047.63 5.344 1.9 6.891 1.27 1.5 3.42 2.25 6.47 2.25 1.5 0 3.56-.281 6.19-.844V393c-3.43.938-6.75 1.406-9.99 1.406-5.81 0-10.19-1.758-13.15-5.273-2.95-3.516-4.43-8.508-4.43-14.977v-47.179h-13.85v-10.055h13.85V298.5h13.01zm76.43 94.5c-.75-1.5-1.36-4.172-1.83-8.016-6.04 6.282-13.26 9.422-21.65 9.422-7.5 0-13.67-2.109-18.5-6.328-4.78-4.266-7.17-9.656-7.17-16.172 0-7.922 3-14.062 9-18.422 6.05-4.406 14.53-6.609 25.46-6.609h12.65v-5.977c0-4.546-1.36-8.156-4.08-10.828-2.71-2.718-6.72-4.078-12.02-4.078-4.64 0-8.53 1.172-11.67 3.516-3.14 2.344-4.71 5.18-4.71 8.508h-13.08c0-3.797 1.34-7.454 4.01-10.969 2.72-3.563 6.37-6.375 10.97-8.438 4.64-2.062 9.72-3.093 15.25-3.093 8.77 0 15.64 2.203 20.61 6.609 4.96 4.359 7.54 10.383 7.73 18.07v35.016c0 6.984.89 12.539 2.67 16.664V393h-13.64zm-21.58-9.914c4.07 0 7.94-1.055 11.6-3.164 3.65-2.11 6.3-4.852 7.94-8.227v-15.609h-10.19c-15.94 0-23.91 4.664-23.91 13.992 0 4.078 1.36 7.266 4.08 9.563 2.72 2.297 6.21 3.445 10.48 3.445zm49.78-28.758c0-11.672 2.76-21.047 8.29-28.125 5.53-7.125 12.78-10.687 21.73-10.687 8.91 0 15.96 3.046 21.16 9.14V285h13.01v108h-11.95l-.63-8.156c-5.21 6.375-12.45 9.562-21.73 9.562-8.81 0-16.01-3.609-21.59-10.828-5.53-7.219-8.29-16.64-8.29-28.266v-.984zm13 1.477c0 8.625 1.79 15.375 5.35 20.25 3.56 4.875 8.48 7.312 14.76 7.312 8.25 0 14.28-3.703 18.07-11.109v-34.946c-3.89-7.171-9.86-10.757-17.93-10.757-6.37 0-11.34 2.461-14.9 7.383-3.56 4.921-5.35 12.21-5.35 21.867zm68-1.547c0-7.453 1.45-14.156 4.36-20.11 2.95-5.953 7.03-10.546 12.23-13.781 5.25-3.234 11.23-4.851 17.93-4.851 10.36 0 18.73 3.586 25.1 10.757 6.42 7.172 9.63 16.711 9.63 28.618v.914c0 7.406-1.43 14.062-4.28 19.968-2.82 5.86-6.87 10.43-12.17 13.711-5.25 3.282-11.3 4.922-18.14 4.922-10.31 0-18.68-3.586-25.1-10.758-6.38-7.171-9.56-16.664-9.56-28.476v-.914zm13.07 1.547c0 8.437 1.95 15.211 5.84 20.32 3.94 5.109 9.19 7.664 15.75 7.664 6.61 0 11.86-2.578 15.75-7.734 3.89-5.203 5.84-12.469 5.84-21.797 0-8.344-2-15.094-5.98-20.25-3.94-5.203-9.19-7.805-15.75-7.805-6.42 0-11.6 2.555-15.54 7.664-3.94 5.11-5.91 12.422-5.91 21.938zm116.79 17.015c0-3.515-1.33-6.234-4-8.156-2.63-1.969-7.25-3.656-13.86-5.062-6.56-1.407-11.78-3.094-15.68-5.063-3.84-1.969-6.7-4.312-8.57-7.031-1.83-2.719-2.75-5.953-2.75-9.703 0-6.235 2.63-11.508 7.88-15.821 5.3-4.312 12.05-6.468 20.25-6.468 8.62 0 15.61 2.226 20.95 6.679 5.39 4.453 8.09 10.149 8.09 17.086h-13.08c0-3.562-1.52-6.633-4.57-9.211-3-2.578-6.8-3.867-11.39-3.867-4.73 0-8.44 1.031-11.11 3.094-2.67 2.062-4.01 4.758-4.01 8.086 0 3.14 1.24 5.508 3.73 7.101 2.48 1.594 6.96 3.118 13.43 4.571 6.51 1.453 11.79 3.187 15.82 5.203 4.03 2.015 7.01 4.453 8.93 7.312 1.97 2.813 2.95 6.258 2.95 10.336 0 6.797-2.72 12.258-8.15 16.383-5.44 4.078-12.5 6.117-21.17 6.117-6.09 0-11.48-1.078-16.17-3.234-4.69-2.156-8.37-5.156-11.04-9-2.62-3.891-3.94-8.086-3.94-12.586h13.01c.23 4.359 1.97 7.828 5.2 10.406 3.29 2.531 7.6 3.797 12.94 3.797 4.92 0 8.86-.984 11.81-2.953 3-2.016 4.5-4.688 4.5-8.016zM570.885 940h-11.353v-75.256l-22.766 8.361v-10.253l32.349-12.146h1.77V940zm34.485-5.92c0-1.954.569-3.581 1.709-4.883 1.18-1.302 2.929-1.953 5.249-1.953 2.319 0 4.069.651 5.249 1.953 1.22 1.302 1.831 2.929 1.831 4.883 0 1.871-.611 3.438-1.831 4.699-1.18 1.262-2.93 1.892-5.249 1.892-2.32 0-4.069-.63-5.249-1.892-1.14-1.261-1.709-2.828-1.709-4.699zm54.87-36.011l14.649-24.109h13.183l-21.606 32.654L688.744 940h-13.062l-15.259-24.719L645.165 940h-13.123l22.278-33.386-21.607-32.654h13.062l14.465 24.109zm62.012 0L736.9 873.96h13.184l-21.606 32.654L750.755 940h-13.061l-15.259-24.719L707.176 940h-13.122l22.278-33.386-21.607-32.654h13.062l14.465 24.109zm62.012 0l14.648-24.109h13.184l-21.607 32.654L812.767 940h-13.061l-15.259-24.719L769.188 940h-13.123l22.278-33.386-21.606-32.654h13.061l14.466 24.109zm62.011 0l14.649-24.109h13.183l-21.606 32.654L874.779 940h-13.062l-15.259-24.719L831.2 940h-13.123l22.278-33.386-21.606-32.654h13.061l14.465 24.109zm62.012 0l14.649-24.109h13.183l-21.606 32.654L936.791 940h-13.062l-15.259-24.719L893.211 940h-13.122l22.278-33.386-21.607-32.654h13.062l14.465 24.109zm62.012 0l14.648-24.109h13.184l-21.607 32.654L998.802 940h-13.061l-15.259-24.719L955.223 940h-13.122l22.277-33.386-21.606-32.654h13.061l14.466 24.109zM592.003 1228h-58.228v-8.12l30.762-34.18c4.557-5.17 7.691-9.36 9.4-12.57 1.749-3.26 2.624-6.61 2.624-10.07 0-4.64-1.404-8.44-4.211-11.41-2.808-2.98-6.551-4.46-11.231-4.46-5.615 0-9.989 1.61-13.122 4.82-3.093 3.18-4.639 7.61-4.639 13.31h-11.292c0-8.18 2.625-14.79 7.874-19.84 5.29-5.05 12.349-7.57 21.179-7.57 8.26 0 14.791 2.18 19.592 6.53 4.802 4.32 7.203 10.07 7.203 17.28 0 8.74-5.575 19.16-16.724 31.25l-23.804 25.81h44.617v9.22zm13.367-5.92c0-1.95.569-3.58 1.709-4.88 1.18-1.31 2.929-1.96 5.249-1.96 2.319 0 4.069.65 5.249 1.96 1.22 1.3 1.831 2.93 1.831 4.88 0 1.87-.611 3.44-1.831 4.7-1.18 1.26-2.93 1.89-5.249 1.89-2.32 0-4.069-.63-5.249-1.89-1.14-1.26-1.709-2.83-1.709-4.7zm54.87-36.01l14.649-24.11h13.183l-21.606 32.65 22.278 33.39h-13.062l-15.259-24.72-15.258 24.72h-13.123l22.278-33.39-21.607-32.65h13.062l14.465 24.11zm62.012 0l14.648-24.11h13.184l-21.606 32.65 22.277 33.39h-13.061l-15.259-24.72-15.259 24.72h-13.122l22.278-33.39-21.607-32.65h13.062l14.465 24.11zm62.012 0l14.648-24.11h13.184l-21.607 32.65 22.278 33.39h-13.061l-15.259-24.72-15.259 24.72h-13.123l22.278-33.39-21.606-32.65h13.061l14.466 24.11zm62.011 0l14.649-24.11h13.183l-21.606 32.65 22.278 33.39h-13.062l-15.259-24.72L831.2 1228h-13.123l22.278-33.39-21.606-32.65h13.061l14.465 24.11zm62.012 0l14.649-24.11h13.183l-21.606 32.65 22.278 33.39h-13.062l-15.259-24.72-15.259 24.72h-13.122l22.278-33.39-21.607-32.65h13.062l14.465 24.11zm62.012 0l14.648-24.11h13.184l-21.607 32.65 22.278 33.39h-13.061l-15.259-24.72-15.259 24.72h-13.122l22.277-33.39-21.606-32.65h13.061l14.466 24.11zM581.444 1774.15h12.329v9.22h-12.329V1804h-11.353v-20.63h-40.466v-6.65l39.795-61.59h12.024v59.02zm-39.002 0h27.649v-43.58l-1.342 2.45-26.307 41.13zm62.928 23.93c0-1.95.569-3.58 1.709-4.88 1.18-1.31 2.929-1.96 5.249-1.96 2.319 0 4.069.65 5.249 1.96 1.22 1.3 1.831 2.93 1.831 4.88 0 1.87-.611 3.44-1.831 4.7-1.18 1.26-2.93 1.89-5.249 1.89-2.32 0-4.069-.63-5.249-1.89-1.14-1.26-1.709-2.83-1.709-4.7zm54.87-36.01l14.649-24.11h13.183l-21.606 32.65 22.278 33.39h-13.062l-15.259-24.72-15.258 24.72h-13.123l22.278-33.39-21.607-32.65h13.062l14.465 24.11zm62.012 0l14.648-24.11h13.184l-21.606 32.65 22.277 33.39h-13.061l-15.259-24.72-15.259 24.72h-13.122l22.278-33.39-21.607-32.65h13.062l14.465 24.11zm62.012 0l14.648-24.11h13.184l-21.607 32.65 22.278 33.39h-13.061l-15.259-24.72-15.259 24.72h-13.123l22.278-33.39-21.606-32.65h13.061l14.466 24.11zm62.011 0l14.649-24.11h13.183l-21.606 32.65 22.278 33.39h-13.062l-15.259-24.72L831.2 1804h-13.123l22.278-33.39-21.606-32.65h13.061l14.465 24.11zm62.012 0l14.649-24.11h13.183l-21.606 32.65 22.278 33.39h-13.062l-15.259-24.72-15.259 24.72h-13.122l22.278-33.39-21.607-32.65h13.062l14.465 24.11zm62.012 0l14.648-24.11h13.184l-21.607 32.65 22.278 33.39h-13.061l-15.259-24.72-15.259 24.72h-13.122l22.277-33.39-21.606-32.65h13.061l14.466 24.11zM550.194 1466.07h8.484c5.33-.08 9.521-1.48 12.573-4.21 3.052-2.72 4.578-6.41 4.578-11.05 0-10.41-5.188-15.62-15.564-15.62-4.883 0-8.789 1.4-11.719 4.21-2.889 2.77-4.334 6.45-4.334 11.05h-11.291c0-7.04 2.563-12.88 7.69-17.52 5.168-4.68 11.719-7.02 19.654-7.02 8.382 0 14.953 2.22 19.714 6.65 4.761 4.44 7.141 10.6 7.141 18.5 0 3.86-1.261 7.61-3.784 11.23-2.482 3.62-5.88 6.33-10.193 8.12 4.883 1.54 8.647 4.11 11.292 7.69 2.685 3.58 4.028 7.95 4.028 13.12 0 7.97-2.604 14.3-7.813 18.98-5.208 4.68-11.983 7.02-20.324 7.02-8.342 0-15.137-2.26-20.386-6.77-5.208-4.52-7.813-10.48-7.813-17.89h11.353c0 4.68 1.526 8.43 4.578 11.23 3.051 2.81 7.141 4.21 12.268 4.21 5.452 0 9.623-1.42 12.512-4.27 2.889-2.85 4.333-6.94 4.333-12.27 0-5.16-1.587-9.13-4.76-11.9-3.174-2.76-7.752-4.19-13.733-4.27h-8.484v-9.22zm55.176 44.01c0-1.95.569-3.58 1.709-4.88 1.18-1.31 2.929-1.96 5.249-1.96 2.319 0 4.069.65 5.249 1.96 1.22 1.3 1.831 2.93 1.831 4.88 0 1.87-.611 3.44-1.831 4.7-1.18 1.26-2.93 1.89-5.249 1.89-2.32 0-4.069-.63-5.249-1.89-1.14-1.26-1.709-2.83-1.709-4.7zm54.87-36.01l14.649-24.11h13.183l-21.606 32.65 22.278 33.39h-13.062l-15.259-24.72-15.258 24.72h-13.123l22.278-33.39-21.607-32.65h13.062l14.465 24.11zm62.012 0l14.648-24.11h13.184l-21.606 32.65 22.277 33.39h-13.061l-15.259-24.72-15.259 24.72h-13.122l22.278-33.39-21.607-32.65h13.062l14.465 24.11zm62.012 0l14.648-24.11h13.184l-21.607 32.65 22.278 33.39h-13.061l-15.259-24.72-15.259 24.72h-13.123l22.278-33.39-21.606-32.65h13.061l14.466 24.11zm62.011 0l14.649-24.11h13.183l-21.606 32.65 22.278 33.39h-13.062l-15.259-24.72L831.2 1516h-13.123l22.278-33.39-21.606-32.65h13.061l14.465 24.11zm62.012 0l14.649-24.11h13.183l-21.606 32.65 22.278 33.39h-13.062l-15.259-24.72-15.259 24.72h-13.122l22.278-33.39-21.607-32.65h13.062l14.465 24.11zm62.012 0l14.648-24.11h13.184l-21.607 32.65 22.278 33.39h-13.061l-15.259-24.72-15.259 24.72h-13.122l22.277-33.39-21.606-32.65h13.061l14.466 24.11zM1390.08 559.715h-11.65v102.051h11.65v9.277h-23.01V550.438h23.01v9.277zm36.32 84.289c4.03 0 7.55-1.22 10.56-3.662 3.01-2.441 4.68-5.493 5-9.155h10.69c-.21 3.784-1.51 7.385-3.91 10.803-2.4 3.418-5.62 6.144-9.64 8.179a27.573 27.573 0 01-12.7 3.052c-8.99 0-16.15-2.991-21.48-8.972-5.29-6.023-7.94-14.242-7.94-24.659v-1.892c0-6.429 1.18-12.146 3.54-17.151 2.36-5.005 5.74-8.89 10.13-11.657 4.44-2.767 9.67-4.151 15.69-4.151 7.4 0 13.55 2.218 18.43 6.653 4.93 4.435 7.55 10.193 7.88 17.273h-10.69c-.32-4.272-1.95-7.772-4.88-10.498-2.89-2.767-6.47-4.15-10.74-4.15-5.74 0-10.19 2.075-13.37 6.225-3.13 4.11-4.7 10.071-4.7 17.883v2.137c0 7.609 1.57 13.468 4.7 17.578 3.14 4.11 7.61 6.164 13.43 6.164zm70.86-47.912c-1.71-.285-3.56-.427-5.55-.427-7.41 0-12.43 3.153-15.08 9.46V652h-11.29v-66.04h10.99l.18 7.629c3.7-5.9 8.95-8.85 15.75-8.85 2.19 0 3.86.285 5 .855v10.498zM1519.97 652h-11.29v-66.04h11.29V652zm-12.21-83.557c0-1.831.55-3.377 1.65-4.639 1.14-1.261 2.81-1.892 5-1.892 2.2 0 3.87.631 5.01 1.892 1.14 1.262 1.71 2.808 1.71 4.639 0 1.831-.57 3.357-1.71 4.578-1.14 1.22-2.81 1.831-5.01 1.831-2.19 0-3.86-.611-5-1.831-1.1-1.221-1.65-2.747-1.65-4.578zm45.65 1.526v15.991h12.33v8.728h-12.33v40.955c0 2.644.55 4.638 1.65 5.981 1.1 1.302 2.97 1.953 5.62 1.953 1.3 0 3.09-.244 5.37-.732V652c-2.97.814-5.86 1.221-8.67 1.221-5.04 0-8.85-1.526-11.41-4.578-2.57-3.052-3.85-7.385-3.85-13v-40.955h-12.02v-8.728h12.02v-15.991h11.29zM1614.94 652h-11.35v-75.256l-22.77 8.361v-10.253l32.35-12.146h1.77V652zm26.24-101.562h23.07v120.605h-23.07v-9.277h11.78V559.715h-11.78v-9.277zM2431.08 567.715h-11.65v102.051h11.65v9.277h-23.01V558.438h23.01v9.277zm36.32 84.289c4.03 0 7.55-1.22 10.56-3.662 3.01-2.441 4.68-5.493 5-9.155h10.69c-.21 3.784-1.51 7.385-3.91 10.803-2.4 3.418-5.62 6.144-9.64 8.179a27.573 27.573 0 01-12.7 3.052c-8.99 0-16.15-2.991-21.48-8.972-5.29-6.023-7.94-14.242-7.94-24.659v-1.892c0-6.429 1.18-12.146 3.54-17.151 2.36-5.005 5.74-8.89 10.13-11.657 4.44-2.767 9.67-4.151 15.69-4.151 7.4 0 13.55 2.218 18.43 6.653 4.93 4.435 7.55 10.193 7.88 17.273h-10.69c-.32-4.272-1.95-7.772-4.88-10.498-2.89-2.767-6.47-4.15-10.74-4.15-5.74 0-10.19 2.075-13.37 6.225-3.13 4.11-4.7 10.071-4.7 17.883v2.137c0 7.609 1.57 13.468 4.7 17.578 3.14 4.11 7.61 6.164 13.43 6.164zm70.86-47.912c-1.71-.285-3.56-.427-5.55-.427-7.41 0-12.43 3.153-15.08 9.46V660h-11.29v-66.04h10.99l.18 7.629c3.7-5.9 8.95-8.85 15.75-8.85 2.19 0 3.86.285 5 .855v10.498zM2560.97 660h-11.29v-66.04h11.29V660zm-12.21-83.557c0-1.831.55-3.377 1.65-4.639 1.14-1.261 2.81-1.892 5-1.892 2.2 0 3.87.631 5.01 1.892 1.14 1.262 1.71 2.808 1.71 4.639 0 1.831-.57 3.357-1.71 4.578-1.14 1.22-2.81 1.831-5.01 1.831-2.19 0-3.86-.611-5-1.831-1.1-1.221-1.65-2.747-1.65-4.578zm45.65 1.526v15.991h12.33v8.728h-12.33v40.955c0 2.644.55 4.638 1.65 5.981 1.1 1.302 2.97 1.953 5.62 1.953 1.3 0 3.09-.244 5.37-.732V660c-2.97.814-5.86 1.221-8.67 1.221-5.04 0-8.85-1.526-11.41-4.578-2.57-3.052-3.85-7.385-3.85-13v-40.955h-12.02v-8.728h12.02v-15.991h11.29zm40.84 32.104h8.48c5.33-.081 9.52-1.485 12.57-4.211 3.06-2.726 4.58-6.409 4.58-11.048 0-10.416-5.19-15.625-15.56-15.625-4.88 0-8.79 1.404-11.72 4.212-2.89 2.767-4.33 6.449-4.33 11.047h-11.3c0-7.039 2.57-12.878 7.69-17.517 5.17-4.679 11.72-7.019 19.66-7.019 8.38 0 14.95 2.218 19.71 6.653 4.76 4.435 7.14 10.6 7.14 18.494 0 3.865-1.26 7.609-3.78 11.23-2.48 3.621-5.88 6.327-10.19 8.118 4.88 1.546 8.64 4.109 11.29 7.69 2.68 3.581 4.03 7.955 4.03 13.123 0 7.975-2.61 14.302-7.82 18.982-5.2 4.679-11.98 7.019-20.32 7.019s-15.14-2.259-20.39-6.775c-5.21-4.517-7.81-10.478-7.81-17.884h11.35c0 4.68 1.53 8.423 4.58 11.231s7.14 4.211 12.27 4.211c5.45 0 9.62-1.424 12.51-4.272 2.89-2.848 4.33-6.938 4.33-12.268 0-5.168-1.58-9.135-4.76-11.902-3.17-2.767-7.75-4.191-13.73-4.272h-8.48v-9.217zm46.93-51.635h23.07v120.605h-23.07v-9.277h11.78V567.715h-11.78v-9.277zM1924.08 559.715h-11.65v102.051h11.65v9.277h-23.01V550.438h23.01v9.277zm36.32 84.289c4.03 0 7.55-1.22 10.56-3.662 3.01-2.441 4.68-5.493 5-9.155h10.69c-.21 3.784-1.51 7.385-3.91 10.803-2.4 3.418-5.62 6.144-9.64 8.179a27.573 27.573 0 01-12.7 3.052c-8.99 0-16.15-2.991-21.48-8.972-5.29-6.023-7.94-14.242-7.94-24.659v-1.892c0-6.429 1.18-12.146 3.54-17.151 2.36-5.005 5.74-8.89 10.13-11.657 4.44-2.767 9.67-4.151 15.69-4.151 7.4 0 13.55 2.218 18.43 6.653 4.93 4.435 7.55 10.193 7.88 17.273h-10.69c-.32-4.272-1.95-7.772-4.88-10.498-2.89-2.767-6.47-4.15-10.74-4.15-5.74 0-10.19 2.075-13.37 6.225-3.13 4.11-4.7 10.071-4.7 17.883v2.137c0 7.609 1.57 13.468 4.7 17.578 3.14 4.11 7.61 6.164 13.43 6.164zm70.86-47.912c-1.71-.285-3.56-.427-5.55-.427-7.41 0-12.43 3.153-15.08 9.46V652h-11.29v-66.04h10.99l.18 7.629c3.7-5.9 8.95-8.85 15.75-8.85 2.19 0 3.86.285 5 .855v10.498zM2053.97 652h-11.29v-66.04h11.29V652zm-12.21-83.557c0-1.831.55-3.377 1.65-4.639 1.14-1.261 2.81-1.892 5-1.892 2.2 0 3.87.631 5.01 1.892 1.14 1.262 1.71 2.808 1.71 4.639 0 1.831-.57 3.357-1.71 4.578-1.14 1.22-2.81 1.831-5.01 1.831-2.19 0-3.86-.611-5-1.831-1.1-1.221-1.65-2.747-1.65-4.578zm45.65 1.526v15.991h12.33v8.728h-12.33v40.955c0 2.644.55 4.638 1.65 5.981 1.1 1.302 2.97 1.953 5.62 1.953 1.3 0 3.09-.244 5.37-.732V652c-2.97.814-5.86 1.221-8.67 1.221-5.04 0-8.85-1.526-11.41-4.578-2.57-3.052-3.85-7.385-3.85-13v-40.955h-12.02v-8.728h12.02v-15.991h11.29zM2170.06 652h-58.23v-8.118l30.76-34.179c4.56-5.168 7.69-9.359 9.4-12.574 1.75-3.255 2.62-6.612 2.62-10.07 0-4.639-1.4-8.444-4.21-11.414-2.8-2.97-6.55-4.456-11.23-4.456-5.61 0-9.99 1.608-13.12 4.822-3.09 3.174-4.64 7.609-4.64 13.306h-11.29c0-8.179 2.62-14.791 7.87-19.837 5.29-5.045 12.35-7.568 21.18-7.568 8.26 0 14.79 2.177 19.59 6.531 4.81 4.313 7.21 10.071 7.21 17.273 0 8.748-5.58 19.165-16.73 31.25l-23.8 25.818h44.62V652zm5.12-101.562h23.07v120.605h-23.07v-9.277h11.78V559.715h-11.78v-9.277z"/>
  <path fill="#C4C4C4" d="M2784 1548h686v365h-686z"/>
  <path fill="#000" d="M2943.83 1664.44l25.39-73.31h12.82l-32.96 88.87h-10.37l-32.9-88.87h12.75l25.27 73.31zm42.61-18.07c0-6.47 1.26-12.29 3.78-17.46 2.56-5.16 6.1-9.15 10.62-11.96 4.56-2.81 9.75-4.21 15.56-4.21 9 0 16.26 3.11 21.79 9.34 5.58 6.22 8.37 14.5 8.37 24.84v.79c0 6.43-1.25 12.21-3.73 17.34-2.44 5.08-5.96 9.05-10.56 11.9-4.55 2.85-9.8 4.27-15.74 4.27-8.96 0-16.22-3.11-21.79-9.34-5.54-6.22-8.3-14.46-8.3-24.72v-.79zm11.35 1.34c0 7.33 1.69 13.21 5.06 17.64 3.42 4.44 7.98 6.65 13.68 6.65 5.73 0 10.29-2.23 13.67-6.71 3.38-4.52 5.06-10.82 5.06-18.92 0-7.24-1.73-13.1-5.18-17.58-3.42-4.52-7.98-6.77-13.68-6.77-5.57 0-10.07 2.21-13.48 6.65-3.42 4.43-5.13 10.78-5.13 19.04zm75.19 32.29h-11.29v-93.75h11.29V1680zm39.92-15.32l16.36-50.72h11.53l-23.68 66.04h-8.6l-23.93-66.04h11.54l16.78 50.72zm65.31 16.54c-8.95 0-16.24-2.93-21.85-8.79-5.62-5.9-8.42-13.77-8.42-23.62v-2.07c0-6.56 1.24-12.39 3.72-17.52 2.52-5.17 6.02-9.2 10.5-12.09 4.51-2.93 9.4-4.39 14.64-4.39 8.59 0 15.26 2.83 20.02 8.48 4.76 5.66 7.15 13.76 7.15 24.3v4.69h-44.74c.16 6.52 2.05 11.78 5.67 15.81 3.66 3.99 8.3 5.98 13.92 5.98 3.99 0 7.36-.81 10.13-2.44 2.77-1.62 5.19-3.78 7.26-6.47l6.9 5.37c-5.53 8.51-13.83 12.76-24.9 12.76zm-1.41-59.2c-4.55 0-8.38 1.66-11.47 5-3.09 3.3-5 7.94-5.74 13.92h33.08v-.86c-.32-5.73-1.87-10.17-4.63-13.3-2.77-3.18-6.52-4.76-11.24-4.76zm72.21 2.07c-1.71-.28-3.56-.43-5.55-.43-7.41 0-12.44 3.16-15.08 9.46V1680h-11.29v-66.04h10.98l.19 7.63c3.7-5.9 8.95-8.85 15.74-8.85 2.2 0 3.87.28 5.01.85v10.5zm82.21 55.91c-.65-1.3-1.18-3.62-1.58-6.96-5.25 5.45-11.52 8.18-18.8 8.18-6.51 0-11.86-1.83-16.05-5.49-4.15-3.71-6.23-8.38-6.23-14.04 0-6.88 2.6-12.21 7.81-15.99 5.25-3.83 12.62-5.74 22.1-5.74h10.98v-5.19c0-3.94-1.18-7.08-3.54-9.4-2.36-2.36-5.84-3.54-10.43-3.54-4.03 0-7.41 1.02-10.14 3.06-2.72 2.03-4.08 4.49-4.08 7.38h-11.36c0-3.3 1.16-6.47 3.48-9.52 2.36-3.09 5.54-5.53 9.52-7.33 4.03-1.79 8.45-2.68 13.25-2.68 7.61 0 13.57 1.91 17.88 5.74 4.31 3.78 6.55 9.01 6.72 15.68v30.4c0 6.06.77 10.88 2.31 14.46v.98h-11.84zm-18.73-8.61c3.54 0 6.89-.91 10.07-2.74 3.17-1.83 5.47-4.21 6.89-7.14v-13.55h-8.85c-13.83 0-20.75 4.05-20.75 12.14 0 3.54 1.18 6.31 3.54 8.3 2.36 2 5.39 2.99 9.1 2.99zm-305 88.57v73.67c0 12.69-5.75 19.04-17.27 19.04-2.48 0-4.78-.36-6.9-1.1v-9.03c1.31.33 3.01.49 5.13.49 2.52 0 4.44-.69 5.74-2.08 1.34-1.34 2.01-3.7 2.01-7.08v-73.91h11.29zm-12.45-17.52c0-1.79.55-3.31 1.65-4.57 1.14-1.31 2.79-1.96 4.94-1.96 2.2 0 3.87.63 5.01 1.89 1.14 1.27 1.71 2.81 1.71 4.64 0 1.83-.57 3.36-1.71 4.58-1.14 1.22-2.81 1.83-5.01 1.83-2.19 0-3.84-.61-4.94-1.83-1.1-1.22-1.65-2.75-1.65-4.58zm71.47 77.03c-4.39 5.17-10.84 7.75-19.34 7.75-7.04 0-12.41-2.03-16.12-6.1-3.66-4.11-5.51-10.18-5.55-18.19v-42.97h11.29v42.66c0 10.01 4.07 15.02 12.21 15.02 8.62 0 14.36-3.22 17.21-9.65v-48.03h11.29V1826h-10.74l-.25-6.53zm25.52-27.04c0-10.29 2.38-18.47 7.14-24.54 4.76-6.1 11.07-9.15 18.92-9.15 8.06 0 14.34 2.85 18.86 8.54l.55-7.32h10.31v64.45c0 8.55-2.54 15.28-7.63 20.21-5.04 4.92-11.84 7.38-20.38 7.38-4.76 0-9.42-1.02-13.98-3.05-4.56-2.04-8.04-4.82-10.44-8.36l5.86-6.78c4.85 5.98 10.77 8.97 17.76 8.97 5.5 0 9.77-1.54 12.82-4.63 3.09-3.1 4.64-7.45 4.64-13.07v-5.67c-4.52 5.21-10.68 7.81-18.49 7.81-7.73 0-14-3.11-18.8-9.34-4.76-6.22-7.14-14.71-7.14-25.45zm11.35 1.28c0 7.45 1.53 13.31 4.58 17.58 3.05 4.23 7.32 6.35 12.81 6.35 7.13 0 12.35-3.24 15.69-9.71v-30.15c-3.46-6.3-8.65-9.46-15.56-9.46-5.5 0-9.79 2.14-12.88 6.41-3.09 4.27-4.64 10.6-4.64 18.98zm102.29 32.29c-.65-1.3-1.18-3.62-1.58-6.96-5.25 5.45-11.52 8.18-18.8 8.18-6.51 0-11.86-1.83-16.05-5.49-4.15-3.71-6.23-8.38-6.23-14.04 0-6.88 2.6-12.21 7.81-15.99 5.25-3.83 12.62-5.74 22.1-5.74h10.98v-5.19c0-3.94-1.18-7.08-3.54-9.4-2.36-2.36-5.83-3.54-10.43-3.54-4.03 0-7.41 1.02-10.13 3.06-2.73 2.03-4.09 4.49-4.09 7.38h-11.36c0-3.3 1.16-6.47 3.48-9.52 2.36-3.09 5.54-5.53 9.52-7.33 4.03-1.79 8.45-2.68 13.25-2.68 7.61 0 13.57 1.91 17.88 5.74 4.32 3.78 6.55 9.01 6.72 15.68v30.4c0 6.06.77 10.88 2.32 14.46v.98h-11.85zm-18.73-8.61c3.54 0 6.89-.91 10.07-2.74 3.17-1.83 5.47-4.21 6.89-7.14v-13.55h-8.85c-13.83 0-20.75 4.05-20.75 12.14 0 3.54 1.18 6.31 3.54 8.3 2.36 2 5.39 2.99 9.1 2.99zm77.88-47.3c-1.71-.28-3.56-.43-5.56-.43-7.4 0-12.43 3.16-15.07 9.46V1826h-11.29v-66.04h10.98l.19 7.63c3.7-5.9 8.95-8.85 15.74-8.85 2.2 0 3.87.28 5.01.85v10.5zM1422.68 890.069l14.65-24.109h13.18l-21.61 32.654L1451.18 932h-13.06l-15.26-24.719L1407.6 932h-13.12l22.28-33.386-21.61-32.654h13.06l14.47 24.109zm62.01 0l14.65-24.109h13.18l-21.61 32.654L1513.19 932h-13.06l-15.26-24.719L1469.61 932h-13.12l22.28-33.386-21.61-32.654h13.06l14.47 24.109zm62.01 0l14.65-24.109h13.18l-21.6 32.654L1575.2 932h-13.06l-15.26-24.719L1531.62 932h-13.12l22.28-33.386-21.61-32.654h13.07l14.46 24.109zm62.01 0l14.65-24.109h13.18l-21.6 32.654L1637.22 932h-13.07l-15.25-24.719L1593.64 932h-13.13l22.28-33.386-21.6-32.654h13.06l14.46 24.109zM2463.68 1762.07l14.65-24.11h13.18l-21.61 32.65 22.28 33.39h-13.06l-15.26-24.72-15.26 24.72h-13.12l22.28-33.39-21.61-32.65h13.06l14.47 24.11zm62.01 0l14.65-24.11h13.18l-21.61 32.65 22.28 33.39h-13.06l-15.26-24.72-15.26 24.72h-13.12l22.28-33.39-21.61-32.65h13.06l14.47 24.11zm62.01 0l14.65-24.11h13.18l-21.6 32.65 22.27 33.39h-13.06l-15.26-24.72-15.26 24.72h-13.12l22.28-33.39-21.61-32.65h13.07l14.46 24.11zm62.01 0l14.65-24.11h13.18l-21.6 32.65 22.28 33.39h-13.07l-15.25-24.72-15.26 24.72h-13.13l22.28-33.39-21.6-32.65h13.06l14.46 24.11zM1963.68 1762.07l14.65-24.11h13.18l-21.61 32.65 22.28 33.39h-13.06l-15.26-24.72-15.26 24.72h-13.12l22.28-33.39-21.61-32.65h13.06l14.47 24.11zm62.01 0l14.65-24.11h13.18l-21.61 32.65 22.28 33.39h-13.06l-15.26-24.72-15.26 24.72h-13.12l22.28-33.39-21.61-32.65h13.06l14.47 24.11zm62.01 0l14.65-24.11h13.18l-21.6 32.65 22.27 33.39h-13.06l-15.26-24.72-15.26 24.72h-13.12l22.28-33.39-21.61-32.65h13.07l14.46 24.11zm62.01 0l14.65-24.11h13.18l-21.6 32.65 22.28 33.39h-13.07l-15.25-24.72-15.26 24.72h-13.13l22.28-33.39-21.6-32.65h13.06l14.46 24.11zM1422.68 1770.07l14.65-24.11h13.18l-21.61 32.65 22.28 33.39h-13.06l-15.26-24.72-15.26 24.72h-13.12l22.28-33.39-21.61-32.65h13.06l14.47 24.11zm62.01 0l14.65-24.11h13.18l-21.61 32.65 22.28 33.39h-13.06l-15.26-24.72-15.26 24.72h-13.12l22.28-33.39-21.61-32.65h13.06l14.47 24.11zm62.01 0l14.65-24.11h13.18l-21.6 32.65 22.27 33.39h-13.06l-15.26-24.72-15.26 24.72h-13.12l22.28-33.39-21.61-32.65h13.07l14.46 24.11zm62.01 0l14.65-24.11h13.18l-21.6 32.65 22.28 33.39h-13.07l-15.25-24.72-15.26 24.72h-13.13l22.28-33.39-21.6-32.65h13.06l14.46 24.11zM2463.68 1506.07l14.65-24.11h13.18l-21.61 32.65 22.28 33.39h-13.06l-15.26-24.72-15.26 24.72h-13.12l22.28-33.39-21.61-32.65h13.06l14.47 24.11zm62.01 0l14.65-24.11h13.18l-21.61 32.65 22.28 33.39h-13.06l-15.26-24.72-15.26 24.72h-13.12l22.28-33.39-21.61-32.65h13.06l14.47 24.11zm62.01 0l14.65-24.11h13.18l-21.6 32.65 22.27 33.39h-13.06l-15.26-24.72-15.26 24.72h-13.12l22.28-33.39-21.61-32.65h13.07l14.46 24.11zm62.01 0l14.65-24.11h13.18l-21.6 32.65 22.28 33.39h-13.07l-15.25-24.72-15.26 24.72h-13.13l22.28-33.39-21.6-32.65h13.06l14.46 24.11zM1963.68 1498.07l14.65-24.11h13.18l-21.61 32.65 22.28 33.39h-13.06l-15.26-24.72-15.26 24.72h-13.12l22.28-33.39-21.61-32.65h13.06l14.47 24.11zm62.01 0l14.65-24.11h13.18l-21.61 32.65 22.28 33.39h-13.06l-15.26-24.72-15.26 24.72h-13.12l22.28-33.39-21.61-32.65h13.06l14.47 24.11zm62.01 0l14.65-24.11h13.18l-21.6 32.65 22.27 33.39h-13.06l-15.26-24.72-15.26 24.72h-13.12l22.28-33.39-21.61-32.65h13.07l14.46 24.11zm62.01 0l14.65-24.11h13.18l-21.6 32.65 22.28 33.39h-13.07l-15.25-24.72-15.26 24.72h-13.13l22.28-33.39-21.6-32.65h13.06l14.46 24.11zM1422.68 1482.07l14.65-24.11h13.18l-21.61 32.65 22.28 33.39h-13.06l-15.26-24.72-15.26 24.72h-13.12l22.28-33.39-21.61-32.65h13.06l14.47 24.11zm62.01 0l14.65-24.11h13.18l-21.61 32.65 22.28 33.39h-13.06l-15.26-24.72-15.26 24.72h-13.12l22.28-33.39-21.61-32.65h13.06l14.47 24.11zm62.01 0l14.65-24.11h13.18l-21.6 32.65 22.27 33.39h-13.06l-15.26-24.72-15.26 24.72h-13.12l22.28-33.39-21.61-32.65h13.07l14.46 24.11zm62.01 0l14.65-24.11h13.18l-21.6 32.65 22.28 33.39h-13.07l-15.25-24.72-15.26 24.72h-13.13l22.28-33.39-21.6-32.65h13.06l14.46 24.11zM2463.68 1194.07l14.65-24.11h13.18l-21.61 32.65 22.28 33.39h-13.06l-15.26-24.72-15.26 24.72h-13.12l22.28-33.39-21.61-32.65h13.06l14.47 24.11zm62.01 0l14.65-24.11h13.18l-21.61 32.65 22.28 33.39h-13.06l-15.26-24.72-15.26 24.72h-13.12l22.28-33.39-21.61-32.65h13.06l14.47 24.11zm62.01 0l14.65-24.11h13.18l-21.6 32.65 22.27 33.39h-13.06l-15.26-24.72-15.26 24.72h-13.12l22.28-33.39-21.61-32.65h13.07l14.46 24.11zm62.01 0l14.65-24.11h13.18l-21.6 32.65 22.28 33.39h-13.07l-15.25-24.72-15.26 24.72h-13.13l22.28-33.39-21.6-32.65h13.06l14.46 24.11zM1963.68 1186.07l14.65-24.11h13.18l-21.61 32.65 22.28 33.39h-13.06l-15.26-24.72-15.26 24.72h-13.12l22.28-33.39-21.61-32.65h13.06l14.47 24.11zm62.01 0l14.65-24.11h13.18l-21.61 32.65 22.28 33.39h-13.06l-15.26-24.72-15.26 24.72h-13.12l22.28-33.39-21.61-32.65h13.06l14.47 24.11zm62.01 0l14.65-24.11h13.18l-21.6 32.65 22.27 33.39h-13.06l-15.26-24.72-15.26 24.72h-13.12l22.28-33.39-21.61-32.65h13.07l14.46 24.11zm62.01 0l14.65-24.11h13.18l-21.6 32.65 22.28 33.39h-13.07l-15.25-24.72-15.26 24.72h-13.13l22.28-33.39-21.6-32.65h13.06l14.46 24.11zM1422.68 1186.07l14.65-24.11h13.18l-21.61 32.65 22.28 33.39h-13.06l-15.26-24.72-15.26 24.72h-13.12l22.28-33.39-21.61-32.65h13.06l14.47 24.11zm62.01 0l14.65-24.11h13.18l-21.61 32.65 22.28 33.39h-13.06l-15.26-24.72-15.26 24.72h-13.12l22.28-33.39-21.61-32.65h13.06l14.47 24.11zm62.01 0l14.65-24.11h13.18l-21.6 32.65 22.27 33.39h-13.06l-15.26-24.72-15.26 24.72h-13.12l22.28-33.39-21.61-32.65h13.07l14.46 24.11zm62.01 0l14.65-24.11h13.18l-21.6 32.65 22.28 33.39h-13.07l-15.25-24.72-15.26 24.72h-13.13l22.28-33.39-21.6-32.65h13.06l14.46 24.11zM2463.68 874.069l14.65-24.109h13.18l-21.61 32.654L2492.18 916h-13.06l-15.26-24.719L2448.6 916h-13.12l22.28-33.386-21.61-32.654h13.06l14.47 24.109zm62.01 0l14.65-24.109h13.18l-21.61 32.654L2554.19 916h-13.06l-15.26-24.719L2510.61 916h-13.12l22.28-33.386-21.61-32.654h13.06l14.47 24.109zm62.01 0l14.65-24.109h13.18l-21.6 32.654L2616.2 916h-13.06l-15.26-24.719L2572.62 916h-13.12l22.28-33.386-21.61-32.654h13.07l14.46 24.109zm62.01 0l14.65-24.109h13.18l-21.6 32.654L2678.22 916h-13.07l-15.25-24.719L2634.64 916h-13.13l22.28-33.386-21.6-32.654h13.06l14.46 24.109zM1963.68 882.069l14.65-24.109h13.18l-21.61 32.654L1992.18 924h-13.06l-15.26-24.719L1948.6 924h-13.12l22.28-33.386-21.61-32.654h13.06l14.47 24.109zm62.01 0l14.65-24.109h13.18l-21.61 32.654L2054.19 924h-13.06l-15.26-24.719L2010.61 924h-13.12l22.28-33.386-21.61-32.654h13.06l14.47 24.109zm62.01 0l14.65-24.109h13.18l-21.6 32.654L2116.2 924h-13.06l-15.26-24.719L2072.62 924h-13.12l22.28-33.386-21.61-32.654h13.07l14.46 24.109zm62.01 0l14.65-24.109h13.18l-21.6 32.654L2178.22 924h-13.07l-15.25-24.719L2134.64 924h-13.13l22.28-33.386-21.6-32.654h13.06l14.46 24.109zM572.707 559.715h-11.658v102.051h11.658v9.277h-23.01V550.438h23.01v9.277zm26.733 3.418l29.053 72.51 29.053-72.51h15.198V652h-11.719v-34.607l1.099-37.353L632.949 652h-8.972l-29.114-71.777 1.159 37.17V652h-11.718v-88.867h15.136zm119.629 90.088c-8.951 0-16.235-2.93-21.85-8.789-5.615-5.9-8.423-13.774-8.423-23.621v-2.075c0-6.551 1.241-12.39 3.723-17.517 2.523-5.168 6.022-9.196 10.498-12.085 4.517-2.93 9.4-4.395 14.649-4.395 8.585 0 15.258 2.828 20.019 8.484 4.761 5.656 7.141 13.753 7.141 24.292v4.7h-44.739c.163 6.51 2.055 11.78 5.677 15.808 3.662 3.988 8.3 5.981 13.916 5.981 3.987 0 7.365-.813 10.132-2.441 2.766-1.628 5.188-3.784 7.263-6.47l6.897 5.371c-5.534 8.505-13.835 12.757-24.903 12.757zm-1.403-59.204c-4.558 0-8.383 1.668-11.475 5.004-3.093 3.296-5.005 7.935-5.737 13.917h33.081v-.855c-.326-5.737-1.872-10.173-4.639-13.306-2.767-3.173-6.51-4.76-11.23-4.76zm50.964-8.057l.366 8.301c5.046-6.348 11.637-9.522 19.775-9.522 13.957 0 20.997 7.874 21.119 23.621V652h-11.292v-43.701c-.041-4.761-1.139-8.281-3.296-10.559-2.116-2.279-5.432-3.418-9.948-3.418-3.663 0-6.877.976-9.644 2.929-2.767 1.954-4.924 4.517-6.47 7.691V652h-11.291v-66.04h10.681zm96.741 48.523c0-3.052-1.16-5.412-3.479-7.08-2.279-1.709-6.287-3.174-12.024-4.395-5.697-1.22-10.234-2.685-13.611-4.394-3.337-1.709-5.819-3.744-7.446-6.104-1.587-2.36-2.381-5.167-2.381-8.423 0-5.411 2.279-9.989 6.836-13.733 4.598-3.743 10.457-5.615 17.578-5.615 7.487 0 13.55 1.933 18.189 5.799 4.679 3.865 7.019 8.809 7.019 14.831h-11.353c0-3.092-1.322-5.758-3.967-7.995-2.604-2.238-5.9-3.357-9.888-3.357-4.109 0-7.324.895-9.643 2.685-2.32 1.791-3.479 4.13-3.479 7.019 0 2.726 1.078 4.781 3.235 6.165 2.156 1.383 6.042 2.706 11.657 3.967 5.656 1.261 10.234 2.767 13.733 4.517 3.5 1.749 6.083 3.865 7.752 6.347 1.709 2.442 2.563 5.432 2.563 8.972 0 5.901-2.36 10.641-7.08 14.222-4.72 3.54-10.844 5.31-18.372 5.31-5.289 0-9.969-.936-14.038-2.808-4.069-1.872-7.263-4.476-9.582-7.812-2.279-3.378-3.418-7.019-3.418-10.926h11.291c.204 3.784 1.709 6.796 4.517 9.033 2.848 2.198 6.592 3.296 11.23 3.296 4.273 0 7.691-.854 10.254-2.563 2.605-1.75 3.907-4.069 3.907-6.958zM932.143 652c-.651-1.302-1.18-3.621-1.587-6.958-5.249 5.452-11.515 8.179-18.799 8.179-6.51 0-11.861-1.831-16.052-5.493-4.15-3.703-6.226-8.383-6.226-14.039 0-6.876 2.605-12.207 7.813-15.991 5.249-3.825 12.614-5.737 22.095-5.737h10.986v-5.188c0-3.947-1.18-7.08-3.54-9.399-2.36-2.36-5.839-3.541-10.437-3.541-4.028 0-7.406 1.018-10.132 3.052-2.726 2.035-4.089 4.497-4.089 7.386h-11.353c0-3.296 1.16-6.47 3.479-9.522 2.36-3.092 5.534-5.534 9.522-7.324 4.028-1.791 8.443-2.686 13.244-2.686 7.609 0 13.571 1.913 17.884 5.738 4.313 3.784 6.551 9.012 6.714 15.686v30.395c0 6.063.773 10.885 2.319 14.465V652h-11.841zm-18.738-8.606c3.54 0 6.897-.915 10.071-2.747 3.174-1.831 5.473-4.211 6.897-7.141v-13.549h-8.85c-13.835 0-20.752 4.048-20.752 12.146 0 3.54 1.18 6.307 3.54 8.3 2.36 1.994 5.391 2.991 9.094 2.991zm57.617-57.434v73.669c0 12.696-5.757 19.043-17.272 19.043-2.483 0-4.782-.366-6.897-1.098v-9.033c1.302.325 3.011.488 5.126.488 2.523 0 4.436-.692 5.738-2.075 1.343-1.343 2.014-3.703 2.014-7.08V585.96h11.291zm-12.451-17.517c0-1.79.55-3.316 1.648-4.578 1.14-1.302 2.788-1.953 4.944-1.953 2.197 0 3.866.631 5.005 1.892 1.139 1.262 1.709 2.808 1.709 4.639 0 1.831-.57 3.357-1.709 4.578-1.139 1.22-2.808 1.831-5.005 1.831s-3.845-.611-4.944-1.831c-1.098-1.221-1.648-2.747-1.648-4.578zm58.109 84.778c-8.96 0-16.24-2.93-21.854-8.789-5.615-5.9-8.423-13.774-8.423-23.621v-2.075c0-6.551 1.241-12.39 3.723-17.517 2.523-5.168 6.023-9.196 10.494-12.085 4.52-2.93 9.4-4.395 14.65-4.395 8.59 0 15.26 2.828 20.02 8.484 4.76 5.656 7.14 13.753 7.14 24.292v4.7h-44.735c.163 6.51 2.055 11.78 5.675 15.808 3.66 3.988 8.3 5.981 13.92 5.981 3.98 0 7.36-.813 10.13-2.441 2.77-1.628 5.19-3.784 7.26-6.47l6.9 5.371c-5.53 8.505-13.84 12.757-24.9 12.757zm-1.41-59.204c-4.55 0-8.38 1.668-11.47 5.004-3.09 3.296-5.007 7.935-5.739 13.917h33.079v-.855c-.32-5.737-1.87-10.173-4.64-13.306-2.76-3.173-6.51-4.76-11.23-4.76zm32.29-43.579h23.07v120.605h-23.07v-9.277h11.78V559.715h-11.78v-9.277z"/>
</svg>
