<svg xmlns="http://www.w3.org/2000/svg" width="3898" height="2225" fill="none" viewBox="0 0 3898 2225">
  <path fill="#fff" d="M0 0h3898v2225H0z"/>
  <path fill="#fff" d="M180 211h3079v1802H180z"/>
  <path fill="#C4C4C4" d="M221 291h157v157H221z"/>
  <path stroke="#000" d="M221.349 294.978l157 152.663M220.646 447.646l157-157"/>
  <path fill="#C4C4C4" d="M351 1042h157v157H351z"/>
  <path stroke="#000" d="M351.349 1045.98l157 152.66M350.646 1198.65l157-157"/>
  <path fill="#C4C4C4" d="M351 1757h157v157H351z"/>
  <path stroke="#000" d="M351.349 1760.98l157 152.66M350.646 1913.65l157-157"/>
  <path fill="#C4C4C4" d="M351 1287h157v157H351z"/>
  <path stroke="#000" d="M351.349 1290.98l157 152.66M350.646 1443.65l157-157"/>
  <path fill="#C4C4C4" d="M351 1520h157v157H351z"/>
  <path stroke="#000" d="M351.349 1523.98l157 152.66M350.646 1676.65l157-157"/>
  <path fill="#000" d="M560.633 369.117c0 10.031-1.688 18.797-5.063 26.297-3.375 7.453-8.156 13.148-14.343 17.086-6.188 3.938-13.407 5.906-21.657 5.906-8.062 0-15.211-1.968-21.445-5.906-6.234-3.984-11.086-9.633-14.555-16.945-3.422-7.36-5.179-15.867-5.273-25.524v-7.383c0-9.843 1.711-18.539 5.133-26.086 3.422-7.546 8.25-13.312 14.484-17.296 6.281-4.032 13.453-6.047 21.516-6.047 8.203 0 15.422 1.992 21.656 5.976 6.281 3.938 11.109 9.68 14.484 17.227 3.375 7.5 5.063 16.242 5.063 26.226v6.469zm-13.43-6.609c0-12.141-2.437-21.446-7.312-27.914-4.875-6.516-11.696-9.774-20.461-9.774-8.532 0-15.258 3.258-20.18 9.774-4.875 6.468-7.383 15.468-7.523 27v7.523c0 11.766 2.461 21.024 7.382 27.774 4.969 6.703 11.789 10.054 20.461 10.054 8.719 0 15.469-3.164 20.25-9.492 4.782-6.375 7.242-15.492 7.383-27.351v-7.594zm99 36.562l14.625-58.148h13.008L651.688 417h-10.547l-18.493-57.656-18 57.656h-10.546l-22.079-76.078h12.938l14.977 56.953 17.718-56.953h10.477l18.07 58.148zM701.258 417H688.25V309h13.008v108zm137.32 0h-13.57v-47.32h-51.61V417h-13.5V314.625h13.5v44.016h51.61v-44.016h13.57V417zm18.492-38.742c0-7.453 1.453-14.156 4.36-20.11 2.953-5.953 7.031-10.546 12.234-13.781 5.25-3.234 11.227-4.851 17.93-4.851 10.359 0 18.726 3.586 25.101 10.757 6.422 7.172 9.633 16.711 9.633 28.618v.914c0 7.406-1.43 14.062-4.289 19.968-2.812 5.86-6.867 10.43-12.164 13.711-5.25 3.282-11.297 4.922-18.141 4.922-10.312 0-18.679-3.586-25.101-10.758-6.375-7.171-9.563-16.664-9.563-28.476v-.914zm13.078 1.547c0 8.437 1.946 15.211 5.836 20.32 3.938 5.109 9.188 7.664 15.75 7.664 6.61 0 11.86-2.578 15.75-7.734 3.891-5.203 5.836-12.469 5.836-21.797 0-8.344-1.992-15.094-5.976-20.25-3.938-5.203-9.188-7.805-15.75-7.805-6.422 0-11.602 2.555-15.539 7.664-3.938 5.11-5.907 12.422-5.907 21.938zm69.047-1.547c0-7.453 1.453-14.156 4.36-20.11 2.953-5.953 7.031-10.546 12.234-13.781 5.25-3.234 11.227-4.851 17.93-4.851 10.359 0 18.726 3.586 25.101 10.757 6.42 7.172 9.63 16.711 9.63 28.618v.914c0 7.406-1.43 14.062-4.29 19.968-2.81 5.86-6.863 10.43-12.16 13.711-5.25 3.282-11.297 4.922-18.141 4.922-10.312 0-18.679-3.586-25.101-10.758-6.375-7.171-9.563-16.664-9.563-28.476v-.914zm13.078 1.547c0 8.437 1.946 15.211 5.836 20.32 3.938 5.109 9.188 7.664 15.75 7.664 6.61 0 11.86-2.578 15.75-7.734 3.891-5.203 5.836-12.469 5.836-21.797 0-8.344-1.992-15.094-5.976-20.25-3.938-5.203-9.188-7.805-15.75-7.805-6.422 0-11.602 2.555-15.539 7.664-3.938 5.11-5.907 12.422-5.907 21.938zm90.137-57.305v18.422h14.21v10.055h-14.21v47.179c0 3.047.64 5.344 1.9 6.891 1.27 1.5 3.42 2.25 6.47 2.25 1.5 0 3.56-.281 6.19-.844V417c-3.42.938-6.75 1.406-9.99 1.406-5.81 0-10.19-1.758-13.14-5.273-2.96-3.516-4.43-8.508-4.43-14.977v-47.179h-13.86v-10.055h13.86V322.5h13z"/>
  <path fill="#C4C4C4" d="M2453 244h752v204h-752z"/>
  <path fill="#000" d="M2592.89 344.586h-24.05V386h-13.57V283.625h33.89c11.54 0 20.39 2.625 26.58 7.875 6.24 5.25 9.35 12.891 9.35 22.922 0 6.375-1.73 11.93-5.2 16.664-3.42 4.734-8.2 8.273-14.34 10.617l24.04 43.453V386h-14.48l-22.22-41.414zm-24.05-11.039h20.75c6.7 0 12.02-1.735 15.96-5.203 3.98-3.469 5.97-8.11 5.97-13.922 0-6.328-1.9-11.18-5.69-14.555-3.75-3.375-9.19-5.086-16.31-5.133h-20.68v38.813zm104.77 53.859c-10.31 0-18.7-3.375-25.17-10.125-6.47-6.797-9.71-15.867-9.71-27.211v-2.39c0-7.547 1.43-14.274 4.29-20.18 2.91-5.953 6.94-10.594 12.1-13.922 5.2-3.375 10.83-5.062 16.87-5.062 9.89 0 17.58 3.257 23.06 9.773 5.49 6.516 8.23 15.844 8.23 27.984v5.415h-51.54c.19 7.5 2.37 13.57 6.54 18.21 4.22 4.594 9.56 6.891 16.03 6.891 4.6 0 8.49-.937 11.67-2.812 3.19-1.875 5.98-4.36 8.37-7.454l7.95 6.188c-6.38 9.797-15.94 14.695-28.69 14.695zm-1.62-68.203c-5.25 0-9.65 1.922-13.22 5.766-3.56 3.797-5.76 9.14-6.61 16.031h38.11v-.984c-.37-6.61-2.15-11.719-5.34-15.328-3.19-3.657-7.5-5.485-12.94-5.485zm43.31 28.125c0-11.859 2.75-21.281 8.23-28.266 5.49-7.031 12.75-10.546 21.8-10.546 9.28 0 16.52 3.281 21.72 9.843l.64-8.437h11.88v74.25c0 9.844-2.93 17.601-8.79 23.273-5.81 5.672-13.64 8.508-23.48 8.508-5.49 0-10.85-1.172-16.1-3.515-5.25-2.344-9.26-5.555-12.03-9.633l6.75-7.805c5.58 6.891 12.4 10.336 20.46 10.336 6.33 0 11.25-1.781 14.77-5.344 3.56-3.562 5.34-8.578 5.34-15.047v-6.539c-5.2 6-12.3 9-21.3 9-8.91 0-16.13-3.586-21.66-10.758-5.48-7.171-8.23-16.945-8.23-29.32zm13.08 1.477c0 8.578 1.76 15.328 5.28 20.25 3.51 4.875 8.43 7.312 14.76 7.312 8.2 0 14.23-3.726 18.07-11.179v-34.735c-3.98-7.265-9.96-10.898-17.93-10.898-6.33 0-11.27 2.461-14.83 7.383-3.57 4.921-5.35 12.21-5.35 21.867zm107.65-27.211c-1.97-.328-4.1-.492-6.4-.492-8.53 0-14.32 3.632-17.36 10.898v54h-13.01v-76.078h12.65l.21 8.789c4.27-6.797 10.32-10.195 18.15-10.195 2.53 0 4.45.328 5.76.984v12.094zm42.19 65.812c-10.31 0-18.7-3.375-25.17-10.125-6.47-6.797-9.71-15.867-9.71-27.211v-2.39c0-7.547 1.43-14.274 4.29-20.18 2.91-5.953 6.94-10.594 12.1-13.922 5.2-3.375 10.82-5.062 16.87-5.062 9.89 0 17.58 3.257 23.06 9.773 5.49 6.516 8.23 15.844 8.23 27.984v5.415h-51.54c.19 7.5 2.37 13.57 6.54 18.21 4.22 4.594 9.56 6.891 16.03 6.891 4.6 0 8.49-.937 11.67-2.812 3.19-1.875 5.98-4.36 8.37-7.454l7.95 6.188c-6.38 9.797-15.94 14.695-28.69 14.695zm-1.62-68.203c-5.25 0-9.65 1.922-13.22 5.766-3.56 3.797-5.76 9.14-6.61 16.031h38.11v-.984c-.37-6.61-2.15-11.719-5.34-15.328-3.19-3.657-7.5-5.485-12.94-5.485zm90.7 46.617c0-3.515-1.33-6.234-4-8.156-2.63-1.969-7.25-3.656-13.85-5.062-6.57-1.407-11.79-3.094-15.68-5.063-3.85-1.969-6.71-4.312-8.58-7.031-1.83-2.719-2.74-5.953-2.74-9.703 0-6.235 2.62-11.508 7.87-15.821 5.3-4.312 12.05-6.468 20.25-6.468 8.63 0 15.61 2.226 20.95 6.679 5.39 4.453 8.09 10.149 8.09 17.086h-13.08c0-3.562-1.52-6.633-4.57-9.211-3-2.578-6.8-3.867-11.39-3.867-4.73 0-8.44 1.031-11.11 3.094-2.67 2.062-4.01 4.758-4.01 8.086 0 3.14 1.25 5.508 3.73 7.101 2.48 1.594 6.96 3.118 13.43 4.571 6.51 1.453 11.79 3.187 15.82 5.203 4.03 2.015 7.01 4.453 8.93 7.312 1.97 2.813 2.95 6.258 2.95 10.336 0 6.797-2.72 12.258-8.15 16.383-5.44 4.078-12.5 6.117-21.17 6.117-6.09 0-11.48-1.078-16.17-3.234-4.69-2.156-8.37-5.156-11.04-9-2.62-3.891-3.94-8.086-3.94-12.586h13.01c.24 4.359 1.97 7.828 5.2 10.406 3.29 2.531 7.6 3.797 12.94 3.797 4.92 0 8.86-.984 11.81-2.953 3-2.016 4.5-4.688 4.5-8.016zm76.93 20.18c-.75-1.5-1.36-4.172-1.83-8.016-6.05 6.282-13.27 9.422-21.66 9.422-7.5 0-13.66-2.109-18.49-6.328-4.78-4.266-7.17-9.656-7.17-16.172 0-7.922 3-14.062 9-18.422 6.04-4.406 14.53-6.609 25.45-6.609h12.66v-5.977c0-4.546-1.36-8.156-4.08-10.828-2.72-2.718-6.73-4.078-12.02-4.078-4.64 0-8.54 1.172-11.68 3.516-3.14 2.344-4.71 5.18-4.71 8.508h-13.08c0-3.797 1.34-7.454 4.01-10.969 2.72-3.563 6.38-6.375 10.97-8.438 4.64-2.062 9.73-3.093 15.26-3.093 8.76 0 15.63 2.203 20.6 6.609 4.97 4.359 7.55 10.383 7.74 18.07v35.016c0 6.984.89 12.539 2.67 16.664V386h-13.64zm-21.59-9.914c4.08 0 7.95-1.055 11.6-3.164 3.66-2.11 6.31-4.852 7.95-8.227v-15.609h-10.2c-15.94 0-23.9 4.664-23.9 13.992 0 4.078 1.36 7.266 4.07 9.563 2.72 2.297 6.22 3.445 10.48 3.445zm89.72-54.492c-1.97-.328-4.1-.492-6.4-.492-8.53 0-14.32 3.632-17.37 10.898v54h-13v-76.078h12.65l.21 8.789c4.27-6.797 10.32-10.195 18.14-10.195 2.53 0 4.46.328 5.77.984v12.094zM471.961 677.68h-44.367v36.281h51.539V725h-65.039V622.625h64.336v11.109h-50.836v32.907h44.367v11.039zm58.711-17.086c-1.969-.328-4.102-.492-6.399-.492-8.531 0-14.32 3.632-17.367 10.898v54h-13.008v-76.078h12.657l.211 8.789c4.265-6.797 10.312-10.195 18.14-10.195 2.532 0 4.453.328 5.766.984v12.094zm42.187 65.812c-10.312 0-18.703-3.375-25.171-10.125-6.469-6.797-9.704-15.867-9.704-27.211v-2.39c0-7.547 1.43-14.274 4.289-20.18 2.907-5.953 6.938-10.594 12.094-13.922 5.203-3.375 10.828-5.062 16.875-5.062 9.891 0 17.578 3.257 23.063 9.773 5.484 6.516 8.226 15.844 8.226 27.984v5.415h-51.539c.188 7.5 2.367 13.57 6.539 18.21 4.219 4.594 9.563 6.891 16.031 6.891 4.594 0 8.485-.937 11.672-2.812 3.188-1.875 5.977-4.36 8.368-7.454l7.945 6.188c-6.375 9.797-15.938 14.695-28.688 14.695zm-1.617-68.203c-5.25 0-9.656 1.922-13.219 5.766-3.562 3.797-5.765 9.14-6.609 16.031h38.109v-.984c-.375-6.61-2.156-11.719-5.343-15.328-3.188-3.657-7.5-5.485-12.938-5.485zm90.703 46.617c0-3.515-1.336-6.234-4.007-8.156-2.626-1.969-7.243-3.656-13.852-5.062-6.563-1.407-11.789-3.094-15.68-5.063-3.844-1.969-6.703-4.312-8.578-7.031-1.828-2.719-2.742-5.953-2.742-9.703 0-6.235 2.625-11.508 7.875-15.821 5.297-4.312 12.047-6.468 20.25-6.468 8.625 0 15.609 2.226 20.953 6.679 5.391 4.453 8.086 10.149 8.086 17.086h-13.078c0-3.562-1.524-6.633-4.57-9.211-3-2.578-6.797-3.867-11.391-3.867-4.734 0-8.438 1.031-11.109 3.094-2.672 2.062-4.008 4.758-4.008 8.086 0 3.14 1.242 5.508 3.726 7.101 2.485 1.594 6.961 3.118 13.43 4.571 6.516 1.453 11.789 3.187 15.82 5.203 4.032 2.015 7.008 4.453 8.93 7.312 1.969 2.813 2.953 6.258 2.953 10.336 0 6.797-2.719 12.258-8.156 16.383-5.438 4.078-12.492 6.117-21.164 6.117-6.094 0-11.485-1.078-16.172-3.234-4.688-2.156-8.367-5.156-11.039-9-2.625-3.891-3.938-8.086-3.938-12.586h13.008c.235 4.359 1.969 7.828 5.203 10.406 3.282 2.531 7.594 3.797 12.938 3.797 4.922 0 8.859-.984 11.812-2.953 3-2.016 4.5-4.688 4.5-8.016zM774.586 725c-.75-1.5-1.359-4.172-1.828-8.016-6.047 6.282-13.266 9.422-21.656 9.422-7.5 0-13.664-2.109-18.493-6.328-4.781-4.266-7.171-9.656-7.171-16.172 0-7.922 3-14.062 9-18.422 6.046-4.406 14.531-6.609 25.453-6.609h12.656v-5.977c0-4.546-1.359-8.156-4.078-10.828-2.719-2.718-6.727-4.078-12.024-4.078-4.64 0-8.531 1.172-11.672 3.516-3.14 2.344-4.711 5.18-4.711 8.508h-13.078c0-3.797 1.336-7.454 4.008-10.969 2.719-3.563 6.375-6.375 10.969-8.438 4.641-2.062 9.727-3.093 15.258-3.093 8.765 0 15.633 2.203 20.601 6.609 4.969 4.359 7.547 10.383 7.735 18.07v35.016c0 6.984.89 12.539 2.672 16.664V725h-13.641zM753 715.086c4.078 0 7.945-1.055 11.602-3.164 3.656-2.11 6.304-4.852 7.945-8.227v-15.609h-10.195c-15.938 0-23.907 4.664-23.907 13.992 0 4.078 1.36 7.266 4.078 9.563 2.719 2.297 6.211 3.445 10.477 3.445zm65.25-66.164l.422 9.562c5.812-7.312 13.406-10.968 22.781-10.968 16.078 0 24.188 9.07 24.328 27.211V725h-13.008v-50.344c-.046-5.484-1.312-9.539-3.796-12.164-2.438-2.625-6.258-3.937-11.461-3.937-4.219 0-7.922 1.125-11.11 3.375-3.187 2.25-5.672 5.203-7.453 8.859V725h-13.008v-76.078h12.305zM889.758 725v-66.023h-12.024v-10.055h12.024v-6.469c0-8.484 2.414-15.094 7.242-19.828 4.875-4.734 11.742-7.102 20.602-7.102 5.25 0 11.882 1.43 19.898 4.289l-2.18 10.969c-5.859-2.343-11.437-3.515-16.734-3.515-5.578 0-9.609 1.265-12.094 3.796-2.437 2.485-3.656 6.235-3.656 11.25v6.61h15.539v10.055h-15.539V725h-13.078zm54.211 0h-13.078v-76.078h13.078V725zm38.812-94.5v18.422h14.203v10.055h-14.203v47.179c0 3.047.633 5.344 1.899 6.891 1.265 1.5 3.422 2.25 6.468 2.25 1.5 0 3.563-.281 6.188-.844V725c-3.422.938-6.75 1.406-9.984 1.406-5.813 0-10.196-1.758-13.149-5.273-2.953-3.516-4.43-8.508-4.43-14.977v-47.179h-13.851v-10.055h13.851V630.5h13.008zm66.239 30.094c-1.97-.328-4.11-.492-6.4-.492-8.53 0-14.32 3.632-17.37 10.898v54h-13.01v-76.078h12.66l.21 8.789c4.27-6.797 10.31-10.195 18.14-10.195 2.53 0 4.45.328 5.77.984v12.094zM1075.17 725h-13.01v-76.078h13.01V725zm-14.06-96.258c0-2.109.63-3.89 1.9-5.344 1.31-1.453 3.23-2.179 5.76-2.179s4.46.726 5.77 2.179c1.31 1.454 1.97 3.235 1.97 5.344 0 2.11-.66 3.867-1.97 5.274-1.31 1.406-3.24 2.109-5.77 2.109-2.53 0-4.45-.703-5.76-2.109-1.27-1.407-1.9-3.164-1.9-5.274zm31.5 57.516c0-7.453 1.45-14.156 4.36-20.11 2.95-5.953 7.03-10.546 12.23-13.781 5.25-3.234 11.23-4.851 17.93-4.851 10.36 0 18.73 3.586 25.1 10.757 6.43 7.172 9.64 16.711 9.64 28.618v.914c0 7.406-1.43 14.062-4.29 19.968-2.81 5.86-6.87 10.43-12.17 13.711-5.25 3.282-11.29 4.922-18.14 4.922-10.31 0-18.68-3.586-25.1-10.758-6.37-7.171-9.56-16.664-9.56-28.476v-.914zm13.08 1.547c0 8.437 1.94 15.211 5.83 20.32 3.94 5.109 9.19 7.664 15.75 7.664 6.61 0 11.86-2.578 15.75-7.734 3.89-5.203 5.84-12.469 5.84-21.797 0-8.344-1.99-15.094-5.98-20.25-3.93-5.203-9.18-7.805-15.75-7.805-6.42 0-11.6 2.555-15.54 7.664-3.93 5.11-5.9 12.422-5.9 21.938zM1133.04 617h15.75l-18.84 20.672h-10.48L1133.04 617zm57.44 31.922l.43 9.562c5.81-7.312 13.4-10.968 22.78-10.968 16.08 0 24.19 9.07 24.33 27.211V725h-13.01v-50.344c-.05-5.484-1.31-9.539-3.8-12.164-2.44-2.625-6.26-3.937-11.46-3.937-4.22 0-7.92 1.125-11.11 3.375-3.19 2.25-5.67 5.203-7.45 8.859V725h-13.01v-76.078h12.3zM405.984 870.625h13.571v72.492c0 9.797-2.953 17.461-8.86 22.992-5.859 5.532-13.687 8.297-23.484 8.297-10.172 0-18.094-2.601-23.766-7.804-5.672-5.204-8.507-12.493-8.507-21.868h13.5c0 5.86 1.593 10.43 4.781 13.711 3.234 3.282 7.898 4.922 13.992 4.922 5.578 0 10.078-1.758 13.5-5.273 3.469-3.516 5.227-8.438 5.273-14.766v-72.703zm81.493 94.852c-5.063 5.953-12.493 8.929-22.289 8.929-8.11 0-14.297-2.344-18.563-7.031-4.219-4.734-6.352-11.719-6.398-20.953v-49.5h13.007v49.148c0 11.532 4.688 17.297 14.063 17.297 9.937 0 16.547-3.703 19.828-11.109v-55.336h13.008V973h-12.375l-.281-7.523zm29.39-31.149c0-11.859 2.742-21.281 8.227-28.266 5.484-7.031 12.75-10.546 21.797-10.546 9.281 0 16.523 3.281 21.726 9.843l.633-8.437h11.883v74.25c0 9.844-2.93 17.601-8.789 23.273-5.813 5.675-13.641 8.505-23.485 8.505-5.484 0-10.851-1.17-16.101-3.512-5.25-2.344-9.258-5.555-12.024-9.633l6.75-7.805c5.578 6.891 12.399 10.336 20.461 10.336 6.328 0 11.25-1.781 14.766-5.344 3.562-3.562 5.344-8.578 5.344-15.047v-6.539c-5.203 6-12.305 9-21.305 9-8.906 0-16.125-3.586-21.656-10.758-5.485-7.171-8.227-16.945-8.227-29.32zm13.078 1.477c0 8.578 1.758 15.328 5.274 20.25 3.515 4.875 8.437 7.312 14.765 7.312 8.204 0 14.227-3.726 18.071-11.179v-34.735c-3.985-7.265-9.961-10.898-17.93-10.898-6.328 0-11.273 2.461-14.836 7.383-3.562 4.921-5.344 12.21-5.344 21.867zM647.789 973c-.75-1.5-1.359-4.172-1.828-8.016-6.047 6.282-13.266 9.422-21.656 9.422-7.5 0-13.664-2.109-18.493-6.328-4.781-4.266-7.171-9.656-7.171-16.172 0-7.922 3-14.062 9-18.422 6.047-4.406 14.531-6.609 25.453-6.609h12.656v-5.977c0-4.546-1.359-8.156-4.078-10.828-2.719-2.718-6.727-4.078-12.024-4.078-4.64 0-8.531 1.172-11.671 3.516-3.141 2.344-4.711 5.18-4.711 8.508h-13.078c0-3.797 1.335-7.454 4.007-10.969 2.719-3.563 6.375-6.375 10.969-8.438 4.641-2.062 9.727-3.093 15.258-3.093 8.766 0 15.633 2.203 20.601 6.609 4.969 4.359 7.547 10.383 7.735 18.07v35.016c0 6.984.89 12.539 2.672 16.664V973h-13.641zm-21.586-9.914c4.078 0 7.945-1.055 11.602-3.164 3.656-2.11 6.304-4.852 7.945-8.227v-15.609h-10.195c-15.938 0-23.907 4.664-23.907 13.992 0 4.078 1.36 7.266 4.079 9.563 2.718 2.297 6.211 3.445 10.476 3.445zm49.781-28.758c0-11.672 2.766-21.047 8.297-28.125 5.531-7.125 12.774-10.687 21.727-10.687 8.906 0 15.961 3.046 21.164 9.14V865h13.008v108h-11.953l-.633-8.156c-5.203 6.375-12.446 9.562-21.727 9.562-8.812 0-16.008-3.609-21.586-10.828-5.531-7.219-8.297-16.64-8.297-28.266v-.984zm13.008 1.477c0 8.625 1.781 15.375 5.344 20.25 3.562 4.875 8.484 7.312 14.766 7.312 8.25 0 14.273-3.703 18.07-11.109v-34.946c-3.891-7.171-9.867-10.757-17.93-10.757-6.375 0-11.344 2.461-14.906 7.383-3.563 4.921-5.344 12.21-5.344 21.867zm67.992-1.547c0-7.453 1.454-14.156 4.36-20.11 2.953-5.953 7.031-10.546 12.234-13.781 5.25-3.234 11.227-4.851 17.93-4.851 10.359 0 18.726 3.586 25.101 10.757 6.422 7.172 9.633 16.711 9.633 28.618v.914c0 7.406-1.43 14.062-4.289 19.968-2.812 5.86-6.867 10.43-12.164 13.711-5.25 3.282-11.297 4.922-18.141 4.922-10.312 0-18.679-3.586-25.101-10.758-6.375-7.171-9.563-16.664-9.563-28.476v-.914zm13.078 1.547c0 8.437 1.946 15.211 5.836 20.32 3.938 5.109 9.188 7.664 15.75 7.664 6.61 0 11.86-2.578 15.75-7.734 3.891-5.203 5.836-12.469 5.836-21.797 0-8.344-1.992-15.094-5.976-20.25-3.938-5.203-9.188-7.805-15.75-7.805-6.422 0-11.602 2.555-15.539 7.664-3.938 5.11-5.907 12.422-5.907 21.938zm109.266-27.211c-1.969-.328-4.101-.492-6.398-.492-8.532 0-14.321 3.632-17.368 10.898v54h-13.007v-76.078h12.656l.211 8.789c4.266-6.797 10.312-10.195 18.14-10.195 2.532 0 4.454.328 5.766.984v12.094zm42.188 65.812c-10.313 0-18.704-3.375-25.172-10.125-6.469-6.797-9.703-15.867-9.703-27.211v-2.39c0-7.547 1.429-14.274 4.289-20.18 2.906-5.953 6.937-10.594 12.093-13.922 5.204-3.375 10.829-5.062 16.875-5.062 9.891 0 17.579 3.257 23.063 9.773 5.484 6.516 8.227 15.844 8.227 27.984v5.415h-51.54c.188 7.5 2.368 13.57 6.54 18.21 4.218 4.594 9.562 6.891 16.031 6.891 4.593 0 8.484-.937 11.672-2.812 3.187-1.875 5.976-4.36 8.367-7.454l7.945 6.188c-6.375 9.797-15.937 14.695-28.687 14.695zm-1.618-68.203c-5.25 0-9.656 1.922-13.218 5.766-3.563 3.797-5.766 9.14-6.61 16.031h38.11v-.984c-.375-6.61-2.157-11.719-5.344-15.328-3.188-3.657-7.5-5.485-12.938-5.485zm90.702 46.617c0-3.515-1.33-6.234-4.01-8.156-2.62-1.969-7.238-3.656-13.848-5.062-6.562-1.407-11.789-3.094-15.68-5.063-3.843-1.969-6.703-4.312-8.578-7.031-1.828-2.719-2.742-5.953-2.742-9.703 0-6.235 2.625-11.508 7.875-15.821 5.297-4.312 12.047-6.468 20.25-6.468 8.623 0 15.613 2.226 20.953 6.679 5.39 4.453 8.09 10.149 8.09 17.086h-13.08c0-3.562-1.53-6.633-4.57-9.211-3-2.578-6.799-3.867-11.393-3.867-4.734 0-8.437 1.031-11.109 3.094-2.672 2.062-4.008 4.758-4.008 8.086 0 3.14 1.242 5.508 3.727 7.101 2.484 1.594 6.961 3.118 13.429 4.571 6.514 1.453 11.794 3.187 15.824 5.203 4.03 2.015 7 4.453 8.93 7.312 1.96 2.813 2.95 6.258 2.95 10.336 0 6.797-2.72 12.258-8.16 16.383-5.43 4.078-12.49 6.117-21.161 6.117-6.094 0-11.484-1.078-16.172-3.234-4.687-2.156-8.367-5.156-11.039-9-2.625-3.891-3.937-8.086-3.937-12.586h13.007c.235 4.359 1.969 7.828 5.204 10.406 3.281 2.531 7.593 3.797 12.937 3.797 4.922 0 8.861-.984 11.811-2.953 3-2.016 4.5-4.688 4.5-8.016zm65.18-21.375c0-10.593 1.41-20.765 4.22-30.515 2.86-9.75 7.1-18.61 12.73-26.578 5.62-7.969 11.46-13.594 17.5-16.875l2.68 8.578c-6.85 5.25-12.47 13.265-16.88 24.047-4.36 10.781-6.75 22.851-7.17 36.21l-.07 5.977c0 18.094 3.3 33.797 9.91 47.109 3.99 7.969 8.72 14.204 14.21 18.704l-2.68 7.948c-6.23-3.47-12.18-9.284-17.85-17.441-11.07-15.937-16.6-34.992-16.6-57.164zM1166.91 973h-13.08v-86.695l-26.23 9.633v-11.813l37.27-13.992h2.04V973zm42.04 8.789h-11.18l42.75-111.164h11.11l-42.68 111.164zm82.27-57.094l16.87-27.773h15.19l-24.89 37.617L1324.05 973h-15.04l-17.58-28.477L1273.85 973h-15.12l25.67-38.461-24.89-37.617h15.04l16.67 27.773zm71.44 0l16.87-27.773h15.19l-24.89 37.617L1395.49 973h-15.04l-17.58-28.477L1345.29 973h-15.12l25.67-38.461-24.89-37.617h15.04l16.67 27.773zm75.93 7.453c0 10.454-1.38 20.485-4.14 30.094a87.908 87.908 0 01-12.59 26.508c-5.63 8.109-11.53 13.87-17.72 17.3l-2.74-7.948c7.22-5.532 13.01-14.11 17.37-25.735 4.4-11.672 6.65-24.609 6.75-38.812v-2.25c0-9.844-1.04-18.985-3.1-27.422-2.06-8.485-4.94-16.078-8.65-22.781-3.65-6.704-7.78-11.93-12.37-15.68l2.74-7.945c6.19 3.421 12.07 9.14 17.65 17.156 5.62 8.015 9.82 16.851 12.59 26.508 2.81 9.656 4.21 19.992 4.21 31.007zM731.602 1108.7l16.875-27.78h15.187l-24.891 37.62 25.665 38.46h-15.047l-17.579-28.48-17.578 28.48h-15.117l25.664-38.46-24.89-37.62h15.047l16.664 27.78zm71.437 0l16.875-27.78h15.188l-24.891 37.62 25.664 38.46h-15.047l-17.578-28.48-17.578 28.48h-15.117l25.664-38.46-24.891-37.62h15.047l16.664 27.78zm71.438 0l16.875-27.78h15.187l-24.891 37.62 25.664 38.46h-15.046l-17.578-28.48-17.579 28.48h-15.117l25.664-38.46-24.89-37.62h15.046l16.665 27.78zm71.437 0l16.875-27.78h15.188l-24.891 37.62L978.75 1157h-15.047l-17.578-28.48-17.578 28.48H913.43l25.664-38.46-24.891-37.62h15.047l16.664 27.78zm71.436 0l16.88-27.78h15.18l-24.89 37.62 25.67 38.46h-15.05l-17.58-28.48-17.576 28.48h-15.117l25.663-38.46-24.889-37.62h15.049l16.66 27.78zm71.44 0l16.87-27.78h15.19l-24.89 37.62 25.66 38.46h-15.04l-17.58-28.48-17.58 28.48h-15.12l25.67-38.46-24.89-37.62h15.04l16.67 27.78zm45.42 6.75c0-10.6 1.41-20.77 4.22-30.52 2.86-9.75 7.1-18.61 12.73-26.58 5.62-7.97 11.46-13.59 17.5-16.87l2.68 8.57c-6.85 5.25-12.47 13.27-16.88 24.05-4.36 10.78-6.75 22.85-7.17 36.21l-.07 5.98c0 18.09 3.3 33.8 9.91 47.11 3.99 7.97 8.72 14.2 14.21 18.7l-2.68 7.95c-6.23-3.47-12.18-9.28-17.86-17.44-11.06-15.94-16.59-34.99-16.59-57.16zm122.49-49.72h-32.91V1157h-13.43v-91.27h-32.84v-11.11h79.18v11.11zm53.36 83.75c-5.06 5.95-12.49 8.93-22.29 8.93-8.11 0-14.29-2.35-18.56-7.03-4.22-4.74-6.35-11.72-6.4-20.96v-49.5h13.01v49.15c0 11.53 4.69 17.3 14.06 17.3 9.94 0 16.55-3.71 19.83-11.11v-55.34h13.01V1157h-12.38l-.28-7.52zM1299.52 1049h15.75l-18.85 20.67h-10.47l13.57-20.67zm73.05 67.15c0 10.45-1.38 20.48-4.15 30.09-2.72 9.56-6.91 18.4-12.58 26.51-5.63 8.11-11.54 13.87-17.72 17.3l-2.74-7.95c7.21-5.53 13-14.11 17.36-25.73 4.41-11.67 6.66-24.61 6.75-38.82v-2.25c0-9.84-1.03-18.98-3.09-27.42-2.06-8.48-4.95-16.08-8.65-22.78-3.66-6.7-7.78-11.93-12.37-15.68l2.74-7.94c6.18 3.42 12.07 9.14 17.65 17.15 5.62 8.02 9.82 16.85 12.58 26.51 2.81 9.66 4.22 19.99 4.22 31.01zM750.875 1366.68h-44.367v36.28h51.539V1414h-65.039v-102.38h64.336v11.11h-50.836v32.91h44.367v11.04zm66.234 27.14c0-3.52-1.336-6.23-4.007-8.16-2.625-1.96-7.243-3.65-13.852-5.06-6.562-1.4-11.789-3.09-15.68-5.06-3.843-1.97-6.703-4.31-8.578-7.03-1.828-2.72-2.742-5.96-2.742-9.71 0-6.23 2.625-11.5 7.875-15.82 5.297-4.31 12.047-6.46 20.25-6.46 8.625 0 15.609 2.22 20.953 6.68 5.391 4.45 8.086 10.14 8.086 17.08h-13.078c0-3.56-1.524-6.63-4.57-9.21-3-2.58-6.797-3.87-11.391-3.87-4.734 0-8.437 1.03-11.109 3.1-2.672 2.06-4.008 4.75-4.008 8.08 0 3.14 1.242 5.51 3.726 7.1 2.485 1.6 6.961 3.12 13.43 4.57 6.516 1.46 11.789 3.19 15.82 5.21 4.032 2.01 7.008 4.45 8.93 7.31 1.969 2.81 2.953 6.26 2.953 10.34 0 6.79-2.719 12.25-8.156 16.38-5.438 4.08-12.492 6.12-21.164 6.12-6.094 0-11.485-1.08-16.172-3.24-4.687-2.15-8.367-5.15-11.039-9-2.625-3.89-3.938-8.08-3.938-12.58h13.008c.235 4.36 1.969 7.82 5.203 10.4 3.282 2.53 7.594 3.8 12.938 3.8 4.922 0 8.859-.99 11.812-2.95 3-2.02 4.5-4.69 4.5-8.02zm94.219-17.02c0 11.58-2.648 20.91-7.945 27.99-5.297 7.08-12.469 10.62-21.516 10.62-9.234 0-16.5-2.93-21.797-8.79v36.63h-13.008v-105.33h11.883l.633 8.44c5.297-6.56 12.656-9.84 22.078-9.84 9.141 0 16.36 3.44 21.656 10.33 5.344 6.89 8.016 16.48 8.016 28.76v1.19zm-13.008-1.47c0-8.58-1.828-15.35-5.484-20.32-3.656-4.97-8.672-7.46-15.047-7.46-7.875 0-13.781 3.5-17.719 10.48v36.35c3.891 6.94 9.844 10.41 17.86 10.41 6.234 0 11.179-2.46 14.836-7.38 3.703-4.97 5.554-12.33 5.554-22.08zm76.571 38.67c-.75-1.5-1.36-4.17-1.829-8.02-6.046 6.29-13.265 9.43-21.656 9.43-7.5 0-13.664-2.11-18.492-6.33-4.781-4.27-7.172-9.66-7.172-16.17 0-7.93 3-14.07 9-18.43 6.047-4.4 14.531-6.6 25.453-6.6h12.657v-5.98c0-4.55-1.36-8.16-4.079-10.83-2.718-2.72-6.726-4.08-12.023-4.08-4.641 0-8.531 1.17-11.672 3.52-3.14 2.34-4.711 5.18-4.711 8.51h-13.078c0-3.8 1.336-7.46 4.008-10.97 2.719-3.57 6.375-6.38 10.969-8.44 4.64-2.06 9.726-3.09 15.257-3.09 8.766 0 15.633 2.2 20.602 6.6 4.969 4.36 7.547 10.39 7.734 18.08v35.01c0 6.99.891 12.54 2.672 16.67v1.12h-13.64zm-21.586-9.91c4.078 0 7.945-1.06 11.601-3.17 3.656-2.11 6.305-4.85 7.946-8.22v-15.61h-10.196c-15.937 0-23.906 4.66-23.906 13.99 0 4.08 1.359 7.26 4.078 9.56 2.719 2.3 6.211 3.45 10.477 3.45zm83.465.7c4.64 0 8.69-1.41 12.16-4.22 3.47-2.81 5.39-6.33 5.77-10.55h12.3c-.23 4.36-1.73 8.51-4.5 12.45-2.77 3.94-6.47 7.08-11.11 9.42-4.59 2.34-9.47 3.52-14.62 3.52-10.36 0-18.61-3.45-24.75-10.34-6.1-6.94-9.14-16.41-9.14-28.41v-2.18c0-7.4 1.35-13.99 4.07-19.75 2.72-5.77 6.61-10.25 11.67-13.43 5.11-3.19 11.14-4.78 18.08-4.78 8.53 0 15.6 2.55 21.23 7.66 5.67 5.11 8.69 11.74 9.07 19.9h-12.3c-.38-4.92-2.25-8.96-5.63-12.1-3.33-3.18-7.45-4.78-12.37-4.78-6.61 0-11.75 2.39-15.4 7.18-3.61 4.73-5.42 11.6-5.42 20.6v2.46c0 8.76 1.81 15.51 5.42 20.25 3.61 4.73 8.76 7.1 15.47 7.1zm58.99 9.21h-13.01v-76.08h13.01V1414zm-14.06-96.26c0-2.11.63-3.89 1.89-5.34 1.32-1.45 3.24-2.18 5.77-2.18 2.53 0 4.45.73 5.76 2.18 1.32 1.45 1.97 3.23 1.97 5.34s-.65 3.87-1.97 5.28c-1.31 1.4-3.23 2.1-5.76 2.1s-4.45-.7-5.77-2.1c-1.26-1.41-1.89-3.17-1.89-5.28zm31.5 57.52c0-7.46 1.45-14.16 4.35-20.11 2.96-5.95 7.04-10.55 12.24-13.78 5.25-3.24 11.23-4.85 17.93-4.85 10.36 0 18.73 3.58 25.1 10.75 6.42 7.18 9.63 16.71 9.63 28.62v.91c0 7.41-1.43 14.07-4.29 19.97-2.81 5.86-6.86 10.43-12.16 13.71-5.25 3.29-11.3 4.93-18.14 4.93-10.31 0-18.68-3.59-25.1-10.76-6.38-7.17-9.56-16.67-9.56-28.48v-.91zm13.07 1.54c0 8.44 1.95 15.22 5.84 20.32 3.94 5.11 9.19 7.67 15.75 7.67 6.61 0 11.86-2.58 15.75-7.74 3.89-5.2 5.84-12.46 5.84-21.79 0-8.35-2-15.1-5.98-20.25-3.94-5.21-9.19-7.81-15.75-7.81-6.42 0-11.6 2.56-15.54 7.67-3.94 5.11-5.91 12.42-5.91 21.93zm105.05-1.47c0-11.67 2.77-21.05 8.3-28.13 5.53-7.12 12.77-10.68 21.72-10.68 8.91 0 15.96 3.04 21.17 9.14V1306h13.01v108h-11.96l-.63-8.16c-5.2 6.38-12.45 9.57-21.73 9.57-8.81 0-16-3.61-21.58-10.83-5.53-7.22-8.3-16.64-8.3-28.27v-.98zm13.01 1.47c0 8.63 1.78 15.38 5.34 20.25 3.56 4.88 8.49 7.32 14.77 7.32 8.25 0 14.27-3.71 18.07-11.11v-34.95c-3.89-7.17-9.87-10.76-17.93-10.76-6.38 0-11.35 2.47-14.91 7.39-3.56 4.92-5.34 12.21-5.34 21.86zm85.57 37.2h-13.01v-76.08h13.01V1414zm-14.06-96.26c0-2.11.63-3.89 1.89-5.34 1.32-1.45 3.24-2.18 5.77-2.18 2.53 0 4.45.73 5.77 2.18 1.31 1.45 1.96 3.23 1.96 5.34s-.65 3.87-1.96 5.28c-1.32 1.4-3.24 2.1-5.77 2.1-2.53 0-4.45-.7-5.77-2.1-1.26-1.41-1.89-3.17-1.89-5.28zm79.24 76.08c0-3.52-1.34-6.23-4.01-8.16-2.62-1.96-7.24-3.65-13.85-5.06-6.56-1.4-11.79-3.09-15.68-5.06-3.84-1.97-6.7-4.31-8.58-7.03-1.83-2.72-2.74-5.96-2.74-9.71 0-6.23 2.62-11.5 7.87-15.82 5.3-4.31 12.05-6.46 20.25-6.46 8.63 0 15.61 2.22 20.96 6.68 5.39 4.45 8.08 10.14 8.08 17.08h-13.08c0-3.56-1.52-6.63-4.57-9.21-3-2.58-6.79-3.87-11.39-3.87-4.73 0-8.43 1.03-11.11 3.1-2.67 2.06-4 4.75-4 8.08 0 3.14 1.24 5.51 3.72 7.1 2.49 1.6 6.96 3.12 13.43 4.57 6.52 1.46 11.79 3.19 15.82 5.21 4.03 2.01 7.01 4.45 8.93 7.31 1.97 2.81 2.96 6.26 2.96 10.34 0 6.79-2.72 12.25-8.16 16.38-5.44 4.08-12.49 6.12-21.16 6.12-6.1 0-11.49-1.08-16.18-3.24-4.68-2.15-8.36-5.15-11.04-9-2.62-3.89-3.93-8.08-3.93-12.58h13c.24 4.36 1.97 7.82 5.21 10.4 3.28 2.53 7.59 3.8 12.94 3.8 4.92 0 8.85-.99 11.81-2.95 3-2.02 4.5-4.69 4.5-8.02zm94.22-17.02c0 11.58-2.65 20.91-7.95 27.99-5.3 7.08-12.47 10.62-21.51 10.62-9.24 0-16.5-2.93-21.8-8.79v36.63h-13.01v-105.33h11.88l.64 8.44c5.29-6.56 12.65-9.84 22.07-9.84 9.15 0 16.36 3.44 21.66 10.33 5.34 6.89 8.02 16.48 8.02 28.76v1.19zm-13.01-1.47c0-8.58-1.83-15.35-5.49-20.32-3.65-4.97-8.67-7.46-15.04-7.46-7.88 0-13.78 3.5-17.72 10.48v36.35c3.89 6.94 9.84 10.41 17.86 10.41 6.23 0 11.18-2.46 14.83-7.38 3.71-4.97 5.56-12.33 5.56-22.08zm26.16-.07c0-7.46 1.45-14.16 4.35-20.11 2.96-5.95 7.04-10.55 12.24-13.78 5.25-3.24 11.23-4.85 17.93-4.85 10.36 0 18.73 3.58 25.1 10.75 6.42 7.18 9.63 16.71 9.63 28.62v.91c0 7.41-1.43 14.07-4.29 19.97-2.81 5.86-6.86 10.43-12.16 13.71-5.25 3.29-11.3 4.93-18.14 4.93-10.31 0-18.68-3.59-25.1-10.76-6.38-7.17-9.56-16.67-9.56-28.48v-.91zm13.07 1.54c0 8.44 1.95 15.22 5.84 20.32 3.94 5.11 9.19 7.67 15.75 7.67 6.61 0 11.86-2.58 15.75-7.74 3.89-5.2 5.84-12.46 5.84-21.79 0-8.35-2-15.1-5.98-20.25-3.94-5.21-9.19-7.81-15.75-7.81-6.42 0-11.6 2.56-15.54 7.67-3.94 5.11-5.91 12.42-5.91 21.93zm84.8-38.88l.42 9.56c5.81-7.31 13.41-10.96 22.78-10.96 16.08 0 24.19 9.07 24.33 27.21V1414h-13.01v-50.34c-.04-5.49-1.31-9.54-3.79-12.17-2.44-2.62-6.26-3.94-11.46-3.94-4.22 0-7.93 1.13-11.11 3.38-3.19 2.25-5.68 5.2-7.46 8.86V1414h-13v-76.08h12.3zm81.28 76.08h-13.01v-76.08h13.01V1414zm-14.06-96.26c0-2.11.63-3.89 1.9-5.34 1.31-1.45 3.23-2.18 5.76-2.18s4.46.73 5.77 2.18c1.31 1.45 1.97 3.23 1.97 5.34s-.66 3.87-1.97 5.28c-1.31 1.4-3.24 2.1-5.77 2.1-2.53 0-4.45-.7-5.76-2.1-1.27-1.41-1.9-3.17-1.9-5.28zm99.35 59.06c0 11.63-2.67 20.98-8.01 28.06-5.35 7.03-12.52 10.55-21.52 10.55-9.61 0-17.04-3.4-22.29-10.2l-.63 8.79h-11.96v-108h13.01v40.29c5.25-6.52 12.49-9.77 21.73-9.77 9.23 0 16.48 3.49 21.73 10.47 5.29 6.99 7.94 16.55 7.94 28.69v1.12zm-13.01-1.47c0-8.86-1.71-15.71-5.13-20.53-3.42-4.83-8.34-7.25-14.77-7.25-8.57 0-14.74 3.99-18.49 11.96v32.9c3.99 7.97 10.2 11.96 18.63 11.96 6.24 0 11.09-2.42 14.56-7.25 3.47-4.82 5.2-12.09 5.2-21.79zm43.6 38.67h-13.01v-108h13.01v108zm52.45 1.41c-10.31 0-18.7-3.38-25.17-10.13-6.47-6.8-9.71-15.87-9.71-27.21v-2.39c0-7.55 1.43-14.27 4.29-20.18 2.91-5.95 6.94-10.59 12.1-13.92 5.2-3.38 10.83-5.06 16.87-5.06 9.89 0 17.58 3.25 23.07 9.77 5.48 6.51 8.22 15.84 8.22 27.98v5.42h-51.54c.19 7.5 2.37 13.57 6.54 18.21 4.22 4.59 9.56 6.89 16.03 6.89 4.6 0 8.49-.94 11.67-2.81 3.19-1.88 5.98-4.36 8.37-7.46l7.95 6.19c-6.38 9.8-15.94 14.7-28.69 14.7zm-1.62-68.21c-5.25 0-9.65 1.92-13.22 5.77-3.56 3.8-5.76 9.14-6.61 16.03h38.11v-.98c-.37-6.61-2.15-11.72-5.34-15.33-3.19-3.66-7.5-5.49-12.94-5.49zM750.375 1610.68h-44.367v36.28h51.539V1658h-65.039v-102.38h64.336v11.11h-50.836v32.91h44.367v11.04zm66.234 27.14c0-3.52-1.336-6.23-4.007-8.16-2.625-1.96-7.243-3.65-13.852-5.06-6.562-1.4-11.789-3.09-15.68-5.06-3.843-1.97-6.703-4.31-8.578-7.03-1.828-2.72-2.742-5.96-2.742-9.71 0-6.23 2.625-11.5 7.875-15.82 5.297-4.31 12.047-6.46 20.25-6.46 8.625 0 15.609 2.22 20.953 6.68 5.391 4.45 8.086 10.14 8.086 17.08h-13.078c0-3.56-1.524-6.63-4.57-9.21-3-2.58-6.797-3.87-11.391-3.87-4.734 0-8.437 1.03-11.109 3.1-2.672 2.06-4.008 4.75-4.008 8.08 0 3.14 1.242 5.51 3.726 7.1 2.485 1.6 6.961 3.12 13.43 4.57 6.516 1.46 11.789 3.19 15.82 5.21 4.032 2.01 7.008 4.45 8.93 7.31 1.969 2.81 2.953 6.26 2.953 10.34 0 6.79-2.719 12.25-8.156 16.38-5.438 4.08-12.492 6.12-21.164 6.12-6.094 0-11.485-1.08-16.172-3.24-4.687-2.15-8.367-5.15-11.039-9-2.625-3.89-3.938-8.08-3.938-12.58h13.008c.235 4.36 1.969 7.82 5.203 10.4 3.282 2.53 7.594 3.8 12.938 3.8 4.922 0 8.859-.99 11.812-2.95 3-2.02 4.5-4.69 4.5-8.02zm94.219-17.02c0 11.58-2.648 20.91-7.945 27.99-5.297 7.08-12.469 10.62-21.516 10.62-9.234 0-16.5-2.93-21.797-8.79v36.63h-13.008v-105.33h11.883l.633 8.44c5.297-6.56 12.656-9.84 22.078-9.84 9.141 0 16.36 3.44 21.656 10.33 5.344 6.89 8.016 16.48 8.016 28.76v1.19zm-13.008-1.47c0-8.58-1.828-15.35-5.484-20.32-3.656-4.97-8.672-7.46-15.047-7.46-7.875 0-13.781 3.5-17.719 10.48v36.35c3.891 6.94 9.844 10.41 17.86 10.41 6.234 0 11.179-2.46 14.836-7.38 3.703-4.97 5.554-12.33 5.554-22.08zm76.571 38.67c-.75-1.5-1.36-4.17-1.829-8.02-6.046 6.29-13.265 9.43-21.656 9.43-7.5 0-13.664-2.11-18.492-6.33-4.781-4.27-7.172-9.66-7.172-16.17 0-7.93 3-14.07 9-18.43 6.047-4.4 14.531-6.6 25.453-6.6h12.657v-5.98c0-4.55-1.36-8.16-4.079-10.83-2.718-2.72-6.726-4.08-12.023-4.08-4.641 0-8.531 1.17-11.672 3.52-3.14 2.34-4.711 5.18-4.711 8.51h-13.078c0-3.8 1.336-7.46 4.008-10.97 2.719-3.57 6.375-6.38 10.969-8.44 4.64-2.06 9.726-3.09 15.257-3.09 8.766 0 15.633 2.2 20.602 6.6 4.969 4.36 7.547 10.39 7.734 18.08v35.01c0 6.99.891 12.54 2.672 16.67v1.12h-13.64zm-21.586-9.91c4.078 0 7.945-1.06 11.601-3.17 3.656-2.11 6.305-4.85 7.946-8.22v-15.61h-10.196c-15.937 0-23.906 4.66-23.906 13.99 0 4.08 1.359 7.26 4.078 9.56 2.719 2.3 6.211 3.45 10.477 3.45zm83.465.7c4.64 0 8.69-1.41 12.16-4.22 3.47-2.81 5.39-6.33 5.77-10.55h12.3c-.23 4.36-1.73 8.51-4.5 12.45-2.77 3.94-6.47 7.08-11.11 9.42-4.59 2.34-9.47 3.52-14.62 3.52-10.36 0-18.61-3.45-24.75-10.34-6.1-6.94-9.14-16.41-9.14-28.41v-2.18c0-7.4 1.35-13.99 4.07-19.75 2.72-5.77 6.61-10.25 11.67-13.43 5.11-3.19 11.14-4.78 18.08-4.78 8.53 0 15.6 2.55 21.23 7.66 5.67 5.11 8.69 11.74 9.07 19.9h-12.3c-.38-4.92-2.25-8.96-5.63-12.1-3.33-3.18-7.45-4.78-12.37-4.78-6.61 0-11.75 2.39-15.4 7.18-3.61 4.73-5.42 11.6-5.42 20.6v2.46c0 8.76 1.81 15.51 5.42 20.25 3.61 4.73 8.76 7.1 15.47 7.1zm58.99 9.21h-13.01v-76.08h13.01V1658zm-14.06-96.26c0-2.11.63-3.89 1.89-5.34 1.32-1.45 3.24-2.18 5.77-2.18 2.53 0 4.45.73 5.76 2.18 1.32 1.45 1.97 3.23 1.97 5.34s-.65 3.87-1.97 5.28c-1.31 1.4-3.23 2.1-5.76 2.1s-4.45-.7-5.77-2.1c-1.26-1.41-1.89-3.17-1.89-5.28zm31.5 57.52c0-7.46 1.45-14.16 4.35-20.11 2.96-5.95 7.04-10.55 12.24-13.78 5.25-3.24 11.23-4.85 17.93-4.85 10.36 0 18.73 3.58 25.1 10.75 6.42 7.18 9.63 16.71 9.63 28.62v.91c0 7.41-1.43 14.07-4.29 19.97-2.81 5.86-6.86 10.43-12.16 13.71-5.25 3.29-11.3 4.93-18.14 4.93-10.31 0-18.68-3.59-25.1-10.76-6.38-7.17-9.56-16.67-9.56-28.48v-.91zm13.07 1.54c0 8.44 1.95 15.22 5.84 20.32 3.94 5.11 9.19 7.67 15.75 7.67 6.61 0 11.86-2.58 15.75-7.74 3.89-5.2 5.84-12.46 5.84-21.79 0-8.35-2-15.1-5.98-20.25-3.94-5.21-9.19-7.81-15.75-7.81-6.42 0-11.6 2.56-15.54 7.67-3.94 5.11-5.91 12.42-5.91 21.93zm105.05-1.47c0-11.67 2.77-21.05 8.3-28.13 5.53-7.12 12.77-10.68 21.72-10.68 8.91 0 15.96 3.04 21.17 9.14V1550h13.01v108h-11.96l-.63-8.16c-5.2 6.38-12.45 9.57-21.73 9.57-8.81 0-16-3.61-21.58-10.83-5.53-7.22-8.3-16.64-8.3-28.27v-.98zm13.01 1.47c0 8.63 1.78 15.38 5.34 20.25 3.56 4.88 8.49 7.32 14.77 7.32 8.25 0 14.27-3.71 18.07-11.11v-34.95c-3.89-7.17-9.87-10.76-17.93-10.76-6.38 0-11.35 2.47-14.91 7.39-3.56 4.92-5.34 12.21-5.34 21.86zm85.57 37.2h-13.01v-76.08h13.01V1658zm-14.06-96.26c0-2.11.63-3.89 1.89-5.34 1.32-1.45 3.24-2.18 5.77-2.18 2.53 0 4.45.73 5.77 2.18 1.31 1.45 1.96 3.23 1.96 5.34s-.65 3.87-1.96 5.28c-1.32 1.4-3.24 2.1-5.77 2.1-2.53 0-4.45-.7-5.77-2.1-1.26-1.41-1.89-3.17-1.89-5.28zm79.24 76.08c0-3.52-1.34-6.23-4.01-8.16-2.62-1.96-7.24-3.65-13.85-5.06-6.56-1.4-11.79-3.09-15.68-5.06-3.84-1.97-6.7-4.31-8.58-7.03-1.83-2.72-2.74-5.96-2.74-9.71 0-6.23 2.62-11.5 7.87-15.82 5.3-4.31 12.05-6.46 20.25-6.46 8.63 0 15.61 2.22 20.96 6.68 5.39 4.45 8.08 10.14 8.08 17.08h-13.08c0-3.56-1.52-6.63-4.57-9.21-3-2.58-6.79-3.87-11.39-3.87-4.73 0-8.43 1.03-11.11 3.1-2.67 2.06-4 4.75-4 8.08 0 3.14 1.24 5.51 3.72 7.1 2.49 1.6 6.96 3.12 13.43 4.57 6.52 1.46 11.79 3.19 15.82 5.21 4.03 2.01 7.01 4.45 8.93 7.31 1.97 2.81 2.96 6.26 2.96 10.34 0 6.79-2.72 12.25-8.16 16.38-5.44 4.08-12.49 6.12-21.16 6.12-6.1 0-11.49-1.08-16.18-3.24-4.68-2.15-8.36-5.15-11.04-9-2.62-3.89-3.93-8.08-3.93-12.58h13c.24 4.36 1.97 7.82 5.21 10.4 3.28 2.53 7.59 3.8 12.94 3.8 4.92 0 8.85-.99 11.81-2.95 3-2.02 4.5-4.69 4.5-8.02zm94.22-17.02c0 11.58-2.65 20.91-7.95 27.99-5.3 7.08-12.47 10.62-21.51 10.62-9.24 0-16.5-2.93-21.8-8.79v36.63h-13.01v-105.33h11.88l.64 8.44c5.29-6.56 12.65-9.84 22.07-9.84 9.15 0 16.36 3.44 21.66 10.33 5.34 6.89 8.02 16.48 8.02 28.76v1.19zm-13.01-1.47c0-8.58-1.83-15.35-5.49-20.32-3.65-4.97-8.67-7.46-15.04-7.46-7.88 0-13.78 3.5-17.72 10.48v36.35c3.89 6.94 9.84 10.41 17.86 10.41 6.23 0 11.18-2.46 14.83-7.38 3.71-4.97 5.56-12.33 5.56-22.08zm26.16-.07c0-7.46 1.45-14.16 4.35-20.11 2.96-5.95 7.04-10.55 12.24-13.78 5.25-3.24 11.23-4.85 17.93-4.85 10.36 0 18.73 3.58 25.1 10.75 6.42 7.18 9.63 16.71 9.63 28.62v.91c0 7.41-1.43 14.07-4.29 19.97-2.81 5.86-6.86 10.43-12.16 13.71-5.25 3.29-11.3 4.93-18.14 4.93-10.31 0-18.68-3.59-25.1-10.76-6.38-7.17-9.56-16.67-9.56-28.48v-.91zm13.07 1.54c0 8.44 1.95 15.22 5.84 20.32 3.94 5.11 9.19 7.67 15.75 7.67 6.61 0 11.86-2.58 15.75-7.74 3.89-5.2 5.84-12.46 5.84-21.79 0-8.35-2-15.1-5.98-20.25-3.94-5.21-9.19-7.81-15.75-7.81-6.42 0-11.6 2.56-15.54 7.67-3.94 5.11-5.91 12.42-5.91 21.93zm84.8-38.88l.42 9.56c5.81-7.31 13.41-10.96 22.78-10.96 16.08 0 24.19 9.07 24.33 27.21V1658h-13.01v-50.34c-.04-5.49-1.31-9.54-3.79-12.17-2.44-2.62-6.26-3.94-11.46-3.94-4.22 0-7.93 1.13-11.11 3.38-3.19 2.25-5.68 5.2-7.46 8.86V1658h-13v-76.08h12.3zm81.28 76.08h-13.01v-76.08h13.01V1658zm-14.06-96.26c0-2.11.63-3.89 1.9-5.34 1.31-1.45 3.23-2.18 5.76-2.18s4.46.73 5.77 2.18c1.31 1.45 1.97 3.23 1.97 5.34s-.66 3.87-1.97 5.28c-1.31 1.4-3.24 2.1-5.77 2.1-2.53 0-4.45-.7-5.76-2.1-1.27-1.41-1.9-3.17-1.9-5.28zm99.35 59.06c0 11.63-2.67 20.98-8.01 28.06-5.35 7.03-12.52 10.55-21.52 10.55-9.61 0-17.04-3.4-22.29-10.2l-.63 8.79h-11.96v-108h13.01v40.29c5.25-6.52 12.49-9.77 21.73-9.77 9.23 0 16.48 3.49 21.73 10.47 5.29 6.99 7.94 16.55 7.94 28.69v1.12zm-13.01-1.47c0-8.86-1.71-15.71-5.13-20.53-3.42-4.83-8.34-7.25-14.77-7.25-8.57 0-14.74 3.99-18.49 11.96v32.9c3.99 7.97 10.2 11.96 18.63 11.96 6.24 0 11.09-2.42 14.56-7.25 3.47-4.82 5.2-12.09 5.2-21.79zm43.6 38.67h-13.01v-108h13.01v108zm52.45 1.41c-10.31 0-18.7-3.38-25.17-10.13-6.47-6.8-9.71-15.87-9.71-27.21v-2.39c0-7.55 1.43-14.27 4.29-20.18 2.91-5.95 6.94-10.59 12.1-13.92 5.2-3.38 10.83-5.06 16.87-5.06 9.89 0 17.58 3.25 23.07 9.77 5.48 6.51 8.22 15.84 8.22 27.98v5.42h-51.54c.19 7.5 2.37 13.57 6.54 18.21 4.22 4.59 9.56 6.89 16.03 6.89 4.6 0 8.49-.94 11.67-2.81 3.19-1.88 5.98-4.36 8.37-7.46l7.95 6.19c-6.38 9.8-15.94 14.7-28.69 14.7zm-1.62-68.21c-5.25 0-9.65 1.92-13.22 5.77-3.56 3.8-5.76 9.14-6.61 16.03h38.11v-.98c-.37-6.61-2.15-11.72-5.34-15.33-3.19-3.66-7.5-5.49-12.94-5.49zM750.375 1843.68h-44.367v36.28h51.539V1891h-65.039v-102.38h64.336v11.11h-50.836v32.91h44.367v11.04zm66.234 27.14c0-3.52-1.336-6.23-4.007-8.16-2.625-1.96-7.243-3.65-13.852-5.06-6.562-1.4-11.789-3.09-15.68-5.06-3.843-1.97-6.703-4.31-8.578-7.03-1.828-2.72-2.742-5.96-2.742-9.71 0-6.23 2.625-11.5 7.875-15.82 5.297-4.31 12.047-6.46 20.25-6.46 8.625 0 15.609 2.22 20.953 6.68 5.391 4.45 8.086 10.14 8.086 17.08h-13.078c0-3.56-1.524-6.63-4.57-9.21-3-2.58-6.797-3.87-11.391-3.87-4.734 0-8.437 1.03-11.109 3.1-2.672 2.06-4.008 4.75-4.008 8.08 0 3.14 1.242 5.51 3.726 7.1 2.485 1.6 6.961 3.12 13.43 4.57 6.516 1.46 11.789 3.19 15.82 5.21 4.032 2.01 7.008 4.45 8.93 7.31 1.969 2.81 2.953 6.26 2.953 10.34 0 6.79-2.719 12.25-8.156 16.38-5.438 4.08-12.492 6.12-21.164 6.12-6.094 0-11.485-1.08-16.172-3.24-4.687-2.15-8.367-5.15-11.039-9-2.625-3.89-3.938-8.08-3.938-12.58h13.008c.235 4.36 1.969 7.82 5.203 10.4 3.282 2.53 7.594 3.8 12.938 3.8 4.922 0 8.859-.99 11.812-2.95 3-2.02 4.5-4.69 4.5-8.02zm94.219-17.02c0 11.58-2.648 20.91-7.945 27.99-5.297 7.08-12.469 10.62-21.516 10.62-9.234 0-16.5-2.93-21.797-8.79v36.63h-13.008v-105.33h11.883l.633 8.44c5.297-6.56 12.656-9.84 22.078-9.84 9.141 0 16.36 3.44 21.656 10.33 5.344 6.89 8.016 16.48 8.016 28.76v1.19zm-13.008-1.47c0-8.58-1.828-15.35-5.484-20.32-3.656-4.97-8.672-7.46-15.047-7.46-7.875 0-13.781 3.5-17.719 10.48v36.35c3.891 6.94 9.844 10.41 17.86 10.41 6.234 0 11.179-2.46 14.836-7.38 3.703-4.97 5.554-12.33 5.554-22.08zm76.571 38.67c-.75-1.5-1.36-4.17-1.829-8.02-6.046 6.29-13.265 9.43-21.656 9.43-7.5 0-13.664-2.11-18.492-6.33-4.781-4.27-7.172-9.66-7.172-16.17 0-7.93 3-14.07 9-18.43 6.047-4.4 14.531-6.6 25.453-6.6h12.657v-5.98c0-4.55-1.36-8.16-4.079-10.83-2.718-2.72-6.726-4.08-12.023-4.08-4.641 0-8.531 1.17-11.672 3.52-3.14 2.34-4.711 5.18-4.711 8.51h-13.078c0-3.8 1.336-7.46 4.008-10.97 2.719-3.57 6.375-6.38 10.969-8.44 4.64-2.06 9.726-3.09 15.257-3.09 8.766 0 15.633 2.2 20.602 6.6 4.969 4.36 7.547 10.39 7.734 18.08v35.01c0 6.99.891 12.54 2.672 16.67v1.12h-13.64zm-21.586-9.91c4.078 0 7.945-1.06 11.601-3.17 3.656-2.11 6.305-4.85 7.946-8.22v-15.61h-10.196c-15.937 0-23.906 4.66-23.906 13.99 0 4.08 1.359 7.26 4.078 9.56 2.719 2.3 6.211 3.45 10.477 3.45zm83.465.7c4.64 0 8.69-1.41 12.16-4.22 3.47-2.81 5.39-6.33 5.77-10.55h12.3c-.23 4.36-1.73 8.51-4.5 12.45-2.77 3.94-6.47 7.08-11.11 9.42-4.59 2.34-9.47 3.52-14.62 3.52-10.36 0-18.61-3.45-24.75-10.34-6.1-6.94-9.14-16.41-9.14-28.41v-2.18c0-7.4 1.35-13.99 4.07-19.75 2.72-5.77 6.61-10.25 11.67-13.43 5.11-3.19 11.14-4.78 18.08-4.78 8.53 0 15.6 2.55 21.23 7.66 5.67 5.11 8.69 11.74 9.07 19.9h-12.3c-.38-4.92-2.25-8.96-5.63-12.1-3.33-3.18-7.45-4.78-12.37-4.78-6.61 0-11.75 2.39-15.4 7.18-3.61 4.73-5.42 11.6-5.42 20.6v2.46c0 8.76 1.81 15.51 5.42 20.25 3.61 4.73 8.76 7.1 15.47 7.1zm58.99 9.21h-13.01v-76.08h13.01V1891zm-14.06-96.26c0-2.11.63-3.89 1.89-5.34 1.32-1.45 3.24-2.18 5.77-2.18 2.53 0 4.45.73 5.76 2.18 1.32 1.45 1.97 3.23 1.97 5.34s-.65 3.87-1.97 5.28c-1.31 1.4-3.23 2.1-5.76 2.1s-4.45-.7-5.77-2.1c-1.26-1.41-1.89-3.17-1.89-5.28zm31.5 57.52c0-7.46 1.45-14.16 4.35-20.11 2.96-5.95 7.04-10.55 12.24-13.78 5.25-3.24 11.23-4.85 17.93-4.85 10.36 0 18.73 3.58 25.1 10.75 6.42 7.18 9.63 16.71 9.63 28.62v.91c0 7.41-1.43 14.07-4.29 19.97-2.81 5.86-6.86 10.43-12.16 13.71-5.25 3.29-11.3 4.93-18.14 4.93-10.31 0-18.68-3.59-25.1-10.76-6.38-7.17-9.56-16.67-9.56-28.48v-.91zm13.07 1.54c0 8.44 1.95 15.22 5.84 20.32 3.94 5.11 9.19 7.67 15.75 7.67 6.61 0 11.86-2.58 15.75-7.74 3.89-5.2 5.84-12.46 5.84-21.79 0-8.35-2-15.1-5.98-20.25-3.94-5.21-9.19-7.81-15.75-7.81-6.42 0-11.6 2.56-15.54 7.67-3.94 5.11-5.91 12.42-5.91 21.93zm105.05-1.47c0-11.67 2.77-21.05 8.3-28.13 5.53-7.12 12.77-10.68 21.72-10.68 8.91 0 15.96 3.04 21.17 9.14V1783h13.01v108h-11.96l-.63-8.16c-5.2 6.38-12.45 9.57-21.73 9.57-8.81 0-16-3.61-21.58-10.83-5.53-7.22-8.3-16.64-8.3-28.27v-.98zm13.01 1.47c0 8.63 1.78 15.38 5.34 20.25 3.56 4.88 8.49 7.32 14.77 7.32 8.25 0 14.27-3.71 18.07-11.11v-34.95c-3.89-7.17-9.87-10.76-17.93-10.76-6.38 0-11.35 2.47-14.91 7.39-3.56 4.92-5.34 12.21-5.34 21.86zm85.57 37.2h-13.01v-76.08h13.01V1891zm-14.06-96.26c0-2.11.63-3.89 1.89-5.34 1.32-1.45 3.24-2.18 5.77-2.18 2.53 0 4.45.73 5.77 2.18 1.31 1.45 1.96 3.23 1.96 5.34s-.65 3.87-1.96 5.28c-1.32 1.4-3.24 2.1-5.77 2.1-2.53 0-4.45-.7-5.77-2.1-1.26-1.41-1.89-3.17-1.89-5.28zm79.24 76.08c0-3.52-1.34-6.23-4.01-8.16-2.62-1.96-7.24-3.65-13.85-5.06-6.56-1.4-11.79-3.09-15.68-5.06-3.84-1.97-6.7-4.31-8.58-7.03-1.83-2.72-2.74-5.96-2.74-9.71 0-6.23 2.62-11.5 7.87-15.82 5.3-4.31 12.05-6.46 20.25-6.46 8.63 0 15.61 2.22 20.96 6.68 5.39 4.45 8.08 10.14 8.08 17.08h-13.08c0-3.56-1.52-6.63-4.57-9.21-3-2.58-6.79-3.87-11.39-3.87-4.73 0-8.43 1.03-11.11 3.1-2.67 2.06-4 4.75-4 8.08 0 3.14 1.24 5.51 3.72 7.1 2.49 1.6 6.96 3.12 13.43 4.57 6.52 1.46 11.79 3.19 15.82 5.21 4.03 2.01 7.01 4.45 8.93 7.31 1.97 2.81 2.96 6.26 2.96 10.34 0 6.79-2.72 12.25-8.16 16.38-5.44 4.08-12.49 6.12-21.16 6.12-6.1 0-11.49-1.08-16.18-3.24-4.68-2.15-8.36-5.15-11.04-9-2.62-3.89-3.93-8.08-3.93-12.58h13c.24 4.36 1.97 7.82 5.21 10.4 3.28 2.53 7.59 3.8 12.94 3.8 4.92 0 8.85-.99 11.81-2.95 3-2.02 4.5-4.69 4.5-8.02zm94.22-17.02c0 11.58-2.65 20.91-7.95 27.99-5.3 7.08-12.47 10.62-21.51 10.62-9.24 0-16.5-2.93-21.8-8.79v36.63h-13.01v-105.33h11.88l.64 8.44c5.29-6.56 12.65-9.84 22.07-9.84 9.15 0 16.36 3.44 21.66 10.33 5.34 6.89 8.02 16.48 8.02 28.76v1.19zm-13.01-1.47c0-8.58-1.83-15.35-5.49-20.32-3.65-4.97-8.67-7.46-15.04-7.46-7.88 0-13.78 3.5-17.72 10.48v36.35c3.89 6.94 9.84 10.41 17.86 10.41 6.23 0 11.18-2.46 14.83-7.38 3.71-4.97 5.56-12.33 5.56-22.08zm26.16-.07c0-7.46 1.45-14.16 4.35-20.11 2.96-5.95 7.04-10.55 12.24-13.78 5.25-3.24 11.23-4.85 17.93-4.85 10.36 0 18.73 3.58 25.1 10.75 6.42 7.18 9.63 16.71 9.63 28.62v.91c0 7.41-1.43 14.07-4.29 19.97-2.81 5.86-6.86 10.43-12.16 13.71-5.25 3.29-11.3 4.93-18.14 4.93-10.31 0-18.68-3.59-25.1-10.76-6.38-7.17-9.56-16.67-9.56-28.48v-.91zm13.07 1.54c0 8.44 1.95 15.22 5.84 20.32 3.94 5.11 9.19 7.67 15.75 7.67 6.61 0 11.86-2.58 15.75-7.74 3.89-5.2 5.84-12.46 5.84-21.79 0-8.35-2-15.1-5.98-20.25-3.94-5.21-9.19-7.81-15.75-7.81-6.42 0-11.6 2.56-15.54 7.67-3.94 5.11-5.91 12.42-5.91 21.93zm84.8-38.88l.42 9.56c5.81-7.31 13.41-10.96 22.78-10.96 16.08 0 24.19 9.07 24.33 27.21V1891h-13.01v-50.34c-.04-5.49-1.31-9.54-3.79-12.17-2.44-2.62-6.26-3.94-11.46-3.94-4.22 0-7.93 1.13-11.11 3.38-3.19 2.25-5.68 5.2-7.46 8.86V1891h-13v-76.08h12.3zm81.28 76.08h-13.01v-76.08h13.01V1891zm-14.06-96.26c0-2.11.63-3.89 1.9-5.34 1.31-1.45 3.23-2.18 5.76-2.18s4.46.73 5.77 2.18c1.31 1.45 1.97 3.23 1.97 5.34s-.66 3.87-1.97 5.28c-1.31 1.4-3.24 2.1-5.77 2.1-2.53 0-4.45-.7-5.76-2.1-1.27-1.41-1.9-3.17-1.9-5.28zm99.35 59.06c0 11.63-2.67 20.98-8.01 28.06-5.35 7.03-12.52 10.55-21.52 10.55-9.61 0-17.04-3.4-22.29-10.2l-.63 8.79h-11.96v-108h13.01v40.29c5.25-6.52 12.49-9.77 21.73-9.77 9.23 0 16.48 3.49 21.73 10.47 5.29 6.99 7.94 16.55 7.94 28.69v1.12zm-13.01-1.47c0-8.86-1.71-15.71-5.13-20.53-3.42-4.83-8.34-7.25-14.77-7.25-8.57 0-14.74 3.99-18.49 11.96v32.9c3.99 7.97 10.2 11.96 18.63 11.96 6.24 0 11.09-2.42 14.56-7.25 3.47-4.82 5.2-12.09 5.2-21.79zm43.6 38.67h-13.01v-108h13.01v108zm52.45 1.41c-10.31 0-18.7-3.38-25.17-10.13-6.47-6.8-9.71-15.87-9.71-27.21v-2.39c0-7.55 1.43-14.27 4.29-20.18 2.91-5.95 6.94-10.59 12.1-13.92 5.2-3.38 10.83-5.06 16.87-5.06 9.89 0 17.58 3.25 23.07 9.77 5.48 6.51 8.22 15.84 8.22 27.98v5.42h-51.54c.19 7.5 2.37 13.57 6.54 18.21 4.22 4.59 9.56 6.89 16.03 6.89 4.6 0 8.49-.94 11.67-2.81 3.19-1.88 5.98-4.36 8.37-7.46l7.95 6.19c-6.38 9.8-15.94 14.7-28.69 14.7zm-1.62-68.21c-5.25 0-9.65 1.92-13.22 5.77-3.56 3.8-5.76 9.14-6.61 16.03h38.11v-.98c-.37-6.61-2.15-11.72-5.34-15.33-3.19-3.66-7.5-5.49-12.94-5.49z"/>
  <path fill="#C4C4C4" d="M2285 839h879v291h-879z"/>
  <path fill="#000" d="M2552.02 1023h-13.5V920.625h13.5V1023zm35.02-76.078l.42 9.562c5.81-7.312 13.41-10.968 22.78-10.968 16.08 0 24.19 9.07 24.33 27.211V1023h-13.01v-50.344c-.04-5.484-1.31-9.539-3.79-12.164-2.44-2.625-6.26-3.937-11.47-3.937-4.21 0-7.92 1.125-11.1 3.375-3.19 2.25-5.68 5.203-7.46 8.859V1023h-13.01v-76.078h12.31zm92.25 58.428l18.84-58.428h13.29L2684.14 1023h-9.91l-27.57-76.078h13.29l19.34 58.428zm58.78 17.65h-13.01v-76.078h13.01V1023zm-14.06-96.258c0-2.109.63-3.89 1.9-5.344 1.31-1.453 3.23-2.179 5.76-2.179s4.45.726 5.77 2.179c1.31 1.454 1.97 3.235 1.97 5.344 0 2.11-.66 3.867-1.97 5.274-1.32 1.406-3.24 2.109-5.77 2.109-2.53 0-4.45-.703-5.76-2.109-1.27-1.407-1.9-3.164-1.9-5.274zm52.59 1.758v18.422h14.2v10.055h-14.2v47.183c0 3.04.63 5.34 1.9 6.89 1.27 1.5 3.42 2.25 6.47 2.25 1.5 0 3.56-.28 6.19-.85V1023c-3.43.94-6.75 1.41-9.99 1.41-5.81 0-10.19-1.76-13.15-5.28-2.95-3.51-4.43-8.51-4.43-14.97v-47.183h-13.85v-10.055h13.85V928.5h13.01zm76.43 94.5c-.75-1.5-1.36-4.17-1.83-8.02-6.04 6.29-13.26 9.43-21.65 9.43-7.5 0-13.67-2.11-18.5-6.33-4.78-4.27-7.17-9.66-7.17-16.17 0-7.926 3-14.066 9-18.426 6.05-4.406 14.53-6.609 25.46-6.609h12.65v-5.977c0-4.546-1.36-8.156-4.08-10.828-2.71-2.718-6.72-4.078-12.02-4.078-4.64 0-8.53 1.172-11.67 3.516-3.14 2.344-4.71 5.18-4.71 8.508h-13.08c0-3.797 1.34-7.454 4.01-10.969 2.72-3.563 6.37-6.375 10.97-8.438 4.64-2.062 9.72-3.093 15.25-3.093 8.77 0 15.64 2.203 20.61 6.609 4.96 4.359 7.54 10.383 7.73 18.07v35.015c0 6.99.89 12.54 2.67 16.67v1.12h-13.64zm-21.58-9.91c4.07 0 7.94-1.06 11.6-3.17 3.65-2.11 6.3-4.85 7.94-8.22v-15.614h-10.19c-15.94 0-23.91 4.664-23.91 13.994 0 4.08 1.36 7.26 4.08 9.56 2.72 2.3 6.21 3.45 10.48 3.45zm89.71-54.496c-1.96-.328-4.1-.492-6.39-.492-8.54 0-14.32 3.632-17.37 10.898v54h-13.01v-76.078h12.66l.21 8.789c4.26-6.797 10.31-10.195 18.14-10.195 2.53 0 4.45.328 5.76.984v12.094z"/>
  <path fill="#C4C4C4" d="M2285 1281h879v464h-879z"/>
  <path fill="#F40707" d="M2555.76 1441h-13.5v-102.38h13.5V1441zm35.01-76.08l.43 9.56c5.81-7.31 13.4-10.96 22.78-10.96 16.07 0 24.18 9.07 24.32 27.21V1441h-13v-50.34c-.05-5.49-1.32-9.54-3.8-12.17-2.44-2.62-6.26-3.94-11.46-3.94-4.22 0-7.92 1.13-11.11 3.38-3.19 2.25-5.67 5.2-7.45 8.86V1441h-13.01v-76.08h12.3zm81.28 76.08h-13v-76.08h13V1441zm-14.06-96.26c0-2.11.63-3.89 1.9-5.34 1.31-1.45 3.23-2.18 5.77-2.18 2.53 0 4.45.73 5.76 2.18 1.31 1.45 1.97 3.23 1.97 5.34s-.66 3.87-1.97 5.28c-1.31 1.4-3.23 2.1-5.76 2.1-2.54 0-4.46-.7-5.77-2.1-1.27-1.41-1.9-3.17-1.9-5.28zm65.46 87.05c4.64 0 8.7-1.41 12.17-4.22 3.47-2.81 5.39-6.33 5.76-10.55h12.31c-.24 4.36-1.74 8.51-4.5 12.45-2.77 3.94-6.47 7.08-11.11 9.42-4.6 2.34-9.47 3.52-14.63 3.52-10.36 0-18.61-3.45-24.75-10.34-6.09-6.94-9.14-16.41-9.14-28.41v-2.18c0-7.4 1.36-13.99 4.08-19.75 2.72-5.77 6.61-10.25 11.67-13.43 5.11-3.19 11.14-4.78 18.07-4.78 8.53 0 15.61 2.55 21.24 7.66 5.67 5.11 8.69 11.74 9.07 19.9h-12.31c-.37-4.92-2.25-8.96-5.62-12.1-3.33-3.18-7.46-4.78-12.38-4.78-6.61 0-11.74 2.39-15.4 7.18-3.6 4.73-5.41 11.6-5.41 20.6v2.46c0 8.76 1.81 15.51 5.41 20.25 3.61 4.73 8.77 7.1 15.47 7.1zm59 9.21h-13.01v-76.08h13.01V1441zm-14.07-96.26c0-2.11.64-3.89 1.9-5.34 1.31-1.45 3.24-2.18 5.77-2.18 2.53 0 4.45.73 5.76 2.18 1.31 1.45 1.97 3.23 1.97 5.34s-.66 3.87-1.97 5.28c-1.31 1.4-3.23 2.1-5.76 2.1s-4.46-.7-5.77-2.1c-1.26-1.41-1.9-3.17-1.9-5.28zm81.92 96.26c-.75-1.5-1.36-4.17-1.83-8.02-6.05 6.29-13.27 9.43-21.66 9.43-7.5 0-13.66-2.11-18.49-6.33-4.78-4.27-7.17-9.66-7.17-16.17 0-7.93 3-14.07 9-18.43 6.05-4.4 14.53-6.6 25.45-6.6h12.66v-5.98c0-4.55-1.36-8.16-4.08-10.83-2.72-2.72-6.73-4.08-12.02-4.08-4.64 0-8.54 1.17-11.68 3.52-3.14 2.34-4.71 5.18-4.71 8.51h-13.07c0-3.8 1.33-7.46 4-10.97 2.72-3.57 6.38-6.38 10.97-8.44 4.64-2.06 9.73-3.09 15.26-3.09 8.77 0 15.63 2.2 20.6 6.6 4.97 4.36 7.55 10.39 7.74 18.08v35.01c0 6.99.89 12.54 2.67 16.67v1.12h-13.64zm-21.59-9.91c4.08 0 7.95-1.06 11.6-3.17 3.66-2.11 6.31-4.85 7.95-8.22v-15.61h-10.2c-15.94 0-23.9 4.66-23.9 13.99 0 4.08 1.36 7.26 4.07 9.56 2.72 2.3 6.22 3.45 10.48 3.45zm89.72-54.5c-1.97-.32-4.1-.49-6.4-.49-8.53 0-14.32 3.63-17.37 10.9v54h-13v-76.08h12.65l.21 8.79c4.27-6.8 10.32-10.19 18.14-10.19 2.54 0 4.46.32 5.77.98v12.09zm-345.94 196.21c0 11.58-2.65 20.91-7.94 27.99-5.3 7.08-12.47 10.62-21.52 10.62-9.23 0-16.5-2.93-21.8-8.79v36.63h-13v-105.33h11.88l.63 8.44c5.3-6.56 12.66-9.84 22.08-9.84 9.14 0 16.36 3.44 21.66 10.33 5.34 6.89 8.01 16.48 8.01 28.76v1.19zm-13.01-1.47c0-8.58-1.82-15.35-5.48-20.32-3.66-4.97-8.67-7.46-15.05-7.46-7.87 0-13.78 3.5-17.72 10.48v36.35c3.89 6.94 9.85 10.41 17.86 10.41 6.24 0 11.18-2.46 14.84-7.38 3.7-4.97 5.55-12.33 5.55-22.08zm76.57 38.67c-.75-1.5-1.35-4.17-1.82-8.02-6.05 6.29-13.27 9.43-21.66 9.43-7.5 0-13.66-2.11-18.49-6.33-4.78-4.27-7.17-9.66-7.17-16.17 0-7.93 3-14.07 9-18.43 6.04-4.4 14.53-6.6 25.45-6.6h12.66v-5.98c0-4.55-1.36-8.16-4.08-10.83-2.72-2.72-6.73-4.08-12.03-4.08-4.64 0-8.53 1.17-11.67 3.52-3.14 2.34-4.71 5.18-4.71 8.51h-13.08c0-3.8 1.34-7.46 4.01-10.97 2.72-3.57 6.38-6.38 10.97-8.44 4.64-2.06 9.73-3.09 15.26-3.09 8.76 0 15.63 2.2 20.6 6.6 4.97 4.36 7.55 10.39 7.73 18.08v35.01c0 6.99.89 12.54 2.68 16.67v1.12h-13.65zm-21.58-9.91c4.08 0 7.94-1.06 11.6-3.17 3.66-2.11 6.31-4.85 7.95-8.22v-15.61h-10.2c-15.94 0-23.91 4.66-23.91 13.99 0 4.08 1.36 7.26 4.08 9.56 2.72 2.3 6.21 3.45 10.48 3.45zm89.72-54.5c-1.97-.32-4.1-.49-6.4-.49-8.53 0-14.32 3.63-17.37 10.9v54h-13.01v-76.08h12.66l.21 8.79c4.27-6.8 10.31-10.19 18.14-10.19 2.53 0 4.46.32 5.77.98v12.09zm33.19-30.09v18.42h14.2v10.06h-14.2v47.18c0 3.04.63 5.34 1.89 6.89 1.27 1.5 3.43 2.25 6.47 2.25 1.5 0 3.56-.28 6.19-.85V1610c-3.42.94-6.75 1.41-9.98 1.41-5.82 0-10.2-1.76-13.15-5.28-2.96-3.51-4.43-8.51-4.43-14.97v-47.18h-13.85v-10.06h13.85v-18.42h13.01zm43.59 94.5h-13.01v-76.08h13.01V1610zm-14.06-96.26c0-2.11.63-3.89 1.89-5.34 1.32-1.45 3.24-2.18 5.77-2.18 2.53 0 4.45.73 5.77 2.18 1.31 1.45 1.96 3.23 1.96 5.34s-.65 3.87-1.96 5.28c-1.32 1.4-3.24 2.1-5.77 2.1-2.53 0-4.45-.7-5.77-2.1-1.26-1.41-1.89-3.17-1.89-5.28zm31.78 57.59c0-11.67 2.76-21.05 8.29-28.13 5.54-7.12 12.78-10.68 21.73-10.68 8.91 0 15.96 3.04 21.17 9.14V1502h13v108h-11.95l-.63-8.16c-5.21 6.38-12.45 9.57-21.73 9.57-8.81 0-16.01-3.61-21.59-10.83-5.53-7.22-8.29-16.64-8.29-28.27v-.98zm13.01 1.47c0 8.63 1.78 15.38 5.34 20.25 3.56 4.88 8.48 7.32 14.76 7.32 8.25 0 14.28-3.71 18.08-11.11v-34.95c-3.9-7.17-9.87-10.76-17.93-10.76-6.38 0-11.35 2.47-14.91 7.39-3.56 4.92-5.34 12.21-5.34 21.86zm118.4 37.2c-.75-1.5-1.36-4.17-1.83-8.02-6.04 6.29-13.26 9.43-21.65 9.43-7.5 0-13.67-2.11-18.5-6.33-4.78-4.27-7.17-9.66-7.17-16.17 0-7.93 3-14.07 9-18.43 6.05-4.4 14.53-6.6 25.46-6.6h12.65v-5.98c0-4.55-1.36-8.16-4.08-10.83-2.71-2.72-6.72-4.08-12.02-4.08-4.64 0-8.53 1.17-11.67 3.52-3.14 2.34-4.71 5.18-4.71 8.51h-13.08c0-3.8 1.34-7.46 4.01-10.97 2.72-3.57 6.37-6.38 10.97-8.44 4.64-2.06 9.72-3.09 15.25-3.09 8.77 0 15.64 2.2 20.61 6.6 4.96 4.36 7.54 10.39 7.73 18.08v35.01c0 6.99.89 12.54 2.67 16.67v1.12h-13.64zm-21.58-9.91c4.07 0 7.94-1.06 11.6-3.17 3.65-2.11 6.3-4.85 7.94-8.22v-15.61h-10.19c-15.94 0-23.91 4.66-23.91 13.99 0 4.08 1.36 7.26 4.08 9.56 2.72 2.3 6.21 3.45 10.48 3.45zM2374.8 1822.16c-4.02-1.16-6.95-2.58-8.78-4.25-1.83-1.7-2.74-3.78-2.74-6.25 0-2.8 1.12-5.11 3.35-6.94 2.24-1.84 5.16-2.76 8.74-2.76 2.44 0 4.61.48 6.51 1.42 1.93.94 3.41 2.25 4.45 3.91a9.902 9.902 0 011.59 5.44h-4.72c0-2.15-.68-3.83-2.05-5.05-1.36-1.24-3.29-1.86-5.78-1.86-2.31 0-4.12.51-5.42 1.54-1.29 1.01-1.93 2.42-1.93 4.22 0 1.45.61 2.68 1.83 3.69 1.24.99 3.33 1.9 6.27 2.73 2.97.83 5.28 1.75 6.94 2.76 1.67 1 2.91 2.16 3.71 3.49.81 1.34 1.22 2.91 1.22 4.72 0 2.88-1.12 5.19-3.37 6.93-2.25 1.73-5.25 2.59-9.01 2.59-2.44 0-4.72-.47-6.84-1.39-2.11-.95-3.75-2.23-4.9-3.86-1.14-1.63-1.71-3.48-1.71-5.54h4.71c0 2.15.79 3.85 2.37 5.1 1.59 1.24 3.72 1.86 6.37 1.86 2.47 0 4.37-.51 5.69-1.52 1.32-1.01 1.98-2.38 1.98-4.12 0-1.75-.61-3.09-1.83-4.03-1.23-.96-3.44-1.91-6.65-2.83zm29.47 16.33c-3.58 0-6.49-1.17-8.74-3.52-2.24-2.36-3.37-5.51-3.37-9.45v-.83c0-2.62.5-4.95 1.49-7 1.01-2.07 2.41-3.68 4.2-4.84 1.81-1.17 3.76-1.75 5.86-1.75 3.44 0 6.1 1.13 8.01 3.39 1.9 2.26 2.86 5.5 2.86 9.72v1.88h-17.9c.06 2.6.82 4.71 2.27 6.32 1.47 1.59 3.32 2.39 5.57 2.39 1.59 0 2.94-.32 4.05-.97 1.11-.66 2.07-1.52 2.9-2.59l2.76 2.15c-2.21 3.4-5.53 5.1-9.96 5.1zm-.56-23.68c-1.82 0-3.35.66-4.59 2-1.24 1.32-2 3.17-2.29 5.57h13.23v-.35c-.13-2.29-.75-4.07-1.86-5.32-1.1-1.27-2.6-1.9-4.49-1.9zm41.29.83c-.69-.12-1.43-.17-2.23-.17-2.96 0-4.97 1.26-6.03 3.78V1838h-4.51v-26.42h4.39l.07 3.06c1.49-2.36 3.59-3.54 6.3-3.54.88 0 1.55.11 2.01.34v4.2zm14.64 22.85c-3.58 0-6.49-1.17-8.74-3.52-2.24-2.36-3.37-5.51-3.37-9.45v-.83c0-2.62.5-4.95 1.49-7 1.01-2.07 2.41-3.68 4.2-4.84 1.81-1.17 3.76-1.75 5.86-1.75 3.44 0 6.11 1.13 8.01 3.39 1.9 2.26 2.86 5.5 2.86 9.72v1.88h-17.9c.07 2.6.82 4.71 2.27 6.32 1.47 1.59 3.32 2.39 5.57 2.39 1.59 0 2.94-.32 4.05-.97 1.11-.66 2.08-1.52 2.91-2.59l2.75 2.15c-2.21 3.4-5.53 5.1-9.96 5.1zm-.56-23.68c-1.82 0-3.35.66-4.59 2-1.23 1.32-2 3.17-2.29 5.57h13.23v-.35c-.13-2.29-.75-4.07-1.86-5.32-1.1-1.27-2.6-1.9-4.49-1.9zm15.02 9.76c0-4.15.95-7.43 2.85-9.84 1.91-2.42 4.46-3.63 7.67-3.63 3.12 0 5.59 1.05 7.4 3.15l.19-2.67h4.15v36.58h-4.51v-12.6c-1.83 1.95-4.25 2.93-7.28 2.93-3.19 0-5.74-1.24-7.64-3.71-1.89-2.49-2.83-5.79-2.83-9.89v-.32zm4.51.51c0 3.03.64 5.41 1.91 7.13 1.28 1.73 3.01 2.59 5.17 2.59 2.69 0 4.74-1.19 6.16-3.56v-12.94c-1.44-2.33-3.47-3.49-6.11-3.49-2.18 0-3.91.87-5.2 2.61-1.28 1.72-1.93 4.28-1.93 7.66zm41.31 10.31c-1.76 2.06-4.34 3.1-7.74 3.1-2.81 0-4.96-.82-6.44-2.44-1.47-1.65-2.21-4.07-2.22-7.28v-17.19h4.51v17.07c0 4 1.63 6.01 4.89 6.01 3.45 0 5.74-1.29 6.88-3.86v-19.22h4.52V1838h-4.3l-.1-2.61zm16.19 2.61h-4.52v-26.42h4.52V1838zm-4.88-33.42c0-.74.22-1.35.65-1.86.46-.5 1.13-.76 2.01-.76.88 0 1.54.26 2 .76.45.51.68 1.12.68 1.86 0 .73-.23 1.34-.68 1.83-.46.49-1.12.73-2 .73-.88 0-1.55-.24-2.01-.73-.43-.49-.65-1.1-.65-1.83zm23.09 33.91c-3.58 0-6.49-1.17-8.74-3.52-2.25-2.36-3.37-5.51-3.37-9.45v-.83c0-2.62.5-4.95 1.49-7 1.01-2.07 2.41-3.68 4.2-4.84 1.81-1.17 3.76-1.75 5.86-1.75 3.43 0 6.1 1.13 8.01 3.39 1.9 2.26 2.85 5.5 2.85 9.72v1.88h-17.89c.06 2.6.82 4.71 2.27 6.32 1.46 1.59 3.32 2.39 5.57 2.39 1.59 0 2.94-.32 4.05-.97 1.1-.66 2.07-1.52 2.9-2.59l2.76 2.15c-2.21 3.4-5.53 5.1-9.96 5.1zm-.56-23.68c-1.82 0-3.35.66-4.59 2-1.24 1.32-2 3.17-2.29 5.57h13.23v-.35c-.13-2.29-.75-4.07-1.86-5.32-1.1-1.27-2.6-1.9-4.49-1.9zm28.88.83c-.68-.12-1.42-.17-2.22-.17-2.96 0-4.97 1.26-6.03 3.78V1838h-4.52v-26.42h4.4l.07 3.06c1.48-2.36 3.58-3.54 6.3-3.54.88 0 1.55.11 2 .34v4.2zm14.65 22.85c-3.58 0-6.49-1.17-8.74-3.52-2.25-2.36-3.37-5.51-3.37-9.45v-.83c0-2.62.5-4.95 1.49-7 1.01-2.07 2.41-3.68 4.2-4.84 1.81-1.17 3.76-1.75 5.86-1.75 3.43 0 6.1 1.13 8.01 3.39 1.9 2.26 2.85 5.5 2.85 9.72v1.88h-17.89c.06 2.6.82 4.71 2.27 6.32 1.46 1.59 3.32 2.39 5.56 2.39 1.6 0 2.95-.32 4.06-.97 1.1-.66 2.07-1.52 2.9-2.59l2.76 2.15c-2.21 3.4-5.53 5.1-9.96 5.1zm-.56-23.68c-1.82 0-3.35.66-4.59 2-1.24 1.32-2 3.17-2.3 5.57h13.24v-.35c-.13-2.29-.75-4.07-1.86-5.32-1.11-1.27-2.6-1.9-4.49-1.9zm20.38-3.23l.15 3.32c2.02-2.53 4.66-3.8 7.91-3.8 5.58 0 8.4 3.15 8.45 9.44V1838h-4.52v-17.48c-.01-1.9-.45-3.31-1.32-4.22-.84-.92-2.17-1.37-3.98-1.37-1.46 0-2.75.39-3.85 1.17-1.11.78-1.97 1.81-2.59 3.08V1838h-4.52v-26.42h4.27zm39.97 0l.12 2.93c1.94-2.27 4.55-3.41 7.84-3.41 3.69 0 6.21 1.41 7.54 4.24.88-1.27 2.02-2.29 3.42-3.07 1.42-.78 3.09-1.17 5.01-1.17 5.79 0 8.74 3.06 8.83 9.2v17.7h-4.51v-17.43c0-1.89-.43-3.3-1.3-4.23-.86-.94-2.31-1.41-4.34-1.41-1.68 0-3.07.5-4.18 1.51-1.1 1-1.75 2.34-1.93 4.03V1838h-4.54v-17.31c0-3.84-1.88-5.76-5.64-5.76-2.96 0-4.99 1.26-6.08 3.78V1838h-4.51v-26.42h4.27zm55.91 26.42c-.26-.52-.47-1.45-.64-2.78-2.1 2.18-4.6 3.27-7.52 3.27-2.6 0-4.74-.73-6.42-2.2-1.66-1.48-2.49-3.35-2.49-5.61 0-2.75 1.04-4.89 3.13-6.4 2.1-1.53 5.04-2.3 8.84-2.3h4.39v-2.07c0-1.58-.47-2.83-1.42-3.76-.94-.94-2.33-1.42-4.17-1.42-1.61 0-2.96.41-4.05 1.22-1.09.82-1.64 1.8-1.64 2.96h-4.54c0-1.32.46-2.59 1.39-3.81.95-1.24 2.22-2.21 3.81-2.93 1.61-.72 3.38-1.07 5.3-1.07 3.04 0 5.43.76 7.15 2.29 1.73 1.51 2.62 3.61 2.69 6.28v12.15c0 2.43.31 4.36.92 5.79v.39h-4.73zm-7.5-3.44c1.42 0 2.76-.37 4.03-1.1 1.27-.73 2.19-1.69 2.76-2.86v-5.42h-3.54c-5.53 0-8.3 1.62-8.3 4.86 0 1.42.47 2.52 1.42 3.32.94.8 2.15 1.2 3.63 1.2zm4.18-34.06h5.47l-6.55 7.18h-3.63l4.71-7.18zm29.59 30.49c0-1.22-.47-2.16-1.39-2.83-.92-.68-2.52-1.27-4.81-1.76-2.28-.48-4.1-1.07-5.45-1.75-1.33-.69-2.33-1.5-2.98-2.45-.63-.94-.95-2.06-.95-3.37 0-2.16.91-3.99 2.74-5.49 1.84-1.5 4.18-2.24 7.03-2.24 2.99 0 5.42.77 7.27 2.32 1.87 1.54 2.81 3.52 2.81 5.93h-4.54c0-1.24-.53-2.31-1.59-3.2-1.04-.9-2.36-1.34-3.95-1.34-1.65 0-2.93.35-3.86 1.07-.93.72-1.39 1.65-1.39 2.81 0 1.09.43 1.91 1.29 2.46.86.56 2.42 1.09 4.67 1.59 2.26.51 4.09 1.11 5.49 1.81 1.4.7 2.43 1.54 3.1 2.54.68.97 1.02 2.17 1.02 3.59 0 2.36-.94 4.25-2.83 5.68-1.89 1.42-4.34 2.13-7.35 2.13-2.11 0-3.98-.38-5.61-1.12-1.63-.75-2.91-1.8-3.83-3.13-.92-1.35-1.37-2.81-1.37-4.37h4.51c.09 1.51.69 2.72 1.81 3.61 1.14.88 2.64 1.32 4.49 1.32 1.71 0 3.08-.34 4.11-1.02 1.04-.7 1.56-1.63 1.56-2.79zm27.46-19.41v29.47c0 5.08-2.3 7.62-6.91 7.62-.99 0-1.91-.15-2.75-.44v-3.61c.52.13 1.2.19 2.05.19 1.01 0 1.77-.28 2.29-.83.54-.54.81-1.48.81-2.83v-29.57h4.51zm-4.98-7c0-.72.22-1.33.66-1.83.46-.52 1.12-.79 1.98-.79.88 0 1.55.26 2 .76.46.51.69 1.12.69 1.86 0 .73-.23 1.34-.69 1.83-.45.49-1.12.73-2 .73-.88 0-1.54-.24-1.98-.73-.44-.49-.66-1.1-.66-1.83zm28.59 30.81c-1.76 2.06-4.34 3.1-7.74 3.1-2.81 0-4.96-.82-6.44-2.44-1.47-1.65-2.21-4.07-2.22-7.28v-17.19h4.51v17.07c0 4 1.63 6.01 4.89 6.01 3.45 0 5.74-1.29 6.88-3.86v-19.22h4.52V1838h-4.3l-.1-2.61zm10.21-10.82c0-4.12.95-7.39 2.85-9.81 1.91-2.44 4.43-3.66 7.57-3.66 3.22 0 5.74 1.14 7.55 3.41l.22-2.93h4.12v25.79c0 3.41-1.02 6.11-3.05 8.08-2.02 1.97-4.74 2.95-8.15 2.95-1.91 0-3.77-.41-5.6-1.22-1.82-.81-3.21-1.93-4.17-3.35l2.34-2.71c1.94 2.4 4.31 3.59 7.11 3.59 2.2 0 3.9-.61 5.13-1.85 1.23-1.24 1.85-2.98 1.85-5.23v-2.27c-1.81 2.09-4.27 3.13-7.4 3.13-3.09 0-5.6-1.25-7.52-3.74-1.9-2.49-2.85-5.88-2.85-10.18zm4.54.51c0 2.98.61 5.33 1.83 7.04 1.22 1.69 2.93 2.54 5.13 2.54 2.84 0 4.94-1.3 6.27-3.89v-12.06c-1.38-2.52-3.46-3.78-6.23-3.78-2.19 0-3.91.85-5.15 2.56-1.23 1.71-1.85 4.24-1.85 7.59zM2846 1838c-.26-.52-.48-1.45-.64-2.78-2.1 2.18-4.6 3.27-7.52 3.27-2.6 0-4.74-.73-6.42-2.2-1.66-1.48-2.49-3.35-2.49-5.61 0-2.75 1.04-4.89 3.13-6.4 2.1-1.53 5.04-2.3 8.83-2.3h4.4v-2.07c0-1.58-.47-2.83-1.42-3.76-.94-.94-2.33-1.42-4.17-1.42-1.61 0-2.96.41-4.06 1.22-1.09.82-1.63 1.8-1.63 2.96h-4.54c0-1.32.46-2.59 1.39-3.81.94-1.24 2.21-2.21 3.81-2.93 1.61-.72 3.38-1.07 5.3-1.07 3.04 0 5.42.76 7.15 2.29 1.72 1.51 2.62 3.61 2.68 6.28v12.15c0 2.43.31 4.36.93 5.79v.39H2846zm-7.5-3.44c1.42 0 2.76-.37 4.03-1.1 1.27-.73 2.19-1.69 2.76-2.86v-5.42h-3.54c-5.54 0-8.3 1.62-8.3 4.86 0 1.42.47 2.52 1.41 3.32.95.8 2.16 1.2 3.64 1.2zm17.29-9.99c0-4.05.96-7.31 2.88-9.76 1.92-2.48 4.43-3.71 7.54-3.71 3.09 0 5.54 1.05 7.35 3.17v-13.77h4.52v37.5h-4.15l-.22-2.83c-1.81 2.21-4.33 3.32-7.55 3.32-3.06 0-5.56-1.25-7.49-3.76-1.92-2.51-2.88-5.78-2.88-9.82v-.34zm4.51.51c0 3 .62 5.34 1.86 7.04 1.24 1.69 2.94 2.54 5.13 2.54 2.86 0 4.95-1.29 6.27-3.86v-12.14c-1.35-2.49-3.43-3.73-6.23-3.73-2.21 0-3.93.85-5.17 2.56-1.24 1.71-1.86 4.24-1.86 7.59zm23.61-.53c0-2.59.51-4.92 1.51-6.98 1.03-2.07 2.45-3.67 4.25-4.79 1.83-1.12 3.9-1.68 6.23-1.68 3.6 0 6.5 1.24 8.71 3.73 2.23 2.49 3.35 5.8 3.35 9.94v.31c0 2.58-.5 4.89-1.49 6.94-.98 2.03-2.38 3.62-4.22 4.76-1.83 1.14-3.93 1.71-6.3 1.71-3.58 0-6.49-1.25-8.72-3.74-2.21-2.49-3.32-5.78-3.32-9.88v-.32zm4.54.53c0 2.93.68 5.29 2.03 7.06 1.37 1.77 3.19 2.66 5.47 2.66 2.29 0 4.12-.89 5.47-2.68 1.35-1.81 2.02-4.33 2.02-7.57 0-2.9-.69-5.24-2.07-7.03-1.37-1.81-3.19-2.71-5.47-2.71-2.23 0-4.03.88-5.4 2.66-1.36 1.77-2.05 4.31-2.05 7.61zm37.94-9.44c-.68-.12-1.42-.17-2.22-.17-2.96 0-4.97 1.26-6.03 3.78V1838h-4.52v-26.42h4.4l.07 3.06c1.48-2.36 3.58-3.54 6.3-3.54.88 0 1.55.11 2 .34v4.2zm14.65 22.85c-3.58 0-6.49-1.17-8.74-3.52-2.25-2.36-3.37-5.51-3.37-9.45v-.83c0-2.62.5-4.95 1.49-7 1.01-2.07 2.41-3.68 4.2-4.84 1.81-1.17 3.76-1.75 5.86-1.75 3.43 0 6.1 1.13 8.01 3.39 1.9 2.26 2.85 5.5 2.85 9.72v1.88h-17.89c.06 2.6.82 4.71 2.27 6.32 1.46 1.59 3.32 2.39 5.56 2.39 1.6 0 2.95-.32 4.06-.97 1.1-.66 2.07-1.52 2.9-2.59l2.76 2.15c-2.21 3.4-5.53 5.1-9.96 5.1zm-.56-23.68c-1.82 0-3.35.66-4.59 2-1.24 1.32-2 3.17-2.3 5.57h13.24v-.35c-.13-2.29-.75-4.07-1.86-5.32-1.11-1.27-2.6-1.9-4.49-1.9zm31.49 16.18c0-1.22-.46-2.16-1.39-2.83-.91-.68-2.51-1.27-4.81-1.76-2.28-.48-4.09-1.07-5.44-1.75-1.34-.69-2.33-1.5-2.98-2.45-.64-.94-.95-2.06-.95-3.37 0-2.16.91-3.99 2.73-5.49 1.84-1.5 4.18-2.24 7.03-2.24 3 0 5.42.77 7.28 2.32 1.87 1.54 2.81 3.52 2.81 5.93h-4.55c0-1.24-.52-2.31-1.58-3.2-1.04-.9-2.36-1.34-3.96-1.34-1.64 0-2.93.35-3.86 1.07-.92.72-1.39 1.65-1.39 2.81 0 1.09.43 1.91 1.3 2.46.86.56 2.41 1.09 4.66 1.59 2.26.51 4.09 1.11 5.49 1.81 1.4.7 2.44 1.54 3.1 2.54.69.97 1.03 2.17 1.03 3.59 0 2.36-.94 4.25-2.83 5.68-1.89 1.42-4.34 2.13-7.35 2.13-2.12 0-3.99-.38-5.62-1.12-1.62-.75-2.9-1.8-3.83-3.13-.91-1.35-1.37-2.81-1.37-4.37h4.52c.08 1.51.68 2.72 1.81 3.61 1.14.88 2.63 1.32 4.49 1.32 1.71 0 3.07-.34 4.1-1.02 1.04-.7 1.56-1.63 1.56-2.79zm45.12-5.91c0 4.03-.92 7.26-2.76 9.72-1.84 2.46-4.33 3.69-7.47 3.69-3.21 0-5.73-1.02-7.57-3.05v12.72h-4.51v-36.58h4.12l.22 2.93c1.84-2.27 4.4-3.41 7.67-3.41 3.17 0 5.68 1.19 7.52 3.58 1.85 2.4 2.78 5.73 2.78 9.99v.41zm-4.52-.51c0-2.98-.63-5.33-1.9-7.05-1.27-1.73-3.01-2.59-5.23-2.59-2.73 0-4.78 1.21-6.15 3.64v12.62c1.35 2.41 3.42 3.61 6.2 3.61 2.17 0 3.89-.85 5.15-2.56 1.29-1.73 1.93-4.28 1.93-7.67zm26.59 13.43c-.26-.52-.47-1.45-.63-2.78-2.1 2.18-4.61 3.27-7.52 3.27-2.61 0-4.75-.73-6.43-2.2-1.66-1.48-2.49-3.35-2.49-5.61 0-2.75 1.05-4.89 3.13-6.4 2.1-1.53 5.05-2.3 8.84-2.3h4.39v-2.07c0-1.58-.47-2.83-1.41-3.76-.95-.94-2.34-1.42-4.18-1.42-1.61 0-2.96.41-4.05 1.22-1.09.82-1.64 1.8-1.64 2.96h-4.54c0-1.32.47-2.59 1.39-3.81.95-1.24 2.22-2.21 3.81-2.93 1.61-.72 3.38-1.07 5.3-1.07 3.04 0 5.43.76 7.15 2.29 1.73 1.51 2.62 3.61 2.69 6.28v12.15c0 2.43.31 4.36.93 5.79v.39h-4.74zm-7.49-3.44c1.41 0 2.75-.37 4.02-1.1 1.27-.73 2.19-1.69 2.76-2.86v-5.42h-3.54c-5.53 0-8.3 1.62-8.3 4.86 0 1.42.47 2.52 1.42 3.32.94.8 2.15 1.2 3.64 1.2zm31.15-18.92c-.69-.12-1.43-.17-2.22-.17-2.97 0-4.98 1.26-6.03 3.78V1838h-4.52v-26.42h4.39l.08 3.06c1.48-2.36 3.58-3.54 6.3-3.54.87 0 1.54.11 2 .34v4.2zm19.5 22.36c-.26-.52-.47-1.45-.63-2.78-2.1 2.18-4.61 3.27-7.52 3.27-2.6 0-4.74-.73-6.42-2.2-1.66-1.48-2.49-3.35-2.49-5.61 0-2.75 1.04-4.89 3.12-6.4 2.1-1.53 5.05-2.3 8.84-2.3h4.4v-2.07c0-1.58-.48-2.83-1.42-3.76-.94-.94-2.34-1.42-4.17-1.42-1.62 0-2.97.41-4.06 1.22-1.09.82-1.63 1.8-1.63 2.96h-4.54c0-1.32.46-2.59 1.39-3.81.94-1.24 2.21-2.21 3.81-2.93 1.61-.72 3.37-1.07 5.29-1.07 3.05 0 5.43.76 7.16 2.29 1.72 1.51 2.62 3.61 2.68 6.28v12.15c0 2.43.31 4.36.93 5.79v.39h-4.74zm-7.49-3.44c1.42 0 2.76-.37 4.03-1.1 1.27-.73 2.19-1.69 2.76-2.86v-5.42h-3.54c-5.54 0-8.3 1.62-8.3 4.86 0 1.42.47 2.52 1.41 3.32.95.8 2.16 1.2 3.64 1.2zM2666.14 1897h-4.52v-26.42h4.52V1897zm-4.89-33.42c0-.74.22-1.35.66-1.86.46-.5 1.13-.76 2.01-.76.87 0 1.54.26 2 .76.45.51.68 1.12.68 1.86 0 .73-.23 1.34-.68 1.83-.46.49-1.13.73-2 .73-.88 0-1.55-.24-2.01-.73-.44-.49-.66-1.1-.66-1.83zm16.41 7l.15 3.32c2.02-2.53 4.65-3.8 7.91-3.8 5.58 0 8.4 3.15 8.45 9.44V1897h-4.52v-17.48c-.02-1.9-.46-3.31-1.32-4.22-.85-.92-2.17-1.37-3.98-1.37-1.46 0-2.75.39-3.86 1.17-1.1.78-1.97 1.81-2.58 3.08V1897h-4.52v-26.42h4.27zm28.22 26.42h-4.51v-26.42h4.51V1897zm-4.88-33.42c0-.74.22-1.35.66-1.86.46-.5 1.12-.76 2-.76.88 0 1.55.26 2 .76.46.51.69 1.12.69 1.86 0 .73-.23 1.34-.69 1.83-.45.49-1.12.73-2 .73-.88 0-1.54-.24-2-.73-.44-.49-.66-1.1-.66-1.83zm22.73 30.22c1.61 0 3.02-.49 4.22-1.46 1.21-.98 1.88-2.2 2.01-3.67h4.27c-.08 1.52-.6 2.96-1.56 4.33-.96 1.36-2.25 2.45-3.86 3.27-1.6.81-3.29 1.22-5.08 1.22-3.6 0-6.46-1.2-8.59-3.59-2.12-2.41-3.18-5.7-3.18-9.86v-.76c0-2.57.47-4.86 1.42-6.86.94-2 2.29-3.56 4.05-4.66 1.78-1.11 3.87-1.66 6.28-1.66 2.96 0 5.42.88 7.37 2.66 1.97 1.77 3.02 4.07 3.15 6.91h-4.27c-.13-1.71-.79-3.11-1.96-4.2-1.15-1.11-2.58-1.66-4.29-1.66-2.3 0-4.08.83-5.35 2.49-1.25 1.64-1.88 4.03-1.88 7.15v.85c0 3.05.63 5.39 1.88 7.04 1.25 1.64 3.04 2.46 5.37 2.46zm20.48 3.2h-4.51v-26.42h4.51V1897zm-4.88-33.42c0-.74.22-1.35.66-1.86.46-.5 1.12-.76 2-.76.88 0 1.55.26 2 .76.46.51.69 1.12.69 1.86 0 .73-.23 1.34-.69 1.83-.45.49-1.12.73-2 .73-.88 0-1.54-.24-2-.73-.44-.49-.66-1.1-.66-1.83zm28.44 33.42c-.26-.52-.47-1.45-.63-2.78-2.1 2.18-4.61 3.27-7.52 3.27-2.61 0-4.75-.73-6.42-2.2-1.66-1.48-2.49-3.35-2.49-5.61 0-2.75 1.04-4.89 3.12-6.4 2.1-1.53 5.05-2.3 8.84-2.3h4.4v-2.07c0-1.58-.48-2.83-1.42-3.76-.94-.94-2.34-1.42-4.18-1.42-1.61 0-2.96.41-4.05 1.22-1.09.82-1.63 1.8-1.63 2.96h-4.54c0-1.32.46-2.59 1.39-3.81.94-1.24 2.21-2.21 3.81-2.93 1.61-.72 3.37-1.07 5.29-1.07 3.05 0 5.43.76 7.16 2.29 1.72 1.51 2.62 3.61 2.68 6.28v12.15c0 2.43.31 4.36.93 5.79v.39h-4.74zm-7.49-3.44c1.41 0 2.76-.37 4.03-1.1 1.27-.73 2.19-1.69 2.76-2.86v-5.42h-3.54c-5.54 0-8.31 1.62-8.31 4.86 0 1.42.48 2.52 1.42 3.32.94.8 2.16 1.2 3.64 1.2zm31.15-18.92c-.68-.12-1.42-.17-2.22-.17-2.96 0-4.97 1.26-6.03 3.78V1897h-4.52v-26.42h4.4l.07 3.06c1.48-2.36 3.58-3.54 6.3-3.54.88 0 1.54.11 2 .34v4.2z"/>
  <path fill="#000" d="M1284.35 361.367c-11.58-3.328-20.01-7.406-25.31-12.234-5.25-4.875-7.88-10.875-7.88-18 0-8.063 3.22-14.719 9.64-19.969 6.47-5.297 14.86-7.945 25.17-7.945 7.03 0 13.29 1.359 18.77 4.078 5.53 2.719 9.8 6.469 12.8 11.25 3.05 4.781 4.57 10.008 4.57 15.68h-13.57c0-6.188-1.97-11.039-5.91-14.555-3.93-3.563-9.49-5.344-16.66-5.344-6.66 0-11.86 1.477-15.61 4.43-3.7 2.906-5.56 6.961-5.56 12.164 0 4.172 1.76 7.711 5.28 10.617 3.56 2.859 9.58 5.484 18.07 7.875 8.53 2.391 15.19 5.039 19.97 7.945 4.83 2.86 8.39 6.211 10.68 10.055 2.35 3.844 3.52 8.367 3.52 13.57 0 8.297-3.23 14.954-9.7 19.969-6.47 4.969-15.12 7.453-25.95 7.453-7.03 0-13.59-1.336-19.69-4.008-6.09-2.718-10.8-6.421-14.13-11.109-3.28-4.687-4.92-10.008-4.92-15.961h13.57c0 6.188 2.27 11.086 6.82 14.695 4.59 3.563 10.71 5.344 18.35 5.344 7.13 0 12.59-1.453 16.38-4.359 3.8-2.906 5.7-6.867 5.7-11.883 0-5.016-1.76-8.883-5.27-11.602-3.52-2.765-9.89-5.484-19.13-8.156zM1384.62 407c-.75-1.5-1.36-4.172-1.83-8.016-6.05 6.282-13.27 9.422-21.66 9.422-7.5 0-13.66-2.109-18.49-6.328-4.78-4.266-7.17-9.656-7.17-16.172 0-7.922 3-14.062 9-18.422 6.05-4.406 14.53-6.609 25.45-6.609h12.66v-5.977c0-4.546-1.36-8.156-4.08-10.828-2.72-2.718-6.73-4.078-12.02-4.078-4.64 0-8.53 1.172-11.68 3.516-3.14 2.344-4.71 5.18-4.71 8.508h-13.07c0-3.797 1.33-7.454 4-10.969 2.72-3.563 6.38-6.375 10.97-8.438 4.64-2.062 9.73-3.093 15.26-3.093 8.77 0 15.63 2.203 20.6 6.609 4.97 4.359 7.55 10.383 7.74 18.07v35.016c0 6.984.89 12.539 2.67 16.664V407h-13.64zm-21.59-9.914c4.08 0 7.95-1.055 11.6-3.164 3.66-2.11 6.31-4.852 7.95-8.227v-15.609h-10.2c-15.93 0-23.9 4.664-23.9 13.992 0 4.078 1.36 7.266 4.07 9.563 2.72 2.297 6.22 3.445 10.48 3.445zm67.08 9.914h-13.01V299h13.01v108zm67.85 0c-.75-1.5-1.36-4.172-1.83-8.016-6.04 6.282-13.26 9.422-21.65 9.422-7.5 0-13.67-2.109-18.5-6.328-4.78-4.266-7.17-9.656-7.17-16.172 0-7.922 3-14.062 9-18.422 6.05-4.406 14.53-6.609 25.46-6.609h12.65v-5.977c0-4.546-1.36-8.156-4.08-10.828-2.72-2.718-6.72-4.078-12.02-4.078-4.64 0-8.53 1.172-11.67 3.516-3.14 2.344-4.71 5.18-4.71 8.508h-13.08c0-3.797 1.34-7.454 4.01-10.969 2.72-3.563 6.37-6.375 10.97-8.438 4.64-2.062 9.72-3.093 15.25-3.093 8.77 0 15.64 2.203 20.61 6.609 4.96 4.359 7.54 10.383 7.73 18.07v35.016c0 6.984.89 12.539 2.67 16.664V407h-13.64zm-21.58-9.914c4.07 0 7.94-1.055 11.6-3.164 3.65-2.11 6.3-4.852 7.94-8.227v-15.609h-10.19c-15.94 0-23.91 4.664-23.91 13.992 0 4.078 1.36 7.266 4.08 9.563 2.72 2.297 6.21 3.445 10.48 3.445zm85.5-28.758c0-11.672 2.76-21.047 8.29-28.125 5.53-7.125 12.78-10.687 21.73-10.687 8.9 0 15.96 3.046 21.16 9.14V299h13.01v108h-11.95l-.64-8.156c-5.2 6.375-12.44 9.562-21.72 9.562-8.81 0-16.01-3.609-21.59-10.828-5.53-7.219-8.29-16.64-8.29-28.266v-.984zm13 1.477c0 8.625 1.78 15.375 5.35 20.25 3.56 4.875 8.48 7.312 14.76 7.312 8.25 0 14.28-3.703 18.07-11.109v-34.946c-3.89-7.171-9.86-10.757-17.93-10.757-6.37 0-11.34 2.461-14.9 7.383-3.57 4.921-5.35 12.21-5.35 21.867zm103.01 38.601c-10.31 0-18.7-3.375-25.17-10.125-6.47-6.797-9.7-15.867-9.7-27.211v-2.39c0-7.547 1.43-14.274 4.28-20.18 2.91-5.953 6.94-10.594 12.1-13.922 5.2-3.375 10.83-5.062 16.87-5.062 9.89 0 17.58 3.257 23.07 9.773 5.48 6.516 8.22 15.844 8.22 27.984v5.415h-51.54c.19 7.5 2.37 13.57 6.54 18.21 4.22 4.594 9.56 6.891 16.03 6.891 4.6 0 8.49-.937 11.68-2.812 3.18-1.875 5.97-4.36 8.36-7.454l7.95 6.188c-6.38 9.797-15.94 14.695-28.69 14.695zm-1.62-68.203c-5.25 0-9.65 1.922-13.22 5.766-3.56 3.797-5.76 9.14-6.6 16.031h38.1v-.984c-.37-6.61-2.15-11.719-5.34-15.328-3.19-3.657-7.5-5.485-12.94-5.485zm113.7 68.203c-10.31 0-18.7-3.375-25.17-10.125-6.47-6.797-9.71-15.867-9.71-27.211v-2.39c0-7.547 1.43-14.274 4.29-20.18 2.91-5.953 6.94-10.594 12.1-13.922 5.2-3.375 10.82-5.062 16.87-5.062 9.89 0 17.58 3.257 23.06 9.773 5.49 6.516 8.23 15.844 8.23 27.984v5.415h-51.54c.19 7.5 2.37 13.57 6.54 18.21 4.22 4.594 9.56 6.891 16.03 6.891 4.6 0 8.49-.937 11.67-2.812 3.19-1.875 5.98-4.36 8.37-7.454l7.95 6.188c-6.38 9.797-15.94 14.695-28.69 14.695zm-1.62-68.203c-5.25 0-9.65 1.922-13.22 5.766-3.56 3.797-5.76 9.14-6.61 16.031h38.11v-.984c-.37-6.61-2.15-11.719-5.34-15.328-3.19-3.657-7.5-5.485-12.94-5.485zm90.7 46.617c0-3.515-1.33-6.234-4-8.156-2.63-1.969-7.25-3.656-13.85-5.062-6.57-1.407-11.79-3.094-15.68-5.063-3.85-1.969-6.71-4.312-8.58-7.031-1.83-2.719-2.74-5.953-2.74-9.703 0-6.235 2.62-11.508 7.87-15.821 5.3-4.312 12.05-6.468 20.25-6.468 8.63 0 15.61 2.226 20.95 6.679 5.39 4.453 8.09 10.149 8.09 17.086h-13.08c0-3.562-1.52-6.633-4.57-9.211-3-2.578-6.8-3.867-11.39-3.867-4.73 0-8.44 1.031-11.11 3.094-2.67 2.062-4.01 4.758-4.01 8.086 0 3.14 1.25 5.508 3.73 7.101 2.48 1.594 6.96 3.118 13.43 4.571 6.52 1.453 11.79 3.187 15.82 5.203 4.03 2.015 7.01 4.453 8.93 7.312 1.97 2.813 2.95 6.258 2.95 10.336 0 6.797-2.72 12.258-8.15 16.383-5.44 4.078-12.5 6.117-21.17 6.117-6.09 0-11.48-1.078-16.17-3.234-4.69-2.156-8.37-5.156-11.04-9-2.62-3.891-3.94-8.086-3.94-12.586h13.01c.24 4.359 1.97 7.828 5.2 10.406 3.29 2.531 7.6 3.797 12.94 3.797 4.92 0 8.86-.984 11.81-2.953 3-2.016 4.5-4.688 4.5-8.016zm94.22-17.015c0 11.578-2.65 20.906-7.94 27.984-5.3 7.078-12.47 10.617-21.52 10.617-9.23 0-16.5-2.929-21.79-8.789v36.633h-13.01V330.922h11.88l.63 8.437c5.3-6.562 12.66-9.843 22.08-9.843 9.14 0 16.36 3.445 21.66 10.336 5.34 6.89 8.01 16.476 8.01 28.757v1.196zm-13-1.477c0-8.578-1.83-15.351-5.49-20.32-3.66-4.969-8.67-7.453-15.05-7.453-7.87 0-13.78 3.492-17.71 10.476v36.352c3.89 6.937 9.84 10.406 17.86 10.406 6.23 0 11.17-2.461 14.83-7.383 3.7-4.968 5.56-12.328 5.56-22.078zm61.17 40.078c-10.32 0-18.71-3.375-25.17-10.125-6.47-6.797-9.71-15.867-9.71-27.211v-2.39c0-7.547 1.43-14.274 4.29-20.18 2.91-5.953 6.94-10.594 12.1-13.922 5.2-3.375 10.82-5.062 16.87-5.062 9.89 0 17.58 3.257 23.06 9.773 5.49 6.516 8.23 15.844 8.23 27.984v5.415h-51.54c.19 7.5 2.37 13.57 6.54 18.21 4.22 4.594 9.56 6.891 16.03 6.891 4.59 0 8.48-.937 11.67-2.812 3.19-1.875 5.98-4.36 8.37-7.454l7.94 6.188c-6.37 9.797-15.93 14.695-28.68 14.695zm-1.62-68.203c-5.25 0-9.66 1.922-13.22 5.766-3.56 3.797-5.76 9.14-6.61 16.031h38.11v-.984c-.37-6.61-2.15-11.719-5.34-15.328-3.19-3.657-7.5-5.485-12.94-5.485zm83.18 2.391c-1.97-.328-4.1-.492-6.4-.492-8.53 0-14.32 3.632-17.37 10.898v54h-13v-76.078h12.65l.21 8.789c4.27-6.797 10.32-10.195 18.14-10.195 2.54 0 4.46.328 5.77.984v12.094zM2159.18 407c-.75-1.5-1.36-4.172-1.83-8.016-6.05 6.282-13.26 9.422-21.65 9.422-7.5 0-13.67-2.109-18.5-6.328-4.78-4.266-7.17-9.656-7.17-16.172 0-7.922 3-14.062 9-18.422 6.05-4.406 14.53-6.609 25.45-6.609h12.66v-5.977c0-4.546-1.36-8.156-4.08-10.828-2.72-2.718-6.72-4.078-12.02-4.078-4.64 0-8.53 1.172-11.67 3.516-3.14 2.344-4.71 5.18-4.71 8.508h-13.08c0-3.797 1.33-7.454 4.01-10.969 2.71-3.563 6.37-6.375 10.96-8.438 4.65-2.062 9.73-3.093 15.26-3.093 8.77 0 15.64 2.203 20.6 6.609 4.97 4.359 7.55 10.383 7.74 18.07v35.016c0 6.984.89 12.539 2.67 16.664V407h-13.64zm-21.59-9.914c4.08 0 7.95-1.055 11.61-3.164 3.65-2.11 6.3-4.852 7.94-8.227v-15.609h-10.19c-15.94 0-23.91 4.664-23.91 13.992 0 4.078 1.36 7.266 4.08 9.563 2.72 2.297 6.21 3.445 10.47 3.445z"/>
</svg>
