<svg xmlns="http://www.w3.org/2000/svg" width="3898" height="2225" fill="none" viewBox="0 0 3898 2225">
  <path fill="#fff" d="M0 0h3898v2225H0z"/>
  <path fill="#fff" d="M344 139h3079v1802H344z"/>
  <path fill="#C4C4C4" d="M411 211h157v157H411z"/>
  <path stroke="#000" d="M411.349 214.978l157 152.663M410.646 367.646l157-157"/>
  <path fill="#C4C4C4" d="M541 962h157v157H541z"/>
  <path stroke="#000" d="M541.349 965.978l157 152.662M540.646 1118.65l157-157.004"/>
  <path fill="#C4C4C4" d="M541 1680h157v157H541z"/>
  <path stroke="#000" d="M541.349 1683.98l157 152.66M540.646 1836.65l157-157"/>
  <path fill="#C4C4C4" d="M541 1207h157v157H541z"/>
  <path stroke="#000" d="M541.349 1210.98l157 152.66M540.646 1363.65l157-157"/>
  <path fill="#C4C4C4" d="M541 1443h157v157H541z"/>
  <path stroke="#000" d="M541.349 1446.98l157 152.66M540.646 1599.65l157-157"/>
  <path fill="#000" d="M750.633 289.117c0 10.031-1.688 18.797-5.063 26.297-3.375 7.453-8.156 13.148-14.343 17.086-6.188 3.938-13.407 5.906-21.657 5.906-8.062 0-15.211-1.968-21.445-5.906-6.234-3.984-11.086-9.633-14.555-16.945-3.422-7.36-5.179-15.867-5.273-25.524v-7.383c0-9.843 1.711-18.539 5.133-26.086 3.422-7.546 8.25-13.312 14.484-17.296 6.281-4.032 13.453-6.047 21.516-6.047 8.203 0 15.422 1.992 21.656 5.976 6.281 3.938 11.109 9.68 14.484 17.227 3.375 7.5 5.063 16.242 5.063 26.226v6.469zm-13.43-6.609c0-12.141-2.437-21.446-7.312-27.914-4.875-6.516-11.696-9.774-20.461-9.774-8.532 0-15.258 3.258-20.18 9.774-4.875 6.468-7.383 15.468-7.523 27v7.523c0 11.766 2.461 21.024 7.382 27.774 4.969 6.703 11.789 10.054 20.461 10.054 8.719 0 15.469-3.164 20.25-9.492 4.782-6.375 7.242-15.492 7.383-27.351v-7.594zm99 36.562l14.625-58.148h13.008L841.688 337h-10.547l-18.493-57.656-18 57.656h-10.546l-22.079-76.078h12.938l14.977 56.953 17.718-56.953h10.477l18.07 58.148zM891.258 337H878.25V229h13.008v108zm137.322 0h-13.57v-47.32h-51.612V337h-13.5V234.625h13.5v44.016h51.612v-44.016h13.57V337zm18.49-38.742c0-7.453 1.45-14.156 4.36-20.11 2.95-5.953 7.03-10.546 12.23-13.781 5.25-3.234 11.23-4.851 17.93-4.851 10.36 0 18.73 3.586 25.11 10.757 6.42 7.172 9.63 16.711 9.63 28.618v.914c0 7.406-1.43 14.062-4.29 19.968-2.81 5.86-6.87 10.43-12.16 13.711-5.26 3.282-11.3 4.922-18.15 4.922-10.31 0-18.68-3.586-25.1-10.758-6.37-7.171-9.56-16.664-9.56-28.476v-.914zm13.08 1.547c0 8.437 1.94 15.211 5.83 20.32 3.94 5.109 9.19 7.664 15.75 7.664 6.61 0 11.86-2.578 15.75-7.734 3.9-5.203 5.84-12.469 5.84-21.797 0-8.344-1.99-15.094-5.98-20.25-3.93-5.203-9.18-7.805-15.75-7.805-6.42 0-11.6 2.555-15.54 7.664-3.93 5.11-5.9 12.422-5.9 21.938zm69.05-1.547c0-7.453 1.45-14.156 4.35-20.11 2.96-5.953 7.04-10.546 12.24-13.781 5.25-3.234 11.23-4.851 17.93-4.851 10.36 0 18.73 3.586 25.1 10.757 6.42 7.172 9.63 16.711 9.63 28.618v.914c0 7.406-1.43 14.062-4.29 19.968-2.81 5.86-6.86 10.43-12.16 13.711-5.25 3.282-11.3 4.922-18.14 4.922-10.31 0-18.68-3.586-25.1-10.758-6.38-7.171-9.56-16.664-9.56-28.476v-.914zm13.07 1.547c0 8.437 1.95 15.211 5.84 20.32 3.94 5.109 9.19 7.664 15.75 7.664 6.61 0 11.86-2.578 15.75-7.734 3.89-5.203 5.84-12.469 5.84-21.797 0-8.344-2-15.094-5.98-20.25-3.94-5.203-9.19-7.805-15.75-7.805-6.42 0-11.6 2.555-15.54 7.664-3.94 5.11-5.91 12.422-5.91 21.938zm90.14-57.305v18.422h14.21v10.055h-14.21v47.179c0 3.047.64 5.344 1.9 6.891 1.27 1.5 3.42 2.25 6.47 2.25 1.5 0 3.56-.281 6.19-.844V337c-3.42.938-6.75 1.406-9.99 1.406-5.81 0-10.19-1.758-13.14-5.273-2.96-3.516-4.43-8.508-4.43-14.977v-47.179h-13.86v-10.055h13.86V242.5h13z"/>
  <path fill="#C4C4C4" d="M2643 164h752v204h-752z"/>
  <path fill="#000" d="M2782.89 264.586h-24.05V306h-13.57V203.625h33.89c11.54 0 20.39 2.625 26.58 7.875 6.24 5.25 9.35 12.891 9.35 22.922 0 6.375-1.73 11.93-5.2 16.664-3.42 4.734-8.2 8.273-14.34 10.617l24.04 43.453V306h-14.48l-22.22-41.414zm-24.05-11.039h20.75c6.7 0 12.02-1.735 15.96-5.203 3.98-3.469 5.97-8.11 5.97-13.922 0-6.328-1.9-11.18-5.69-14.555-3.75-3.375-9.19-5.086-16.31-5.133h-20.68v38.813zm104.77 53.859c-10.31 0-18.7-3.375-25.17-10.125-6.47-6.797-9.71-15.867-9.71-27.211v-2.39c0-7.547 1.43-14.274 4.29-20.18 2.91-5.953 6.94-10.594 12.1-13.922 5.2-3.375 10.83-5.062 16.87-5.062 9.89 0 17.58 3.257 23.06 9.773 5.49 6.516 8.23 15.844 8.23 27.984v5.415h-51.54c.19 7.5 2.37 13.57 6.54 18.21 4.22 4.594 9.56 6.891 16.03 6.891 4.6 0 8.49-.937 11.67-2.812 3.19-1.875 5.98-4.36 8.37-7.454l7.95 6.188c-6.38 9.797-15.94 14.695-28.69 14.695zm-1.62-68.203c-5.25 0-9.65 1.922-13.22 5.766-3.56 3.797-5.76 9.14-6.61 16.031h38.11v-.984c-.37-6.61-2.15-11.719-5.34-15.328-3.19-3.657-7.5-5.485-12.94-5.485zm43.31 28.125c0-11.859 2.75-21.281 8.23-28.266 5.49-7.031 12.75-10.546 21.8-10.546 9.28 0 16.52 3.281 21.72 9.843l.64-8.437h11.88v74.25c0 9.844-2.93 17.601-8.79 23.273-5.81 5.672-13.64 8.508-23.48 8.508-5.49 0-10.85-1.172-16.1-3.515-5.25-2.344-9.26-5.555-12.03-9.633l6.75-7.805c5.58 6.891 12.4 10.336 20.46 10.336 6.33 0 11.25-1.781 14.77-5.344 3.56-3.562 5.34-8.578 5.34-15.047v-6.539c-5.2 6-12.3 9-21.3 9-8.91 0-16.13-3.586-21.66-10.758-5.48-7.171-8.23-16.945-8.23-29.32zm13.08 1.477c0 8.578 1.76 15.328 5.28 20.25 3.51 4.875 8.43 7.312 14.76 7.312 8.2 0 14.23-3.726 18.07-11.179v-34.735c-3.98-7.265-9.96-10.898-17.93-10.898-6.33 0-11.27 2.461-14.83 7.383-3.57 4.921-5.35 12.21-5.35 21.867zm107.65-27.211c-1.97-.328-4.1-.492-6.4-.492-8.53 0-14.32 3.632-17.36 10.898v54h-13.01v-76.078h12.65l.21 8.789c4.27-6.797 10.32-10.195 18.15-10.195 2.53 0 4.45.328 5.76.984v12.094zm42.19 65.812c-10.31 0-18.7-3.375-25.17-10.125-6.47-6.797-9.71-15.867-9.71-27.211v-2.39c0-7.547 1.43-14.274 4.29-20.18 2.91-5.953 6.94-10.594 12.1-13.922 5.2-3.375 10.82-5.062 16.87-5.062 9.89 0 17.58 3.257 23.06 9.773 5.49 6.516 8.23 15.844 8.23 27.984v5.415h-51.54c.19 7.5 2.37 13.57 6.54 18.21 4.22 4.594 9.56 6.891 16.03 6.891 4.6 0 8.49-.937 11.67-2.812 3.19-1.875 5.98-4.36 8.37-7.454l7.95 6.188c-6.38 9.797-15.94 14.695-28.69 14.695zm-1.62-68.203c-5.25 0-9.65 1.922-13.22 5.766-3.56 3.797-5.76 9.14-6.61 16.031h38.11v-.984c-.37-6.61-2.15-11.719-5.34-15.328-3.19-3.657-7.5-5.485-12.94-5.485zm90.7 46.617c0-3.515-1.33-6.234-4-8.156-2.63-1.969-7.25-3.656-13.85-5.062-6.57-1.407-11.79-3.094-15.68-5.063-3.85-1.969-6.71-4.312-8.58-7.031-1.83-2.719-2.74-5.953-2.74-9.703 0-6.235 2.62-11.508 7.87-15.821 5.3-4.312 12.05-6.468 20.25-6.468 8.63 0 15.61 2.226 20.95 6.679 5.39 4.453 8.09 10.149 8.09 17.086h-13.08c0-3.562-1.52-6.633-4.57-9.211-3-2.578-6.8-3.867-11.39-3.867-4.73 0-8.44 1.031-11.11 3.094-2.67 2.062-4.01 4.758-4.01 8.086 0 3.14 1.25 5.508 3.73 7.101 2.48 1.594 6.96 3.118 13.43 4.571 6.51 1.453 11.79 3.187 15.82 5.203 4.03 2.015 7.01 4.453 8.93 7.312 1.97 2.813 2.95 6.258 2.95 10.336 0 6.797-2.72 12.258-8.15 16.383-5.44 4.078-12.5 6.117-21.17 6.117-6.09 0-11.48-1.078-16.17-3.234-4.69-2.156-8.37-5.156-11.04-9-2.62-3.891-3.94-8.086-3.94-12.586h13.01c.24 4.359 1.97 7.828 5.2 10.406 3.29 2.531 7.6 3.797 12.94 3.797 4.92 0 8.86-.984 11.81-2.953 3-2.016 4.5-4.688 4.5-8.016zm76.93 20.18c-.75-1.5-1.36-4.172-1.83-8.016-6.05 6.282-13.27 9.422-21.66 9.422-7.5 0-13.66-2.109-18.49-6.328-4.78-4.266-7.17-9.656-7.17-16.172 0-7.922 3-14.062 9-18.422 6.04-4.406 14.53-6.609 25.45-6.609h12.66v-5.977c0-4.546-1.36-8.156-4.08-10.828-2.72-2.718-6.73-4.078-12.02-4.078-4.64 0-8.54 1.172-11.68 3.516-3.14 2.344-4.71 5.18-4.71 8.508h-13.08c0-3.797 1.34-7.454 4.01-10.969 2.72-3.563 6.38-6.375 10.97-8.438 4.64-2.062 9.73-3.093 15.26-3.093 8.76 0 15.63 2.203 20.6 6.609 4.97 4.359 7.55 10.383 7.74 18.07v35.016c0 6.984.89 12.539 2.67 16.664V306h-13.64zm-21.59-9.914c4.08 0 7.95-1.055 11.6-3.164 3.66-2.11 6.31-4.852 7.95-8.227v-15.609h-10.2c-15.94 0-23.9 4.664-23.9 13.992 0 4.078 1.36 7.266 4.07 9.563 2.72 2.297 6.22 3.445 10.48 3.445zm89.72-54.492c-1.97-.328-4.1-.492-6.4-.492-8.53 0-14.32 3.632-17.37 10.898v54h-13v-76.078h12.65l.21 8.789c4.27-6.797 10.32-10.195 18.14-10.195 2.53 0 4.46.328 5.77.984v12.094zM662.93 597.68h-44.368v36.281h51.54V645h-65.04V542.625h64.336v11.109h-50.836v32.907h44.368v11.039zm58.711-17.086c-1.969-.328-4.102-.492-6.399-.492-8.531 0-14.32 3.632-17.367 10.898v54h-13.008v-76.078h12.656l.211 8.789c4.266-6.797 10.313-10.195 18.141-10.195 2.531 0 4.453.328 5.766.984v12.094zm42.187 65.812c-10.312 0-18.703-3.375-25.172-10.125-6.468-6.797-9.703-15.867-9.703-27.211v-2.39c0-7.547 1.43-14.274 4.289-20.18 2.906-5.953 6.938-10.594 12.094-13.922 5.203-3.375 10.828-5.062 16.875-5.062 9.891 0 17.578 3.257 23.062 9.773 5.485 6.516 8.227 15.844 8.227 27.984v5.415h-51.539c.187 7.5 2.367 13.57 6.539 18.21 4.219 4.594 9.562 6.891 16.031 6.891 4.594 0 8.485-.937 11.672-2.812 3.188-1.875 5.977-4.36 8.367-7.454l7.946 6.188c-6.375 9.797-15.938 14.695-28.688 14.695zm-1.617-68.203c-5.25 0-9.656 1.922-13.219 5.766-3.562 3.797-5.765 9.14-6.609 16.031h38.109v-.984c-.375-6.61-2.156-11.719-5.344-15.328-3.187-3.657-7.5-5.485-12.937-5.485zm90.703 46.617c0-3.515-1.336-6.234-4.008-8.156-2.625-1.969-7.242-3.656-13.851-5.062-6.563-1.407-11.789-3.094-15.68-5.063-3.844-1.969-6.703-4.312-8.578-7.031-1.828-2.719-2.742-5.953-2.742-9.703 0-6.235 2.625-11.508 7.875-15.821 5.297-4.312 12.047-6.468 20.25-6.468 8.625 0 15.609 2.226 20.953 6.679 5.39 4.453 8.086 10.149 8.086 17.086h-13.078c0-3.562-1.524-6.633-4.571-9.211-3-2.578-6.797-3.867-11.39-3.867-4.735 0-8.438 1.031-11.11 3.094-2.672 2.062-4.008 4.758-4.008 8.086 0 3.14 1.243 5.508 3.727 7.101 2.484 1.594 6.961 3.118 13.43 4.571 6.515 1.453 11.789 3.187 15.82 5.203 4.031 2.015 7.008 4.453 8.93 7.312 1.969 2.813 2.953 6.258 2.953 10.336 0 6.797-2.719 12.258-8.156 16.383-5.438 4.078-12.493 6.117-21.164 6.117-6.094 0-11.485-1.078-16.172-3.234-4.688-2.156-8.368-5.156-11.039-9-2.625-3.891-3.938-8.086-3.938-12.586h13.008c.234 4.359 1.969 7.828 5.203 10.406 3.281 2.531 7.594 3.797 12.938 3.797 4.921 0 8.859-.984 11.812-2.953 3-2.016 4.5-4.688 4.5-8.016zM932.719 645h-13.008v-76.078h13.008V645zm-14.063-96.258c0-2.109.633-3.89 1.899-5.344 1.312-1.453 3.234-2.179 5.765-2.179 2.532 0 4.453.726 5.766 2.179 1.312 1.454 1.969 3.235 1.969 5.344 0 2.11-.657 3.867-1.969 5.274-1.313 1.406-3.234 2.109-5.766 2.109-2.531 0-4.453-.703-5.765-2.109-1.266-1.407-1.899-3.164-1.899-5.274zm47.25 20.18l.422 9.562c5.813-7.312 13.406-10.968 22.781-10.968 16.081 0 24.191 9.07 24.331 27.211V645h-13.01v-50.344c-.05-5.484-1.313-9.539-3.797-12.164-2.438-2.625-6.258-3.937-11.461-3.937-4.219 0-7.922 1.125-11.11 3.375-3.187 2.25-5.671 5.203-7.453 8.859V645h-13.007v-76.078h12.304zm92.254 58.43l18.84-58.43h13.29L1063.01 645h-9.92l-27.56-76.078h13.29l19.34 58.43zM1116.94 645h-13.01v-76.078h13.01V645zm-14.06-96.258c0-2.109.63-3.89 1.89-5.344 1.32-1.453 3.24-2.179 5.77-2.179 2.53 0 4.45.726 5.76 2.179 1.32 1.454 1.97 3.235 1.97 5.344 0 2.11-.65 3.867-1.97 5.274-1.31 1.406-3.23 2.109-5.76 2.109s-4.45-.703-5.77-2.109c-1.26-1.407-1.89-3.164-1.89-5.274zm52.59 1.758v18.422h14.2v10.055h-14.2v47.179c0 3.047.63 5.344 1.9 6.891 1.26 1.5 3.42 2.25 6.47 2.25 1.5 0 3.56-.281 6.18-.844V645c-3.42.938-6.75 1.406-9.98 1.406-5.81 0-10.2-1.758-13.15-5.273-2.95-3.516-4.43-8.508-4.43-14.977v-47.179h-13.85v-10.055h13.85V550.5h13.01zm76.43 94.5c-.75-1.5-1.36-4.172-1.83-8.016-6.05 6.282-13.27 9.422-21.66 9.422-7.5 0-13.66-2.109-18.49-6.328-4.78-4.266-7.17-9.656-7.17-16.172 0-7.922 3-14.062 9-18.422 6.05-4.406 14.53-6.609 25.45-6.609h12.66v-5.977c0-4.546-1.36-8.156-4.08-10.828-2.72-2.718-6.73-4.078-12.02-4.078-4.64 0-8.53 1.172-11.67 3.516-3.14 2.344-4.71 5.18-4.71 8.508h-13.08c0-3.797 1.33-7.454 4-10.969 2.72-3.563 6.38-6.375 10.97-8.438 4.64-2.062 9.73-3.093 15.26-3.093 8.77 0 15.63 2.203 20.6 6.609 4.97 4.359 7.55 10.383 7.74 18.07v35.016c0 6.984.89 12.539 2.67 16.664V645h-13.64zm-21.59-9.914c4.08 0 7.95-1.055 11.6-3.164 3.66-2.11 6.31-4.852 7.95-8.227v-15.609h-10.2c-15.93 0-23.9 4.664-23.9 13.992 0 4.078 1.36 7.266 4.08 9.563 2.71 2.297 6.21 3.445 10.47 3.445zm49.78-28.758c0-11.672 2.77-21.047 8.3-28.125 5.53-7.125 12.77-10.687 21.73-10.687 8.9 0 15.96 3.046 21.16 9.14V537h13.01v108h-11.95l-.64-8.156c-5.2 6.375-12.44 9.562-21.72 9.562-8.82 0-16.01-3.609-21.59-10.828-5.53-7.219-8.3-16.64-8.3-28.266v-.984zm13.01 1.477c0 8.625 1.78 15.375 5.35 20.25 3.56 4.875 8.48 7.312 14.76 7.312 8.25 0 14.27-3.703 18.07-11.109v-34.946c-3.89-7.171-9.87-10.757-17.93-10.757-6.37 0-11.34 2.461-14.9 7.383-3.57 4.921-5.35 12.21-5.35 21.867zm67.99-1.547c0-7.453 1.46-14.156 4.36-20.11 2.96-5.953 7.03-10.546 12.24-13.781 5.25-3.234 11.22-4.851 17.93-4.851 10.36 0 18.72 3.586 25.1 10.757 6.42 7.172 9.63 16.711 9.63 28.618v.914c0 7.406-1.43 14.062-4.29 19.968-2.81 5.86-6.86 10.43-12.16 13.711-5.25 3.282-11.3 4.922-18.14 4.922-10.31 0-18.68-3.586-25.1-10.758-6.38-7.171-9.57-16.664-9.57-28.476v-.914zm13.08 1.547c0 8.437 1.95 15.211 5.84 20.32 3.94 5.109 9.19 7.664 15.75 7.664 6.61 0 11.86-2.578 15.75-7.734 3.89-5.203 5.83-12.469 5.83-21.797 0-8.344-1.99-15.094-5.97-20.25-3.94-5.203-9.19-7.805-15.75-7.805-6.42 0-11.6 2.555-15.54 7.664-3.94 5.11-5.91 12.422-5.91 21.938zM595.984 790.625h13.571v72.492c0 9.797-2.953 17.461-8.86 22.992-5.859 5.532-13.687 8.297-23.484 8.297-10.172 0-18.094-2.601-23.766-7.804-5.672-5.204-8.507-12.493-8.507-21.868h13.5c0 5.86 1.593 10.43 4.781 13.711 3.234 3.282 7.898 4.922 13.992 4.922 5.578 0 10.078-1.758 13.5-5.273 3.469-3.516 5.227-8.438 5.273-14.766v-72.703zm81.493 94.852c-5.063 5.953-12.493 8.929-22.289 8.929-8.11 0-14.297-2.344-18.563-7.031-4.219-4.734-6.352-11.719-6.398-20.953v-49.5h13.007v49.148c0 11.532 4.688 17.297 14.063 17.297 9.937 0 16.547-3.703 19.828-11.109v-55.336h13.008V893h-12.375l-.281-7.523zm29.39-31.149c0-11.859 2.742-21.281 8.227-28.266 5.484-7.031 12.75-10.546 21.797-10.546 9.281 0 16.523 3.281 21.726 9.843l.633-8.437h11.883v74.25c0 9.844-2.93 17.601-8.789 23.273-5.813 5.672-13.641 8.508-23.485 8.508-5.484 0-10.851-1.172-16.101-3.515-5.25-2.344-9.258-5.555-12.024-9.633l6.75-7.805c5.578 6.891 12.399 10.336 20.461 10.336 6.328 0 11.25-1.781 14.766-5.344 3.562-3.562 5.344-8.578 5.344-15.047v-6.539c-5.203 6-12.305 9-21.305 9-8.906 0-16.125-3.586-21.656-10.758-5.485-7.171-8.227-16.945-8.227-29.32zm13.078 1.477c0 8.578 1.758 15.328 5.274 20.25 3.515 4.875 8.437 7.312 14.765 7.312 8.204 0 14.227-3.726 18.071-11.179v-34.735c-3.985-7.265-9.961-10.898-17.93-10.898-6.328 0-11.273 2.461-14.836 7.383-3.562 4.921-5.344 12.21-5.344 21.867zM837.789 893c-.75-1.5-1.359-4.172-1.828-8.016-6.047 6.282-13.266 9.422-21.656 9.422-7.5 0-13.664-2.109-18.493-6.328-4.781-4.266-7.171-9.656-7.171-16.172 0-7.922 3-14.062 9-18.422 6.047-4.406 14.531-6.609 25.453-6.609h12.656v-5.977c0-4.546-1.359-8.156-4.078-10.828-2.719-2.718-6.727-4.078-12.024-4.078-4.64 0-8.531 1.172-11.671 3.516-3.141 2.344-4.711 5.18-4.711 8.508h-13.078c0-3.797 1.335-7.454 4.007-10.969 2.719-3.563 6.375-6.375 10.969-8.438 4.641-2.062 9.727-3.093 15.258-3.093 8.766 0 15.633 2.203 20.601 6.609 4.969 4.359 7.547 10.383 7.735 18.07v35.016c0 6.984.89 12.539 2.672 16.664V893h-13.641zm-21.586-9.914c4.078 0 7.945-1.055 11.602-3.164 3.656-2.11 6.304-4.852 7.945-8.227v-15.609h-10.195c-15.938 0-23.907 4.664-23.907 13.992 0 4.078 1.36 7.266 4.079 9.563 2.718 2.297 6.211 3.445 10.476 3.445zm49.781-28.758c0-11.672 2.766-21.047 8.297-28.125 5.531-7.125 12.774-10.687 21.727-10.687 8.906 0 15.961 3.046 21.164 9.14V785h13.008v108h-11.953l-.633-8.156c-5.203 6.375-12.446 9.562-21.727 9.562-8.812 0-16.008-3.609-21.586-10.828-5.531-7.219-8.297-16.64-8.297-28.266v-.984zm13.008 1.477c0 8.625 1.781 15.375 5.344 20.25 3.562 4.875 8.484 7.312 14.766 7.312 8.25 0 14.273-3.703 18.07-11.109v-34.946c-3.891-7.171-9.867-10.757-17.93-10.757-6.375 0-11.344 2.461-14.906 7.383-3.563 4.921-5.344 12.21-5.344 21.867zm67.992-1.547c0-7.453 1.454-14.156 4.36-20.11 2.953-5.953 7.031-10.546 12.234-13.781 5.25-3.234 11.227-4.851 17.93-4.851 10.359 0 18.722 3.586 25.102 10.757 6.42 7.172 9.63 16.711 9.63 28.618v.914c0 7.406-1.43 14.062-4.29 19.968-2.81 5.86-6.86 10.43-12.161 13.711-5.25 3.282-11.297 4.922-18.141 4.922-10.312 0-18.679-3.586-25.101-10.758-6.375-7.171-9.563-16.664-9.563-28.476v-.914zm13.078 1.547c0 8.437 1.946 15.211 5.836 20.32 3.938 5.109 9.188 7.664 15.75 7.664 6.61 0 11.86-2.578 15.75-7.734 3.892-5.203 5.832-12.469 5.832-21.797 0-8.344-1.99-15.094-5.972-20.25-3.938-5.203-9.188-7.805-15.75-7.805-6.422 0-11.602 2.555-15.539 7.664-3.938 5.11-5.907 12.422-5.907 21.938zm109.268-27.211c-1.97-.328-4.1-.492-6.4-.492-8.53 0-14.32 3.632-17.37 10.898v54h-13.01v-76.078h12.66l.21 8.789c4.27-6.797 10.31-10.195 18.14-10.195 2.53 0 4.46.328 5.77.984v12.094zm42.19 65.812c-10.32 0-18.71-3.375-25.18-10.125-6.46-6.797-9.7-15.867-9.7-27.211v-2.39c0-7.547 1.43-14.274 4.29-20.18 2.91-5.953 6.94-10.594 12.09-13.922 5.21-3.375 10.83-5.062 16.88-5.062 9.89 0 17.58 3.257 23.06 9.773 5.49 6.516 8.23 15.844 8.23 27.984v5.415h-51.54c.19 7.5 2.37 13.57 6.54 18.21 4.22 4.594 9.56 6.891 16.03 6.891 4.59 0 8.48-.937 11.67-2.812 3.19-1.875 5.98-4.36 8.37-7.454l7.94 6.188c-6.37 9.797-15.93 14.695-28.68 14.695zm-1.62-68.203c-5.25 0-9.66 1.922-13.22 5.766-3.56 3.797-5.77 9.14-6.61 16.031h38.11v-.984c-.38-6.61-2.16-11.719-5.34-15.328-3.19-3.657-7.5-5.485-12.94-5.485zm90.7 46.617c0-3.515-1.33-6.234-4.01-8.156-2.62-1.969-7.24-3.656-13.85-5.062-6.56-1.407-11.79-3.094-15.68-5.063-3.84-1.969-6.7-4.312-8.58-7.031-1.82-2.719-2.74-5.953-2.74-9.703 0-6.235 2.63-11.508 7.88-15.821 5.29-4.312 12.04-6.468 20.25-6.468 8.62 0 15.61 2.226 20.95 6.679 5.39 4.453 8.09 10.149 8.09 17.086h-13.08c0-3.562-1.53-6.633-4.57-9.211-3-2.578-6.8-3.867-11.39-3.867-4.74 0-8.44 1.031-11.11 3.094-2.67 2.062-4.01 4.758-4.01 8.086 0 3.14 1.24 5.508 3.73 7.101 2.48 1.594 6.96 3.118 13.43 4.571 6.51 1.453 11.79 3.187 15.82 5.203 4.03 2.015 7 4.453 8.93 7.312 1.96 2.813 2.95 6.258 2.95 10.336 0 6.797-2.72 12.258-8.16 16.383-5.43 4.078-12.49 6.117-21.16 6.117-6.09 0-11.49-1.078-16.17-3.234-4.69-2.156-8.37-5.156-11.04-9-2.63-3.891-3.94-8.086-3.94-12.586h13.01c.23 4.359 1.97 7.828 5.2 10.406 3.28 2.531 7.6 3.797 12.94 3.797 4.92 0 8.86-.984 11.81-2.953 3-2.016 4.5-4.688 4.5-8.016zm65.18-21.375c0-10.593 1.41-20.765 4.22-30.515 2.86-9.75 7.1-18.61 12.73-26.578 5.62-7.969 11.46-13.594 17.5-16.875l2.68 8.578c-6.85 5.25-12.47 13.265-16.88 24.047-4.36 10.781-6.75 22.851-7.17 36.21l-.07 5.977c0 18.094 3.3 33.797 9.91 47.109 3.99 7.969 8.72 14.204 14.21 18.704l-2.68 7.945c-6.23-3.469-12.18-9.281-17.85-17.438-11.07-15.937-16.6-34.992-16.6-57.164zM1381.23 893h-67.07v-9.352l35.43-39.375c5.25-5.953 8.86-10.781 10.83-14.484 2.02-3.75 3.03-7.617 3.03-11.601 0-5.344-1.62-9.727-4.86-13.149-3.23-3.422-7.54-5.133-12.93-5.133-6.47 0-11.51 1.852-15.12 5.555-3.56 3.656-5.34 8.766-5.34 15.328h-13.01c0-9.422 3.02-17.039 9.07-22.851 6.09-5.813 14.22-8.719 24.4-8.719 9.51 0 17.04 2.508 22.57 7.523 5.53 4.969 8.29 11.602 8.29 19.899 0 10.078-6.42 22.078-19.26 36l-27.42 29.742h51.39V893zm17.72 8.789h-11.18l42.75-111.164h11.11l-42.68 111.164zm82.27-57.094l16.87-27.773h15.19l-24.89 37.617L1514.05 893h-15.04l-17.58-28.477L1463.85 893h-15.12l25.67-38.461-24.89-37.617h15.04l16.67 27.773zm71.44 0l16.87-27.773h15.19l-24.89 37.617L1585.49 893h-15.04l-17.58-28.477L1535.29 893h-15.12l25.67-38.461-24.89-37.617h15.04l16.67 27.773zm75.93 7.453c0 10.454-1.38 20.485-4.14 30.094a87.908 87.908 0 01-12.59 26.508c-5.63 8.109-11.53 13.875-17.72 17.297l-2.74-7.945c7.22-5.532 13.01-14.11 17.37-25.735 4.4-11.672 6.65-24.609 6.75-38.812v-2.25c0-9.844-1.04-18.985-3.1-27.422-2.06-8.485-4.94-16.078-8.65-22.781-3.65-6.704-7.78-11.93-12.37-15.68l2.74-7.945c6.19 3.421 12.07 9.14 17.65 17.156 5.62 8.015 9.82 16.851 12.59 26.508 2.81 9.656 4.21 19.992 4.21 31.007zM912.602 1036.7l16.875-27.78h15.187l-24.891 37.62 25.665 38.46h-15.047l-17.579-28.48-17.578 28.48h-15.117l25.664-38.46-24.89-37.62h15.047l16.664 27.78zm71.437 0l16.871-27.78h15.19l-24.889 37.62 25.669 38.46h-15.05l-17.58-28.48-17.578 28.48h-15.117l25.664-38.46-24.891-37.62h15.047l16.664 27.78zm71.441 0l16.87-27.78h15.19l-24.89 37.62 25.66 38.46h-15.04l-17.58-28.48-17.58 28.48h-15.12l25.67-38.46-24.89-37.62h15.04l16.67 27.78zm71.43 0l16.88-27.78h15.19l-24.89 37.62 25.66 38.46h-15.05l-17.58-28.48-17.57 28.48h-15.12l25.66-38.46-24.89-37.62h15.05l16.66 27.78zm71.44 0l16.88-27.78h15.18l-24.89 37.62 25.67 38.46h-15.05l-17.58-28.48-17.58 28.48h-15.11l25.66-38.46-24.89-37.62h15.05l16.66 27.78zm71.44 0l16.87-27.78h15.19l-24.89 37.62 25.66 38.46h-15.04l-17.58-28.48-17.58 28.48h-15.12l25.67-38.46-24.89-37.62h15.04l16.67 27.78zm45.42 6.75c0-10.6 1.41-20.77 4.22-30.52 2.86-9.75 7.1-18.61 12.73-26.578 5.62-7.969 11.46-13.594 17.5-16.875l2.68 8.578c-6.85 5.25-12.47 13.265-16.88 24.045-4.36 10.78-6.75 22.85-7.17 36.21l-.07 5.98c0 18.09 3.3 33.8 9.91 47.11 3.99 7.97 8.72 14.2 14.21 18.7l-2.68 7.95c-6.23-3.47-12.18-9.28-17.86-17.44-11.06-15.94-16.59-34.99-16.59-57.16zm108.28 14.83h-42.89l-9.63 26.72h-13.92l39.09-102.375h11.81L1447.12 1085h-13.85l-9.78-26.72zm-38.81-11.11h34.8l-17.43-47.881-17.37 47.881zm86.48-38.25l.43 9.56c5.81-7.31 13.4-10.96 22.78-10.96 16.08 0 24.18 9.07 24.33 27.21V1085h-13.01v-50.34c-.05-5.49-1.31-9.54-3.8-12.17-2.44-2.62-6.26-3.94-11.46-3.94-4.22 0-7.92 1.13-11.11 3.38-3.19 2.25-5.67 5.2-7.45 8.86V1085h-13.01v-76.08h12.3zm71.51 76.08v-66.02h-12.02v-10.06h12.02v-6.47c0-8.481 2.42-15.091 7.24-19.825 4.88-4.734 11.75-7.102 20.61-7.102 5.25 0 11.88 1.43 19.89 4.289l-2.18 10.969c-5.85-2.343-11.43-3.515-16.73-3.515-5.58 0-9.61 1.265-12.09 3.796-2.44 2.485-3.66 6.235-3.66 11.248v6.61h15.54v10.06h-15.54V1085h-13.08zm54.21 0h-13.08v-76.08h13.08V1085zm38.82-94.5v18.42h14.2v10.06h-14.2v47.18c0 3.04.63 5.34 1.89 6.89 1.27 1.5 3.43 2.25 6.47 2.25 1.5 0 3.56-.28 6.19-.85V1085c-3.42.94-6.75 1.41-9.98 1.41-5.82 0-10.2-1.76-13.15-5.28-2.96-3.51-4.43-8.51-4.43-14.97v-47.18h-13.85v-10.06h13.85V990.5h13.01zm66.23 30.09c-1.97-.32-4.1-.49-6.4-.49-8.53 0-14.32 3.63-17.37 10.9v54h-13v-76.08h12.65l.21 8.79c4.27-6.8 10.32-10.19 18.14-10.19 2.54 0 4.46.32 5.77.98v12.09zm26.16 64.41h-13.01v-76.08h13.01V1085zm-14.07-96.258c0-2.109.64-3.89 1.9-5.344 1.31-1.453 3.24-2.179 5.77-2.179 2.53 0 4.45.726 5.76 2.179 1.32 1.454 1.97 3.235 1.97 5.344 0 2.11-.65 3.867-1.97 5.274-1.31 1.406-3.23 2.109-5.76 2.109s-4.46-.703-5.77-2.109c-1.26-1.407-1.9-3.164-1.9-5.274zm31.5 57.518c0-7.46 1.46-14.16 4.36-20.11 2.96-5.95 7.03-10.55 12.24-13.78 5.25-3.24 11.22-4.85 17.93-4.85 10.36 0 18.72 3.58 25.1 10.75 6.42 7.18 9.63 16.71 9.63 28.62v.91c0 7.41-1.43 14.07-4.29 19.97-2.81 5.86-6.87 10.43-12.16 13.71-5.25 3.29-11.3 4.93-18.14 4.93-10.31 0-18.68-3.59-25.1-10.76-6.38-7.17-9.57-16.67-9.57-28.48v-.91zm13.08 1.54c0 8.44 1.95 15.22 5.84 20.32 3.94 5.11 9.18 7.67 15.75 7.67 6.61 0 11.86-2.58 15.75-7.74 3.89-5.2 5.83-12.46 5.83-21.79 0-8.35-1.99-15.1-5.97-20.25-3.94-5.21-9.19-7.81-15.75-7.81-6.43 0-11.6 2.56-15.54 7.67-3.94 5.11-5.91 12.42-5.91 21.93zm27.35-70.8h15.75l-18.84 20.672h-10.48L1785.95 977zm57.45 31.92l.42 9.56c5.81-7.31 13.41-10.96 22.78-10.96 16.08 0 24.19 9.07 24.33 27.21V1085h-13.01v-50.34c-.04-5.49-1.31-9.54-3.8-12.17-2.43-2.62-6.25-3.94-11.46-3.94-4.21 0-7.92 1.13-11.11 3.38-3.18 2.25-5.67 5.2-7.45 8.86V1085h-13.01v-76.08h12.31zm97.17 35.23c0 10.45-1.38 20.48-4.15 30.09-2.72 9.56-6.91 18.4-12.58 26.51-5.63 8.11-11.54 13.87-17.72 17.3l-2.74-7.95c7.21-5.53 13-14.11 17.36-25.73 4.41-11.67 6.66-24.61 6.75-38.82v-2.25c0-9.84-1.03-18.98-3.09-27.42-2.06-8.48-4.95-16.075-8.65-22.778-3.66-6.704-7.78-11.93-12.37-15.68l2.74-7.945c6.18 3.421 12.07 9.14 17.65 17.156 5.62 8.015 9.82 16.847 12.58 26.507 2.81 9.66 4.22 19.99 4.22 31.01zM919.602 1279.7l16.875-27.78h15.187l-24.891 37.62 25.665 38.46h-15.047l-17.579-28.48-17.578 28.48h-15.117l25.664-38.46-24.89-37.62h15.047l16.664 27.78zm71.437 0l16.871-27.78h15.19l-24.889 37.62 25.669 38.46h-15.05l-17.58-28.48-17.578 28.48h-15.117l25.664-38.46-24.891-37.62h15.047l16.664 27.78zm71.441 0l16.87-27.78h15.19l-24.89 37.62 25.66 38.46h-15.04l-17.58-28.48-17.58 28.48h-15.12l25.67-38.46-24.89-37.62h15.04l16.67 27.78zm71.43 0l16.88-27.78h15.19l-24.89 37.62 25.66 38.46h-15.05l-17.58-28.48-17.57 28.48h-15.12l25.66-38.46-24.89-37.62h15.05l16.66 27.78zm71.44 0l16.88-27.78h15.18l-24.89 37.62 25.67 38.46h-15.05l-17.58-28.48-17.58 28.48h-15.11l25.66-38.46-24.89-37.62h15.05l16.66 27.78zm71.44 0l16.87-27.78h15.19l-24.89 37.62 25.66 38.46h-15.04l-17.58-28.48-17.58 28.48h-15.12l25.67-38.46-24.89-37.62h15.04l16.67 27.78zm45.42 6.75c0-10.6 1.41-20.77 4.22-30.52 2.86-9.75 7.1-18.61 12.73-26.58 5.62-7.97 11.46-13.59 17.5-16.87l2.68 8.57c-6.85 5.25-12.47 13.27-16.88 24.05-4.36 10.78-6.75 22.85-7.17 36.21l-.07 5.98c0 18.09 3.3 33.8 9.91 47.11 3.99 7.97 8.72 14.2 14.21 18.7l-2.68 7.95c-6.23-3.47-12.18-9.28-17.86-17.44-11.06-15.94-16.59-34.99-16.59-57.16zm122.49-49.72h-32.91V1328h-13.43v-91.27h-32.84v-11.11h79.18v11.11zm53.36 83.75c-5.06 5.95-12.49 8.93-22.29 8.93-8.11 0-14.29-2.35-18.56-7.03-4.22-4.74-6.35-11.72-6.4-20.96v-49.5h13.01v49.15c0 11.53 4.69 17.3 14.06 17.3 9.94 0 16.55-3.71 19.83-11.11v-55.34h13.01V1328h-12.38l-.28-7.52zM1487.52 1220h15.75l-18.85 20.67h-10.47l13.57-20.67zm73.05 67.15c0 10.45-1.38 20.48-4.15 30.09-2.72 9.56-6.91 18.4-12.58 26.51-5.63 8.11-11.54 13.87-17.72 17.3l-2.74-7.95c7.21-5.53 13-14.11 17.36-25.73 4.41-11.67 6.66-24.61 6.75-38.82v-2.25c0-9.84-1.03-18.98-3.09-27.42-2.06-8.48-4.95-16.08-8.65-22.78-3.66-6.7-7.78-11.93-12.37-15.68l2.74-7.94c6.18 3.42 12.07 9.14 17.65 17.15 5.62 8.02 9.82 16.85 12.58 26.51 2.81 9.66 4.22 19.99 4.22 31.01zM940.375 1533.68h-44.367v36.28h51.539V1581h-65.039v-102.38h64.336v11.11h-50.836v32.91h44.367v11.04zm66.235 27.14c0-3.52-1.34-6.23-4.01-8.16-2.623-1.96-7.241-3.65-13.85-5.06-6.562-1.4-11.789-3.09-15.68-5.06-3.843-1.97-6.703-4.31-8.578-7.03-1.828-2.72-2.742-5.96-2.742-9.71 0-6.23 2.625-11.5 7.875-15.82 5.297-4.31 12.047-6.46 20.25-6.46 8.625 0 15.605 2.22 20.955 6.68 5.39 4.45 8.08 10.14 8.08 17.08h-13.07c0-3.56-1.53-6.63-4.57-9.21-3.004-2.58-6.801-3.87-11.395-3.87-4.734 0-8.437 1.03-11.109 3.1-2.672 2.06-4.008 4.75-4.008 8.08 0 3.14 1.242 5.51 3.726 7.1 2.485 1.6 6.961 3.12 13.43 4.57 6.516 1.46 11.786 3.19 15.816 5.21 4.04 2.01 7.01 4.45 8.93 7.31 1.97 2.81 2.96 6.26 2.96 10.34 0 6.79-2.72 12.25-8.16 16.38-5.44 4.08-12.491 6.12-21.163 6.12-6.094 0-11.485-1.08-16.172-3.24-4.687-2.15-8.367-5.15-11.039-9-2.625-3.89-3.938-8.08-3.938-12.58h13.008c.235 4.36 1.969 7.82 5.203 10.4 3.282 2.53 7.594 3.8 12.938 3.8 4.922 0 8.859-.99 11.813-2.95 3-2.02 4.5-4.69 4.5-8.02zm94.22-17.02c0 11.58-2.65 20.91-7.95 27.99-5.29 7.08-12.47 10.62-21.51 10.62-9.24 0-16.5-2.93-21.8-8.79v36.63h-13.01v-105.33h11.89l.63 8.44c5.3-6.56 12.65-9.84 22.08-9.84 9.14 0 16.36 3.44 21.65 10.33 5.35 6.89 8.02 16.48 8.02 28.76v1.19zm-13.01-1.47c0-8.58-1.83-15.35-5.48-20.32-3.66-4.97-8.68-7.46-15.05-7.46-7.88 0-13.78 3.5-17.72 10.48v36.35c3.89 6.94 9.84 10.41 17.86 10.41 6.23 0 11.18-2.46 14.84-7.38 3.7-4.97 5.55-12.33 5.55-22.08zm76.57 38.67c-.75-1.5-1.36-4.17-1.83-8.02-6.04 6.29-13.26 9.43-21.65 9.43-7.5 0-13.67-2.11-18.5-6.33-4.78-4.27-7.17-9.66-7.17-16.17 0-7.93 3-14.07 9-18.43 6.05-4.4 14.53-6.6 25.46-6.6h12.65v-5.98c0-4.55-1.36-8.16-4.08-10.83-2.72-2.72-6.72-4.08-12.02-4.08-4.64 0-8.53 1.17-11.67 3.52-3.14 2.34-4.71 5.18-4.71 8.51h-13.08c0-3.8 1.33-7.46 4.01-10.97 2.72-3.57 6.37-6.38 10.97-8.44 4.64-2.06 9.72-3.09 15.25-3.09 8.77 0 15.64 2.2 20.6 6.6 4.97 4.36 7.55 10.39 7.74 18.08v35.01c0 6.99.89 12.54 2.67 16.67v1.12h-13.64zm-21.59-9.91c4.08 0 7.95-1.06 11.61-3.17 3.65-2.11 6.3-4.85 7.94-8.22v-15.61h-10.19c-15.94 0-23.91 4.66-23.91 13.99 0 4.08 1.36 7.26 4.08 9.56 2.72 2.3 6.21 3.45 10.47 3.45zm83.47.7c4.64 0 8.69-1.41 12.16-4.22 3.47-2.81 5.39-6.33 5.77-10.55h12.3c-.23 4.36-1.73 8.51-4.5 12.45-2.77 3.94-6.47 7.08-11.11 9.42-4.59 2.34-9.47 3.52-14.62 3.52-10.36 0-18.61-3.45-24.75-10.34-6.1-6.94-9.14-16.41-9.14-28.41v-2.18c0-7.4 1.35-13.99 4.07-19.75 2.72-5.77 6.61-10.25 11.67-13.43 5.11-3.19 11.14-4.78 18.08-4.78 8.53 0 15.6 2.55 21.23 7.66 5.67 5.11 8.69 11.74 9.07 19.9h-12.3c-.38-4.92-2.25-8.96-5.63-12.1-3.33-3.18-7.45-4.78-12.37-4.78-6.61 0-11.75 2.39-15.4 7.18-3.61 4.73-5.42 11.6-5.42 20.6v2.46c0 8.76 1.81 15.51 5.42 20.25 3.61 4.73 8.76 7.1 15.47 7.1zm58.99 9.21h-13.01v-76.08h13.01V1581zm-14.06-96.26c0-2.11.63-3.89 1.89-5.34 1.32-1.45 3.24-2.18 5.77-2.18 2.53 0 4.45.73 5.76 2.18 1.32 1.45 1.97 3.23 1.97 5.34s-.65 3.87-1.97 5.28c-1.31 1.4-3.23 2.1-5.76 2.1s-4.45-.7-5.77-2.1c-1.26-1.41-1.89-3.17-1.89-5.28zm31.5 57.52c0-7.46 1.45-14.16 4.35-20.11 2.96-5.95 7.04-10.55 12.24-13.78 5.25-3.24 11.23-4.85 17.93-4.85 10.36 0 18.73 3.58 25.1 10.75 6.42 7.18 9.63 16.71 9.63 28.62v.91c0 7.41-1.43 14.07-4.29 19.97-2.81 5.86-6.86 10.43-12.16 13.71-5.25 3.29-11.3 4.93-18.14 4.93-10.31 0-18.68-3.59-25.1-10.76-6.38-7.17-9.56-16.67-9.56-28.48v-.91zm13.07 1.54c0 8.44 1.95 15.22 5.84 20.32 3.94 5.11 9.19 7.67 15.75 7.67 6.61 0 11.86-2.58 15.75-7.74 3.89-5.2 5.84-12.46 5.84-21.79 0-8.35-2-15.1-5.98-20.25-3.94-5.21-9.19-7.81-15.75-7.81-6.42 0-11.6 2.56-15.54 7.67-3.94 5.11-5.91 12.42-5.91 21.93zm105.05-1.47c0-11.67 2.77-21.05 8.3-28.13 5.53-7.12 12.77-10.68 21.72-10.68 8.91 0 15.96 3.04 21.17 9.14V1473h13.01v108h-11.96l-.63-8.16c-5.2 6.38-12.45 9.57-21.73 9.57-8.81 0-16-3.61-21.58-10.83-5.53-7.22-8.3-16.64-8.3-28.27v-.98zm13.01 1.47c0 8.63 1.78 15.38 5.34 20.25 3.56 4.88 8.49 7.32 14.77 7.32 8.25 0 14.27-3.71 18.07-11.11v-34.95c-3.89-7.17-9.87-10.76-17.93-10.76-6.38 0-11.35 2.47-14.91 7.39-3.56 4.92-5.34 12.21-5.34 21.86zm85.57 37.2h-13.01v-76.08h13.01V1581zm-14.06-96.26c0-2.11.63-3.89 1.89-5.34 1.32-1.45 3.24-2.18 5.77-2.18 2.53 0 4.45.73 5.77 2.18 1.31 1.45 1.96 3.23 1.96 5.34s-.65 3.87-1.96 5.28c-1.32 1.4-3.24 2.1-5.77 2.1-2.53 0-4.45-.7-5.77-2.1-1.26-1.41-1.89-3.17-1.89-5.28zm79.24 76.08c0-3.52-1.34-6.23-4.01-8.16-2.62-1.96-7.24-3.65-13.85-5.06-6.56-1.4-11.79-3.09-15.68-5.06-3.84-1.97-6.7-4.31-8.58-7.03-1.83-2.72-2.74-5.96-2.74-9.71 0-6.23 2.62-11.5 7.87-15.82 5.3-4.31 12.05-6.46 20.25-6.46 8.63 0 15.61 2.22 20.96 6.68 5.39 4.45 8.08 10.14 8.08 17.08h-13.08c0-3.56-1.52-6.63-4.57-9.21-3-2.58-6.79-3.87-11.39-3.87-4.73 0-8.43 1.03-11.11 3.1-2.67 2.06-4 4.75-4 8.08 0 3.14 1.24 5.51 3.72 7.1 2.49 1.6 6.96 3.12 13.43 4.57 6.52 1.46 11.79 3.19 15.82 5.21 4.03 2.01 7.01 4.45 8.93 7.31 1.97 2.81 2.96 6.26 2.96 10.34 0 6.79-2.72 12.25-8.16 16.38-5.44 4.08-12.49 6.12-21.16 6.12-6.1 0-11.49-1.08-16.18-3.24-4.68-2.15-8.36-5.15-11.04-9-2.62-3.89-3.93-8.08-3.93-12.58h13c.24 4.36 1.97 7.82 5.21 10.4 3.28 2.53 7.59 3.8 12.94 3.8 4.92 0 8.85-.99 11.81-2.95 3-2.02 4.5-4.69 4.5-8.02zm94.22-17.02c0 11.58-2.65 20.91-7.95 27.99-5.3 7.08-12.47 10.62-21.51 10.62-9.24 0-16.5-2.93-21.8-8.79v36.63h-13.01v-105.33h11.88l.64 8.44c5.29-6.56 12.65-9.84 22.07-9.84 9.15 0 16.36 3.44 21.66 10.33 5.34 6.89 8.02 16.48 8.02 28.76v1.19zm-13.01-1.47c0-8.58-1.83-15.35-5.49-20.32-3.65-4.97-8.67-7.46-15.04-7.46-7.88 0-13.78 3.5-17.72 10.48v36.35c3.89 6.94 9.84 10.41 17.86 10.41 6.23 0 11.18-2.46 14.83-7.38 3.71-4.97 5.56-12.33 5.56-22.08zm26.16-.07c0-7.46 1.45-14.16 4.35-20.11 2.96-5.95 7.04-10.55 12.24-13.78 5.25-3.24 11.23-4.85 17.93-4.85 10.36 0 18.73 3.58 25.1 10.75 6.42 7.18 9.63 16.71 9.63 28.62v.91c0 7.41-1.43 14.07-4.29 19.97-2.81 5.86-6.86 10.43-12.16 13.71-5.25 3.29-11.3 4.93-18.14 4.93-10.31 0-18.68-3.59-25.1-10.76-6.38-7.17-9.56-16.67-9.56-28.48v-.91zm13.07 1.54c0 8.44 1.95 15.22 5.84 20.32 3.94 5.11 9.19 7.67 15.75 7.67 6.61 0 11.86-2.58 15.75-7.74 3.89-5.2 5.84-12.46 5.84-21.79 0-8.35-2-15.1-5.98-20.25-3.94-5.21-9.19-7.81-15.75-7.81-6.42 0-11.6 2.56-15.54 7.67-3.94 5.11-5.91 12.42-5.91 21.93zm84.8-38.88l.42 9.56c5.81-7.31 13.41-10.96 22.78-10.96 16.08 0 24.19 9.07 24.33 27.21V1581h-13.01v-50.34c-.04-5.49-1.31-9.54-3.79-12.17-2.44-2.62-6.26-3.94-11.46-3.94-4.22 0-7.93 1.13-11.11 3.38-3.19 2.25-5.68 5.2-7.46 8.86V1581h-13v-76.08h12.3zm81.28 76.08h-13.01v-76.08h13.01V1581zm-14.06-96.26c0-2.11.63-3.89 1.9-5.34 1.31-1.45 3.23-2.18 5.76-2.18s4.46.73 5.77 2.18c1.31 1.45 1.97 3.23 1.97 5.34s-.66 3.87-1.97 5.28c-1.31 1.4-3.24 2.1-5.77 2.1-2.53 0-4.45-.7-5.76-2.1-1.27-1.41-1.9-3.17-1.9-5.28zm99.35 59.06c0 11.63-2.67 20.98-8.01 28.06-5.35 7.03-12.52 10.55-21.52 10.55-9.61 0-17.04-3.4-22.29-10.2l-.63 8.79h-11.96v-108h13.01v40.29c5.25-6.52 12.49-9.77 21.73-9.77 9.23 0 16.48 3.49 21.73 10.47 5.29 6.99 7.94 16.55 7.94 28.69v1.12zm-13.01-1.47c0-8.86-1.71-15.71-5.13-20.53-3.42-4.83-8.34-7.25-14.77-7.25-8.57 0-14.74 3.99-18.49 11.96v32.9c3.99 7.97 10.2 11.96 18.63 11.96 6.24 0 11.09-2.42 14.56-7.25 3.47-4.82 5.2-12.09 5.2-21.79zm43.6 38.67h-13.01v-108h13.01v108zm52.45 1.41c-10.31 0-18.7-3.38-25.17-10.13-6.47-6.8-9.71-15.87-9.71-27.21v-2.39c0-7.55 1.43-14.27 4.29-20.18 2.91-5.95 6.94-10.59 12.1-13.92 5.2-3.38 10.83-5.06 16.87-5.06 9.89 0 17.58 3.25 23.07 9.77 5.48 6.51 8.22 15.84 8.22 27.98v5.42h-51.54c.19 7.5 2.37 13.57 6.54 18.21 4.22 4.59 9.56 6.89 16.03 6.89 4.6 0 8.49-.94 11.67-2.81 3.19-1.88 5.98-4.36 8.37-7.46l7.95 6.19c-6.38 9.8-15.94 14.7-28.69 14.7zm-1.62-68.21c-5.25 0-9.65 1.92-13.22 5.77-3.56 3.8-5.76 9.14-6.61 16.03h38.11v-.98c-.37-6.61-2.15-11.72-5.34-15.33-3.19-3.66-7.5-5.49-12.94-5.49zM940.375 1766.68h-44.367v36.28h51.539V1814h-65.039v-102.38h64.336v11.11h-50.836v32.91h44.367v11.04zm66.235 27.14c0-3.52-1.34-6.23-4.01-8.16-2.623-1.96-7.241-3.65-13.85-5.06-6.562-1.4-11.789-3.09-15.68-5.06-3.843-1.97-6.703-4.31-8.578-7.03-1.828-2.72-2.742-5.96-2.742-9.71 0-6.23 2.625-11.5 7.875-15.82 5.297-4.31 12.047-6.46 20.25-6.46 8.625 0 15.605 2.22 20.955 6.68 5.39 4.45 8.08 10.14 8.08 17.08h-13.07c0-3.56-1.53-6.63-4.57-9.21-3.004-2.58-6.801-3.87-11.395-3.87-4.734 0-8.437 1.03-11.109 3.1-2.672 2.06-4.008 4.75-4.008 8.08 0 3.14 1.242 5.51 3.726 7.1 2.485 1.6 6.961 3.12 13.43 4.57 6.516 1.46 11.786 3.19 15.816 5.21 4.04 2.01 7.01 4.45 8.93 7.31 1.97 2.81 2.96 6.26 2.96 10.34 0 6.79-2.72 12.25-8.16 16.38-5.44 4.08-12.491 6.12-21.163 6.12-6.094 0-11.485-1.08-16.172-3.24-4.687-2.15-8.367-5.15-11.039-9-2.625-3.89-3.938-8.08-3.938-12.58h13.008c.235 4.36 1.969 7.82 5.203 10.4 3.282 2.53 7.594 3.8 12.938 3.8 4.922 0 8.859-.99 11.813-2.95 3-2.02 4.5-4.69 4.5-8.02zm94.22-17.02c0 11.58-2.65 20.91-7.95 27.99-5.29 7.08-12.47 10.62-21.51 10.62-9.24 0-16.5-2.93-21.8-8.79v36.63h-13.01v-105.33h11.89l.63 8.44c5.3-6.56 12.65-9.84 22.08-9.84 9.14 0 16.36 3.44 21.65 10.33 5.35 6.89 8.02 16.48 8.02 28.76v1.19zm-13.01-1.47c0-8.58-1.83-15.35-5.48-20.32-3.66-4.97-8.68-7.46-15.05-7.46-7.88 0-13.78 3.5-17.72 10.48v36.35c3.89 6.94 9.84 10.41 17.86 10.41 6.23 0 11.18-2.46 14.84-7.38 3.7-4.97 5.55-12.33 5.55-22.08zm76.57 38.67c-.75-1.5-1.36-4.17-1.83-8.02-6.04 6.29-13.26 9.43-21.65 9.43-7.5 0-13.67-2.11-18.5-6.33-4.78-4.27-7.17-9.66-7.17-16.17 0-7.93 3-14.07 9-18.43 6.05-4.4 14.53-6.6 25.46-6.6h12.65v-5.98c0-4.55-1.36-8.16-4.08-10.83-2.72-2.72-6.72-4.08-12.02-4.08-4.64 0-8.53 1.17-11.67 3.52-3.14 2.34-4.71 5.18-4.71 8.51h-13.08c0-3.8 1.33-7.46 4.01-10.97 2.72-3.57 6.37-6.38 10.97-8.44 4.64-2.06 9.72-3.09 15.25-3.09 8.77 0 15.64 2.2 20.6 6.6 4.97 4.36 7.55 10.39 7.74 18.08v35.01c0 6.99.89 12.54 2.67 16.67v1.12h-13.64zm-21.59-9.91c4.08 0 7.95-1.06 11.61-3.17 3.65-2.11 6.3-4.85 7.94-8.22v-15.61h-10.19c-15.94 0-23.91 4.66-23.91 13.99 0 4.08 1.36 7.26 4.08 9.56 2.72 2.3 6.21 3.45 10.47 3.45zm83.47.7c4.64 0 8.69-1.41 12.16-4.22 3.47-2.81 5.39-6.33 5.77-10.55h12.3c-.23 4.36-1.73 8.51-4.5 12.45-2.77 3.94-6.47 7.08-11.11 9.42-4.59 2.34-9.47 3.52-14.62 3.52-10.36 0-18.61-3.45-24.75-10.34-6.1-6.94-9.14-16.41-9.14-28.41v-2.18c0-7.4 1.35-13.99 4.07-19.75 2.72-5.77 6.61-10.25 11.67-13.43 5.11-3.19 11.14-4.78 18.08-4.78 8.53 0 15.6 2.55 21.23 7.66 5.67 5.11 8.69 11.74 9.07 19.9h-12.3c-.38-4.92-2.25-8.96-5.63-12.1-3.33-3.18-7.45-4.78-12.37-4.78-6.61 0-11.75 2.39-15.4 7.18-3.61 4.73-5.42 11.6-5.42 20.6v2.46c0 8.76 1.81 15.51 5.42 20.25 3.61 4.73 8.76 7.1 15.47 7.1zm58.99 9.21h-13.01v-76.08h13.01V1814zm-14.06-96.26c0-2.11.63-3.89 1.89-5.34 1.32-1.45 3.24-2.18 5.77-2.18 2.53 0 4.45.73 5.76 2.18 1.32 1.45 1.97 3.23 1.97 5.34s-.65 3.87-1.97 5.28c-1.31 1.4-3.23 2.1-5.76 2.1s-4.45-.7-5.77-2.1c-1.26-1.41-1.89-3.17-1.89-5.28zm31.5 57.52c0-7.46 1.45-14.16 4.35-20.11 2.96-5.95 7.04-10.55 12.24-13.78 5.25-3.24 11.23-4.85 17.93-4.85 10.36 0 18.73 3.58 25.1 10.75 6.42 7.18 9.63 16.71 9.63 28.62v.91c0 7.41-1.43 14.07-4.29 19.97-2.81 5.86-6.86 10.43-12.16 13.71-5.25 3.29-11.3 4.93-18.14 4.93-10.31 0-18.68-3.59-25.1-10.76-6.38-7.17-9.56-16.67-9.56-28.48v-.91zm13.07 1.54c0 8.44 1.95 15.22 5.84 20.32 3.94 5.11 9.19 7.67 15.75 7.67 6.61 0 11.86-2.58 15.75-7.74 3.89-5.2 5.84-12.46 5.84-21.79 0-8.35-2-15.1-5.98-20.25-3.94-5.21-9.19-7.81-15.75-7.81-6.42 0-11.6 2.56-15.54 7.67-3.94 5.11-5.91 12.42-5.91 21.93zm105.05-1.47c0-11.67 2.77-21.05 8.3-28.13 5.53-7.12 12.77-10.68 21.72-10.68 8.91 0 15.96 3.04 21.17 9.14V1706h13.01v108h-11.96l-.63-8.16c-5.2 6.38-12.45 9.57-21.73 9.57-8.81 0-16-3.61-21.58-10.83-5.53-7.22-8.3-16.64-8.3-28.27v-.98zm13.01 1.47c0 8.63 1.78 15.38 5.34 20.25 3.56 4.88 8.49 7.32 14.77 7.32 8.25 0 14.27-3.71 18.07-11.11v-34.95c-3.89-7.17-9.87-10.76-17.93-10.76-6.38 0-11.35 2.47-14.91 7.39-3.56 4.92-5.34 12.21-5.34 21.86zm85.57 37.2h-13.01v-76.08h13.01V1814zm-14.06-96.26c0-2.11.63-3.89 1.89-5.34 1.32-1.45 3.24-2.18 5.77-2.18 2.53 0 4.45.73 5.77 2.18 1.31 1.45 1.96 3.23 1.96 5.34s-.65 3.87-1.96 5.28c-1.32 1.4-3.24 2.1-5.77 2.1-2.53 0-4.45-.7-5.77-2.1-1.26-1.41-1.89-3.17-1.89-5.28zm79.24 76.08c0-3.52-1.34-6.23-4.01-8.16-2.62-1.96-7.24-3.65-13.85-5.06-6.56-1.4-11.79-3.09-15.68-5.06-3.84-1.97-6.7-4.31-8.58-7.03-1.83-2.72-2.74-5.96-2.74-9.71 0-6.23 2.62-11.5 7.87-15.82 5.3-4.31 12.05-6.46 20.25-6.46 8.63 0 15.61 2.22 20.96 6.68 5.39 4.45 8.08 10.14 8.08 17.08h-13.08c0-3.56-1.52-6.63-4.57-9.21-3-2.58-6.79-3.87-11.39-3.87-4.73 0-8.43 1.03-11.11 3.1-2.67 2.06-4 4.75-4 8.08 0 3.14 1.24 5.51 3.72 7.1 2.49 1.6 6.96 3.12 13.43 4.57 6.52 1.46 11.79 3.19 15.82 5.21 4.03 2.01 7.01 4.45 8.93 7.31 1.97 2.81 2.96 6.26 2.96 10.34 0 6.79-2.72 12.25-8.16 16.38-5.44 4.08-12.49 6.12-21.16 6.12-6.1 0-11.49-1.08-16.18-3.24-4.68-2.15-8.36-5.15-11.04-9-2.62-3.89-3.93-8.08-3.93-12.58h13c.24 4.36 1.97 7.82 5.21 10.4 3.28 2.53 7.59 3.8 12.94 3.8 4.92 0 8.85-.99 11.81-2.95 3-2.02 4.5-4.69 4.5-8.02zm94.22-17.02c0 11.58-2.65 20.91-7.95 27.99-5.3 7.08-12.47 10.62-21.51 10.62-9.24 0-16.5-2.93-21.8-8.79v36.63h-13.01v-105.33h11.88l.64 8.44c5.29-6.56 12.65-9.84 22.07-9.84 9.15 0 16.36 3.44 21.66 10.33 5.34 6.89 8.02 16.48 8.02 28.76v1.19zm-13.01-1.47c0-8.58-1.83-15.35-5.49-20.32-3.65-4.97-8.67-7.46-15.04-7.46-7.88 0-13.78 3.5-17.72 10.48v36.35c3.89 6.94 9.84 10.41 17.86 10.41 6.23 0 11.18-2.46 14.83-7.38 3.71-4.97 5.56-12.33 5.56-22.08zm26.16-.07c0-7.46 1.45-14.16 4.35-20.11 2.96-5.95 7.04-10.55 12.24-13.78 5.25-3.24 11.23-4.85 17.93-4.85 10.36 0 18.73 3.58 25.1 10.75 6.42 7.18 9.63 16.71 9.63 28.62v.91c0 7.41-1.43 14.07-4.29 19.97-2.81 5.86-6.86 10.43-12.16 13.71-5.25 3.29-11.3 4.93-18.14 4.93-10.31 0-18.68-3.59-25.1-10.76-6.38-7.17-9.56-16.67-9.56-28.48v-.91zm13.07 1.54c0 8.44 1.95 15.22 5.84 20.32 3.94 5.11 9.19 7.67 15.75 7.67 6.61 0 11.86-2.58 15.75-7.74 3.89-5.2 5.84-12.46 5.84-21.79 0-8.35-2-15.1-5.98-20.25-3.94-5.21-9.19-7.81-15.75-7.81-6.42 0-11.6 2.56-15.54 7.67-3.94 5.11-5.91 12.42-5.91 21.93zm84.8-38.88l.42 9.56c5.81-7.31 13.41-10.96 22.78-10.96 16.08 0 24.19 9.07 24.33 27.21V1814h-13.01v-50.34c-.04-5.49-1.31-9.54-3.79-12.17-2.44-2.62-6.26-3.94-11.46-3.94-4.22 0-7.93 1.13-11.11 3.38-3.19 2.25-5.68 5.2-7.46 8.86V1814h-13v-76.08h12.3zm81.28 76.08h-13.01v-76.08h13.01V1814zm-14.06-96.26c0-2.11.63-3.89 1.9-5.34 1.31-1.45 3.23-2.18 5.76-2.18s4.46.73 5.77 2.18c1.31 1.45 1.97 3.23 1.97 5.34s-.66 3.87-1.97 5.28c-1.31 1.4-3.24 2.1-5.77 2.1-2.53 0-4.45-.7-5.76-2.1-1.27-1.41-1.9-3.17-1.9-5.28zm99.35 59.06c0 11.63-2.67 20.98-8.01 28.06-5.35 7.03-12.52 10.55-21.52 10.55-9.61 0-17.04-3.4-22.29-10.2l-.63 8.79h-11.96v-108h13.01v40.29c5.25-6.52 12.49-9.77 21.73-9.77 9.23 0 16.48 3.49 21.73 10.47 5.29 6.99 7.94 16.55 7.94 28.69v1.12zm-13.01-1.47c0-8.86-1.71-15.71-5.13-20.53-3.42-4.83-8.34-7.25-14.77-7.25-8.57 0-14.74 3.99-18.49 11.96v32.9c3.99 7.97 10.2 11.96 18.63 11.96 6.24 0 11.09-2.42 14.56-7.25 3.47-4.82 5.2-12.09 5.2-21.79zm43.6 38.67h-13.01v-108h13.01v108zm52.45 1.41c-10.31 0-18.7-3.38-25.17-10.13-6.47-6.8-9.71-15.87-9.71-27.21v-2.39c0-7.55 1.43-14.27 4.29-20.18 2.91-5.95 6.94-10.59 12.1-13.92 5.2-3.38 10.83-5.06 16.87-5.06 9.89 0 17.58 3.25 23.07 9.77 5.48 6.51 8.22 15.84 8.22 27.98v5.42h-51.54c.19 7.5 2.37 13.57 6.54 18.21 4.22 4.59 9.56 6.89 16.03 6.89 4.6 0 8.49-.94 11.67-2.81 3.19-1.88 5.98-4.36 8.37-7.46l7.95 6.19c-6.38 9.8-15.94 14.7-28.69 14.7zm-1.62-68.21c-5.25 0-9.65 1.92-13.22 5.77-3.56 3.8-5.76 9.14-6.61 16.03h38.11v-.98c-.37-6.61-2.15-11.72-5.34-15.33-3.19-3.66-7.5-5.49-12.94-5.49z"/>
  <path fill="#C4C4C4" d="M2331 962h879v464h-879z"/>
  <path fill="#000" d="M2664.75 1102.68h-44.37v36.28h51.54V1150h-65.04v-102.38h64.34v11.11h-50.84v32.91h44.37v11.04zm66.23 27.14c0-3.52-1.33-6.23-4-8.16-2.63-1.96-7.25-3.65-13.86-5.06-6.56-1.4-11.78-3.09-15.67-5.06-3.85-1.97-6.71-4.31-8.58-7.03-1.83-2.72-2.75-5.96-2.75-9.71 0-6.23 2.63-11.5 7.88-15.82 5.3-4.31 12.05-6.46 20.25-6.46 8.63 0 15.61 2.22 20.95 6.68 5.39 4.45 8.09 10.14 8.09 17.08h-13.08c0-3.56-1.52-6.63-4.57-9.21-3-2.58-6.8-3.87-11.39-3.87-4.73 0-8.44 1.03-11.11 3.1-2.67 2.06-4.01 4.75-4.01 8.08 0 3.14 1.25 5.51 3.73 7.1 2.48 1.6 6.96 3.12 13.43 4.57 6.51 1.46 11.79 3.19 15.82 5.21 4.03 2.01 7.01 4.45 8.93 7.31 1.97 2.81 2.95 6.26 2.95 10.34 0 6.79-2.72 12.25-8.15 16.38-5.44 4.08-12.5 6.12-21.17 6.12-6.09 0-11.48-1.08-16.17-3.24-4.69-2.15-8.37-5.15-11.04-9-2.62-3.89-3.94-8.08-3.94-12.58h13.01c.24 4.36 1.97 7.82 5.2 10.4 3.29 2.53 7.6 3.8 12.94 3.8 4.92 0 8.86-.99 11.81-2.95 3-2.02 4.5-4.69 4.5-8.02zm47.61-74.32v18.42h14.2v10.06h-14.2v47.18c0 3.04.63 5.34 1.89 6.89 1.27 1.5 3.43 2.25 6.47 2.25 1.5 0 3.57-.28 6.19-.85V1150c-3.42.94-6.75 1.41-9.98 1.41-5.82 0-10.2-1.76-13.15-5.28-2.96-3.51-4.43-8.51-4.43-14.97v-47.18h-13.85v-10.06h13.85v-18.42h13.01zm24.61 55.76c0-7.46 1.45-14.16 4.35-20.11 2.96-5.95 7.04-10.55 12.24-13.78 5.25-3.24 11.23-4.85 17.93-4.85 10.36 0 18.73 3.58 25.1 10.75 6.42 7.18 9.63 16.71 9.63 28.62v.91c0 7.41-1.43 14.07-4.29 19.97-2.81 5.86-6.86 10.43-12.16 13.71-5.25 3.29-11.3 4.93-18.14 4.93-10.31 0-18.68-3.59-25.1-10.76-6.38-7.17-9.56-16.67-9.56-28.48v-.91zm13.07 1.54c0 8.44 1.95 15.22 5.84 20.32 3.94 5.11 9.19 7.67 15.75 7.67 6.61 0 11.86-2.58 15.75-7.74 3.89-5.2 5.84-12.46 5.84-21.79 0-8.35-2-15.1-5.98-20.25-3.94-5.21-9.19-7.81-15.75-7.81-6.42 0-11.6 2.56-15.54 7.67-3.94 5.11-5.91 12.42-5.91 21.93zm96.26 18.15l17.72-57.03h13.92l-30.58 87.82c-4.74 12.66-12.26 18.99-22.57 18.99l-2.47-.21-4.85-.92v-10.55l3.52.29c4.4 0 7.83-.89 10.26-2.68 2.49-1.78 4.53-5.04 6.12-9.77l2.88-7.73-27.14-75.24h14.21l18.98 57.03zm-273.87 177.01h48.52V1319h-62.09v-102.38h13.57v91.34zm76.01 11.04h-13.01v-76.08h13.01V1319zm-14.06-96.26c0-2.11.63-3.89 1.9-5.34 1.31-1.45 3.23-2.18 5.76-2.18s4.46.73 5.77 2.18c1.31 1.45 1.97 3.23 1.97 5.34s-.66 3.87-1.97 5.28c-1.31 1.4-3.24 2.1-5.77 2.1-2.53 0-4.45-.7-5.76-2.1-1.27-1.41-1.9-3.17-1.9-5.28zm79.24 76.08c0-3.52-1.33-6.23-4.01-8.16-2.62-1.96-7.24-3.65-13.85-5.06-6.56-1.4-11.79-3.09-15.68-5.06-3.84-1.97-6.7-4.31-8.58-7.03-1.82-2.72-2.74-5.96-2.74-9.71 0-6.23 2.63-11.5 7.88-15.82 5.29-4.31 12.04-6.46 20.25-6.46 8.62 0 15.61 2.22 20.95 6.68 5.39 4.45 8.09 10.14 8.09 17.08h-13.08c0-3.56-1.53-6.63-4.57-9.21-3-2.58-6.8-3.87-11.39-3.87-4.74 0-8.44 1.03-11.11 3.1-2.67 2.06-4.01 4.75-4.01 8.08 0 3.14 1.24 5.51 3.73 7.1 2.48 1.6 6.96 3.12 13.43 4.57 6.51 1.46 11.79 3.19 15.82 5.21 4.03 2.01 7 4.45 8.93 7.31 1.97 2.81 2.95 6.26 2.95 10.34 0 6.79-2.72 12.25-8.16 16.38-5.43 4.08-12.49 6.12-21.16 6.12-6.09 0-11.49-1.08-16.17-3.24-4.69-2.15-8.37-5.15-11.04-9-2.63-3.89-3.94-8.08-3.94-12.58h13.01c.23 4.36 1.97 7.82 5.2 10.4 3.28 2.53 7.6 3.8 12.94 3.8 4.92 0 8.86-.99 11.81-2.95 3-2.02 4.5-4.69 4.5-8.02zm47.6-74.32v18.42h14.21v10.06h-14.21v47.18c0 3.04.64 5.34 1.9 6.89 1.27 1.5 3.42 2.25 6.47 2.25 1.5 0 3.56-.28 6.19-.85V1319c-3.42.94-6.75 1.41-9.99 1.41-5.81 0-10.19-1.76-13.14-5.28-2.96-3.51-4.43-8.51-4.43-14.97v-47.18h-13.86v-10.06h13.86v-18.42h13zm24.61 55.76c0-7.46 1.46-14.16 4.36-20.11 2.96-5.95 7.03-10.55 12.24-13.78 5.25-3.24 11.22-4.85 17.93-4.85 10.36 0 18.72 3.58 25.1 10.75 6.42 7.18 9.63 16.71 9.63 28.62v.91c0 7.41-1.43 14.07-4.29 19.97-2.81 5.86-6.87 10.43-12.16 13.71-5.25 3.29-11.3 4.93-18.14 4.93-10.32 0-18.68-3.59-25.11-10.76-6.37-7.17-9.56-16.67-9.56-28.48v-.91zm13.08 1.54c0 8.44 1.95 15.22 5.84 20.32 3.93 5.11 9.18 7.67 15.75 7.67 6.61 0 11.86-2.58 15.75-7.74 3.89-5.2 5.83-12.46 5.83-21.79 0-8.35-1.99-15.1-5.97-20.25-3.94-5.21-9.19-7.81-15.75-7.81-6.43 0-11.61 2.56-15.54 7.67-3.94 5.11-5.91 12.42-5.91 21.93zM1475.35 281.367c-11.58-3.328-20.01-7.406-25.31-12.234-5.25-4.875-7.88-10.875-7.88-18 0-8.063 3.22-14.719 9.64-19.969 6.47-5.297 14.86-7.945 25.17-7.945 7.03 0 13.29 1.359 18.77 4.078 5.53 2.719 9.8 6.469 12.8 11.25 3.05 4.781 4.57 10.008 4.57 15.68h-13.57c0-6.188-1.97-11.039-5.91-14.555-3.93-3.563-9.49-5.344-16.66-5.344-6.66 0-11.86 1.477-15.61 4.43-3.7 2.906-5.56 6.961-5.56 12.164 0 4.172 1.76 7.711 5.28 10.617 3.56 2.859 9.58 5.484 18.07 7.875 8.53 2.391 15.19 5.039 19.97 7.945 4.83 2.86 8.39 6.211 10.68 10.055 2.35 3.844 3.52 8.367 3.52 13.57 0 8.297-3.23 14.954-9.7 19.969-6.47 4.969-15.12 7.453-25.95 7.453-7.03 0-13.59-1.336-19.69-4.008-6.09-2.718-10.8-6.421-14.13-11.109-3.28-4.687-4.92-10.008-4.92-15.961h13.57c0 6.188 2.27 11.086 6.82 14.695 4.59 3.563 10.71 5.344 18.35 5.344 7.13 0 12.59-1.453 16.38-4.359 3.8-2.906 5.7-6.867 5.7-11.883 0-5.016-1.76-8.883-5.27-11.602-3.52-2.765-9.89-5.484-19.13-8.156zM1575.62 327c-.75-1.5-1.36-4.172-1.83-8.016-6.05 6.282-13.27 9.422-21.66 9.422-7.5 0-13.66-2.109-18.49-6.328-4.78-4.266-7.17-9.656-7.17-16.172 0-7.922 3-14.062 9-18.422 6.05-4.406 14.53-6.609 25.45-6.609h12.66v-5.977c0-4.546-1.36-8.156-4.08-10.828-2.72-2.718-6.73-4.078-12.02-4.078-4.64 0-8.53 1.172-11.68 3.516-3.14 2.344-4.71 5.18-4.71 8.508h-13.07c0-3.797 1.33-7.454 4-10.969 2.72-3.563 6.38-6.375 10.97-8.438 4.64-2.062 9.73-3.093 15.26-3.093 8.77 0 15.63 2.203 20.6 6.609 4.97 4.359 7.55 10.383 7.74 18.07v35.016c0 6.984.89 12.539 2.67 16.664V327h-13.64zm-21.59-9.914c4.08 0 7.95-1.055 11.6-3.164 3.66-2.11 6.31-4.852 7.95-8.227v-15.609h-10.2c-15.93 0-23.9 4.664-23.9 13.992 0 4.078 1.36 7.266 4.07 9.563 2.72 2.297 6.22 3.445 10.48 3.445zm67.08 9.914h-13.01V219h13.01v108zm67.85 0c-.75-1.5-1.36-4.172-1.83-8.016-6.04 6.282-13.26 9.422-21.65 9.422-7.5 0-13.67-2.109-18.5-6.328-4.78-4.266-7.17-9.656-7.17-16.172 0-7.922 3-14.062 9-18.422 6.05-4.406 14.53-6.609 25.46-6.609h12.65v-5.977c0-4.546-1.36-8.156-4.08-10.828-2.72-2.718-6.72-4.078-12.02-4.078-4.64 0-8.53 1.172-11.67 3.516-3.14 2.344-4.71 5.18-4.71 8.508h-13.08c0-3.797 1.34-7.454 4.01-10.969 2.72-3.563 6.37-6.375 10.97-8.438 4.64-2.062 9.72-3.093 15.25-3.093 8.77 0 15.64 2.203 20.61 6.609 4.96 4.359 7.54 10.383 7.73 18.07v35.016c0 6.984.89 12.539 2.67 16.664V327h-13.64zm-21.58-9.914c4.07 0 7.94-1.055 11.6-3.164 3.65-2.11 6.3-4.852 7.94-8.227v-15.609h-10.19c-15.94 0-23.91 4.664-23.91 13.992 0 4.078 1.36 7.266 4.08 9.563 2.72 2.297 6.21 3.445 10.48 3.445zm85.5-28.758c0-11.672 2.76-21.047 8.29-28.125 5.53-7.125 12.78-10.687 21.73-10.687 8.9 0 15.96 3.046 21.16 9.14V219h13.01v108h-11.95l-.64-8.156c-5.2 6.375-12.44 9.562-21.72 9.562-8.81 0-16.01-3.609-21.59-10.828-5.53-7.219-8.29-16.64-8.29-28.266v-.984zm13 1.477c0 8.625 1.78 15.375 5.35 20.25 3.56 4.875 8.48 7.312 14.76 7.312 8.25 0 14.28-3.703 18.07-11.109v-34.946c-3.89-7.171-9.86-10.757-17.93-10.757-6.37 0-11.34 2.461-14.9 7.383-3.57 4.921-5.35 12.21-5.35 21.867zm103.01 38.601c-10.31 0-18.7-3.375-25.17-10.125-6.47-6.797-9.7-15.867-9.7-27.211v-2.39c0-7.547 1.43-14.274 4.28-20.18 2.91-5.953 6.94-10.594 12.1-13.922 5.2-3.375 10.83-5.062 16.87-5.062 9.89 0 17.58 3.257 23.07 9.773 5.48 6.516 8.22 15.844 8.22 27.984v5.415h-51.54c.19 7.5 2.37 13.57 6.54 18.21 4.22 4.594 9.56 6.891 16.03 6.891 4.6 0 8.49-.937 11.68-2.812 3.18-1.875 5.97-4.36 8.36-7.454l7.95 6.188c-6.38 9.797-15.94 14.695-28.69 14.695zm-1.62-68.203c-5.25 0-9.65 1.922-13.22 5.766-3.56 3.797-5.76 9.14-6.6 16.031h38.1v-.984c-.37-6.61-2.15-11.719-5.34-15.328-3.19-3.657-7.5-5.485-12.94-5.485zm113.7 68.203c-10.31 0-18.7-3.375-25.17-10.125-6.47-6.797-9.71-15.867-9.71-27.211v-2.39c0-7.547 1.43-14.274 4.29-20.18 2.91-5.953 6.94-10.594 12.1-13.922 5.2-3.375 10.82-5.062 16.87-5.062 9.89 0 17.58 3.257 23.06 9.773 5.49 6.516 8.23 15.844 8.23 27.984v5.415h-51.54c.19 7.5 2.37 13.57 6.54 18.21 4.22 4.594 9.56 6.891 16.03 6.891 4.6 0 8.49-.937 11.67-2.812 3.19-1.875 5.98-4.36 8.37-7.454l7.95 6.188c-6.38 9.797-15.94 14.695-28.69 14.695zm-1.62-68.203c-5.25 0-9.65 1.922-13.22 5.766-3.56 3.797-5.76 9.14-6.61 16.031h38.11v-.984c-.37-6.61-2.15-11.719-5.34-15.328-3.19-3.657-7.5-5.485-12.94-5.485zm90.7 46.617c0-3.515-1.33-6.234-4-8.156-2.63-1.969-7.25-3.656-13.85-5.062-6.57-1.407-11.79-3.094-15.68-5.063-3.85-1.969-6.71-4.312-8.58-7.031-1.83-2.719-2.74-5.953-2.74-9.703 0-6.235 2.62-11.508 7.87-15.821 5.3-4.312 12.05-6.468 20.25-6.468 8.63 0 15.61 2.226 20.95 6.679 5.39 4.453 8.09 10.149 8.09 17.086h-13.08c0-3.562-1.52-6.633-4.57-9.211-3-2.578-6.8-3.867-11.39-3.867-4.73 0-8.44 1.031-11.11 3.094-2.67 2.062-4.01 4.758-4.01 8.086 0 3.14 1.25 5.508 3.73 7.101 2.48 1.594 6.96 3.118 13.43 4.571 6.52 1.453 11.79 3.187 15.82 5.203 4.03 2.015 7.01 4.453 8.93 7.312 1.97 2.813 2.95 6.258 2.95 10.336 0 6.797-2.72 12.258-8.15 16.383-5.44 4.078-12.5 6.117-21.17 6.117-6.09 0-11.48-1.078-16.17-3.234-4.69-2.156-8.37-5.156-11.04-9-2.62-3.891-3.94-8.086-3.94-12.586h13.01c.24 4.359 1.97 7.828 5.2 10.406 3.29 2.531 7.6 3.797 12.94 3.797 4.92 0 8.86-.984 11.81-2.953 3-2.016 4.5-4.688 4.5-8.016zm94.22-17.015c0 11.578-2.65 20.906-7.94 27.984-5.3 7.078-12.47 10.617-21.52 10.617-9.23 0-16.5-2.929-21.79-8.789v36.633h-13.01V250.922h11.88l.63 8.437c5.3-6.562 12.66-9.843 22.08-9.843 9.14 0 16.36 3.445 21.66 10.336 5.34 6.89 8.01 16.476 8.01 28.757v1.196zm-13-1.477c0-8.578-1.83-15.351-5.49-20.32-3.66-4.969-8.67-7.453-15.05-7.453-7.87 0-13.78 3.492-17.71 10.476v36.352c3.89 6.937 9.84 10.406 17.86 10.406 6.23 0 11.17-2.461 14.83-7.383 3.7-4.968 5.56-12.328 5.56-22.078zm61.17 40.078c-10.32 0-18.71-3.375-25.17-10.125-6.47-6.797-9.71-15.867-9.71-27.211v-2.39c0-7.547 1.43-14.274 4.29-20.18 2.91-5.953 6.94-10.594 12.1-13.922 5.2-3.375 10.82-5.062 16.87-5.062 9.89 0 17.58 3.257 23.06 9.773 5.49 6.516 8.23 15.844 8.23 27.984v5.415h-51.54c.19 7.5 2.37 13.57 6.54 18.21 4.22 4.594 9.56 6.891 16.03 6.891 4.59 0 8.48-.937 11.67-2.812 3.19-1.875 5.98-4.36 8.37-7.454l7.94 6.188c-6.37 9.797-15.93 14.695-28.68 14.695zm-1.62-68.203c-5.25 0-9.66 1.922-13.22 5.766-3.56 3.797-5.76 9.14-6.61 16.031h38.11v-.984c-.37-6.61-2.15-11.719-5.34-15.328-3.19-3.657-7.5-5.485-12.94-5.485zm83.18 2.391c-1.97-.328-4.1-.492-6.4-.492-8.53 0-14.32 3.632-17.37 10.898v54h-13v-76.078h12.65l.21 8.789c4.27-6.797 10.32-10.195 18.14-10.195 2.54 0 4.46.328 5.77.984v12.094zM2350.18 327c-.75-1.5-1.36-4.172-1.83-8.016-6.05 6.282-13.26 9.422-21.65 9.422-7.5 0-13.67-2.109-18.5-6.328-4.78-4.266-7.17-9.656-7.17-16.172 0-7.922 3-14.062 9-18.422 6.05-4.406 14.53-6.609 25.45-6.609h12.66v-5.977c0-4.546-1.36-8.156-4.08-10.828-2.72-2.718-6.72-4.078-12.02-4.078-4.64 0-8.53 1.172-11.67 3.516-3.14 2.344-4.71 5.18-4.71 8.508h-13.08c0-3.797 1.33-7.454 4.01-10.969 2.71-3.563 6.37-6.375 10.96-8.438 4.65-2.062 9.73-3.093 15.26-3.093 8.77 0 15.64 2.203 20.6 6.609 4.97 4.359 7.55 10.383 7.74 18.07v35.016c0 6.984.89 12.539 2.67 16.664V327h-13.64zm-21.59-9.914c4.08 0 7.95-1.055 11.61-3.164 3.65-2.11 6.3-4.852 7.94-8.227v-15.609h-10.19c-15.94 0-23.91 4.664-23.91 13.992 0 4.078 1.36 7.266 4.08 9.563 2.72 2.297 6.21 3.445 10.47 3.445z"/>
</svg>
