<svg xmlns="http://www.w3.org/2000/svg" xmlns:xlink="http://www.w3.org/1999/xlink" width="3898" height="2225" fill="none" viewBox="0 0 3898 2225">
  <path fill="#C4C4C4" d="M1261 408h100v100h-100z"/>
  <g clip-path="url(#clip0)">
    <path fill="#fff" d="M0 0h3898v2225H0z"/>
    <g filter="url(#filter0_bddddddddf)">
      <path fill="#C4C4C4" d="M93.283 1297.93h150.833v255.96H93.283z"/>
      <path stroke="#000" stroke-width="3" d="M94.783 1299.43h147.833v252.96H94.783z"/>
    </g>
    <g clip-path="url(#clip1)">
      <path fill="#A16B4E" d="M209.58 1406.51c0 23.98-19.735 36.8-44.081 36.8-24.346 0-44.081-12.82-44.081-36.8 0-23.98 19.736-43.42 44.081-43.42 24.346 0 44.081 19.44 44.081 43.42z"/>
      <g opacity=".1">
        <path fill="#000" d="M165.501 1422.12c-1.464 0-2.651-1.39-2.651-3.1v-4.61c0-1.71 1.187-3.1 2.651-3.1 1.464 0 2.651 1.39 2.651 3.1v4.61c0 1.71-1.187 3.1-2.651 3.1zM153.409 1415.37c-1.464 0-2.651-1.39-2.651-3.11v-4.91c0-1.71 1.187-3.1 2.651-3.1 1.464 0 2.652 1.39 2.652 3.1v4.91c0 1.72-1.188 3.11-2.652 3.11zM177.593 1415.37c-1.464 0-2.652-1.39-2.652-3.11v-4.91c0-1.71 1.188-3.1 2.652-3.1 1.464 0 2.651 1.39 2.651 3.1v4.91c0 1.72-1.187 3.11-2.651 3.11z" opacity=".1"/>
      </g>
      <path fill="#7D4E3E" d="M107.77 1388.89c-3.277 10.55-4.38 40.71 4.623 44.55 9.002 3.83 24.7-20.1 27.977-30.64 3.276-10.55-1.365-22.22-10.368-26.05-9.002-3.84-18.956 1.59-22.232 12.14zM223.231 1388.89c3.276 10.55 4.379 40.71-4.623 44.55-9.002 3.83-24.701-20.1-27.977-30.64-3.277-10.55 1.365-22.22 10.367-26.05 9.002-3.84 18.956 1.59 22.233 12.14z"/>
      <path fill="#000" d="M200.997 1376.74c-.8.35-1.564.75-2.293 1.21-8.081-9.11-19.96-14.86-33.205-14.86-13.244 0-25.124 5.75-33.204 14.86-.729-.46-1.493-.86-2.293-1.21-5.234-2.23-10.788-1.32-15.166 1.9 11.164 15.74 29.691 26.04 50.664 26.04 20.972 0 39.499-10.3 50.664-26.04-4.379-3.22-9.932-4.13-15.167-1.9z" opacity=".15"/>
      <path fill="#A16B4E" d="M165.5 1394.23c39.349 0 71.248-31.42 71.248-70.18 0-38.76-31.899-70.18-71.248-70.18-39.349 0-71.248 31.42-71.248 70.18 0 38.76 31.899 70.18 71.248 70.18z"/>
      <path fill="#A16B4E" d="M165.5 1392.77c39.349 0 71.248-31.42 71.248-70.18 0-38.76-31.899-70.18-71.248-70.18-39.349 0-71.248 31.42-71.248 70.18 0 38.76 31.899 70.18 71.248 70.18z"/>
      <path fill="#000" d="M213.057 1271.79c10.594 12.25 16.991 28.13 16.991 45.49 0 38.76-31.899 70.18-71.249 70.18-18.277 0-34.944-6.78-47.557-17.93 13.069 15.11 32.525 24.7 54.258 24.7 39.349 0 71.249-31.42 71.249-70.18 0-20.76-9.151-39.41-23.692-52.26z" opacity=".1"/>
      <path fill="#FC8063" d="M204.256 1308.7l32.558-48.52c2.967-4.42-.412-10.76-5.105-9.59l-12.4 3.12c-4.616 1.16-9.401.99-13.952-.48l-15.467-4.99c-7.138-2.31-14.77-1.1-21.129 3.35-2.009 1.4-4.513 1.4-6.522 0-6.359-4.45-13.991-5.66-21.13-3.35l-15.466 4.99c-4.551 1.47-9.337 1.64-13.952.48l-12.4-3.12c-4.693-1.17-8.072 5.17-5.105 9.59l32.558 48.52h77.512z"/>
      <path fill="#FAD97E" d="M138.868 1339.91c14.708 0 26.632-13.97 26.632-31.21 0-17.23-11.924-31.2-26.632-31.2-14.708 0-26.632 13.97-26.632 31.2 0 17.24 11.924 31.21 26.632 31.21z"/>
      <path fill="#FAD97E" d="M192.128 1339.91c14.708 0 26.632-13.97 26.632-31.21 0-17.23-11.924-31.2-26.632-31.2-14.708 0-26.632 13.97-26.632 31.2 0 17.24 11.924 31.21 26.632 31.21z"/>
      <path fill="#000" d="M161.885 1316.3l-7.534 17.02c-1.684 3.8-1.071 8.45 1.514 11.48l6.467 7.57c1.75 2.05 4.586 2.05 6.336 0l6.467-7.57c2.586-3.03 3.199-7.68 1.515-11.48l-7.535-17.02c-1.52-3.43-5.71-3.43-7.23 0z" opacity=".1"/>
      <g>
        <path fill="#FC8063" d="M161.885 1310.44l-7.534 17.02c-1.684 3.81-1.071 8.45 1.514 11.48l6.467 7.58c1.75 2.05 4.586 2.05 6.336 0l6.467-7.58c2.586-3.03 3.199-7.67 1.515-11.48l-7.535-17.02c-1.52-3.43-5.71-3.43-7.23 0zM149.462 1452.97c-3.796 0-6.874-3.6-6.874-8.05v-11.07c0-4.45 3.077-8.06 6.874-8.06 3.797 0 6.874 3.61 6.874 8.06v11.07c0 4.45-3.078 8.05-6.874 8.05zM181.54 1452.97c-3.796 0-6.874-3.6-6.874-8.05v-11.07c0-4.45 3.077-8.06 6.874-8.06 3.797 0 6.874 3.61 6.874 8.06v11.07c0 4.45-3.077 8.05-6.874 8.05z"/>
      </g>
      <path fill="#000" d="M184.002 1314.91c1.464 0 2.651-1.39 2.651-3.11 0-3.54 2.457-6.42 5.477-6.42 3.02 0 5.476 2.88 5.476 6.42 0 1.72 1.188 3.11 2.652 3.11 1.464 0 2.651-1.39 2.651-3.11 0-6.97-4.836-12.63-10.78-12.63-5.944 0-10.779 5.66-10.779 12.63 0 1.72 1.187 3.11 2.652 3.11zm55.398 9.14c0-15.37-4.702-29.98-13.615-42.4l3.914-5.84c.905-1.35.706-3.3-.446-4.36-1.15-1.06-2.818-.83-3.723.52l-10.412 15.52c-5.367-7.97-13.673-13.1-22.988-13.1-7.685 0-14.945 3.46-20.443 9.75-2.625 3-4.704 6.49-6.188 10.3-1.484-3.81-3.563-7.3-6.187-10.3-5.498-6.29-12.758-9.75-20.443-9.75-9.315 0-17.622 5.13-22.988 13.1l-19.611-29.23c-.997-1.48-.37-2.92-.155-3.33.216-.4 1.044-1.69 2.62-1.3l12.4 3.12a27.714 27.714 0 0015.211-.52l15.467-4.99c6.409-2.07 13.358-.97 19.067 3.02 2.849 1.99 6.389 1.99 9.239 0 5.709-3.99 12.659-5.09 19.067-3.02l15.466 4.99a27.718 27.718 0 0015.212.52l12.399-3.12c1.577-.4 2.405.9 2.621 1.3.215.41.842 1.85-.155 3.33l-3.805 5.67c-.905 1.35-.706 3.31.445 4.37s2.818.82 3.724-.53l3.805-5.67c2.05-3.05 2.241-7.16.485-10.46-1.756-3.29-4.987-4.9-8.231-4.08l-12.399 3.11c-4.181 1.05-8.569.9-12.692-.43l-15.466-5c-7.795-2.51-16.249-1.17-23.193 3.68-1.173.82-2.631.82-3.805 0-6.944-4.85-15.398-6.19-23.193-3.68l-15.466 5a23.028 23.028 0 01-12.692.43l-12.4-3.11c-3.243-.82-6.474.79-8.23 4.08-1.756 3.3-1.566 7.41.485 10.46l13.114 19.54c-8.914 12.43-13.616 27.04-13.616 42.41 0 19.67 7.74 38.13 21.792 51.98-3.715 2.74-6.578 6.86-8.113 11.8-1.583 5.09-2.584 13.73-2.55 21.99.007 1.72 1.193 3.1 2.651 3.1h.013c1.464-.01 2.646-1.41 2.639-3.12-.03-7.48.866-15.45 2.23-19.85 1.358-4.37 4.133-7.86 7.713-9.77a73.404 73.404 0 0020.471 12.11c.574 3.14.384 6.38-.568 9.44-1.401 4.51-5.727 12.71-11.284 19.65-5.446 6.81-10.541 10.31-13.294 9.14-1.759-.75-3.244-3.71-4.18-8.34-.338-1.66-1.766-2.7-3.192-2.3-1.425.4-2.306 2.07-1.968 3.74 1.402 6.92 3.934 11.2 7.526 12.73.974.42 1.97.61 2.98.61 4.064 0 8.326-3.07 12.016-6.81 3.458 4.43 7.966 8.03 13.453 10.75v4.02c0 6.15 4.274 11.16 9.526 11.16 4.914 0 8.97-4.38 9.472-9.99 2.154.21 4.35.33 6.567.33 2.217 0 4.414-.12 6.567-.33.503 5.61 4.559 9.99 9.473 9.99 5.252 0 9.525-5.01 9.525-11.16v-4.02c5.488-2.72 9.996-6.32 13.453-10.75 3.69 3.74 7.952 6.81 12.016 6.81 1.009 0 2.007-.19 2.981-.61 6.407-2.73 8.244-13.74 8.656-22.5.437-9.27-.57-19.97-2.449-26.02-1.535-4.94-4.398-9.06-8.114-11.8 14.054-13.85 21.793-32.31 21.793-51.98zm-64.009-35.46c4.502-5.15 10.447-7.99 16.739-7.99 13.222 0 23.979 12.61 23.979 28.1 0 15.49-10.757 28.1-23.979 28.1-4.216 0-8.303-1.28-11.92-3.72.17-2.37-.218-4.81-1.207-7.05l-7.535-17.02c-.702-1.59-1.819-2.81-3.149-3.52.621-6.41 3.086-12.34 7.072-16.9zm-9.891 22.38c.259 0 .902.09 1.261.9l7.535 17.02c.661 1.5.806 3.17.479 4.72-.037.12-.069.25-.091.38a7 7 0 01-1.425 2.75l-6.466 7.58c-.346.4-.805.63-1.293.63-.488 0-.948-.23-1.293-.63l-6.467-7.58a7.01 7.01 0 01-1.424-2.75 3.662 3.662 0 00-.091-.39 7.754 7.754 0 01.479-4.71l7.535-17.02c.359-.81 1.001-.9 1.261-.9zm-26.631-30.37c6.293 0 12.237 2.84 16.739 7.99 3.986 4.56 6.451 10.49 7.072 16.9-1.33.71-2.447 1.93-3.149 3.52l-7.535 17.02a14.839 14.839 0 00-1.206 7.05c-3.618 2.44-7.705 3.72-11.921 3.72-13.222 0-23.979-12.61-23.979-28.1 0-15.49 10.757-28.1 23.979-28.1zm14.814 164.32c0 2.73-1.894 4.95-4.223 4.95-2.329 0-4.223-2.22-4.223-4.95v-11.07c0-2.73 1.894-4.95 4.223-4.95 2.329 0 4.223 2.22 4.223 4.95v11.07zm32.079 0c0 2.73-1.895 4.95-4.223 4.95-2.329 0-4.223-2.22-4.223-4.95v-11.07c0-2.73 1.894-4.95 4.223-4.95 2.328 0 4.223 2.22 4.223 4.95v11.07zm5.303-10.84v-.23c0-6.16-4.274-11.16-9.526-11.16s-9.525 5-9.525 11.16v6.02c-2.13.22-4.311.33-6.514.33-2.204 0-4.385-.11-6.514-.33v-6.02c0-6.16-4.273-11.16-9.526-11.16-5.252 0-9.525 5-9.525 11.16v.23c-3.891-2.22-7.116-4.98-9.635-8.24a4 4 0 01.162-.2c5.422-6.78 10.521-15.73 12.399-21.78.973-3.14 1.359-6.4 1.161-9.65a74.76 74.76 0 0021.478 3.13c7.382 0 14.602-1.07 21.477-3.13-.198 3.25.188 6.51 1.161 9.65 1.879 6.05 6.978 15 12.399 21.78a4 4 0 01.162.2c-2.519 3.26-5.744 6.02-9.634 8.24zm29.673-44.13c1.401 4.52 2.586 14.05 2.137 23.56-.439 9.31-2.422 15.83-5.175 17.01-2.752 1.17-7.848-2.33-13.295-9.13-5.557-6.95-9.883-15.15-11.284-19.66a19.822 19.822 0 01-.568-9.44 73.604 73.604 0 0020.472-12.1c3.58 1.9 6.355 5.39 7.713 9.76zm-55.238 1.17c-37.825 0-68.598-30.09-68.598-67.07 0-13.47 4.025-26.33 11.668-37.41l4.272 6.37c-2.074 4.71-3.254 10.04-3.254 15.69 0 18.92 13.136 34.31 29.282 34.31 4.809 0 9.48-1.37 13.678-3.97.414.74.89 1.45 1.443 2.1l6.467 7.57c1.346 1.58 3.137 2.45 5.042 2.45 1.905 0 3.696-.87 5.043-2.45l6.467-7.57a13.17 13.17 0 001.443-2.1c4.198 2.6 8.869 3.97 13.678 3.97 16.146 0 29.282-15.39 29.282-34.31 0-5.65-1.18-10.98-3.255-15.69l4.273-6.37c7.643 11.08 11.668 23.94 11.668 37.41-.002 36.98-30.774 67.07-68.599 67.07zm-34.759-76.21c1.465 0 2.652-1.39 2.652-3.11 0-3.54 2.456-6.42 5.476-6.42s5.477 2.88 5.477 6.42c0 1.72 1.187 3.11 2.651 3.11 1.465 0 2.652-1.39 2.652-3.11 0-6.97-4.836-12.63-10.78-12.63-5.944 0-10.78 5.66-10.78 12.63.001 1.72 1.188 3.11 2.652 3.11z"/>
    </g>
    <path stroke="#000" d="M96.025 1543.34h146.263M96.025 1529.63h146.263M96.025 1516.83h146.263"/>
    <path fill="#C4C4C4" d="M277 1553.8V972.996h54.917V1553.8z"/>
    <path fill="#000" d="M277 1553.8v-435.155h54.917V1553.8zM388.877 1412.4h13.916v4.68h-35.547v-13.11c0-3.89.993-6.93 2.979-9.13 1.985-2.21 4.614-3.32 7.885-3.32 3.451 0 6.112 1.08 7.984 3.25 1.855 2.15 2.783 5.23 2.783 9.25v8.38zm-3.833 0v-8.43c0-2.5-.586-4.42-1.758-5.76-1.188-1.33-2.897-2-5.127-2-2.116 0-3.808.67-5.078 2-1.269 1.34-1.929 3.17-1.977 5.49v8.7h13.94zm17.749-31.06v4.52h-26.416v-4.52h26.416zm-33.423 4.88c-.732 0-1.351-.22-1.855-.66-.505-.45-.757-1.12-.757-2 0-.88.252-1.54.757-2 .504-.46 1.123-.68 1.855-.68.733 0 1.343.22 1.831.68.488.46.733 1.12.733 2 0 .88-.245 1.55-.733 2-.488.44-1.098.66-1.831.66zm33.911-23.09c0 3.58-1.172 6.49-3.515 8.74-2.36 2.24-5.51 3.37-9.449 3.37h-.83c-2.62 0-4.956-.5-7.007-1.49-2.067-1.01-3.678-2.41-4.834-4.2-1.171-1.81-1.757-3.76-1.757-5.86 0-3.43 1.131-6.1 3.393-8.01 2.263-1.9 5.502-2.85 9.717-2.85h1.88v17.89c2.604-.06 4.712-.82 6.323-2.27 1.595-1.46 2.393-3.32 2.393-5.57 0-1.59-.326-2.94-.977-4.05-.651-1.11-1.514-2.07-2.588-2.9l2.149-2.76c3.401 2.21 5.102 5.53 5.102 9.96zm-23.681.56c0 1.82.667 3.35 2.002 4.59 1.318 1.24 3.173 2 5.566 2.29v-13.23h-.342c-2.295.13-4.069.75-5.322 1.86-1.27 1.1-1.904 2.6-1.904 4.49zm-3.223-20.39l3.32-.14c-2.539-2.02-3.808-4.66-3.808-7.91 0-5.59 3.149-8.4 9.448-8.45h17.456v4.52h-17.481c-1.904.01-3.312.45-4.223 1.31-.912.85-1.367 2.18-1.367 3.98 0 1.47.39 2.75 1.172 3.86.781 1.11 1.806 1.97 3.076 2.59h18.823v4.52h-26.416v-4.28zm19.409-38.69c-1.221 0-2.165.46-2.832 1.39-.684.91-1.269 2.51-1.758 4.81-.488 2.28-1.074 4.09-1.758 5.44-.683 1.34-1.497 2.33-2.441 2.98-.944.64-2.067.95-3.369.95-2.165 0-3.996-.91-5.493-2.73-1.498-1.84-2.246-4.18-2.246-7.03 0-3 .773-5.42 2.319-7.28 1.546-1.87 3.524-2.81 5.933-2.81v4.55c-1.237 0-2.303.52-3.199 1.58-.895 1.04-1.342 2.36-1.342 3.96 0 1.64.358 2.93 1.074 3.86.716.92 1.652 1.39 2.807 1.39 1.091 0 1.913-.43 2.466-1.3.554-.86 1.083-2.41 1.587-4.66.505-2.26 1.107-4.09 1.807-5.49.7-1.4 1.546-2.44 2.539-3.1.976-.69 2.173-1.03 3.589-1.03 2.36 0 4.256.94 5.688 2.83 1.416 1.89 2.124 4.34 2.124 7.35 0 2.12-.374 3.99-1.123 5.62-.749 1.62-1.79 2.9-3.125 3.83-1.351.91-2.807 1.37-4.37 1.37v-4.52c1.514-.08 2.718-.68 3.613-1.81.879-1.14 1.319-2.63 1.319-4.49 0-1.71-.342-3.07-1.026-4.1-.7-1.04-1.627-1.56-2.783-1.56zm7.007-26.71c-.521.26-1.449.47-2.783.63 2.181 2.1 3.271 4.61 3.271 7.52 0 2.61-.732 4.75-2.197 6.42-1.481 1.66-3.353 2.49-5.615 2.49-2.751 0-4.883-1.04-6.397-3.12-1.53-2.1-2.295-5.05-2.295-8.84v-4.39h-2.075c-1.579 0-2.832.47-3.76 1.41-.944.95-1.416 2.34-1.416 4.18 0 1.61.407 2.96 1.221 4.05.814 1.09 1.799 1.64 2.954 1.64v4.54c-1.318 0-2.588-.47-3.808-1.39-1.237-.95-2.214-2.22-2.93-3.81-.716-1.61-1.074-3.38-1.074-5.3 0-3.04.765-5.43 2.295-7.15 1.513-1.73 3.605-2.63 6.274-2.69h12.158c2.425 0 4.354-.31 5.786-.93h.391v4.74zm-3.442 7.49c0-1.41-.367-2.76-1.099-4.02-.732-1.27-1.685-2.19-2.857-2.76h-5.419v3.54c0 5.53 1.619 8.3 4.858 8.3 1.416 0 2.523-.47 3.32-1.42.798-.94 1.197-2.16 1.197-3.64zm-18.921-43.55c-.114.68-.171 1.42-.171 2.22 0 2.96 1.261 4.97 3.784 6.03h18.75v4.52h-26.416v-4.4l3.052-.07c-2.36-1.48-3.54-3.58-3.54-6.3 0-.88.114-1.55.341-2h4.2zm22.363-19.51c-.521.26-1.449.47-2.783.64 2.181 2.1 3.271 4.6 3.271 7.52 0 2.6-.732 4.74-2.197 6.42-1.481 1.66-3.353 2.49-5.615 2.49-2.751 0-4.883-1.04-6.397-3.13-1.53-2.1-2.295-5.04-2.295-8.84v-4.39h-2.075c-1.579 0-2.832.47-3.76 1.42-.944.94-1.416 2.33-1.416 4.17 0 1.61.407 2.96 1.221 4.05.814 1.09 1.799 1.64 2.954 1.64v4.54c-1.318 0-2.588-.46-3.808-1.39-1.237-.95-2.214-2.21-2.93-3.81-.716-1.61-1.074-3.38-1.074-5.3 0-3.04.765-5.43 2.295-7.15 1.513-1.73 3.605-2.62 6.274-2.69h12.158c2.425 0 4.354-.31 5.786-.92h.391v4.73zm-3.442 7.5c0-1.42-.367-2.76-1.099-4.03-.732-1.27-1.685-2.19-2.857-2.76h-5.419v3.54c0 5.53 1.619 8.3 4.858 8.3 1.416 0 2.523-.47 3.32-1.42.798-.94 1.197-2.15 1.197-3.63zm-34.058-4.18v-5.47l7.178 6.55v3.63l-7.178-4.71zm24.585-36.52c4.02 0 7.259.92 9.717 2.76 2.457 1.84 3.686 4.33 3.686 7.47 0 3.2-1.017 5.73-3.052 7.57h12.72v4.51h-36.572v-4.12l2.93-.22c-2.279-1.84-3.418-4.4-3.418-7.67 0-3.17 1.196-5.68 3.589-7.52 2.392-1.85 5.721-2.78 9.985-2.78h.415zm-.513 4.52c-2.978 0-5.33.63-7.055 1.9-1.726 1.27-2.588 3.01-2.588 5.22 0 2.74 1.212 4.79 3.637 6.16h12.622c2.409-1.35 3.614-3.42 3.614-6.2 0-2.17-.855-3.89-2.564-5.16-1.725-1.28-4.28-1.92-7.666-1.92zm13.428-15.19v4.52h-26.416v-4.52h26.416zm-33.423 4.88c-.732 0-1.351-.22-1.855-.66-.505-.45-.757-1.12-.757-2 0-.88.252-1.54.757-2 .504-.46 1.123-.68 1.855-.68.733 0 1.343.22 1.831.68.488.46.733 1.12.733 2 0 .88-.245 1.55-.733 2-.488.44-1.098.66-1.831.66zm19.995-11.03c-4.053 0-7.308-.96-9.765-2.88-2.474-1.92-3.711-4.44-3.711-7.55 0-3.09 1.058-5.54 3.173-7.35h-13.769v-4.51h37.5v4.15l-2.832.22c2.213 1.8 3.32 4.32 3.32 7.54 0 3.06-1.253 5.56-3.76 7.5-2.506 1.92-5.778 2.88-9.814 2.88h-.342zm.513-4.52c2.995 0 5.338-.62 7.031-1.85 1.693-1.24 2.539-2.95 2.539-5.13 0-2.87-1.286-4.96-3.857-6.28h-12.134c-2.49 1.36-3.735 3.43-3.735 6.23 0 2.21.854 3.94 2.563 5.18 1.709 1.23 4.24 1.85 7.593 1.85zm-.537-23.61c-2.588 0-4.916-.5-6.983-1.51-2.067-1.03-3.662-2.44-4.785-4.25-1.123-1.82-1.684-3.9-1.684-6.22 0-3.6 1.245-6.51 3.735-8.72 2.49-2.23 5.802-3.35 9.937-3.35h.317c2.572 0 4.883.5 6.934 1.49 2.034.98 3.621 2.39 4.76 4.23 1.14 1.82 1.709 3.92 1.709 6.3 0 3.58-1.245 6.48-3.735 8.71-2.49 2.22-5.786 3.32-9.888 3.32h-.317zm.537-4.54c2.93 0 5.281-.67 7.056-2.02 1.774-1.37 2.661-3.19 2.661-5.47 0-2.3-.895-4.12-2.686-5.47-1.806-1.35-4.329-2.03-7.568-2.03-2.897 0-5.241.69-7.031 2.08-1.807 1.36-2.71 3.19-2.71 5.47 0 2.23.887 4.02 2.661 5.39s4.313 2.05 7.617 2.05zm2.881-30.22v4.07l-25.513.32v-4.73l25.513.34zm7.763 4.56c-.732 0-1.342-.22-1.831-.66-.504-.45-.756-1.12-.756-2 0-.88.252-1.54.756-2 .489-.46 1.099-.68 1.831-.68.733 0 1.343.22 1.831.68.473.46.709 1.12.709 2 0 .88-.236 1.55-.709 2-.488.44-1.098.66-1.831.66zm44.498 170.29l-9.643-5.86v-5.27l13.061 8.64 13.355-8.91v5.22l-9.888 6.11 9.888 6.1v5.25l-13.355-8.91-13.061 8.64v-5.22l9.643-5.79zm.928-39.53c-1.155 4.02-2.571 6.95-4.248 8.79-1.693 1.83-3.776 2.74-6.25 2.74-2.799 0-5.11-1.12-6.933-3.35-1.84-2.24-2.759-5.16-2.759-8.74 0-2.44.472-4.61 1.416-6.52.944-1.92 2.246-3.4 3.906-4.44a9.918 9.918 0 015.444-1.59v4.72c-2.148 0-3.833.68-5.053 2.05-1.237 1.36-1.856 3.29-1.856 5.78 0 2.31.513 4.12 1.538 5.42 1.009 1.29 2.417 1.93 4.224 1.93 1.449 0 2.677-.61 3.686-1.83.993-1.24 1.905-3.33 2.735-6.27.83-2.97 1.75-5.28 2.759-6.94.992-1.67 2.156-2.91 3.491-3.71 1.334-.81 2.905-1.22 4.712-1.22 2.881 0 5.192 1.12 6.933 3.37 1.726 2.25 2.588 5.25 2.588 9.01 0 2.44-.464 4.72-1.391 6.83-.944 2.12-2.23 3.76-3.858 4.91-1.627 1.14-3.475 1.71-5.542 1.71v-4.71c2.149 0 3.85-.79 5.103-2.37 1.237-1.59 1.855-3.72 1.855-6.37 0-2.48-.504-4.37-1.513-5.69-1.01-1.32-2.385-1.98-4.126-1.98-1.742 0-3.085.61-4.029 1.83-.96 1.22-1.904 3.44-2.832 6.64z"/>
    <path fill="#C4C4C4" d="M3693 259h56v1700h-56z"/>
    <path fill="#000" d="M3694 1199h56v763h-56zM3595.27 2016.84c-4.1-1.18-7.09-2.62-8.97-4.33-1.86-1.73-2.79-3.86-2.79-6.38 0-2.86 1.14-5.21 3.41-7.07 2.29-1.88 5.27-2.82 8.92-2.82 2.49 0 4.71.49 6.65 1.45 1.96.96 3.47 2.29 4.53 3.98a10.16 10.16 0 011.62 5.56h-4.81c0-2.2-.69-3.91-2.09-5.16-1.39-1.26-3.36-1.89-5.9-1.89-2.36 0-4.2.52-5.53 1.57-1.31 1.03-1.97 2.46-1.97 4.31 0 1.47.63 2.73 1.87 3.76 1.26 1.01 3.4 1.94 6.4 2.78 3.02.85 5.38 1.79 7.07 2.82 1.71 1.01 2.97 2.2 3.79 3.56.83 1.36 1.24 2.96 1.24 4.81 0 2.93-1.14 5.29-3.43 7.07-2.29 1.76-5.36 2.64-9.19 2.64-2.49 0-4.82-.48-6.97-1.42-2.16-.96-3.83-2.28-5.01-3.94-1.16-1.66-1.74-3.54-1.74-5.65h4.8c0 2.19.81 3.93 2.42 5.21 1.63 1.26 3.79 1.89 6.5 1.89 2.52 0 4.46-.52 5.8-1.55 1.34-1.02 2.02-2.43 2.02-4.2 0-1.78-.63-3.15-1.87-4.11-1.25-.98-3.5-1.95-6.77-2.89zm35.51 13.5c-1.8 2.1-4.43 3.16-7.9 3.16-2.87 0-5.06-.83-6.57-2.49-1.5-1.68-2.25-4.15-2.27-7.42v-17.53h4.61v17.4c0 4.09 1.66 6.13 4.98 6.13 3.52 0 5.86-1.31 7.02-3.94v-19.59h4.61V2033h-4.38l-.1-2.66zm15.86-24.28l.15 3.38c2.06-2.59 4.75-3.88 8.07-3.88 5.69 0 8.56 3.21 8.61 9.63V2033h-4.6v-17.83c-.02-1.94-.47-3.38-1.35-4.31-.86-.93-2.21-1.39-4.06-1.39-1.49 0-2.8.4-3.93 1.19-1.13.8-2.01 1.85-2.64 3.14v19.2h-4.61v-26.94h4.36zm33.37 13.42h-12.15v-3.76h12.15v3.76zm31.9 2.02c-.45 3.83-1.87 6.79-4.26 8.89-2.37 2.07-5.54 3.11-9.49 3.11-4.28 0-7.72-1.54-10.31-4.61-2.57-3.07-3.86-7.18-3.86-12.33v-3.48c0-3.37.6-6.34 1.8-8.89 1.21-2.56 2.92-4.52 5.13-5.88 2.2-1.38 4.76-2.07 7.67-2.07 3.85 0 6.94 1.08 9.26 3.24 2.32 2.14 3.68 5.11 4.06 8.92h-4.81c-.41-2.89-1.32-4.98-2.71-6.28-1.38-1.29-3.31-1.94-5.8-1.94-3.06 0-5.46 1.13-7.2 3.39-1.73 2.25-2.59 5.47-2.59 9.63v3.51c0 3.94.82 7.07 2.46 9.39 1.65 2.33 3.95 3.49 6.9 3.49 2.66 0 4.69-.6 6.1-1.79 1.43-1.22 2.38-3.32 2.84-6.3h4.81zm4.61-2.22c0-2.64.51-5.01 1.54-7.12 1.05-2.11 2.49-3.74 4.33-4.88 1.86-1.15 3.98-1.72 6.35-1.72 3.67 0 6.64 1.27 8.89 3.81 2.28 2.54 3.41 5.92 3.41 10.13v.33c0 2.62-.5 4.98-1.51 7.07-1 2.07-2.44 3.69-4.31 4.85-1.86 1.17-4 1.75-6.43 1.75-3.65 0-6.61-1.27-8.89-3.81-2.26-2.54-3.38-5.9-3.38-10.09v-.32zm4.63.55c0 2.98.69 5.38 2.06 7.19 1.4 1.81 3.26 2.72 5.58 2.72 2.34 0 4.2-.92 5.58-2.74 1.38-1.84 2.07-4.42 2.07-7.72 0-2.96-.71-5.35-2.12-7.17-1.39-1.85-3.25-2.77-5.58-2.77-2.27 0-4.11.91-5.5 2.72-1.4 1.81-2.09 4.4-2.09 7.77zm42.31 10.51c-1.8 2.1-4.43 3.16-7.9 3.16-2.87 0-5.06-.83-6.57-2.49-1.5-1.68-2.25-4.15-2.27-7.42v-17.53h4.61v17.4c0 4.09 1.66 6.13 4.98 6.13 3.52 0 5.86-1.31 7.02-3.94v-19.59h4.61V2033h-4.38l-.1-2.66zm15.86-24.28l.15 3.38c2.06-2.59 4.75-3.88 8.07-3.88 5.69 0 8.56 3.21 8.61 9.63V2033h-4.6v-17.83c-.02-1.94-.47-3.38-1.35-4.31-.86-.93-2.21-1.39-4.06-1.39-1.49 0-2.8.4-3.93 1.19-1.13.8-2.01 1.85-2.64 3.14v19.2h-4.61v-26.94h4.36zm30.03-6.53v6.53h5.03v3.56h-5.03v16.71c0 1.08.23 1.89.67 2.44.45.53 1.22.79 2.29.79.54 0 1.27-.1 2.2-.3v3.74c-1.22.33-2.39.5-3.54.5-2.06 0-3.61-.62-4.66-1.87-1.04-1.24-1.57-3.01-1.57-5.3v-16.71h-4.9v-3.56h4.9v-6.53h4.61zm21.62 33.97c-3.66 0-6.63-1.2-8.92-3.59-2.29-2.41-3.43-5.62-3.43-9.64v-.84c0-2.67.5-5.06 1.51-7.15 1.03-2.11 2.46-3.75 4.29-4.93 1.84-1.19 3.83-1.79 5.97-1.79 3.51 0 6.23 1.15 8.17 3.46 1.94 2.31 2.92 5.61 2.92 9.91v1.92h-18.26c.07 2.65.84 4.8 2.32 6.45 1.49 1.62 3.38 2.44 5.68 2.44 1.62 0 3-.33 4.13-1 1.13-.66 2.12-1.54 2.96-2.64l2.82 2.19c-2.26 3.47-5.65 5.21-10.16 5.21zm-.58-24.16c-1.86 0-3.42.68-4.68 2.04-1.26 1.35-2.04 3.24-2.34 5.68h13.5v-.35c-.13-2.34-.77-4.15-1.89-5.42-1.13-1.3-2.66-1.95-4.59-1.95zm29.46.85c-.69-.12-1.45-.17-2.26-.17-3.02 0-5.07 1.28-6.15 3.86V2033h-4.61v-26.94h4.48l.08 3.11c1.51-2.41 3.65-3.61 6.42-3.61.9 0 1.58.11 2.04.35v4.28zm-164.2 70.63h5.03v3.76h-5.03v8.42h-4.63v-8.42h-16.51v-2.71l16.23-25.13h4.91v24.08zm-15.92 0h11.29v-17.78l-.55 1-10.74 16.78zm44.56 0h5.03v3.76h-5.03v8.42h-4.64v-8.42h-16.51v-2.71l16.24-25.13h4.91v24.08zm-15.92 0h11.28v-17.78l-.54 1-10.74 16.78zm24.71-17.11c0-2.17.68-3.96 2.06-5.37 1.4-1.42 3.18-2.12 5.36-2.12 2.2 0 3.99.71 5.35 2.14 1.38 1.41 2.07 3.25 2.07 5.5v1.77c0 2.19-.7 3.99-2.09 5.38-1.38 1.38-3.14 2.07-5.28 2.07-2.16 0-3.95-.69-5.36-2.07-1.41-1.39-2.11-3.24-2.11-5.55v-1.75zm3.43 1.92c0 1.3.37 2.37 1.1 3.21.73.83 1.71 1.25 2.94 1.25 1.18 0 2.12-.41 2.84-1.22.73-.81 1.09-1.93 1.09-3.34v-1.82c0-1.29-.36-2.36-1.07-3.21-.71-.84-1.68-1.27-2.91-1.27-1.23 0-2.2.43-2.92 1.27-.71.85-1.07 1.95-1.07 3.31v1.82zm14.22 18.48c0-2.17.69-3.96 2.07-5.35 1.39-1.42 3.18-2.12 5.35-2.12 2.18 0 3.96.7 5.36 2.09 1.39 1.4 2.09 3.25 2.09 5.55v1.77c0 2.18-.7 3.97-2.09 5.38-1.38 1.4-3.15 2.09-5.31 2.09-2.16 0-3.94-.69-5.35-2.06-1.41-1.4-2.12-3.25-2.12-5.56v-1.79zm3.44 1.94c0 1.31.36 2.39 1.09 3.24.73.83 1.71 1.24 2.94 1.24 1.2 0 2.15-.4 2.87-1.22.71-.83 1.07-1.95 1.07-3.36v-1.84c0-1.31-.37-2.38-1.1-3.21-.71-.83-1.68-1.25-2.89-1.25-1.18 0-2.14.42-2.89 1.25-.73.81-1.09 1.91-1.09 3.31v1.84zm-12.58 4.21l-2.61-1.64 17.7-28.34 2.62 1.64-17.71 28.34zM212.945 301.906h9.424v50.342c0 6.803-2.05 12.126-6.152 15.967-4.069 3.841-9.505 5.762-16.309 5.762-7.063 0-12.565-1.807-16.504-5.42-3.938-3.614-5.908-8.675-5.908-15.186h9.375c0 4.069 1.107 7.243 3.321 9.522 2.246 2.278 5.485 3.418 9.716 3.418 3.874 0 6.999-1.221 9.375-3.663 2.409-2.441 3.63-5.859 3.662-10.253v-50.489zm56.592 65.869c-3.515 4.135-8.675 6.202-15.478 6.202-5.632 0-9.929-1.628-12.891-4.883-2.93-3.288-4.411-8.138-4.443-14.551v-34.375h9.033v34.131c0 8.008 3.255 12.012 9.766 12.012 6.901 0 11.49-2.572 13.769-7.715v-38.428h9.033V373h-8.593l-.196-5.225zm20.41-21.63c0-8.236 1.905-14.779 5.713-19.629 3.809-4.883 8.854-7.325 15.137-7.325 6.445 0 11.475 2.279 15.088 6.836l.439-5.859h8.252v51.562c0 6.836-2.034 12.224-6.103 16.163-4.037 3.938-9.473 5.908-16.309 5.908-3.808 0-7.536-.814-11.181-2.442-3.646-1.627-6.429-3.857-8.35-6.689l4.687-5.42c3.874 4.785 8.61 7.178 14.209 7.178 4.395 0 7.813-1.237 10.254-3.711 2.474-2.474 3.711-5.957 3.711-10.449v-4.541c-3.613 4.166-8.545 6.25-14.795 6.25-6.185 0-11.198-2.491-15.039-7.471-3.808-4.981-5.713-11.768-5.713-20.361zm9.082 1.025c0 5.957 1.221 10.644 3.663 14.062 2.441 3.386 5.859 5.079 10.253 5.079 5.697 0 9.88-2.588 12.549-7.764v-24.121c-2.767-5.046-6.917-7.569-12.451-7.569-4.394 0-7.829 1.709-10.303 5.127-2.474 3.418-3.711 8.48-3.711 15.186zM380.865 373c-.52-1.042-.944-2.897-1.269-5.566-4.199 4.362-9.212 6.543-15.039 6.543-5.209 0-9.489-1.465-12.842-4.395-3.32-2.962-4.98-6.706-4.98-11.23 0-5.502 2.083-9.766 6.25-12.793 4.199-3.06 10.091-4.59 17.675-4.59h8.789v-4.151c0-3.157-.944-5.664-2.832-7.519-1.888-1.888-4.671-2.832-8.349-2.832-3.223 0-5.925.814-8.106 2.441-2.181 1.628-3.271 3.597-3.271 5.908h-9.082c0-2.636.927-5.175 2.783-7.617 1.888-2.474 4.427-4.427 7.617-5.859 3.223-1.432 6.755-2.149 10.596-2.149 6.087 0 10.856 1.53 14.306 4.59 3.451 3.028 5.241 7.211 5.372 12.549v24.316c0 4.851.618 8.708 1.855 11.573V373h-9.473zm-14.99-6.885c2.832 0 5.518-.732 8.057-2.197 2.539-1.465 4.378-3.369 5.517-5.713v-10.84h-7.08c-11.067 0-16.601 3.239-16.601 9.717 0 2.832.944 5.046 2.832 6.641 1.888 1.595 4.313 2.392 7.275 2.392zm34.57-19.97c0-8.106 1.921-14.616 5.762-19.532 3.841-4.948 8.871-7.422 15.088-7.422 6.185 0 11.084 2.116 14.697 6.348V298h9.034v75h-8.301l-.44-5.664c-3.613 4.427-8.642 6.641-15.088 6.641-6.119 0-11.116-2.507-14.99-7.52-3.841-5.013-5.762-11.556-5.762-19.629v-.683zm9.034 1.025c0 5.99 1.237 10.677 3.711 14.062 2.474 3.386 5.892 5.079 10.254 5.079 5.729 0 9.912-2.572 12.548-7.715v-24.268c-2.701-4.98-6.852-7.471-12.451-7.471-4.427 0-7.877 1.709-10.351 5.127-2.474 3.418-3.711 8.48-3.711 15.186zm47.216-1.074c0-5.176 1.01-9.831 3.028-13.965 2.051-4.134 4.883-7.324 8.496-9.57 3.646-2.247 7.796-3.37 12.451-3.37 7.194 0 13.005 2.491 17.432 7.471 4.459 4.981 6.689 11.605 6.689 19.873v.635c0 5.143-.993 9.766-2.978 13.867-1.953 4.069-4.769 7.243-8.448 9.522-3.645 2.278-7.845 3.418-12.597 3.418-7.162 0-12.972-2.491-17.432-7.471-4.427-4.981-6.641-11.572-6.641-19.776v-.634zm9.082 1.074c0 5.859 1.351 10.563 4.053 14.111 2.735 3.548 6.38 5.323 10.938 5.323 4.59 0 8.235-1.791 10.937-5.372 2.702-3.613 4.053-8.658 4.053-15.136 0-5.795-1.383-10.482-4.15-14.063-2.735-3.613-6.381-5.42-10.938-5.42-4.46 0-8.057 1.774-10.791 5.323-2.734 3.548-4.102 8.626-4.102 15.234zm75.879-18.897a27.163 27.163 0 00-4.443-.341c-5.924 0-9.945 2.522-12.061 7.568V373h-9.033v-52.832h8.789l.147 6.103c2.962-4.72 7.161-7.08 12.597-7.08 1.758 0 3.093.228 4.004.684v8.398zm29.297 45.704c-7.161 0-12.988-2.344-17.48-7.032-4.492-4.72-6.739-11.019-6.739-18.896v-1.66c0-5.241.993-9.912 2.979-14.014 2.018-4.134 4.818-7.357 8.398-9.668 3.614-2.344 7.52-3.516 11.719-3.516 6.869 0 12.207 2.263 16.016 6.788 3.808 4.524 5.713 11.002 5.713 19.433v3.76h-35.791c.13 5.208 1.644 9.424 4.541 12.646 2.929 3.19 6.64 4.786 11.133 4.786 3.19 0 5.891-.652 8.105-1.954 2.214-1.302 4.15-3.027 5.811-5.175l5.517 4.296c-4.427 6.804-11.068 10.206-19.922 10.206zm-1.123-47.364c-3.646 0-6.706 1.335-9.179 4.004-2.474 2.637-4.004 6.348-4.59 11.133h26.465v-.684c-.261-4.589-1.498-8.138-3.711-10.644-2.214-2.539-5.209-3.809-8.985-3.809zm62.988 32.373c0-2.441-.927-4.329-2.783-5.664-1.823-1.367-5.029-2.539-9.619-3.515-4.557-.977-8.187-2.149-10.889-3.516-2.669-1.367-4.654-2.995-5.957-4.883-1.269-1.888-1.904-4.134-1.904-6.738 0-4.33 1.823-7.992 5.469-10.986 3.678-2.995 8.366-4.493 14.062-4.493 5.99 0 10.84 1.547 14.551 4.639 3.744 3.093 5.615 7.048 5.615 11.865h-9.082c0-2.474-1.058-4.606-3.173-6.396-2.084-1.791-4.721-2.686-7.911-2.686-3.287 0-5.859.716-7.714 2.149-1.856 1.432-2.784 3.304-2.784 5.615 0 2.181.863 3.825 2.588 4.932 1.725 1.106 4.834 2.164 9.326 3.173 4.525 1.01 8.187 2.214 10.987 3.614 2.799 1.399 4.866 3.092 6.201 5.078 1.367 1.953 2.051 4.346 2.051 7.178 0 4.72-1.888 8.512-5.664 11.377-3.776 2.832-8.676 4.248-14.698 4.248-4.231 0-7.975-.749-11.23-2.247-3.255-1.497-5.811-3.58-7.666-6.25-1.823-2.701-2.735-5.615-2.735-8.74h9.034c.162 3.028 1.367 5.436 3.613 7.227 2.279 1.758 5.273 2.637 8.984 2.637 3.418 0 6.153-.684 8.203-2.051 2.084-1.4 3.125-3.255 3.125-5.567zm45.264-14.843c0-7.357.977-14.421 2.93-21.192 1.986-6.771 4.931-12.923 8.838-18.457 3.906-5.534 7.959-9.44 12.158-11.719l1.855 5.957c-4.752 3.646-8.658 9.213-11.718 16.7-3.028 7.487-4.688 15.869-4.981 25.146l-.049 4.151c0 12.565 2.295 23.47 6.885 32.714 2.767 5.534 6.055 9.864 9.863 12.989l-1.855 5.517c-4.329-2.409-8.464-6.445-12.402-12.109-7.683-11.068-11.524-24.3-11.524-39.697zm46.729-11.084h6.787c4.264-.066 7.617-1.189 10.058-3.37 2.442-2.181 3.662-5.127 3.662-8.837 0-8.334-4.15-12.5-12.451-12.5-3.906 0-7.031 1.123-9.375 3.369-2.311 2.213-3.466 5.159-3.466 8.838h-9.034c0-5.632 2.051-10.303 6.153-14.014 4.134-3.744 9.375-5.615 15.722-5.615 6.706 0 11.963 1.774 15.772 5.322 3.808 3.548 5.713 8.48 5.713 14.795 0 3.092-1.009 6.087-3.028 8.984-1.985 2.897-4.703 5.062-8.154 6.494 3.906 1.237 6.917 3.288 9.033 6.153 2.149 2.864 3.223 6.364 3.223 10.498 0 6.38-2.083 11.442-6.25 15.185-4.167 3.744-9.587 5.616-16.26 5.616-6.673 0-12.109-1.807-16.308-5.42-4.167-3.614-6.25-8.383-6.25-14.307h9.082c0 3.743 1.22 6.738 3.662 8.984 2.441 2.246 5.713 3.37 9.814 3.37 4.362 0 7.699-1.14 10.01-3.418 2.311-2.279 3.467-5.551 3.467-9.815 0-4.134-1.27-7.308-3.809-9.521-2.539-2.214-6.201-3.353-10.986-3.418h-6.787v-7.373zm64.795 11.572c0 7.259-.961 14.225-2.881 20.898a60.997 60.997 0 01-8.741 18.409c-3.906 5.631-8.007 9.635-12.304 12.011l-1.904-5.517c5.013-3.842 9.033-9.799 12.06-17.871 3.06-8.106 4.622-17.09 4.688-26.954v-1.562c0-6.836-.717-13.184-2.149-19.043-1.432-5.892-3.434-11.165-6.006-15.82-2.539-4.655-5.403-8.285-8.593-10.889l1.904-5.518c4.297 2.377 8.382 6.348 12.256 11.914 3.906 5.567 6.819 11.703 8.74 18.409 1.953 6.705 2.93 13.883 2.93 21.533z"/>
    <path fill="#33D325" d="M246.518 431.125h7.539v40.273c0 5.443-1.64 9.701-4.922 12.774-3.255 3.073-7.604 4.609-13.046 4.609-5.651 0-10.052-1.445-13.204-4.336-3.151-2.89-4.726-6.94-4.726-12.148h7.5c0 3.255.885 5.794 2.656 7.617 1.797 1.823 4.388 2.734 7.774 2.734 3.099 0 5.599-.976 7.5-2.929 1.927-1.953 2.903-4.688 2.929-8.203v-40.391zm45.274 52.695c-2.813 3.308-6.94 4.961-12.383 4.961-4.505 0-7.943-1.302-10.313-3.906-2.343-2.63-3.528-6.51-3.554-11.641v-27.5h7.226v27.305c0 6.406 2.604 9.609 7.813 9.609 5.521 0 9.193-2.057 11.015-6.171v-30.743h7.227V488h-6.875l-.156-4.18zm44.14 4.18c-.416-.833-.755-2.318-1.015-4.453-3.36 3.489-7.37 5.234-12.032 5.234-4.166 0-7.591-1.172-10.273-3.515-2.656-2.37-3.984-5.365-3.984-8.985 0-4.401 1.666-7.812 5-10.234 3.359-2.448 8.073-3.672 14.14-3.672h7.032v-3.32c0-2.526-.756-4.532-2.266-6.016-1.51-1.51-3.737-2.266-6.68-2.266-2.578 0-4.739.651-6.484 1.954-1.745 1.302-2.617 2.877-2.617 4.726h-7.266c0-2.109.742-4.141 2.227-6.094 1.51-1.979 3.541-3.541 6.093-4.687 2.578-1.146 5.404-1.719 8.477-1.719 4.87 0 8.685 1.224 11.445 3.672 2.761 2.422 4.193 5.768 4.297 10.039v19.453c0 3.88.495 6.966 1.484 9.258V488h-7.578zm-11.992-5.508c2.266 0 4.414-.586 6.445-1.758 2.032-1.172 3.503-2.695 4.415-4.57v-8.672h-5.665c-8.854 0-13.281 2.591-13.281 7.774 0 2.265.755 4.036 2.266 5.312 1.51 1.276 3.45 1.914 5.82 1.914zm36.25-36.758l.235 5.313c3.229-4.063 7.447-6.094 12.656-6.094 8.932 0 13.437 5.039 13.515 15.117V488h-7.226v-27.969c-.026-3.047-.729-5.299-2.11-6.758-1.354-1.458-3.476-2.187-6.367-2.187-2.343 0-4.401.625-6.172 1.875-1.77 1.25-3.151 2.891-4.14 4.922V488h-7.227v-42.266h6.836zm77.735-8.437h-18.282V488h-7.461v-50.703H393.94v-6.172h43.985v6.172zm7.031 27.617c0-5.885.781-11.536 2.344-16.953 1.588-5.417 3.945-10.339 7.07-14.766 3.125-4.427 6.367-7.552 9.726-9.375l1.485 4.766c-3.802 2.917-6.927 7.37-9.375 13.359-2.422 5.99-3.75 12.696-3.985 20.117l-.039 3.321c0 10.052 1.836 18.776 5.508 26.172 2.214 4.427 4.844 7.89 7.891 10.39l-1.485 4.414c-3.463-1.927-6.77-5.156-9.921-9.687-6.146-8.854-9.219-19.44-9.219-31.758zm60.156 8.242h-23.828L475.932 488h-7.734l21.719-56.875h6.562L518.237 488h-7.695l-5.43-14.844zm-21.562-6.172h19.335l-9.687-26.601-9.648 26.601zm48.046-21.25l.235 5.313c3.229-4.063 7.448-6.094 12.656-6.094 8.932 0 13.438 5.039 13.516 15.117V488h-7.227v-27.969c-.026-3.047-.729-5.299-2.109-6.758-1.354-1.458-3.477-2.187-6.367-2.187-2.344 0-4.401.625-6.172 1.875s-3.151 2.891-4.141 4.922V488h-7.227v-42.266h6.836zM571.323 488v-36.68h-6.68v-5.586h6.68v-3.593c0-4.714 1.341-8.386 4.023-11.016 2.709-2.63 6.524-3.945 11.446-3.945 2.916 0 6.601.794 11.054 2.382l-1.211 6.094c-3.255-1.302-6.354-1.953-9.296-1.953-3.099 0-5.339.703-6.719 2.109-1.354 1.381-2.031 3.464-2.031 6.25v3.672h8.632v5.586h-8.632V488h-7.266zm30.117 0h-7.265v-42.266h7.265V488zm21.563-52.5v10.234h7.89v5.586h-7.89v26.211c0 1.693.351 2.969 1.054 3.828.703.834 1.901 1.25 3.594 1.25.833 0 1.979-.156 3.438-.468V488c-1.901.521-3.75.781-5.547.781-3.229 0-5.664-.976-7.305-2.929-1.641-1.954-2.461-4.727-2.461-8.321V451.32h-7.695v-5.586h7.695V435.5h7.227zm36.797 16.719a21.582 21.582 0 00-3.555-.274c-4.74 0-7.956 2.019-9.649 6.055v30h-7.226v-42.266h7.031l.117 4.883c2.37-3.776 5.729-5.664 10.078-5.664 1.407 0 2.474.182 3.204.547v6.719zM674.331 488h-7.227v-42.266h7.227V488zm-7.813-53.477c0-1.171.352-2.161 1.055-2.968.729-.808 1.797-1.211 3.203-1.211s2.474.403 3.203 1.211c.729.807 1.094 1.797 1.094 2.968 0 1.172-.365 2.149-1.094 2.93-.729.781-1.797 1.172-3.203 1.172s-2.474-.391-3.203-1.172c-.703-.781-1.055-1.758-1.055-2.93zm17.5 31.954c0-4.141.808-7.865 2.422-11.172 1.641-3.308 3.906-5.86 6.797-7.657 2.917-1.796 6.237-2.695 9.961-2.695 5.755 0 10.404 1.992 13.945 5.977 3.568 3.984 5.352 9.284 5.352 15.898v.508c0 4.115-.794 7.812-2.383 11.094-1.562 3.255-3.815 5.794-6.758 7.617-2.916 1.823-6.276 2.734-10.078 2.734-5.729 0-10.377-1.992-13.945-5.976-3.542-3.985-5.313-9.258-5.313-15.821v-.507zm7.266.859c0 4.687 1.081 8.45 3.242 11.289 2.188 2.839 5.104 4.258 8.75 4.258 3.672 0 6.589-1.432 8.75-4.297 2.162-2.891 3.242-6.927 3.242-12.109 0-4.636-1.106-8.386-3.32-11.25-2.188-2.891-5.104-4.336-8.75-4.336-3.568 0-6.445 1.419-8.633 4.257-2.187 2.839-3.281 6.901-3.281 12.188zM706.479 428h8.75l-10.469 11.484h-5.82L706.479 428zm31.914 17.734l.235 5.313c3.229-4.063 7.448-6.094 12.656-6.094 8.932 0 13.437 5.039 13.516 15.117V488h-7.227v-27.969c-.026-3.047-.729-5.299-2.109-6.758-1.355-1.458-3.477-2.187-6.368-2.187-2.343 0-4.401.625-6.171 1.875-1.771 1.25-3.151 2.891-4.141 4.922V488h-7.227v-42.266h6.836zm53.985 19.571c0 5.807-.769 11.38-2.305 16.718a48.78 48.78 0 01-6.992 14.727c-3.125 4.505-6.406 7.708-9.844 9.609l-1.523-4.414c4.01-3.073 7.226-7.838 9.648-14.297 2.448-6.484 3.698-13.671 3.75-21.562v-1.25c0-5.469-.573-10.547-1.719-15.234-1.146-4.714-2.747-8.933-4.804-12.657-2.032-3.724-4.323-6.627-6.875-8.711l1.523-4.414c3.438 1.901 6.706 5.078 9.805 9.532 3.125 4.453 5.455 9.362 6.992 14.726 1.562 5.365 2.344 11.107 2.344 17.227z"/>
    <path fill="#000" d="M259.657 567.711h-24.648v20.156h28.632V594h-36.132v-56.875h35.742v6.172h-28.242v18.281h24.648v6.133zm9.648 4.805c0-6.485 1.537-11.693 4.61-15.625 3.073-3.959 7.096-5.938 12.07-5.938 4.948 0 8.867 1.693 11.758 5.078V534h7.226v60h-6.64l-.352-4.531c-2.89 3.541-6.914 5.312-12.07 5.312-4.896 0-8.893-2.005-11.992-6.015-3.073-4.011-4.61-9.245-4.61-15.704v-.546zm7.227.82c0 4.792.99 8.542 2.969 11.25 1.979 2.708 4.713 4.062 8.203 4.062 4.583 0 7.93-2.057 10.039-6.171v-19.415c-2.162-3.984-5.482-5.976-9.961-5.976-3.542 0-6.302 1.367-8.281 4.102-1.979 2.734-2.969 6.783-2.969 12.148zm37.93-.82c0-6.485 1.536-11.693 4.609-15.625 3.073-3.959 7.096-5.938 12.07-5.938 4.948 0 8.868 1.693 11.758 5.078V534h7.227v60h-6.641l-.351-4.531c-2.891 3.541-6.915 5.312-12.071 5.312-4.896 0-8.893-2.005-11.992-6.015-3.073-4.011-4.609-9.245-4.609-15.704v-.546zm7.226.82c0 4.792.99 8.542 2.969 11.25 1.979 2.708 4.714 4.062 8.203 4.062 4.583 0 7.93-2.057 10.039-6.171v-19.415c-2.161-3.984-5.482-5.976-9.961-5.976-3.541 0-6.302 1.367-8.281 4.102-1.979 2.734-2.969 6.783-2.969 12.148zm53.516 10.078l9.844-31.68h7.734l-16.992 48.789c-2.63 7.032-6.81 10.547-12.539 10.547l-1.367-.117-2.696-.508v-5.859l1.953.156c2.448 0 4.349-.495 5.703-1.484 1.381-.99 2.514-2.8 3.399-5.43l1.601-4.297-15.078-41.797h7.891l10.547 31.68zm46.055-12.422h-13.36V594h-7.539v-56.875h18.828c6.406 0 11.328 1.458 14.766 4.375 3.463 2.917 5.195 7.161 5.195 12.734 0 3.542-.963 6.628-2.89 9.258-1.901 2.63-4.558 4.597-7.969 5.899l13.359 24.14V594h-8.047l-12.343-23.008zm-13.36-6.133h11.524c3.724 0 6.679-.963 8.867-2.89 2.213-1.927 3.32-4.505 3.32-7.735 0-3.515-1.055-6.211-3.164-8.086-2.083-1.875-5.104-2.825-9.062-2.851h-11.485v21.562zM235.094 696.867h26.954V703h-34.493v-56.875h7.539v50.742zm58.75 1.953c-2.812 3.308-6.94 4.961-12.382 4.961-4.506 0-7.943-1.302-10.313-3.906-2.344-2.63-3.528-6.51-3.555-11.641v-27.5h7.227v27.305c0 6.406 2.604 9.609 7.813 9.609 5.52 0 9.192-2.057 11.015-6.171v-30.743h7.227V703h-6.875l-.157-4.18zm35-.937c2.579 0 4.831-.781 6.758-2.344 1.927-1.562 2.995-3.516 3.203-5.859h6.836c-.13 2.422-.963 4.726-2.5 6.914-1.536 2.187-3.593 3.932-6.172 5.234a17.633 17.633 0 01-8.125 1.953c-5.755 0-10.338-1.914-13.75-5.742-3.385-3.854-5.078-9.115-5.078-15.781v-1.211c0-4.115.756-7.774 2.266-10.977 1.51-3.203 3.672-5.69 6.484-7.461 2.839-1.77 6.185-2.656 10.039-2.656 4.74 0 8.672 1.419 11.797 4.258 3.151 2.838 4.831 6.523 5.039 11.055h-6.836c-.208-2.735-1.25-4.974-3.125-6.719-1.849-1.771-4.14-2.656-6.875-2.656-3.671 0-6.523 1.328-8.554 3.984-2.005 2.63-3.008 6.445-3.008 11.445v1.368c0 4.869 1.003 8.619 3.008 11.25 2.005 2.63 4.87 3.945 8.593 3.945zM361.618 703h-7.266v-42.266h7.266V703zm.078-59.961h8.75l-10.469 11.484h-5.82l7.539-11.484zM399.626 703c-.417-.833-.755-2.318-1.016-4.453-3.359 3.489-7.37 5.234-12.031 5.234-4.167 0-7.591-1.172-10.274-3.515-2.656-2.37-3.984-5.365-3.984-8.985 0-4.401 1.667-7.812 5-10.234 3.359-2.448 8.073-3.672 14.141-3.672h7.031v-3.32c0-2.526-.755-4.532-2.266-6.016-1.51-1.51-3.737-2.266-6.679-2.266-2.579 0-4.74.651-6.485 1.954-1.745 1.302-2.617 2.877-2.617 4.726h-7.266c0-2.109.743-4.141 2.227-6.094 1.51-1.979 3.542-3.541 6.094-4.687 2.578-1.146 5.403-1.719 8.476-1.719 4.87 0 8.685 1.224 11.446 3.672 2.76 2.422 4.192 5.768 4.296 10.039v19.453c0 3.88.495 6.966 1.485 9.258V703h-7.578zm-11.992-5.508c2.265 0 4.414-.586 6.445-1.758 2.031-1.172 3.502-2.695 4.414-4.57v-8.672h-5.664c-8.854 0-13.281 2.591-13.281 7.774 0 2.265.755 4.036 2.265 5.312 1.511 1.276 3.451 1.914 5.821 1.914zm62.695-20.781H425.68v20.156h28.633V703H418.18v-56.875h35.743v6.172H425.68v18.281h24.649v6.133z"/>
    <path fill="#C4C4C4" d="M481 526h52.31v78.074H481z"/>
    <ellipse cx="507.156" cy="564.256" fill="#1AF407" rx="21.47" ry="19.518"/>
    <path fill="#C4C4C4" d="M548 625h52.31v78.074H548z"/>
    <ellipse cx="574.156" cy="663.256" fill="#fff" rx="21.47" ry="19.518"/>
    <path fill="#C4C4C4" d="M481 625h52.31v78.074H481z"/>
    <ellipse cx="507.156" cy="663.256" fill="#F40707" rx="21.47" ry="19.518"/>
    <g clip-path="url(#clip2)">
      <path fill="#5D5360" d="M208.631 479.284c-.496 0-.99-.184-1.368-.552-.287-.279-6.957-6.965-2.91-19.225 3.354-10.16.741-17.115-2.823-20.235-2.499-2.187-5.67-2.766-8.479-1.55a1.962 1.962 0 01-2.569-.962c-.435-.957.006-2.077.988-2.502 4.255-1.843 8.984-1.024 12.661 2.193 4.471 3.915 7.852 12.332 3.928 24.218-3.289 9.959 1.75 15.174 1.965 15.392a1.868 1.868 0 01-.025 2.675c-.38.366-.874.548-1.368.548z"/>
      <path fill="#6F6571" d="M201.342 447.881c0-4.78-6.08-14.577-15.079-17.422-13.347-4.218-36.484 6.756-59.266-.829l-21.89 2.844c0 4.832-12.241 12.182-16.167 14.467a1.861 1.861 0 00-.88 2.082l.926 3.613a1.912 1.912 0 001.536 1.406c2.799.482 10.151 1.411 16.547-.29 8.53 7.739 21.793 13.921 21.793 13.921v31.05l-5.711 1.391a3.855 3.855 0 00-2.748 2.48l-.55 1.607c-.354 1.037.437 2.107 1.559 2.107h7.474a3.615 3.615 0 002.987-1.558l2.1-3.07a5.613 5.613 0 00.918-2.322l4.335-28.518c11.93 6.393 32.264 6.291 46.205.118l8.858 16.387v10.983l-4.721 1.691a3.843 3.843 0 00-2.461 2.399l-.61 1.783c-.355 1.036.437 2.107 1.558 2.107h7.037c1.432 0 2.727-.83 3.295-2.11l2.316-5.22c.422-.95.64-1.975.64-3.01v-13.536c0-.496-.095-.977-.29-1.435-.903-2.12-3.602-8.984-3.602-15.3-.001-6.794 3.891-8.836 3.891-17.816z"/>
      <path fill="#5D5360" d="M116.662 435.343l-.498 3.622a2.709 2.709 0 002.157 3.018c2.305.469 5.931.57 9.596-1.888.702-.471.895-1.397.404-2.077-1.217-1.686-3.948-4.585-8.566-5.026-1.514-.145-2.892.881-3.093 2.351z"/>
      <path fill="#AEA8AF" d="M130.442 420.901c-.584-2.898-4.082-7.601-11.31-4.998-.517.187-.882.898 0 .838 2.273-.155 4.649-.172 5.351 2.223 1.784 6.083-8.999 8.059-13.783 8.454-3.167.261-5.513 2.133-5.594 5.056-.04 1.444 1.472 3.139 4.297 3.424 4.257.428 8.82-.718 10.351-1.28l.027-.01c3.648-1.344 12.12-6.469 10.661-13.707z"/>
      <path fill="#4B3F4E" d="M121.411 506.308h7.475c1.2 0 2.321-.584 2.987-1.558l2.1-3.07-5.112-2.957-5.71 1.391c-1.291.315-2.328 1.25-2.748 2.48l-.55 1.607c-.354 1.037.437 2.107 1.558 2.107zM194.288 498.328l-4.721 1.692a3.844 3.844 0 00-2.461 2.398l-.61 1.784c-.355 1.036.437 2.106 1.558 2.106h7.037c1.432 0 2.727-.829 3.295-2.11l1.309-2.95-5.407-2.92z"/>
      <path fill="#5D5360" d="M107.068 453.752c8.53 7.739 21.793 13.921 21.793 13.921v-4.432c0-1.405-.797-2.695-2.072-3.352l-11.811-6.091a7.924 7.924 0 00-5.666-.619c-.621.165-1.363.356-2.244.573zM139.741 467.932l-.514 2.909c11.93 6.392 32.264 6.29 46.204.118l-1.265-3.346c-.658-1.741-2.504-2.772-4.372-2.415-5.613 1.073-18.319 2.65-35.532-.348-2.122-.369-4.155 1.012-4.521 3.082z"/>
      <path fill="#4B3F4E" d="M107.46 443.732c1.074 0 1.945-.849 1.945-1.896 0-1.048-.871-1.897-1.945-1.897-1.075 0-1.946.849-1.946 1.897 0 1.047.871 1.896 1.946 1.896z"/>
      <path fill="#C9C6CA" d="M119.132 415.903c-.312.113-.563.414-.525.624 3.686-.941 7.085-.512 8.307 2.16.913 1.995 1.156 5.847-3.405 8.75-4.134 2.633-12.951 2.37-13.948 8.469 4.211.385 8.68-.734 10.192-1.289l.027-.01c3.648-1.343 12.121-6.469 10.661-13.707-.584-2.897-4.082-7.6-11.309-4.997z"/>
      <path fill="#5D5360" d="M88.94 446.941a1.862 1.862 0 00-.88 2.082l.926 3.614a1.913 1.913 0 001.536 1.405c1.75.302 5.28.778 9.243.677-1.062-4.434-3.084-7.872-5.925-10.789a117.424 117.424 0 01-4.9 3.011z"/>
      <path fill="#4B3F4E" d="M90.675 447.763c0-.544-.288-1.034-.75-1.401-.367.217-.7.413-.985.579a1.862 1.862 0 00-.88 2.082l.196.769c1.362-.126 2.42-.981 2.42-2.029z"/>
    </g>
    <g clip-path="url(#clip3)">
      <path fill="#FFC88C" d="M219.21 578.203a9.5 9.5 0 01-2.307-.283c-5.863-1.531-7.083-8.293-7.974-13.23l-.267-1.46c-2.556-13.318-8.019-19.912-18.271-22.05-1.068-.221-1.769-1.345-1.565-2.508.204-1.164 1.238-1.928 2.308-1.702 11.897 2.48 18.493 10.309 21.384 25.385l.279 1.509c.951 5.269 1.866 9.062 5.026 9.887.91.236 1.97.187 2.444.036.242-.948 1.033-1.631 2.005-1.567 1.085.063 1.92 1.073 1.862 2.255-.053 1.068-.525 2.018-1.333 2.673-.987.801-2.35 1.055-3.591 1.055z"/>
      <path fill="#D26437" d="M177.833 566.055c.136 6.231 3.202 27.425 3.202 27.425h-1.721c-1.378 0-2.656.783-3.37 2.066l-1.267 2.275c-.511.918.097 2.09 1.083 2.09h5.223c1.27 0 2.461-.665 3.201-1.787l2.716-4.116c.458-.694.697-1.513.725-2.367.222-6.68 2.057-14.271 3.016-17.457l-7.882-10.719-4.926 2.59zM149.26 569.896h-11.822l8.289 23.584c-1.463 0-2.805.881-3.486 2.289l-1.096 2.263c-.413.853.156 1.879 1.042 1.879h4.461c1.583 0 3.013-1.031 3.63-2.617l1.869-4.806a4.647 4.647 0 00.256-2.386l-3.143-20.206z"/>
      <path fill="#FFC88C" d="M135.326 557.033v16.487c23.952-.252 38.695-4.738 45.461-7.452v-9.035h-45.461z"/>
      <path fill="#EB874B" d="M200.861 554.839v-5.985c0-5.384-3.31-10.126-8.092-11.51-.038-.011-2.006-.46-2.006-.46-12.832-2.676-36.589 2.392-42.769 2.546-8.129.202-15.162-4.909-21.849-7.124-2.967-.983-6.129-1.038-9.171-.376l-3.885.844c-5.09 1.05-6.849 2.323-8.726 5.699-1.84 3.31-4.363 11.868-4.363 11.868s5.911 8.652 7.882 6.508c2.301-2.504 4.597-4.02 7.389-4.135 1.742-.072 3.854.772 5.728-.247 9.588 15.319-1.295 40.829-1.295 40.829h-.564c-1.506 0-2.881.934-3.541 2.407l-1.013 2.257c-.366.816.18 1.767 1.014 1.767h4.891c.859 0 1.71-.277 2.381-.861 9.291-8.082 16.792-28.057 19.092-34.671.479-1.378 1.565-2.402 2.893-2.691.242-.052.503-.107.781-.164l8.137-1.12c6.532-.486 14.924-.099 22.244 3.428a7.995 7.995 0 013.252 2.871c3.776 5.861 9.476 7.92 16.049 13.511 5.829 4.958 6.042 13.265 6.042 13.265-1.696 0-3.202 1.181-3.739 2.932l-.577 1.884c-.244.795.301 1.616 1.071 1.616h6.493c1.016 0 1.866-.841 1.962-1.942l1.686-19.403a2.248 2.248 0 00-.387-1.489c-1.628-2.338-7.01-10.909-7.01-22.054z"/>
      <path fill="#D26437" d="M116.28 529.826c-.998.689-2.431 1.982-3.465 4.185-.445.947.16 2.08 1.136 2.135l4.416.248c.885.049 1.576-.825 1.393-1.769-.246-1.262-.692-2.941-1.473-4.303-.426-.742-1.328-.964-2.007-.496zM124.414 589.964c7.765-16.156 4.538-31.272 2.386-37.934-.514-1.592-2.329-2.195-3.545-1.148a13.678 13.678 0 01-2.255 1.585c9.587 15.32-1.295 40.829-1.295 40.829 1.992-.141 3.784-1.408 4.709-3.332z"/>
      <path fill="#FFC88C" d="M107.882 556.849c2.301-2.504 4.597-4.02 7.389-4.135 1.742-.071 3.854.773 5.728-.247-.325.144-.686.066-1.082-.153-1.484-.821-3.474-3.624-6.001-4.258-3.202-.805-8.497 7.027-13.916 2.285 0 0 5.911 8.652 7.882 6.508z"/>
      <path fill="#8B534F" d="M166.656 555.426c-.219 0-.442-.041-.66-.125-1.025-.396-1.56-1.622-1.196-2.738l2.626-8.04c.364-1.116 1.493-1.697 2.517-1.302 1.026.397 1.561 1.623 1.197 2.739l-2.627 8.039c-.287.879-1.047 1.427-1.857 1.427zM189.481 556.945a1.84 1.84 0 01-.654-.122c-1.026-.393-1.567-1.617-1.205-2.734l2.627-8.129c.359-1.119 1.481-1.703 2.513-1.312 1.025.393 1.566 1.616 1.204 2.733l-2.626 8.13c-.285.882-1.047 1.434-1.859 1.434zM147.197 555.158c-.868 0-1.663-.629-1.899-1.584l-1.315-5.271c-.285-1.142.335-2.32 1.386-2.63 1.052-.306 2.134.365 2.417 1.508l1.314 5.271c.285 1.142-.335 2.32-1.386 2.631-.173.05-.346.075-.517.075z"/>
      <path fill="#4B3F4E" d="M108.868 542.025c.544 0 .985-.48.985-1.072 0-.592-.441-1.071-.985-1.071s-.985.479-.985 1.071.441 1.072.985 1.072z"/>
      <path fill="#5D5360" d="M103.489 551.941c0-1.776-1.323-3.216-2.955-3.216-.014 0-.028.005-.042.005-.304.975-.492 1.611-.492 1.611s1.265 1.844 2.816 3.62c.415-.554.673-1.25.673-2.02z"/>
      <path fill="#FFC88C" d="M115.599 599.727h4.891c.859 0 1.71-.277 2.381-.861 1.725-1.5 3.387-3.412 4.966-5.571h-8.698c-1.506 0-2.881.935-3.542 2.407l-1.013 2.258c-.365.816.181 1.767 1.015 1.767zM201.361 593.296c-1.696 0-3.203 1.181-3.739 2.932l-.577 1.883c-.244.795.301 1.616 1.071 1.616h6.493c1.017 0 1.866-.841 1.962-1.942l.39-4.489h-5.6z"/>
      <g>
        <path fill="#FFBE82" d="M181.033 593.48h-1.721c-1.378 0-2.656.783-3.37 2.066l-1.267 2.275c-.511.917.097 2.09 1.083 2.09h5.223c1.27 0 2.461-.665 3.201-1.787l2.716-4.116c.108-.163.163-.353.247-.529l-6.112.001zM145.727 593.48c-1.462 0-2.805.881-3.486 2.289l-1.096 2.262c-.413.854.156 1.88 1.043 1.88h4.461c1.583 0 3.012-1.031 3.629-2.617l1.483-3.815-6.034.001z"/>
      </g>
      <path fill="#8B534F" d="M127.904 532.952v10.324c0 1.184.882 2.144 1.971 2.144s1.97-.96 1.97-2.144v-8.614a77.249 77.249 0 00-3.941-1.71z"/>
      <g>
        <path fill="#734650" d="M137.616 537.219l-7.658 27.773c-.312 1.135.279 2.33 1.322 2.671.189.061.379.091.566.091.848 0 1.632-.6 1.888-1.529l7.641-27.714a37.958 37.958 0 01-3.759-1.292zM155.071 552.431c.244.946 1.035 1.566 1.895 1.566.177 0 .356-.026.535-.081 1.047-.32 1.659-1.503 1.365-2.643l-3.275-12.698c-1.468.203-2.784.379-3.958.522l3.438 13.334zM180.547 536.125l-4.067 18.534c-.252 1.152.4 2.308 1.459 2.583.154.04.307.059.459.059.892 0 1.7-.662 1.915-1.646l4.273-19.47a69.57 69.57 0 00-4.039-.06zM200.876 555.288l-9.857 8.846c-.839.753-.958 2.105-.266 3.018.391.514.953.779 1.523.779.44 0 .885-.16 1.252-.489l7.791-6.992a35.781 35.781 0 01-.443-5.162z"/>
      </g>
      <path fill="#8B534F" d="M203.17 567.634l-3.951 2.899c-.902.661-1.141 1.994-.533 2.976.381.614 1.003.945 1.636.945.379 0 .762-.118 1.099-.366l3.406-2.5a42.799 42.799 0 01-1.657-3.954z"/>
    </g>
    <path fill="#C4C4C4" d="M548 527h52.31v78.074H548z"/>
    <g clip-path="url(#clip4)">
      <path fill="#D26437" d="M173.16 714.716c14.936 0 24.48-13.011 24.48-30.865 0-18.884-15.3-31.88-16.32-44.904-.741-9.452 5.277-12.772 11.814-10.237.785.304 1.52-.603 1.19-1.507-1.935-5.287-7.726-16.944-19.974-12.014-14.457 5.818-9.69 29.879-5.61 42.265l4.42 57.262z"/>
      <path fill="#DCAA82" d="M118.081 667.607c-.752 0-1.36-.728-1.36-1.625v-2.118c0-.897.608-1.624 1.36-1.624.751 0 1.36.727 1.36 1.624v2.118c0 .897-.609 1.625-1.36 1.625z"/>
      <path fill="#965A50" d="M118.08 674.104c-1.878 0-3.4-1.818-3.4-4.061v-1.624c0-2.243 1.522-4.061 3.4-4.061 1.877 0 3.4 1.818 3.4 4.061v1.624c0 2.243-1.523 4.061-3.4 4.061z"/>
      <path fill="#F5DCB4" d="M152.193 693.028c-5.295-7.076-7.99-16.12-7.99-16.12l10.483-5.646 3.514 11.777-6.007 9.989z"/>
      <path fill="#D26437" d="M140.973 632.681c-.066 0-.134-.005-.203-.018-.742-.133-1.255-.96-1.143-1.847l.51-4.062c.111-.885.791-1.501 1.547-1.365.742.133 1.255.96 1.143 1.848l-.51 4.061c-.1.805-.681 1.383-1.344 1.383z"/>
      <path fill="#EB874B" d="M149.07 647.098a15.43 15.43 0 00-.246-1.081c-1.136-4.297-5.39-8.092-9.126-8.717-4.207-.704-8.538.714-11.667 4.171-4.016 4.439-5.626 10.296-6.091 13.183-.159.988.15 1.98.8 2.618a8.616 8.616 0 003.874 2.192s1.235 3.188 4.209 5.878c-4.411-.019-7.949-1.061-9.42-.324-1.833 1.035-2.342 2.735-2.448 3.974-.082.962.494 1.822 1.289 2 2.216.495 7.117 1.337 12.251 3.992 9.293 4.806 13.838 2.796 16.15 1.506 4.76-2.657 9.334.089 5.993 5.787-7.353 12.539.807 22.59 5.482 25.941h-6.035c-2.393 0-4.426 1.846-5.153 4.411-.292 1.027.4 2.086 1.308 2.086h21.773c2.799 0 5.393-1.754 6.833-4.621l1.759-3.501c11.107-27.074-6.12-58.48-31.535-59.495z"/>
      <path fill="#B44632" d="M140.181 629.527c-1.57 1.845-2.713 5.816-3.369 7.685-.923 2.628.604 5.554 2.986 5.723 2.126.152 3.948-2.075 3.91-4.619-.043-2.843-.77-7.074-1.599-8.566-.427-.77-1.377-.871-1.928-.223z"/>
      <path fill="#4B3F4E" d="M131.681 651.363c1.126 0 2.04-1.091 2.04-2.437 0-1.346-.914-2.436-2.04-2.436-1.127 0-2.04 1.09-2.04 2.436 0 1.346.913 2.437 2.04 2.437z"/>
      <path fill="#F5DCB4" d="M132.572 659.18c-2.359.613-4.378.667-5.924.284 0 0 1.235 3.188 4.209 5.878 4.672.02 10.325-1.107 15.542-6.709.607-.651.512-1.868-.234-2.26-4.323-2.27-8.768 1.553-13.593 2.807z"/>
      <path fill="#D26437" d="M124.372 658.505c2.104-3.752-.089-5.873-1.768-6.66a26.444 26.444 0 00-.626 2.789c-.162 1 .15 2.007.81 2.652.399.389.927.823 1.584 1.219zM167.72 704.969h-.356c-2.543 0-5.088-.722-7.229-2.362-6.223-4.768-7.041-14.12-6.447-18.531-4.282 8.923-.878 16.421 2.955 20.893h.032c1.192 1.392 2.425 2.492 3.48 3.249h7.565c.751 0 1.36-.727 1.36-1.624 0-.898-.609-1.625-1.36-1.625z"/>
      <path fill="#EB874B" d="M197.64 683.851c0-18.884-15.3-31.88-16.32-44.904-.74-9.452 5.277-12.771 11.814-10.237.446.173.869-.052 1.097-.438-5.488-10.346-16.198-12.241-20.561-4.525-5.065 8.955-1.984 22.133 6.29 32.489 5.042 6.311 21.646 34.113 7.458 53.46 6.473-5.375 10.222-14.658 10.222-25.845z"/>
    </g>
    <ellipse cx="574.47" cy="565.518" fill="#0C07F4" rx="21.47" ry="19.518"/>
    <path stroke="#000" d="M61.5 211.5h803v604h-803z"/>
    <g>
      <path fill="#CBBB29" d="M3049 6h778v141h-778z"/>
      <path fill="#000" d="M3196.48 105h-8.44V41.016h8.44V105zm21.88-47.549l.27 5.977c3.63-4.57 8.38-6.856 14.24-6.856 10.05 0 15.11 5.67 15.2 17.007V105h-8.13V73.535c-.03-3.428-.82-5.962-2.37-7.602-1.53-1.641-3.91-2.461-7.16-2.461-2.64 0-4.96.703-6.95 2.11-1.99 1.405-3.54 3.251-4.66 5.536V105h-8.13V57.451h7.69zm69.66 34.937c0-2.198-.84-3.897-2.51-5.098-1.64-1.23-4.52-2.285-8.65-3.164-4.11-.879-7.37-1.934-9.8-3.164-2.41-1.23-4.19-2.695-5.37-4.395-1.14-1.699-1.71-3.72-1.71-6.064 0-3.897 1.64-7.193 4.92-9.888 3.31-2.695 7.53-4.043 12.66-4.043 5.39 0 9.75 1.392 13.09 4.175 3.37 2.783 5.06 6.343 5.06 10.679h-8.18c0-2.227-.95-4.146-2.85-5.757-1.88-1.611-4.25-2.417-7.12-2.417-2.96 0-5.27.645-6.94 1.934-1.67 1.289-2.51 2.973-2.51 5.053 0 1.963.78 3.443 2.33 4.439s4.35 1.948 8.39 2.856c4.08.908 7.37 1.992 9.89 3.252 2.52 1.26 4.38 2.783 5.58 4.57 1.23 1.758 1.85 3.912 1.85 6.46 0 4.248-1.7 7.662-5.1 10.24-3.4 2.548-7.81 3.823-13.23 3.823-3.81 0-7.18-.674-10.11-2.022-2.92-1.347-5.22-3.222-6.89-5.625-1.65-2.431-2.47-5.053-2.47-7.866h8.13c.15 2.725 1.23 4.893 3.26 6.504 2.05 1.582 4.74 2.373 8.08 2.373 3.08 0 5.54-.615 7.39-1.846 1.87-1.26 2.81-2.93 2.81-5.01zm29.75-46.45V57.45h8.88v6.284h-8.88v29.488c0 1.904.39 3.34 1.19 4.306.79.938 2.13 1.407 4.04 1.407.94 0 2.22-.176 3.87-.528V105c-2.14.586-4.22.879-6.25.879-3.63 0-6.37-1.099-8.21-3.296-1.85-2.197-2.77-5.317-2.77-9.36V63.735h-8.66v-6.284h8.66V45.937h8.13zm41.4 18.808a24.505 24.505 0 00-4-.307c-5.34 0-8.95 2.27-10.86 6.811V105h-8.13V57.451h7.91l.13 5.493c2.67-4.248 6.45-6.372 11.34-6.372 1.58 0 2.78.205 3.61.615v7.56zm36.87 35.552c-3.17 3.721-7.81 5.581-13.94 5.581-5.06 0-8.93-1.465-11.6-4.395-2.63-2.959-3.97-7.324-4-13.095V57.45h8.13V88.17c0 7.207 2.93 10.81 8.79 10.81 6.21 0 10.34-2.314 12.4-6.943V57.451h8.13V105h-7.74l-.17-4.702zm39.37-1.055c2.9 0 5.43-.879 7.6-2.637 2.17-1.757 3.37-3.955 3.61-6.591h7.69c-.15 2.724-1.09 5.317-2.82 7.778-1.72 2.461-4.04 4.424-6.94 5.889a19.85 19.85 0 01-9.14 2.197c-6.47 0-11.63-2.153-15.47-6.46-3.81-4.336-5.71-10.254-5.71-17.754v-1.362c0-4.63.85-8.745 2.55-12.349 1.7-3.603 4.13-6.401 7.29-8.393 3.2-1.993 6.96-2.989 11.3-2.989 5.33 0 9.75 1.597 13.27 4.79 3.54 3.194 5.43 7.34 5.67 12.437h-7.69c-.24-3.076-1.41-5.596-3.52-7.559-2.08-1.992-4.66-2.988-7.73-2.988-4.13 0-7.34 1.494-9.63 4.482-2.25 2.96-3.38 7.251-3.38 12.876v1.538c0 5.479 1.13 9.698 3.38 12.657 2.26 2.959 5.48 4.438 9.67 4.438zm47.11 0c2.9 0 5.43-.879 7.6-2.637 2.17-1.757 3.37-3.955 3.61-6.591h7.69c-.15 2.724-1.09 5.317-2.82 7.778-1.72 2.461-4.04 4.424-6.94 5.889a19.85 19.85 0 01-9.14 2.197c-6.48 0-11.63-2.153-15.47-6.46-3.81-4.336-5.71-10.254-5.71-17.754v-1.362c0-4.63.85-8.745 2.55-12.349 1.7-3.603 4.13-6.401 7.29-8.393 3.2-1.993 6.96-2.989 11.3-2.989 5.33 0 9.75 1.597 13.27 4.79 3.54 3.194 5.43 7.34 5.67 12.437h-7.69c-.24-3.076-1.41-5.596-3.52-7.559-2.08-1.992-4.66-2.988-7.73-2.988-4.14 0-7.34 1.494-9.63 4.482-2.25 2.96-3.38 7.251-3.38 12.876v1.538c0 5.479 1.13 9.698 3.38 12.657 2.26 2.959 5.48 4.438 9.67 4.438zm36.87 5.757h-8.13V57.451h8.13V105zm-8.79-60.161c0-1.319.4-2.432 1.19-3.34.82-.908 2.02-1.362 3.6-1.362s2.78.454 3.6 1.362c.82.908 1.23 2.021 1.23 3.34 0 1.318-.41 2.417-1.23 3.296-.82.879-2.02 1.318-3.6 1.318s-2.78-.44-3.6-1.318c-.79-.88-1.19-1.978-1.19-3.296zm19.69 35.947c0-4.658.91-8.847 2.72-12.568 1.85-3.72 4.4-6.592 7.65-8.614 3.28-2.021 7.02-3.032 11.21-3.032 6.47 0 11.7 2.241 15.68 6.724 4.02 4.482 6.02 10.444 6.02 17.886v.57c0 4.63-.89 8.79-2.68 12.481-1.75 3.662-4.29 6.519-7.6 8.57-3.28 2.051-7.06 3.076-11.34 3.076-6.44 0-11.67-2.241-15.69-6.724-3.98-4.482-5.97-10.415-5.97-17.798v-.57zm8.17.967c0 5.273 1.22 9.507 3.65 12.7 2.46 3.194 5.74 4.79 9.84 4.79 4.13 0 7.42-1.611 9.85-4.834 2.43-3.252 3.64-7.793 3.64-13.623 0-5.215-1.24-9.433-3.73-12.656-2.46-3.252-5.74-4.878-9.84-4.878-4.02 0-7.26 1.597-9.72 4.79-2.46 3.193-3.69 7.764-3.69 13.71zm53-24.302l.26 5.977c3.64-4.57 8.38-6.856 14.24-6.856 10.05 0 15.12 5.67 15.21 17.007V105h-8.13V73.535c-.03-3.428-.82-5.962-2.38-7.602-1.52-1.641-3.91-2.461-7.16-2.461-2.64 0-4.95.703-6.94 2.11-1.99 1.405-3.55 3.251-4.66 5.536V105h-8.13V57.451h7.69zm61.7 48.428c-6.45 0-11.69-2.109-15.73-6.328-4.05-4.248-6.07-9.917-6.07-17.007V81.05c0-4.717.9-8.921 2.68-12.612 1.82-3.721 4.34-6.622 7.56-8.702 3.25-2.109 6.77-3.164 10.55-3.164 6.18 0 10.98 2.036 14.41 6.109 3.43 4.072 5.14 9.902 5.14 17.49v3.384h-32.21c.12 4.687 1.48 8.481 4.09 11.381 2.64 2.872 5.98 4.307 10.02 4.307 2.87 0 5.3-.586 7.29-1.758 2-1.171 3.74-2.724 5.23-4.658l4.97 3.867c-3.99 6.123-9.96 9.185-17.93 9.185zm-1.01-42.627c-3.28 0-6.04 1.201-8.26 3.604-2.23 2.373-3.61 5.712-4.13 10.019h23.81v-.615c-.23-4.131-1.34-7.325-3.34-9.58-1.99-2.286-4.68-3.428-8.08-3.428zm56.69 29.136c0-2.198-.84-3.897-2.51-5.098-1.64-1.23-4.52-2.285-8.65-3.164-4.11-.879-7.37-1.934-9.8-3.164-2.41-1.23-4.19-2.695-5.37-4.395-1.14-1.699-1.71-3.72-1.71-6.064 0-3.897 1.64-7.193 4.92-9.888 3.31-2.695 7.53-4.043 12.66-4.043 5.39 0 9.75 1.392 13.09 4.175 3.37 2.783 5.06 6.343 5.06 10.679h-8.18c0-2.227-.95-4.146-2.85-5.757-1.88-1.611-4.25-2.417-7.12-2.417-2.96 0-5.27.645-6.94 1.934-1.67 1.289-2.51 2.973-2.51 5.053 0 1.963.78 3.443 2.33 4.439s4.35 1.948 8.39 2.856c4.08.908 7.37 1.992 9.89 3.252 2.52 1.26 4.38 2.783 5.58 4.57 1.23 1.758 1.85 3.912 1.85 6.46 0 4.248-1.7 7.662-5.1 10.24-3.4 2.548-7.81 3.823-13.23 3.823-3.81 0-7.18-.674-10.1-2.022-2.93-1.347-5.23-3.222-6.9-5.625-1.64-2.431-2.47-5.053-2.47-7.866h8.13c.15 2.725 1.24 4.893 3.26 6.504 2.05 1.582 4.74 2.373 8.08 2.373 3.08 0 5.54-.615 7.39-1.846 1.87-1.26 2.81-2.93 2.81-5.01z"/>
    </g>
    <g>
      <path stroke="#000" d="M15 175.5h3898"/>
      <path fill="#C4C4C4" d="M25 9h157v157H25z"/>
      <path stroke="#000" d="M25.349 12.979l157 152.663M24.646 165.646l157-157"/>
      <path fill="#000" d="M296.633 86.117c0 10.031-1.688 18.797-5.063 26.297-3.375 7.453-8.156 13.148-14.343 17.086-6.188 3.938-13.407 5.906-21.657 5.906-8.062 0-15.211-1.968-21.445-5.906-6.234-3.984-11.086-9.633-14.555-16.945-3.422-7.36-5.179-15.868-5.273-25.524v-7.383c0-9.843 1.711-18.539 5.133-26.085 3.422-7.547 8.25-13.313 14.484-17.297 6.281-4.032 13.453-6.047 21.516-6.047 8.203 0 15.422 1.992 21.656 5.976 6.281 3.938 11.109 9.68 14.484 17.227 3.375 7.5 5.063 16.242 5.063 26.226v6.47zm-13.43-6.61c0-12.14-2.437-21.445-7.312-27.913-4.875-6.516-11.696-9.774-20.461-9.774-8.532 0-15.258 3.258-20.18 9.774-4.875 6.468-7.383 15.468-7.523 27v7.523c0 11.766 2.461 21.024 7.382 27.774 4.969 6.703 11.789 10.054 20.461 10.054 8.719 0 15.469-3.164 20.25-9.492 4.782-6.375 7.242-15.492 7.383-27.351v-7.594zm99 36.563l14.625-58.148h13.008L387.688 134h-10.547l-18.493-57.656-18 57.656h-10.546l-22.079-76.078h12.938l14.977 56.953 17.718-56.953h10.477l18.07 58.148zM437.258 134H424.25V26h13.008v108zm96.187-41.414h-24.047V134h-13.57V31.625h33.891c11.531 0 20.39 2.625 26.578 7.875 6.234 5.25 9.351 12.89 9.351 22.922 0 6.375-1.734 11.93-5.203 16.664-3.422 4.734-8.203 8.273-14.343 10.617l24.046 43.453V134h-14.484l-22.219-41.414zm-24.047-11.04h20.743c6.703 0 12.023-1.734 15.961-5.202 3.984-3.469 5.976-8.11 5.976-13.922 0-6.328-1.898-11.18-5.695-14.555-3.75-3.375-9.188-5.086-16.313-5.133h-20.672v38.813zm120.164 44.931c-5.062 5.953-12.492 8.929-22.289 8.929-8.109 0-14.296-2.344-18.562-7.031-4.219-4.734-6.352-11.719-6.399-20.953v-49.5h13.008v49.148c0 11.532 4.688 17.297 14.063 17.297 9.937 0 16.547-3.703 19.828-11.109V57.922h13.008V134h-12.375l-.282-7.523zm76.782-12.657c0-3.515-1.336-6.234-4.008-8.156-2.625-1.969-7.242-3.656-13.852-5.062-6.562-1.407-11.789-3.094-15.679-5.063-3.844-1.969-6.703-4.312-8.578-7.031-1.829-2.719-2.743-5.953-2.743-9.703 0-6.235 2.625-11.508 7.875-15.82 5.297-4.313 12.047-6.47 20.25-6.47 8.625 0 15.61 2.227 20.953 6.68 5.391 4.453 8.086 10.149 8.086 17.086H705.57c0-3.562-1.523-6.633-4.57-9.21-3-2.579-6.797-3.868-11.391-3.868-4.734 0-8.437 1.031-11.109 3.094-2.672 2.062-4.008 4.758-4.008 8.086 0 3.14 1.242 5.508 3.727 7.101 2.484 1.594 6.961 3.118 13.429 4.57 6.516 1.454 11.79 3.188 15.821 5.204 4.031 2.015 7.008 4.453 8.929 7.312 1.969 2.813 2.954 6.258 2.954 10.336 0 6.797-2.719 12.258-8.157 16.383-5.437 4.078-12.492 6.117-21.164 6.117-6.093 0-11.484-1.078-16.172-3.234-4.687-2.156-8.367-5.156-11.039-9-2.625-3.891-3.937-8.086-3.937-12.586h13.008c.234 4.359 1.968 7.828 5.203 10.406 3.281 2.531 7.594 3.797 12.937 3.797 4.922 0 8.86-.984 11.813-2.953 3-2.016 4.5-4.688 4.5-8.016zm42.961-46.687c5.765-7.078 13.265-10.617 22.5-10.617 16.078 0 24.187 9.07 24.328 27.21V134h-13.008V83.656c-.047-5.484-1.313-9.539-3.797-12.164-2.437-2.625-6.258-3.937-11.461-3.937-4.219 0-7.922 1.125-11.109 3.375-3.188 2.25-5.672 5.203-7.453 8.86V134h-13.008V26h13.008v41.133zm80.859 37.969h-11.742l-.914-73.477h13.64l-.984 73.477zm-13.148 22.359c0-2.109.632-3.867 1.898-5.273 1.313-1.454 3.234-2.18 5.766-2.18 2.531 0 4.453.726 5.765 2.18 1.313 1.406 1.969 3.164 1.969 5.273 0 2.109-.656 3.867-1.969 5.273-1.312 1.36-3.234 2.039-5.765 2.039-2.532 0-4.453-.679-5.766-2.039-1.266-1.406-1.898-3.164-1.898-5.273z"/>
    </g>
    <g>
      <path fill="#000" d="M2385 407V259h88v148zM2505 407V259h88v148z"/>
      <path fill="#C4C4C4" d="M2265 407V259h88v148zM1905 407V259h88v148zM2145 407V259h88v148zM1785 407V259h88v148zM2025 407V259h88v148zM1425 407V259h88v148zM1305 407V259h88v148zM1545 407V259h88v148zM1665 407V259h88v148z"/>
      <g clip-path="url(#clip5)">
        <path fill="#FFDC64" d="M2400.2 367.04l-1.58 26.105c-.11 1.775 2.09 2.685 3.27 1.354l17.34-19.577.47.094 8.53 24.723c.58 1.681 2.96 1.681 3.54 0l8.53-24.723.2-.403 17.62 19.885c1.18 1.331 3.37.421 3.26-1.354l-1.6-26.516.06-.038 23.88 11.63c1.6.779 3.28-.902 2.5-2.501l-11.63-23.884.04-.057 26.51 1.606c1.78.107 2.69-2.09 1.36-3.269l-19.89-17.615.02-.067 25.11-8.664c1.68-.58 1.68-2.958 0-3.538l-25.11-8.664-.02-.068 19.89-17.615c1.33-1.179.42-3.376-1.36-3.268l-26.51 1.606-.04-.057 11.63-23.884c.78-1.599-.9-3.28-2.5-2.501l-23.88 11.63-.06-.038 1.6-26.516c.11-1.776-2.09-2.686-3.26-1.354l-17.62 19.885-.07-.013-8.66-25.113c-.58-1.681-2.96-1.681-3.54 0l-8.66 25.113-.34-.296-17.35-19.576c-1.17-1.332-3.37-.421-3.26 1.354l1.58 26.105-.41.269-23.51-11.45c-1.6-.779-3.28.902-2.5 2.501l11.45 23.513-.27.403-26.1-1.58c-1.78-.108-2.69 2.089-1.36 3.268l19.58 17.342-.1.475-24.72 8.53c-1.68.58-1.68 2.957 0 3.538l24.72 8.529.1.475-19.58 17.342c-1.33 1.179-.42 3.376 1.36 3.268l26.1-1.581.27.403-11.45 23.513c-.78 1.599.9 3.28 2.5 2.501l23.51-11.45"/>
        <path fill="#FFC850" d="M2482.8 322.268c0-29.379-23.82-53.195-53.2-53.195-29.38 0-53.19 23.816-53.19 53.195 0 29.38 23.81 53.196 53.19 53.196s53.2-23.816 53.2-53.196z"/>
        <path fill="#EBAF4B" d="M2427.17 282.561c27.14 11.243 40.03 42.361 28.79 69.505-3.92 9.442-10.24 17.153-17.95 22.729 17.62-2.837 33.41-14.469 40.74-32.171 11.24-27.143-1.65-58.262-28.79-69.505-17.7-7.332-37.09-4.394-51.56 6.061 9.4-1.514 19.32-.53 28.77 3.381z"/>
      </g>
    </g>
    <g>
      <path fill="#C4C4C4" d="M704.797 973v145.77H486.999V973z"/>
      <ellipse cx="598.043" cy="1045.89" fill="#1AF407" rx="60.023" ry="54.449" transform="rotate(90 598.043 1045.89)"/>
      <path fill="#C4C4C4" d="M704.797 1195.94v145.77H486.999v-145.77z"/>
      <ellipse cx="598.043" cy="1268.83" fill="#0C07F4" rx="60.023" ry="54.449" transform="rotate(90 598.043 1268.83)"/>
    </g>
    <g>
      <path fill="#C4C4C4" d="M1064 563h218v218h-218zM1064 781h218v218h-218z"/>
      <path fill="#C4C4C4" d="M1064 996h218v218h-218zM1064 1214h218v218h-218zM1064 1432h218v218h-218zM1064 1650h218v218h-218z"/>
      <path fill="#C4C4C4" d="M1064 1866h218v218h-218z"/>
      <path fill="#F40707" d="M1282 1865h218v218h-218zM1032 499h282v282h-282z"/>
      <path fill="#F8FD00" d="M1064 781h218v218h-218zM1718 564h218v218h-218z"/>
      <path fill="#33D325" d="M1064 996h218v218h-218z"/>
      <path fill="#0C07F4" d="M1064 1214h218v218h-218z"/>
      <path fill="#F40707" d="M1064 1432h218v218h-218z"/>
      <path fill="#F8FD00" d="M1064 1650h218v218h-218z"/>
      <path fill="#33D325" d="M1064 1866h218v218h-218z"/>
      <path fill="#F40707" d="M1500 562h218v218h-218z"/>
      <path fill="#0C07F4" d="M1500 780h218v218h-218z"/>
      <path fill="#F8FD00" d="M1500 995h218v218h-218z"/>
      <path fill="#F40707" d="M1500 1213h218v218h-218z"/>
      <path fill="#0C07F4" d="M1500 1431h218v218h-218z"/>
      <path fill="#33D325" d="M1500 1649h218v218h-218z"/>
      <path fill="#0C07F4" d="M1500 1865h218v218h-218z"/>
      <path fill="#F8FD00" d="M2590 562h218v218h-218z"/>
      <path fill="#F40707" d="M2808 562h218v218h-218z"/>
      <path fill="#0C07F4" d="M2808 780h218v218h-218z"/>
      <path fill="#F8FD00" d="M2808 995h218v218h-218z"/>
      <path fill="#F40707" d="M2808 1213h218v218h-218z"/>
      <path fill="#0C07F4" d="M2808 1431h218v218h-218z"/>
      <path fill="#F8FD00" d="M2808 1649h218v218h-218z"/>
      <path fill="#0C07F4" d="M2808 1865h218v218h-218z"/>
      <path fill="#C4C4C4" d="M2590 2084h-218v-218h218zM2590 1866h-218v-218h218z"/>
      <path fill="#C4C4C4" d="M2590 1651h-218v-218h218zM2590 1433h-218v-218h218zM2590 1215h-218V997h218zM2590 997h-218V779h218z"/>
      <path fill="#C4C4C4" d="M2590 781h-218V563h218z"/>
      <path fill="#1AF407" d="M2372 2083h-218v-218h218z"/>
      <path fill="#F40707" d="M2590 2084h-218v-218h218z"/>
      <path fill="#F8FD00" d="M2590 1866h-218v-218h218z"/>
      <path fill="#33D325" d="M2590 1651h-218v-218h218z"/>
      <path fill="#0C07F4" d="M2590 1433h-218v-218h218z"/>
      <path fill="#F40707" d="M2590 1215h-218V997h218z"/>
      <path fill="#F8FD00" d="M2590 997h-218V779h218z"/>
      <path fill="#33D325" d="M2590 781h-218V563h218z"/>
      <path fill="#F40707" d="M2154 2085h-218v-218h218z"/>
      <path fill="#0C07F4" d="M2154 1867h-218v-218h218z"/>
      <path fill="#F8FD00" d="M2154 1652h-218v-218h218z"/>
      <path fill="#F40707" d="M2154 1434h-218v-218h218z"/>
      <path fill="#0C07F4" d="M2154 1216h-218V998h218z"/>
      <path fill="#33D325" d="M2154 998h-218V780h218z"/>
      <path fill="#0C07F4" d="M2154 782h-218V564h218z"/>
    </g>
    <path fill="#F8FD00" d="M3025 1807h309v309h-309z"/>
    <path stroke="#000" d="M61.5 862.5h803v708h-803zM61.5 1614.5h803v531h-803zM982.5 211.5h2554v219h-2554zM3861.5 211.5v1934h-282v-1934zM982.5 478.5h2554v1667h-2554z"/>
    <g clip-path="url(#clip6)">
      <path fill="#D26437" d="M2500.16 723.716c14.94 0 24.48-13.011 24.48-30.865 0-18.884-15.3-31.88-16.32-44.904-.74-9.452 5.28-12.772 11.81-10.237.79.304 1.52-.603 1.19-1.507-1.93-5.287-7.72-16.944-19.97-12.014-14.46 5.818-9.69 29.879-5.61 42.265l4.42 57.262z"/>
      <path fill="#DCAA82" d="M2445.08 676.607c-.75 0-1.36-.728-1.36-1.625v-2.118c0-.897.61-1.624 1.36-1.624.75 0 1.36.727 1.36 1.624v2.118c0 .897-.61 1.625-1.36 1.625z"/>
      <path fill="#965A50" d="M2445.08 683.104c-1.88 0-3.4-1.818-3.4-4.061v-1.624c0-2.243 1.52-4.061 3.4-4.061s3.4 1.818 3.4 4.061v1.624c0 2.243-1.52 4.061-3.4 4.061z"/>
      <path fill="#F5DCB4" d="M2479.19 702.028c-5.29-7.076-7.99-16.12-7.99-16.12l10.49-5.646 3.51 11.777-6.01 9.989z"/>
      <path fill="#D26437" d="M2467.97 641.681c-.06 0-.13-.005-.2-.018-.74-.133-1.25-.96-1.14-1.847l.51-4.062c.11-.885.79-1.501 1.54-1.365.75.133 1.26.96 1.15 1.848l-.51 4.061c-.1.805-.68 1.383-1.35 1.383z"/>
      <path fill="#EB874B" d="M2476.07 656.098a11.93 11.93 0 00-.25-1.081c-1.13-4.297-5.39-8.092-9.12-8.717-4.21-.704-8.54.714-11.67 4.171-4.01 4.439-5.62 10.296-6.09 13.183-.16.988.15 1.98.8 2.618a8.628 8.628 0 003.87 2.192s1.24 3.188 4.21 5.878c-4.41-.019-7.95-1.061-9.42-.324-1.83 1.035-2.34 2.735-2.44 3.974-.09.962.49 1.822 1.28 2 2.22.495 7.12 1.337 12.26 3.992 9.29 4.806 13.83 2.796 16.15 1.506 4.76-2.657 9.33.089 5.99 5.787-7.35 12.539.81 22.59 5.48 25.941h-6.03c-2.4 0-4.43 1.846-5.16 4.411-.29 1.027.4 2.086 1.31 2.086h21.77c2.8 0 5.4-1.754 6.84-4.621l1.76-3.501c11.1-27.074-6.12-58.48-31.54-59.495z"/>
      <path fill="#B44632" d="M2467.18 638.527c-1.57 1.845-2.71 5.816-3.37 7.685-.92 2.628.61 5.554 2.99 5.723 2.12.152 3.95-2.075 3.91-4.619-.04-2.843-.77-7.074-1.6-8.566-.43-.77-1.38-.871-1.93-.223z"/>
      <path fill="#4B3F4E" d="M2458.68 660.363c1.13 0 2.04-1.091 2.04-2.437 0-1.346-.91-2.436-2.04-2.436s-2.04 1.09-2.04 2.436c0 1.346.91 2.437 2.04 2.437z"/>
      <path fill="#F5DCB4" d="M2459.57 668.18c-2.36.613-4.38.667-5.92.284 0 0 1.23 3.188 4.21 5.878 4.67.02 10.32-1.107 15.54-6.709.61-.651.51-1.868-.24-2.26-4.32-2.27-8.76 1.553-13.59 2.807z"/>
      <path fill="#D26437" d="M2451.37 667.505c2.11-3.752-.09-5.873-1.77-6.66a28.1 28.1 0 00-.62 2.789c-.16 1 .15 2.007.81 2.652.4.389.92.823 1.58 1.219zM2494.72 713.969h-.36c-2.54 0-5.08-.722-7.23-2.362-6.22-4.768-7.04-14.12-6.44-18.531-4.28 8.923-.88 16.421 2.95 20.893h.03c1.2 1.392 2.43 2.492 3.49 3.249h7.56c.75 0 1.36-.727 1.36-1.624 0-.898-.61-1.625-1.36-1.625z"/>
      <path fill="#EB874B" d="M2524.64 692.851c0-18.884-15.3-31.88-16.32-44.904-.74-9.452 5.28-12.771 11.81-10.237.45.173.87-.052 1.1-.438-5.49-10.346-16.2-12.241-20.56-4.525-5.06 8.955-1.98 22.133 6.29 32.489 5.04 6.311 21.65 34.113 7.46 53.46 6.47-5.375 10.22-14.658 10.22-25.845z"/>
    </g>
    <g>
      <path fill="#FFC88C" d="M2136.7 1351.12c-1.5 0-2.9-.22-3.88-.48-9.87-2.57-11.93-13.94-13.43-22.23l-.45-2.46c-4.3-22.38-13.5-33.46-30.76-37.06-1.79-.37-2.97-2.26-2.63-4.21.34-1.96 2.08-3.24 3.88-2.86 20.04 4.17 31.14 17.32 36.01 42.66l.47 2.54c1.6 8.85 3.14 15.23 8.46 16.61 1.53.4 3.32.32 4.11.06.41-1.59 1.74-2.74 3.38-2.63 1.83.11 3.23 1.8 3.13 3.79-.09 1.8-.88 3.39-2.24 4.49-1.66 1.35-3.96 1.78-6.05 1.78z"/>
      <path fill="#D26437" d="M2067.04 1330.7c.23 10.47 5.39 46.09 5.39 46.09h-2.9c-2.32 0-4.47 1.32-5.67 3.47l-2.13 3.83c-.86 1.54.16 3.51 1.82 3.51h8.79c2.14 0 4.15-1.12 5.39-3l4.58-6.92c.77-1.17 1.17-2.54 1.22-3.98.37-11.23 3.46-23.98 5.07-29.34l-13.27-18.01-8.29 4.35zM2018.94 1337.16h-19.91l13.96 39.63c-2.46 0-4.72 1.48-5.87 3.85l-1.85 3.8c-.69 1.44.27 3.16 1.76 3.16h7.51c2.66 0 5.07-1.73 6.11-4.4l3.15-8.08c.49-1.26.64-2.65.43-4.01l-5.29-33.95z"/>
      <path fill="#FFC88C" d="M1995.48 1315.54v27.71c40.32-.43 65.14-7.97 76.54-12.53v-15.18h-76.54z"/>
      <path fill="#EB874B" d="M2105.81 1311.85v-10.06c0-9.05-5.57-17.02-13.62-19.34-.07-.02-3.38-.78-3.38-.78-21.6-4.49-61.6 4.02-72.01 4.28-13.68.34-25.52-8.25-36.78-11.97-5-1.65-10.32-1.74-15.44-.63l-6.54 1.42c-8.57 1.76-11.53 3.9-14.69 9.57-3.1 5.57-7.35 19.95-7.35 19.95s9.95 14.54 13.27 10.94c3.87-4.21 7.74-6.76 12.44-6.95 2.93-.12 6.49 1.3 9.64-.42 16.15 25.75-2.18 68.62-2.18 68.62h-.95c-2.53 0-4.85 1.57-5.96 4.05l-1.7 3.79c-.62 1.37.3 2.97 1.7 2.97h8.24c1.45 0 2.88-.47 4.01-1.45 15.64-13.58 28.27-47.15 32.14-58.27.81-2.31 2.64-4.03 4.87-4.52.41-.09.85-.18 1.32-.27l13.7-1.89c10.99-.81 25.12-.16 37.45 5.76 2.18 1.06 4.1 2.7 5.47 4.83 6.36 9.85 15.96 13.31 27.02 22.71 9.82 8.33 10.17 22.29 10.17 22.29-2.85 0-5.39 1.99-6.29 4.93l-.97 3.16c-.41 1.34.5 2.72 1.8 2.72h10.93c1.71 0 3.14-1.41 3.31-3.26l2.84-32.61c.07-.9-.15-1.79-.66-2.51-2.74-3.92-11.8-18.33-11.8-37.06z"/>
      <path fill="#D26437" d="M1963.41 1269.81c-1.68 1.16-4.09 3.33-5.84 7.04-.74 1.59.27 3.49 1.92 3.58l7.43.42c1.49.08 2.66-1.39 2.35-2.97-.42-2.12-1.17-4.95-2.48-7.23-.72-1.25-2.24-1.62-3.38-.84zM1977.1 1370.88c13.08-27.15 7.64-52.56 4.02-63.75-.87-2.68-3.92-3.69-5.97-1.93-1.13.97-2.41 1.9-3.8 2.66 16.15 25.75-2.18 68.62-2.18 68.62 3.36-.24 6.37-2.36 7.93-5.6z"/>
      <path fill="#FFC88C" d="M1949.27 1315.23c3.87-4.21 7.74-6.76 12.44-6.95 2.93-.12 6.49 1.3 9.64-.42-.54.25-1.15.11-1.82-.25-2.5-1.38-5.85-6.09-10.1-7.16-5.39-1.35-14.31 11.81-23.43 3.84 0 0 9.95 14.54 13.27 10.94z"/>
      <path fill="#8B534F" d="M2048.22 1312.84c-.37 0-.74-.07-1.11-.21-1.72-.67-2.62-2.73-2.01-4.61l4.42-13.51c.61-1.87 2.51-2.85 4.24-2.19 1.72.67 2.63 2.73 2.01 4.61l-4.42 13.51c-.48 1.47-1.76 2.4-3.13 2.4zM2086.65 1315.39c-.37 0-.74-.07-1.1-.21-1.73-.66-2.64-2.71-2.03-4.59l4.42-13.66c.61-1.88 2.5-2.87 4.23-2.21 1.73.66 2.64 2.72 2.03 4.6l-4.42 13.66c-.48 1.48-1.76 2.41-3.13 2.41zM2015.46 1312.39c-1.46 0-2.8-1.06-3.19-2.67l-2.22-8.85c-.48-1.92.57-3.9 2.33-4.43 1.78-.51 3.6.62 4.07 2.54l2.22 8.86c.48 1.92-.57 3.9-2.34 4.42-.29.08-.58.13-.87.13z"/>
      <path fill="#4B3F4E" d="M1950.93 1290.31c.92 0 1.66-.8 1.66-1.8 0-.99-.74-1.8-1.66-1.8-.92 0-1.66.81-1.66 1.8 0 1 .74 1.8 1.66 1.8z"/>
      <path fill="#5D5360" d="M1941.87 1306.98c0-2.99-2.22-5.4-4.97-5.4h-.07c-.51 1.64-.83 2.71-.83 2.71s2.13 3.1 4.74 6.08c.7-.93 1.13-2.1 1.13-3.39z"/>
      <path fill="#FFC88C" d="M1962.26 1387.29h8.24c1.45 0 2.88-.47 4.01-1.45 2.9-2.52 5.7-5.73 8.36-9.36H1968.22c-2.53 0-4.85 1.57-5.96 4.05l-1.7 3.79c-.62 1.37.3 2.97 1.7 2.97zM2106.65 1376.48c-2.85 0-5.39 1.99-6.29 4.93l-.97 3.16c-.41 1.34.5 2.72 1.8 2.72h10.93c1.71 0 3.14-1.41 3.31-3.26l.65-7.55h-9.43z"/>
      <g>
        <path fill="#FFBE82" d="M2072.43 1376.79h-2.9c-2.32 0-4.47 1.32-5.67 3.47l-2.13 3.83c-.86 1.54.16 3.51 1.82 3.51h8.79c2.14 0 4.15-1.12 5.39-3l4.57-6.92c.19-.28.28-.59.42-.89h-10.29zM2012.99 1376.79c-2.47 0-4.73 1.48-5.87 3.85l-1.85 3.8c-.69 1.44.26 3.16 1.76 3.16h7.51c2.66 0 5.07-1.73 6.11-4.4l2.5-6.41h-10.16z"/>
      </g>
      <path fill="#8B534F" d="M1982.98 1275.07v17.35c0 1.99 1.48 3.6 3.32 3.6 1.83 0 3.32-1.61 3.32-3.6v-14.48c-2.25-1.03-4.46-2.02-6.64-2.87z"/>
      <g>
        <path fill="#734650" d="M1999.33 1282.24l-12.89 46.67c-.53 1.91.47 3.92 2.22 4.49.32.11.64.15.95.15 1.43 0 2.75-1 3.18-2.56l12.87-46.58a66.5 66.5 0 01-6.33-2.17zM2028.72 1307.8c.41 1.59 1.74 2.63 3.19 2.63.3 0 .6-.04.9-.13 1.76-.54 2.79-2.53 2.29-4.44l-5.51-21.34c-2.47.34-4.68.63-6.66.87l5.79 22.41zM2071.61 1280.4l-6.85 31.15c-.42 1.93.68 3.88 2.46 4.34.26.07.52.1.77.1 1.5 0 2.86-1.11 3.22-2.77l7.2-32.72c-2.2-.1-4.47-.13-6.8-.1zM2105.83 1312.6l-16.59 14.87c-1.41 1.27-1.61 3.54-.45 5.07.66.87 1.61 1.31 2.56 1.31.75 0 1.49-.27 2.11-.82l13.12-11.75a60.17 60.17 0 01-.75-8.68z"/>
      </g>
      <path fill="#8B534F" d="M2109.7 1333.35l-6.65 4.88c-1.52 1.11-1.93 3.35-.9 5 .64 1.03 1.69 1.59 2.75 1.59.64 0 1.29-.2 1.85-.62l5.74-4.2c-.95-1.97-1.91-4.19-2.79-6.65z"/>
    </g>
    <g>
      <path fill="#5D5360" d="M1279.52 921.591c-.88 0-1.77-.329-2.44-.986-.51-.497-12.43-12.418-5.2-34.279 5.99-18.118 1.33-30.518-5.04-36.082-4.47-3.9-10.13-4.933-15.15-2.764-1.75.77-3.81-.01-4.59-1.715-.78-1.707.01-3.704 1.76-4.462 7.6-3.286 16.05-1.826 22.62 3.911 7.99 6.98 14.03 21.989 7.02 43.182-5.87 17.76 3.13 27.058 3.51 27.446a3.326 3.326 0 01-.04 4.772c-.68.651-1.56.977-2.45.977z"/>
      <path fill="#6F6571" d="M1266.5 865.595c0-8.524-10.86-25.993-26.94-31.065-23.85-7.522-65.18 12.045-105.89-1.479l-39.11 5.071c0 8.617-21.87 21.722-28.88 25.797-1.32.764-1.95 2.265-1.57 3.712l1.65 6.443a3.416 3.416 0 002.75 2.506c5 .861 18.13 2.516 29.56-.517 15.24 13.801 38.94 24.823 38.94 24.823v55.367l-10.21 2.48c-2.3.561-4.16 2.229-4.91 4.422l-.98 2.866c-.63 1.848.78 3.756 2.78 3.756h13.36c2.14 0 4.15-1.042 5.34-2.778l3.75-5.474a10.094 10.094 0 001.64-4.14l7.74-50.851c21.32 11.399 57.65 11.217 82.55.211l15.83 29.22v19.583l-8.43 3.016c-2.08.673-3.71 2.257-4.4 4.277l-1.09 3.179c-.64 1.848.78 3.757 2.78 3.757h12.58c2.55 0 4.87-1.479 5.88-3.763l4.14-9.306a13.266 13.266 0 001.14-5.369v-24.135a6.45 6.45 0 00-.52-2.56c-1.61-3.779-6.43-16.019-6.43-27.282 0-12.114 6.95-15.755 6.95-31.767z"/>
      <path fill="#5D5360" d="M1115.21 843.237l-.89 6.458c-.34 2.499 1.32 4.868 3.86 5.383 4.11.836 10.59 1.015 17.14-3.367 1.25-.84 1.6-2.492.72-3.704-2.17-3.006-7.05-8.175-15.3-8.962-2.71-.258-5.17 1.572-5.53 4.192z"/>
      <path fill="#AEA8AF" d="M1139.83 817.485c-1.04-5.166-7.29-13.553-20.21-8.91-.92.332-1.57 1.6 0 1.493 4.06-.276 8.31-.307 9.56 3.963 3.19 10.848-16.08 14.37-24.62 15.075-5.66.466-9.85 3.803-10 9.016-.07 2.574 2.63 5.598 7.68 6.105 7.61.763 15.76-1.281 18.49-2.283.02-.006.04-.012.05-.017 6.52-2.396 21.66-11.536 19.05-24.442z"/>
      <path fill="#4B3F4E" d="M1123.69 969.777h13.36c2.14 0 4.15-1.042 5.34-2.778l3.75-5.474-9.14-5.273-10.2 2.481c-2.3.561-4.16 2.228-4.91 4.422l-.98 2.866c-.63 1.848.78 3.756 2.78 3.756zM1253.9 955.548l-8.44 3.017c-2.07.673-3.7 2.257-4.39 4.277l-1.09 3.179c-.64 1.848.78 3.756 2.78 3.756h12.57c2.56 0 4.88-1.478 5.89-3.762l2.34-5.261-9.66-5.206z"/>
      <path fill="#5D5360" d="M1098.07 876.063c15.24 13.801 38.93 24.823 38.93 24.823v-7.903c0-2.505-1.42-4.805-3.7-5.977l-21.1-10.861a14.177 14.177 0 00-10.12-1.103c-1.11.295-2.44.634-4.01 1.021zM1156.44 901.348l-.92 5.187c21.32 11.399 57.65 11.216 82.55.211l-2.26-5.966c-1.17-3.104-4.47-4.943-7.81-4.306-10.03 1.912-32.73 4.725-63.48-.621-3.79-.659-7.42 1.803-8.08 5.495z"/>
      <path fill="#4B3F4E" d="M1098.77 858.197c1.92 0 3.47-1.514 3.47-3.382 0-1.867-1.55-3.381-3.47-3.381-1.92 0-3.48 1.514-3.48 3.381 0 1.868 1.56 3.382 3.48 3.382z"/>
      <path fill="#C9C6CA" d="M1119.62 808.575c-.56.2-1 .738-.94 1.112 6.59-1.679 12.66-.914 14.85 3.851 1.63 3.557 2.06 10.425-6.09 15.603-7.38 4.694-23.14 4.226-24.92 15.101 7.53.686 15.51-1.309 18.21-2.299l.05-.017c6.52-2.395 21.66-11.535 19.05-24.441-1.05-5.166-7.29-13.553-20.21-8.91z"/>
      <path fill="#5D5360" d="M1065.68 863.919c-1.32.765-1.95 2.265-1.57 3.712l1.65 6.443a3.415 3.415 0 002.75 2.506c3.12.538 9.43 1.387 16.51 1.207-1.9-7.906-5.51-14.037-10.59-19.237a211.77 211.77 0 01-8.75 5.369z"/>
      <path fill="#4B3F4E" d="M1068.78 865.383c0-.969-.52-1.843-1.34-2.498-.66.389-1.25.737-1.76 1.034-1.32.764-1.95 2.265-1.57 3.712l.35 1.37c2.43-.223 4.32-1.748 4.32-3.618z"/>
    </g>
  </g>
  <path fill="url(#pattern0)" d="M3015 1813h389v345h-389z"/>
  <path fill="#F85959" d="M115 1907h702.31v115H115z"/>
  <path fill="#000" d="M263.127 1965.96h-19.989V1987h-6.281v-47.63h29.509v5.17h-23.228v16.29h19.989v5.13zm16.39 21.04h-6.052v-35.4h6.052v35.4zm-6.543-44.79c0-.98.295-1.81.884-2.48.61-.68 1.504-1.02 2.682-1.02s2.072.34 2.683 1.02c.61.67.916 1.5.916 2.48s-.306 1.8-.916 2.46c-.611.65-1.505.98-2.683.98s-2.072-.33-2.682-.98c-.589-.66-.884-1.48-.884-2.46zm21.985 9.39l.196 4.45c2.704-3.4 6.238-5.1 10.6-5.1 7.48 0 11.253 4.22 11.319 12.66V1987h-6.052v-23.42c-.022-2.56-.611-4.44-1.767-5.66-1.134-1.22-2.912-1.84-5.332-1.84-1.963 0-3.686.53-5.169 1.57-1.484 1.05-2.639 2.43-3.468 4.13V1987h-6.052v-35.4h5.725zm53.096 35.4c-.349-.7-.633-1.94-.851-3.73-2.813 2.92-6.172 4.38-10.076 4.38-3.49 0-6.358-.98-8.604-2.94-2.225-1.98-3.337-4.49-3.337-7.52 0-3.69 1.396-6.55 4.188-8.58 2.813-2.05 6.761-3.07 11.842-3.07h5.889v-2.78c0-2.12-.632-3.8-1.897-5.04-1.265-1.26-3.13-1.9-5.595-1.9-2.159 0-3.969.55-5.43 1.64-1.462 1.09-2.192 2.41-2.192 3.96h-6.085c0-1.77.621-3.47 1.865-5.11 1.265-1.65 2.966-2.96 5.103-3.92 2.159-.96 4.526-1.44 7.099-1.44 4.079 0 7.274 1.02 9.586 3.07 2.312 2.03 3.511 4.83 3.598 8.41v16.29c0 3.25.415 5.84 1.244 7.76v.52h-6.347zm-10.044-4.61c1.898 0 3.697-.49 5.398-1.47 1.702-.99 2.934-2.26 3.697-3.83v-7.27h-4.744c-7.415 0-11.123 2.17-11.123 6.51 0 1.9.633 3.39 1.898 4.45 1.265 1.07 2.89 1.61 4.874 1.61zm31.21 4.61h-6.052v-50.25h6.052V1987zm16.292 0h-6.052v-35.4h6.052v35.4zm-6.543-44.79c0-.98.295-1.81.884-2.48.61-.68 1.505-1.02 2.682-1.02 1.178 0 2.072.34 2.683 1.02.611.67.916 1.5.916 2.48s-.305 1.8-.916 2.46c-.611.65-1.505.98-2.683.98-1.177 0-2.072-.33-2.682-.98-.589-.66-.884-1.48-.884-2.46zm21.952 39.85h20.709v4.94h-28.103v-4.45l19.531-25.94h-19.236v-5.01h26.826v4.29l-19.727 26.17zm49.399 4.94c-.349-.7-.632-1.94-.85-3.73-2.814 2.92-6.172 4.38-10.076 4.38-3.49 0-6.358-.98-8.604-2.94-2.225-1.98-3.337-4.49-3.337-7.52 0-3.69 1.396-6.55 4.187-8.58 2.814-2.05 6.761-3.07 11.843-3.07h5.889v-2.78c0-2.12-.633-3.8-1.898-5.04-1.265-1.26-3.129-1.9-5.594-1.9-2.159 0-3.969.55-5.431 1.64-1.461 1.09-2.192 2.41-2.192 3.96h-6.085c0-1.77.622-3.47 1.865-5.11 1.265-1.65 2.966-2.96 5.104-3.92 2.159-.96 4.525-1.44 7.099-1.44 4.078 0 7.273 1.02 9.585 3.07 2.312 2.03 3.512 4.83 3.599 8.41v16.29c0 3.25.414 5.84 1.243 7.76v.52h-6.347zm-10.043-4.61c1.897 0 3.697-.49 5.398-1.47 1.701-.99 2.933-2.26 3.697-3.83v-7.27h-4.744c-7.415 0-11.123 2.17-11.123 6.51 0 1.9.632 3.39 1.897 4.45 1.265 1.07 2.89 1.61 4.875 1.61zm41.744-25.36c-.916-.15-1.908-.23-2.977-.23-3.969 0-6.663 1.69-8.08 5.08V1987h-6.053v-35.4h5.889l.098 4.09c1.985-3.16 4.798-4.74 8.441-4.74 1.177 0 2.071.15 2.682.46v5.62zm37.197 8.74c-5.387-1.55-9.313-3.45-11.777-5.69-2.443-2.27-3.665-5.06-3.665-8.38 0-3.75 1.494-6.85 4.482-9.29 3.01-2.46 6.914-3.7 11.712-3.7 3.272 0 6.183.64 8.735 1.9 2.574 1.27 4.558 3.01 5.954 5.23a13.333 13.333 0 012.127 7.3h-6.314c0-2.88-.916-5.14-2.748-6.77-1.832-1.66-4.417-2.49-7.754-2.49-3.097 0-5.518.69-7.262 2.06-1.723 1.36-2.585 3.24-2.585 5.66 0 1.94.818 3.59 2.454 4.94 1.657 1.33 4.46 2.55 8.408 3.67 3.969 1.11 7.066 2.34 9.291 3.69 2.246 1.33 3.903 2.89 4.972 4.68 1.091 1.79 1.636 3.89 1.636 6.32 0 3.86-1.505 6.95-4.515 9.29-3.009 2.31-7.033 3.46-12.072 3.46-3.271 0-6.324-.62-9.16-1.86-2.835-1.27-5.027-2.99-6.575-5.17-1.527-2.18-2.29-4.66-2.29-7.43h6.314c0 2.88 1.057 5.16 3.173 6.84 2.137 1.66 4.983 2.49 8.538 2.49 3.316 0 5.856-.68 7.623-2.03 1.767-1.35 2.65-3.2 2.65-5.53s-.818-4.13-2.454-5.4c-1.635-1.28-4.602-2.55-8.898-3.79zm39.487 21.88c-4.798 0-8.702-1.57-11.712-4.71-3.01-3.16-4.515-7.38-4.515-12.66v-1.11c0-3.51.665-6.64 1.996-9.39 1.352-2.77 3.228-4.93 5.627-6.48 2.421-1.57 5.038-2.35 7.851-2.35 4.602 0 8.179 1.51 10.731 4.55 2.552 3.03 3.827 7.37 3.827 13.02v2.52h-23.98c.088 3.48 1.102 6.31 3.043 8.47 1.963 2.14 4.449 3.2 7.459 3.2 2.137 0 3.947-.43 5.431-1.3a13.77 13.77 0 003.893-3.47l3.696 2.88c-2.966 4.56-7.415 6.83-13.347 6.83zm-.753-31.73c-2.442 0-4.493.9-6.15 2.68-1.658 1.77-2.683 4.26-3.075 7.46h17.731v-.46c-.174-3.07-1.003-5.45-2.486-7.13-1.483-1.7-3.49-2.55-6.02-2.55zm42.202 21.69c0-1.63-.621-2.9-1.864-3.79-1.222-.92-3.37-1.71-6.445-2.36-3.054-.65-5.485-1.44-7.296-2.36-1.788-.91-3.118-2-3.991-3.27-.85-1.26-1.276-2.77-1.276-4.51 0-2.9 1.222-5.36 3.664-7.36 2.465-2.01 5.606-3.01 9.422-3.01 4.013 0 7.263 1.03 9.749 3.11 2.508 2.07 3.763 4.72 3.763 7.95h-6.085c0-1.66-.709-3.09-2.127-4.29-1.396-1.2-3.162-1.8-5.3-1.8-2.203 0-3.925.48-5.169 1.44-1.243.96-1.864 2.21-1.864 3.76 0 1.46.578 2.57 1.733 3.31 1.156.74 3.239 1.45 6.249 2.12 3.032.68 5.485 1.49 7.361 2.42 1.876.94 3.26 2.08 4.155 3.41.916 1.31 1.374 2.91 1.374 4.81 0 3.16-1.265 5.7-3.795 7.62-2.53 1.9-5.813 2.84-9.847 2.84-2.836 0-5.344-.5-7.525-1.5s-3.893-2.4-5.136-4.19c-1.221-1.81-1.832-3.76-1.832-5.85h6.052c.109 2.02.916 3.64 2.421 4.84 1.527 1.18 3.533 1.76 6.02 1.76 2.29 0 4.122-.45 5.496-1.37 1.396-.94 2.093-2.18 2.093-3.73zm20.513 9.39h-6.053v-35.4h6.053v35.4zm-6.543-44.79c0-.98.294-1.81.883-2.48.611-.68 1.505-1.02 2.683-1.02 1.177 0 2.072.34 2.682 1.02.611.67.916 1.5.916 2.48s-.305 1.8-.916 2.46c-.61.65-1.505.98-2.682.98-1.178 0-2.072-.33-2.683-.98-.589-.66-.883-1.48-.883-2.46zm14.656 26.76c0-3.46.676-6.58 2.028-9.35 1.374-2.77 3.272-4.91 5.693-6.41 2.442-1.51 5.223-2.26 8.342-2.26 4.82 0 8.713 1.67 11.679 5 2.988 3.34 4.482 7.78 4.482 13.32v.42c0 3.45-.665 6.55-1.996 9.29-1.308 2.73-3.195 4.86-5.659 6.38-2.443 1.53-5.256 2.29-8.441 2.29-4.798 0-8.691-1.66-11.679-5-2.966-3.34-4.449-7.75-4.449-13.25v-.43zm6.085.72c0 3.93.905 7.08 2.715 9.46 1.832 2.38 4.275 3.56 7.328 3.56 3.076 0 5.518-1.2 7.328-3.59 1.811-2.43 2.716-5.81 2.716-10.15 0-3.88-.927-7.02-2.781-9.42-1.832-2.42-4.275-3.63-7.328-3.63-2.988 0-5.398 1.19-7.23 3.57-1.832 2.37-2.748 5.78-2.748 10.2zm12.726-32.94h7.328l-8.768 9.62h-4.874l6.314-9.62zm26.728 14.85l.196 4.45c2.705-3.4 6.238-5.1 10.6-5.1 7.481 0 11.254 4.22 11.319 12.66V1987h-6.052v-23.42c-.022-2.56-.611-4.44-1.767-5.66-1.134-1.22-2.911-1.84-5.332-1.84-1.963 0-3.686.53-5.169 1.57-1.483 1.05-2.639 2.43-3.468 4.13V1987h-6.052v-35.4h5.725z"/>
  <g>
    <path fill="#F85959" d="M115 1757h704v115H115z"/>
    <path fill="#000" d="M168.868 1832.55l12.593-36.36h6.358l-16.348 44.08h-5.146l-16.318-44.08h6.328l12.533 36.36zm21.131-8.96c0-3.21.625-6.1 1.877-8.66 1.271-2.56 3.027-4.54 5.267-5.93 2.261-1.4 4.834-2.09 7.72-2.09 4.46 0 8.063 1.54 10.807 4.63 2.765 3.09 4.148 7.19 4.148 12.32v.39c0 3.19-.616 6.06-1.847 8.6-1.211 2.53-2.956 4.49-5.237 5.91-2.26 1.41-4.864 2.11-7.811 2.11-4.44 0-8.042-1.54-10.807-4.63-2.745-3.08-4.117-7.17-4.117-12.26v-.39zm5.63.66c0 3.64.838 6.55 2.513 8.75 1.695 2.2 3.956 3.3 6.781 3.3 2.846 0 5.106-1.11 6.782-3.33 1.675-2.24 2.512-5.37 2.512-9.38 0-3.59-.857-6.5-2.573-8.72-1.695-2.24-3.956-3.36-6.781-3.36-2.765 0-4.995 1.1-6.691 3.3-1.695 2.2-2.543 5.35-2.543 9.44zm37.297 16.02h-5.6v-46.5h5.6v46.5zm19.799-7.6l8.113-25.16h5.722l-11.746 32.76h-4.269l-11.867-32.76h5.722l8.325 25.16zm32.393 8.2c-4.44 0-8.053-1.45-10.838-4.35-2.785-2.93-4.178-6.84-4.178-11.72v-1.03c0-3.25.616-6.15 1.847-8.69 1.251-2.56 2.987-4.56 5.207-5.99 2.24-1.46 4.662-2.18 7.265-2.18 4.259 0 7.569 1.4 9.93 4.21 2.361 2.8 3.542 6.82 3.542 12.04v2.34h-22.19c.08 3.23 1.019 5.84 2.815 7.84 1.817 1.97 4.117 2.96 6.902 2.96 1.978 0 3.653-.4 5.026-1.21 1.372-.8 2.573-1.87 3.602-3.21l3.421 2.67c-2.745 4.22-6.862 6.32-12.351 6.32zm-.697-29.36c-2.26 0-4.157.83-5.691 2.48-1.534 1.64-2.482 3.94-2.846 6.9h16.409v-.42c-.162-2.85-.929-5.05-2.301-6.6-1.373-1.57-3.229-2.36-5.571-2.36zm35.814 1.03c-.848-.14-1.766-.21-2.755-.21-3.673 0-6.166 1.56-7.478 4.69v23.25h-5.6v-32.76h5.449l.091 3.79c1.837-2.93 4.44-4.39 7.81-4.39 1.09 0 1.918.14 2.483.42v5.21zm40.778 27.73c-.323-.65-.585-1.8-.787-3.45-2.603 2.7-5.711 4.05-9.324 4.05-3.229 0-5.883-.9-7.962-2.72-2.059-1.84-3.088-4.16-3.088-6.96 0-3.41 1.292-6.06 3.875-7.93 2.604-1.9 6.257-2.85 10.959-2.85h5.449v-2.57c0-1.96-.585-3.52-1.756-4.67-1.17-1.17-2.896-1.75-5.176-1.75-1.998 0-3.674.5-5.026 1.51-1.352 1.01-2.028 2.23-2.028 3.67h-5.631c0-1.64.575-3.21 1.726-4.73 1.17-1.53 2.744-2.74 4.722-3.63 1.998-.89 4.188-1.33 6.57-1.33 3.774 0 6.73.95 8.87 2.84 2.139 1.88 3.249 4.47 3.33 7.78v15.08c0 3.01.383 5.4 1.15 7.17v.49h-5.873zm-9.294-4.27c1.756 0 3.421-.45 4.995-1.36 1.575-.91 2.715-2.09 3.421-3.54v-6.72h-4.389c-6.862 0-10.293 2-10.293 6.02 0 1.76.585 3.13 1.756 4.12 1.17.99 2.674 1.48 4.51 1.48zm57.247-4.42c0-1.51-.575-2.68-1.725-3.51-1.13-.85-3.118-1.58-5.964-2.18-2.826-.61-5.076-1.33-6.751-2.18-1.655-.85-2.886-1.86-3.693-3.03-.788-1.17-1.181-2.56-1.181-4.18 0-2.68 1.13-4.95 3.391-6.81 2.28-1.85 5.186-2.78 8.718-2.78 3.714 0 6.721.96 9.022 2.87 2.321 1.92 3.481 4.37 3.481 7.36h-5.631c0-1.53-.656-2.86-1.967-3.97-1.292-1.11-2.927-1.66-4.905-1.66-2.038 0-3.633.44-4.783 1.33-1.15.89-1.726 2.05-1.726 3.48 0 1.36.535 2.37 1.605 3.06 1.07.69 2.997 1.34 5.782 1.97 2.806.62 5.076 1.37 6.812 2.24 1.735.87 3.017 1.92 3.844 3.15.848 1.21 1.272 2.69 1.272 4.45 0 2.92-1.171 5.27-3.512 7.05-2.341 1.76-5.378 2.63-9.112 2.63-2.624 0-4.945-.46-6.963-1.39-2.018-.93-3.603-2.22-4.753-3.87-1.13-1.68-1.695-3.48-1.695-5.42h5.6c.101 1.88.848 3.37 2.241 4.48 1.412 1.09 3.269 1.63 5.57 1.63 2.119 0 3.814-.42 5.086-1.27 1.292-.87 1.937-2.02 1.937-3.45zm33.119 8.69c-.322-.65-.585-1.8-.787-3.45-2.603 2.7-5.711 4.05-9.324 4.05-3.229 0-5.883-.9-7.962-2.72-2.058-1.84-3.088-4.16-3.088-6.96 0-3.41 1.292-6.06 3.875-7.93 2.604-1.9 6.257-2.85 10.959-2.85h5.45v-2.57c0-1.96-.586-3.52-1.756-4.67-1.171-1.17-2.896-1.75-5.177-1.75-1.998 0-3.673.5-5.025 1.51-1.353 1.01-2.029 2.23-2.029 3.67h-5.631c0-1.64.576-3.21 1.726-4.73 1.171-1.53 2.745-2.74 4.723-3.63 1.998-.89 4.187-1.33 6.569-1.33 3.774 0 6.731.95 8.87 2.84 2.139 1.88 3.249 4.47 3.33 7.78v15.08c0 3.01.384 5.4 1.151 7.17v.49h-5.874zm-9.293-4.27c1.755 0 3.42-.45 4.995-1.36 1.574-.91 2.714-2.09 3.421-3.54v-6.72h-4.39c-6.862 0-10.293 2-10.293 6.02 0 1.76.585 3.13 1.756 4.12 1.17.99 2.674 1.48 4.511 1.48zm28.88 4.27h-5.6v-46.5h5.6v46.5zm29.214 0c-.323-.65-.585-1.8-.787-3.45-2.603 2.7-5.711 4.05-9.324 4.05-3.229 0-5.883-.9-7.962-2.72-2.059-1.84-3.088-4.16-3.088-6.96 0-3.41 1.292-6.06 3.875-7.93 2.604-1.9 6.257-2.85 10.959-2.85h5.449v-2.57c0-1.96-.585-3.52-1.756-4.67-1.17-1.17-2.896-1.75-5.176-1.75-1.998 0-3.673.5-5.026 1.51-1.352 1.01-2.028 2.23-2.028 3.67h-5.631c0-1.64.575-3.21 1.726-4.73 1.17-1.53 2.745-2.74 4.722-3.63 1.998-.89 4.188-1.33 6.57-1.33 3.774 0 6.731.95 8.87 2.84 2.139 1.88 3.249 4.47 3.33 7.78v15.08c0 3.01.383 5.4 1.15 7.17v.49h-5.873zm-9.294-4.27c1.756 0 3.421-.45 4.995-1.36 1.575-.91 2.715-2.09 3.421-3.54v-6.72h-4.389c-6.862 0-10.293 2-10.293 6.02 0 1.76.585 3.13 1.756 4.12 1.17.99 2.674 1.48 4.51 1.48zm36.813-12.38c0-5.03 1.191-9.06 3.572-12.11 2.382-3.07 5.5-4.6 9.355-4.6 3.834 0 6.872 1.31 9.112 3.93v-17.07h5.6v46.5h-5.146l-.272-3.51c-2.241 2.74-5.359 4.11-9.355 4.11-3.794 0-6.892-1.55-9.294-4.66-2.381-3.11-3.572-7.16-3.572-12.17v-.42zm5.6.63c0 3.72.767 6.62 2.301 8.72 1.534 2.1 3.653 3.15 6.358 3.15 3.552 0 6.145-1.59 7.78-4.78v-15.05c-1.675-3.09-4.248-4.63-7.72-4.63-2.745 0-4.884 1.06-6.418 3.18-1.534 2.12-2.301 5.26-2.301 9.41zm44.351 16.62c-4.44 0-8.053-1.45-10.838-4.35-2.785-2.93-4.178-6.84-4.178-11.72v-1.03c0-3.25.616-6.15 1.847-8.69 1.251-2.56 2.987-4.56 5.207-5.99 2.24-1.46 4.662-2.18 7.266-2.18 4.258 0 7.568 1.4 9.929 4.21 2.362 2.8 3.542 6.82 3.542 12.04v2.34h-22.19c.081 3.23 1.019 5.84 2.815 7.84 1.817 1.97 4.118 2.96 6.903 2.96 1.978 0 3.653-.4 5.025-1.21 1.373-.8 2.573-1.87 3.603-3.21l3.421 2.67c-2.745 4.22-6.862 6.32-12.352 6.32zm-.696-29.36c-2.261 0-4.158.83-5.692 2.48-1.534 1.64-2.482 3.94-2.845 6.9h16.408v-.42c-.162-2.85-.929-5.05-2.301-6.6-1.372-1.57-3.229-2.36-5.57-2.36zm48.952 29.36c-4.44 0-8.053-1.45-10.838-4.35-2.785-2.93-4.178-6.84-4.178-11.72v-1.03c0-3.25.616-6.15 1.847-8.69 1.251-2.56 2.987-4.56 5.207-5.99 2.24-1.46 4.662-2.18 7.266-2.18 4.258 0 7.568 1.4 9.929 4.21 2.362 2.8 3.542 6.82 3.542 12.04v2.34h-22.19c.081 3.23 1.019 5.84 2.815 7.84 1.817 1.97 4.117 2.96 6.903 2.96 1.977 0 3.653-.4 5.025-1.21 1.372-.8 2.573-1.87 3.603-3.21l3.42 2.67c-2.744 4.22-6.862 6.32-12.351 6.32zm-.696-29.36c-2.261 0-4.158.83-5.692 2.48-1.534 1.64-2.482 3.94-2.846 6.9h16.409v-.42c-.162-2.85-.929-5.05-2.301-6.6-1.373-1.57-3.229-2.36-5.57-2.36zm39.052 20.07c0-1.51-.575-2.68-1.725-3.51-1.131-.85-3.118-1.58-5.964-2.18-2.826-.61-5.076-1.33-6.751-2.18-1.655-.85-2.886-1.86-3.693-3.03-.788-1.17-1.181-2.56-1.181-4.18 0-2.68 1.13-4.95 3.39-6.81 2.281-1.85 5.187-2.78 8.719-2.78 3.714 0 6.721.96 9.022 2.87 2.321 1.92 3.481 4.37 3.481 7.36h-5.631c0-1.53-.656-2.86-1.967-3.97-1.292-1.11-2.927-1.66-4.905-1.66-2.038 0-3.633.44-4.783 1.33-1.15.89-1.726 2.05-1.726 3.48 0 1.36.535 2.37 1.605 3.06 1.07.69 2.997 1.34 5.782 1.97 2.805.62 5.076 1.37 6.812 2.24 1.735.87 3.017 1.92 3.844 3.15.848 1.21 1.272 2.69 1.272 4.45 0 2.92-1.171 5.27-3.512 7.05-2.341 1.76-5.378 2.63-9.112 2.63-2.624 0-4.945-.46-6.963-1.39-2.018-.93-3.603-2.22-4.753-3.87-1.13-1.68-1.695-3.48-1.695-5.42h5.6c.101 1.88.848 3.37 2.241 4.48 1.412 1.09 3.269 1.63 5.57 1.63 2.119 0 3.814-.42 5.086-1.27 1.291-.87 1.937-2.02 1.937-3.45zm40.567-7.33c0 4.99-1.141 9.01-3.421 12.05-2.281 3.05-5.369 4.57-9.264 4.57-3.976 0-7.104-1.26-9.385-3.78v15.77h-5.6v-45.35h5.116l.272 3.64c2.281-2.83 5.45-4.24 9.506-4.24 3.936 0 7.044 1.48 9.324 4.45 2.301 2.96 3.452 7.09 3.452 12.38v.51zm-5.601-.63c0-3.69-.787-6.61-2.361-8.75-1.574-2.14-3.734-3.21-6.479-3.21-3.39 0-5.933 1.5-7.629 4.51v15.65c1.675 2.99 4.239 4.48 7.69 4.48 2.684 0 4.813-1.06 6.387-3.18 1.595-2.13 2.392-5.3 2.392-9.5zm26.338 17.25c-4.44 0-8.053-1.45-10.838-4.35-2.785-2.93-4.178-6.84-4.178-11.72v-1.03c0-3.25.616-6.15 1.847-8.69 1.251-2.56 2.987-4.56 5.207-5.99 2.24-1.46 4.662-2.18 7.266-2.18 4.258 0 7.568 1.4 9.929 4.21 2.362 2.8 3.542 6.82 3.542 12.04v2.34h-22.19c.081 3.23 1.019 5.84 2.815 7.84 1.817 1.97 4.118 2.96 6.903 2.96 1.978 0 3.653-.4 5.025-1.21 1.372-.8 2.573-1.87 3.603-3.21l3.421 2.67c-2.745 4.22-6.862 6.32-12.352 6.32zm-.696-29.36c-2.261 0-4.158.83-5.692 2.48-1.534 1.64-2.482 3.94-2.845 6.9h16.408v-.42c-.162-2.85-.929-5.05-2.301-6.6-1.372-1.57-3.229-2.36-5.57-2.36zm35.813 1.03c-.847-.14-1.766-.21-2.755-.21-3.673 0-6.165 1.56-7.477 4.69v23.25h-5.601v-32.76h5.449l.091 3.79c1.837-2.93 4.44-4.39 7.811-4.39 1.09 0 1.917.14 2.482.42v5.21zm24.189 27.73c-.323-.65-.586-1.8-.787-3.45-2.604 2.7-5.712 4.05-9.325 4.05-3.229 0-5.883-.9-7.962-2.72-2.058-1.84-3.087-4.16-3.087-6.96 0-3.41 1.291-6.06 3.875-7.93 2.603-1.9 6.256-2.85 10.958-2.85h5.45v-2.57c0-1.96-.586-3.52-1.756-4.67-1.171-1.17-2.896-1.75-5.177-1.75-1.998 0-3.673.5-5.025 1.51-1.353 1.01-2.029 2.23-2.029 3.67h-5.63c0-1.64.575-3.21 1.725-4.73 1.171-1.53 2.745-2.74 4.723-3.63 1.998-.89 4.188-1.33 6.569-1.33 3.774 0 6.731.95 8.87 2.84 2.14 1.88 3.25 4.47 3.33 7.78v15.08c0 3.01.384 5.4 1.151 7.17v.49h-5.873zm-9.294-4.27c1.756 0 3.421-.45 4.995-1.36 1.574-.91 2.714-2.09 3.421-3.54v-6.72h-4.39c-6.862 0-10.293 2-10.293 6.02 0 1.76.585 3.13 1.756 4.12 1.171.99 2.674 1.48 4.511 1.48z"/>
  </g>
  <g>
    <path fill="#C4C4C4" d="M817.201 1540.59V884.453h-330.2v656.137z"/>
    <path fill="#14FF00" d="M752.66 1489v-95.723H549.476V1489z"/>
    <path fill="#0C07F4" d="M752.66 1183.7v-95.723H549.476v95.723z"/>
    <path fill="#FF0101" d="M752.66 1336.35v-95.723H549.476v95.723z"/>
    <path fill="#F8FD00" d="M752.66 1036.14v-95.722H549.476v95.722z"/>
  </g>
  <defs>
    <clipPath id="clip0">
      <path fill="#fff" d="M0 0h3898v2225H0z"/>
    </clipPath>
    <clipPath id="clip1">
      <path fill="#fff" d="M0 0h181v212.081H0z" transform="translate(75 1244)"/>
    </clipPath>
    <clipPath id="clip2">
      <path fill="#fff" d="M0 0h122.576v119.453H0z" transform="translate(88 401)"/>
    </clipPath>
    <clipPath id="clip3">
      <path fill="#fff" d="M0 0h124.138v135.068H0z" transform="translate(100 497.212)"/>
    </clipPath>
    <clipPath id="clip4">
      <path fill="#fff" d="M0 0h84.32v100.716H0z" transform="translate(114 614)"/>
    </clipPath>
    <clipPath id="clip5">
      <path fill="#fff" d="M0 0h158v158H0z" transform="rotate(-90 1376 -975)"/>
    </clipPath>
    <clipPath id="clip6">
      <path fill="#fff" d="M0 0h84.32v100.716H0z" transform="translate(2441 623)"/>
    </clipPath>
    <pattern id="pattern0" width="1" height="1" patternContentUnits="objectBoundingBox">
      <use transform="matrix(.00092 0 0 .00104 -.089 0)" xlink:href="#image0"/>
    </pattern>
    <filter id="filter0_bddddddddf" width="158.833" height="267.96" x="89.283" y="1293.93" color-interpolation-filters="sRGB" filterUnits="userSpaceOnUse">
      <feFlood flood-opacity="0" result="BackgroundImageFix"/>
      <feGaussianBlur in="BackgroundImage" stdDeviation="2"/>
      <feComposite in2="SourceAlpha" operator="in" result="effect1_backgroundBlur"/>
      <feColorMatrix in="SourceAlpha" values="0 0 0 0 0 0 0 0 0 0 0 0 0 0 0 0 0 0 127 0"/>
      <feOffset dy="4"/>
      <feGaussianBlur stdDeviation="2"/>
      <feColorMatrix values="0 0 0 0 0 0 0 0 0 0 0 0 0 0 0 0 0 0 0.25 0"/>
      <feBlend in2="effect1_backgroundBlur" result="effect2_dropShadow"/>
      <feColorMatrix in="SourceAlpha" values="0 0 0 0 0 0 0 0 0 0 0 0 0 0 0 0 0 0 127 0"/>
      <feOffset dy="4"/>
      <feGaussianBlur stdDeviation="2"/>
      <feColorMatrix values="0 0 0 0 0 0 0 0 0 0 0 0 0 0 0 0 0 0 0.25 0"/>
      <feBlend in2="effect2_dropShadow" result="effect3_dropShadow"/>
      <feColorMatrix in="SourceAlpha" values="0 0 0 0 0 0 0 0 0 0 0 0 0 0 0 0 0 0 127 0"/>
      <feOffset dy="4"/>
      <feGaussianBlur stdDeviation="2"/>
      <feColorMatrix values="0 0 0 0 0 0 0 0 0 0 0 0 0 0 0 0 0 0 0.25 0"/>
      <feBlend in2="effect3_dropShadow" result="effect4_dropShadow"/>
      <feColorMatrix in="SourceAlpha" values="0 0 0 0 0 0 0 0 0 0 0 0 0 0 0 0 0 0 127 0"/>
      <feOffset dy="4"/>
      <feGaussianBlur stdDeviation="2"/>
      <feColorMatrix values="0 0 0 0 0 0 0 0 0 0 0 0 0 0 0 0 0 0 0.25 0"/>
      <feBlend in2="effect4_dropShadow" result="effect5_dropShadow"/>
      <feColorMatrix in="SourceAlpha" values="0 0 0 0 0 0 0 0 0 0 0 0 0 0 0 0 0 0 127 0"/>
      <feOffset dy="4"/>
      <feGaussianBlur stdDeviation="2"/>
      <feColorMatrix values="0 0 0 0 0 0 0 0 0 0 0 0 0 0 0 0 0 0 0.25 0"/>
      <feBlend in2="effect5_dropShadow" result="effect6_dropShadow"/>
      <feColorMatrix in="SourceAlpha" values="0 0 0 0 0 0 0 0 0 0 0 0 0 0 0 0 0 0 127 0"/>
      <feOffset dy="4"/>
      <feGaussianBlur stdDeviation="2"/>
      <feColorMatrix values="0 0 0 0 0 0 0 0 0 0 0 0 0 0 0 0 0 0 0.25 0"/>
      <feBlend in2="effect6_dropShadow" result="effect7_dropShadow"/>
      <feColorMatrix in="SourceAlpha" values="0 0 0 0 0 0 0 0 0 0 0 0 0 0 0 0 0 0 127 0"/>
      <feOffset dy="4"/>
      <feGaussianBlur stdDeviation="2"/>
      <feColorMatrix values="0 0 0 0 0 0 0 0 0 0 0 0 0 0 0 0 0 0 0.25 0"/>
      <feBlend in2="effect7_dropShadow" result="effect8_dropShadow"/>
      <feColorMatrix in="SourceAlpha" values="0 0 0 0 0 0 0 0 0 0 0 0 0 0 0 0 0 0 127 0"/>
      <feOffset dy="4"/>
      <feGaussianBlur stdDeviation="2"/>
      <feColorMatrix values="0 0 0 0 0 0 0 0 0 0 0 0 0 0 0 0 0 0 0.25 0"/>
      <feBlend in2="effect8_dropShadow" result="effect9_dropShadow"/>
      <feBlend in="SourceGraphic" in2="effect9_dropShadow" result="shape"/>
      <feGaussianBlur result="effect10_foregroundBlur" stdDeviation="2"/>
    </filter>
  </defs>
</svg>
