<svg xmlns="http://www.w3.org/2000/svg" width="3898" height="2225" fill="none" viewBox="0 0 3898 2225">
  <path fill="#C4C4C4" d="M1261 408h100v100h-100z"/>
  <g clip-path="url(#clip0)">
    <path fill="#fff" d="M0 0h3898v2225H0z"/>
    <g filter="url(#filter0_bddddddddf)">
      <path fill="#C4C4C4" d="M2706 1621h165v280h-165z"/>
      <path stroke="#000" stroke-width="3" d="M2707.5 1622.5h162v277h-162z"/>
    </g>
    <path fill="#C4C4C4" d="M321 690h62v742h-62z"/>
    <path fill="#000" d="M321 1123h62v309h-62zM447.222 1298.16c-4.021-1.16-6.95-2.58-8.789-4.25-1.823-1.7-2.735-3.78-2.735-6.25 0-2.8 1.115-5.11 3.345-6.94 2.246-1.84 5.159-2.76 8.74-2.76 2.442 0 4.614.48 6.519 1.42 1.92.94 3.401 2.25 4.443 3.91a9.916 9.916 0 011.587 5.44h-4.712c0-2.15-.683-3.83-2.051-5.05-1.367-1.24-3.296-1.86-5.786-1.86-2.311 0-4.118.51-5.42 1.54-1.286 1.01-1.928 2.42-1.928 4.22 0 1.45.61 2.68 1.831 3.69 1.237.99 3.328 1.9 6.274 2.73 2.962.83 5.273 1.75 6.934 2.76 1.676 1 2.913 2.16 3.711 3.49.813 1.34 1.22 2.91 1.22 4.72 0 2.88-1.123 5.19-3.369 6.93-2.246 1.73-5.249 2.59-9.009 2.59-2.441 0-4.72-.47-6.836-1.39-2.115-.95-3.751-2.23-4.907-3.86-1.139-1.63-1.709-3.48-1.709-5.54h4.712c0 2.15.789 3.85 2.368 5.1 1.595 1.24 3.719 1.86 6.372 1.86 2.474 0 4.37-.51 5.689-1.52 1.318-1.01 1.977-2.38 1.977-4.12 0-1.75-.61-3.09-1.831-4.03-1.22-.96-3.434-1.91-6.64-2.83zm34.814 13.23c-1.758 2.06-4.337 3.1-7.739 3.1-2.816 0-4.964-.82-6.445-2.44-1.465-1.65-2.206-4.07-2.222-7.28v-17.19h4.516v17.07c0 4 1.628 6.01 4.883 6.01 3.451 0 5.746-1.29 6.885-3.86v-19.22h4.517V1314h-4.297l-.098-2.61zm15.552-23.81l.146 3.32c2.019-2.53 4.655-3.8 7.911-3.8 5.582 0 8.398 3.15 8.447 9.44V1314h-4.517v-17.48c-.016-1.9-.456-3.31-1.318-4.22-.847-.92-2.173-1.37-3.98-1.37-1.465 0-2.75.39-3.857 1.17-1.107.78-1.969 1.81-2.588 3.08V1314h-4.517v-26.42h4.273zm32.715 13.16h-11.914v-3.68h11.914v3.68zm31.274 1.98c-.439 3.76-1.831 6.67-4.175 8.72-2.327 2.03-5.428 3.05-9.301 3.05-4.2 0-7.569-1.51-10.108-4.52-2.523-3.01-3.784-7.04-3.784-12.08v-3.42c0-3.31.586-6.21 1.758-8.72 1.188-2.5 2.864-4.42 5.029-5.76 2.165-1.35 4.671-2.03 7.52-2.03 3.776 0 6.803 1.06 9.082 3.18 2.278 2.1 3.605 5.01 3.979 8.74h-4.712c-.407-2.83-1.294-4.88-2.661-6.15-1.351-1.27-3.247-1.91-5.688-1.91-2.995 0-5.347 1.11-7.056 3.32-1.693 2.22-2.539 5.37-2.539 9.45v3.44c0 3.86.806 6.93 2.417 9.21 1.611 2.28 3.865 3.42 6.763 3.42 2.604 0 4.598-.59 5.981-1.76 1.4-1.19 2.328-3.25 2.783-6.18h4.712zm4.517-2.17c0-2.59.504-4.92 1.513-6.98 1.026-2.07 2.442-3.67 4.248-4.79 1.823-1.12 3.899-1.68 6.226-1.68 3.597 0 6.502 1.24 8.716 3.73 2.23 2.49 3.345 5.8 3.345 9.94v.31c0 2.58-.497 4.89-1.49 6.94-.976 2.03-2.384 3.62-4.223 4.76-1.823 1.14-3.923 1.71-6.299 1.71-3.581 0-6.486-1.25-8.716-3.74-2.213-2.49-3.32-5.78-3.32-9.88v-.32zm4.541.53c0 2.93.675 5.29 2.026 7.06 1.367 1.77 3.19 2.66 5.469 2.66 2.295 0 4.118-.89 5.469-2.68 1.351-1.81 2.026-4.33 2.026-7.57 0-2.9-.692-5.24-2.075-7.03-1.367-1.81-3.19-2.71-5.469-2.71-2.23 0-4.028.88-5.395 2.66-1.368 1.77-2.051 4.31-2.051 7.61zm41.479 10.31c-1.758 2.06-4.337 3.1-7.739 3.1-2.816 0-4.964-.82-6.445-2.44-1.465-1.65-2.206-4.07-2.222-7.28v-17.19h4.517v17.07c0 4 1.627 6.01 4.882 6.01 3.451 0 5.746-1.29 6.885-3.86v-19.22h4.517V1314h-4.297l-.098-2.61zm15.552-23.81l.146 3.32c2.019-2.53 4.655-3.8 7.911-3.8 5.582 0 8.398 3.15 8.447 9.44V1314h-4.517v-17.48c-.016-1.9-.455-3.31-1.318-4.22-.846-.92-2.173-1.37-3.98-1.37-1.464 0-2.75.39-3.857 1.17-1.107.78-1.969 1.81-2.588 3.08V1314h-4.516v-26.42h4.272zm29.443-6.39v6.39h4.932v3.5h-4.932v16.38c0 1.05.22 1.85.66 2.39.439.52 1.188.78 2.246.78.52 0 1.237-.1 2.148-.29v3.66c-1.188.33-2.344.49-3.467.49-2.018 0-3.54-.61-4.565-1.83-1.026-1.22-1.538-2.96-1.538-5.2v-16.38h-4.81v-3.5h4.81v-6.39h4.516zm21.192 33.3c-3.581 0-6.494-1.17-8.74-3.52-2.247-2.36-3.37-5.51-3.37-9.45v-.83c0-2.62.497-4.95 1.49-7 1.009-2.07 2.409-3.68 4.199-4.84 1.807-1.17 3.76-1.75 5.859-1.75 3.435 0 6.104 1.13 8.008 3.39 1.904 2.26 2.857 5.5 2.857 9.72v1.88h-17.896c.065 2.6.822 4.71 2.271 6.32 1.464 1.59 3.32 2.39 5.566 2.39 1.595 0 2.946-.32 4.053-.97a10.4 10.4 0 002.905-2.59l2.759 2.15c-2.214 3.4-5.534 5.1-9.961 5.1zm-.562-23.68c-1.823 0-3.353.66-4.59 2-1.237 1.32-2.002 3.17-2.295 5.57h13.233v-.35c-.13-2.29-.749-4.07-1.856-5.32-1.106-1.27-2.604-1.9-4.492-1.9zm28.882.83c-.683-.12-1.424-.17-2.222-.17-2.962 0-4.972 1.26-6.03 3.78V1314h-4.516v-26.42h4.394l.073 3.06c1.481-2.36 3.581-3.54 6.299-3.54.879 0 1.546.11 2.002.34v4.2zm-160.986 128.42h4.931v3.69h-4.931v8.25h-4.541v-8.25h-16.187v-2.66l15.918-24.64h4.81v23.61zm-15.601 0h11.06v-17.43l-.537.98-10.523 16.45zm43.677 0h4.932v3.69h-4.932v8.25h-4.541v-8.25h-16.187v-2.66l15.918-24.64h4.81v23.61zm-15.601 0h11.06v-17.43l-.537.98-10.523 16.45zm24.219-16.77c0-2.13.676-3.89 2.026-5.27 1.368-1.39 3.117-2.08 5.249-2.08 2.165 0 3.915.7 5.25 2.1 1.35 1.38 2.026 3.18 2.026 5.4v1.73c0 2.15-.684 3.91-2.051 5.27-1.351 1.35-3.076 2.03-5.176 2.03-2.116 0-3.865-.68-5.249-2.03-1.383-1.36-2.075-3.18-2.075-5.44v-1.71zm3.369 1.88c0 1.27.358 2.32 1.074 3.15.717.81 1.677 1.22 2.881 1.22 1.156 0 2.084-.4 2.784-1.2.716-.79 1.074-1.89 1.074-3.27v-1.78c0-1.27-.35-2.32-1.05-3.15-.7-.83-1.652-1.25-2.857-1.25-1.204 0-2.156.42-2.856 1.25-.7.83-1.05 1.91-1.05 3.25v1.78zm13.941 18.11c0-2.13.675-3.88 2.026-5.24 1.367-1.39 3.117-2.08 5.249-2.08 2.132 0 3.882.68 5.249 2.05 1.367 1.37 2.051 3.18 2.051 5.45v1.73c0 2.13-.684 3.89-2.051 5.27-1.351 1.37-3.084 2.05-5.2 2.05s-3.866-.67-5.249-2.02c-1.384-1.37-2.075-3.19-2.075-5.45v-1.76zm3.369 1.91c0 1.28.358 2.34 1.074 3.17.716.82 1.676 1.22 2.881 1.22 1.172 0 2.108-.4 2.808-1.19.699-.82 1.049-1.92 1.049-3.3v-1.81c0-1.28-.358-2.33-1.074-3.15-.7-.81-1.644-1.22-2.832-1.22-1.156 0-2.1.41-2.832 1.22-.716.8-1.074 1.88-1.074 3.25v1.81zm-12.329 4.12l-2.564-1.61 17.359-27.78 2.563 1.61-17.358 27.78z"/>
    <path fill="#C4C4C4" d="M321 1610h973v92H321z"/>
    <path fill="#000" d="M321 1610h729v92H321zM658.708 1775.08V1789h-4.687v-35.55h13.11c3.89 0 6.933 1 9.131 2.98 2.213 1.99 3.32 4.62 3.32 7.89 0 3.45-1.082 6.11-3.247 7.98-2.148 1.86-5.233 2.78-9.253 2.78h-8.374zm0-3.83h8.423c2.506 0 4.427-.58 5.762-1.76 1.334-1.18 2.002-2.89 2.002-5.12 0-2.12-.668-3.81-2.002-5.08-1.335-1.27-3.166-1.93-5.494-1.98h-8.691v13.94zm31.055 17.75h-4.517v-26.42h4.517V1789zm-4.883-33.42c0-.74.22-1.35.659-1.86.456-.5 1.123-.76 2.002-.76.879 0 1.546.26 2.002.76.456.51.684 1.12.684 1.86 0 .73-.228 1.34-.684 1.83-.456.49-1.123.73-2.002.73-.879 0-1.546-.24-2.002-.73-.439-.49-.659-1.1-.659-1.83zm23.096 33.91c-3.581 0-6.495-1.17-8.741-3.52-2.246-2.36-3.369-5.51-3.369-9.45v-.83c0-2.62.497-4.95 1.489-7 1.01-2.07 2.409-3.68 4.2-4.84 1.806-1.17 3.759-1.75 5.859-1.75 3.434 0 6.104 1.13 8.008 3.39 1.904 2.26 2.856 5.5 2.856 9.72v1.88h-17.895c.065 2.6.822 4.71 2.27 6.32 1.465 1.59 3.321 2.39 5.567 2.39 1.595 0 2.946-.32 4.052-.97a10.39 10.39 0 002.906-2.59l2.759 2.15c-2.214 3.4-5.534 5.1-9.961 5.1zm-.562-23.68c-1.823 0-3.353.66-4.59 2-1.237 1.32-2.002 3.17-2.295 5.57h13.233v-.35c-.13-2.29-.749-4.07-1.856-5.32-1.107-1.27-2.604-1.9-4.492-1.9zm20.386-3.23l.146 3.32c2.019-2.53 4.655-3.8 7.91-3.8 5.583 0 8.399 3.15 8.448 9.44V1789h-4.517v-17.48c-.016-1.9-.456-3.31-1.318-4.22-.847-.92-2.173-1.37-3.98-1.37-1.465 0-2.75.39-3.857 1.17-1.107.78-1.97 1.81-2.588 3.08V1789h-4.517v-26.42h4.273zm38.696 19.41c0-1.22-.464-2.16-1.392-2.83-.911-.68-2.514-1.27-4.809-1.76-2.279-.48-4.094-1.07-5.444-1.75-1.335-.69-2.328-1.5-2.979-2.45-.635-.94-.952-2.06-.952-3.37 0-2.16.911-3.99 2.734-5.49 1.839-1.5 4.183-2.24 7.032-2.24 2.994 0 5.419.77 7.275 2.32 1.872 1.54 2.808 3.52 2.808 5.93h-4.541c0-1.24-.529-2.31-1.587-3.2-1.042-.9-2.36-1.34-3.955-1.34-1.644 0-2.93.35-3.858 1.07-.928.72-1.391 1.65-1.391 2.81 0 1.09.431 1.91 1.293 2.46.863.56 2.417 1.09 4.664 1.59 2.262.51 4.093 1.11 5.493 1.81 1.399.7 2.433 1.54 3.1 2.54.684.97 1.026 2.17 1.026 3.59 0 2.36-.944 4.25-2.832 5.68-1.888 1.42-4.338 2.13-7.349 2.13-2.116 0-3.988-.38-5.615-1.12-1.628-.75-2.905-1.8-3.833-3.13-.912-1.35-1.367-2.81-1.367-4.37h4.516c.082 1.51.684 2.72 1.807 3.61 1.139.88 2.637 1.32 4.492 1.32 1.709 0 3.076-.34 4.102-1.02 1.041-.7 1.562-1.63 1.562-2.79zm26.709 7.01c-.26-.52-.472-1.45-.635-2.78-2.099 2.18-4.606 3.27-7.519 3.27-2.604 0-4.745-.73-6.421-2.2-1.66-1.48-2.49-3.35-2.49-5.61 0-2.75 1.041-4.89 3.125-6.4 2.099-1.53 5.045-2.3 8.838-2.3h4.394v-2.07c0-1.58-.472-2.83-1.416-3.76-.944-.94-2.336-1.42-4.175-1.42-1.611 0-2.962.41-4.052 1.22-1.091.82-1.636 1.8-1.636 2.96h-4.541c0-1.32.464-2.59 1.391-3.81.944-1.24 2.214-2.21 3.809-2.93 1.611-.72 3.377-1.07 5.298-1.07 3.043 0 5.428.76 7.153 2.29 1.725 1.51 2.621 3.61 2.686 6.28v12.15c0 2.43.309 4.36.927 5.79v.39h-4.736zm-7.495-3.44c1.416 0 2.759-.37 4.028-1.1 1.27-.73 2.189-1.69 2.759-2.86v-5.42h-3.54c-5.534 0-8.301 1.62-8.301 4.86 0 1.42.472 2.52 1.416 3.32.944.8 2.157 1.2 3.638 1.2zm43.555-18.92c-.684-.12-1.425-.17-2.222-.17-2.962 0-4.972 1.26-6.03 3.78V1789h-4.517v-26.42h4.395l.073 3.06c1.481-2.36 3.581-3.54 6.299-3.54.879 0 1.546.11 2.002.34v4.2zm19.506 22.36c-.26-.52-.472-1.45-.634-2.78-2.1 2.18-4.606 3.27-7.52 3.27-2.604 0-4.744-.73-6.421-2.2-1.66-1.48-2.49-3.35-2.49-5.61 0-2.75 1.042-4.89 3.125-6.4 2.1-1.53 5.046-2.3 8.838-2.3h4.394v-2.07c0-1.58-.472-2.83-1.416-3.76-.944-.94-2.335-1.42-4.174-1.42-1.612 0-2.963.41-4.053 1.22-1.091.82-1.636 1.8-1.636 2.96h-4.541c0-1.32.464-2.59 1.392-3.81.944-1.24 2.213-2.21 3.808-2.93 1.612-.72 3.378-1.07 5.298-1.07 3.044 0 5.428.76 7.154 2.29 1.725 1.51 2.62 3.61 2.685 6.28v12.15c0 2.43.309 4.36.928 5.79v.39h-4.737zm-7.495-3.44c1.416 0 2.759-.37 4.029-1.1 1.269-.73 2.189-1.69 2.758-2.86v-5.42h-3.54c-5.533 0-8.3 1.62-8.3 4.86 0 1.42.472 2.52 1.416 3.32.944.8 2.156 1.2 3.637 1.2zm4.175-34.06h5.469l-6.543 7.18h-3.638l4.712-7.18zm36.524 24.58c0 4.03-.92 7.26-2.759 9.72-1.839 2.46-4.33 3.69-7.471 3.69-3.206 0-5.729-1.02-7.568-3.05v12.72h-4.517v-36.58h4.126l.22 2.93c1.839-2.27 4.394-3.41 7.666-3.41 3.174 0 5.68 1.19 7.519 3.58 1.856 2.4 2.784 5.73 2.784 9.99v.41zm-4.517-.51c0-2.98-.635-5.33-1.904-7.05-1.27-1.73-3.011-2.59-5.225-2.59-2.734 0-4.785 1.21-6.152 3.64v12.62c1.351 2.41 3.418 3.61 6.201 3.61 2.165 0 3.882-.85 5.151-2.56 1.286-1.73 1.929-4.28 1.929-7.67zm15.186 13.43h-4.517v-26.42h4.517V1789zm-4.883-33.42c0-.74.219-1.35.659-1.86.456-.5 1.123-.76 2.002-.76.879 0 1.546.26 2.002.76.456.51.683 1.12.683 1.86 0 .73-.227 1.34-.683 1.83-.456.49-1.123.73-2.002.73-.879 0-1.546-.24-2.002-.73-.44-.49-.659-1.1-.659-1.83zm11.035 19.99c0-4.05.96-7.31 2.881-9.76 1.92-2.48 4.435-3.71 7.544-3.71 3.092 0 5.542 1.05 7.348 3.17v-13.77h4.517v37.5h-4.15l-.22-2.83c-1.807 2.21-4.321 3.32-7.544 3.32-3.06 0-5.558-1.25-7.495-3.76-1.921-2.51-2.881-5.78-2.881-9.82v-.34zm4.516.51c0 3 .619 5.34 1.856 7.04 1.237 1.69 2.946 2.54 5.127 2.54 2.865 0 4.956-1.29 6.274-3.86v-12.14c-1.351-2.49-3.426-3.73-6.225-3.73-2.214 0-3.939.85-5.176 2.56s-1.856 4.24-1.856 7.59zm23.609-.53c0-2.59.504-4.92 1.514-6.98 1.025-2.07 2.441-3.67 4.248-4.79 1.823-1.12 3.898-1.68 6.225-1.68 3.597 0 6.502 1.24 8.716 3.73 2.23 2.49 3.345 5.8 3.345 9.94v.31c0 2.58-.497 4.89-1.49 6.94-.976 2.03-2.384 3.62-4.223 4.76-1.823 1.14-3.923 1.71-6.299 1.71-3.581 0-6.486-1.25-8.716-3.74-2.213-2.49-3.32-5.78-3.32-9.88v-.32zm4.541.53c0 2.93.675 5.29 2.026 7.06 1.367 1.77 3.19 2.66 5.469 2.66 2.295 0 4.118-.89 5.469-2.68 1.351-1.81 2.026-4.33 2.026-7.57 0-2.9-.692-5.24-2.075-7.03-1.367-1.81-3.19-2.71-5.469-2.71-2.23 0-4.028.88-5.395 2.66-1.367 1.77-2.051 4.31-2.051 7.61zm30.225 2.89h-4.078l-.317-25.52h4.736l-.341 25.52zm-4.566 7.76c0-.73.22-1.34.659-1.83.456-.51 1.123-.76 2.002-.76.879 0 1.546.25 2.002.76.456.49.684 1.1.684 1.83s-.228 1.34-.684 1.83c-.456.47-1.123.71-2.002.71-.879 0-1.546-.24-2.002-.71-.439-.49-.659-1.1-.659-1.83zm-170.288 44.5l5.859-9.65h5.274l-8.643 13.07 8.911 13.35h-5.224l-6.104-9.89-6.103 9.89h-5.249l8.911-13.35-8.643-13.07h5.225l5.786 9.65zm39.526.93c-4.02-1.16-6.949-2.58-8.789-4.25-1.823-1.7-2.734-3.78-2.734-6.25 0-2.8 1.115-5.11 3.345-6.94 2.246-1.84 5.159-2.76 8.74-2.76 2.441 0 4.614.48 6.518 1.42 1.921.94 3.402 2.25 4.444 3.91a9.916 9.916 0 011.587 5.44h-4.712c0-2.15-.684-3.83-2.051-5.05-1.367-1.24-3.296-1.86-5.786-1.86-2.311 0-4.118.51-5.42 1.54-1.286 1.01-1.929 2.42-1.929 4.22 0 1.45.611 2.68 1.831 3.69 1.237.99 3.329 1.9 6.275 2.73 2.962.83 5.273 1.75 6.933 2.76 1.677 1 2.914 2.16 3.711 3.49.814 1.34 1.221 2.91 1.221 4.72 0 2.88-1.123 5.19-3.369 6.93-2.246 1.73-5.249 2.59-9.009 2.59-2.441 0-4.72-.47-6.836-1.39-2.116-.95-3.752-2.23-4.907-3.86-1.139-1.63-1.709-3.48-1.709-5.54h4.712c0 2.15.789 3.85 2.368 5.1 1.595 1.24 3.719 1.86 6.372 1.86 2.474 0 4.37-.51 5.689-1.52 1.318-1.01 1.977-2.38 1.977-4.12 0-1.75-.61-3.09-1.831-4.03-1.221-.96-3.434-1.91-6.641-2.83z"/>
    <path fill="#C4C4C4" d="M1402 1562h165v280h-165z"/>
    <ellipse cx="1485" cy="1702" fill="#1AF407" rx="68" ry="70"/>
    <path fill="#C4C4C4" d="M2711 1552h165v280h-165zM1690 1562h165v280h-165z"/>
    <ellipse cx="1773" cy="1702" fill="#0C07F4" rx="68" ry="70"/>
    <path fill="#C4C4C4" d="M2715 1613h157v157h-157z"/>
    <path stroke="#000" d="M2715.35 1616.98l157 152.66M2714.65 1769.65l157-157"/>
    <g filter="url(#filter1_bddddddddf)">
      <path fill="#C4C4C4" d="M2706 1552h165v280h-165z"/>
      <path stroke="#000" stroke-width="3" d="M2707.5 1553.5h162v277h-162z"/>
    </g>
    <path fill="#000" d="M2410.99 1651.31h-11.42V1683h-4.67v-31.69h-11.4v-3.86h27.49v3.86zm.93 18.24c0-2.59.51-4.92 1.51-6.98 1.03-2.07 2.45-3.67 4.25-4.79 1.83-1.12 3.9-1.68 6.23-1.68 3.6 0 6.5 1.24 8.71 3.73 2.23 2.49 3.35 5.8 3.35 9.94v.31c0 2.58-.5 4.89-1.49 6.94-.98 2.03-2.38 3.62-4.22 4.76-1.83 1.14-3.93 1.71-6.3 1.71-3.58 0-6.49-1.25-8.72-3.74-2.21-2.49-3.32-5.78-3.32-9.88v-.32zm4.54.53c0 2.93.68 5.29 2.03 7.06 1.37 1.77 3.19 2.66 5.47 2.66 2.29 0 4.11-.89 5.47-2.68 1.35-1.81 2.02-4.33 2.02-7.57 0-2.9-.69-5.24-2.07-7.03-1.37-1.81-3.19-2.71-5.47-2.71-2.23 0-4.03.88-5.4 2.66-1.36 1.77-2.05 4.31-2.05 7.61zm29.42-13.5l.12 2.93c1.94-2.27 4.55-3.41 7.84-3.41 3.69 0 6.21 1.41 7.54 4.24.88-1.27 2.02-2.29 3.42-3.07 1.42-.78 3.09-1.17 5.01-1.17 5.79 0 8.74 3.06 8.83 9.2v17.7h-4.51v-17.43c0-1.89-.43-3.3-1.3-4.23-.86-.94-2.31-1.41-4.34-1.41-1.68 0-3.07.5-4.18 1.51-1.1 1-1.75 2.34-1.93 4.03V1683h-4.54v-17.31c0-3.84-1.88-5.76-5.64-5.76-2.96 0-4.98 1.26-6.08 3.78V1683h-4.51v-26.42h4.27zm55.91 26.42c-.26-.52-.47-1.45-.64-2.78-2.1 2.18-4.6 3.27-7.52 3.27-2.6 0-4.74-.73-6.42-2.2-1.66-1.48-2.49-3.35-2.49-5.61 0-2.75 1.05-4.89 3.13-6.4 2.1-1.53 5.04-2.3 8.84-2.3h4.39v-2.07c0-1.58-.47-2.83-1.41-3.76-.95-.94-2.34-1.42-4.18-1.42-1.61 0-2.96.41-4.05 1.22-1.09.82-1.64 1.8-1.64 2.96h-4.54c0-1.32.46-2.59 1.39-3.81.95-1.24 2.22-2.21 3.81-2.93 1.61-.72 3.38-1.07 5.3-1.07 3.04 0 5.43.76 7.15 2.29 1.73 1.51 2.62 3.61 2.69 6.28v12.15c0 2.43.31 4.36.93 5.79v.39h-4.74zm-7.5-3.44c1.42 0 2.76-.37 4.03-1.1 1.27-.73 2.19-1.69 2.76-2.86v-5.42h-3.54c-5.53 0-8.3 1.62-8.3 4.86 0 1.42.47 2.52 1.42 3.32.94.8 2.15 1.2 3.63 1.2zm31.16-18.92c-.69-.12-1.43-.17-2.23-.17-2.96 0-4.97 1.26-6.03 3.78V1683h-4.51v-26.42h4.39l.08 3.06c1.48-2.36 3.58-3.54 6.29-3.54.88 0 1.55.11 2.01.34v4.2zm27.17 19.16c1.61 0 3.02-.49 4.22-1.46 1.21-.98 1.87-2.2 2-3.67h4.28c-.08 1.52-.61 2.96-1.57 4.33-.96 1.36-2.24 2.45-3.85 3.27-1.6.81-3.29 1.22-5.08 1.22-3.6 0-6.46-1.2-8.59-3.59-2.12-2.41-3.18-5.7-3.18-9.86v-.76c0-2.57.47-4.86 1.42-6.86.94-2 2.29-3.56 4.05-4.66 1.77-1.11 3.87-1.66 6.27-1.66 2.97 0 5.42.88 7.38 2.66 1.97 1.77 3.02 4.07 3.15 6.91h-4.28c-.13-1.71-.78-3.11-1.95-4.2-1.15-1.11-2.59-1.66-4.3-1.66-2.29 0-4.07.83-5.34 2.49-1.26 1.64-1.88 4.03-1.88 7.15v.85c0 3.05.62 5.39 1.88 7.04 1.25 1.64 3.04 2.46 5.37 2.46zm31.88 3.2c-.26-.52-.47-1.45-.63-2.78-2.1 2.18-4.61 3.27-7.52 3.27-2.6 0-4.74-.73-6.42-2.2-1.66-1.48-2.49-3.35-2.49-5.61 0-2.75 1.04-4.89 3.12-6.4 2.1-1.53 5.05-2.3 8.84-2.3h4.4v-2.07c0-1.58-.48-2.83-1.42-3.76-.94-.94-2.34-1.42-4.17-1.42-1.62 0-2.97.41-4.06 1.22-1.09.82-1.63 1.8-1.63 2.96h-4.54c0-1.32.46-2.59 1.39-3.81.94-1.24 2.21-2.21 3.81-2.93 1.61-.72 3.37-1.07 5.29-1.07 3.05 0 5.43.76 7.16 2.29 1.72 1.51 2.62 3.61 2.68 6.28v12.15c0 2.43.31 4.36.93 5.79v.39h-4.74zm-7.49-3.44c1.41 0 2.76-.37 4.03-1.1 1.27-.73 2.19-1.69 2.76-2.86v-5.42h-3.54c-5.54 0-8.3 1.62-8.3 4.86 0 1.42.47 2.52 1.41 3.32.95.8 2.16 1.2 3.64 1.2zm31.15-18.92c-.68-.12-1.42-.17-2.22-.17-2.96 0-4.97 1.26-6.03 3.78V1683h-4.52v-26.42h4.4l.07 3.06c1.48-2.36 3.58-3.54 6.3-3.54.88 0 1.55.11 2 .34v4.2zm11.52-10.45v6.39h4.94v3.5h-4.94v16.38c0 1.05.22 1.85.66 2.39.44.52 1.19.78 2.25.78.52 0 1.24-.1 2.15-.29v3.66c-1.19.33-2.35.49-3.47.49-2.02 0-3.54-.61-4.56-1.83-1.03-1.22-1.54-2.96-1.54-5.2v-16.38h-4.81v-3.5h4.81v-6.39h4.51zm26.54 32.81c-.26-.52-.47-1.45-.63-2.78-2.1 2.18-4.61 3.27-7.52 3.27-2.61 0-4.75-.73-6.42-2.2-1.66-1.48-2.49-3.35-2.49-5.61 0-2.75 1.04-4.89 3.12-6.4 2.1-1.53 5.05-2.3 8.84-2.3h4.39v-2.07c0-1.58-.47-2.83-1.41-3.76-.95-.94-2.34-1.42-4.18-1.42-1.61 0-2.96.41-4.05 1.22-1.09.82-1.63 1.8-1.63 2.96h-4.55c0-1.32.47-2.59 1.4-3.81.94-1.24 2.21-2.21 3.8-2.93 1.62-.72 3.38-1.07 5.3-1.07 3.05 0 5.43.76 7.16 2.29 1.72 1.51 2.62 3.61 2.68 6.28v12.15c0 2.43.31 4.36.93 5.79v.39h-4.74zm-7.49-3.44c1.41 0 2.76-.37 4.03-1.1 1.27-.73 2.18-1.69 2.75-2.86v-5.42h-3.54c-5.53 0-8.3 1.62-8.3 4.86 0 1.42.48 2.52 1.42 3.32.94.8 2.16 1.2 3.64 1.2zm-133.91 46.72l15.28 6.17v4.79l-19.97-9.25v-3.57l19.97-9.23v4.79l-15.28 6.3zm31.81 2.46h-11.92v-3.68h11.92v3.68zM2675 1205h148v88h-148zM2675 1325h148v88h-148z"/>
    <path fill="#C4C4C4" d="M2675 1085h148v88h-148zM2675 725h148v88h-148zM2675 965h148v88h-148zM2675 605h148v88h-148zM2675 845h148v88h-148z"/>
    <path fill="#F8FD00" d="M780 622h180v164H780z"/>
    <path fill="#1AF407" d="M546 622h180v164H546zM2377 1150h180v164h-180z"/>
    <path fill="#F8FD00" d="M2143 889h180v164h-180z"/>
    <path fill="#F40707" d="M2143 1150h180v164h-180z"/>
    <path fill="#0C07F4" d="M2143 622h180v164h-180z"/>
    <path fill="#F8FD00" d="M1841 1150h180v164h-180z"/>
    <path fill="#0C07F4" d="M1841 889h180v164h-180z"/>
    <path fill="#F40707" d="M1841 622h180v164h-180z"/>
    <path fill="#F8FD00" d="M1506 1150h180v164h-180z"/>
    <path fill="#33D325" d="M1506 889h180v164h-180z"/>
    <path fill="#F8FD00" d="M1506 622h180v164h-180z"/>
    <path fill="#0C07F4" d="M1143 622h180v164h-180z"/>
    <path fill="#F40707" d="M1143 889h180v164h-180z"/>
    <path fill="#1AF407" d="M1143 1156h180v164h-180z"/>
    <path fill="#F40707" d="M780 1156h180v164H780z"/>
    <path fill="#0C07F4" d="M780 889h180v164H780z"/>
    <path fill="#000" d="M571.548 523h-4.688v-35.547h4.688V523zm12.158-26.416l.147 3.32c2.018-2.539 4.654-3.808 7.91-3.808 5.582 0 8.398 3.149 8.447 9.448V523h-4.517v-17.48c-.016-1.905-.455-3.313-1.318-4.224-.846-.912-2.173-1.367-3.979-1.367-1.465 0-2.751.39-3.858 1.172-1.107.781-1.969 1.806-2.588 3.076V523h-4.516v-26.416h4.272zM611.929 523h-4.517v-26.416h4.517V523zm-4.883-33.423c0-.732.22-1.351.659-1.855.456-.505 1.123-.757 2.002-.757.879 0 1.546.252 2.002.757.456.504.684 1.123.684 1.855 0 .733-.228 1.343-.684 1.831-.456.488-1.123.733-2.002.733-.879 0-1.546-.245-2.002-.733-.439-.488-.659-1.098-.659-1.831zm22.729 30.225c1.612 0 3.02-.489 4.224-1.465 1.204-.977 1.872-2.197 2.002-3.662h4.272c-.081 1.513-.602 2.954-1.562 4.321-.96 1.367-2.246 2.458-3.857 3.272a11.035 11.035 0 01-5.079 1.22c-3.597 0-6.461-1.196-8.593-3.589-2.116-2.408-3.174-5.696-3.174-9.863v-.757c0-2.571.472-4.858 1.416-6.86.944-2.002 2.295-3.556 4.053-4.663 1.774-1.107 3.865-1.66 6.274-1.66 2.962 0 5.42.887 7.373 2.661 1.969 1.774 3.019 4.077 3.149 6.909h-4.272c-.13-1.709-.781-3.109-1.953-4.199-1.156-1.107-2.588-1.66-4.297-1.66-2.295 0-4.077.83-5.347 2.49-1.253 1.644-1.88 4.028-1.88 7.153v.855c0 3.043.627 5.387 1.88 7.031 1.254 1.644 3.044 2.466 5.371 2.466zM650.259 523h-4.517v-26.416h4.517V523zm-4.883-33.423c0-.732.22-1.351.659-1.855.456-.505 1.123-.757 2.002-.757.879 0 1.546.252 2.002.757.456.504.684 1.123.684 1.855 0 .733-.228 1.343-.684 1.831-.456.488-1.123.733-2.002.733-.879 0-1.546-.245-2.002-.733-.439-.488-.659-1.098-.659-1.831zm10.937 19.971c0-2.588.505-4.916 1.514-6.983 1.026-2.067 2.442-3.662 4.248-4.785 1.823-1.123 3.898-1.684 6.226-1.684 3.597 0 6.502 1.245 8.716 3.735 2.229 2.49 3.344 5.802 3.344 9.937v.317c0 2.572-.496 4.883-1.489 6.934-.976 2.034-2.384 3.621-4.224 4.76-1.822 1.14-3.922 1.709-6.298 1.709-3.581 0-6.486-1.245-8.716-3.735-2.214-2.49-3.321-5.786-3.321-9.888v-.317zm4.541.537c0 2.93.676 5.282 2.027 7.056 1.367 1.774 3.19 2.661 5.469 2.661 2.295 0 4.117-.895 5.468-2.686 1.351-1.806 2.027-4.329 2.027-7.568 0-2.897-.692-5.241-2.075-7.031-1.368-1.807-3.191-2.71-5.469-2.71-2.23 0-4.029.887-5.396 2.661s-2.051 4.313-2.051 7.617zm-45.507 58.658h-11.914v-3.686h11.914v3.686zm20.41-2.612l-16.138-6.323v-4.639l20.85 9.228v3.565l-20.85 9.253v-4.688l16.138-6.396zM2461.09 1409.3h-14.91v15.7h-4.69v-35.55h22.02v3.86h-17.33v12.16h14.91v3.83zm12.24 15.7h-4.52v-26.42h4.52V1425zm-4.89-33.42c0-.74.22-1.35.66-1.86.46-.5 1.12-.76 2-.76.88 0 1.55.26 2.01.76.45.51.68 1.12.68 1.86 0 .73-.23 1.34-.68 1.83-.46.49-1.13.73-2.01.73-.88 0-1.54-.24-2-.73-.44-.49-.66-1.1-.66-1.83zm16.41 7l.15 3.32c2.01-2.53 4.65-3.8 7.91-3.8 5.58 0 8.39 3.15 8.44 9.44V1425h-4.51v-17.48c-.02-1.9-.46-3.31-1.32-4.22-.85-.92-2.18-1.37-3.98-1.37-1.47 0-2.75.39-3.86 1.17-1.11.78-1.97 1.81-2.59 3.08V1425h-4.51v-26.42h4.27zm28.37 16.39h-4.08l-.32-25.52h4.74l-.34 25.52zm-4.57 7.76c0-.73.22-1.34.66-1.83.46-.51 1.12-.76 2-.76.88 0 1.55.25 2.01.76.45.49.68 1.1.68 1.83s-.23 1.34-.68 1.83c-.46.47-1.13.71-2.01.71-.88 0-1.54-.24-2-.71-.44-.49-.66-1.1-.66-1.83zM3120.15 621.906h9.42v50.342c0 6.803-2.05 12.126-6.15 15.967-4.07 3.841-9.51 5.762-16.31 5.762-7.06 0-12.56-1.807-16.5-5.42-3.94-3.614-5.91-8.675-5.91-15.186h9.37c0 4.069 1.11 7.243 3.32 9.522 2.25 2.278 5.49 3.418 9.72 3.418 3.88 0 7-1.221 9.38-3.663 2.41-2.441 3.63-5.859 3.66-10.253v-50.489zm56.59 65.869c-3.52 4.135-8.67 6.202-15.48 6.202-5.63 0-9.93-1.628-12.89-4.883-2.93-3.288-4.41-8.138-4.44-14.551v-34.375h9.03v34.131c0 8.008 3.26 12.012 9.77 12.012 6.9 0 11.49-2.572 13.77-7.715v-38.428h9.03V693h-8.59l-.2-5.225zm20.41-21.63c0-8.236 1.9-14.779 5.71-19.629 3.81-4.883 8.86-7.325 15.14-7.325 6.45 0 11.47 2.279 15.09 6.836l.44-5.859h8.25v51.562c0 6.836-2.04 12.224-6.1 16.163-4.04 3.938-9.48 5.908-16.31 5.908-3.81 0-7.54-.814-11.18-2.442-3.65-1.627-6.43-3.857-8.35-6.689l4.68-5.42c3.88 4.785 8.61 7.178 14.21 7.178 4.4 0 7.81-1.237 10.26-3.711 2.47-2.474 3.71-5.957 3.71-10.449v-4.541c-3.62 4.166-8.55 6.25-14.8 6.25-6.18 0-11.2-2.491-15.04-7.471-3.81-4.981-5.71-11.768-5.71-20.361zm9.08 1.025c0 5.957 1.22 10.644 3.66 14.062 2.45 3.386 5.86 5.079 10.26 5.079 5.7 0 9.88-2.588 12.55-7.764v-24.121c-2.77-5.046-6.92-7.569-12.45-7.569-4.4 0-7.83 1.709-10.31 5.127-2.47 3.418-3.71 8.48-3.71 15.186zm81.84 25.83c-.52-1.042-.95-2.897-1.27-5.566-4.2 4.362-9.21 6.543-15.04 6.543-5.21 0-9.49-1.465-12.84-4.395-3.32-2.962-4.98-6.706-4.98-11.23 0-5.502 2.08-9.766 6.25-12.793 4.2-3.06 10.09-4.59 17.67-4.59h8.79v-4.151c0-3.157-.94-5.664-2.83-7.519-1.89-1.888-4.67-2.832-8.35-2.832-3.22 0-5.92.814-8.1 2.441-2.19 1.628-3.28 3.597-3.28 5.908h-9.08c0-2.636.93-5.175 2.78-7.617 1.89-2.474 4.43-4.427 7.62-5.859 3.22-1.432 6.76-2.149 10.6-2.149 6.09 0 10.85 1.53 14.3 4.59 3.45 3.028 5.25 7.211 5.38 12.549v24.316c0 4.851.61 8.708 1.85 11.573V693h-9.47zm-14.99-6.885c2.83 0 5.52-.732 8.05-2.197 2.54-1.465 4.38-3.369 5.52-5.713v-10.84h-7.08c-11.07 0-16.6 3.239-16.6 9.717 0 2.832.94 5.046 2.83 6.641 1.89 1.595 4.32 2.392 7.28 2.392zm34.57-19.97c0-8.106 1.92-14.616 5.76-19.532 3.84-4.948 8.87-7.422 15.09-7.422 6.18 0 11.08 2.116 14.7 6.348V618h9.03v75h-8.3l-.44-5.664c-3.61 4.427-8.64 6.641-15.09 6.641-6.12 0-11.12-2.507-14.99-7.52-3.84-5.013-5.76-11.556-5.76-19.629v-.683zm9.03 1.025c0 5.99 1.24 10.677 3.71 14.062 2.48 3.386 5.89 5.079 10.26 5.079 5.73 0 9.91-2.572 12.55-7.715v-24.268c-2.71-4.98-6.86-7.471-12.46-7.471-4.42 0-7.87 1.709-10.35 5.127-2.47 3.418-3.71 8.48-3.71 15.186zm47.22-1.074c0-5.176 1.01-9.831 3.03-13.965 2.05-4.134 4.88-7.324 8.49-9.57 3.65-2.247 7.8-3.37 12.45-3.37 7.2 0 13.01 2.491 17.43 7.471 4.46 4.981 6.69 11.605 6.69 19.873v.635c0 5.143-.99 9.766-2.97 13.867-1.96 4.069-4.77 7.243-8.45 9.522-3.65 2.278-7.85 3.418-12.6 3.418-7.16 0-12.97-2.491-17.43-7.471-4.43-4.981-6.64-11.572-6.64-19.776v-.634zm9.08 1.074c0 5.859 1.35 10.563 4.05 14.111 2.74 3.548 6.38 5.323 10.94 5.323 4.59 0 8.24-1.791 10.94-5.372 2.7-3.613 4.05-8.658 4.05-15.136 0-5.795-1.38-10.482-4.15-14.063-2.73-3.613-6.38-5.42-10.94-5.42-4.46 0-8.05 1.774-10.79 5.323-2.73 3.548-4.1 8.626-4.1 15.234zm75.88-18.897a27.196 27.196 0 00-4.44-.341c-5.93 0-9.95 2.522-12.06 7.568V693h-9.04v-52.832h8.79l.15 6.103c2.96-4.72 7.16-7.08 12.6-7.08 1.75 0 3.09.228 4 .684v8.398zm29.3 45.704c-7.17 0-12.99-2.344-17.48-7.032-4.5-4.72-6.74-11.019-6.74-18.896v-1.66c0-5.241.99-9.912 2.98-14.014 2.01-4.134 4.81-7.357 8.39-9.668 3.62-2.344 7.52-3.516 11.72-3.516 6.87 0 12.21 2.263 16.02 6.788 3.81 4.524 5.71 11.002 5.71 19.433v3.76h-35.79c.13 5.208 1.64 9.424 4.54 12.646 2.93 3.19 6.64 4.786 11.13 4.786 3.19 0 5.9-.652 8.11-1.954 2.21-1.302 4.15-3.027 5.81-5.175l5.52 4.296c-4.43 6.804-11.07 10.206-19.92 10.206zm-1.13-47.364c-3.64 0-6.7 1.335-9.18 4.004-2.47 2.637-4 6.348-4.59 11.133h26.47v-.684c-.26-4.589-1.5-8.138-3.71-10.644-2.22-2.539-5.21-3.809-8.99-3.809zm62.99 32.373c0-2.441-.93-4.329-2.78-5.664-1.82-1.367-5.03-2.539-9.62-3.515-4.56-.977-8.19-2.149-10.89-3.516-2.67-1.367-4.65-2.995-5.96-4.883-1.27-1.888-1.9-4.134-1.9-6.738 0-4.33 1.82-7.992 5.47-10.986 3.68-2.995 8.36-4.493 14.06-4.493 5.99 0 10.84 1.547 14.55 4.639 3.74 3.093 5.62 7.048 5.62 11.865h-9.09c0-2.474-1.05-4.606-3.17-6.396-2.08-1.791-4.72-2.686-7.91-2.686-3.29 0-5.86.716-7.71 2.149-1.86 1.432-2.79 3.304-2.79 5.615 0 2.181.86 3.825 2.59 4.932 1.73 1.106 4.83 2.164 9.33 3.173 4.52 1.01 8.18 2.214 10.98 3.614 2.8 1.399 4.87 3.092 6.2 5.078 1.37 1.953 2.05 4.346 2.05 7.178 0 4.72-1.88 8.512-5.66 11.377-3.78 2.832-8.67 4.248-14.7 4.248-4.23 0-7.97-.749-11.23-2.247-3.25-1.497-5.81-3.58-7.66-6.25-1.83-2.701-2.74-5.615-2.74-8.74h9.04c.16 3.028 1.36 5.436 3.61 7.227 2.28 1.758 5.27 2.637 8.98 2.637 3.42 0 6.16-.684 8.21-2.051 2.08-1.4 3.12-3.255 3.12-5.567zm45.27-14.843c0-7.357.97-14.421 2.92-21.192 1.99-6.771 4.94-12.923 8.84-18.457 3.91-5.534 7.96-9.44 12.16-11.719l1.86 5.957c-4.76 3.646-8.66 9.213-11.72 16.7-3.03 7.487-4.69 15.869-4.98 25.146l-.05 4.151c0 12.565 2.29 23.47 6.88 32.714 2.77 5.534 6.06 9.864 9.87 12.989l-1.86 5.517c-4.33-2.409-8.46-6.445-12.4-12.109-7.68-11.068-11.52-24.3-11.52-39.697zm46.72-11.084h6.79c4.27-.066 7.62-1.189 10.06-3.37 2.44-2.181 3.66-5.127 3.66-8.837 0-8.334-4.15-12.5-12.45-12.5-3.91 0-7.03 1.123-9.37 3.369-2.32 2.213-3.47 5.159-3.47 8.838h-9.03c0-5.632 2.05-10.303 6.15-14.014 4.13-3.744 9.37-5.615 15.72-5.615 6.71 0 11.96 1.774 15.77 5.322 3.81 3.548 5.71 8.48 5.71 14.795 0 3.092-1 6.087-3.02 8.984-1.99 2.897-4.71 5.062-8.16 6.494 3.91 1.237 6.92 3.288 9.04 6.153 2.14 2.864 3.22 6.364 3.22 10.498 0 6.38-2.08 11.442-6.25 15.185-4.17 3.744-9.59 5.616-16.26 5.616-6.67 0-12.11-1.807-16.31-5.42-4.17-3.614-6.25-8.383-6.25-14.307h9.08c0 3.743 1.22 6.738 3.66 8.984 2.45 2.246 5.72 3.37 9.82 3.37 4.36 0 7.7-1.14 10.01-3.418 2.31-2.279 3.47-5.551 3.47-9.815 0-4.134-1.27-7.308-3.81-9.521-2.54-2.214-6.2-3.353-10.99-3.418h-6.79v-7.373zm64.8 11.572c0 7.259-.96 14.225-2.88 20.898a61.018 61.018 0 01-8.74 18.409c-3.91 5.631-8.01 9.635-12.31 12.011l-1.9-5.517c5.01-3.842 9.03-9.799 12.06-17.871 3.06-8.106 4.62-17.09 4.69-26.954v-1.562c0-6.836-.72-13.184-2.15-19.043-1.43-5.892-3.44-11.165-6.01-15.82-2.54-4.655-5.4-8.285-8.59-10.889l1.9-5.518c4.3 2.377 8.38 6.348 12.26 11.914 3.9 5.567 6.82 11.703 8.74 18.409 1.95 6.705 2.93 13.883 2.93 21.533zM3035.45 780.125h7.54v40.273c0 5.443-1.64 9.701-4.92 12.774-3.25 3.073-7.6 4.609-13.05 4.609-5.65 0-10.05-1.445-13.2-4.336-3.15-2.89-4.73-6.94-4.73-12.148h7.5c0 3.255.89 5.794 2.66 7.617 1.8 1.823 4.39 2.734 7.77 2.734 3.1 0 5.6-.976 7.5-2.929 1.93-1.953 2.91-4.688 2.93-8.203v-40.391zm45.28 52.695c-2.82 3.308-6.94 4.961-12.39 4.961-4.5 0-7.94-1.302-10.31-3.906-2.34-2.63-3.53-6.51-3.55-11.641v-27.5h7.22v27.305c0 6.406 2.61 9.609 7.82 9.609 5.52 0 9.19-2.057 11.01-6.171v-30.743h7.23V837h-6.88l-.15-4.18zm44.14 4.18c-.42-.833-.76-2.318-1.02-4.453-3.36 3.489-7.37 5.234-12.03 5.234-4.17 0-7.59-1.172-10.27-3.515-2.66-2.37-3.99-5.365-3.99-8.985 0-4.401 1.67-7.812 5-10.234 3.36-2.448 8.08-3.672 14.14-3.672h7.03v-3.32c0-2.526-.75-4.532-2.26-6.016-1.51-1.51-3.74-2.266-6.68-2.266-2.58 0-4.74.651-6.49 1.954-1.74 1.302-2.61 2.877-2.61 4.726h-7.27c0-2.109.74-4.141 2.23-6.094 1.51-1.979 3.54-3.541 6.09-4.687 2.58-1.146 5.41-1.719 8.48-1.719 4.87 0 8.68 1.224 11.44 3.672 2.76 2.422 4.2 5.768 4.3 10.039v19.453c0 3.88.5 6.966 1.49 9.258V837h-7.58zm-11.99-5.508c2.26 0 4.41-.586 6.44-1.758 2.03-1.172 3.5-2.695 4.41-4.57v-8.672h-5.66c-8.85 0-13.28 2.591-13.28 7.774 0 2.265.75 4.036 2.26 5.312 1.52 1.276 3.46 1.914 5.83 1.914zm36.24-36.758l.24 5.313c3.23-4.063 7.45-6.094 12.66-6.094 8.93 0 13.43 5.039 13.51 15.117V837h-7.23v-27.969c-.02-3.047-.72-5.299-2.1-6.758-1.36-1.458-3.48-2.187-6.37-2.187-2.35 0-4.4.625-6.17 1.875-1.77 1.25-3.15 2.891-4.14 4.922V837h-7.23v-42.266h6.83zm77.74-8.437h-18.28V837h-7.46v-50.703h-18.24v-6.172h43.98v6.172zm7.03 27.617c0-5.885.78-11.536 2.34-16.953 1.59-5.417 3.95-10.339 7.07-14.766 3.13-4.427 6.37-7.552 9.73-9.375l1.49 4.766c-3.81 2.917-6.93 7.37-9.38 13.359-2.42 5.99-3.75 12.696-3.98 20.117l-.04 3.321c0 10.052 1.83 18.776 5.5 26.172 2.22 4.427 4.85 7.89 7.9 10.39l-1.49 4.414c-3.46-1.927-6.77-5.156-9.92-9.687-6.15-8.854-9.22-19.44-9.22-31.758zm60.16 8.242h-23.83L3264.87 837h-7.74l21.72-56.875h6.56L3307.17 837h-7.69l-5.43-14.844zm-21.57-6.172h19.34l-9.69-26.601-9.65 26.601zm48.05-21.25l.24 5.313c3.22-4.063 7.44-6.094 12.65-6.094 8.93 0 13.44 5.039 13.52 15.117V837h-7.23v-27.969c-.03-3.047-.73-5.299-2.11-6.758-1.35-1.458-3.48-2.187-6.37-2.187-2.34 0-4.4.625-6.17 1.875-1.77 1.25-3.15 2.891-4.14 4.922V837h-7.22v-42.266h6.83zM3360.26 837v-36.68h-6.68v-5.586h6.68v-3.593c0-4.714 1.34-8.386 4.02-11.016 2.71-2.63 6.52-3.945 11.45-3.945 2.91 0 6.6.794 11.05 2.382l-1.21 6.094c-3.25-1.302-6.35-1.953-9.3-1.953-3.1 0-5.34.703-6.72 2.109-1.35 1.381-2.03 3.464-2.03 6.25v3.672h8.64v5.586h-8.64V837h-7.26zm30.12 0h-7.27v-42.266h7.27V837zm21.56-52.5v10.234h7.89v5.586h-7.89v26.211c0 1.693.35 2.969 1.05 3.828.71.834 1.9 1.25 3.6 1.25.83 0 1.98-.156 3.43-.468V837c-1.9.521-3.75.781-5.54.781-3.23 0-5.67-.976-7.31-2.929-1.64-1.954-2.46-4.727-2.46-8.321V800.32h-7.69v-5.586h7.69V784.5h7.23zm36.79 16.719a21.45 21.45 0 00-3.55-.274c-4.74 0-7.96 2.019-9.65 6.055v30h-7.23v-42.266h7.04l.11 4.883c2.37-3.776 5.73-5.664 10.08-5.664 1.41 0 2.48.182 3.2.547v6.719zM3463.27 837h-7.23v-42.266h7.23V837zm-7.82-53.477c0-1.171.35-2.161 1.06-2.968.73-.808 1.79-1.211 3.2-1.211 1.41 0 2.47.403 3.2 1.211.73.807 1.1 1.797 1.1 2.968 0 1.172-.37 2.149-1.1 2.93-.73.781-1.79 1.172-3.2 1.172-1.41 0-2.47-.391-3.2-1.172-.71-.781-1.06-1.758-1.06-2.93zm17.5 31.954c0-4.141.81-7.865 2.43-11.172 1.64-3.308 3.9-5.86 6.79-7.657 2.92-1.796 6.24-2.695 9.96-2.695 5.76 0 10.41 1.992 13.95 5.977 3.57 3.984 5.35 9.284 5.35 15.898v.508c0 4.115-.79 7.812-2.38 11.094-1.57 3.255-3.82 5.794-6.76 7.617-2.92 1.823-6.28 2.734-10.08 2.734-5.73 0-10.38-1.992-13.94-5.976-3.55-3.985-5.32-9.258-5.32-15.821v-.507zm7.27.859c0 4.687 1.08 8.45 3.24 11.289 2.19 2.839 5.11 4.258 8.75 4.258 3.67 0 6.59-1.432 8.75-4.297 2.16-2.891 3.24-6.927 3.24-12.109 0-4.636-1.1-8.386-3.32-11.25-2.18-2.891-5.1-4.336-8.75-4.336-3.56 0-6.44 1.419-8.63 4.257-2.19 2.839-3.28 6.901-3.28 12.188zM3495.41 777h8.75l-10.46 11.484h-5.82l7.53-11.484zm31.92 17.734l.23 5.313c3.23-4.063 7.45-6.094 12.66-6.094 8.93 0 13.44 5.039 13.51 15.117V837h-7.22v-27.969c-.03-3.047-.73-5.299-2.11-6.758-1.36-1.458-3.48-2.187-6.37-2.187-2.34 0-4.4.625-6.17 1.875-1.77 1.25-3.15 2.891-4.14 4.922V837h-7.23v-42.266h6.84zm53.98 19.571c0 5.807-.77 11.38-2.3 16.718a48.8 48.8 0 01-6.99 14.727c-3.13 4.505-6.41 7.708-9.85 9.609l-1.52-4.414c4.01-3.073 7.23-7.838 9.65-14.297 2.44-6.484 3.69-13.671 3.75-21.562v-1.25c0-5.469-.58-10.547-1.72-15.234-1.15-4.714-2.75-8.933-4.81-12.657-2.03-3.724-4.32-6.627-6.87-8.711l1.52-4.414c3.44 1.901 6.71 5.078 9.81 9.532 3.12 4.453 5.45 9.362 6.99 14.726 1.56 5.365 2.34 11.107 2.34 17.227z"/>
    <path fill="#1AF407" d="M3049.16 952.711h-24.65v20.156h28.63V979h-36.13v-56.875h35.74v6.172h-28.24v18.281h24.65v6.133zm9.64 4.805c0-6.485 1.54-11.693 4.61-15.625 3.08-3.959 7.1-5.938 12.07-5.938 4.95 0 8.87 1.693 11.76 5.078V919h7.23v60h-6.64l-.35-4.531c-2.89 3.541-6.92 5.312-12.07 5.312-4.9 0-8.9-2.005-12-6.015-3.07-4.011-4.61-9.245-4.61-15.704v-.546zm7.23.82c0 4.792.99 8.542 2.97 11.25 1.98 2.708 4.71 4.062 8.2 4.062 4.59 0 7.93-2.057 10.04-6.171v-19.415c-2.16-3.984-5.48-5.976-9.96-5.976-3.54 0-6.3 1.367-8.28 4.102-1.98 2.734-2.97 6.783-2.97 12.148zm37.93-.82c0-6.485 1.54-11.693 4.61-15.625 3.07-3.959 7.1-5.938 12.07-5.938 4.95 0 8.87 1.693 11.76 5.078V919h7.22v60h-6.64l-.35-4.531c-2.89 3.541-6.91 5.312-12.07 5.312-4.89 0-8.89-2.005-11.99-6.015-3.07-4.011-4.61-9.245-4.61-15.704v-.546zm7.23.82c0 4.792.99 8.542 2.97 11.25 1.98 2.708 4.71 4.062 8.2 4.062 4.58 0 7.93-2.057 10.04-6.171v-19.415c-2.16-3.984-5.48-5.976-9.96-5.976-3.54 0-6.3 1.367-8.28 4.102-1.98 2.734-2.97 6.783-2.97 12.148zm53.51 10.078l9.85-31.68h7.73l-16.99 48.789c-2.63 7.032-6.81 10.547-12.54 10.547l-1.37-.117-2.69-.508v-5.859l1.95.156c2.45 0 4.35-.495 5.7-1.484 1.38-.99 2.52-2.8 3.4-5.43l1.6-4.297-15.07-41.797h7.89l10.54 31.68zm46.06-12.422h-13.36V979h-7.54v-56.875h18.83c6.4 0 11.33 1.458 14.76 4.375 3.47 2.917 5.2 7.161 5.2 12.734 0 3.542-.97 6.628-2.89 9.258-1.9 2.63-4.56 4.597-7.97 5.899l13.36 24.14V979h-8.05l-12.34-23.008zm-13.36-6.133h11.52c3.73 0 6.68-.963 8.87-2.89 2.21-1.927 3.32-4.505 3.32-7.735 0-3.515-1.06-6.211-3.16-8.086-2.09-1.875-5.11-2.825-9.07-2.851h-11.48v21.562z"/>
    <path fill="#000" d="M3017.59 1102.87h26.96v6.13h-34.5v-56.88h7.54v50.75zm58.75 1.95c-2.81 3.31-6.94 4.96-12.38 4.96-4.5 0-7.94-1.3-10.31-3.9-2.35-2.64-3.53-6.52-3.56-11.65v-27.5h7.23v27.31c0 6.41 2.6 9.61 7.81 9.61 5.52 0 9.2-2.06 11.02-6.17v-30.75h7.23V1109h-6.88l-.16-4.18zm35-.94c2.58 0 4.83-.78 6.76-2.34 1.93-1.56 3-3.52 3.2-5.86h6.84c-.13 2.42-.96 4.73-2.5 6.91-1.54 2.19-3.59 3.94-6.17 5.24-2.55 1.3-5.26 1.95-8.13 1.95-5.75 0-10.33-1.91-13.75-5.74-3.38-3.86-5.07-9.12-5.07-15.78v-1.21c0-4.12.75-7.78 2.26-10.98 1.51-3.2 3.67-5.69 6.49-7.46 2.83-1.77 6.18-2.66 10.03-2.66 4.74 0 8.68 1.42 11.8 4.26 3.15 2.84 4.83 6.52 5.04 11.06h-6.84c-.2-2.74-1.25-4.98-3.12-6.72-1.85-1.77-4.14-2.66-6.88-2.66-3.67 0-6.52 1.33-8.55 3.99-2.01 2.63-3.01 6.44-3.01 11.44v1.37c0 4.87 1 8.62 3.01 11.25 2.01 2.63 4.87 3.94 8.59 3.94zm32.78 5.12h-7.27v-42.27h7.27V1109zm.08-59.96h8.75l-10.47 11.48h-5.82l7.54-11.48zm37.92 59.96c-.41-.83-.75-2.32-1.01-4.45-3.36 3.49-7.37 5.23-12.03 5.23-4.17 0-7.59-1.17-10.28-3.51-2.65-2.37-3.98-5.37-3.98-8.99 0-4.4 1.67-7.81 5-10.23 3.36-2.45 8.07-3.67 14.14-3.67h7.03v-3.33c0-2.52-.75-4.53-2.26-6.01-1.51-1.51-3.74-2.27-6.68-2.27-2.58 0-4.74.65-6.49 1.96-1.74 1.3-2.61 2.87-2.61 4.72h-7.27c0-2.11.74-4.14 2.23-6.09 1.51-1.98 3.54-3.54 6.09-4.69 2.58-1.14 5.4-1.72 8.48-1.72 4.87 0 8.68 1.23 11.44 3.67 2.76 2.43 4.19 5.77 4.3 10.04v19.46c0 3.88.49 6.96 1.48 9.26v.62h-7.58zm-11.99-5.51c2.27 0 4.42-.58 6.45-1.76 2.03-1.17 3.5-2.69 4.41-4.57v-8.67h-5.66c-8.86 0-13.28 2.59-13.28 7.78 0 2.26.75 4.03 2.26 5.31 1.51 1.27 3.45 1.91 5.82 1.91zm62.7-20.78h-24.65v20.16h28.63v6.13h-36.13v-56.88h35.74v6.18h-28.24v18.28h24.65v6.13z"/>
    <path fill="#C4C4C4" d="M3275 888h67v100h-67z"/>
    <ellipse cx="3308.5" cy="937" fill="#1AF407" rx="27.5" ry="25"/>
    <path fill="#C4C4C4" d="M3402 1009h67v100h-67z"/>
    <ellipse cx="3435.5" cy="1058" fill="#F40707" rx="27.5" ry="25"/>
    <path fill="#C4C4C4" d="M3402 1009h67v100h-67z"/>
    <ellipse cx="3435.5" cy="1058" fill="#fff" rx="27.5" ry="25"/>
    <path fill="#C4C4C4" d="M3275 1009h67v100h-67z"/>
    <ellipse cx="3308.5" cy="1058" fill="#F40707" rx="27.5" ry="25"/>
    <g>
      <path fill="#5D5360" d="M1685.6 956.144c-.86 0-1.72-.344-2.38-1.032-.5-.52-12.15-13.001-5.08-35.888 5.85-18.969 1.29-31.951-4.93-37.776-4.37-4.083-9.9-5.165-14.81-2.893-1.71.805-3.71-.011-4.48-1.796-.76-1.787.01-3.879 1.72-4.672 7.43-3.44 15.69-1.912 22.11 4.094 7.8 7.308 13.71 23.022 6.86 45.211-5.75 18.593 3.05 28.328 3.43 28.734 1.3 1.395 1.28 3.631-.05 4.995a3.303 3.303 0 01-2.39 1.023z"/>
      <path fill="#6F6571" d="M1672.88 897.519c0-8.923-10.62-27.213-26.33-32.523-23.3-7.875-63.69 12.611-103.47-1.549l-38.21 5.31c0 9.022-21.37 22.742-28.23 27.007-1.29.801-1.9 2.372-1.54 3.887l1.62 6.746c.33 1.35 1.37 2.381 2.68 2.623 4.89.901 17.73 2.635 28.89-.541 14.89 14.449 38.05 25.988 38.05 25.988v57.967l-9.97 2.597c-2.26.587-4.06 2.333-4.8 4.629l-.96 3c-.62 1.94.76 3.93 2.72 3.93h13.05c2.1 0 4.05-1.09 5.22-2.91l3.66-5.727a10.794 10.794 0 001.6-4.334l7.57-53.238c20.83 11.934 56.33 11.743 80.67.22l15.46 30.592v20.502l-8.24 3.159c-2.03.704-3.62 2.363-4.29 4.477l-1.07 3.329c-.62 1.93.76 3.93 2.72 3.93h12.29c2.5 0 4.76-1.55 5.75-3.94l4.04-9.74a14.607 14.607 0 001.12-5.621v-25.268c0-.927-.17-1.824-.51-2.68-1.57-3.957-6.28-16.771-6.28-28.563-.01-12.683 6.79-16.495 6.79-33.259z"/>
      <path fill="#5D5360" d="M1525.04 874.112l-.87 6.761c-.34 2.616 1.29 5.097 3.77 5.636 4.02.875 10.35 1.063 16.75-3.525 1.23-.88 1.56-2.609.71-3.878-2.13-3.147-6.9-8.559-14.96-9.383-2.64-.27-5.05 1.646-5.4 4.389z"/>
      <path fill="#AEA8AF" d="M1549.1 847.151c-1.02-5.408-7.13-14.189-19.75-9.329-.9.348-1.54 1.675 0 1.563 3.97-.288 8.12-.321 9.35 4.15 3.11 11.358-15.72 15.045-24.07 15.782-5.53.489-9.62 3.983-9.76 9.44-.07 2.695 2.57 5.86 7.5 6.391 7.43.8 15.4-1.34 18.07-2.39.02-.006.03-.012.05-.018 6.37-2.508 21.16-12.077 18.61-25.589z"/>
      <path fill="#4B3F4E" d="M1533.33 1006.59h13.05c2.1 0 4.05-1.09 5.22-2.91l3.66-5.727-8.92-5.52-9.97 2.597c-2.26.587-4.07 2.334-4.8 4.63l-.96 3c-.62 1.94.76 3.93 2.72 3.93zM1660.56 991.696l-8.24 3.158c-2.03.705-3.62 2.364-4.3 4.478l-1.06 3.328c-.62 1.94.76 3.93 2.72 3.93h12.29c2.5 0 4.76-1.54 5.75-3.94l2.28-5.504-9.44-5.45z"/>
      <path fill="#5D5360" d="M1508.29 908.479c14.89 14.449 38.05 25.988 38.05 25.988v-8.274c0-2.622-1.39-5.031-3.62-6.257l-20.62-11.371c-3.04-1.678-6.57-2.099-9.89-1.155-1.09.308-2.38.664-3.92 1.069zM1565.33 934.951l-.9 5.43c20.83 11.934 56.33 11.744 80.67.221l-2.21-6.246c-1.15-3.25-4.37-5.174-7.63-4.508-9.8 2.001-31.98 4.947-62.03-.65-3.71-.69-7.26 1.888-7.9 5.753z"/>
      <path fill="#4B3F4E" d="M1508.97 889.774c1.88 0 3.4-1.585 3.4-3.54s-1.52-3.54-3.4-3.54c-1.87 0-3.4 1.585-3.4 3.54s1.53 3.54 3.4 3.54z"/>
      <path fill="#C9C6CA" d="M1529.35 837.822c-.54.21-.98.773-.91 1.165 6.43-1.757 12.37-.957 14.5 4.032 1.59 3.724 2.02 10.915-5.94 16.335-7.22 4.914-22.61 4.425-24.36 15.81 7.36.719 15.16-1.37 17.8-2.406.01-.007.03-.013.05-.019 6.37-2.507 21.16-12.076 18.61-25.588-1.02-5.408-7.13-14.189-19.75-9.329z"/>
      <path fill="#5D5360" d="M1476.64 895.765c-1.29.8-1.9 2.371-1.54 3.886l1.62 6.746c.33 1.351 1.37 2.381 2.68 2.624 3.06.563 9.22 1.452 16.14 1.263-1.85-8.277-5.38-14.696-10.35-20.14-3.47 2.415-6.6 4.408-8.55 5.621z"/>
      <path fill="#4B3F4E" d="M1479.67 897.298c0-1.014-.5-1.93-1.31-2.616-.64.407-1.22.772-1.72 1.083-1.29.8-1.9 2.371-1.54 3.886l.35 1.435c2.37-.234 4.22-1.831 4.22-3.788z"/>
    </g>
    <g>
      <path fill="#5D5360" d="M2986.51 834.269a2.48 2.48 0 01-1.75-.708c-.37-.357-8.91-8.92-3.73-24.623 4.3-13.014.95-21.921-3.62-25.918-3.2-2.801-7.26-3.543-10.86-1.985a2.518 2.518 0 01-3.29-1.232c-.55-1.226.01-2.661 1.27-3.205 5.45-2.36 11.51-1.312 16.22 2.809 5.72 5.014 10.05 15.795 5.03 31.019-4.22 12.756 2.24 19.435 2.51 19.714.96.957.95 2.492-.03 3.427-.49.469-1.12.702-1.75.702z"/>
      <path fill="#6F6571" d="M2977.17 794.047c0-6.123-7.79-18.671-19.31-22.314-17.1-5.403-46.73 8.652-75.91-1.063l-28.04 3.643c0 6.19-15.68 15.603-20.71 18.53a2.38 2.38 0 00-1.12 2.666l1.18 4.629c.24.926 1 1.633 1.97 1.8 3.58.618 13 1.807 21.19-.371 10.93 9.913 27.92 17.83 27.92 17.83v39.77l-7.32 1.782c-1.65.403-2.98 1.601-3.52 3.177l-.7 2.058c-.46 1.328.56 2.698 1.99 2.698h9.58c1.54 0 2.97-.749 3.82-1.995l2.69-3.933a7.053 7.053 0 001.18-2.973l5.55-36.527c15.28 8.188 41.33 8.057 59.18.151l11.35 20.989v14.067l-6.05 2.167a4.921 4.921 0 00-3.15 3.072l-.78 2.284c-.46 1.327.56 2.698 1.99 2.698h9.02c1.83 0 3.49-1.062 4.22-2.703l2.96-6.685c.54-1.217.82-2.53.82-3.856v-17.337c0-.635-.12-1.251-.37-1.839-1.15-2.714-4.61-11.506-4.61-19.596 0-8.702 4.98-11.317 4.98-22.819z"/>
      <path fill="#5D5360" d="M2868.71 777.987l-.63 4.639a3.465 3.465 0 002.76 3.867c2.95.6 7.59.729 12.29-2.419.9-.604 1.15-1.79.52-2.661-1.56-2.158-5.06-5.872-10.97-6.437-1.94-.185-3.71 1.129-3.97 3.011z"/>
      <path fill="#AEA8AF" d="M2886.36 759.489c-.75-3.71-5.23-9.735-14.48-6.4-.67.239-1.13 1.149 0 1.072 2.91-.198 5.95-.22 6.85 2.848 2.28 7.792-11.53 10.322-17.65 10.828-4.06.335-7.06 2.732-7.17 6.476-.05 1.849 1.89 4.021 5.5 4.385 5.46.549 11.3-.92 13.26-1.64l.04-.012c4.67-1.721 15.52-8.286 13.65-17.557z"/>
      <path fill="#4B3F4E" d="M2874.79 868.882h9.58c1.54 0 2.97-.749 3.82-1.995l2.69-3.932-6.54-3.788-7.32 1.782c-1.65.403-2.98 1.601-3.52 3.176l-.7 2.059c-.45 1.328.56 2.698 1.99 2.698zM2968.14 858.662l-6.05 2.166a4.926 4.926 0 00-3.15 3.072l-.78 2.284c-.46 1.328.56 2.698 1.99 2.698h9.02c1.83 0 3.49-1.062 4.22-2.702l1.68-3.78-6.93-3.738z"/>
      <path fill="#5D5360" d="M2856.42 801.567c10.93 9.913 27.92 17.83 27.92 17.83v-5.677c0-1.799-1.02-3.452-2.66-4.293l-15.13-7.802a10.129 10.129 0 00-7.25-.792c-.8.211-1.75.456-2.88.734zM2898.27 819.729l-.66 3.726c15.28 8.187 41.33 8.057 59.18.151l-1.62-4.285c-.84-2.23-3.2-3.551-5.6-3.094-7.19 1.374-23.46 3.394-45.51-.445-2.72-.474-5.32 1.295-5.79 3.947z"/>
      <path fill="#4B3F4E" d="M2856.92 788.733c1.38 0 2.5-1.088 2.5-2.429 0-1.342-1.12-2.429-2.5-2.429-1.37 0-2.49 1.087-2.49 2.429 0 1.341 1.12 2.429 2.49 2.429z"/>
      <path fill="#C9C6CA" d="M2871.88 753.089c-.4.144-.72.53-.68.799 4.73-1.206 9.08-.657 10.64 2.766 1.17 2.555 1.48 7.489-4.36 11.208-5.29 3.371-16.59 3.035-17.86 10.847 5.39.493 11.12-.94 13.05-1.651.01-.004.02-.009.04-.013 4.67-1.72 15.52-8.285 13.65-17.556-.75-3.71-5.23-9.735-14.48-6.4z"/>
      <path fill="#5D5360" d="M2833.2 792.843a2.38 2.38 0 00-1.12 2.667l1.18 4.628c.24.926 1 1.634 1.97 1.8 2.24.386 6.76.996 11.84.867-1.36-5.679-3.95-10.083-7.59-13.818a151.653 151.653 0 01-6.28 3.856z"/>
      <path fill="#4B3F4E" d="M2835.43 793.895c0-.696-.37-1.324-.96-1.794-.47.279-.9.529-1.27.742a2.38 2.38 0 00-1.12 2.667l.25.984c1.74-.161 3.1-1.256 3.1-2.599z"/>
    </g>
    <g>
      <path fill="#FFC88C" d="M2342.51 650.304c-1.72 0-3.32-.251-4.44-.542-11.29-2.937-13.64-15.902-15.35-25.369l-.52-2.8c-4.92-25.538-15.43-38.182-35.17-42.281-2.06-.426-3.41-2.58-3.01-4.81.39-2.232 2.38-3.697 4.44-3.264 22.9 4.756 35.6 19.769 41.17 48.676l.54 2.895c1.83 10.103 3.59 17.376 9.67 18.957 1.75.454 3.8.36 4.71.071.46-1.819 1.99-3.127 3.86-3.005 2.09.12 3.69 2.057 3.58 4.324-.1 2.048-1.01 3.868-2.56 5.125-1.9 1.537-4.53 2.023-6.92 2.023z"/>
      <path fill="#D26437" d="M2262.85 627.011c.26 11.947 6.16 52.587 6.16 52.587h-3.31c-2.65 0-5.11 1.503-6.49 3.963l-2.44 4.363c-.98 1.759.19 4.008 2.09 4.008h10.05c2.45 0 4.74-1.276 6.17-3.428l5.23-7.892c.88-1.33 1.34-2.902 1.39-4.539.43-12.81 3.96-27.367 5.81-33.474l-15.18-20.556-9.48 4.968zM2207.84 634.376h-22.76l15.96 45.222c-2.82 0-5.4 1.69-6.71 4.39l-2.11 4.339c-.8 1.637.3 3.604 2 3.604h8.59c3.05 0 5.8-1.976 6.99-5.019l3.6-9.215c.56-1.444.73-3.031.49-4.576l-6.05-38.745z"/>
      <path fill="#FFC88C" d="M2181.01 609.71v31.614c46.12-.483 74.5-9.085 87.53-14.289V609.71h-87.53z"/>
      <path fill="#EB874B" d="M2307.19 605.503v-11.476c0-10.325-6.38-19.418-15.58-22.073-.08-.021-3.87-.881-3.87-.881-24.7-5.131-70.44 4.587-82.34 4.882-15.65.387-29.19-9.412-42.06-13.66-5.72-1.885-11.8-1.99-17.66-.722l-7.48 1.619c-9.8 2.014-13.19 4.454-16.8 10.927-3.54 6.347-8.4 22.758-8.4 22.758s11.38 16.591 15.17 12.48c4.44-4.801 8.86-7.708 14.23-7.929 3.35-.137 7.42 1.481 11.03-.473 18.46 29.375-2.49 78.29-2.49 78.29h-1.09c-2.9 0-5.55 1.791-6.82 4.616l-1.95 4.329c-.7 1.565.35 3.388 1.95 3.388h9.42c1.65 0 3.29-.531 4.58-1.651 17.89-15.498 32.33-53.801 36.76-66.483.92-2.642 3.02-4.607 5.57-5.16.47-.101.97-.206 1.51-.315l15.66-2.148c12.58-.931 28.73-.19 42.83 6.573 2.5 1.199 4.69 3.08 6.26 5.505 7.27 11.239 18.24 15.188 30.9 25.908 11.22 9.508 11.63 25.438 11.63 25.438-3.27 0-6.16 2.264-7.2 5.622l-1.11 3.611c-.47 1.525.58 3.099 2.06 3.099h12.5c1.96 0 3.6-1.612 3.78-3.724l3.25-37.206a4.28 4.28 0 00-.75-2.855c-3.13-4.482-13.49-20.917-13.49-42.289z"/>
      <path fill="#D26437" d="M2144.34 557.538c-1.92 1.322-4.68 3.801-6.67 8.026-.86 1.817.31 3.989 2.19 4.094l8.5.475c1.7.095 3.04-1.582 2.68-3.391-.47-2.42-1.33-5.64-2.83-8.253-.82-1.421-2.56-1.848-3.87-.951zM2160 672.856c14.95-30.979 8.74-59.965 4.6-72.74-.99-3.052-4.49-4.209-6.83-2.201a26.503 26.503 0 01-4.34 3.04c18.46 29.376-2.49 78.291-2.49 78.291 3.83-.271 7.28-2.699 9.06-6.39z"/>
      <path fill="#FFC88C" d="M2128.17 609.357c4.44-4.801 8.86-7.708 14.23-7.928 3.35-.138 7.42 1.48 11.03-.474-.63.275-1.32.126-2.08-.294-2.86-1.574-6.69-6.95-11.56-8.166-6.16-1.542-16.36 13.475-26.79 4.382 0 0 11.38 16.591 15.17 12.48z"/>
      <path fill="#8B534F" d="M2241.33 606.628c-.42 0-.85-.078-1.27-.238-1.97-.761-3-3.112-2.3-5.252l5.06-15.416c.7-2.14 2.87-3.254 4.84-2.497 1.98.761 3.01 3.111 2.31 5.251l-5.06 15.417c-.55 1.684-2.02 2.735-3.58 2.735zM2285.28 609.541c-.42 0-.85-.076-1.26-.234-1.98-.753-3.02-3.1-2.32-5.242l5.05-15.589c.7-2.146 2.86-3.266 4.84-2.515 1.98.753 3.02 3.1 2.32 5.241l-5.06 15.589c-.54 1.692-2.01 2.75-3.57 2.75zM2203.87 606.115c-1.67 0-3.2-1.207-3.66-3.038l-2.53-10.107c-.55-2.19.64-4.448 2.67-5.044 2.02-.586 4.11.701 4.65 2.892l2.53 10.107c.55 2.19-.64 4.449-2.67 5.045-.33.097-.66.145-.99.145z"/>
      <path fill="#4B3F4E" d="M2130.07 580.932c1.05 0 1.9-.92 1.9-2.055 0-1.136-.85-2.056-1.9-2.056-1.05 0-1.9.92-1.9 2.056 0 1.135.85 2.055 1.9 2.055z"/>
      <path fill="#5D5360" d="M2119.72 599.946c0-3.406-2.55-6.166-5.69-6.166-.03 0-.05.008-.08.008-.59 1.87-.95 3.089-.95 3.089s2.44 3.538 5.42 6.942a6.41 6.41 0 001.3-3.873z"/>
      <path fill="#FFC88C" d="M2143.03 691.578h9.42c1.65 0 3.29-.531 4.58-1.651 3.32-2.876 6.52-6.543 9.57-10.682h-16.75c-2.9 0-5.55 1.792-6.82 4.616l-1.95 4.329c-.7 1.565.35 3.388 1.95 3.388zM2308.15 679.246c-3.27 0-6.17 2.264-7.2 5.622l-1.11 3.611c-.47 1.525.58 3.1 2.06 3.1h12.5c1.96 0 3.6-1.613 3.78-3.724l.75-8.609h-10.78z"/>
      <g>
        <path fill="#FFBE82" d="M2269.01 679.598h-3.31c-2.65 0-5.11 1.503-6.49 3.963l-2.44 4.362c-.98 1.76.19 4.008 2.09 4.008h10.05c2.45 0 4.74-1.276 6.17-3.427l5.22-7.893c.21-.313.32-.676.48-1.013h-11.77zM2201.04 679.598c-2.82 0-5.4 1.69-6.71 4.39l-2.11 4.339c-.8 1.637.3 3.604 2 3.604h8.59c3.05 0 5.8-1.976 6.99-5.019l2.85-7.314h-11.61z"/>
      </g>
      <path fill="#8B534F" d="M2166.72 563.534v19.797c0 2.27 1.7 4.111 3.8 4.111 2.1 0 3.79-1.841 3.79-4.111v-16.519c-2.56-1.176-5.09-2.299-7.59-3.278z"/>
      <g>
        <path fill="#734650" d="M2185.42 571.715l-14.74 53.257c-.6 2.176.53 4.468 2.54 5.121.36.118.73.174 1.09.174 1.63 0 3.14-1.15 3.63-2.931l14.72-53.143c-2.46-.691-4.87-1.535-7.24-2.478zM2219.03 600.885c.47 1.815 1.99 3.003 3.64 3.003.35 0 .69-.05 1.03-.155 2.02-.614 3.2-2.882 2.63-5.068l-6.3-24.349c-2.83.389-5.36.726-7.62 1l6.62 25.569zM2268.08 569.617l-7.84 35.54c-.48 2.21.78 4.426 2.81 4.954.3.077.6.113.89.113 1.71 0 3.27-1.269 3.68-3.156l8.23-37.335c-2.51-.114-5.11-.15-7.77-.116zM2307.21 606.364l-18.98 16.962c-1.61 1.445-1.84 4.037-.51 5.787.76.985 1.84 1.495 2.93 1.495.85 0 1.71-.307 2.42-.939l14.99-13.406c-.5-3.148-.8-6.457-.85-9.899z"/>
      </g>
      <path fill="#8B534F" d="M2311.63 630.038l-7.61 5.559c-1.73 1.268-2.19 3.823-1.02 5.707.73 1.178 1.93 1.812 3.15 1.812.73 0 1.46-.226 2.11-.703l6.56-4.792a81.678 81.678 0 01-3.19-7.583z"/>
    </g>
    <g>
      <path fill="#FFC88C" d="M3005.69 962.736c-1.15 0-2.21-.168-2.96-.362-7.51-1.962-9.07-10.622-10.21-16.945l-.34-1.871c-3.28-17.058-10.27-25.504-23.4-28.242-1.37-.284-2.27-1.723-2.01-3.212.26-1.492 1.59-2.47 2.96-2.18 15.24 3.176 23.68 13.204 27.39 32.513l.35 1.933c1.22 6.749 2.39 11.607 6.44 12.663 1.17.303 2.53.24 3.13.047.31-1.215 1.33-2.089 2.57-2.007 1.39.081 2.46 1.374 2.39 2.888-.07 1.368-.68 2.584-1.71 3.424-1.27 1.026-3.01 1.351-4.6 1.351z"/>
      <path fill="#D26437" d="M2952.69 947.177c.18 7.981 4.1 35.126 4.1 35.126h-2.2c-1.77 0-3.4 1.004-4.32 2.647l-1.62 2.914c-.66 1.175.12 2.677 1.39 2.677h6.69c1.62 0 3.15-.852 4.1-2.289l3.48-5.272c.58-.888.89-1.938.92-3.031.29-8.557 2.64-18.28 3.87-22.36l-10.1-13.73-6.31 3.318zM2916.1 952.097h-15.15l10.62 30.206c-1.87 0-3.59 1.129-4.46 2.932l-1.41 2.898c-.53 1.094.2 2.408 1.34 2.408h5.71c2.03 0 3.86-1.32 4.65-3.352l2.39-6.156a5.89 5.89 0 00.33-3.056l-4.02-25.88z"/>
      <path fill="#FFC88C" d="M2898.25 935.621v21.117c30.68-.323 49.56-6.069 58.23-9.544v-11.573h-58.23z"/>
      <path fill="#EB874B" d="M2982.19 932.811v-7.666c0-6.896-4.24-12.97-10.37-14.743-.05-.014-2.57-.589-2.57-.589-16.43-3.427-46.86 3.064-54.78 3.261-10.41.258-19.42-6.287-27.98-9.124-3.8-1.259-7.85-1.329-11.75-.483l-4.98 1.082c-6.51 1.345-8.77 2.975-11.17 7.299-2.36 4.24-5.59 15.201-5.59 15.201s7.57 11.082 10.1 8.336c2.94-3.207 5.88-5.149 9.46-5.296 2.23-.092 4.94.989 7.34-.316 12.28 19.621-1.66 52.294-1.66 52.294h-.72c-1.93 0-3.69 1.197-4.54 3.083l-1.3 2.892c-.47 1.045.23 2.263 1.3 2.263h6.27c1.1 0 2.19-.355 3.04-1.103 11.91-10.352 21.51-35.936 24.46-44.408.61-1.764 2-3.076 3.7-3.446.31-.068.65-.138 1.01-.21l10.42-1.435c8.36-.622 19.11-.127 28.49 4.39a10.23 10.23 0 014.16 3.677c4.84 7.507 12.14 10.145 20.56 17.306 7.46 6.35 7.74 16.991 7.74 16.991-2.17 0-4.1 1.513-4.79 3.755l-.74 2.412c-.31 1.019.38 2.071 1.37 2.071h8.32c1.3 0 2.39-1.078 2.51-2.488l2.16-24.852a2.894 2.894 0 00-.49-1.907c-2.09-2.994-8.98-13.972-8.98-28.247z"/>
      <path fill="#D26437" d="M2873.85 900.773c-1.28.882-3.11 2.539-4.44 5.361-.57 1.213.21 2.664 1.46 2.734l5.65.317c1.14.064 2.02-1.056 1.79-2.265-.32-1.616-.89-3.767-1.89-5.512-.55-.95-1.7-1.235-2.57-.635zM2884.27 977.8c9.94-20.693 5.81-40.055 3.05-48.588-.65-2.038-2.98-2.811-4.54-1.47-.85.739-1.83 1.445-2.89 2.031 12.28 19.622-1.65 52.295-1.65 52.295 2.55-.181 4.84-1.803 6.03-4.268z"/>
      <path fill="#FFC88C" d="M2863.1 935.385c2.94-3.207 5.88-5.149 9.46-5.296 2.23-.091 4.94.989 7.34-.316-.42.184-.88.084-1.39-.196-1.9-1.052-4.45-4.642-7.69-5.455-4.1-1.03-10.88 9.001-17.82 2.927 0 0 7.57 11.082 10.1 8.336z"/>
      <path fill="#8B534F" d="M2938.38 933.563c-.29 0-.57-.053-.85-.16-1.31-.508-2-2.078-1.53-3.507l3.36-10.298c.47-1.429 1.91-2.173 3.23-1.668 1.31.508 1.99 2.079 1.53 3.508l-3.37 10.297c-.36 1.125-1.34 1.828-2.37 1.828zM2967.61 935.508c-.28 0-.56-.051-.84-.157-1.31-.502-2.01-2.07-1.54-3.5l3.36-10.413c.46-1.434 1.9-2.182 3.22-1.68 1.31.503 2.01 2.07 1.54 3.501l-3.36 10.412c-.37 1.131-1.34 1.837-2.38 1.837zM2913.45 933.219c-1.11 0-2.13-.806-2.43-2.028l-1.69-6.751c-.36-1.463.43-2.972 1.78-3.37 1.35-.391 2.73.468 3.09 1.932l1.69 6.751c.36 1.463-.43 2.972-1.78 3.37-.22.064-.44.096-.66.096z"/>
      <path fill="#4B3F4E" d="M2864.36 916.398c.69 0 1.26-.614 1.26-1.372 0-.759-.57-1.373-1.26-1.373-.7 0-1.26.614-1.26 1.373 0 .758.56 1.372 1.26 1.372z"/>
      <path fill="#5D5360" d="M2857.47 929.099c0-2.275-1.7-4.119-3.79-4.119-.01 0-.03.006-.05.006-.39 1.249-.63 2.063-.63 2.063s1.62 2.363 3.61 4.637c.53-.709.86-1.601.86-2.587z"/>
      <path fill="#FFC88C" d="M2872.98 990.305h6.27c1.1 0 2.19-.355 3.05-1.103 2.2-1.921 4.33-4.371 6.36-7.135h-11.15c-1.92 0-3.68 1.197-4.53 3.083l-1.3 2.892c-.47 1.046.23 2.263 1.3 2.263zM2982.83 982.068c-2.17 0-4.1 1.512-4.79 3.755l-.74 2.412c-.31 1.019.38 2.071 1.37 2.071h8.32c1.3 0 2.39-1.078 2.51-2.488l.5-5.75h-7.17z"/>
      <g>
        <path fill="#FFBE82" d="M2956.79 982.303h-2.2c-1.77 0-3.4 1.004-4.32 2.647l-1.62 2.914c-.66 1.175.12 2.677 1.39 2.677h6.69c1.62 0 3.15-.852 4.1-2.289l3.47-5.272c.14-.209.21-.452.32-.677h-7.83zM2911.57 982.303c-1.87 0-3.59 1.129-4.47 2.932l-1.4 2.898c-.53 1.094.2 2.408 1.34 2.408h5.71c2.03 0 3.86-1.32 4.65-3.352l1.9-4.886h-7.73z"/>
      </g>
      <path fill="#8B534F" d="M2888.74 904.778v13.223c0 1.517 1.13 2.746 2.52 2.746 1.4 0 2.53-1.229 2.53-2.746v-11.034c-1.71-.785-3.39-1.536-5.05-2.189z"/>
      <g>
        <path fill="#734650" d="M2901.18 910.242l-9.81 35.573c-.4 1.454.36 2.985 1.69 3.421.25.079.49.116.73.116 1.08 0 2.09-.768 2.42-1.957l9.78-35.498a48.13 48.13 0 01-4.81-1.655zM2923.54 929.727c.31 1.212 1.32 2.005 2.42 2.005.23 0 .46-.033.69-.103 1.34-.41 2.12-1.925 1.75-3.386l-4.2-16.264c-1.88.26-3.56.485-5.07.669l4.41 17.079zM2956.17 908.841l-5.21 23.739c-.32 1.476.51 2.956 1.87 3.309.19.051.39.075.59.075 1.14 0 2.17-.847 2.45-2.108l5.47-24.938c-1.67-.076-3.4-.1-5.17-.077zM2982.2 933.386l-12.62 11.33c-1.08.965-1.23 2.696-.34 3.865.5.658 1.22.999 1.95.999.56 0 1.13-.205 1.6-.627l9.98-8.955a46.542 46.542 0 01-.57-6.612z"/>
      </g>
      <path fill="#8B534F" d="M2985.14 949.199l-5.06 3.713c-1.15.847-1.46 2.554-.68 3.812.49.787 1.28 1.211 2.09 1.211.49 0 .98-.152 1.41-.47l4.37-3.201a53.696 53.696 0 01-2.13-5.065z"/>
    </g>
    <path fill="#0C07F4" d="M992 1186h116v117H992z"/>
    <path fill="#1AF407" d="M1359 646h116v117h-116z"/>
    <path fill="#0C07F4" d="M1703 1179h116v117h-116z"/>
    <path fill="#1AF407" d="M2027 635h116v117h-116z"/>
    <g>
      <path stroke="#000" d="M0 175.5h3898"/>
      <path fill="#C4C4C4" d="M10 9h157v157H10z"/>
      <path stroke="#000" d="M10.349 12.979l157 152.663M9.646 165.646l157-157"/>
      <path fill="#000" d="M281.633 86.117c0 10.031-1.688 18.797-5.063 26.297-3.375 7.453-8.156 13.148-14.343 17.086-6.188 3.938-13.407 5.906-21.657 5.906-8.062 0-15.211-1.968-21.445-5.906-6.234-3.984-11.086-9.633-14.555-16.945-3.422-7.36-5.179-15.868-5.273-25.524v-7.383c0-9.843 1.711-18.539 5.133-26.085 3.422-7.547 8.25-13.313 14.484-17.297 6.281-4.032 13.453-6.047 21.516-6.047 8.203 0 15.422 1.992 21.656 5.976 6.281 3.938 11.109 9.68 14.484 17.227 3.375 7.5 5.063 16.242 5.063 26.226v6.47zm-13.43-6.61c0-12.14-2.437-21.445-7.312-27.913-4.875-6.516-11.696-9.774-20.461-9.774-8.532 0-15.258 3.258-20.18 9.774-4.875 6.468-7.383 15.468-7.523 27v7.523c0 11.766 2.461 21.024 7.382 27.774 4.969 6.703 11.789 10.054 20.461 10.054 8.719 0 15.469-3.164 20.25-9.492 4.782-6.375 7.242-15.492 7.383-27.351v-7.594zm99 36.563l14.625-58.148h13.008L372.688 134h-10.547l-18.493-57.656-18 57.656h-10.546l-22.079-76.078h12.938l14.977 56.953 17.718-56.953h10.477l18.07 58.148zM422.258 134H409.25V26h13.008v108zm96.187-41.414h-24.047V134h-13.57V31.625h33.891c11.531 0 20.39 2.625 26.578 7.875 6.234 5.25 9.351 12.89 9.351 22.922 0 6.375-1.734 11.93-5.203 16.664-3.422 4.734-8.203 8.273-14.343 10.617l24.046 43.453V134h-14.484l-22.219-41.414zm-24.047-11.04h20.743c6.703 0 12.023-1.734 15.961-5.202 3.984-3.469 5.976-8.11 5.976-13.922 0-6.328-1.898-11.18-5.695-14.555-3.75-3.375-9.188-5.086-16.313-5.133h-20.672v38.813zm120.164 44.931c-5.062 5.953-12.492 8.929-22.289 8.929-8.109 0-14.296-2.344-18.562-7.031-4.219-4.734-6.352-11.719-6.399-20.953v-49.5h13.008v49.148c0 11.532 4.688 17.297 14.063 17.297 9.937 0 16.547-3.703 19.828-11.109V57.922h13.008V134h-12.375l-.282-7.523zm76.782-12.657c0-3.515-1.336-6.234-4.008-8.156-2.625-1.969-7.242-3.656-13.852-5.062-6.562-1.407-11.789-3.094-15.679-5.063-3.844-1.969-6.703-4.312-8.578-7.031-1.829-2.719-2.743-5.953-2.743-9.703 0-6.235 2.625-11.508 7.875-15.82 5.297-4.313 12.047-6.47 20.25-6.47 8.625 0 15.61 2.227 20.953 6.68 5.391 4.453 8.086 10.149 8.086 17.086H690.57c0-3.562-1.523-6.633-4.57-9.21-3-2.579-6.797-3.868-11.391-3.868-4.734 0-8.437 1.031-11.109 3.094-2.672 2.062-4.008 4.758-4.008 8.086 0 3.14 1.242 5.508 3.727 7.101 2.484 1.594 6.961 3.118 13.429 4.57 6.516 1.454 11.79 3.188 15.821 5.204 4.031 2.015 7.008 4.453 8.929 7.312 1.969 2.813 2.954 6.258 2.954 10.336 0 6.797-2.719 12.258-8.157 16.383-5.437 4.078-12.492 6.117-21.164 6.117-6.093 0-11.484-1.078-16.172-3.234-4.687-2.156-8.367-5.156-11.039-9-2.625-3.891-3.937-8.086-3.937-12.586h13.008c.234 4.359 1.968 7.828 5.203 10.406 3.281 2.531 7.594 3.797 12.937 3.797 4.922 0 8.86-.984 11.813-2.953 3-2.016 4.5-4.688 4.5-8.016zm42.961-46.687c5.765-7.078 13.265-10.617 22.5-10.617 16.078 0 24.187 9.07 24.328 27.21V134h-13.008V83.656c-.047-5.484-1.313-9.539-3.797-12.164-2.437-2.625-6.258-3.937-11.461-3.937-4.219 0-7.922 1.125-11.109 3.375-3.188 2.25-5.672 5.203-7.453 8.86V134h-13.008V26h13.008v41.133zm80.859 37.969h-11.742l-.914-73.477h13.64l-.984 73.477zm-13.148 22.359c0-2.109.632-3.867 1.898-5.273 1.313-1.454 3.234-2.18 5.766-2.18 2.531 0 4.453.726 5.765 2.18 1.313 1.406 1.969 3.164 1.969 5.273 0 2.109-.656 3.867-1.969 5.273-1.312 1.36-3.234 2.039-5.765 2.039-2.532 0-4.453-.679-5.766-2.039-1.266-1.406-1.898-3.164-1.898-5.273z"/>
    </g>
    <path fill="#CBBB29" d="M3034 6h778v141h-778z"/>
    <path fill="#000" d="M3181.48 105h-8.44V41.016h8.44V105zm21.88-47.549l.27 5.977c3.63-4.57 8.38-6.856 14.24-6.856 10.05 0 15.11 5.67 15.2 17.007V105h-8.13V73.535c-.03-3.428-.82-5.962-2.37-7.602-1.53-1.641-3.91-2.461-7.16-2.461-2.64 0-4.96.703-6.95 2.11-1.99 1.405-3.54 3.251-4.66 5.536V105h-8.13V57.451h7.69zm69.66 34.937c0-2.198-.84-3.897-2.51-5.098-1.64-1.23-4.52-2.285-8.65-3.164-4.11-.879-7.37-1.934-9.8-3.164-2.41-1.23-4.19-2.695-5.37-4.395-1.14-1.699-1.71-3.72-1.71-6.064 0-3.897 1.64-7.193 4.92-9.888 3.31-2.695 7.53-4.043 12.66-4.043 5.39 0 9.75 1.392 13.09 4.175 3.37 2.783 5.06 6.343 5.06 10.679h-8.18c0-2.227-.95-4.146-2.85-5.757-1.88-1.611-4.25-2.417-7.12-2.417-2.96 0-5.27.645-6.94 1.934-1.67 1.289-2.51 2.973-2.51 5.053 0 1.963.78 3.443 2.33 4.439s4.35 1.948 8.39 2.856c4.08.908 7.37 1.992 9.89 3.252 2.52 1.26 4.38 2.783 5.58 4.57 1.23 1.758 1.85 3.912 1.85 6.46 0 4.248-1.7 7.662-5.1 10.24-3.4 2.548-7.81 3.823-13.23 3.823-3.81 0-7.18-.674-10.11-2.022-2.92-1.347-5.22-3.222-6.89-5.625-1.65-2.431-2.47-5.053-2.47-7.866h8.13c.15 2.725 1.23 4.893 3.26 6.504 2.05 1.582 4.74 2.373 8.08 2.373 3.08 0 5.54-.615 7.39-1.846 1.87-1.26 2.81-2.93 2.81-5.01zm29.75-46.45V57.45h8.88v6.284h-8.88v29.488c0 1.904.39 3.34 1.19 4.306.79.938 2.13 1.407 4.04 1.407.94 0 2.22-.176 3.87-.528V105c-2.14.586-4.22.879-6.25.879-3.63 0-6.37-1.099-8.21-3.296-1.85-2.197-2.77-5.317-2.77-9.36V63.735h-8.66v-6.284h8.66V45.937h8.13zm41.4 18.808a24.505 24.505 0 00-4-.307c-5.34 0-8.95 2.27-10.86 6.811V105h-8.13V57.451h7.91l.13 5.493c2.67-4.248 6.45-6.372 11.34-6.372 1.58 0 2.78.205 3.61.615v7.56zm36.87 35.552c-3.17 3.721-7.81 5.581-13.94 5.581-5.06 0-8.93-1.465-11.6-4.395-2.63-2.959-3.97-7.324-4-13.095V57.45h8.13V88.17c0 7.207 2.93 10.81 8.79 10.81 6.21 0 10.34-2.314 12.4-6.943V57.451h8.13V105h-7.74l-.17-4.702zm39.37-1.055c2.9 0 5.43-.879 7.6-2.637 2.17-1.757 3.37-3.955 3.61-6.591h7.69c-.15 2.724-1.09 5.317-2.82 7.778-1.72 2.461-4.04 4.424-6.94 5.889a19.85 19.85 0 01-9.14 2.197c-6.47 0-11.63-2.153-15.47-6.46-3.81-4.336-5.71-10.254-5.71-17.754v-1.362c0-4.63.85-8.745 2.55-12.349 1.7-3.603 4.13-6.401 7.29-8.393 3.2-1.993 6.96-2.989 11.3-2.989 5.33 0 9.75 1.597 13.27 4.79 3.54 3.194 5.43 7.34 5.67 12.437h-7.69c-.24-3.076-1.41-5.596-3.52-7.559-2.08-1.992-4.66-2.988-7.73-2.988-4.13 0-7.34 1.494-9.63 4.482-2.25 2.96-3.38 7.251-3.38 12.876v1.538c0 5.479 1.13 9.698 3.38 12.657 2.26 2.959 5.48 4.438 9.67 4.438zm47.11 0c2.9 0 5.43-.879 7.6-2.637 2.17-1.757 3.37-3.955 3.61-6.591h7.69c-.15 2.724-1.09 5.317-2.82 7.778-1.72 2.461-4.04 4.424-6.94 5.889a19.85 19.85 0 01-9.14 2.197c-6.48 0-11.63-2.153-15.47-6.46-3.81-4.336-5.71-10.254-5.71-17.754v-1.362c0-4.63.85-8.745 2.55-12.349 1.7-3.603 4.13-6.401 7.29-8.393 3.2-1.993 6.96-2.989 11.3-2.989 5.33 0 9.75 1.597 13.27 4.79 3.54 3.194 5.43 7.34 5.67 12.437h-7.69c-.24-3.076-1.41-5.596-3.52-7.559-2.08-1.992-4.66-2.988-7.73-2.988-4.14 0-7.34 1.494-9.63 4.482-2.25 2.96-3.38 7.251-3.38 12.876v1.538c0 5.479 1.13 9.698 3.38 12.657 2.26 2.959 5.48 4.438 9.67 4.438zm36.87 5.757h-8.13V57.451h8.13V105zm-8.79-60.161c0-1.319.4-2.432 1.19-3.34.82-.908 2.02-1.362 3.6-1.362s2.78.454 3.6 1.362c.82.908 1.23 2.021 1.23 3.34 0 1.318-.41 2.417-1.23 3.296-.82.879-2.02 1.318-3.6 1.318s-2.78-.44-3.6-1.318c-.79-.88-1.19-1.978-1.19-3.296zm19.69 35.947c0-4.658.91-8.847 2.72-12.568 1.85-3.72 4.4-6.592 7.65-8.614 3.28-2.021 7.02-3.032 11.21-3.032 6.47 0 11.7 2.241 15.68 6.724 4.02 4.482 6.02 10.444 6.02 17.886v.57c0 4.63-.89 8.79-2.68 12.481-1.75 3.662-4.29 6.519-7.6 8.57-3.28 2.051-7.06 3.076-11.34 3.076-6.44 0-11.67-2.241-15.69-6.724-3.98-4.482-5.97-10.415-5.97-17.798v-.57zm8.17.967c0 5.273 1.22 9.507 3.65 12.7 2.46 3.194 5.74 4.79 9.84 4.79 4.13 0 7.42-1.611 9.85-4.834 2.43-3.252 3.64-7.793 3.64-13.623 0-5.215-1.24-9.433-3.73-12.656-2.46-3.252-5.74-4.878-9.84-4.878-4.02 0-7.26 1.597-9.72 4.79-2.46 3.193-3.69 7.764-3.69 13.71zm53-24.302l.26 5.977c3.64-4.57 8.38-6.856 14.24-6.856 10.05 0 15.12 5.67 15.21 17.007V105h-8.13V73.535c-.03-3.428-.82-5.962-2.38-7.602-1.52-1.641-3.91-2.461-7.16-2.461-2.64 0-4.95.703-6.94 2.11-1.99 1.405-3.55 3.251-4.66 5.536V105h-8.13V57.451h7.69zm61.7 48.428c-6.45 0-11.69-2.109-15.73-6.328-4.05-4.248-6.07-9.917-6.07-17.007V81.05c0-4.717.9-8.921 2.68-12.612 1.82-3.721 4.34-6.622 7.56-8.702 3.25-2.109 6.77-3.164 10.55-3.164 6.18 0 10.98 2.036 14.41 6.109 3.43 4.072 5.14 9.902 5.14 17.49v3.384h-32.21c.12 4.687 1.48 8.481 4.09 11.381 2.64 2.872 5.98 4.307 10.02 4.307 2.87 0 5.3-.586 7.29-1.758 2-1.171 3.74-2.724 5.23-4.658l4.97 3.867c-3.99 6.123-9.96 9.185-17.93 9.185zm-1.01-42.627c-3.28 0-6.04 1.201-8.26 3.604-2.23 2.373-3.61 5.712-4.13 10.019h23.81v-.615c-.23-4.131-1.34-7.325-3.34-9.58-1.99-2.286-4.68-3.428-8.08-3.428zm56.69 29.136c0-2.198-.84-3.897-2.51-5.098-1.64-1.23-4.52-2.285-8.65-3.164-4.11-.879-7.37-1.934-9.8-3.164-2.41-1.23-4.19-2.695-5.37-4.395-1.14-1.699-1.71-3.72-1.71-6.064 0-3.897 1.64-7.193 4.92-9.888 3.31-2.695 7.53-4.043 12.66-4.043 5.39 0 9.75 1.392 13.09 4.175 3.37 2.783 5.06 6.343 5.06 10.679h-8.18c0-2.227-.95-4.146-2.85-5.757-1.88-1.611-4.25-2.417-7.12-2.417-2.96 0-5.27.645-6.94 1.934-1.67 1.289-2.51 2.973-2.51 5.053 0 1.963.78 3.443 2.33 4.439s4.35 1.948 8.39 2.856c4.08.908 7.37 1.992 9.89 3.252 2.52 1.26 4.38 2.783 5.58 4.57 1.23 1.758 1.85 3.912 1.85 6.46 0 4.248-1.7 7.662-5.1 10.24-3.4 2.548-7.81 3.823-13.23 3.823-3.81 0-7.18-.674-10.1-2.022-2.93-1.347-5.23-3.222-6.9-5.625-1.64-2.431-2.47-5.053-2.47-7.866h8.13c.15 2.725 1.24 4.893 3.26 6.504 2.05 1.582 4.74 2.373 8.08 2.373 3.08 0 5.54-.615 7.39-1.846 1.87-1.26 2.81-2.93 2.81-5.01z"/>
    <path fill="#F85959" d="M38 2028h843v165H38z"/>
    <path fill="#000" d="M156.473 2122.6h-29.834v31.4h-9.375v-71.09h44.043v7.71h-34.668v24.32h29.834v7.66zm24.463 31.4h-9.034v-52.83h9.034V2154zm-9.766-66.85c0-1.46.439-2.7 1.318-3.71.912-1.01 2.246-1.51 4.004-1.51 1.758 0 3.093.5 4.004 1.51.912 1.01 1.367 2.25 1.367 3.71 0 1.47-.455 2.69-1.367 3.67-.911.97-2.246 1.46-4.004 1.46-1.758 0-3.092-.49-4.004-1.46-.879-.98-1.318-2.2-1.318-3.67zm32.812 14.02l.293 6.64c4.037-5.08 9.31-7.62 15.821-7.62 11.165 0 16.797 6.3 16.894 18.9V2154h-9.033v-34.96c-.033-3.81-.911-6.63-2.637-8.45-1.692-1.82-4.345-2.73-7.959-2.73-2.929 0-5.501.78-7.715 2.34-2.213 1.56-3.938 3.61-5.175 6.15V2154h-9.033v-52.83h8.544zM283.23 2154c-.52-1.04-.944-2.9-1.269-5.57-4.199 4.37-9.212 6.55-15.039 6.55-5.208 0-9.489-1.47-12.842-4.4-3.32-2.96-4.98-6.7-4.98-11.23 0-5.5 2.083-9.76 6.25-12.79 4.199-3.06 10.091-4.59 17.675-4.59h8.789v-4.15c0-3.16-.944-5.67-2.832-7.52-1.888-1.89-4.671-2.83-8.349-2.83-3.223 0-5.925.81-8.106 2.44s-3.271 3.6-3.271 5.91h-9.082c0-2.64.928-5.18 2.783-7.62 1.888-2.47 4.427-4.43 7.617-5.86 3.223-1.43 6.755-2.15 10.596-2.15 6.087 0 10.856 1.53 14.307 4.59 3.45 3.03 5.24 7.21 5.371 12.55v24.32c0 4.85.618 8.7 1.855 11.57v.78h-9.473zm-14.99-6.88c2.832 0 5.518-.74 8.057-2.2 2.539-1.47 4.378-3.37 5.517-5.71v-10.84h-7.08c-11.067 0-16.601 3.23-16.601 9.71 0 2.83.944 5.05 2.832 6.64 1.888 1.6 4.313 2.4 7.275 2.4zm46.582 6.88h-9.033v-75h9.033v75zm24.317 0h-9.034v-52.83h9.034V2154zm-9.766-66.85c0-1.46.439-2.7 1.318-3.71.912-1.01 2.247-1.51 4.004-1.51 1.758 0 3.093.5 4.004 1.51.912 1.01 1.367 2.25 1.367 3.71 0 1.47-.455 2.69-1.367 3.67-.911.97-2.246 1.46-4.004 1.46-1.757 0-3.092-.49-4.004-1.46-.879-.98-1.318-2.2-1.318-3.67zm32.764 59.48h30.908v7.37h-41.943v-6.64l29.15-38.72h-28.711v-7.47h40.039v6.39l-29.443 39.07zm73.73 7.37c-.521-1.04-.944-2.9-1.269-5.57-4.2 4.37-9.213 6.55-15.039 6.55-5.209 0-9.489-1.47-12.842-4.4-3.321-2.96-4.981-6.7-4.981-11.23 0-5.5 2.084-9.76 6.25-12.79 4.2-3.06 10.091-4.59 17.676-4.59h8.789v-4.15c0-3.16-.944-5.67-2.832-7.52-1.888-1.89-4.671-2.83-8.349-2.83-3.223 0-5.925.81-8.106 2.44s-3.271 3.6-3.271 5.91h-9.082c0-2.64.927-5.18 2.783-7.62 1.888-2.47 4.427-4.43 7.617-5.86 3.223-1.43 6.754-2.15 10.596-2.15 6.087 0 10.856 1.53 14.306 4.59 3.451 3.03 5.241 7.21 5.371 12.55v24.32c0 4.85.619 8.7 1.856 11.57v.78h-9.473zm-14.99-6.88c2.832 0 5.518-.74 8.057-2.2 2.539-1.47 4.378-3.37 5.517-5.71v-10.84h-7.08c-11.068 0-16.601 3.23-16.601 9.71 0 2.83.944 5.05 2.832 6.64 1.888 1.6 4.313 2.4 7.275 2.4zm62.305-37.85a27.987 27.987 0 00-4.444-.34c-5.924 0-9.944 2.52-12.06 7.57v37.5h-9.033v-52.83h8.789l.146 6.1c2.962-4.72 7.162-7.08 12.598-7.08 1.758 0 3.092.23 4.004.69v8.39zm55.517 13.04c-8.04-2.31-13.9-5.14-17.578-8.5-3.646-3.38-5.469-7.55-5.469-12.5 0-5.59 2.23-10.22 6.69-13.86 4.492-3.68 10.319-5.52 17.48-5.52 4.883 0 9.229.94 13.037 2.83 3.842 1.89 6.804 4.49 8.887 7.81 2.116 3.32 3.174 6.95 3.174 10.89h-9.424c0-4.29-1.367-7.66-4.101-10.1-2.735-2.48-6.592-3.72-11.573-3.72-4.622 0-8.235 1.03-10.84 3.08-2.571 2.02-3.857 4.83-3.857 8.45 0 2.9 1.221 5.35 3.662 7.37 2.474 1.99 6.657 3.81 12.549 5.47 5.924 1.66 10.547 3.5 13.867 5.52 3.353 1.98 5.827 4.31 7.422 6.98 1.628 2.67 2.441 5.81 2.441 9.42 0 5.77-2.246 10.39-6.738 13.87-4.492 3.45-10.498 5.18-18.017 5.18-4.883 0-9.441-.93-13.672-2.79-4.232-1.88-7.504-4.46-9.815-7.71-2.278-3.26-3.418-6.95-3.418-11.09h9.424c0 4.3 1.579 7.7 4.736 10.21 3.191 2.47 7.439 3.71 12.745 3.71 4.947 0 8.74-1.01 11.377-3.03 2.636-2.02 3.955-4.77 3.955-8.25 0-3.48-1.221-6.17-3.663-8.06-2.441-1.92-6.868-3.8-13.281-5.66zm58.936 32.67c-7.162 0-12.989-2.35-17.481-7.03-4.492-4.72-6.738-11.02-6.738-18.9v-1.66c0-5.24.993-9.91 2.979-14.01 2.018-4.14 4.817-7.36 8.398-9.67 3.613-2.35 7.519-3.52 11.719-3.52 6.868 0 12.207 2.26 16.015 6.79 3.809 4.52 5.713 11 5.713 19.43v3.76h-35.791c.13 5.21 1.644 9.43 4.541 12.65 2.93 3.19 6.641 4.78 11.133 4.78 3.19 0 5.892-.65 8.106-1.95 2.213-1.3 4.15-3.03 5.81-5.18l5.518 4.3c-4.427 6.8-11.068 10.21-19.922 10.21zm-1.123-47.37c-3.646 0-6.706 1.34-9.18 4.01-2.474 2.63-4.004 6.34-4.59 11.13h26.465v-.68c-.26-4.59-1.497-8.14-3.711-10.65-2.213-2.54-5.208-3.81-8.984-3.81zm62.988 32.38c0-2.45-.928-4.33-2.783-5.67-1.823-1.36-5.029-2.54-9.619-3.51-4.558-.98-8.187-2.15-10.889-3.52-2.669-1.37-4.655-2.99-5.957-4.88-1.27-1.89-1.904-4.14-1.904-6.74 0-4.33 1.823-7.99 5.468-10.99 3.679-2.99 8.366-4.49 14.063-4.49 5.989 0 10.84 1.55 14.551 4.64 3.743 3.09 5.615 7.05 5.615 11.87h-9.082c0-2.48-1.058-4.61-3.174-6.4-2.083-1.79-4.72-2.69-7.91-2.69-3.288 0-5.859.72-7.715 2.15-1.855 1.43-2.783 3.31-2.783 5.62 0 2.18.862 3.82 2.588 4.93 1.725 1.11 4.834 2.16 9.326 3.17 4.525 1.01 8.187 2.22 10.986 3.62 2.8 1.4 4.867 3.09 6.201 5.07 1.368 1.96 2.051 4.35 2.051 7.18 0 4.72-1.888 8.51-5.664 11.38-3.776 2.83-8.675 4.25-14.697 4.25-4.232 0-7.975-.75-11.231-2.25-3.255-1.5-5.81-3.58-7.666-6.25-1.823-2.7-2.734-5.61-2.734-8.74h9.033c.163 3.03 1.367 5.44 3.614 7.23 2.278 1.75 5.273 2.63 8.984 2.63 3.418 0 6.152-.68 8.203-2.05 2.083-1.4 3.125-3.25 3.125-5.56zm30.615 14.01h-9.033v-52.83h9.033V2154zm-9.765-66.85c0-1.46.439-2.7 1.318-3.71.911-1.01 2.246-1.51 4.004-1.51 1.758 0 3.092.5 4.004 1.51.911 1.01 1.367 2.25 1.367 3.71 0 1.47-.456 2.69-1.367 3.67-.912.97-2.246 1.46-4.004 1.46-1.758 0-3.093-.49-4.004-1.46-.879-.98-1.318-2.2-1.318-3.67zm21.875 39.95c0-5.18 1.009-9.84 3.027-13.97 2.051-4.13 4.883-7.32 8.496-9.57 3.646-2.25 7.796-3.37 12.451-3.37 7.194 0 13.005 2.49 17.432 7.47 4.459 4.98 6.689 11.61 6.689 19.88v.63c0 5.14-.993 9.77-2.978 13.87-1.953 4.07-4.769 7.24-8.447 9.52-3.646 2.28-7.846 3.42-12.598 3.42-7.162 0-12.972-2.49-17.432-7.47-4.427-4.98-6.64-11.58-6.64-19.78v-.63zm9.082 1.07c0 5.86 1.351 10.56 4.052 14.11 2.735 3.55 6.381 5.32 10.938 5.32 4.59 0 8.236-1.79 10.937-5.37 2.702-3.61 4.053-8.66 4.053-15.13 0-5.8-1.383-10.49-4.15-14.07-2.735-3.61-6.38-5.42-10.938-5.42-4.459 0-8.056 1.78-10.791 5.33-2.734 3.54-4.101 8.62-4.101 15.23zm18.994-49.17h10.937l-13.086 14.36h-7.275l9.424-14.36zm39.892 22.17l.293 6.64c4.037-5.08 9.31-7.62 15.821-7.62 11.165 0 16.797 6.3 16.894 18.9V2154h-9.033v-34.96c-.033-3.81-.911-6.63-2.637-8.45-1.692-1.82-4.345-2.73-7.959-2.73-2.929 0-5.501.78-7.715 2.34-2.213 1.56-3.938 3.61-5.175 6.15V2154h-9.034v-52.83h8.545z"/>
    <path fill="#F85959" d="M928 2028h833v165H928z"/>
    <path fill="#000" d="M983.855 2120.66l15.235-43.98h7.69L987.005 2130h-6.226l-19.738-53.32h7.653l15.161 43.98zm25.565-10.84c0-3.88.75-7.37 2.27-10.47 1.54-3.1 3.66-5.5 6.37-7.18 2.73-1.68 5.85-2.53 9.34-2.53 5.39 0 9.75 1.87 13.07 5.61 3.35 3.73 5.02 8.7 5.02 14.9v.48c0 3.85-.75 7.32-2.24 10.4-1.46 3.05-3.57 5.43-6.33 7.14-2.73 1.71-5.88 2.56-9.45 2.56-5.37 0-9.73-1.87-13.07-5.6-3.32-3.74-4.98-8.68-4.98-14.83v-.48zm6.81.81c0 4.39 1.01 7.92 3.04 10.58 2.05 2.66 4.78 3.99 8.2 3.99 3.44 0 6.18-1.34 8.2-4.03 2.03-2.71 3.04-6.49 3.04-11.35 0-4.34-1.03-7.86-3.11-10.55-2.05-2.71-4.78-4.06-8.2-4.06-3.35 0-6.04 1.33-8.1 3.99-2.05 2.66-3.07 6.47-3.07 11.43zm45.12 19.37h-6.78v-56.25h6.78V2130zm23.95-9.19l9.81-30.43h6.92l-14.21 39.62h-5.16l-14.36-39.62h6.93l10.07 30.43zm39.18 9.92c-5.37 0-9.74-1.76-13.11-5.27-3.37-3.54-5.05-8.27-5.05-14.17v-1.25c0-3.93.74-7.43 2.23-10.51 1.51-3.1 3.61-5.52 6.3-7.25 2.71-1.76 5.64-2.64 8.79-2.64 5.15 0 9.15 1.7 12.01 5.09 2.86 3.4 4.28 8.26 4.28 14.58v2.82h-26.84c.1 3.91 1.23 7.07 3.41 9.48 2.19 2.4 4.98 3.59 8.35 3.59 2.39 0 4.42-.49 6.08-1.46 1.66-.98 3.11-2.27 4.35-3.88l4.14 3.22c-3.32 5.1-8.3 7.65-14.94 7.65zm-.84-35.52c-2.74 0-5.03 1-6.89 3-1.85 1.98-3 4.76-3.44 8.35h19.85v-.51c-.2-3.44-1.12-6.1-2.78-7.98-1.66-1.91-3.91-2.86-6.74-2.86zm43.32 1.25c-1.02-.18-2.14-.26-3.33-.26-4.44 0-7.46 1.89-9.05 5.68V2130h-6.77v-39.62h6.59l.11 4.57c2.22-3.54 5.37-5.31 9.45-5.31 1.32 0 2.32.17 3 .52v6.3zm49.33 33.54c-.39-.78-.71-2.17-.95-4.17-3.15 3.27-6.91 4.9-11.28 4.9-3.91 0-7.12-1.1-9.63-3.29-2.49-2.23-3.74-5.03-3.74-8.43 0-4.12 1.56-7.32 4.69-9.59 3.15-2.3 7.57-3.44 13.26-3.44h6.59v-3.12c0-2.36-.71-4.24-2.13-5.64-1.41-1.41-3.5-2.12-6.26-2.12-2.42 0-4.44.61-6.08 1.83-1.63 1.22-2.45 2.7-2.45 4.43h-6.81c0-1.98.69-3.88 2.08-5.71 1.42-1.86 3.32-3.32 5.72-4.4 2.41-1.07 5.06-1.61 7.94-1.61 4.57 0 8.15 1.15 10.73 3.45 2.59 2.27 3.93 5.4 4.03 9.41v18.23c0 3.64.47 6.54 1.39 8.68v.59h-7.1zm-11.24-5.16c2.12 0 4.14-.55 6.04-1.65 1.9-1.1 3.28-2.53 4.14-4.29v-8.13h-5.31c-8.3 0-12.45 2.43-12.45 7.29 0 2.13.7 3.79 2.12 4.98 1.42 1.2 3.24 1.8 5.46 1.8zm69.25-5.35c0-1.83-.7-3.25-2.09-4.25-1.37-1.02-3.77-1.9-7.21-2.64-3.42-.73-6.14-1.61-8.17-2.63-2-1.03-3.49-2.25-4.47-3.66-.95-1.42-1.43-3.1-1.43-5.06 0-3.24 1.37-5.99 4.1-8.24 2.76-2.24 6.28-3.37 10.55-3.37 4.49 0 8.13 1.16 10.91 3.48 2.81 2.32 4.22 5.29 4.22 8.9h-6.82c0-1.85-.79-3.45-2.38-4.8-1.56-1.34-3.54-2.01-5.93-2.01-2.46 0-4.39.54-5.78 1.61-1.4 1.08-2.09 2.48-2.09 4.21 0 1.64.64 2.87 1.94 3.7 1.29.83 3.62 1.62 6.99 2.38 3.4.76 6.14 1.66 8.24 2.71 2.1 1.05 3.65 2.32 4.65 3.81 1.03 1.47 1.54 3.26 1.54 5.38 0 3.54-1.41 6.39-4.25 8.54-2.83 2.12-6.5 3.18-11.02 3.18-3.17 0-5.98-.56-8.42-1.68-2.44-1.13-4.36-2.69-5.75-4.69-1.37-2.03-2.05-4.21-2.05-6.55h6.77c.13 2.27 1.03 4.07 2.71 5.42 1.71 1.31 3.96 1.97 6.74 1.97 2.56 0 4.62-.51 6.15-1.54 1.57-1.05 2.35-2.44 2.35-4.17zm40.06 10.51c-.39-.78-.71-2.17-.95-4.17-3.15 3.27-6.91 4.9-11.28 4.9-3.91 0-7.12-1.1-9.63-3.29-2.49-2.23-3.74-5.03-3.74-8.43 0-4.12 1.57-7.32 4.69-9.59 3.15-2.3 7.57-3.44 13.26-3.44h6.59v-3.12c0-2.36-.71-4.24-2.13-5.64-1.41-1.41-3.5-2.12-6.26-2.12-2.41 0-4.44.61-6.08 1.83-1.63 1.22-2.45 2.7-2.45 4.43h-6.81c0-1.98.69-3.88 2.09-5.71 1.41-1.86 3.32-3.32 5.71-4.4 2.42-1.07 5.06-1.61 7.95-1.61 4.56 0 8.14 1.15 10.73 3.45 2.58 2.27 3.93 5.4 4.02 9.41v18.23c0 3.64.47 6.54 1.4 8.68v.59h-7.11zm-11.24-5.16c2.12 0 4.14-.55 6.04-1.65 1.9-1.1 3.28-2.53 4.14-4.29v-8.13h-5.31c-8.3 0-12.45 2.43-12.45 7.29 0 2.13.71 3.79 2.12 4.98 1.42 1.2 3.24 1.8 5.46 1.8zm34.93 5.16h-6.77v-56.25h6.77V2130zm35.34 0c-.39-.78-.7-2.17-.95-4.17-3.15 3.27-6.91 4.9-11.28 4.9-3.9 0-7.11-1.1-9.63-3.29-2.49-2.23-3.73-5.03-3.73-8.43 0-4.12 1.56-7.32 4.68-9.59 3.15-2.3 7.57-3.44 13.26-3.44h6.59v-3.12c0-2.36-.71-4.24-2.12-5.64-1.42-1.41-3.51-2.12-6.26-2.12-2.42 0-4.45.61-6.08 1.83-1.64 1.22-2.46 2.7-2.46 4.43h-6.81c0-1.98.7-3.88 2.09-5.71 1.41-1.86 3.32-3.32 5.71-4.4 2.42-1.07 5.07-1.61 7.95-1.61 4.56 0 8.14 1.15 10.73 3.45 2.59 2.27 3.93 5.4 4.03 9.41v18.23c0 3.64.46 6.54 1.39 8.68v.59h-7.11zm-11.24-5.16c2.13 0 4.14-.55 6.04-1.65 1.91-1.1 3.29-2.53 4.14-4.29v-8.13h-5.31c-8.3 0-12.45 2.43-12.45 7.29 0 2.13.71 3.79 2.12 4.98 1.42 1.2 3.24 1.8 5.46 1.8zm44.53-14.98c0-6.08 1.44-10.96 4.32-14.65 2.88-3.71 6.66-5.57 11.32-5.57 4.64 0 8.31 1.59 11.02 4.76v-20.65h6.78V2130h-6.23l-.33-4.25c-2.71 3.32-6.48 4.98-11.31 4.98-4.59 0-8.34-1.88-11.25-5.64-2.88-3.76-4.32-8.66-4.32-14.72v-.51zm6.78.77c0 4.49.93 8.01 2.78 10.54 1.86 2.54 4.42 3.81 7.69 3.81 4.3 0 7.44-1.93 9.41-5.78V2101c-2.02-3.74-5.14-5.61-9.34-5.61-3.32 0-5.9 1.28-7.76 3.85-1.85 2.56-2.78 6.36-2.78 11.39zm53.65 20.1c-5.37 0-9.74-1.76-13.11-5.27-3.37-3.54-5.06-8.27-5.06-14.17v-1.25c0-3.93.75-7.43 2.24-10.51 1.51-3.1 3.61-5.52 6.3-7.25 2.71-1.76 5.64-2.64 8.79-2.64 5.15 0 9.15 1.7 12.01 5.09 2.85 3.4 4.28 8.26 4.28 14.58v2.82h-26.84c.1 3.91 1.23 7.07 3.4 9.48 2.2 2.4 4.98 3.59 8.35 3.59 2.4 0 4.42-.49 6.08-1.46a15.28 15.28 0 004.36-3.88l4.14 3.22c-3.32 5.1-8.3 7.65-14.94 7.65zm-.84-35.52c-2.74 0-5.03 1-6.89 3-1.86 1.98-3 4.76-3.44 8.35h19.85v-.51c-.2-3.44-1.13-6.1-2.79-7.98-1.66-1.91-3.9-2.86-6.73-2.86zm59.21 35.52c-5.37 0-9.74-1.76-13.11-5.27-3.37-3.54-5.05-8.27-5.05-14.17v-1.25c0-3.93.74-7.43 2.23-10.51 1.51-3.1 3.61-5.52 6.3-7.25 2.71-1.76 5.64-2.64 8.79-2.64 5.15 0 9.15 1.7 12.01 5.09 2.86 3.4 4.29 8.26 4.29 14.58v2.82h-26.85c.1 3.91 1.24 7.07 3.41 9.48 2.2 2.4 4.98 3.59 8.35 3.59 2.39 0 4.42-.49 6.08-1.46 1.66-.98 3.11-2.27 4.35-3.88l4.14 3.22c-3.32 5.1-8.3 7.65-14.94 7.65zm-.84-35.52c-2.74 0-5.03 1-6.89 3-1.85 1.98-3 4.76-3.44 8.35h19.85v-.51c-.19-3.44-1.12-6.1-2.78-7.98-1.66-1.91-3.91-2.86-6.74-2.86zm47.24 24.28c0-1.83-.7-3.25-2.09-4.25-1.36-1.02-3.77-1.9-7.21-2.64-3.42-.73-6.14-1.61-8.17-2.63-2-1.03-3.49-2.25-4.47-3.66-.95-1.42-1.42-3.1-1.42-5.06 0-3.24 1.36-5.99 4.1-8.24 2.76-2.24 6.27-3.37 10.54-3.37 4.5 0 8.13 1.16 10.92 3.48 2.81 2.32 4.21 5.29 4.21 8.9h-6.81c0-1.85-.8-3.45-2.38-4.8-1.57-1.34-3.54-2.01-5.94-2.01-2.46 0-4.39.54-5.78 1.61-1.39 1.08-2.09 2.48-2.09 4.21 0 1.64.65 2.87 1.94 3.7 1.3.83 3.63 1.62 7 2.38 3.39.76 6.14 1.66 8.24 2.71 2.1 1.05 3.65 2.32 4.65 3.81 1.02 1.47 1.54 3.26 1.54 5.38 0 3.54-1.42 6.39-4.25 8.54-2.83 2.12-6.51 3.18-11.03 3.18-3.17 0-5.98-.56-8.42-1.68-2.44-1.13-4.36-2.69-5.75-4.69-1.37-2.03-2.05-4.21-2.05-6.55h6.78c.12 2.27 1.02 4.07 2.71 5.42 1.7 1.31 3.95 1.97 6.73 1.97 2.57 0 4.62-.51 6.16-1.54 1.56-1.05 2.34-2.44 2.34-4.17zm49.07-8.86c0 6.03-1.38 10.89-4.14 14.57-2.75 3.69-6.49 5.53-11.2 5.53-4.81 0-8.6-1.52-11.35-4.58v19.08h-6.78v-54.85h6.19l.33 4.39c2.76-3.42 6.59-5.13 11.5-5.13 4.76 0 8.52 1.8 11.28 5.39 2.78 3.59 4.17 8.58 4.17 14.97v.63zm-6.77-.77c0-4.47-.95-8-2.86-10.59-1.9-2.58-4.52-3.88-7.84-3.88-4.1 0-7.17 1.82-9.22 5.46v18.93c2.02 3.62 5.12 5.42 9.3 5.42 3.24 0 5.82-1.28 7.72-3.84 1.93-2.59 2.9-6.42 2.9-11.5zm31.86 20.87c-5.37 0-9.74-1.76-13.11-5.27-3.37-3.54-5.06-8.27-5.06-14.17v-1.25c0-3.93.75-7.43 2.24-10.51 1.51-3.1 3.61-5.52 6.3-7.25 2.71-1.76 5.64-2.64 8.79-2.64 5.15 0 9.15 1.7 12.01 5.09 2.85 3.4 4.28 8.26 4.28 14.58v2.82h-26.84c.1 3.91 1.23 7.07 3.4 9.48 2.2 2.4 4.99 3.59 8.35 3.59 2.4 0 4.42-.49 6.08-1.46a15.28 15.28 0 004.36-3.88l4.14 3.22c-3.32 5.1-8.3 7.65-14.94 7.65zm-.84-35.52c-2.74 0-5.03 1-6.89 3-1.85 1.98-3 4.76-3.44 8.35h19.85v-.51c-.2-3.44-1.13-6.1-2.79-7.98-1.66-1.91-3.9-2.86-6.73-2.86zm43.32 1.25c-1.03-.18-2.14-.26-3.33-.26-4.45 0-7.46 1.89-9.05 5.68V2130h-6.77v-39.62h6.59l.11 4.57c2.22-3.54 5.37-5.31 9.45-5.31 1.31 0 2.31.17 3 .52v6.3zm29.26 33.54c-.39-.78-.71-2.17-.95-4.17-3.15 3.27-6.91 4.9-11.28 4.9-3.91 0-7.12-1.1-9.63-3.29-2.49-2.23-3.74-5.03-3.74-8.43 0-4.12 1.56-7.32 4.69-9.59 3.15-2.3 7.57-3.44 13.25-3.44h6.6v-3.12c0-2.36-.71-4.24-2.13-5.64-1.41-1.41-3.5-2.12-6.26-2.12-2.42 0-4.44.61-6.08 1.83-1.63 1.22-2.45 2.7-2.45 4.43h-6.81c0-1.98.69-3.88 2.08-5.71 1.42-1.86 3.32-3.32 5.72-4.4 2.41-1.07 5.06-1.61 7.94-1.61 4.57 0 8.15 1.15 10.73 3.45 2.59 2.27 3.93 5.4 4.03 9.41v18.23c0 3.64.47 6.54 1.39 8.68v.59h-7.1zm-11.24-5.16c2.12 0 4.13-.55 6.04-1.65 1.9-1.1 3.28-2.53 4.14-4.29v-8.13h-5.31c-8.3 0-12.45 2.43-12.45 7.29 0 2.13.7 3.79 2.12 4.98 1.42 1.2 3.23 1.8 5.46 1.8z"/>
    <path fill="#C4C4C4" d="M3402 888h67v100h-67z"/>
    <path fill="#0C07F4" d="M3463 934c0 13.807-12.31 25-27.5 25s-27.5-11.193-27.5-25 12.31-25 27.5-25 27.5 11.193 27.5 25z"/>
    <g clip-path="url(#clip1)">
      <path fill="#D26437" d="M875.556 730c28.165 0 46.162-24.544 46.162-58.226 0-35.625-28.851-60.141-30.775-84.712-1.396-17.832 9.951-24.093 22.278-19.312 1.481.574 2.868-1.137 2.244-2.842-3.649-9.974-14.568-31.965-37.665-22.665-27.26 10.976-18.272 56.366-10.578 79.733L875.556 730z"/>
      <path fill="#DCAA82" d="M771.693 641.129c-1.417 0-2.564-1.372-2.564-3.065v-3.995c0-1.692 1.147-3.064 2.564-3.064 1.418 0 2.565 1.372 2.565 3.064v3.995c0 1.693-1.147 3.065-2.565 3.065z"/>
      <path fill="#965A50" d="M771.694 653.387c-3.54 0-6.411-3.43-6.411-7.661v-3.065c0-4.231 2.871-7.661 6.411-7.661 3.541 0 6.412 3.43 6.412 7.661v3.065c0 4.231-2.871 7.661-6.412 7.661z"/>
      <path fill="#F5DCB4" d="M836.02 689.086c-9.986-13.348-15.067-30.41-15.067-30.41l19.768-10.652 6.625 22.218-11.326 18.844z"/>
      <path fill="#D26437" d="M814.865 575.242c-.125 0-.253-.01-.383-.034-1.4-.25-2.367-1.811-2.156-3.485l.961-7.662c.211-1.67 1.493-2.832 2.918-2.575 1.4.25 2.367 1.811 2.156 3.485l-.961 7.661c-.19 1.519-1.285 2.61-2.535 2.61z"/>
      <path fill="#EB874B" d="M830.13 602.439a29.44 29.44 0 00-.464-2.039c-2.143-8.106-10.164-15.265-17.209-16.444-7.932-1.328-16.1 1.346-21.999 7.868-7.573 8.374-10.609 19.424-11.486 24.871-.3 1.862.281 3.735 1.508 4.938a16.266 16.266 0 007.306 4.135s2.327 6.014 7.936 11.088c-8.318-.035-14.989-2.001-17.764-.611-3.455 1.952-4.415 5.16-4.615 7.498-.155 1.815.931 3.436 2.431 3.772 4.178.933 13.42 2.524 23.101 7.532 17.524 9.066 26.094 5.275 30.454 2.841 8.975-5.012 17.601.167 11.299 10.917-13.864 23.654 1.523 42.616 10.339 48.937h-11.38c-4.513 0-8.346 3.482-9.718 8.321-.55 1.939.754 3.937 2.467 3.937h41.057c5.278 0 10.17-3.31 12.886-8.718l3.316-6.605c20.944-51.075-11.54-110.322-59.465-112.238z"/>
      <path fill="#B44632" d="M813.369 569.292c-2.959 3.48-5.116 10.972-6.353 14.497-1.74 4.958 1.139 10.478 5.63 10.797 4.01.286 7.445-3.915 7.373-8.714-.08-5.363-1.451-13.345-3.013-16.159-.807-1.453-2.597-1.644-3.637-.421z"/>
      <path fill="#4B3F4E" d="M797.341 610.485c2.124 0 3.847-2.058 3.847-4.597 0-2.539-1.723-4.597-3.847-4.597-2.125 0-3.847 2.058-3.847 4.597 0 2.539 1.722 4.597 3.847 4.597z"/>
      <path fill="#F5DCB4" d="M799.021 625.232c-4.448 1.156-8.256 1.258-11.169.536 0 0 2.327 6.015 7.936 11.089 8.81.038 19.468-2.089 29.307-12.657 1.144-1.229.966-3.525-.442-4.264-8.152-4.281-16.532 2.931-25.632 5.296z"/>
      <path fill="#D26437" d="M783.559 623.959c3.968-7.078-.168-11.08-3.333-12.565a50.18 50.18 0 00-1.182 5.261c-.305 1.887.284 3.788 1.529 5.004a16.425 16.425 0 002.986 2.3zM865.298 711.613h-.671c-4.796 0-9.596-1.362-13.632-4.456-11.734-8.995-13.278-26.637-12.157-34.958-8.074 16.831-1.655 30.978 5.572 39.414h.06c2.248 2.625 4.573 4.702 6.563 6.129h14.265c1.416 0 2.565-1.372 2.565-3.064 0-1.693-1.149-3.065-2.565-3.065z"/>
      <path fill="#EB874B" d="M921.719 671.774c0-35.625-28.851-60.141-30.774-84.712-1.396-17.831 9.95-24.093 22.278-19.312.841.327 1.639-.097 2.067-.826-10.348-19.518-30.543-23.093-38.771-8.537-9.549 16.895-3.74 41.754 11.861 61.291 9.508 11.906 40.819 64.354 14.063 100.852 12.206-10.139 19.276-27.651 19.276-48.756z"/>
    </g>
    <g clip-path="url(#clip2)">
      <path fill="#D26437" d="M2951.77 1145c19.13 0 31.36-16.66 31.36-39.53 0-24.19-19.6-40.83-20.91-57.52-.94-12.1 6.76-16.36 15.14-13.11 1 .39 1.94-.77 1.52-1.93-2.48-6.77-9.89-21.7-25.58-15.39-18.52 7.46-12.41 38.27-7.19 54.14l5.66 73.34z"/>
      <path fill="#DCAA82" d="M2881.23 1084.66c-.97 0-1.75-.93-1.75-2.08v-2.71c0-1.15.78-2.08 1.75-2.08.96 0 1.74.93 1.74 2.08v2.71c0 1.15-.78 2.08-1.74 2.08z"/>
      <path fill="#965A50" d="M2881.23 1092.98c-2.41 0-4.36-2.33-4.36-5.2v-2.08c0-2.87 1.95-5.2 4.36-5.2 2.4 0 4.35 2.33 4.35 5.2v2.08c0 2.87-1.95 5.2-4.35 5.2z"/>
      <path fill="#F5DCB4" d="M2924.92 1117.22c-6.78-9.06-10.23-20.65-10.23-20.65l13.42-7.23 4.5 15.09-7.69 12.79z"/>
      <path fill="#D26437" d="M2910.55 1039.93c-.09 0-.17-.01-.26-.03-.95-.17-1.61-1.23-1.47-2.36l.66-5.2c.14-1.14 1.01-1.93 1.98-1.75.95.17 1.61 1.23 1.46 2.36l-.65 5.21c-.13 1.03-.87 1.77-1.72 1.77z"/>
      <path fill="#EB874B" d="M2920.92 1058.39c-.09-.47-.2-.93-.32-1.38-1.45-5.51-6.9-10.37-11.69-11.17-5.38-.9-10.93.92-14.94 5.35-5.14 5.68-7.2 13.18-7.8 16.88-.2 1.27.19 2.54 1.02 3.35 1.01.99 2.64 2.21 4.97 2.81 0 0 1.58 4.09 5.39 7.53-5.65-.02-10.18-1.36-12.07-.41-2.35 1.32-3 3.5-3.13 5.09-.11 1.23.63 2.33 1.65 2.56 2.83.63 9.11 1.71 15.69 5.11 11.9 6.16 17.72 3.58 20.68 1.93 6.1-3.4 11.96.11 7.68 7.41-9.42 16.06 1.03 28.94 7.02 33.23h-7.73c-3.06 0-5.67 2.36-6.6 5.65-.37 1.31.51 2.67 1.68 2.67h27.88c3.59 0 6.91-2.25 8.76-5.92l2.25-4.48c14.23-34.68-7.84-74.91-40.39-76.21z"/>
      <path fill="#B44632" d="M2909.53 1035.89c-2.01 2.36-3.47 7.45-4.31 9.84-1.18 3.37.77 7.11 3.82 7.33 2.73.2 5.06-2.66 5.01-5.92-.05-3.64-.98-9.06-2.05-10.97-.54-.98-1.76-1.11-2.47-.28z"/>
      <path fill="#4B3F4E" d="M2898.65 1063.86c1.44 0 2.61-1.4 2.61-3.13 0-1.72-1.17-3.12-2.61-3.12-1.45 0-2.62 1.4-2.62 3.12 0 1.73 1.17 3.13 2.62 3.13z"/>
      <path fill="#F5DCB4" d="M2899.79 1073.87c-3.02.78-5.61.85-7.59.36 0 0 1.58 4.09 5.39 7.53 5.99.03 13.23-1.42 19.91-8.59.78-.84.65-2.4-.3-2.9-5.54-2.9-11.23 1.99-17.41 3.6z"/>
      <path fill="#D26437" d="M2889.28 1073c2.7-4.8-.11-7.52-2.26-8.53-.38 1.38-.65 2.61-.8 3.57-.21 1.29.19 2.58 1.04 3.4.51.5 1.18 1.06 2.02 1.56zM2944.81 1132.52h-.46c-3.26 0-6.52-.93-9.26-3.03-7.97-6.11-9.02-18.08-8.26-23.73-5.48 11.42-1.12 21.03 3.79 26.76h.04c1.53 1.78 3.11 3.19 4.46 4.16h9.69c.96 0 1.74-.93 1.74-2.08s-.78-2.08-1.74-2.08z"/>
      <path fill="#EB874B" d="M2983.13 1105.47c0-24.19-19.6-40.83-20.91-57.52-.94-12.1 6.76-16.36 15.14-13.11.57.22 1.11-.06 1.4-.56-7.03-13.25-20.74-15.68-26.33-5.8-6.49 11.47-2.54 28.35 8.05 41.62 6.46 8.08 27.73 43.69 9.56 68.47 8.29-6.88 13.09-18.77 13.09-33.1z"/>
    </g>
    <g clip-path="url(#clip3)">
      <path fill="#A16B4E" d="M2833.22 1739.77c0 26.23-21.59 40.26-48.22 40.26s-48.22-14.03-48.22-40.26c0-26.23 21.59-47.5 48.22-47.5s48.22 21.27 48.22 47.5z"/>
      <g opacity=".1">
        <path fill="#000" d="M2785 1756.85c-1.6 0-2.9-1.52-2.9-3.4v-5.03c0-1.88 1.3-3.4 2.9-3.4 1.6 0 2.9 1.52 2.9 3.4v5.03c0 1.88-1.3 3.4-2.9 3.4zM2771.77 1749.47c-1.6 0-2.9-1.52-2.9-3.4v-5.37c0-1.88 1.3-3.4 2.9-3.4 1.61 0 2.9 1.52 2.9 3.4v5.37c0 1.88-1.29 3.4-2.9 3.4zM2798.23 1749.47c-1.6 0-2.9-1.52-2.9-3.4v-5.37c0-1.88 1.3-3.4 2.9-3.4 1.6 0 2.9 1.52 2.9 3.4v5.37c0 1.88-1.3 3.4-2.9 3.4z" opacity=".1"/>
      </g>
      <path fill="#7D4E3E" d="M2721.85 1720.5c-3.59 11.54-4.79 44.53 5.05 48.73 9.85 4.2 27.03-21.98 30.61-33.52 3.58-11.54-1.49-24.3-11.34-28.5-9.85-4.2-20.74 1.75-24.32 13.29zM2848.15 1720.5c3.59 11.54 4.79 44.53-5.05 48.73-9.85 4.2-27.02-21.98-30.61-33.52-3.58-11.54 1.49-24.3 11.34-28.5 9.85-4.2 20.74 1.75 24.32 13.29z"/>
      <path fill="#000" d="M2823.83 1707.21c-.87.38-1.71.82-2.51 1.32-8.84-9.96-21.83-16.26-36.32-16.26-14.49 0-27.48 6.3-36.32 16.26-.8-.5-1.64-.94-2.51-1.32-5.73-2.44-11.8-1.44-16.59 2.08 12.21 17.22 32.48 28.48 55.42 28.48 22.94 0 43.21-11.26 55.42-28.48-4.79-3.52-10.86-4.52-16.59-2.08z" opacity=".15"/>
      <path fill="#A16B4E" d="M2785 1726.34c43.05 0 77.94-34.37 77.94-76.77s-34.89-76.78-77.94-76.78c-43.04 0-77.94 34.38-77.94 76.78s34.9 76.77 77.94 76.77z"/>
      <path fill="#A16B4E" d="M2785 1724.74c43.05 0 77.94-34.37 77.94-76.77s-34.89-76.78-77.94-76.78c-43.04 0-77.94 34.38-77.94 76.78s34.9 76.77 77.94 76.77z"/>
      <path fill="#000" d="M2837.02 1592.41c11.59 13.4 18.59 30.77 18.59 49.75 0 42.4-34.89 76.77-77.94 76.77-19.99 0-38.23-7.42-52.02-19.61 14.29 16.53 35.58 27.02 59.35 27.02 43.05 0 77.94-34.37 77.94-76.77 0-22.71-10.01-43.11-25.92-57.16z" opacity=".1"/>
      <path fill="#FC8063" d="M2827.4 1632.78l35.61-53.08c3.25-4.83-.45-11.78-5.58-10.49l-13.57 3.41c-5.05 1.27-10.28 1.09-15.26-.52l-16.92-5.46c-7.81-2.52-16.16-1.2-23.11 3.66-2.2 1.54-4.94 1.54-7.14 0-6.95-4.86-15.3-6.18-23.11-3.66l-16.92 5.46c-4.98 1.61-10.21 1.79-15.26.52l-13.57-3.41c-5.13-1.29-8.83 5.66-5.58 10.49l35.61 53.08h84.8z"/>
      <path fill="#FAD97E" d="M2755.87 1666.91c16.09 0 29.13-15.28 29.13-34.13s-13.04-34.14-29.13-34.14-29.14 15.29-29.14 34.14 13.05 34.13 29.14 34.13zM2814.13 1666.91c16.09 0 29.13-15.28 29.13-34.13s-13.04-34.14-29.13-34.14-29.13 15.29-29.13 34.14 13.04 34.13 29.13 34.13z"/>
      <path fill="#000" d="M2781.04 1641.09l-8.24 18.62c-1.84 4.16-1.17 9.24 1.66 12.55l7.07 8.29c1.92 2.24 5.02 2.24 6.93 0l7.08-8.29c2.83-3.31 3.5-8.39 1.66-12.55l-8.25-18.62c-1.66-3.76-6.24-3.76-7.91 0z" opacity=".1"/>
      <g>
        <path fill="#FC8063" d="M2781.05 1634.68l-8.25 18.62c-1.84 4.16-1.17 9.24 1.66 12.56l7.08 8.29c1.91 2.24 5.01 2.24 6.93 0l7.07-8.29c2.83-3.32 3.5-8.4 1.66-12.56l-8.24-18.62c-1.67-3.75-6.25-3.75-7.91 0zM2767.46 1790.6c-4.16 0-7.52-3.94-7.52-8.81v-12.11c0-4.87 3.36-8.81 7.52-8.81 4.15 0 7.52 3.94 7.52 8.81v12.11c0 4.87-3.37 8.81-7.52 8.81zM2802.55 1790.6c-4.16 0-7.52-3.94-7.52-8.81v-12.11c0-4.87 3.36-8.81 7.52-8.81 4.15 0 7.52 3.94 7.52 8.81v12.11c0 4.87-3.37 8.81-7.52 8.81z"/>
      </g>
      <path fill="#000" d="M2805.24 1639.57c1.6 0 2.9-1.53 2.9-3.4 0-3.87 2.69-7.02 5.99-7.02 3.31 0 5.99 3.15 5.99 7.02 0 1.87 1.3 3.4 2.9 3.4 1.61 0 2.9-1.53 2.9-3.4 0-7.62-5.29-13.82-11.79-13.82-6.5 0-11.79 6.2-11.79 13.82 0 1.87 1.3 3.4 2.9 3.4zm60.6 10c0-16.82-5.14-32.79-14.89-46.39l4.28-6.38c.99-1.48.77-3.61-.49-4.77-1.26-1.16-3.08-.91-4.07.57l-11.39 16.97c-5.87-8.71-14.96-14.33-25.15-14.33-8.4 0-16.35 3.79-22.36 10.67-2.87 3.28-5.15 7.1-6.77 11.26-1.62-4.16-3.9-7.98-6.77-11.26-6.01-6.88-13.95-10.67-22.36-10.67-10.19 0-19.28 5.62-25.15 14.33l-21.45-31.97c-1.09-1.62-.41-3.2-.17-3.64.24-.44 1.14-1.85 2.87-1.42l13.56 3.4a30.192 30.192 0 0016.64-.56l16.92-5.47c7.01-2.26 14.61-1.05 20.86 3.31 3.11 2.18 6.99 2.18 10.1 0 6.25-4.36 13.85-5.57 20.86-3.31l16.92 5.47c5.41 1.74 11.16 1.94 16.64.56l13.56-3.4c1.73-.44 2.64.98 2.87 1.42.24.44.92 2.02-.17 3.64l-4.16 6.21c-.99 1.47-.77 3.61.49 4.77 1.26 1.16 3.08.9 4.07-.57l4.16-6.21c2.25-3.34 2.45-7.83.53-11.44-1.92-3.6-5.45-5.36-9-4.47l-13.56 3.41c-4.58 1.14-9.38.98-13.89-.47l-16.92-5.47c-8.52-2.75-17.77-1.29-25.37 4.02-1.28.9-2.88.9-4.16 0-7.6-5.31-16.84-6.77-25.37-4.02l-16.92 5.46a25.117 25.117 0 01-13.88.47l-13.57-3.4c-3.55-.89-7.08.86-9 4.47s-1.71 8.1.53 11.44l14.34 21.38c-9.75 13.6-14.89 29.57-14.89 46.39 0 21.51 8.46 41.71 23.84 56.86-4.07 3-7.2 7.5-8.88 12.91-1.73 5.57-2.82 15.02-2.79 24.06.01 1.87 1.31 3.38 2.9 3.38h.02c1.6-.01 2.89-1.54 2.88-3.41-.03-8.18.95-16.9 2.44-21.71 1.49-4.78 4.53-8.6 8.44-10.68a80.55 80.55 0 0022.4 13.24c.62 3.44.41 6.98-.63 10.33-1.53 4.93-6.26 13.9-12.34 21.5-5.96 7.44-11.53 11.27-14.54 9.98-1.93-.82-3.55-4.05-4.58-9.11-.37-1.82-1.93-2.96-3.49-2.52-1.56.43-2.52 2.26-2.15 4.09 1.53 7.57 4.3 12.25 8.23 13.93 1.07.45 2.16.66 3.26.66 4.45 0 9.11-3.35 13.15-7.45 3.78 4.85 8.71 8.79 14.71 11.76v4.4c0 6.73 4.68 12.21 10.42 12.21 5.38 0 9.82-4.79 10.37-10.92 2.35.22 4.76.35 7.18.35 2.43 0 4.83-.13 7.18-.35.55 6.13 4.99 10.92 10.37 10.92 5.74 0 10.42-5.48 10.42-12.21v-4.4c6-2.97 10.93-6.91 14.71-11.76 4.04 4.1 8.7 7.45 13.15 7.45 1.1 0 2.19-.21 3.26-.66 7.01-2.99 9.02-15.04 9.47-24.62.48-10.14-.63-21.85-2.68-28.46-1.68-5.41-4.81-9.91-8.88-12.91 15.38-15.15 23.84-35.35 23.84-56.86zm-70.02-38.79c4.93-5.64 11.43-8.74 18.31-8.74 14.47 0 26.23 13.79 26.23 30.74s-11.76 30.73-26.23 30.73c-4.61 0-9.08-1.4-13.04-4.06.19-2.6-.24-5.27-1.32-7.71l-8.24-18.62c-.77-1.74-1.99-3.07-3.45-3.86.68-7.01 3.38-13.5 7.74-18.48zm-10.82 24.48c.28 0 .99.1 1.38.99l8.24 18.62c.73 1.63.88 3.46.53 5.15-.04.14-.08.28-.1.42-.3 1.11-.82 2.15-1.56 3.01l-7.08 8.29c-.37.45-.87.69-1.41.69-.53 0-1.04-.24-1.41-.69l-7.08-8.29c-.74-.86-1.26-1.9-1.56-3.01-.02-.14-.05-.28-.09-.42-.36-1.69-.2-3.52.52-5.15l8.24-18.62c.39-.89 1.1-.99 1.38-.99zm-29.13-33.22c6.88 0 13.39 3.1 18.31 8.74 4.36 4.98 7.06 11.47 7.74 18.48-1.46.79-2.68 2.12-3.45 3.86l-8.24 18.62a16.188 16.188 0 00-1.32 7.71c-3.96 2.66-8.43 4.06-13.04 4.06-14.46 0-26.23-13.79-26.23-30.73 0-16.95 11.77-30.74 26.23-30.74zm16.2 179.75c0 2.99-2.07 5.41-4.62 5.41-2.54 0-4.61-2.42-4.61-5.41v-12.11c0-2.98 2.07-5.41 4.61-5.41 2.55 0 4.62 2.43 4.62 5.41v12.11zm35.1 0c0 2.99-2.08 5.41-4.62 5.41-2.55 0-4.62-2.42-4.62-5.41v-12.11c0-2.98 2.07-5.41 4.62-5.41 2.54 0 4.62 2.43 4.62 5.41v12.11zm5.8-11.86v-.25c0-6.73-4.68-12.21-10.42-12.21-5.75 0-10.42 5.48-10.42 12.21v6.59c-2.33.24-4.72.36-7.13.36s-4.8-.12-7.13-.36v-6.59c0-6.73-4.67-12.21-10.42-12.21-5.74 0-10.42 5.48-10.42 12.21v.25c-4.25-2.43-7.78-5.45-10.53-9.02.05-.07.11-.14.17-.21 5.93-7.41 11.51-17.21 13.57-23.83 1.06-3.43 1.48-7 1.27-10.55a81.837 81.837 0 0023.49 3.42c8.08 0 15.97-1.17 23.5-3.42-.22 3.55.2 7.12 1.27 10.55 2.05 6.62 7.63 16.42 13.56 23.83.06.07.12.14.18.22-2.76 3.56-6.29 6.58-10.54 9.01zm32.46-48.27c1.53 4.94 2.83 15.37 2.34 25.77-.49 10.19-2.65 17.32-5.67 18.6-3.01 1.29-8.58-2.54-14.54-9.98-6.08-7.6-10.81-16.57-12.34-21.5a21.659 21.659 0 01-.62-10.33 80.64 80.64 0 0022.39-13.24c3.92 2.08 6.95 5.9 8.44 10.68zm-60.43 1.28c-41.38 0-75.04-32.91-75.04-73.37 0-14.74 4.4-28.81 12.76-40.92l4.68 6.96c-2.27 5.15-3.56 10.98-3.56 17.17 0 20.69 14.37 37.53 32.03 37.53 5.26 0 10.37-1.49 14.96-4.34.46.81.98 1.58 1.58 2.29l7.07 8.29c1.48 1.72 3.44 2.68 5.52 2.68 2.09 0 4.04-.96 5.52-2.68l7.07-8.29c.61-.71 1.13-1.48 1.58-2.29 4.59 2.84 9.7 4.34 14.96 4.34 17.67 0 32.03-16.84 32.03-37.53 0-6.19-1.29-12.02-3.55-17.17l4.67-6.96c8.36 12.11 12.76 26.18 12.76 40.92 0 40.46-33.66 73.37-75.04 73.37zm-38.02-83.37c1.6 0 2.9-1.53 2.9-3.4 0-3.87 2.69-7.02 5.99-7.02 3.3 0 5.99 3.15 5.99 7.02 0 1.87 1.3 3.4 2.9 3.4 1.6 0 2.9-1.53 2.9-3.4 0-7.62-5.29-13.82-11.79-13.82-6.5 0-11.79 6.2-11.79 13.82 0 1.87 1.3 3.4 2.9 3.4z"/>
    </g>
    <path stroke="#000" d="M2707 1883.5h160M2707 1867.5h160M2709 1851.5h160"/>
    <g clip-path="url(#clip4)">
      <path fill="#FFDC64" d="M2791.96 1220.2l-26.1-1.58c-1.78-.11-2.69 2.09-1.36 3.27l19.58 17.34-.1.47-24.72 8.53c-1.68.58-1.68 2.96 0 3.54l24.72 8.53.41.2-19.89 17.62c-1.33 1.18-.42 3.37 1.36 3.26l26.51-1.6.04.06-11.63 23.88c-.78 1.6.9 3.28 2.5 2.5l23.88-11.63.06.04-1.6 26.51c-.11 1.78 2.09 2.69 3.26 1.36l17.62-19.89.07.02 8.66 25.11c.58 1.68 2.96 1.68 3.54 0l8.66-25.11.07-.02 17.62 19.89c1.17 1.33 3.37.42 3.26-1.36l-1.6-26.51.06-.04 23.88 11.63c1.6.78 3.28-.9 2.5-2.5l-11.63-23.88.04-.06 26.51 1.6c1.78.11 2.69-2.09 1.36-3.26l-19.89-17.62.02-.07 25.11-8.66c1.68-.58 1.68-2.96 0-3.54l-25.11-8.66.29-.34 19.58-17.35c1.33-1.17.42-3.37-1.36-3.26l-26.1 1.58-.27-.41 11.45-23.51c.78-1.6-.9-3.28-2.5-2.5l-23.51 11.45-.41-.27 1.58-26.1c.11-1.78-2.09-2.69-3.27-1.36l-17.34 19.58-.47-.1-8.53-24.72c-.58-1.68-2.96-1.68-3.54 0l-8.53 24.72-.47.1-17.35-19.58c-1.17-1.33-3.37-.42-3.26 1.36l1.58 26.1-.41.27-23.51-11.45c-1.6-.78-3.28.9-2.5 2.5l11.45 23.51"/>
      <path fill="#FFC850" d="M2836.73 1302.8c29.38 0 53.2-23.82 53.2-53.2 0-29.38-23.82-53.19-53.2-53.19-29.38 0-53.19 23.81-53.19 53.19s23.81 53.2 53.19 53.2z"/>
      <path fill="#EBAF4B" d="M2876.44 1247.17c-11.24 27.14-42.36 40.03-69.51 28.79-9.44-3.92-17.15-10.24-22.72-17.95 2.83 17.62 14.46 33.41 32.17 40.74 27.14 11.24 58.26-1.65 69.5-28.79 7.33-17.7 4.4-37.09-6.06-51.56 1.51 9.4.53 19.32-3.38 28.77z"/>
    </g>
  </g>
  <defs>
    <clipPath id="clip0">
      <path fill="#fff" d="M0 0h3898v2225H0z"/>
    </clipPath>
    <clipPath id="clip1">
      <path fill="#fff" d="M0 0h159v190H0z" transform="translate(764 540)"/>
    </clipPath>
    <clipPath id="clip2">
      <path fill="#fff" d="M0 0h108v129H0z" transform="translate(2876 1016)"/>
    </clipPath>
    <clipPath id="clip3">
      <path fill="#fff" d="M0 0h198v232H0z" transform="translate(2686 1562)"/>
    </clipPath>
    <clipPath id="clip4">
      <path fill="#fff" d="M0 0h158v158H0z" transform="translate(2758 1171)"/>
    </clipPath>
    <filter id="filter0_bddddddddf" width="173" height="292" x="2702" y="1617" color-interpolation-filters="sRGB" filterUnits="userSpaceOnUse">
      <feFlood flood-opacity="0" result="BackgroundImageFix"/>
      <feGaussianBlur in="BackgroundImage" stdDeviation="2"/>
      <feComposite in2="SourceAlpha" operator="in" result="effect1_backgroundBlur"/>
      <feColorMatrix in="SourceAlpha" values="0 0 0 0 0 0 0 0 0 0 0 0 0 0 0 0 0 0 127 0"/>
      <feOffset dy="4"/>
      <feGaussianBlur stdDeviation="2"/>
      <feColorMatrix values="0 0 0 0 0 0 0 0 0 0 0 0 0 0 0 0 0 0 0.25 0"/>
      <feBlend in2="effect1_backgroundBlur" result="effect2_dropShadow"/>
      <feColorMatrix in="SourceAlpha" values="0 0 0 0 0 0 0 0 0 0 0 0 0 0 0 0 0 0 127 0"/>
      <feOffset dy="4"/>
      <feGaussianBlur stdDeviation="2"/>
      <feColorMatrix values="0 0 0 0 0 0 0 0 0 0 0 0 0 0 0 0 0 0 0.25 0"/>
      <feBlend in2="effect2_dropShadow" result="effect3_dropShadow"/>
      <feColorMatrix in="SourceAlpha" values="0 0 0 0 0 0 0 0 0 0 0 0 0 0 0 0 0 0 127 0"/>
      <feOffset dy="4"/>
      <feGaussianBlur stdDeviation="2"/>
      <feColorMatrix values="0 0 0 0 0 0 0 0 0 0 0 0 0 0 0 0 0 0 0.25 0"/>
      <feBlend in2="effect3_dropShadow" result="effect4_dropShadow"/>
      <feColorMatrix in="SourceAlpha" values="0 0 0 0 0 0 0 0 0 0 0 0 0 0 0 0 0 0 127 0"/>
      <feOffset dy="4"/>
      <feGaussianBlur stdDeviation="2"/>
      <feColorMatrix values="0 0 0 0 0 0 0 0 0 0 0 0 0 0 0 0 0 0 0.25 0"/>
      <feBlend in2="effect4_dropShadow" result="effect5_dropShadow"/>
      <feColorMatrix in="SourceAlpha" values="0 0 0 0 0 0 0 0 0 0 0 0 0 0 0 0 0 0 127 0"/>
      <feOffset dy="4"/>
      <feGaussianBlur stdDeviation="2"/>
      <feColorMatrix values="0 0 0 0 0 0 0 0 0 0 0 0 0 0 0 0 0 0 0.25 0"/>
      <feBlend in2="effect5_dropShadow" result="effect6_dropShadow"/>
      <feColorMatrix in="SourceAlpha" values="0 0 0 0 0 0 0 0 0 0 0 0 0 0 0 0 0 0 127 0"/>
      <feOffset dy="4"/>
      <feGaussianBlur stdDeviation="2"/>
      <feColorMatrix values="0 0 0 0 0 0 0 0 0 0 0 0 0 0 0 0 0 0 0.25 0"/>
      <feBlend in2="effect6_dropShadow" result="effect7_dropShadow"/>
      <feColorMatrix in="SourceAlpha" values="0 0 0 0 0 0 0 0 0 0 0 0 0 0 0 0 0 0 127 0"/>
      <feOffset dy="4"/>
      <feGaussianBlur stdDeviation="2"/>
      <feColorMatrix values="0 0 0 0 0 0 0 0 0 0 0 0 0 0 0 0 0 0 0.25 0"/>
      <feBlend in2="effect7_dropShadow" result="effect8_dropShadow"/>
      <feColorMatrix in="SourceAlpha" values="0 0 0 0 0 0 0 0 0 0 0 0 0 0 0 0 0 0 127 0"/>
      <feOffset dy="4"/>
      <feGaussianBlur stdDeviation="2"/>
      <feColorMatrix values="0 0 0 0 0 0 0 0 0 0 0 0 0 0 0 0 0 0 0.25 0"/>
      <feBlend in2="effect8_dropShadow" result="effect9_dropShadow"/>
      <feBlend in="SourceGraphic" in2="effect9_dropShadow" result="shape"/>
      <feGaussianBlur result="effect10_foregroundBlur" stdDeviation="2"/>
    </filter>
    <filter id="filter1_bddddddddf" width="173" height="292" x="2702" y="1548" color-interpolation-filters="sRGB" filterUnits="userSpaceOnUse">
      <feFlood flood-opacity="0" result="BackgroundImageFix"/>
      <feGaussianBlur in="BackgroundImage" stdDeviation="2"/>
      <feComposite in2="SourceAlpha" operator="in" result="effect1_backgroundBlur"/>
      <feColorMatrix in="SourceAlpha" values="0 0 0 0 0 0 0 0 0 0 0 0 0 0 0 0 0 0 127 0"/>
      <feOffset dy="4"/>
      <feGaussianBlur stdDeviation="2"/>
      <feColorMatrix values="0 0 0 0 0 0 0 0 0 0 0 0 0 0 0 0 0 0 0.25 0"/>
      <feBlend in2="effect1_backgroundBlur" result="effect2_dropShadow"/>
      <feColorMatrix in="SourceAlpha" values="0 0 0 0 0 0 0 0 0 0 0 0 0 0 0 0 0 0 127 0"/>
      <feOffset dy="4"/>
      <feGaussianBlur stdDeviation="2"/>
      <feColorMatrix values="0 0 0 0 0 0 0 0 0 0 0 0 0 0 0 0 0 0 0.25 0"/>
      <feBlend in2="effect2_dropShadow" result="effect3_dropShadow"/>
      <feColorMatrix in="SourceAlpha" values="0 0 0 0 0 0 0 0 0 0 0 0 0 0 0 0 0 0 127 0"/>
      <feOffset dy="4"/>
      <feGaussianBlur stdDeviation="2"/>
      <feColorMatrix values="0 0 0 0 0 0 0 0 0 0 0 0 0 0 0 0 0 0 0.25 0"/>
      <feBlend in2="effect3_dropShadow" result="effect4_dropShadow"/>
      <feColorMatrix in="SourceAlpha" values="0 0 0 0 0 0 0 0 0 0 0 0 0 0 0 0 0 0 127 0"/>
      <feOffset dy="4"/>
      <feGaussianBlur stdDeviation="2"/>
      <feColorMatrix values="0 0 0 0 0 0 0 0 0 0 0 0 0 0 0 0 0 0 0.25 0"/>
      <feBlend in2="effect4_dropShadow" result="effect5_dropShadow"/>
      <feColorMatrix in="SourceAlpha" values="0 0 0 0 0 0 0 0 0 0 0 0 0 0 0 0 0 0 127 0"/>
      <feOffset dy="4"/>
      <feGaussianBlur stdDeviation="2"/>
      <feColorMatrix values="0 0 0 0 0 0 0 0 0 0 0 0 0 0 0 0 0 0 0.25 0"/>
      <feBlend in2="effect5_dropShadow" result="effect6_dropShadow"/>
      <feColorMatrix in="SourceAlpha" values="0 0 0 0 0 0 0 0 0 0 0 0 0 0 0 0 0 0 127 0"/>
      <feOffset dy="4"/>
      <feGaussianBlur stdDeviation="2"/>
      <feColorMatrix values="0 0 0 0 0 0 0 0 0 0 0 0 0 0 0 0 0 0 0.25 0"/>
      <feBlend in2="effect6_dropShadow" result="effect7_dropShadow"/>
      <feColorMatrix in="SourceAlpha" values="0 0 0 0 0 0 0 0 0 0 0 0 0 0 0 0 0 0 127 0"/>
      <feOffset dy="4"/>
      <feGaussianBlur stdDeviation="2"/>
      <feColorMatrix values="0 0 0 0 0 0 0 0 0 0 0 0 0 0 0 0 0 0 0.25 0"/>
      <feBlend in2="effect7_dropShadow" result="effect8_dropShadow"/>
      <feColorMatrix in="SourceAlpha" values="0 0 0 0 0 0 0 0 0 0 0 0 0 0 0 0 0 0 127 0"/>
      <feOffset dy="4"/>
      <feGaussianBlur stdDeviation="2"/>
      <feColorMatrix values="0 0 0 0 0 0 0 0 0 0 0 0 0 0 0 0 0 0 0.25 0"/>
      <feBlend in2="effect8_dropShadow" result="effect9_dropShadow"/>
      <feBlend in="SourceGraphic" in2="effect9_dropShadow" result="shape"/>
      <feGaussianBlur result="effect10_foregroundBlur" stdDeviation="2"/>
    </filter>
  </defs>
</svg>
