<svg xmlns="http://www.w3.org/2000/svg" width="3898" height="2225" fill="none" viewBox="0 0 3898 2225">
  <path fill="#fff" d="M0 0h3898v2225H0z"/>
  <path fill="#fff" d="M383 198h3079v1802H383z"/>
  <path fill="#C4C4C4" d="M424 278h157v157H424z"/>
  <path stroke="#000" d="M424.349 281.979l157 152.663M423.646 434.646l157-157"/>
  <path fill="#C4C4C4" d="M3053 847h287v346h-287z"/>
  <path stroke="#000" d="M0-.5h442.224" transform="matrix(.649 .7608 -.6278 .77837 3053 856.558)"/>
  <path stroke="#000" d="M0-.5h449.539" transform="matrix(.63843 -.76968 .63843 .76968 3053 1193)"/>
  <path fill="#000" d="M763.633 356.117c0 10.031-1.688 18.797-5.063 26.297-3.375 7.453-8.156 13.148-14.343 17.086-6.188 3.938-13.407 5.906-21.657 5.906-8.062 0-15.211-1.968-21.445-5.906-6.234-3.984-11.086-9.633-14.555-16.945-3.422-7.36-5.179-15.867-5.273-25.524v-7.383c0-9.843 1.711-18.539 5.133-26.086 3.422-7.546 8.25-13.312 14.484-17.296 6.281-4.032 13.453-6.047 21.516-6.047 8.203 0 15.422 1.992 21.656 5.976 6.281 3.938 11.109 9.68 14.484 17.227 3.375 7.5 5.063 16.242 5.063 26.226v6.469zm-13.43-6.609c0-12.141-2.437-21.446-7.312-27.914-4.875-6.516-11.696-9.774-20.461-9.774-8.532 0-15.258 3.258-20.18 9.774-4.875 6.468-7.383 15.468-7.523 27v7.523c0 11.766 2.461 21.024 7.382 27.774 4.969 6.703 11.789 10.054 20.461 10.054 8.719 0 15.469-3.164 20.25-9.492 4.782-6.375 7.242-15.492 7.383-27.351v-7.594zm99 36.562l14.625-58.148h13.008L854.688 404h-10.547l-18.493-57.656-18 57.656h-10.546l-22.079-76.078h12.938l14.977 56.953 17.718-56.953h10.477l18.07 58.148zM904.258 404H891.25V296h13.008v108zm137.322 0h-13.57v-47.32h-51.612V404h-13.5V301.625h13.5v44.016h51.612v-44.016h13.57V404zm18.49-38.742c0-7.453 1.45-14.156 4.36-20.11 2.95-5.953 7.03-10.546 12.23-13.781 5.25-3.234 11.23-4.851 17.93-4.851 10.36 0 18.73 3.586 25.11 10.757 6.42 7.172 9.63 16.711 9.63 28.618v.914c0 7.406-1.43 14.062-4.29 19.968-2.81 5.86-6.87 10.43-12.16 13.711-5.26 3.282-11.3 4.922-18.15 4.922-10.31 0-18.68-3.586-25.1-10.758-6.37-7.171-9.56-16.664-9.56-28.476v-.914zm13.08 1.547c0 8.437 1.94 15.211 5.83 20.32 3.94 5.109 9.19 7.664 15.75 7.664 6.61 0 11.86-2.578 15.75-7.734 3.9-5.203 5.84-12.469 5.84-21.797 0-8.344-1.99-15.094-5.98-20.25-3.93-5.203-9.18-7.805-15.75-7.805-6.42 0-11.6 2.555-15.54 7.664-3.93 5.11-5.9 12.422-5.9 21.938zm69.05-1.547c0-7.453 1.45-14.156 4.35-20.11 2.96-5.953 7.04-10.546 12.24-13.781 5.25-3.234 11.23-4.851 17.93-4.851 10.36 0 18.73 3.586 25.1 10.757 6.42 7.172 9.63 16.711 9.63 28.618v.914c0 7.406-1.43 14.062-4.29 19.968-2.81 5.86-6.86 10.43-12.16 13.711-5.25 3.282-11.3 4.922-18.14 4.922-10.31 0-18.68-3.586-25.1-10.758-6.38-7.171-9.56-16.664-9.56-28.476v-.914zm13.07 1.547c0 8.437 1.95 15.211 5.84 20.32 3.94 5.109 9.19 7.664 15.75 7.664 6.61 0 11.86-2.578 15.75-7.734 3.89-5.203 5.84-12.469 5.84-21.797 0-8.344-2-15.094-5.98-20.25-3.94-5.203-9.19-7.805-15.75-7.805-6.42 0-11.6 2.555-15.54 7.664-3.94 5.11-5.91 12.422-5.91 21.938zm90.14-57.305v18.422h14.21v10.055h-14.21v47.179c0 3.047.64 5.344 1.9 6.891 1.27 1.5 3.42 2.25 6.47 2.25 1.5 0 3.56-.281 6.19-.844V404c-3.42.938-6.75 1.406-9.99 1.406-5.81 0-10.19-1.758-13.14-5.273-2.96-3.516-4.43-8.508-4.43-14.977v-47.179h-13.86v-10.055h13.86V309.5h13z"/>
  <path fill="#C4C4C4" d="M2656 231h752v204h-752z"/>
  <path fill="#000" d="M2932.72 327.367c-11.58-3.328-20.02-7.406-25.31-12.234-5.25-4.875-7.88-10.875-7.88-18 0-8.063 3.21-14.719 9.63-19.969 6.47-5.297 14.86-7.945 25.18-7.945 7.03 0 13.28 1.359 18.77 4.078 5.53 2.719 9.8 6.469 12.8 11.25 3.04 4.781 4.57 10.008 4.57 15.68h-13.57c0-6.188-1.97-11.039-5.91-14.555-3.94-3.563-9.49-5.344-16.66-5.344-6.66 0-11.86 1.477-15.61 4.43-3.71 2.906-5.56 6.961-5.56 12.164 0 4.172 1.76 7.711 5.28 10.617 3.56 2.859 9.58 5.484 18.07 7.875 8.53 2.391 15.18 5.039 19.96 7.945 4.83 2.86 8.4 6.211 10.69 10.055 2.35 3.844 3.52 8.367 3.52 13.57 0 8.297-3.24 14.954-9.71 19.969-6.46 4.969-15.11 7.453-25.94 7.453-7.03 0-13.59-1.336-19.69-4.008-6.09-2.718-10.8-6.421-14.13-11.109-3.28-4.687-4.92-10.008-4.92-15.961h13.57c0 6.188 2.27 11.086 6.82 14.695 4.59 3.563 10.71 5.344 18.35 5.344 7.12 0 12.58-1.453 16.38-4.359 3.8-2.906 5.7-6.867 5.7-11.883 0-5.016-1.76-8.883-5.28-11.602-3.51-2.765-9.89-5.484-19.12-8.156zM3032.98 373c-.75-1.5-1.36-4.172-1.82-8.016-6.05 6.282-13.27 9.422-21.66 9.422-7.5 0-13.66-2.109-18.49-6.328-4.78-4.266-7.17-9.656-7.17-16.172 0-7.922 3-14.062 9-18.422 6.04-4.406 14.53-6.609 25.45-6.609h12.66v-5.977c0-4.546-1.36-8.156-4.08-10.828-2.72-2.718-6.73-4.078-12.03-4.078-4.64 0-8.53 1.172-11.67 3.516-3.14 2.344-4.71 5.18-4.71 8.508h-13.08c0-3.797 1.34-7.454 4.01-10.969 2.72-3.563 6.38-6.375 10.97-8.438 4.64-2.062 9.73-3.093 15.26-3.093 8.76 0 15.63 2.203 20.6 6.609 4.97 4.359 7.55 10.383 7.73 18.07v35.016c0 6.984.89 12.539 2.67 16.664V373h-13.64zm-21.58-9.914c4.08 0 7.94-1.055 11.6-3.164 3.66-2.11 6.3-4.852 7.95-8.227v-15.609h-10.2c-15.94 0-23.91 4.664-23.91 13.992 0 4.078 1.36 7.266 4.08 9.563 2.72 2.297 6.21 3.445 10.48 3.445zm67.08 9.914h-13.01V265h13.01v108zm35.01 0h-13.01v-76.078h13.01V373zm-14.06-96.258c0-2.109.63-3.89 1.9-5.344 1.31-1.453 3.23-2.179 5.76-2.179s4.46.726 5.77 2.179c1.31 1.454 1.97 3.235 1.97 5.344 0 2.11-.66 3.867-1.97 5.274-1.31 1.406-3.24 2.109-5.77 2.109-2.53 0-4.45-.703-5.76-2.109-1.27-1.407-1.9-3.164-1.9-5.274zm71.72 31.852c-1.97-.328-4.1-.492-6.4-.492-8.53 0-14.32 3.632-17.37 10.898v54h-13v-76.078h12.65l.21 8.789c4.27-6.797 10.31-10.195 18.14-10.195 2.53 0 4.46.328 5.77.984v12.094zM1758.12 302.734h-32.9V394h-13.43v-91.266h-32.84v-11.109h79.17v11.109zM1810.23 394c-.75-1.5-1.36-4.172-1.83-8.016-6.05 6.282-13.27 9.422-21.66 9.422-7.5 0-13.66-2.109-18.49-6.328-4.78-4.266-7.17-9.656-7.17-16.172 0-7.922 3-14.062 9-18.422 6.04-4.406 14.53-6.609 25.45-6.609h12.66v-5.977c0-4.546-1.36-8.156-4.08-10.828-2.72-2.718-6.73-4.078-12.02-4.078-4.64 0-8.54 1.172-11.68 3.516-3.14 2.344-4.71 5.18-4.71 8.508h-13.08c0-3.797 1.34-7.454 4.01-10.969 2.72-3.563 6.38-6.375 10.97-8.438 4.64-2.062 9.73-3.093 15.26-3.093 8.76 0 15.63 2.203 20.6 6.609 4.97 4.359 7.55 10.383 7.74 18.07v35.016c0 6.984.89 12.539 2.67 16.664V394h-13.64zm-21.59-9.914c4.08 0 7.95-1.055 11.6-3.164 3.66-2.11 6.31-4.852 7.95-8.227v-15.609h-10.2c-15.94 0-23.9 4.664-23.9 13.992 0 4.078 1.36 7.266 4.07 9.563 2.72 2.297 6.22 3.445 10.48 3.445zm117.35-27.281c0 11.625-2.67 20.976-8.01 28.054-5.35 7.032-12.52 10.547-21.52 10.547-9.61 0-17.04-3.398-22.29-10.195l-.63 8.789h-11.95V286h13v40.289c5.25-6.516 12.5-9.773 21.73-9.773s16.48 3.492 21.73 10.476c5.29 6.985 7.94 16.547 7.94 28.688v1.125zm-13.01-1.477c0-8.859-1.71-15.703-5.13-20.531-3.42-4.828-8.34-7.242-14.76-7.242-8.58 0-14.75 3.984-18.5 11.953v32.906c3.99 7.969 10.2 11.953 18.64 11.953 6.23 0 11.08-2.414 14.55-7.242 3.47-4.828 5.2-12.094 5.2-21.797zm43.6 38.672h-13.01V286h13.01v108zm52.45 1.406c-10.31 0-18.7-3.375-25.17-10.125-6.47-6.797-9.7-15.867-9.7-27.211v-2.39c0-7.547 1.43-14.274 4.29-20.18 2.9-5.953 6.93-10.594 12.09-13.922 5.2-3.375 10.83-5.062 16.87-5.062 9.89 0 17.58 3.257 23.07 9.773 5.48 6.516 8.22 15.844 8.22 27.984v5.415h-51.54c.19 7.5 2.37 13.57 6.54 18.21 4.22 4.594 9.57 6.891 16.03 6.891 4.6 0 8.49-.937 11.68-2.812 3.18-1.875 5.97-4.36 8.36-7.454l7.95 6.188c-6.38 9.797-15.94 14.695-28.69 14.695zm-1.62-68.203c-5.25 0-9.65 1.922-13.21 5.766-3.57 3.797-5.77 9.14-6.61 16.031h38.11v-.984c-.38-6.61-2.16-11.719-5.35-15.328-3.19-3.657-7.5-5.485-12.94-5.485zm83.18 2.391c-1.97-.328-4.1-.492-6.39-.492-8.54 0-14.32 3.632-17.37 10.898v54h-13.01v-76.078h12.66l.21 8.789c4.26-6.797 10.31-10.195 18.14-10.195 2.53 0 4.45.328 5.76.984v12.094zm7.18 25.664c0-7.453 1.45-14.156 4.35-20.11 2.96-5.953 7.04-10.546 12.24-13.781 5.25-3.234 11.23-4.851 17.93-4.851 10.36 0 18.73 3.586 25.1 10.757 6.42 7.172 9.63 16.711 9.63 28.618v.914c0 7.406-1.43 14.062-4.29 19.968-2.81 5.86-6.86 10.43-12.16 13.711-5.25 3.282-11.3 4.922-18.14 4.922-10.31 0-18.68-3.586-25.1-10.758-6.38-7.171-9.56-16.664-9.56-28.476v-.914zm13.07 1.547c0 8.437 1.95 15.211 5.84 20.32 3.94 5.109 9.19 7.664 15.75 7.664 6.61 0 11.86-2.578 15.75-7.734 3.89-5.203 5.84-12.469 5.84-21.797 0-8.344-2-15.094-5.98-20.25-3.94-5.203-9.19-7.805-15.75-7.805-6.42 0-11.6 2.555-15.54 7.664-3.94 5.11-5.91 12.422-5.91 21.938z"/>
  <path fill="#C4C4C4" d="M424 798h62v742h-62z"/>
  <path fill="#000" d="M424 1231h62v309h-62zM550.222 1406.16c-4.021-1.16-6.95-2.58-8.789-4.25-1.823-1.7-2.735-3.78-2.735-6.25 0-2.8 1.115-5.11 3.345-6.94 2.246-1.84 5.159-2.76 8.74-2.76 2.442 0 4.614.48 6.519 1.42 1.92.94 3.401 2.25 4.443 3.91a9.916 9.916 0 011.587 5.44h-4.712c0-2.15-.683-3.83-2.051-5.05-1.367-1.24-3.296-1.86-5.786-1.86-2.311 0-4.118.51-5.42 1.54-1.286 1.01-1.928 2.42-1.928 4.22 0 1.45.61 2.68 1.831 3.69 1.237.99 3.328 1.9 6.274 2.73 2.962.83 5.273 1.75 6.934 2.76 1.676 1 2.913 2.16 3.711 3.49.813 1.34 1.22 2.91 1.22 4.72 0 2.88-1.123 5.19-3.369 6.93-2.246 1.73-5.249 2.59-9.009 2.59-2.441 0-4.72-.47-6.836-1.39-2.115-.95-3.751-2.23-4.907-3.86-1.139-1.63-1.709-3.48-1.709-5.54h4.712c0 2.15.789 3.85 2.368 5.1 1.595 1.24 3.719 1.86 6.372 1.86 2.474 0 4.37-.51 5.689-1.52 1.318-1.01 1.977-2.38 1.977-4.12 0-1.75-.61-3.09-1.831-4.03-1.22-.96-3.434-1.91-6.64-2.83zm34.814 13.23c-1.758 2.06-4.337 3.1-7.739 3.1-2.816 0-4.964-.82-6.445-2.44-1.465-1.65-2.206-4.07-2.222-7.28v-17.19h4.516v17.07c0 4 1.628 6.01 4.883 6.01 3.451 0 5.746-1.29 6.885-3.86v-19.22h4.517V1422h-4.297l-.098-2.61zm15.552-23.81l.146 3.32c2.019-2.53 4.655-3.8 7.911-3.8 5.582 0 8.398 3.15 8.447 9.44V1422h-4.517v-17.48c-.016-1.9-.456-3.31-1.318-4.22-.847-.92-2.173-1.37-3.98-1.37-1.465 0-2.75.39-3.857 1.17-1.107.78-1.969 1.81-2.588 3.08V1422h-4.517v-26.42h4.273zm32.715 13.16h-11.914v-3.68h11.914v3.68zm31.274 1.98c-.439 3.76-1.831 6.67-4.175 8.72-2.327 2.03-5.428 3.05-9.301 3.05-4.2 0-7.569-1.51-10.108-4.52-2.523-3.01-3.784-7.04-3.784-12.08v-3.42c0-3.31.586-6.21 1.758-8.72 1.188-2.5 2.864-4.42 5.029-5.76 2.165-1.35 4.671-2.03 7.52-2.03 3.776 0 6.803 1.06 9.082 3.18 2.278 2.1 3.605 5.01 3.979 8.74h-4.712c-.407-2.83-1.294-4.88-2.661-6.15-1.351-1.27-3.247-1.91-5.688-1.91-2.995 0-5.347 1.11-7.056 3.32-1.693 2.22-2.539 5.37-2.539 9.45v3.44c0 3.86.806 6.93 2.417 9.21 1.611 2.28 3.865 3.42 6.763 3.42 2.604 0 4.598-.59 5.981-1.76 1.4-1.19 2.328-3.25 2.783-6.18h4.712zm4.517-2.17c0-2.59.504-4.92 1.513-6.98 1.026-2.07 2.442-3.67 4.248-4.79 1.823-1.12 3.899-1.68 6.226-1.68 3.597 0 6.502 1.24 8.716 3.73 2.23 2.49 3.345 5.8 3.345 9.94v.31c0 2.58-.497 4.89-1.49 6.94-.976 2.03-2.384 3.62-4.223 4.76-1.823 1.14-3.923 1.71-6.299 1.71-3.581 0-6.486-1.25-8.716-3.74-2.213-2.49-3.32-5.78-3.32-9.88v-.32zm4.541.53c0 2.93.675 5.29 2.026 7.06 1.367 1.77 3.19 2.66 5.469 2.66 2.295 0 4.118-.89 5.469-2.68 1.351-1.81 2.026-4.33 2.026-7.57 0-2.9-.692-5.24-2.075-7.03-1.367-1.81-3.19-2.71-5.469-2.71-2.23 0-4.028.88-5.395 2.66-1.368 1.77-2.051 4.31-2.051 7.61zm41.479 10.31c-1.758 2.06-4.337 3.1-7.739 3.1-2.816 0-4.964-.82-6.445-2.44-1.465-1.65-2.206-4.07-2.222-7.28v-17.19h4.517v17.07c0 4 1.627 6.01 4.882 6.01 3.451 0 5.746-1.29 6.885-3.86v-19.22h4.517V1422h-4.297l-.098-2.61zm15.552-23.81l.146 3.32c2.019-2.53 4.655-3.8 7.911-3.8 5.582 0 8.398 3.15 8.447 9.44V1422h-4.517v-17.48c-.016-1.9-.455-3.31-1.318-4.22-.846-.92-2.173-1.37-3.98-1.37-1.464 0-2.75.39-3.857 1.17-1.107.78-1.969 1.81-2.588 3.08V1422h-4.516v-26.42h4.272zm29.443-6.39v6.39h4.932v3.5h-4.932v16.38c0 1.05.22 1.85.66 2.39.439.52 1.188.78 2.246.78.52 0 1.237-.1 2.148-.29v3.66c-1.188.33-2.344.49-3.467.49-2.018 0-3.54-.61-4.565-1.83-1.026-1.22-1.538-2.96-1.538-5.2v-16.38h-4.81v-3.5h4.81v-6.39h4.516zm21.192 33.3c-3.581 0-6.494-1.17-8.74-3.52-2.247-2.36-3.37-5.51-3.37-9.45v-.83c0-2.62.497-4.95 1.49-7 1.009-2.07 2.409-3.68 4.199-4.84 1.807-1.17 3.76-1.75 5.859-1.75 3.435 0 6.104 1.13 8.008 3.39 1.904 2.26 2.857 5.5 2.857 9.72v1.88h-17.896c.065 2.6.822 4.71 2.271 6.32 1.464 1.59 3.32 2.39 5.566 2.39 1.595 0 2.946-.32 4.053-.97a10.4 10.4 0 002.905-2.59l2.759 2.15c-2.214 3.4-5.534 5.1-9.961 5.1zm-.562-23.68c-1.823 0-3.353.66-4.59 2-1.237 1.32-2.002 3.17-2.295 5.57h13.233v-.35c-.13-2.29-.749-4.07-1.856-5.32-1.106-1.27-2.604-1.9-4.492-1.9zm28.882.83c-.683-.12-1.424-.17-2.222-.17-2.962 0-4.972 1.26-6.03 3.78V1422h-4.516v-26.42h4.394l.073 3.06c1.481-2.36 3.581-3.54 6.299-3.54.879 0 1.546.11 2.002.34v4.2zm-160.986 128.42h4.931v3.69h-4.931v8.25h-4.541v-8.25h-16.187v-2.66l15.918-24.64h4.81v23.61zm-15.601 0h11.06v-17.43l-.537.98-10.523 16.45zm43.677 0h4.932v3.69h-4.932v8.25h-4.541v-8.25h-16.187v-2.66l15.918-24.64h4.81v23.61zm-15.601 0h11.06v-17.43l-.537.98-10.523 16.45zm24.219-16.77c0-2.13.676-3.89 2.026-5.27 1.368-1.39 3.117-2.08 5.249-2.08 2.165 0 3.915.7 5.25 2.1 1.35 1.38 2.026 3.18 2.026 5.4v1.73c0 2.15-.684 3.91-2.051 5.27-1.351 1.35-3.076 2.03-5.176 2.03-2.116 0-3.865-.68-5.249-2.03-1.383-1.36-2.075-3.18-2.075-5.44v-1.71zm3.369 1.88c0 1.27.358 2.32 1.074 3.15.717.81 1.677 1.22 2.881 1.22 1.156 0 2.084-.4 2.784-1.2.716-.79 1.074-1.89 1.074-3.27v-1.78c0-1.27-.35-2.32-1.05-3.15-.7-.83-1.652-1.25-2.857-1.25-1.204 0-2.156.42-2.856 1.25-.7.83-1.05 1.91-1.05 3.25v1.78zm13.941 18.11c0-2.13.675-3.88 2.026-5.24 1.367-1.39 3.117-2.08 5.249-2.08 2.132 0 3.882.68 5.249 2.05 1.367 1.37 2.051 3.18 2.051 5.45v1.73c0 2.13-.684 3.89-2.051 5.27-1.351 1.37-3.084 2.05-5.2 2.05s-3.866-.67-5.249-2.02c-1.384-1.37-2.075-3.19-2.075-5.45v-1.76zm3.369 1.91c0 1.28.358 2.34 1.074 3.17.716.82 1.676 1.22 2.881 1.22 1.172 0 2.108-.4 2.808-1.19.699-.82 1.049-1.92 1.049-3.3v-1.81c0-1.28-.358-2.33-1.074-3.15-.7-.81-1.644-1.22-2.832-1.22-1.156 0-2.1.41-2.832 1.22-.716.8-1.074 1.88-1.074 3.25v1.81zm-12.329 4.12l-2.564-1.61 17.359-27.78 2.563 1.61-17.358 27.78z"/>
  <path fill="#C4C4C4" d="M424 1718h973v92H424z"/>
  <path fill="#000" d="M424 1718h729v92H424zM761.708 1883.08V1897h-4.687v-35.55h13.11c3.89 0 6.933 1 9.131 2.98 2.213 1.99 3.32 4.62 3.32 7.89 0 3.45-1.082 6.11-3.247 7.98-2.148 1.86-5.233 2.78-9.253 2.78h-8.374zm0-3.83h8.423c2.506 0 4.427-.58 5.762-1.76 1.334-1.18 2.002-2.89 2.002-5.12 0-2.12-.668-3.81-2.002-5.08-1.335-1.27-3.166-1.93-5.494-1.98h-8.691v13.94zm31.055 17.75h-4.517v-26.42h4.517V1897zm-4.883-33.42c0-.74.22-1.35.659-1.86.456-.5 1.123-.76 2.002-.76.879 0 1.546.26 2.002.76.456.51.684 1.12.684 1.86 0 .73-.228 1.34-.684 1.83-.456.49-1.123.73-2.002.73-.879 0-1.546-.24-2.002-.73-.439-.49-.659-1.1-.659-1.83zm23.096 33.91c-3.581 0-6.495-1.17-8.741-3.52-2.246-2.36-3.369-5.51-3.369-9.45v-.83c0-2.62.497-4.95 1.489-7 1.01-2.07 2.409-3.68 4.2-4.84 1.806-1.17 3.759-1.75 5.859-1.75 3.434 0 6.104 1.13 8.008 3.39 1.904 2.26 2.856 5.5 2.856 9.72v1.88h-17.895c.065 2.6.822 4.71 2.27 6.32 1.465 1.59 3.321 2.39 5.567 2.39 1.595 0 2.946-.32 4.052-.97a10.39 10.39 0 002.906-2.59l2.759 2.15c-2.214 3.4-5.534 5.1-9.961 5.1zm-.562-23.68c-1.823 0-3.353.66-4.59 2-1.237 1.32-2.002 3.17-2.295 5.57h13.233v-.35c-.13-2.29-.749-4.07-1.856-5.32-1.107-1.27-2.604-1.9-4.492-1.9zm20.386-3.23l.146 3.32c2.019-2.53 4.655-3.8 7.91-3.8 5.583 0 8.399 3.15 8.448 9.44V1897h-4.517v-17.48c-.016-1.9-.456-3.31-1.318-4.22-.847-.92-2.173-1.37-3.98-1.37-1.465 0-2.75.39-3.857 1.17-1.107.78-1.97 1.81-2.588 3.08V1897h-4.517v-26.42h4.273zm38.696 19.41c0-1.22-.464-2.16-1.392-2.83-.911-.68-2.514-1.27-4.809-1.76-2.279-.48-4.094-1.07-5.444-1.75-1.335-.69-2.328-1.5-2.979-2.45-.635-.94-.952-2.06-.952-3.37 0-2.16.911-3.99 2.734-5.49 1.839-1.5 4.183-2.24 7.032-2.24 2.994 0 5.419.77 7.275 2.32 1.872 1.54 2.808 3.52 2.808 5.93h-4.541c0-1.24-.529-2.31-1.587-3.2-1.042-.9-2.36-1.34-3.955-1.34-1.644 0-2.93.35-3.858 1.07-.928.72-1.391 1.65-1.391 2.81 0 1.09.431 1.91 1.293 2.46.863.56 2.417 1.09 4.664 1.59 2.262.51 4.093 1.11 5.493 1.81 1.399.7 2.433 1.54 3.1 2.54.684.97 1.026 2.17 1.026 3.59 0 2.36-.944 4.25-2.832 5.68-1.888 1.42-4.338 2.13-7.349 2.13-2.116 0-3.988-.38-5.615-1.12-1.628-.75-2.905-1.8-3.833-3.13-.912-1.35-1.367-2.81-1.367-4.37h4.516c.082 1.51.684 2.72 1.807 3.61 1.139.88 2.637 1.32 4.492 1.32 1.709 0 3.076-.34 4.102-1.02 1.041-.7 1.562-1.63 1.562-2.79zm26.709 7.01c-.26-.52-.472-1.45-.635-2.78-2.099 2.18-4.606 3.27-7.519 3.27-2.604 0-4.745-.73-6.421-2.2-1.66-1.48-2.49-3.35-2.49-5.61 0-2.75 1.041-4.89 3.125-6.4 2.099-1.53 5.045-2.3 8.838-2.3h4.394v-2.07c0-1.58-.472-2.83-1.416-3.76-.944-.94-2.336-1.42-4.175-1.42-1.611 0-2.962.41-4.052 1.22-1.091.82-1.636 1.8-1.636 2.96h-4.541c0-1.32.464-2.59 1.391-3.81.944-1.24 2.214-2.21 3.809-2.93 1.611-.72 3.377-1.07 5.298-1.07 3.043 0 5.428.76 7.153 2.29 1.725 1.51 2.621 3.61 2.686 6.28v12.15c0 2.43.309 4.36.927 5.79v.39h-4.736zm-7.495-3.44c1.416 0 2.759-.37 4.028-1.1 1.27-.73 2.189-1.69 2.759-2.86v-5.42h-3.54c-5.534 0-8.301 1.62-8.301 4.86 0 1.42.472 2.52 1.416 3.32.944.8 2.157 1.2 3.638 1.2zm43.555-18.92c-.684-.12-1.425-.17-2.222-.17-2.962 0-4.972 1.26-6.03 3.78V1897h-4.517v-26.42h4.395l.073 3.06c1.481-2.36 3.581-3.54 6.299-3.54.879 0 1.546.11 2.002.34v4.2zm19.506 22.36c-.26-.52-.472-1.45-.634-2.78-2.1 2.18-4.606 3.27-7.52 3.27-2.604 0-4.744-.73-6.421-2.2-1.66-1.48-2.49-3.35-2.49-5.61 0-2.75 1.042-4.89 3.125-6.4 2.1-1.53 5.046-2.3 8.838-2.3h4.394v-2.07c0-1.58-.472-2.83-1.416-3.76-.944-.94-2.335-1.42-4.174-1.42-1.612 0-2.963.41-4.053 1.22-1.091.82-1.636 1.8-1.636 2.96h-4.541c0-1.32.464-2.59 1.392-3.81.944-1.24 2.213-2.21 3.808-2.93 1.612-.72 3.378-1.07 5.298-1.07 3.044 0 5.428.76 7.154 2.29 1.725 1.51 2.62 3.61 2.685 6.28v12.15c0 2.43.309 4.36.928 5.79v.39h-4.737zm-7.495-3.44c1.416 0 2.759-.37 4.029-1.1 1.269-.73 2.189-1.69 2.758-2.86v-5.42h-3.54c-5.533 0-8.3 1.62-8.3 4.86 0 1.42.472 2.52 1.416 3.32.944.8 2.156 1.2 3.637 1.2zm4.175-34.06h5.469l-6.543 7.18h-3.638l4.712-7.18zm36.524 24.58c0 4.03-.92 7.26-2.759 9.72-1.839 2.46-4.33 3.69-7.471 3.69-3.206 0-5.729-1.02-7.568-3.05v12.72h-4.517v-36.58h4.126l.22 2.93c1.839-2.27 4.394-3.41 7.666-3.41 3.174 0 5.68 1.19 7.519 3.58 1.856 2.4 2.784 5.73 2.784 9.99v.41zm-4.517-.51c0-2.98-.635-5.33-1.904-7.05-1.27-1.73-3.011-2.59-5.225-2.59-2.734 0-4.785 1.21-6.152 3.64v12.62c1.351 2.41 3.418 3.61 6.201 3.61 2.165 0 3.882-.85 5.151-2.56 1.286-1.73 1.929-4.28 1.929-7.67zm15.186 13.43h-4.517v-26.42h4.517V1897zm-4.883-33.42c0-.74.219-1.35.659-1.86.456-.5 1.123-.76 2.002-.76.879 0 1.546.26 2.002.76.456.51.683 1.12.683 1.86 0 .73-.227 1.34-.683 1.83-.456.49-1.123.73-2.002.73-.879 0-1.546-.24-2.002-.73-.44-.49-.659-1.1-.659-1.83zm11.039 19.99c0-4.05.96-7.31 2.88-9.76 1.92-2.48 4.43-3.71 7.54-3.71 3.09 0 5.54 1.05 7.35 3.17v-13.77h4.52v37.5h-4.15l-.22-2.83c-1.81 2.21-4.33 3.32-7.55 3.32-3.06 0-5.56-1.25-7.49-3.76-1.92-2.51-2.88-5.78-2.88-9.82v-.34zm4.51.51c0 3 .62 5.34 1.86 7.04 1.23 1.69 2.94 2.54 5.12 2.54 2.87 0 4.96-1.29 6.28-3.86v-12.14c-1.35-2.49-3.43-3.73-6.23-3.73-2.21 0-3.94.85-5.17 2.56-1.24 1.71-1.86 4.24-1.86 7.59zm23.61-.53c0-2.59.51-4.92 1.51-6.98 1.03-2.07 2.45-3.67 4.25-4.79 1.83-1.12 3.9-1.68 6.23-1.68 3.6 0 6.5 1.24 8.71 3.73 2.23 2.49 3.35 5.8 3.35 9.94v.31c0 2.58-.5 4.89-1.49 6.94-.98 2.03-2.38 3.62-4.22 4.76-1.83 1.14-3.93 1.71-6.3 1.71-3.58 0-6.49-1.25-8.72-3.74-2.21-2.49-3.32-5.78-3.32-9.88v-.32zm4.54.53c0 2.93.68 5.29 2.03 7.06 1.37 1.77 3.19 2.66 5.47 2.66 2.29 0 4.11-.89 5.47-2.68 1.35-1.81 2.02-4.33 2.02-7.57 0-2.9-.69-5.24-2.07-7.03-1.37-1.81-3.19-2.71-5.47-2.71-2.23 0-4.03.88-5.4 2.66-1.36 1.77-2.05 4.31-2.05 7.61zm30.23 2.89h-4.08l-.32-25.52h4.74l-.34 25.52zm-4.57 7.76c0-.73.22-1.34.66-1.83.46-.51 1.12-.76 2-.76.88 0 1.55.25 2 .76.46.49.69 1.1.69 1.83s-.23 1.34-.69 1.83c-.45.47-1.12.71-2 .71-.88 0-1.54-.24-2-.71-.44-.49-.66-1.1-.66-1.83zm-170.287 44.5l5.859-9.65h5.274l-8.643 13.07 8.911 13.35h-5.224l-6.104-9.89-6.103 9.89h-5.249l8.911-13.35-8.643-13.07h5.225l5.786 9.65zm39.526.93c-4.02-1.16-6.949-2.58-8.789-4.25-1.823-1.7-2.734-3.78-2.734-6.25 0-2.8 1.115-5.11 3.345-6.94 2.246-1.84 5.159-2.76 8.74-2.76 2.441 0 4.614.48 6.518 1.42 1.921.94 3.402 2.25 4.444 3.91a9.916 9.916 0 011.587 5.44h-4.712c0-2.15-.684-3.83-2.051-5.05-1.367-1.24-3.296-1.86-5.786-1.86-2.311 0-4.118.51-5.42 1.54-1.286 1.01-1.929 2.42-1.929 4.22 0 1.45.611 2.68 1.831 3.69 1.237.99 3.329 1.9 6.275 2.73 2.962.83 5.273 1.75 6.933 2.76 1.677 1 2.914 2.16 3.711 3.49.814 1.34 1.221 2.91 1.221 4.72 0 2.88-1.123 5.19-3.369 6.93-2.246 1.73-5.249 2.59-9.009 2.59-2.441 0-4.72-.47-6.836-1.39-2.116-.95-3.752-2.23-4.907-3.86-1.139-1.63-1.709-3.48-1.709-5.54h4.712c0 2.15.789 3.85 2.368 5.1 1.595 1.24 3.719 1.86 6.372 1.86 2.474 0 4.37-.51 5.689-1.52 1.318-1.01 1.977-2.38 1.977-4.12 0-1.75-.61-3.09-1.831-4.03-1.221-.96-3.434-1.91-6.641-2.83z"/>
  <path fill="#C4C4C4" d="M1505 1670h165v280h-165z"/>
  <ellipse cx="1588" cy="1810" fill="#1AF407" rx="68" ry="70"/>
  <path fill="#C4C4C4" d="M2814 1660h165v280h-165zM2081 1670h165v280h-165z"/>
  <ellipse cx="2164" cy="1810" fill="#F40707" rx="68" ry="70"/>
  <path fill="#C4C4C4" d="M1793 1670h165v280h-165z"/>
  <ellipse cx="1876" cy="1810" fill="#0C07F4" rx="68" ry="70"/>
  <path fill="#C4C4C4" d="M2818 1721h157v157h-157z"/>
  <path stroke="#000" d="M2818.35 1724.98l157 152.66M2817.65 1877.65l157-157"/>
  <path fill="#C4C4C4" stroke="#000" stroke-width="3" d="M2810.5 1661.5h162v277h-162z"/>
  <path fill="#C4C4C4" d="M2822 1725h157v157h-157z"/>
  <path stroke="#000" d="M2822.35 1728.98l157 152.66M2821.65 1881.65l157-157"/>
  <path fill="#C4C4C4" d="M2918 1602h165v280h-165z"/>
  <path fill="#C4C4C4" d="M2922 1663h157v157h-157z"/>
  <path stroke="#000" d="M2922.35 1666.98l157 152.66M2921.65 1819.65l157-157"/>
  <path fill="#C4C4C4" d="M2919.5 1603.5h162v277h-162z"/>
  <path stroke="#000" stroke-width="3" d="M2919.5 1603.5h162v277h-162z"/>
  <path stroke="url(#paint0_linear)" stroke-width="3" d="M2919.5 1603.5h162v277h-162z"/>
  <path fill="#C4C4C4" d="M2926 1667h157v157h-157z"/>
  <path stroke="#000" d="M2926.35 1670.98l157 152.66M2925.65 1823.65l157-157"/>
  <path fill="#C4C4C4" d="M3053 1540h165v280h-165z"/>
  <g>
    <path fill="#C4C4C4" d="M3057 1601h157v157h-157z"/>
    <path stroke="#000" d="M3057.35 1604.98l157 152.66M3056.65 1757.65l157-157"/>
  </g>
  <g>
    <path fill="#C4C4C4" d="M3054.5 1541.5h162v277h-162z"/>
    <path stroke="#000" stroke-width="3" d="M3054.5 1541.5h162v277h-162z"/>
    <path stroke="url(#paint1_linear)" stroke-width="3" d="M3054.5 1541.5h162v277h-162z"/>
  </g>
  <g>
    <path fill="#C4C4C4" d="M3061 1605h157v157h-157z"/>
    <path stroke="#000" d="M3061.35 1608.98l157 152.66M3060.65 1761.65l157-157"/>
  </g>
  <path fill="#000" d="M2513.99 1759.31h-11.42V1791h-4.67v-31.69h-11.4v-3.86h27.49v3.86zm.93 18.24c0-2.59.51-4.92 1.51-6.98 1.03-2.07 2.45-3.67 4.25-4.79 1.83-1.12 3.9-1.68 6.23-1.68 3.6 0 6.5 1.24 8.71 3.73 2.23 2.49 3.35 5.8 3.35 9.94v.31c0 2.58-.5 4.89-1.49 6.94-.98 2.03-2.38 3.62-4.22 4.76-1.83 1.14-3.93 1.71-6.3 1.71-3.58 0-6.49-1.25-8.72-3.74-2.21-2.49-3.32-5.78-3.32-9.88v-.32zm4.54.53c0 2.93.68 5.29 2.03 7.06 1.37 1.77 3.19 2.66 5.47 2.66 2.29 0 4.11-.89 5.47-2.68 1.35-1.81 2.02-4.33 2.02-7.57 0-2.9-.69-5.24-2.07-7.03-1.37-1.81-3.19-2.71-5.47-2.71-2.23 0-4.03.88-5.4 2.66-1.36 1.77-2.05 4.31-2.05 7.61zm29.42-13.5l.12 2.93c1.94-2.27 4.55-3.41 7.84-3.41 3.69 0 6.21 1.41 7.54 4.24.88-1.27 2.02-2.29 3.42-3.07 1.42-.78 3.09-1.17 5.01-1.17 5.79 0 8.74 3.06 8.83 9.2v17.7h-4.51v-17.43c0-1.89-.43-3.3-1.3-4.23-.86-.94-2.31-1.41-4.34-1.41-1.68 0-3.07.5-4.18 1.51-1.1 1-1.75 2.34-1.93 4.03V1791h-4.54v-17.31c0-3.84-1.88-5.76-5.64-5.76-2.96 0-4.98 1.26-6.08 3.78V1791h-4.51v-26.42h4.27zm55.91 26.42c-.26-.52-.47-1.45-.64-2.78-2.1 2.18-4.6 3.27-7.52 3.27-2.6 0-4.74-.73-6.42-2.2-1.66-1.48-2.49-3.35-2.49-5.61 0-2.75 1.05-4.89 3.13-6.4 2.1-1.53 5.04-2.3 8.84-2.3h4.39v-2.07c0-1.58-.47-2.83-1.41-3.76-.95-.94-2.34-1.42-4.18-1.42-1.61 0-2.96.41-4.05 1.22-1.09.82-1.64 1.8-1.64 2.96h-4.54c0-1.32.46-2.59 1.39-3.81.95-1.24 2.22-2.21 3.81-2.93 1.61-.72 3.38-1.07 5.3-1.07 3.04 0 5.43.76 7.15 2.29 1.73 1.51 2.62 3.61 2.69 6.28v12.15c0 2.43.31 4.36.93 5.79v.39h-4.74zm-7.5-3.44c1.42 0 2.76-.37 4.03-1.1 1.27-.73 2.19-1.69 2.76-2.86v-5.42h-3.54c-5.53 0-8.3 1.62-8.3 4.86 0 1.42.47 2.52 1.42 3.32.94.8 2.15 1.2 3.63 1.2zm31.16-18.92c-.69-.12-1.43-.17-2.23-.17-2.96 0-4.97 1.26-6.03 3.78V1791h-4.51v-26.42h4.39l.08 3.06c1.48-2.36 3.58-3.54 6.29-3.54.88 0 1.55.11 2.01.34v4.2zm27.17 19.16c1.61 0 3.02-.49 4.22-1.46 1.21-.98 1.87-2.2 2-3.67h4.28c-.08 1.52-.61 2.96-1.57 4.33-.96 1.36-2.24 2.45-3.85 3.27-1.6.81-3.29 1.22-5.08 1.22-3.6 0-6.46-1.2-8.59-3.59-2.12-2.41-3.18-5.7-3.18-9.86v-.76c0-2.57.47-4.86 1.42-6.86.94-2 2.29-3.56 4.05-4.66 1.77-1.11 3.87-1.66 6.27-1.66 2.97 0 5.42.88 7.38 2.66 1.97 1.77 3.02 4.07 3.15 6.91h-4.28c-.13-1.71-.78-3.11-1.95-4.2-1.15-1.11-2.59-1.66-4.3-1.66-2.29 0-4.07.83-5.34 2.49-1.26 1.64-1.88 4.03-1.88 7.15v.85c0 3.05.62 5.39 1.88 7.04 1.25 1.64 3.04 2.46 5.37 2.46zm31.88 3.2c-.26-.52-.47-1.45-.63-2.78-2.1 2.18-4.61 3.27-7.52 3.27-2.6 0-4.74-.73-6.42-2.2-1.66-1.48-2.49-3.35-2.49-5.61 0-2.75 1.04-4.89 3.12-6.4 2.1-1.53 5.05-2.3 8.84-2.3h4.4v-2.07c0-1.58-.48-2.83-1.42-3.76-.94-.94-2.34-1.42-4.17-1.42-1.62 0-2.97.41-4.06 1.22-1.09.82-1.63 1.8-1.63 2.96h-4.54c0-1.32.46-2.59 1.39-3.81.94-1.24 2.21-2.21 3.81-2.93 1.61-.72 3.37-1.07 5.29-1.07 3.05 0 5.43.76 7.16 2.29 1.72 1.51 2.62 3.61 2.68 6.28v12.15c0 2.43.31 4.36.93 5.79v.39h-4.74zm-7.49-3.44c1.41 0 2.76-.37 4.03-1.1 1.27-.73 2.19-1.69 2.76-2.86v-5.42h-3.54c-5.54 0-8.3 1.62-8.3 4.86 0 1.42.47 2.52 1.41 3.32.95.8 2.16 1.2 3.64 1.2zm31.15-18.92c-.68-.12-1.42-.17-2.22-.17-2.96 0-4.97 1.26-6.03 3.78V1791h-4.52v-26.42h4.4l.07 3.06c1.48-2.36 3.58-3.54 6.3-3.54.88 0 1.55.11 2 .34v4.2zm11.52-10.45v6.39h4.94v3.5h-4.94v16.38c0 1.05.22 1.85.66 2.39.44.52 1.19.78 2.25.78.52 0 1.24-.1 2.15-.29v3.66c-1.19.33-2.35.49-3.47.49-2.02 0-3.54-.61-4.56-1.83-1.03-1.22-1.54-2.96-1.54-5.2v-16.38h-4.81v-3.5h4.81v-6.39h4.51zm26.54 32.81c-.26-.52-.47-1.45-.63-2.78-2.1 2.18-4.61 3.27-7.52 3.27-2.61 0-4.75-.73-6.42-2.2-1.66-1.48-2.49-3.35-2.49-5.61 0-2.75 1.04-4.89 3.12-6.4 2.1-1.53 5.05-2.3 8.84-2.3h4.39v-2.07c0-1.58-.47-2.83-1.41-3.76-.95-.94-2.34-1.42-4.18-1.42-1.61 0-2.96.41-4.05 1.22-1.09.82-1.63 1.8-1.63 2.96h-4.55c0-1.32.47-2.59 1.4-3.81.94-1.24 2.21-2.21 3.8-2.93 1.62-.72 3.38-1.07 5.3-1.07 3.05 0 5.43.76 7.16 2.29 1.72 1.51 2.62 3.61 2.68 6.28v12.15c0 2.43.31 4.36.93 5.79v.39h-4.74zm-7.49-3.44c1.41 0 2.76-.37 4.03-1.1 1.27-.73 2.18-1.69 2.75-2.86v-5.42h-3.54c-5.53 0-8.3 1.62-8.3 4.86 0 1.42.48 2.52 1.42 3.32.94.8 2.16 1.2 3.64 1.2zm-133.91 46.72l15.28 6.17v4.79l-19.97-9.25v-3.57l19.97-9.23v4.79l-15.28 6.3zm31.81 2.46h-11.92v-3.68h11.92v3.68zM2778 710h148v88h-148zM2778 578h148v88h-148z"/>
  <path fill="#C4C4C4" d="M2778 1253h148v88h-148zM2778 1119h148v88h-148zM2778 1375h148v88h-148zM2778 842h148v88h-148zM2778 975h148v88h-148z"/>
  <g>
    <path fill="#C4C4C4" stroke="#000" d="M1372.63 803.215c0 11.498-6.14 21.944-16.12 29.531-9.99 7.588-23.8 12.296-39.09 12.296-15.28 0-29.09-4.708-39.08-12.296-9.99-7.587-16.12-18.033-16.12-29.531 0-11.499 6.13-21.944 16.12-29.532 9.99-7.588 23.8-12.295 39.08-12.295 15.29 0 29.1 4.707 39.09 12.295 9.98 7.588 16.12 18.033 16.12 29.532z"/>
    <path fill="#AFBEAE" stroke="#000" d="M2498.27 1070.82c0 125.49-82.42 239.18-215.82 321.52-133.4 82.33-317.72 133.28-521.35 133.28-203.62 0-387.94-50.95-521.34-133.28-133.41-82.34-215.82-196.03-215.82-321.52 0-125.486 82.41-239.173 215.82-321.514 133.4-82.336 317.72-133.278 521.34-133.278 203.63 0 387.95 50.942 521.35 133.278 133.4 82.341 215.82 196.028 215.82 321.514z"/>
    <path fill="#fff" stroke="#000" d="M2259.99 1071.1c0 85.43-55.75 162.84-146.03 218.93-90.28 56.08-215.03 90.78-352.86 90.78-137.82 0-262.57-34.7-352.85-90.78-90.28-56.09-146.03-133.5-146.03-218.93 0-85.426 55.75-162.843 146.03-218.928 90.28-56.081 215.03-90.784 352.85-90.784 137.83 0 262.58 34.703 352.86 90.784 90.28 56.085 146.03 133.502 146.03 218.928z"/>
    <path fill="#CBBB29" stroke="#000" d="M2017.06 1055.51c0 46.37-28.52 88.42-74.77 118.9-46.25 30.48-110.17 49.35-180.8 49.35-70.63 0-134.55-18.87-180.79-49.35-46.26-30.48-74.78-72.53-74.78-118.9 0-46.38 28.52-88.432 74.78-118.911 46.24-30.477 110.16-49.344 180.79-49.344s134.55 18.867 180.8 49.344c46.25 30.479 74.77 72.531 74.77 118.911z"/>
    <path fill="#C4C4C4" stroke="#000" d="M1521.16 1055.23c0 23.07-14.4 44.03-37.84 59.24-23.42 15.21-55.82 24.63-91.63 24.63-35.8 0-68.2-9.42-91.63-24.63-23.43-15.21-37.84-36.17-37.84-59.24 0-23.08 14.41-44.03 37.84-59.246 23.43-15.209 55.83-24.632 91.63-24.632 35.81 0 68.21 9.423 91.63 24.632 23.44 15.216 37.84 36.166 37.84 59.246z"/>
    <path fill="#C4C4C4" stroke="#000" d="M1521.16 1055.23c0 23.07-14.4 44.03-37.84 59.24-23.42 15.21-55.82 24.63-91.63 24.63-35.8 0-68.2-9.42-91.63-24.63-23.43-15.21-37.84-36.17-37.84-59.24 0-23.08 14.41-44.03 37.84-59.246 23.43-15.209 55.83-24.632 91.63-24.632 35.81 0 68.21 9.423 91.63 24.632 23.44 15.216 37.84 36.166 37.84 59.246z"/>
    <path fill="#C4C4C4" stroke="#000" d="M1521.16 1055.23c0 23.07-14.4 44.03-37.84 59.24-23.42 15.21-55.82 24.63-91.63 24.63-35.8 0-68.2-9.42-91.63-24.63-23.43-15.21-37.84-36.17-37.84-59.24 0-23.08 14.41-44.03 37.84-59.246 23.43-15.209 55.83-24.632 91.63-24.632 35.81 0 68.21 9.423 91.63 24.632 23.44 15.216 37.84 36.166 37.84 59.246z"/>
    <path fill="#000" stroke="#000" d="M1446.9 1245.7c0 23.07-14.41 44.03-37.84 59.24-23.43 15.21-55.83 24.64-91.64 24.64-35.8 0-68.2-9.43-91.63-24.64-23.43-15.21-37.84-36.17-37.84-59.24s14.41-44.03 37.84-59.24c23.43-15.21 55.83-24.64 91.63-24.64 35.81 0 68.21 9.43 91.64 24.64 23.43 15.21 37.84 36.17 37.84 59.24z"/>
    <path fill="#C4C4C4" stroke="#000" d="M2620.5 1139.32c0 23.08-14.41 44.04-37.84 59.25-23.43 15.21-55.82 24.63-91.63 24.63-35.81 0-68.2-9.42-91.63-24.63-23.43-15.21-37.84-36.17-37.84-59.25 0-23.07 14.41-44.03 37.84-59.24 23.43-15.21 55.82-24.63 91.63-24.63 35.81 0 68.2 9.42 91.63 24.63 23.43 15.21 37.84 36.17 37.84 59.24zM2418.58 760.609c0 23.075-14.41 44.031-37.84 59.243-23.43 15.21-55.82 24.633-91.63 24.633-35.81 0-68.2-9.423-91.63-24.633-23.43-15.212-37.84-36.168-37.84-59.243 0-23.074 14.41-44.031 37.84-59.243 23.43-15.209 55.82-24.632 91.63-24.632 35.81 0 68.2 9.423 91.63 24.632 23.43 15.212 37.84 36.169 37.84 59.243zM2108.35 640.311c0 23.075-14.4 44.031-37.84 59.244-23.42 15.209-55.82 24.632-91.63 24.632-35.81 0-68.2-9.423-91.63-24.632-23.43-15.213-37.84-36.169-37.84-59.244 0-23.074 14.41-44.031 37.84-59.243 23.43-15.209 55.82-24.632 91.63-24.632 35.81 0 68.21 9.423 91.63 24.632 23.44 15.212 37.84 36.169 37.84 59.243z"/>
    <path fill="#000" stroke="#000" d="M2108.35 640.311c0 23.075-14.4 44.031-37.84 59.244-23.42 15.209-55.82 24.632-91.63 24.632-35.81 0-68.2-9.423-91.63-24.632-23.43-15.213-37.84-36.169-37.84-59.244 0-23.074 14.41-44.031 37.84-59.243 23.43-15.209 55.82-24.632 91.63-24.632 35.81 0 68.21 9.423 91.63 24.632 23.44 15.212 37.84 36.169 37.84 59.243zM1405.89 761.166c0 23.074-14.4 44.031-37.84 59.243-23.42 15.209-55.82 24.633-91.63 24.633-35.81 0-68.2-9.424-91.63-24.633-23.43-15.212-37.84-36.169-37.84-59.243 0-23.074 14.41-44.031 37.84-59.243 23.43-15.209 55.82-24.632 91.63-24.632 35.81 0 68.21 9.423 91.63 24.632 23.44 15.212 37.84 36.169 37.84 59.243z"/>
    <path fill="#C4C4C4" stroke="#000" d="M1203.2 948.853c0 23.074-14.41 44.031-37.84 59.247-23.43 15.21-55.82 24.63-91.63 24.63-35.81 0-68.2-9.42-91.631-24.63-23.433-15.216-37.84-36.173-37.84-59.247 0-23.074 14.407-44.031 37.84-59.243 23.431-15.209 55.821-24.632 91.631-24.632s68.2 9.423 91.63 24.632c23.43 15.212 37.84 36.169 37.84 59.243z"/>
    <path fill="#000" stroke="#000" d="M1145.44 1182.38c0 23.07-14.41 44.03-37.84 59.24-23.43 15.21-55.82 24.63-91.63 24.63-35.807 0-68.202-9.42-91.63-24.63-23.433-15.21-37.84-36.17-37.84-59.24 0-23.08 14.407-44.04 37.84-59.25 23.428-15.21 55.823-24.63 91.63-24.63 35.81 0 68.2 9.42 91.63 24.63 23.43 15.21 37.84 36.17 37.84 59.25z"/>
    <path fill="#C4C4C4" stroke="#000" d="M1200.88 1433.39c0 23.07-14.41 44.03-37.84 59.24-23.43 15.21-55.82 24.63-91.63 24.63-35.81 0-68.2-9.42-91.633-24.63-23.432-15.21-37.839-36.17-37.839-59.24 0-23.08 14.407-44.03 37.839-59.25 23.433-15.21 55.823-24.63 91.633-24.63 35.81 0 68.2 9.42 91.63 24.63 23.43 15.22 37.84 36.17 37.84 59.25zM1760.99 621.376c0 23.074-14.41 44.031-37.84 59.243-23.43 15.209-55.82 24.632-91.63 24.632-35.81 0-68.2-9.423-91.63-24.632-23.43-15.212-37.84-36.169-37.84-59.243 0-23.075 14.41-44.031 37.84-59.244 23.43-15.209 55.82-24.632 91.63-24.632 35.81 0 68.2 9.423 91.63 24.632 23.43 15.213 37.84 36.169 37.84 59.244z"/>
    <path fill="#000" stroke="#000" d="M2610.44 929.917c0 23.075-14.4 44.031-37.84 59.244-23.43 15.209-55.82 24.629-91.63 24.629-35.81 0-68.2-9.42-91.63-24.629-23.43-15.213-37.84-36.169-37.84-59.244 0-23.074 14.41-44.031 37.84-59.243 23.43-15.209 55.82-24.632 91.63-24.632 35.81 0 68.2 9.423 91.63 24.632 23.44 15.212 37.84 36.169 37.84 59.243zM2480.47 1308.63c0 23.08-14.41 44.03-37.84 59.25-23.43 15.21-55.82 24.63-91.63 24.63-35.81 0-68.2-9.42-91.63-24.63-23.43-15.22-37.84-36.17-37.84-59.25 0-23.07 14.41-44.03 37.84-59.24 23.43-15.21 55.82-24.63 91.63-24.63 35.81 0 68.2 9.42 91.63 24.63 23.43 15.21 37.84 36.17 37.84 59.24z"/>
    <path fill="#C4C4C4" stroke="#000" d="M2220.53 1441.74c0 23.07-14.41 44.03-37.84 59.24-23.43 15.21-55.82 24.64-91.63 24.64-35.81 0-68.2-9.43-91.63-24.64-23.43-15.21-37.84-36.17-37.84-59.24s14.41-44.03 37.84-59.24c23.43-15.21 55.82-24.64 91.63-24.64 35.81 0 68.2 9.43 91.63 24.64 23.43 15.21 37.84 36.17 37.84 59.24z"/>
    <path fill="#000" stroke="#000" d="M1906.43 1484.62c0 23.08-14.4 44.04-37.84 59.25-23.42 15.21-55.82 24.63-91.63 24.63-35.8 0-68.2-9.42-91.63-24.63-23.43-15.21-37.84-36.17-37.84-59.25 0-23.07 14.41-44.03 37.84-59.24 23.43-15.21 55.83-24.63 91.63-24.63 35.81 0 68.21 9.42 91.63 24.63 23.44 15.21 37.84 36.17 37.84 59.24z"/>
    <path fill="#C4C4C4" stroke="#000" d="M1620.96 1433.39c0 23.07-14.4 44.03-37.84 59.24-23.42 15.21-55.82 24.63-91.63 24.63-35.81 0-68.2-9.42-91.63-24.63-23.43-15.21-37.84-36.17-37.84-59.24 0-23.08 14.41-44.03 37.84-59.25 23.43-15.21 55.82-24.63 91.63-24.63 35.81 0 68.21 9.42 91.63 24.63 23.44 15.22 37.84 36.17 37.84 59.25zM1960.59 826.885c0 23.074-14.41 44.031-37.84 59.243-23.43 15.209-55.82 24.632-91.63 24.632-35.81 0-68.2-9.423-91.63-24.632-23.44-15.212-37.84-36.169-37.84-59.243 0-23.075 14.4-44.031 37.84-59.244 23.43-15.209 55.82-24.632 91.63-24.632 35.81 0 68.2 9.423 91.63 24.632 23.43 15.213 37.84 36.169 37.84 59.244z"/>
    <path fill="#000" stroke="#000" d="M2009.44 1224.38c0 23.07-14.41 44.03-37.84 59.24-23.43 15.21-55.82 24.63-91.63 24.63-35.81 0-68.2-9.42-91.63-24.63-23.43-15.21-37.84-36.17-37.84-59.24 0-23.08 14.41-44.04 37.84-59.25 23.43-15.21 55.82-24.63 91.63-24.63 35.81 0 68.2 9.42 91.63 24.63 23.43 15.21 37.84 36.17 37.84 59.25z"/>
    <path fill="#C4C4C4" stroke="#000" d="M2259.99 1098.67c0 23.07-14.41 44.03-37.84 59.24-23.43 15.21-55.83 24.63-91.63 24.63-35.81 0-68.21-9.42-91.64-24.63-23.43-15.21-37.84-36.17-37.84-59.24 0-23.08 14.41-44.03 37.84-59.24 23.43-15.21 55.83-24.64 91.64-24.64 35.8 0 68.2 9.43 91.63 24.64 23.43 15.21 37.84 36.16 37.84 59.24z"/>
    <path fill="#000" stroke="#000" d="M2220.53 929.917c0 23.075-14.41 44.031-37.84 59.244-23.43 15.209-55.82 24.629-91.63 24.629-35.81 0-68.2-9.42-91.63-24.629-23.43-15.213-37.84-36.169-37.84-59.244 0-23.074 14.41-44.031 37.84-59.243 23.43-15.209 55.82-24.632 91.63-24.632 35.81 0 68.2 9.423 91.63 24.632 23.43 15.212 37.84 36.169 37.84 59.243zM1665.83 864.756c0 23.074-14.4 44.031-37.84 59.243-23.42 15.209-55.82 24.633-91.63 24.633-35.8 0-68.2-9.424-91.63-24.633-23.43-15.212-37.84-36.169-37.84-59.243 0-23.074 14.41-44.031 37.84-59.243 23.43-15.209 55.83-24.633 91.63-24.633 35.81 0 68.21 9.424 91.63 24.633 23.44 15.212 37.84 36.169 37.84 59.243z"/>
  </g>
  <g>
    <path fill="#C4C4C4" d="M1201 1485h157v157h-157z"/>
    <path stroke="#000" d="M1201.35 1488.98l157 152.66M1200.65 1641.65l157-157"/>
  </g>
  <defs>
    <linearGradient id="paint0_linear" x1="3000.5" x2="3000.5" y1="1602" y2="1882" gradientUnits="userSpaceOnUse">
      <stop stop-color="#fff"/>
      <stop offset="1" stop-color="#fff" stop-opacity="0"/>
    </linearGradient>
    <linearGradient id="paint1_linear" x1="3135.5" x2="3135.5" y1="1540" y2="1820" gradientUnits="userSpaceOnUse">
      <stop stop-color="#fff"/>
      <stop offset="1" stop-color="#fff" stop-opacity="0"/>
    </linearGradient>
  </defs>
</svg>
