<svg width="85" height="101" viewBox="0 0 85 101" fill="none" xmlns="http://www.w3.org/2000/svg">
<g clip-path="url(#clip0)">
<path d="M59.1596 100.716C74.0958 100.716 83.6396 87.7052 83.6396 69.8512C83.6396 50.9671 68.3396 37.9714 67.3196 24.9467C66.5793 15.4946 72.5966 12.1755 79.1339 14.7099C79.9191 15.0144 80.6545 14.107 80.3238 13.2035C78.3885 7.9163 72.5983 -3.74074 60.3497 1.18901C45.8932 7.0073 50.6596 31.0675 54.7396 43.4539L59.1596 100.716Z" fill="#D26437"/>
<path d="M4.08069 53.6066C3.32889 53.6066 2.7207 52.8792 2.7207 51.9822V49.8644C2.7207 48.9674 3.32906 48.24 4.08069 48.24C4.83233 48.24 5.44068 48.9674 5.44068 49.8644V51.9822C5.44068 52.8794 4.83249 53.6066 4.08069 53.6066Z" fill="#DCAA82"/>
<path d="M4.07966 60.1043C2.20189 60.1043 0.679688 58.2861 0.679688 56.0432V54.4187C0.679688 52.1759 2.20189 50.3577 4.07966 50.3577C5.95743 50.3577 7.47963 52.1759 7.47963 54.4187V56.0432C7.47963 58.2861 5.95743 60.1043 4.07966 60.1043Z" fill="#965A50"/>
<path d="M38.1931 79.0279C32.8976 71.9524 30.2031 62.9081 30.2031 62.9081L40.6865 57.2617L44.1997 69.0389L38.1931 79.0279Z" fill="#F5DCB4"/>
<path d="M26.9734 18.6811C26.907 18.6811 26.8392 18.6756 26.7701 18.6628C26.0277 18.5304 25.5151 17.7031 25.6266 16.8155L26.1366 12.7544C26.2481 11.8692 26.9281 11.2529 27.6838 11.3893C28.4262 11.5216 28.9389 12.349 28.8274 13.2366L28.3174 17.2976C28.2166 18.1028 27.6362 18.6811 26.9734 18.6811Z" fill="#D26437"/>
<path d="M35.0702 33.098C34.9992 32.7262 34.9167 32.3657 34.8243 32.0167C33.6876 27.72 29.4337 23.9254 25.6976 23.3003C21.4913 22.5964 17.1597 24.0139 14.0315 27.4711C10.0154 31.9097 8.40528 37.7673 7.94003 40.6544C7.78095 41.6415 8.08957 42.6343 8.74009 43.2721C9.52202 44.0388 10.7974 44.9929 12.6144 45.4638C12.6144 45.4638 13.8485 48.6521 16.8233 51.3417C12.4118 51.3228 8.87431 50.281 7.40266 51.0175C5.57035 52.0526 5.06113 53.753 4.95507 54.992C4.8729 55.9541 5.44864 56.8138 6.24441 56.9916C8.45979 57.4865 13.3611 58.3294 18.495 60.9842C27.7882 65.7898 32.3334 63.7805 34.6451 62.4902C39.4051 59.8335 43.9793 62.5786 40.6376 68.2773C33.2851 80.8159 41.445 90.8672 46.12 94.2176H40.0851C37.6918 94.2176 35.6594 96.0637 34.9317 98.6286C34.64 99.6564 35.3315 100.715 36.2401 100.715H58.0131C60.8123 100.715 63.4063 98.9611 64.8465 96.094L66.605 92.5932C77.712 65.5194 60.4852 34.1134 35.0702 33.098Z" fill="#EB874B"/>
<path d="M26.1809 15.527C24.6115 17.3719 23.4679 21.3431 22.8116 23.2118C21.8887 25.8399 23.4158 28.7659 25.7975 28.9353C27.924 29.0866 29.7456 26.8598 29.7075 24.3158C29.6651 21.4729 28.938 17.2421 28.1094 15.7502C27.6816 14.9803 26.7323 14.8788 26.1809 15.527Z" fill="#B44632"/>
<path d="M17.6806 37.3628C18.8073 37.3628 19.7206 36.2719 19.7206 34.9261C19.7206 33.5804 18.8073 32.4895 17.6806 32.4895C16.554 32.4895 15.6406 33.5804 15.6406 34.9261C15.6406 36.2719 16.554 37.3628 17.6806 37.3628Z" fill="#4B3F4E"/>
<path d="M18.5719 45.1799C16.2131 45.7927 14.1937 45.8468 12.6484 45.4642C12.6484 45.4642 13.8826 48.6525 16.8574 51.3421C21.5292 51.3621 27.1816 50.235 32.3992 44.6327C33.0058 43.9816 32.9114 42.7645 32.1649 42.3727C27.8415 40.1032 23.3974 43.9263 18.5719 45.1799Z" fill="#F5DCB4"/>
<path d="M10.3718 44.5052C12.4764 40.7531 10.2827 38.6322 8.60425 37.845C8.30502 38.921 8.10015 39.8799 7.97778 40.6335C7.81557 41.6336 8.12798 42.6413 8.78837 43.286C9.18675 43.6751 9.71458 44.1092 10.3718 44.5052Z" fill="#D26437"/>
<path d="M53.7203 90.9692H53.364C50.8206 90.9692 48.2755 90.2475 46.1348 88.6071C39.912 83.8388 39.0937 74.4872 39.6879 70.0764C35.4064 78.9986 38.8103 86.4972 42.6427 90.9692H42.6747C43.867 92.3605 45.0999 93.4615 46.1553 94.218H53.7203C54.4712 94.218 55.0803 93.4906 55.0803 92.5936C55.0803 91.6964 54.4712 90.9692 53.7203 90.9692Z" fill="#D26437"/>
<path d="M83.6397 69.8511C83.6397 50.9669 68.3397 37.9713 67.3197 24.9465C66.5795 15.4946 72.5967 12.1755 79.134 14.7099C79.5803 14.883 80.0032 14.6584 80.2307 14.2719C74.7429 3.9259 64.033 2.0308 59.6696 9.74675C54.6054 18.7024 57.6863 31.8798 65.9597 42.2356C71.0017 48.5468 87.6064 76.3488 73.4175 95.6959C79.8906 90.3212 83.6397 81.0384 83.6397 69.8511Z" fill="#EB874B"/>
</g>
<defs>
<clipPath id="clip0">
<rect width="84.32" height="100.716" fill="white"/>
</clipPath>
</defs>
</svg>
