<svg width="158" height="158" viewBox="0 0 158 158" fill="none" xmlns="http://www.w3.org/2000/svg">
<g clip-path="url(#clip0)">
<path d="M49.1973 124.04L47.6167 150.145C47.5093 151.92 49.7059 152.83 50.885 151.499L68.2265 131.922L68.702 132.016L77.2316 156.739C77.8118 158.42 80.1892 158.42 80.7693 156.739L89.2989 132.016L89.501 131.613L107.116 151.498C108.295 152.829 110.492 151.919 110.384 150.144L108.779 123.628L108.836 123.59L132.719 135.22C134.318 135.999 135.999 134.318 135.221 132.719L123.59 108.835L123.628 108.778L150.145 110.384C151.92 110.491 152.83 108.294 151.499 107.115L131.613 89.5004L131.627 89.4328L156.739 80.7687C158.42 80.1885 158.42 77.8111 156.739 77.231L131.627 68.5669L131.613 68.4993L151.499 50.8844C152.83 49.7053 151.92 47.5084 150.145 47.6161L123.628 49.2217L123.59 49.1646L135.22 25.281C135.999 23.6822 134.318 22.0009 132.719 22.7795L108.835 34.4104L108.778 34.3722L110.384 7.85557C110.491 6.08023 108.295 5.1705 107.116 6.50178L89.5007 26.387L89.4331 26.3737L80.769 1.26123C80.1889 -0.419986 77.8114 -0.419986 77.2313 1.26123L68.5672 26.3737L68.2262 26.0784L50.8847 6.50178C49.7056 5.1705 47.5087 6.08055 47.6164 7.85557L49.197 33.9605L48.794 34.2299L25.281 22.7798C23.6821 22.0012 22.0009 23.6825 22.7795 25.2813L34.2296 48.7943L33.9602 49.1974L7.85526 47.6167C6.08023 47.5093 5.17019 49.7059 6.50146 50.8851L26.0781 68.2265L25.9836 68.7024L1.26091 77.2319C-0.420309 77.8121 -0.420309 80.1895 1.26091 80.7696L25.9839 89.2986L26.0784 89.7741L6.50177 107.116C5.1705 108.295 6.08054 110.492 7.85558 110.384L33.9605 108.803L34.2299 109.206L22.7798 132.719C22.0012 134.318 23.6825 135.999 25.2813 135.22L48.7943 123.77" fill="#FFDC64"/>
<path d="M131.797 79.2686C131.797 49.8895 107.981 26.0731 78.6017 26.0731C49.2227 26.0731 25.4062 49.8895 25.4062 79.2686C25.4062 108.648 49.2227 132.464 78.6017 132.464C107.981 132.464 131.797 108.648 131.797 79.2686Z" fill="#FFC850"/>
<path d="M76.1652 39.5612C103.309 50.8042 116.198 81.9226 104.955 109.066C101.044 118.508 94.7247 126.219 87.008 131.795C104.631 128.958 120.418 117.326 127.75 99.6241C138.993 72.4808 126.103 41.3624 98.9598 30.1194C81.2582 22.7872 61.8699 25.7247 47.4023 36.1799C56.8024 34.6663 66.7234 35.6504 76.1652 39.5612Z" fill="#EBAF4B"/>
</g>
<defs>
<clipPath id="clip0">
<rect width="158" height="158" fill="white" transform="translate(0 158) rotate(-90)"/>
</clipPath>
</defs>
</svg>
