<svg width="181" height="318" viewBox="0 0 181 318" fill="none" xmlns="http://www.w3.org/2000/svg">
<g filter="url(#filter0_bddddddddf)">
<rect x="18.2832" y="53.9343" width="150.833" height="255.96" fill="#C4C4C4"/>
<rect x="19.7832" y="55.4343" width="147.833" height="252.96" stroke="black" stroke-width="3"/>
</g>
<g clip-path="url(#clip0)">
<path d="M134.58 162.508C134.58 186.488 114.845 199.309 90.499 199.309C66.1534 199.309 46.418 186.488 46.418 162.508C46.418 138.527 66.1537 119.087 90.4993 119.087C114.845 119.087 134.58 138.527 134.58 162.508Z" fill="#A16B4E"/>
<g opacity="0.1">
<path opacity="0.1" d="M90.501 178.123C89.0367 178.123 87.8496 176.732 87.8496 175.016V170.413C87.8496 168.697 89.0367 167.306 90.501 167.306C91.9653 167.306 93.1524 168.697 93.1524 170.413V175.016C93.1524 176.732 91.9653 178.123 90.501 178.123Z" fill="black"/>
<path opacity="0.1" d="M78.4092 171.372C76.9449 171.372 75.7578 169.981 75.7578 168.265V163.355C75.7578 161.639 76.9449 160.248 78.4092 160.248C79.8735 160.248 81.0606 161.639 81.0606 163.355V168.265C81.0609 169.981 79.8735 171.372 78.4092 171.372Z" fill="black"/>
<path opacity="0.1" d="M102.593 171.372C101.129 171.372 99.9414 169.981 99.9414 168.265V163.355C99.9414 161.639 101.129 160.248 102.593 160.248C104.057 160.248 105.244 161.639 105.244 163.355V168.265C105.244 169.981 104.057 171.372 102.593 171.372Z" fill="black"/>
</g>
<path d="M32.7697 144.893C29.4933 155.441 28.3903 185.596 37.3926 189.436C46.3949 193.275 62.0932 169.344 65.3696 158.795C68.646 148.247 64.0046 136.584 55.002 132.745C46 128.906 36.0464 134.344 32.7697 144.893Z" fill="#7D4E3E"/>
<path d="M148.231 144.893C151.507 155.441 152.61 185.596 143.608 189.436C134.606 193.275 118.907 169.344 115.631 158.795C112.354 148.247 116.996 136.584 125.998 132.745C135 128.906 144.954 134.344 148.231 144.893Z" fill="#7D4E3E"/>
<path opacity="0.15" d="M125.997 132.745C125.197 133.086 124.433 133.492 123.704 133.95C115.623 124.842 103.744 119.087 90.4994 119.087C77.2546 119.087 65.3754 124.842 57.295 133.95C56.5661 133.492 55.8021 133.086 55.0018 132.745C49.7676 130.512 44.2139 131.422 39.8359 134.643C51.0003 150.383 69.5274 160.681 90.4998 160.681C111.472 160.681 129.999 150.383 141.164 134.643C136.785 131.422 131.232 130.512 125.997 132.745Z" fill="black"/>
<path d="M90.5 150.23C129.849 150.23 161.748 118.809 161.748 80.0488C161.748 41.2888 129.849 9.86768 90.5 9.86768C51.1508 9.86768 19.252 41.2888 19.252 80.0488C19.252 118.809 51.1508 150.23 90.5 150.23Z" fill="#A16B4E"/>
<path d="M90.5 148.767C129.849 148.767 161.748 117.346 161.748 78.5861C161.748 39.8262 129.849 8.40503 90.5 8.40503C51.1508 8.40503 19.252 39.8262 19.252 78.5861C19.252 117.346 51.1508 148.767 90.5 148.767Z" fill="#A16B4E"/>
<path opacity="0.1" d="M138.057 27.7947C148.651 40.0449 155.048 55.924 155.048 73.2774C155.048 112.037 123.149 143.458 83.799 143.458C65.5218 143.458 48.8546 136.676 36.2422 125.532C49.3106 140.644 68.7671 150.231 90.4995 150.231C129.849 150.231 161.749 118.81 161.749 80.0499C161.749 59.2929 152.598 40.6438 138.057 27.7947Z" fill="black"/>
<path d="M129.256 64.7009L161.814 16.1832C164.781 11.7622 161.402 5.41549 156.709 6.59395L144.309 9.70723C139.693 10.8658 134.908 10.7039 130.357 9.23461L114.89 4.23993C107.752 1.93479 100.12 3.14473 93.7607 7.58891C91.752 8.9927 89.2477 8.9927 87.239 7.58891C80.88 3.1439 73.2475 1.93438 66.1093 4.23993L50.6426 9.23461C46.0918 10.7039 41.3063 10.8662 36.6908 9.70723L24.2915 6.59395C19.5982 5.41549 16.2193 11.7622 19.1857 16.1832L51.7438 64.7009H129.256Z" fill="#FC8063"/>
<path d="M63.8681 95.906C78.5765 95.906 90.4999 81.935 90.4999 64.701C90.4999 47.467 78.5765 33.4961 63.8681 33.4961C49.1598 33.4961 37.2363 47.467 37.2363 64.701C37.2363 81.935 49.1598 95.906 63.8681 95.906Z" fill="#FAD97E"/>
<path d="M117.128 95.906C131.836 95.906 143.76 81.935 143.76 64.701C143.76 47.467 131.836 33.4961 117.128 33.4961C102.42 33.4961 90.4961 47.467 90.4961 64.701C90.4961 81.935 102.42 95.906 117.128 95.906Z" fill="#FAD97E"/>
<path opacity="0.1" d="M86.8855 72.2981L79.3506 89.3193C77.6668 93.1227 78.2798 97.7661 80.8654 100.796L87.3323 108.373C89.0819 110.423 91.9185 110.423 93.668 108.373L100.135 100.796C102.721 97.7661 103.334 93.1227 101.65 89.3193L94.1149 72.2981C92.5955 68.8655 88.4052 68.8655 86.8855 72.2981Z" fill="black"/>
<path d="M86.8855 66.442L79.3506 83.4632C77.6668 87.2665 78.2798 91.91 80.8654 94.9396L87.3323 102.517C89.0819 104.567 91.9185 104.567 93.668 102.517L100.135 94.9396C102.721 91.91 103.334 87.2665 101.65 83.4632L94.1149 66.442C92.5955 63.0089 88.4052 63.0089 86.8855 66.442Z" fill="#FC8063"/>
<path d="M74.462 208.975C70.6656 208.975 67.5879 205.369 67.5879 200.92V189.849C67.5879 185.4 70.6652 181.794 74.462 181.794C78.2588 181.794 81.3361 185.4 81.3361 189.849V200.92C81.3361 205.369 78.2581 208.975 74.462 208.975Z" fill="#FC8063"/>
<path d="M106.54 208.975C102.744 208.975 99.666 205.369 99.666 200.92V189.849C99.666 185.4 102.743 181.794 106.54 181.794C110.337 181.794 113.414 185.4 113.414 189.849V200.92C113.414 205.369 110.337 208.975 106.54 208.975Z" fill="#FC8063"/>
<path d="M109.002 70.9059C110.466 70.9059 111.653 69.5154 111.653 67.7992C111.653 64.2614 114.11 61.3825 117.13 61.3825C120.15 61.3825 122.606 64.261 122.606 67.7992C122.606 69.5154 123.794 70.9059 125.258 70.9059C126.722 70.9059 127.909 69.5154 127.909 67.7992C127.909 60.8345 123.073 55.1688 117.129 55.1688C111.185 55.1688 106.35 60.8349 106.35 67.7992C106.35 69.5154 107.537 70.9059 109.002 70.9059ZM164.4 80.0498C164.4 64.6793 159.698 50.0722 150.785 37.6452L154.699 31.8121C155.604 30.4634 155.405 28.5099 154.253 27.4495C153.103 26.3887 151.435 26.6228 150.53 27.9715L140.118 43.4865C134.751 35.519 126.445 30.3897 117.13 30.3897C109.445 30.3897 102.185 33.8526 96.687 40.1413C94.0625 43.1427 91.9834 46.6342 90.4994 50.4376C89.0153 46.6342 86.9363 43.1427 84.3118 40.1413C78.8139 33.8526 71.5537 30.3897 63.869 30.3897C54.5542 30.3897 46.2473 35.519 40.8809 43.4865L21.2696 14.2624C20.2726 12.7766 20.8994 11.3384 21.1151 10.9329C21.3311 10.5282 22.1586 9.23748 23.7353 9.6314L36.1346 12.7451C41.1457 14.0027 46.4056 13.8246 51.3464 12.2298L66.8131 7.23513C73.222 5.16527 80.1714 6.2671 85.8803 10.2573C88.7293 12.248 92.2694 12.2485 95.1188 10.2573C100.828 6.2671 107.778 5.1661 114.186 7.23513L129.652 12.2298C134.593 13.825 139.854 14.0027 144.864 12.7451L157.263 9.63181C158.84 9.23333 159.668 10.5278 159.884 10.9333C160.099 11.3388 160.726 12.777 159.729 14.2628L155.924 19.9335C155.019 21.2822 155.218 23.2357 156.369 24.2961C157.52 25.3573 159.187 25.1233 160.093 23.7742L163.898 18.1035C165.948 15.0482 166.139 10.9424 164.383 7.6448C162.627 4.34677 159.396 2.7429 156.152 3.5556L143.753 6.66889C139.572 7.71977 135.184 7.57065 131.061 6.23934L115.595 1.24425C107.8 -1.27297 99.3465 0.0666202 92.4024 4.92005C91.229 5.74021 89.7711 5.74021 88.5971 4.92005C81.6526 0.0666202 73.1993 -1.2738 65.4043 1.24425L49.938 6.23893C45.8153 7.57024 41.4267 7.71811 37.246 6.66848L24.8461 3.55519C21.6029 2.74332 18.3718 4.34594 16.6159 7.64438C14.8603 10.942 15.0505 15.0473 17.1009 18.1031L30.2146 37.6448C21.3007 50.0726 16.5989 64.6789 16.5989 80.049C16.5989 99.7179 24.3381 118.178 38.3911 132.031C34.6756 134.773 31.8128 138.887 30.2775 143.83C28.6952 148.924 27.6944 157.558 27.7279 165.824C27.735 167.535 28.9207 168.916 30.379 168.916H30.392C31.8563 168.908 33.0378 167.511 33.0307 165.795C33.0006 158.32 33.8968 150.346 35.2607 145.954C36.6192 141.581 39.3943 138.094 42.9737 136.185C49.1528 141.345 56.0577 145.413 63.4455 148.29C64.0185 151.435 63.8287 154.669 62.8774 157.732C61.4764 162.243 57.1504 170.442 51.5935 177.385C46.1465 184.192 41.0523 187.692 38.2988 186.515C36.5397 185.765 35.0553 182.807 34.1188 178.185C33.7805 176.516 32.3526 175.483 30.9266 175.879C29.5019 176.275 28.6209 177.95 28.9592 179.619C30.3606 186.537 32.8928 190.822 36.4853 192.354C37.4588 192.769 38.4554 192.959 39.4654 192.959C43.5294 192.959 47.7914 189.892 51.4814 186.147C54.9392 190.577 59.4472 194.182 64.9345 196.9V200.92C64.9345 207.074 69.2078 212.08 74.46 212.08C79.3739 212.08 83.4298 207.698 83.9325 202.094C86.0857 202.303 88.2825 202.415 90.4994 202.415C92.7163 202.415 94.9127 202.303 97.0663 202.094C97.569 207.698 101.625 212.08 106.539 212.08C111.791 212.08 116.064 207.073 116.064 200.92V196.9C121.552 194.181 126.06 190.576 129.517 186.147C133.207 189.893 137.469 192.959 141.533 192.959C142.542 192.959 143.54 192.769 144.514 192.354C150.921 189.622 152.758 178.608 153.17 169.85C153.607 160.578 152.6 149.877 150.721 143.829C149.186 138.886 146.323 134.773 142.607 132.031C156.661 118.178 164.4 99.7187 164.4 80.0498ZM100.391 44.5884C104.893 39.4392 110.838 36.6042 117.13 36.6042C130.352 36.6042 141.109 49.2086 141.109 64.7009C141.109 80.1931 130.352 92.7975 117.13 92.7975C112.914 92.7975 108.827 91.518 105.21 89.0827C105.38 86.7088 104.992 84.2683 104.003 82.0327L96.4681 65.0115C95.7657 63.4246 94.6493 62.2048 93.319 61.4865C93.9402 55.076 96.4049 49.1481 100.391 44.5884ZM90.4997 66.9737C90.7592 66.9737 91.4019 67.0615 91.7607 67.8721L99.2956 84.8933C99.957 86.3878 100.102 88.0584 99.7746 89.6055C99.7378 89.7314 99.7064 89.8586 99.6841 89.9874C99.4137 91.0018 98.9361 91.95 98.2594 92.7424L91.7925 100.32C91.4472 100.725 90.9883 100.948 90.4997 100.948C90.0115 100.948 89.5523 100.725 89.2069 100.32L82.74 92.7424C82.0641 91.9504 81.5862 91.0027 81.3161 89.9891C81.2938 89.8594 81.262 89.7314 81.2252 89.6047C80.8979 88.0584 81.0428 86.3878 81.7042 84.8933L89.2391 67.8721C89.5976 67.0615 90.2399 66.9737 90.4997 66.9737ZM63.8693 36.6042C70.1616 36.6042 76.1063 39.4396 80.6076 44.5884C84.5942 49.1481 87.059 55.076 87.6797 61.4857C86.3498 62.2039 85.2334 63.4238 84.531 65.0107L76.9961 82.0319C76.0066 84.267 75.6185 86.708 75.7896 89.0819C72.172 91.5171 68.0854 92.7967 63.8693 92.7967C50.6475 92.7967 39.8903 80.1923 39.8903 64.7C39.8903 49.2077 50.6475 36.6042 63.8693 36.6042ZM78.6827 200.92C78.6827 203.648 76.7886 205.868 74.46 205.868C72.1314 205.868 70.2372 203.649 70.2372 200.92V189.849C70.2372 187.121 72.1314 184.901 74.46 184.901C76.7886 184.901 78.6827 187.12 78.6827 189.849V200.92ZM110.762 200.92C110.762 203.648 108.867 205.868 106.539 205.868C104.21 205.868 102.316 203.649 102.316 200.92V189.849C102.316 187.121 104.21 184.901 106.539 184.901C108.867 184.901 110.762 187.12 110.762 189.849V200.92ZM116.065 190.081V189.849C116.065 183.694 111.791 178.687 106.539 178.687C101.287 178.687 97.0136 183.695 97.0136 189.849V195.87C94.8844 196.089 92.7032 196.203 90.4997 196.203C88.2963 196.203 86.1151 196.089 83.9858 195.87V189.849C83.9858 183.694 79.7125 178.687 74.4603 178.687C69.2078 178.687 64.9348 183.695 64.9348 189.849V190.081C61.0437 187.855 57.8193 185.095 55.3005 181.836C55.3542 181.769 55.409 181.703 55.4624 181.636C60.8839 174.862 65.9827 165.907 67.8613 159.858C68.8345 156.724 69.2202 153.459 69.0222 150.212C75.8981 152.271 83.1172 153.338 90.4997 153.338C97.8822 153.338 105.102 152.271 111.977 150.212C111.779 153.459 112.165 156.725 113.138 159.859C115.017 165.908 120.116 174.863 125.537 181.637C125.59 181.703 125.645 181.77 125.699 181.837C123.18 185.096 119.955 187.855 116.065 190.081ZM145.738 145.955C147.139 150.466 148.324 160.004 147.875 169.508C147.436 178.825 145.453 185.342 142.7 186.516C139.948 187.691 134.852 184.192 129.405 177.386C123.848 170.442 119.522 162.243 118.121 157.733C117.17 154.669 116.98 151.435 117.553 148.29C124.941 145.414 131.846 141.345 138.025 136.185C141.605 138.095 144.38 141.582 145.738 145.955ZM90.4997 147.124C52.6749 147.124 21.9024 117.034 21.9024 80.0494C21.9024 66.576 25.9271 53.7178 33.5698 42.644L37.8424 49.0106C35.768 53.7165 34.5883 59.0484 34.5883 64.7004C34.5883 83.6192 47.7239 99.0104 63.87 99.0104C68.6786 99.0104 73.3499 97.6447 77.5476 95.0401C77.9619 95.7824 78.4385 96.4882 78.991 97.1356L85.4575 104.713C86.8044 106.291 88.5953 107.16 90.5004 107.16C92.4052 107.16 94.1964 106.291 95.5434 104.713L102.01 97.1356C102.562 96.4882 103.039 95.7819 103.453 95.0397C107.651 97.6439 112.322 99.01 117.131 99.01C133.277 99.01 146.413 83.6188 146.413 64.7C146.413 59.048 145.233 53.7165 143.158 49.0102L147.431 42.6436C155.074 53.717 159.099 66.5752 159.099 80.049C159.097 117.034 128.325 147.124 90.4997 147.124ZM55.7413 70.9059C57.2056 70.9059 58.3927 69.5154 58.3927 67.7992C58.3927 64.2614 60.8493 61.3825 63.8693 61.3825C66.8891 61.3825 69.346 64.261 69.346 67.7992C69.346 69.5154 70.5331 70.9059 71.9974 70.9059C73.4617 70.9059 74.6488 69.5154 74.6488 67.7992C74.6488 60.8345 69.813 55.1688 63.869 55.1688C57.925 55.1688 53.0892 60.8349 53.0892 67.7992C53.0896 69.5154 54.277 70.9059 55.7413 70.9059Z" fill="black"/>
</g>
<line x1="21.0254" y1="299.338" x2="167.288" y2="299.338" stroke="black"/>
<line x1="21.0254" y1="285.626" x2="167.288" y2="285.626" stroke="black"/>
<line x1="21.0254" y1="272.828" x2="167.288" y2="272.828" stroke="black"/>
<defs>
<filter id="filter0_bddddddddf" x="14.2832" y="49.9343" width="158.833" height="267.96" filterUnits="userSpaceOnUse" color-interpolation-filters="sRGB">
<feFlood flood-opacity="0" result="BackgroundImageFix"/>
<feGaussianBlur in="BackgroundImage" stdDeviation="2"/>
<feComposite in2="SourceAlpha" operator="in" result="effect1_backgroundBlur"/>
<feColorMatrix in="SourceAlpha" type="matrix" values="0 0 0 0 0 0 0 0 0 0 0 0 0 0 0 0 0 0 127 0"/>
<feOffset dy="4"/>
<feGaussianBlur stdDeviation="2"/>
<feColorMatrix type="matrix" values="0 0 0 0 0 0 0 0 0 0 0 0 0 0 0 0 0 0 0.25 0"/>
<feBlend mode="normal" in2="effect1_backgroundBlur" result="effect2_dropShadow"/>
<feColorMatrix in="SourceAlpha" type="matrix" values="0 0 0 0 0 0 0 0 0 0 0 0 0 0 0 0 0 0 127 0"/>
<feOffset dy="4"/>
<feGaussianBlur stdDeviation="2"/>
<feColorMatrix type="matrix" values="0 0 0 0 0 0 0 0 0 0 0 0 0 0 0 0 0 0 0.25 0"/>
<feBlend mode="normal" in2="effect2_dropShadow" result="effect3_dropShadow"/>
<feColorMatrix in="SourceAlpha" type="matrix" values="0 0 0 0 0 0 0 0 0 0 0 0 0 0 0 0 0 0 127 0"/>
<feOffset dy="4"/>
<feGaussianBlur stdDeviation="2"/>
<feColorMatrix type="matrix" values="0 0 0 0 0 0 0 0 0 0 0 0 0 0 0 0 0 0 0.25 0"/>
<feBlend mode="normal" in2="effect3_dropShadow" result="effect4_dropShadow"/>
<feColorMatrix in="SourceAlpha" type="matrix" values="0 0 0 0 0 0 0 0 0 0 0 0 0 0 0 0 0 0 127 0"/>
<feOffset dy="4"/>
<feGaussianBlur stdDeviation="2"/>
<feColorMatrix type="matrix" values="0 0 0 0 0 0 0 0 0 0 0 0 0 0 0 0 0 0 0.25 0"/>
<feBlend mode="normal" in2="effect4_dropShadow" result="effect5_dropShadow"/>
<feColorMatrix in="SourceAlpha" type="matrix" values="0 0 0 0 0 0 0 0 0 0 0 0 0 0 0 0 0 0 127 0"/>
<feOffset dy="4"/>
<feGaussianBlur stdDeviation="2"/>
<feColorMatrix type="matrix" values="0 0 0 0 0 0 0 0 0 0 0 0 0 0 0 0 0 0 0.25 0"/>
<feBlend mode="normal" in2="effect5_dropShadow" result="effect6_dropShadow"/>
<feColorMatrix in="SourceAlpha" type="matrix" values="0 0 0 0 0 0 0 0 0 0 0 0 0 0 0 0 0 0 127 0"/>
<feOffset dy="4"/>
<feGaussianBlur stdDeviation="2"/>
<feColorMatrix type="matrix" values="0 0 0 0 0 0 0 0 0 0 0 0 0 0 0 0 0 0 0.25 0"/>
<feBlend mode="normal" in2="effect6_dropShadow" result="effect7_dropShadow"/>
<feColorMatrix in="SourceAlpha" type="matrix" values="0 0 0 0 0 0 0 0 0 0 0 0 0 0 0 0 0 0 127 0"/>
<feOffset dy="4"/>
<feGaussianBlur stdDeviation="2"/>
<feColorMatrix type="matrix" values="0 0 0 0 0 0 0 0 0 0 0 0 0 0 0 0 0 0 0.25 0"/>
<feBlend mode="normal" in2="effect7_dropShadow" result="effect8_dropShadow"/>
<feColorMatrix in="SourceAlpha" type="matrix" values="0 0 0 0 0 0 0 0 0 0 0 0 0 0 0 0 0 0 127 0"/>
<feOffset dy="4"/>
<feGaussianBlur stdDeviation="2"/>
<feColorMatrix type="matrix" values="0 0 0 0 0 0 0 0 0 0 0 0 0 0 0 0 0 0 0.25 0"/>
<feBlend mode="normal" in2="effect8_dropShadow" result="effect9_dropShadow"/>
<feBlend mode="normal" in="SourceGraphic" in2="effect9_dropShadow" result="shape"/>
<feGaussianBlur stdDeviation="2" result="effect10_foregroundBlur"/>
</filter>
<clipPath id="clip0">
<rect width="181" height="212.081" fill="white"/>
</clipPath>
</defs>
</svg>
