<svg width="123" height="120" viewBox="0 0 123 120" fill="none" xmlns="http://www.w3.org/2000/svg">
<g clip-path="url(#clip0)">
<path d="M120.631 78.2844C120.135 78.2844 119.641 78.1001 119.263 77.7317C118.976 77.4529 112.306 70.7673 116.353 58.5074C119.707 48.3467 117.094 41.3925 113.53 38.2722C111.031 36.0852 107.86 35.5057 105.051 36.7224C104.071 37.1537 102.921 36.7168 102.482 35.7604C102.047 34.8032 102.488 33.6828 103.47 33.2577C107.725 31.4153 112.454 32.2338 116.131 35.4511C120.602 39.3657 123.983 47.783 120.059 59.6686C116.77 69.6283 121.809 74.8429 122.024 75.0606C122.768 75.8079 122.759 77.0059 121.999 77.7364C121.619 78.102 121.125 78.2844 120.631 78.2844Z" fill="#5D5360"/>
<path d="M113.342 46.8809C113.342 42.1009 107.262 32.3036 98.2625 29.4594C84.9156 25.2409 61.7788 36.2145 38.9969 28.6297L17.1067 31.474C17.1067 36.3065 4.86585 43.6559 0.939579 45.9409C0.202685 46.3697 -0.149004 47.2112 0.0592802 48.0227L0.986263 51.6361C1.1718 52.3596 1.76817 52.9116 2.52182 53.0416C5.32072 53.5243 12.6729 54.4529 19.0689 52.7518C27.5987 60.4913 40.8616 66.6726 40.8616 66.6726V97.7232L35.1511 99.1144C33.8602 99.4289 32.8238 100.364 32.4031 101.594L31.8535 103.201C31.4989 104.238 32.2904 105.308 33.4115 105.308H40.8863C42.0867 105.308 43.2076 104.723 43.8734 103.75L45.9734 100.68C46.4513 99.9814 46.7644 99.1886 46.8906 98.3583L51.226 69.8402C63.1562 76.2328 83.4904 76.1306 97.4306 69.9585L106.289 86.3455V97.3277L101.568 99.0194C100.406 99.3969 99.4938 100.285 99.1067 101.418L98.4967 103.201C98.1421 104.237 98.9338 105.308 100.055 105.308H107.092C108.524 105.308 109.819 104.478 110.387 103.198L112.703 97.9784C113.125 97.0279 113.343 96.0033 113.343 94.9676V81.4323C113.343 80.9358 113.248 80.4552 113.053 79.9965C112.15 77.8771 109.451 71.0128 109.451 64.6967C109.45 57.9028 113.342 55.8609 113.342 46.8809Z" fill="#6F6571"/>
<path d="M28.6616 34.3426L28.1638 37.9645C27.9714 39.3658 28.9012 40.6944 30.3214 40.9833C32.6257 41.4518 36.252 41.5525 39.9168 39.0949C40.6195 38.6236 40.8117 37.6976 40.3209 37.0175C39.1045 35.3321 36.3729 32.4328 31.7554 31.9916C30.2412 31.847 28.8634 32.873 28.6616 34.3426Z" fill="#5D5360"/>
<path d="M42.442 19.9007C41.8578 17.0035 38.3603 12.3 31.1324 14.9035C30.6153 15.0899 30.2504 15.8008 31.1317 15.7408C33.4046 15.5861 35.7809 15.5689 36.4831 17.9637C38.2667 24.0475 27.4838 26.0227 22.7005 26.4176C19.5333 26.6792 17.1874 28.5508 17.1062 31.4743C17.0663 32.9178 18.5784 34.6133 21.4029 34.8977C25.6595 35.326 30.2229 34.1795 31.7539 33.6175C31.763 33.6142 31.7718 33.611 31.7809 33.6077C35.429 32.2643 43.9014 27.1386 42.442 19.9007Z" fill="#AEA8AF"/>
<path d="M33.4111 105.308H40.8859C42.0863 105.308 43.2072 104.724 43.873 103.75L45.973 100.68L40.8612 97.7231L35.1506 99.1144C33.8598 99.4289 32.8234 100.364 32.4027 101.594L31.8531 103.201C31.4987 104.238 32.2902 105.308 33.4111 105.308Z" fill="#4B3F4E"/>
<path d="M106.288 97.3284L101.567 99.0201C100.405 99.3976 99.4928 100.286 99.1057 101.418L98.4957 103.202C98.1412 104.238 98.9329 105.308 100.054 105.308H107.091C108.523 105.308 109.818 104.479 110.386 103.198L111.695 100.248L106.288 97.3284Z" fill="#4B3F4E"/>
<path d="M19.0684 52.7519C27.5982 60.4914 40.8611 66.6726 40.8611 66.6726V62.2407C40.8611 60.8357 40.0639 59.5458 38.7895 58.8886L26.9776 52.7978C25.2343 51.8989 23.2151 51.6733 21.3121 52.1791C20.6908 52.3443 19.9487 52.5349 19.0684 52.7519Z" fill="#5D5360"/>
<path d="M51.7408 66.9321L51.2266 69.8408C63.1567 76.2334 83.4909 76.1312 97.4311 69.959L96.1663 66.6132C95.5084 64.8725 93.6617 63.8415 91.7938 64.1982C86.1812 65.2705 73.4754 66.8481 56.2625 63.8504C54.1399 63.4808 52.1069 64.8615 51.7408 66.9321Z" fill="#5D5360"/>
<path d="M19.4596 42.7321C20.5343 42.7321 21.4055 41.8831 21.4055 40.8358C21.4055 39.7885 20.5343 38.9395 19.4596 38.9395C18.3849 38.9395 17.5137 39.7885 17.5137 40.8358C17.5137 41.8831 18.3849 42.7321 19.4596 42.7321Z" fill="#4B3F4E"/>
<path d="M31.1316 14.9035C30.8198 15.0159 30.5687 15.3173 30.6073 15.5271C34.2932 14.5859 37.6925 15.0145 38.9144 17.687C39.8266 19.6821 40.0698 23.5337 35.5093 26.4372C31.3748 29.0696 22.5577 28.8074 21.5605 34.9063C25.7717 35.2912 30.241 34.1723 31.7528 33.617C31.7619 33.6138 31.7708 33.6105 31.7799 33.6072C35.4282 32.2641 43.9006 27.1383 42.4411 19.9004C41.857 17.0035 38.3595 12.3 31.1316 14.9035Z" fill="#C9C6CA"/>
<path d="M0.939579 45.9412C0.202685 46.3701 -0.149004 47.2116 0.0592802 48.0231L0.986264 51.6365C1.1718 52.36 1.76817 52.912 2.52182 53.042C4.27188 53.3436 7.80218 53.8198 11.7653 53.7185C10.7028 49.2848 8.68104 45.8465 5.83952 42.9304C3.85125 44.2241 2.05569 45.2915 0.939579 45.9412Z" fill="#5D5360"/>
<path d="M2.67528 46.7626C2.67528 46.2192 2.38703 45.7288 1.92498 45.3616C1.55821 45.5795 1.22543 45.7748 0.939579 45.9413C0.202685 46.3702 -0.149004 47.2117 0.0592802 48.0231L0.256312 48.7917C1.61758 48.6664 2.67528 47.8111 2.67528 46.7626Z" fill="#4B3F4E"/>
</g>
<defs>
<clipPath id="clip0">
<rect width="122.576" height="119.453" fill="white"/>
</clipPath>
</defs>
</svg>
