<svg width="125" height="136" viewBox="0 0 125 136" fill="none" xmlns="http://www.w3.org/2000/svg">
<g clip-path="url(#clip0)">
<path d="M119.21 81.2028C118.317 81.2028 117.486 81.0719 116.903 80.9202C111.04 79.3886 109.82 72.6273 108.929 67.6904L108.662 66.23C106.106 52.9121 100.643 46.318 90.3907 44.1804C89.3227 43.9585 88.6222 42.8352 88.8264 41.6721C89.0303 40.508 90.0636 39.744 91.1336 39.9701C103.031 42.4501 109.627 50.2793 112.518 65.3547L112.797 66.8642C113.748 72.1329 114.663 75.9256 117.823 76.7505C118.733 76.9872 119.793 76.9378 120.267 76.7872C120.509 75.8388 121.3 75.1564 122.272 75.2202C123.357 75.283 124.192 76.2931 124.134 77.4752C124.081 78.5431 123.609 79.4925 122.801 80.1478C121.814 80.9493 120.451 81.2028 119.21 81.2028Z" fill="#FFC88C"/>
<path d="M77.8328 69.0552C77.9693 75.286 81.0347 96.4795 81.0347 96.4795H79.3142C77.9358 96.4795 76.6576 97.263 75.9436 98.5459L74.6772 100.821C74.1664 101.739 74.7737 102.911 75.7596 102.911H80.9833C82.2525 102.911 83.4442 102.246 84.1844 101.124L86.9004 97.0082C87.3582 96.3144 87.5968 95.495 87.6251 94.6413C87.8475 87.961 89.6821 80.3695 90.6406 77.1843L82.7588 66.4646L77.8328 69.0552Z" fill="#D26437"/>
<path d="M49.2602 72.8965H37.4375L45.7271 96.4796C44.2643 96.4796 42.9221 97.361 42.2406 98.7689L41.1449 101.032C40.7315 101.885 41.3006 102.911 42.1875 102.911H46.6484C48.2314 102.911 49.6609 101.88 50.2778 100.294L52.1466 95.488C52.4393 94.7353 52.5282 93.9075 52.4029 93.1018L49.2602 72.8965Z" fill="#D26437"/>
<path d="M35.3262 60.033V76.5197C59.2785 76.2678 74.021 71.7818 80.787 69.0683V60.033H35.3262Z" fill="#FFC88C"/>
<path d="M100.861 57.8392V51.8545C100.861 46.47 97.5515 41.7281 92.7692 40.3436C92.7307 40.3326 90.7629 39.8838 90.7629 39.8838C77.9311 37.2083 54.1735 42.2763 47.994 42.4298C39.8652 42.6316 32.8323 37.5214 26.1453 35.3063C23.1779 34.3233 20.016 34.2685 16.9741 34.9296L13.0885 35.7743C7.99913 36.8242 6.23986 38.0971 4.36325 41.4727C2.52276 44.7827 0 53.3408 0 53.3408C0 53.3408 5.91133 61.993 7.88178 59.8491C10.1832 57.3451 12.4795 55.8292 15.2709 55.7142C17.0127 55.6425 19.125 56.4864 20.9992 55.4673C30.5866 70.7865 19.7044 96.2956 19.7044 96.2956H19.14C17.6339 96.2956 16.2594 97.2297 15.5987 98.7026L14.5857 100.96C14.2198 101.776 14.7656 102.727 15.6001 102.727H20.491C21.35 102.727 22.2008 102.45 22.8717 101.866C32.1631 93.7842 39.664 73.8091 41.9637 67.1953C42.4428 65.8174 43.5292 64.7931 44.8569 64.5045C45.0994 64.4517 45.3602 64.3968 45.6383 64.3404L53.7752 63.22C60.3067 62.7343 68.6989 63.1211 76.0189 66.6479C77.3165 67.2731 78.4563 68.2542 79.271 69.5186C83.0467 75.3796 88.7469 77.4393 95.3196 83.0299C101.149 87.9879 101.362 96.2953 101.362 96.2953C99.6657 96.2953 98.1598 97.4764 97.6232 99.2273L97.0462 101.111C96.8025 101.906 97.3466 102.727 98.1169 102.727H104.61C105.626 102.727 106.476 101.886 106.572 100.785L108.258 81.3819C108.305 80.8461 108.17 80.3217 107.871 79.8927C106.243 77.5554 100.861 68.9844 100.861 57.8392Z" fill="#EB874B"/>
<path d="M16.2804 32.8256C15.2818 33.5146 13.8486 34.8078 12.8145 37.0111C12.3699 37.9584 12.9748 39.0909 13.9509 39.1458L18.3668 39.3935C19.252 39.4431 19.9432 38.5686 19.7597 37.6252C19.5143 36.3632 19.0682 34.6838 18.2865 33.3215C17.861 32.5802 16.9588 32.3576 16.2804 32.8256Z" fill="#D26437"/>
<path d="M24.4136 92.9637C32.179 76.8083 28.9524 61.6917 26.8003 55.0296C26.2863 53.438 24.471 52.8347 23.2554 53.8818C22.5852 54.459 21.8222 55.0098 20.9998 55.4675C30.5873 70.7867 19.7051 96.2958 19.7051 96.2958C21.6969 96.1547 23.4886 94.8884 24.4136 92.9637Z" fill="#D26437"/>
<path d="M7.88178 59.849C10.1832 57.345 12.4795 55.8292 15.2709 55.7144C17.0127 55.6427 19.125 56.4866 20.9992 55.4675C20.674 55.611 20.3135 55.5332 19.9168 55.314C18.4328 54.4933 16.4429 51.6898 13.9163 51.0556C10.7142 50.2513 5.41866 58.0826 0 53.3407C0 53.3407 5.91133 61.993 7.88178 59.849Z" fill="#FFC88C"/>
<path d="M66.6563 58.426C66.4369 58.426 66.2138 58.3851 65.9964 58.3015C64.9708 57.9047 64.4359 56.6788 64.7996 55.5629L67.4261 47.5232C67.7898 46.4073 68.9194 45.8264 69.9431 46.2211C70.9686 46.6178 71.5035 47.8437 71.1398 48.9596L68.5133 56.9993C68.2265 57.8776 67.4664 58.426 66.6563 58.426Z" fill="#8B534F"/>
<path d="M89.4808 59.945C89.2633 59.945 89.0439 59.9052 88.8267 59.8226C87.8011 59.4301 87.2604 58.2063 87.6221 57.0893L90.2487 48.9597C90.6085 47.8406 91.7303 47.2565 92.7617 47.648C93.7873 48.0406 94.328 49.2644 93.9663 50.3813L91.3397 58.511C91.0548 59.3934 90.293 59.945 89.4808 59.945Z" fill="#8B534F"/>
<path d="M47.1968 58.1581C46.3291 58.1581 45.5343 57.5289 45.2977 56.5742L43.9833 51.3034C43.6984 50.1614 44.3182 48.9835 45.3687 48.6727C46.4212 48.367 47.5028 49.0381 47.7855 50.1811L49.0999 55.452C49.3848 56.594 48.7651 57.7719 47.7145 58.0826C47.5411 58.133 47.368 58.1581 47.1968 58.1581Z" fill="#8B534F"/>
<path d="M8.86791 45.0253C9.41197 45.0253 9.85302 44.5454 9.85302 43.9534C9.85302 43.3615 9.41197 42.8816 8.86791 42.8816C8.32386 42.8816 7.88281 43.3615 7.88281 43.9534C7.88281 44.5454 8.32386 45.0253 8.86791 45.0253Z" fill="#4B3F4E"/>
<path d="M3.48919 54.9411C3.48919 53.1649 2.16586 51.7253 0.533647 51.7253C0.519584 51.7253 0.506492 51.7296 0.492429 51.7298C0.187904 52.7051 0 53.3406 0 53.3406C0 53.3406 1.2649 55.1854 2.81638 56.9608C3.23073 56.4074 3.48919 55.7106 3.48919 54.9411Z" fill="#5D5360"/>
<path d="M15.599 102.727H20.4899C21.3491 102.727 22.1999 102.45 22.871 101.866C24.5956 100.366 26.2577 98.4536 27.837 96.2954H19.7033H19.1389C17.6325 96.2954 16.2583 97.2298 15.5973 98.7024L14.5844 100.96C14.2187 101.776 14.7647 102.727 15.599 102.727Z" fill="#FFC88C"/>
<path d="M101.361 96.2957C99.6646 96.2957 98.1585 97.4767 97.6222 99.2276L97.0451 101.111C96.8015 101.906 97.3455 102.727 98.1161 102.727H104.609C105.626 102.727 106.475 101.886 106.571 100.785L106.961 96.2957H101.361Z" fill="#FFC88C"/>
<path d="M81.0327 96.4795H79.3123C77.9339 96.4795 76.6557 97.263 75.9416 98.5459L74.6753 100.821C74.1644 101.738 74.7718 102.911 75.7576 102.911H80.9811C82.2506 102.911 83.442 102.246 84.1822 101.124L86.8982 97.0079C87.0059 96.8446 87.0609 96.6552 87.1446 96.4792L81.0327 96.4795Z" fill="#FFBE82"/>
<path d="M45.7274 96.4795C44.2647 96.4795 42.9224 97.3609 42.2409 98.7688L41.1452 101.031C40.7318 101.885 41.3009 102.911 42.1878 102.911H46.6488C48.2318 102.911 49.6613 101.88 50.2781 100.294L51.7614 96.4792L45.7274 96.4795Z" fill="#FFBE82"/>
<path d="M27.9043 35.9524V46.2764C27.9043 47.4604 28.7856 48.4203 29.8747 48.4203C30.9639 48.4203 31.8452 47.4604 31.8452 46.2764V37.6616C30.5129 37.0485 29.201 36.4626 27.9043 35.9524Z" fill="#8B534F"/>
<path d="M37.6165 40.2188L29.9583 67.9921C29.6465 69.127 30.2373 70.3223 31.2801 70.6626C31.4688 70.7244 31.6591 70.7536 31.8458 70.7536C32.6944 70.7536 33.4775 70.1538 33.7336 69.2252L41.3753 41.5111C40.0988 41.1505 38.8462 40.7105 37.6165 40.2188Z" fill="#734650"/>
<path d="M55.0711 55.431C55.3155 56.3773 56.1064 56.997 56.9664 56.997C57.1434 56.997 57.3223 56.9709 57.5012 56.9163C58.5479 56.596 59.1599 55.4131 58.8655 54.2729L55.5914 41.575C54.1228 41.7778 52.8073 41.9535 51.6328 42.0968L55.0711 55.431Z" fill="#734650"/>
<path d="M80.5471 39.1247L76.4799 57.6585C76.2278 58.8111 76.8802 59.9668 77.9386 60.2422C78.0925 60.2821 78.2465 60.3008 78.3985 60.3008C79.2895 60.3008 80.0976 59.6392 80.3132 58.6552L84.5857 39.1851C83.2811 39.1257 81.9323 39.1067 80.5471 39.1247Z" fill="#734650"/>
<path d="M100.876 58.2881L91.0189 67.1337C90.18 67.8874 90.0607 69.2389 90.7534 70.1517C91.144 70.6656 91.706 70.9315 92.2755 70.9315C92.7161 70.9315 93.1607 70.7713 93.5283 70.4416L101.319 63.4505C101.058 61.8088 100.899 60.0833 100.876 58.2881Z" fill="#734650"/>
<path d="M103.17 70.634L99.2191 73.5327C98.3167 74.1943 98.0781 75.5268 98.6862 76.509C99.0671 77.1234 99.6887 77.4542 100.322 77.4542C100.701 77.4542 101.084 77.336 101.421 77.0878L104.827 74.5885C104.265 73.4135 103.696 72.0931 103.17 70.634Z" fill="#8B534F"/>
</g>
<defs>
<clipPath id="clip0">
<rect width="124.138" height="135.068" fill="white" transform="translate(0 0.211914)"/>
</clipPath>
</defs>
</svg>
