<svg width="128" height="134" viewBox="0 0 128 134" fill="none" xmlns="http://www.w3.org/2000/svg">
<path d="M127.5 67C127.5 103.749 99.0487 133.5 64 133.5C28.9513 133.5 0.5 103.749 0.5 67C0.5 30.2512 28.9513 0.5 64 0.5C99.0487 0.5 127.5 30.2512 127.5 67Z" fill="white" stroke="black"/>
<path opacity="0.6" d="M59.4692 73.9873C59.5116 71.4694 59.7972 69.4805 60.3262 68.0205C60.8551 66.5605 61.9342 64.9419 63.5635 63.1646L67.7212 58.8799C69.4985 56.8698 70.3872 54.7116 70.3872 52.4053C70.3872 50.1836 69.8053 48.4486 68.6416 47.2002C67.4779 45.9307 65.7852 45.2959 63.5635 45.2959C61.4053 45.2959 59.6702 45.8672 58.3584 47.0098C57.0465 48.1523 56.3906 49.6864 56.3906 51.6118H50.519C50.5614 48.1841 51.778 45.4229 54.1689 43.3281C56.5811 41.2122 59.7126 40.1543 63.5635 40.1543C67.5625 40.1543 70.6729 41.2334 72.8945 43.3916C75.1374 45.5286 76.2588 48.4697 76.2588 52.2148C76.2588 55.9176 74.5449 59.5675 71.1172 63.1646L67.6577 66.5923C66.1131 68.3062 65.3408 70.7712 65.3408 73.9873H59.4692ZM59.2153 84.0483C59.2153 83.0962 59.501 82.3027 60.0723 81.668C60.6647 81.012 61.5322 80.6841 62.6748 80.6841C63.8174 80.6841 64.6849 81.012 65.2773 81.668C65.8698 82.3027 66.166 83.0962 66.166 84.0483C66.166 85.0005 65.8698 85.7939 65.2773 86.4287C64.6849 87.0423 63.8174 87.3491 62.6748 87.3491C61.5322 87.3491 60.6647 87.0423 60.0723 86.4287C59.501 85.7939 59.2153 85.0005 59.2153 84.0483Z" fill="black"/>
</svg>
